<?xml version="1.0" encoding="UTF-8" standalone="no"?>
<svg
   height="128px"
   viewBox="0 0 128 128"
   width="128px"
   version="1.1"
   id="svg8"
   sodipodi:docname="folder-torrent.svg"
   xml:space="preserve"
   inkscape:version="1.4.2 (ebf0e940d0, 2025-05-08)"
   xmlns:inkscape="http://www.inkscape.org/namespaces/inkscape"
   xmlns:sodipodi="http://sodipodi.sourceforge.net/DTD/sodipodi-0.dtd"
   xmlns="http://www.w3.org/2000/svg"
   xmlns:svg="http://www.w3.org/2000/svg"><defs
     id="defs8"><radialGradient
       id="logo-bottom-left"
       cx="0"
       cy="0"
       gradientTransform="matrix(-2.9166656,-11.122877,7.4152515,-1.9279654,59.322231,84.557486)"
       gradientUnits="userSpaceOnUse"
       r="1"><stop
         offset="0"
         stop-color="#fff"
         stop-opacity=".4"
         id="stop1-6" /><stop
         offset="1"
         stop-opacity=".1"
         id="stop2-2" /></radialGradient><radialGradient
       id="logo-top-right"
       cx="0"
       cy="0"
       gradientTransform="matrix(2.4717505,-18.735869,13.841803,1.8290954,69.140024,79.821612)"
       gradientUnits="userSpaceOnUse"
       r="1"><stop
         offset="0"
         stop-color="#fff"
         stop-opacity=".6"
         id="stop3-9" /><stop
         offset="1"
         stop-color="#fff"
         stop-opacity=".1"
         id="stop4-1" /></radialGradient><radialGradient
       id="logo-top-left"
       cx="0"
       cy="0"
       gradientTransform="matrix(3.4110157,-15.769768,10.776832,2.3234455,60.014321,76.499579)"
       gradientUnits="userSpaceOnUse"
       r="1"><stop
         offset="0"
         stop-color="#fff"
         stop-opacity=".8"
         id="stop5-2" /><stop
         offset="1"
         stop-color="#fff"
         stop-opacity=".4"
         id="stop6-7" /></radialGradient><radialGradient
       id="logo-bottom-right"
       cx="0"
       cy="0"
       gradientTransform="matrix(-4.745761,-8.0579066,9.2443469,-5.4872861,67.918979,86.643643)"
       gradientUnits="userSpaceOnUse"
       r="1"><stop
         offset="0"
         stop-color="#fff"
         stop-opacity=".3"
         id="stop7" /><stop
         offset="1"
         stop-opacity=".3"
         id="stop8" /></radialGradient><radialGradient
       id="logo-top-edge"
       cx="0"
       cy="0"
       gradientTransform="matrix(-36,166,-112,-24,310,128.2)"
       gradientUnits="userSpaceOnUse"
       r="1"><stop
         offset="0"
         stop-color="#fff"
         stop-opacity="0"
         id="stop9" /><stop
         offset="1"
         stop-color="#fff"
         stop-opacity=".2"
         id="stop10" /></radialGradient><radialGradient
       id="logo-left-edge"
       cx="0"
       cy="0"
       gradientTransform="matrix(88,89,-190,187,111,220.2)"
       gradientUnits="userSpaceOnUse"
       r="1"><stop
         offset="0"
         stop-color="#fff"
         stop-opacity=".2"
         id="stop11" /><stop
         offset="1"
         stop-color="#fff"
         stop-opacity=".4"
         id="stop12" /></radialGradient><radialGradient
       id="logo-bottom-edge"
       cx="0"
       cy="0"
       gradientTransform="matrix(9,130,-276,20,215,284)"
       gradientUnits="userSpaceOnUse"
       r="1"><stop
         offset="0"
         stop-color="#fff"
         stop-opacity=".2"
         id="stop13" /><stop
         offset="1"
         stop-color="#fff"
         stop-opacity=".3"
         id="stop14" /></radialGradient><radialGradient
       id="logo-middle-edge"
       cx="0"
       cy="0"
       gradientTransform="matrix(-198,-104,327,-623,400,399.2)"
       gradientUnits="userSpaceOnUse"
       r="1"><stop
         offset="0"
         stop-color="#fff"
         stop-opacity=".2"
         id="stop15" /><stop
         offset=".5"
         stop-color="#fff"
         stop-opacity=".2"
         id="stop16" /><stop
         offset="1"
         stop-color="#fff"
         stop-opacity=".3"
         id="stop17" /></radialGradient><clipPath
       clipPathUnits="userSpaceOnUse"
       id="clipPath1"><g
         id="g2"
         transform="matrix(20.228579,0,0,20.228579,-1038.6044,-1240.4778)"><path
           d="M 51.353307,61.332918 H 76.664032 V 86.643643 H 51.353307 Z"
           id="path1"
           style="stroke-width:0.049435" /></g></clipPath><clipPath
       clipPathUnits="userSpaceOnUse"
       id="clipPath2"><g
         id="g3"><path
           d="M 51.353307,61.332918 H 76.664032 V 86.643643 H 51.353307 Z"
           id="path2"
           style="stroke-width:0.049435" /></g></clipPath><clipPath
       clipPathUnits="userSpaceOnUse"
       id="clipPath3"><g
         id="g4"><path
           d="M 51.353307,61.332918 H 76.664032 V 86.643643 H 51.353307 Z"
           id="path3"
           style="stroke-width:0.049435" /></g></clipPath><clipPath
       clipPathUnits="userSpaceOnUse"
       id="clipPath4"><g
         id="g5"><path
           d="M 51.353307,61.332918 H 76.664032 V 86.643643 H 51.353307 Z"
           id="path4"
           style="stroke-width:0.049435" /></g></clipPath><clipPath
       clipPathUnits="userSpaceOnUse"
       id="clipPath5"><g
         id="g6"><path
           d="M 51.353307,61.332918 H 76.664032 V 86.643643 H 51.353307 Z"
           id="path5"
           style="stroke-width:0.049435" /></g></clipPath><clipPath
       clipPathUnits="userSpaceOnUse"
       id="clipPath6"><g
         id="g9"><path
           d="M 51.353307,61.332918 H 76.664032 V 86.643643 H 51.353307 Z"
           id="path9"
           style="stroke-width:0.049435" /></g></clipPath></defs><sodipodi:namedview
     id="namedview8"
     pagecolor="#ffffff"
     bordercolor="#000000"
     borderopacity="0.25"
     inkscape:showpageshadow="2"
     inkscape:pageopacity="0.0"
     inkscape:pagecheckerboard="0"
     inkscape:deskcolor="#d1d1d1"
     inkscape:zoom="1.2374369"
     inkscape:cx="-89.701543"
     inkscape:cy="84.852811"
     inkscape:window-width="1728"
     inkscape:window-height="1043"
     inkscape:window-x="0"
     inkscape:window-y="0"
     inkscape:window-maximized="1"
     inkscape:current-layer="svg8" /><linearGradient
     id="a"
     gradientTransform="matrix(0.45451 0 0 0.455522 -1210.292114 616.172607)"
     gradientUnits="userSpaceOnUse"
     x1="2689.251953"
     x2="2918.069824"
     y1="-1106.802979"
     y2="-1106.802979"><stop
       offset="0"
       stop-color="#62a0ea"
       id="stop1" /><stop
       offset="0.0576991"
       stop-color="#afd4ff"
       id="stop2" /><stop
       offset="0.122204"
       stop-color="#62a0ea"
       id="stop3" /><stop
       offset="0.873306"
       stop-color="#62a0ea"
       id="stop4" /><stop
       offset="0.955997"
       stop-color="#c0d5ea"
       id="stop5" /><stop
       offset="1"
       stop-color="#62a0ea"
       id="stop6" /></linearGradient><path
     d="M 21.976562,12 C 16.449219,12 12,16.460938 12,22 v 86.03125 c 0,5.54297 4.449219,10 9.976562,10 h 84.042968 c 5.53125,0 9.98047,-4.45703 9.98047,-10 V 35.945312 c 0,-6.628906 -5.35937,-12 -11.97266,-12 H 58 c -2.453125,0 -4.695312,-1.386718 -5.796875,-3.582031 L 50.699219,17.371094 C 49.042969,14.078125 45.679688,12 42,12 Z m 0,0"
     fill="#438de6"
     id="path6"
     style="fill:#a888c8;fill-opacity:1" /><path
     d="M 65.976562,36 C 63.230469,36 60.75,37.101562 58.949219,38.890625 56.675781,41.144531 53.566406,44 50.316406,44 H 21.976562 C 16.449219,44 12,48.460938 12,54 v 54.03125 c 0,5.54297 4.449219,10 9.976562,10 h 84.042968 c 5.53125,0 9.98047,-4.45703 9.98047,-10 V 46 c 0,-5.539062 -4.44922,-10 -9.98047,-10 z m 0,0"
     fill="url(#a)"
     id="path7"
     style="fill:#a888c8;fill-opacity:1" /><path
     d="M 65.976562,32 C 63.230469,32 60.75,33.101562 58.949219,34.890625 56.675781,37.144531 53.566406,40 50.316406,40 H 21.976562 C 16.449219,40 12,44.460938 12,50 v 55.97656 c 0,5.53907 4.449219,10 9.976562,10 h 84.042968 c 5.53125,0 9.98047,-4.46093 9.98047,-10 V 42 c 0,-5.539062 -4.44922,-10 -9.98047,-10 z m 0,0"
     fill="#a4caee"
     id="path8"
     style="fill:#dcdcf5;fill-opacity:1" /><path
     style="fill:#000000"
     id="path11" /><path
     style="fill:#000000"
     id="path10" /><g
     style="fill:#a888c8;fill-opacity:1"
     id="g1"
     transform="matrix(4.1936159,0,0,4.1936159,34.64469,47.660314)"><path
       d="m 6.5590634,4.41475 c -0.42968,0.083 -1.14736,0.4199 -1.46463,0.6835 -0.76654,0.6347 -1.14246,1.4842 -1.14246,2.5582 0,0.669 0.0781,1.0253 0.36612,1.5965 0.56144,1.118 1.74296,1.8797 3.53478,2.2654 0.42968,0.098 0.67862,0.1123 2.10908,0.1319 l 1.6257796,0.02 0.22947,-0.1367 c 0.21967,-0.127 1.22536,-1.0741 1.1814,-1.1132 -0.01,0 -0.19531,0 -0.41009,0.024 -0.21478,0.02 -0.88862,0.063 -1.49401,0.093 -2.3141896,0.1074 -3.6957996,-0.1172 -4.8138896,-0.7909 -0.32707,-0.2002 -0.83977,-0.7275 -0.98132,-1.0204 -0.5029,-1.0449 -0.21478,-2.2751 0.67372,-2.8707 1.04964,-0.6982 2.48501,-0.4297 3.16375,0.5956 l 0.12208,0.1806 0.46874,-0.249 c 0.25874,-0.1415 0.4785396,-0.2587 0.4882096,-0.2685 0.0587,-0.049 -0.20988,-0.4248 -0.5565296,-0.7762 -0.32229,-0.332 -0.46874,-0.4394 -0.85434,-0.6298 -0.72748,-0.3565 -1.43059,-0.4494 -2.24586,-0.2931 z m -0.17094,-1.4501 c -1.53308,0.249 -2.84636,1.2401 -3.51518,2.6511 -0.6103,1.2791 -0.55164,2.9294 0.15134,4.311 0.50781,0.996 1.37684,1.8552 2.40689,2.3727 l 0.38572,0.1904 h 1.70879 c 1.84067,0 2.15794,-0.029 2.8903196,-0.2734 0.35155,-0.1123 0.66392,-0.2637 0.39539,-0.1904 -0.23437,0.068 -2.1628396,0.034 -2.7096996,-0.044 -2.83167,-0.415 -4.53556,-2.0944 -4.53556,-4.4721 0,-0.5517 0.0147,-0.6543 0.14645,-1.0351 0.27343,-0.7958 0.77143,-1.4501 1.42067,-1.865 0.63955,-0.4101 1.25474,-0.586 2.03586,-0.5762 0.57123,0 1.03017,0.093 1.53295,0.2978 0.20021,0.083 0.37103,0.1416 0.37592,0.1368 0.01,0 0.11719,-0.2197 0.23927,-0.4687 0.25874,-0.5224 0.25874,-0.5224 -0.17094,-0.6885 -0.63466,-0.2489 -1.12287,-0.3466 -1.83088,-0.3661 -0.37555,-0.01 -0.79066,3e-4 -0.92731,0.02 z m -0.61029,-1.367 c -1.33275,0.2783 -2.38252,0.9228 -3.36384,2.0799 -0.66882,0.786 -1.19132,1.9821 -1.35234,3.1002 -0.21967495,1.5526 0.14645,3.0221 1.11797,4.4771 0.27343,0.4101 0.33197,0.4687 0.62009,0.6152 0.55654,0.2929 1.08381,0.4589 1.89431,0.5908 0.083,0.015 0.15624,0.019 0.15624,0.01 0,-0.01 -0.12208,-0.1123 -0.27833,-0.2246 -0.43935,-0.3321 -1.14736,-1.0791 -1.46462,-1.5478 -0.78601,-1.1474 -1.03018,-1.9968 -0.97642,-3.3834 0.0196,-0.5615 0.0537,-0.7909 0.15135,-1.1083 0.64923,-2.1237 2.41178,-3.5786 4.35494,-3.5981 h 0.40029 l 0.0293,-0.3174 c 0.0196,-0.1757 0.044,-0.4199 0.0635,-0.5516 l 0.0293,-0.2295 h -0.48331 c -0.26853,0 -0.66894,0.044 -0.89841,0.088 z"
       id="path1-3"
       style="fill:#a888c8;fill-opacity:1" /></g></svg>
