<?xml version="1.0" encoding="UTF-8" standalone="no"?>
<svg
   height="128px"
   viewBox="0 0 128 128"
   width="128px"
   version="1.1"
   id="svg8"
   sodipodi:docname="folder-others.svg"
   xml:space="preserve"
   inkscape:version="1.4.3 (0d15f75042, 2025-12-25)"
   xmlns:inkscape="http://www.inkscape.org/namespaces/inkscape"
   xmlns:sodipodi="http://sodipodi.sourceforge.net/DTD/sodipodi-0.dtd"
   xmlns="http://www.w3.org/2000/svg"
   xmlns:svg="http://www.w3.org/2000/svg"><defs
     id="defs8" /><sodipodi:namedview
     id="namedview8"
     pagecolor="#ffffff"
     bordercolor="#000000"
     borderopacity="0.25"
     inkscape:showpageshadow="2"
     inkscape:pageopacity="0.0"
     inkscape:pagecheckerboard="0"
     inkscape:deskcolor="#d1d1d1"
     inkscape:zoom="2.9045646"
     inkscape:cx="57.151423"
     inkscape:cy="30.985711"
     inkscape:window-width="1728"
     inkscape:window-height="1043"
     inkscape:window-x="0"
     inkscape:window-y="0"
     inkscape:window-maximized="1"
     inkscape:current-layer="svg8" /><linearGradient
     id="a"
     gradientTransform="matrix(0.45451 0 0 0.455522 -1210.292114 616.172607)"
     gradientUnits="userSpaceOnUse"
     x1="2689.251953"
     x2="2918.069824"
     y1="-1106.802979"
     y2="-1106.802979"><stop
       offset="0"
       stop-color="#62a0ea"
       id="stop1" /><stop
       offset="0.0576991"
       stop-color="#afd4ff"
       id="stop2" /><stop
       offset="0.122204"
       stop-color="#62a0ea"
       id="stop3" /><stop
       offset="0.873306"
       stop-color="#62a0ea"
       id="stop4" /><stop
       offset="0.955997"
       stop-color="#c0d5ea"
       id="stop5" /><stop
       offset="1"
       stop-color="#62a0ea"
       id="stop6" /></linearGradient><path
     d="M 21.976562,12 C 16.449219,12 12,16.460938 12,22 v 86.03125 c 0,5.54297 4.449219,10 9.976562,10 h 84.042968 c 5.53125,0 9.98047,-4.45703 9.98047,-10 V 35.945312 c 0,-6.628906 -5.35937,-12 -11.97266,-12 H 58 c -2.453125,0 -4.695312,-1.386718 -5.796875,-3.582031 L 50.699219,17.371094 C 49.042969,14.078125 45.679688,12 42,12 Z m 0,0"
     fill="#438de6"
     id="path6"
     style="fill:#e79b6a;fill-opacity:1" /><path
     d="M 65.976562,36 C 63.230469,36 60.75,37.101562 58.949219,38.890625 56.675781,41.144531 53.566406,44 50.316406,44 H 21.976562 C 16.449219,44 12,48.460938 12,54 v 54.03125 c 0,5.54297 4.449219,10 9.976562,10 h 84.042968 c 5.53125,0 9.98047,-4.45703 9.98047,-10 V 46 c 0,-5.539062 -4.44922,-10 -9.98047,-10 z m 0,0"
     fill="url(#a)"
     id="path7"
     style="fill:#e79b6a;fill-opacity:1" /><path
     d="M 65.976562,32 C 63.230469,32 60.75,33.101562 58.949219,34.890625 56.675781,37.144531 53.566406,40 50.316406,40 H 21.976562 C 16.449219,40 12,44.460938 12,50 v 55.97656 c 0,5.53907 4.449219,10 9.976562,10 h 84.042968 c 5.53125,0 9.98047,-4.46093 9.98047,-10 V 42 c 0,-5.539062 -4.44922,-10 -9.98047,-10 z m 0,0"
     fill="#a4caee"
     id="path8"
     style="fill:#ffe3d1;fill-opacity:1" /><path
     id="path1-9"
     style="fill:#e79b6a;fill-opacity:1;stroke-width:0.0444458"
     d="M 64.146484 55.603516 C 63.161744 55.603516 62.324227 55.949211 61.632812 56.640625 L 57.232422 61.041016 C 56.541008 61.73243 56.195312 62.569947 56.195312 63.554688 C 56.195312 64.539428 56.541008 65.376945 57.232422 66.068359 L 61.632812 70.46875 C 62.324227 71.160164 63.161744 71.505859 64.146484 71.505859 C 65.131225 71.505859 65.968742 71.160164 66.660156 70.46875 L 71.060547 66.068359 C 71.751961 65.376945 72.097656 64.539428 72.097656 63.554688 C 72.097656 62.569947 71.751961 61.73243 71.060547 61.041016 L 66.660156 56.640625 C 65.968742 55.949211 65.131225 55.603516 64.146484 55.603516 z M 50.947266 68.802734 C 49.962525 68.802734 49.123055 69.14843 48.431641 69.839844 L 44.033203 74.240234 C 43.341789 74.931648 42.996094 75.769166 42.996094 76.753906 C 42.996094 77.738647 43.341789 78.576164 44.033203 79.267578 L 48.431641 83.667969 C 49.123055 84.359383 49.962525 84.705078 50.947266 84.705078 C 51.932006 84.705078 52.769524 84.359383 53.460938 83.667969 L 57.861328 79.267578 C 58.552742 78.576164 58.898438 77.738647 58.898438 76.753906 C 58.898437 75.769166 58.552742 74.931648 57.861328 74.240234 L 53.460938 69.839844 C 52.769524 69.14843 51.932006 68.802734 50.947266 68.802734 z M 77.345703 68.802734 C 76.360962 68.802734 75.523445 69.14843 74.832031 69.839844 L 70.431641 74.240234 C 69.740227 74.931648 69.394531 75.769166 69.394531 76.753906 C 69.394531 77.738647 69.740227 78.576164 70.431641 79.267578 L 74.832031 83.667969 C 75.523445 84.359383 76.360962 84.705078 77.345703 84.705078 C 78.330444 84.705078 79.167961 84.359383 79.859375 83.667969 L 84.259766 79.267578 C 84.95118 78.576164 85.296875 77.738647 85.296875 76.753906 C 85.296875 75.769166 84.95118 74.931648 84.259766 74.240234 L 79.859375 69.839844 C 79.167961 69.14843 78.330444 68.802734 77.345703 68.802734 z M 64.146484 82.001953 C 63.161744 82.001953 62.324226 82.347648 61.632812 83.039062 L 57.232422 87.439453 C 56.541008 88.130867 56.195313 88.968384 56.195312 89.953125 C 56.195313 90.937866 56.541008 91.777336 57.232422 92.46875 L 61.632812 96.867188 C 62.324227 97.558601 63.161744 97.90625 64.146484 97.90625 C 65.131225 97.90625 65.968742 97.558602 66.660156 96.867188 L 71.060547 92.46875 C 71.751961 91.777336 72.097656 90.937866 72.097656 89.953125 C 72.097656 88.968384 71.751961 88.130867 71.060547 87.439453 L 66.660156 83.039062 C 65.968742 82.347649 65.131225 82.001953 64.146484 82.001953 z " /></svg>
