<?xml version="1.0" encoding="UTF-8" standalone="no"?>
<!-- Created with Inkscape (http://www.inkscape.org/) -->

<svg
   width="128"
   height="128"
   viewBox="0 0 128 128"
   version="1.1"
   id="svg5"
   inkscape:version="1.4.3 (0d15f75042, 2025-12-25)"
   sodipodi:docname="@filendesktop.svg"
   inkscape:export-filename="/home/retro/.icons/skeuowaita/scalable/apps/skeuowaita.png"
   inkscape:export-xdpi="1536"
   inkscape:export-ydpi="1536"
   xml:space="preserve"
   xmlns:inkscape="http://www.inkscape.org/namespaces/inkscape"
   xmlns:sodipodi="http://sodipodi.sourceforge.net/DTD/sodipodi-0.dtd"
   xmlns:xlink="http://www.w3.org/1999/xlink"
   xmlns="http://www.w3.org/2000/svg"
   xmlns:svg="http://www.w3.org/2000/svg"><sodipodi:namedview
     id="namedview7"
     pagecolor="#ffffff"
     bordercolor="#666666"
     borderopacity="1"
     inkscape:pageshadow="2"
     inkscape:pageopacity="0.0"
     inkscape:pagecheckerboard="true"
     inkscape:document-units="px"
     showgrid="false"
     inkscape:showpageshadow="false"
     showborder="true"
     inkscape:snap-page="true"
     inkscape:zoom="1.4142136"
     inkscape:cx="54.447222"
     inkscape:cy="20.85965"
     inkscape:window-width="1728"
     inkscape:window-height="1043"
     inkscape:window-x="0"
     inkscape:window-y="0"
     inkscape:window-maximized="1"
     inkscape:current-layer="layer2"
     inkscape:snap-bbox="true"
     inkscape:snap-bbox-midpoints="true"
     inkscape:snap-bbox-edge-midpoints="true"
     inkscape:bbox-nodes="true"
     inkscape:bbox-paths="true"
     inkscape:snap-intersection-paths="true"
     inkscape:object-paths="true"
     inkscape:snap-smooth-nodes="true"
     inkscape:snap-midpoints="true"
     inkscape:deskcolor="#d1d1d1" /><defs
     id="defs2"><linearGradient
       id="linearGradient6"
       inkscape:collect="always"><stop
         style="stop-color:#333333;stop-opacity:1;"
         offset="0"
         id="stop6" /><stop
         style="stop-color:#333333;stop-opacity:0.77251089;"
         offset="1"
         id="stop7" /></linearGradient><linearGradient
       inkscape:collect="always"
       id="linearGradient1668"><stop
         style="stop-color:#ffffff;stop-opacity:1;"
         offset="0"
         id="stop1664" /><stop
         style="stop-color:#ededed;stop-opacity:1;"
         offset="1"
         id="stop1666" /></linearGradient><linearGradient
       inkscape:collect="always"
       id="linearGradient1522"><stop
         style="stop-color:#a5a5a5;stop-opacity:1;"
         offset="0"
         id="stop1518" /><stop
         style="stop-color:#a5a5a5;stop-opacity:1;"
         offset="0.40000001"
         id="stop1617" /><stop
         style="stop-color:#c2c2c2;stop-opacity:1;"
         offset="0.5"
         id="stop1613" /><stop
         style="stop-color:#a5a5a5;stop-opacity:1;"
         offset="0.60000002"
         id="stop1615" /><stop
         style="stop-color:#a5a5a5;stop-opacity:1;"
         offset="1"
         id="stop1520" /></linearGradient><linearGradient
       y2="236"
       x2="96"
       y1="236"
       x1="32"
       gradientTransform="translate(604.81684,170.58641)"
       gradientUnits="userSpaceOnUse"
       id="linearGradient1099"
       xlink:href="#linearGradient1036" /><linearGradient
       id="linearGradient1036"><stop
         id="stop1032"
         offset="0"
         style="stop-color:#d5d3cf;stop-opacity:1;" /><stop
         id="stop1034"
         offset="1"
         style="stop-color:#f6f5f4;stop-opacity:1" /></linearGradient><radialGradient
       r="32"
       fy="-76"
       fx="-244"
       cy="-76"
       cx="-244"
       gradientTransform="matrix(0.88333331,0,0,0.88333331,-460.35018,463.11973)"
       gradientUnits="userSpaceOnUse"
       id="radialGradient1103"
       xlink:href="#linearGradient1069" /><linearGradient
       id="linearGradient1069"><stop
         id="stop1065"
         offset="0"
         style="stop-color:#d5d3cf;stop-opacity:1" /><stop
         id="stop1067-1"
         offset="1"
         style="stop-color:#949390;stop-opacity:1" /></linearGradient><linearGradient
       gradientUnits="userSpaceOnUse"
       y2="232"
       x2="64"
       y1="262.5"
       x1="64"
       id="linearGradient1027"
       xlink:href="#linearGradient1025"
       gradientTransform="translate(-470.5864,432.81685)" /><linearGradient
       id="linearGradient1025"><stop
         id="stop1021"
         offset="0"
         style="stop-color:#9a9996;stop-opacity:1" /><stop
         id="stop1023"
         offset="1"
         style="stop-color:#77767b;stop-opacity:1" /></linearGradient><inkscape:path-effect
       effect="spiro"
       id="path-effect35304-9"
       is_visible="true" /><clipPath
       clipPathUnits="userSpaceOnUse"
       id="clipPath1609-7"><path
         sodipodi:nodetypes="cccccc"
         inkscape:connector-curvature="0"
         id="path1611-5"
         d="m 252,116 28,-28 v -8 h -36 v 36 z"
         style="fill:#e74747;stroke:none;stroke-width:0.25px;stroke-linecap:butt;stroke-linejoin:miter;stroke-opacity:1" /></clipPath><radialGradient
       r="32"
       fy="-76"
       fx="-244"
       cy="-76"
       cx="-244"
       gradientTransform="matrix(0.88333331,0,0,0.88333331,-460.35018,463.11973)"
       gradientUnits="userSpaceOnUse"
       id="radialGradient1103-5"
       xlink:href="#linearGradient1069" /><inkscape:path-effect
       effect="spiro"
       id="path-effect35304-9-2"
       is_visible="true" /><clipPath
       clipPathUnits="userSpaceOnUse"
       id="clipPath1609-7-7"><path
         sodipodi:nodetypes="cccccc"
         inkscape:connector-curvature="0"
         id="path1611-5-0"
         d="m 252,116 28,-28 v -8 h -36 v 36 z"
         style="fill:#e74747;stroke:none;stroke-width:0.25px;stroke-linecap:butt;stroke-linejoin:miter;stroke-opacity:1" /></clipPath><clipPath
       clipPathUnits="userSpaceOnUse"
       id="clipPath744"><rect
         style="fill:#1e88e5;fill-opacity:1;stroke-width:0.264583"
         id="rect746"
         width="541.86664"
         height="541.86664"
         x="0"
         y="1.5987212e-14"
         rx="79.375"
         ry="79.375" /></clipPath><clipPath
       clipPathUnits="userSpaceOnUse"
       id="clipPath62"><rect
         style="fill:#1e88e5;fill-opacity:1;stroke-width:0.264583"
         id="rect64"
         width="541.86664"
         height="541.86664"
         x="2.2507105e-05"
         y="-0.42205024"
         rx="79.375"
         ry="79.375" /></clipPath><radialGradient
       r="32"
       fy="-76"
       fx="-244"
       cy="-76"
       cx="-244"
       gradientTransform="matrix(0.88333331,0,0,0.88333331,-460.35018,463.11973)"
       gradientUnits="userSpaceOnUse"
       id="radialGradient1103-6"
       xlink:href="#linearGradient1069" /><inkscape:path-effect
       effect="spiro"
       id="path-effect35304-9-20"
       is_visible="true" /><clipPath
       clipPathUnits="userSpaceOnUse"
       id="clipPath1609-7-2"><path
         sodipodi:nodetypes="cccccc"
         inkscape:connector-curvature="0"
         id="path1611-5-3"
         d="m 252,116 28,-28 v -8 h -36 v 36 z"
         style="fill:#e74747;stroke:none;stroke-width:0.25px;stroke-linecap:butt;stroke-linejoin:miter;stroke-opacity:1" /></clipPath><clipPath
       clipPathUnits="userSpaceOnUse"
       id="clipPath961"><rect
         style="fill:#00c853;stroke:none;stroke-width:0.529037"
         id="rect963"
         width="541.86664"
         height="541.86664"
         x="1.4210855e-14"
         y="2.717972e-05"
         rx="79.375"
         ry="79.375" /></clipPath><radialGradient
       r="32"
       fy="-76"
       fx="-244"
       cy="-76"
       cx="-244"
       gradientTransform="matrix(0.88333331,0,0,0.88333331,-460.35018,463.11973)"
       gradientUnits="userSpaceOnUse"
       id="radialGradient1103-56"
       xlink:href="#linearGradient1069" /><inkscape:path-effect
       effect="spiro"
       id="path-effect35304-9-7"
       is_visible="true" /><clipPath
       clipPathUnits="userSpaceOnUse"
       id="clipPath1440"><circle
         style="display:inline;opacity:1;vector-effect:none;fill:none;fill-opacity:1;stroke:#000000;stroke-width:2;stroke-linecap:butt;stroke-linejoin:miter;stroke-miterlimit:4;stroke-dasharray:none;stroke-dashoffset:0;stroke-opacity:1;marker:none;marker-start:none;marker-mid:none;marker-end:none;paint-order:normal;enable-background:new"
         id="circle1442"
         cx="-134.35028"
         cy="193.74727"
         r="24"
         transform="rotate(-45)" /></clipPath><clipPath
       clipPathUnits="userSpaceOnUse"
       id="clipPath1430"><circle
         style="display:inline;opacity:1;vector-effect:none;fill:none;fill-opacity:1;stroke:#000000;stroke-width:2;stroke-linecap:butt;stroke-linejoin:miter;stroke-miterlimit:4;stroke-dasharray:none;stroke-dashoffset:0;stroke-opacity:1;marker:none;marker-start:none;marker-mid:none;marker-end:none;paint-order:normal;enable-background:new"
         id="circle1432"
         cx="12"
         cy="232"
         r="24" /></clipPath><clipPath
       clipPathUnits="userSpaceOnUse"
       id="clipPath1440-9"><circle
         style="display:inline;opacity:1;vector-effect:none;fill:none;fill-opacity:1;stroke:#000000;stroke-width:2;stroke-linecap:butt;stroke-linejoin:miter;stroke-miterlimit:4;stroke-dasharray:none;stroke-dashoffset:0;stroke-opacity:1;marker:none;marker-start:none;marker-mid:none;marker-end:none;paint-order:normal;enable-background:new"
         id="circle1442-5"
         cx="-134.35028"
         cy="193.74727"
         r="24"
         transform="rotate(-45)" /></clipPath><clipPath
       clipPathUnits="userSpaceOnUse"
       id="clipPath1430-1"><circle
         style="display:inline;opacity:1;vector-effect:none;fill:none;fill-opacity:1;stroke:#000000;stroke-width:2;stroke-linecap:butt;stroke-linejoin:miter;stroke-miterlimit:4;stroke-dasharray:none;stroke-dashoffset:0;stroke-opacity:1;marker:none;marker-start:none;marker-mid:none;marker-end:none;paint-order:normal;enable-background:new"
         id="circle1432-8"
         cx="12"
         cy="232"
         r="24" /></clipPath><clipPath
       clipPathUnits="userSpaceOnUse"
       id="clipPath2024"><rect
         style="opacity:1;vector-effect:none;fill:#63452c;fill-opacity:1;stroke:none;stroke-width:4;stroke-linecap:round;stroke-linejoin:round;stroke-miterlimit:4;stroke-dasharray:none;stroke-dashoffset:0;stroke-opacity:1"
         id="rect2026"
         width="74"
         height="98"
         x="6"
         y="196" /></clipPath><linearGradient
       id="linearGradient914"
       inkscape:collect="always"><stop
         id="stop910"
         offset="0"
         style="stop-color:#f6f5f4;stop-opacity:0.43700787" /><stop
         id="stop912"
         offset="1"
         style="stop-color:#deddda;stop-opacity:0;" /></linearGradient><radialGradient
       gradientTransform="matrix(2.6086955,0,0,1.8410361,-102.95652,-748.94671)"
       gradientUnits="userSpaceOnUse"
       r="46"
       fy="296"
       fx="64.000008"
       cy="296"
       cx="64.000008"
       id="radialGradient916"
       xlink:href="#linearGradient914"
       inkscape:collect="always" /><clipPath
       clipPathUnits="userSpaceOnUse"
       id="clipPath11543"><rect
         style="fill:#f0c04e;fill-opacity:1;stroke:none;stroke-width:0.529037"
         id="rect11545"
         width="541.86664"
         height="541.86664"
         x="1.4746095e-06"
         y="6.4330168e-05"
         rx="79.375"
         ry="79.375" /></clipPath><style
       id="style374">.cls-1{fill:url(#linear-gradient);}.cls-2{opacity:0.35;fill:url(#radial-gradient);}.cls-2,.cls-4{isolation:isolate;}.cls-3{fill:url(#linear-gradient-2);}.cls-4{opacity:0.41;fill:url(#radial-gradient-2);}.cls-5{fill:url(#radial-gradient-3);}.cls-6{fill:url(#radial-gradient-4);}</style><linearGradient
       id="linear-gradient"
       x1="63.33"
       y1="84.03"
       x2="241.67"
       y2="84.03"
       gradientTransform="matrix(1,0,0,-1,0,266)"
       gradientUnits="userSpaceOnUse"><stop
         offset="0"
         stop-color="#0c59a4"
         id="stop376" /><stop
         offset="1"
         stop-color="#114a8b"
         id="stop378" /></linearGradient><radialGradient
       id="radial-gradient"
       cx="161.83"
       cy="68.91"
       r="95.38"
       gradientTransform="matrix(1,0,0,-0.95,0,248.84)"
       gradientUnits="userSpaceOnUse"><stop
         offset="0.72"
         stop-opacity="0"
         id="stop381" /><stop
         offset="0.95"
         stop-opacity="0.53"
         id="stop383" /><stop
         offset="1"
         id="stop385" /></radialGradient><linearGradient
       id="linear-gradient-2"
       x1="157.35"
       y1="161.39"
       x2="45.96"
       y2="40.06"
       gradientTransform="matrix(1,0,0,-1,0,266)"
       gradientUnits="userSpaceOnUse"><stop
         offset="0"
         stop-color="#1b9de2"
         id="stop388" /><stop
         offset="0.16"
         stop-color="#1595df"
         id="stop390" /><stop
         offset="0.67"
         stop-color="#0680d7"
         id="stop392" /><stop
         offset="1"
         stop-color="#0078d4"
         id="stop394" /></linearGradient><radialGradient
       id="radial-gradient-2"
       cx="-340.29"
       cy="62.99"
       r="143.24"
       gradientTransform="matrix(0.15,-0.99,-0.8,-0.12,176.64,-125.4)"
       gradientUnits="userSpaceOnUse"><stop
         offset="0.76"
         stop-opacity="0"
         id="stop397" /><stop
         offset="0.95"
         stop-opacity="0.5"
         id="stop399" /><stop
         offset="1"
         id="stop401" /></radialGradient><radialGradient
       id="radial-gradient-3"
       cx="113.37"
       cy="570.21"
       r="202.43"
       gradientTransform="matrix(-0.04,1,2.13,0.08,-1179.54,-106.69)"
       gradientUnits="userSpaceOnUse"><stop
         offset="0"
         stop-color="#35c1f1"
         id="stop404" /><stop
         offset="0.11"
         stop-color="#34c1ed"
         id="stop406" /><stop
         offset="0.23"
         stop-color="#2fc2df"
         id="stop408" /><stop
         offset="0.31"
         stop-color="#2bc3d2"
         id="stop410" /><stop
         offset="0.67"
         stop-color="#36c752"
         id="stop412" /></radialGradient><radialGradient
       id="radial-gradient-4"
       cx="376.52"
       cy="567.97"
       r="97.34"
       gradientTransform="matrix(0.28,0.96,0.78,-0.23,-303.76,-148.5)"
       gradientUnits="userSpaceOnUse"><stop
         offset="0"
         stop-color="#66eb6e"
         id="stop415" /><stop
         offset="1"
         stop-color="#66eb6e"
         stop-opacity="0"
         id="stop417" /></radialGradient><clipPath
       clipPathUnits="userSpaceOnUse"
       id="clipPath1260"><rect
         style="fill:#bbdefb;fill-opacity:1;stroke:none;stroke-width:0.529037"
         id="rect1262"
         width="541.86664"
         height="541.86664"
         x="2.9492187e-06"
         y="3.9968629e-05"
         rx="79.375"
         ry="79.375" /></clipPath><clipPath
       clipPathUnits="userSpaceOnUse"
       id="clipPath16285"><rect
         style="fill:#bbdefb;fill-opacity:1;stroke:none;stroke-width:0.529037"
         id="rect16287"
         width="541.86664"
         height="541.86664"
         x="0"
         y="6.4807005e-05"
         rx="79.375"
         ry="79.375" /></clipPath><clipPath
       clipPathUnits="userSpaceOnUse"
       id="clipPath990"><rect
         style="fill:#bbdefb;fill-opacity:1;stroke:none;stroke-width:0.529037"
         id="rect992"
         width="487.67996"
         height="487.67996"
         x="27.093349"
         y="27.093338"
         rx="71.4375"
         ry="71.4375" /></clipPath><linearGradient
       inkscape:collect="always"
       xlink:href="#linearGradient1522"
       id="linearGradient1524"
       x1="9"
       y1="64"
       x2="119"
       y2="64"
       gradientUnits="userSpaceOnUse" /><linearGradient
       inkscape:collect="always"
       xlink:href="#linearGradient1668"
       id="linearGradient1670"
       x1="64.502502"
       y1="5.0022955"
       x2="64.502502"
       y2="114.77119"
       gradientUnits="userSpaceOnUse" /><style
       id="style1">.cls-1{fill:#fff;}.cls-2{fill-rule:evenodd;}</style><linearGradient
       inkscape:collect="always"
       xlink:href="#linearGradient6"
       id="linearGradient7"
       x1="63.994308"
       y1="104.37095"
       x2="63.994308"
       y2="15.226987"
       gradientUnits="userSpaceOnUse"
       gradientTransform="matrix(1.04428,0,0,1.04428,-2.8339231,-2.6873657)" /></defs><g
     inkscape:groupmode="layer"
     id="layer2"
     inkscape:label="Layer 1"><path
       id="circle372"
       style="fill:url(#linearGradient1524);fill-opacity:1;stroke-width:1"
       d="M 64,5 A 55,55 0 0 0 9,60 v 8 a 55,55 0 0 0 55,55 55,55 0 0 0 55,-55 V 60 A 55,55 0 0 0 64,5 Z" /><circle
       style="fill:url(#linearGradient1670);fill-opacity:1;stroke-width:1"
       id="path953"
       cx="64"
       cy="60"
       r="55"
       inkscape:export-filename="/home/retro/.icons/skeuowaita/scalable/apps/skeuwaita.png"
       inkscape:export-xdpi="1536"
       inkscape:export-ydpi="1536" /><text
       xml:space="preserve"
       style="font-style:normal;font-variant:normal;font-weight:normal;font-stretch:normal;font-size:40px;line-height:1.25;font-family:'DejaVu Math TeX Gyre';-inkscape-font-specification:'DejaVu Math TeX Gyre';fill:#000000;fill-opacity:1;stroke:none"
       x="57.326862"
       y="68.239342"
       id="text3441"><tspan
         sodipodi:role="line"
         id="tspan3439"
         x="57.326862"
         y="68.239342" /></text><text
       xml:space="preserve"
       style="font-size:40px;line-height:1.25;font-family:Caladea;-inkscape-font-specification:Caladea"
       x="43.192081"
       y="68.806938"
       id="text13903"><tspan
         sodipodi:role="line"
         id="tspan13901"
         x="43.192081"
         y="68.806938" /></text><circle
       style="fill:#e6e6e6;fill-opacity:1;stroke-width:0.949152"
       id="circle1662"
       cx="64"
       cy="60"
       r="52.203354"
       inkscape:export-filename="/home/retro/.icons/skeuowaita/scalable/apps/skeuwaita.png"
       inkscape:export-xdpi="1536"
       inkscape:export-ydpi="1536" /><path
       id="path2"
       d="m 63.999999,15.296697 c -25.823395,0 -46.761502,20.937692 -46.761502,46.761091 0,25.823391 20.938107,46.761502 46.761502,46.761502 25.823393,0 46.761501,-20.938109 46.761501,-46.761502 0,-25.823395 -20.935984,-46.761091 -46.761501,-46.761091 z m 0.0108,5.965032 c 9.377768,0 18.003043,3.15775 24.890273,8.502207 -0.01062,0.09137 -0.01029,0.182551 -0.01029,0.273928 V 45.059602 H 48.538314 c -0.051,0 -0.09136,0.0108 -0.142364,0.0108 -0.051,0 -0.09136,0.0108 -0.142358,0.0108 -0.051,0 -0.09135,0.01053 -0.14236,0.02119 -0.05101,0.0085 -0.09136,0.01925 -0.142361,0.02989 -0.051,0.01062 -0.09135,0.02963 -0.142359,0.04025 -0.05101,0.01062 -0.09136,0.02963 -0.142364,0.04026 -0.05101,0.01062 -0.09136,0.0298 -0.14236,0.05105 -0.04038,0.02124 -0.08098,0.04017 -0.131985,0.06142 -0.05099,0.02124 -0.08057,0.05121 -0.131569,0.06184 -0.05101,0.01062 -0.08099,0.04017 -0.131982,0.06142 -0.04038,0.01912 -0.08082,0.04039 -0.121196,0.07014 -0.04038,0.0085 -0.0804,0.0404 -0.120777,0.07014 -0.0425,0.01912 -0.07039,0.05118 -0.112893,0.08094 -0.0425,0.02975 -0.06998,0.06156 -0.112477,0.09131 -0.0425,0.02975 -0.07209,0.05094 -0.112478,0.09131 l -0.102105,0.102095 c -0.02975,0.03187 -0.06156,0.05961 -0.09131,0.102105 -0.02975,0.0425 -0.06197,0.07209 -0.09173,0.112476 -0.01912,0.0425 -0.05077,0.07209 -0.08053,0.112477 -0.01912,0.04038 -0.05119,0.08082 -0.08093,0.121193 -0.01912,0.04038 -0.04039,0.0702 -0.07014,0.121193 -0.01912,0.051 -0.04889,0.08099 -0.07014,0.131986 -0.01062,0.05099 -0.04018,0.09119 -0.06142,0.131568 -0.02125,0.04038 -0.04059,0.08057 -0.06184,0.131571 -0.01062,0.04038 -0.02938,0.08098 -0.05063,0.131982 -0.02124,0.051 -0.04042,0.09136 -0.05105,0.142361 -0.01062,0.051 -0.03218,0.09136 -0.04067,0.142362 -0.0085,0.05101 -0.02098,0.09136 -0.02946,0.142359 -0.0085,0.051 -0.01925,0.09136 -0.02989,0.142361 -0.01062,0.05101 -0.02119,0.09136 -0.02119,0.14236 0,0.051 -0.0108,0.09136 -0.0108,0.142361 v 9.265059 c -1.5959,1.005142 -2.651725,2.794615 -2.651725,4.826147 0,3.159924 2.528688,5.720571 5.688613,5.720571 3.159922,0 5.709778,-2.560899 5.709778,-5.710195 0,-2.082532 -1.106891,-3.899233 -2.772916,-4.895874 v -6.065056 h 40.409642 c 0.06162,0 0.09111,2.12e-4 0.152739,-0.01029 0.06163,-0.01062 0.102148,-0.01053 0.153151,-0.02119 0.051,-0.0085 0.09136,-0.01925 0.142359,-0.02989 0.051,-0.0085 0.09135,-0.01925 0.142362,-0.02989 0.051,-0.01062 0.09136,-0.01902 0.142361,-0.04026 0.051,-0.02125 0.09136,-0.0298 0.142359,-0.05106 0.051,-0.02127 0.09136,-0.04019 0.142362,-0.06143 0.04038,-0.02124 0.08057,-0.04059 0.131569,-0.06184 0.051,-0.01062 0.08098,-0.0423 0.131982,-0.06142 0.051,-0.01912 0.08057,-0.0404 0.131572,-0.07014 0.04037,-0.0085 0.08082,-0.0404 0.121193,-0.07014 0.051,-0.01912 0.08082,-0.05118 0.121193,-0.08094 0.0425,-0.02975 0.0721,-0.06156 0.112479,-0.09131 0.0425,-0.02975 0.07252,-0.05093 0.11289,-0.09131 0.03187,-0.04038 0.06132,-0.07023 0.101685,-0.102095 0.04038,-0.03187 0.07234,-0.06173 0.102095,-0.102095 0.02975,-0.0425 0.06156,-0.07209 0.09131,-0.112478 0.02975,-0.0425 0.06197,-0.07209 0.09173,-0.11248 0.01912,-0.04037 0.05076,-0.08082 0.08053,-0.121193 0.01912,-0.04038 0.04039,-0.07018 0.07014,-0.121189 0.01912,-0.051 0.05951,-0.08057 0.07015,-0.13157 0.01062,-0.051 0.04059,-0.08099 0.06184,-0.131985 0.02124,-0.04038 0.04018,-0.08057 0.06142,-0.131572 0.02124,-0.05101 0.04018,-0.09136 0.06142,-0.142359 0.02125,-0.051 0.0298,-0.09135 0.05105,-0.142361 0.01062,-0.051 0.03218,-0.09136 0.04066,-0.142359 0.0085,-0.051 0.02095,-0.09135 0.02947,-0.142359 0.0085,-0.051 0.01925,-0.09177 0.02989,-0.142778 0.01062,-0.05101 0.02119,-0.08074 0.02119,-0.142361 0,-0.06163 0.0108,-0.101738 0.0108,-0.152736 V 35.359165 c 6.207221,7.152859 9.955701,16.487841 9.955701,26.69863 v 0.569439 H 91.814681 c -0.051,0 -0.09135,0.0108 -0.142362,0.0108 -0.051,0 -0.09135,1.64e-4 -0.142361,0.0108 -0.051,0.01062 -0.09136,0.01053 -0.142359,0.02115 -0.051,0.0085 -0.09135,0.01925 -0.142361,0.02989 -0.051,0.01912 -0.09136,0.02963 -0.142359,0.04026 -0.05101,0.01062 -0.09177,0.01902 -0.142778,0.04026 -0.051,0.01062 -0.09136,0.0298 -0.142358,0.05105 -0.04038,0.02124 -0.08057,0.04017 -0.131572,0.06142 -0.05099,0.02124 -0.08057,0.04059 -0.131568,0.06184 -0.051,0.01062 -0.09161,0.03167 -0.131985,0.06142 -0.04038,0.01912 -0.08082,0.04889 -0.121194,0.07014 -0.04038,0.0085 -0.08082,0.0404 -0.121191,0.07015 -0.051,0.01912 -0.0804,0.05117 -0.120781,0.08094 -0.0425,0.02975 -0.07252,0.06156 -0.11289,0.09131 -0.0425,0.02975 -0.0721,0.06156 -0.112479,0.09131 -0.04038,0.04038 -0.06173,0.07022 -0.102094,0.102094 -0.04038,0.03188 -0.07234,0.06173 -0.102095,0.102106 -0.02975,0.0425 -0.06156,0.07209 -0.09131,0.112478 -0.01912,0.0425 -0.06139,0.07209 -0.08052,0.112475 -0.01912,0.04038 -0.0512,0.08082 -0.08094,0.121196 -0.01912,0.04037 -0.05102,0.08082 -0.07014,0.121193 -0.01912,0.04038 -0.04889,0.0702 -0.07014,0.121192 -0.01062,0.05101 -0.04018,0.09119 -0.06143,0.131571 -0.02124,0.04038 -0.0406,0.08098 -0.06183,0.131981 -0.02124,0.051 -0.02981,0.09136 -0.05105,0.142361 -0.02126,0.051 -0.0298,0.09136 -0.05105,0.142363 -0.01062,0.051 -0.03176,0.09135 -0.04026,0.142358 -0.0085,0.051 -0.02139,0.09136 -0.02989,0.142363 -0.0085,0.05101 -0.01885,0.09135 -0.02946,0.142357 -0.01062,0.051 -0.02119,0.09136 -0.02119,0.142366 0,0.051 -0.0108,0.09135 -0.0108,0.142359 v 28.92368 c -2.37791,1.827527 -4.957749,3.402229 -7.701167,4.673001 V 70.481535 c 1.676651,-0.994516 2.794502,-2.824132 2.794502,-4.906665 0,-3.159925 -2.550272,-5.710197 -5.710197,-5.710197 -3.159921,0 -5.709779,2.560898 -5.709779,5.710197 0,2.031529 1.056242,3.810216 2.652141,4.815356 V 101.2945 c -3.555178,1.01576 -7.314295,1.55352 -11.194605,1.55352 -4.326566,0 -8.513159,-0.68236 -12.455095,-1.92125 0.01912,-0.13175 0.02989,-0.26337 0.02989,-0.39512 V 77.389968 h 6.978574 c 0.996639,1.655398 2.815666,2.762541 4.887574,2.762541 3.159925,0 5.710198,-2.549856 5.710198,-5.709782 0,-3.159922 -2.5609,-5.710194 -5.710198,-5.710194 -2.042156,0 -3.83138,1.066834 -4.836524,2.671231 H 48.538312 c -0.051,0 -0.09136,0.0108 -0.142363,0.0108 -0.05101,0.01062 -0.09136,0.02119 -0.142362,0.02119 -0.051,0 -0.09135,0.01266 -0.142358,0.02115 -0.051,0.0085 -0.09136,0.01925 -0.142362,0.02989 -0.05101,0.01062 -0.09135,0.02963 -0.142359,0.04025 -0.051,0.01062 -0.09136,0.019 -0.142361,0.04026 -0.051,0.02124 -0.09136,0.0298 -0.142363,0.05105 -0.04038,0.02124 -0.08098,0.04059 -0.131981,0.06184 -0.051,0.02124 -0.08057,0.0508 -0.131571,0.06143 -0.051,0.01062 -0.08098,0.04059 -0.131984,0.06183 -0.04038,0.01912 -0.08082,0.0404 -0.121195,0.07014 -0.04038,0.0085 -0.0804,0.0404 -0.120779,0.07014 -0.0425,0.01912 -0.07251,0.05078 -0.112889,0.08052 -0.0425,0.02975 -0.07209,0.06156 -0.112479,0.0913 -0.0425,0.02975 -0.07209,0.06156 -0.112475,0.09131 -0.04038,0.04038 -0.07234,0.07021 -0.102105,0.102094 -0.02975,0.03187 -0.06156,0.06173 -0.09131,0.102095 -0.02975,0.0425 -0.06197,0.0721 -0.09172,0.112477 -0.01913,0.0425 -0.05078,0.07252 -0.08053,0.11289 -0.01913,0.051 -0.05118,0.08082 -0.08094,0.121196 -0.01912,0.04038 -0.0404,0.0804 -0.07014,0.120778 -0.01912,0.04038 -0.0489,0.07019 -0.07014,0.121193 -0.01062,0.051 -0.04019,0.0916 -0.06142,0.131984 -0.02124,0.04038 -0.04059,0.08057 -0.06184,0.13157 -0.01062,0.04038 -0.02938,0.08099 -0.05064,0.131985 -0.02124,0.051 -0.04042,0.09136 -0.05105,0.142359 -0.01062,0.05101 -0.03005,0.09136 -0.04067,0.142361 -0.0085,0.051 -0.01885,0.09136 -0.02946,0.14236 -0.0085,0.051 -0.01925,0.09136 -0.02989,0.142362 -0.01062,0.05099 -0.02119,0.09136 -0.02119,0.142361 0,0.051 -0.0108,0.09135 -0.0108,0.142359 v 24.24031 c -3.555179,-1.799901 -6.81697,-4.105743 -9.692139,-6.82791 0.01062,-0.05949 0.0108,-0.09984 0.0108,-0.161453 V 35.728959 h 32.25569 c 0.996642,1.655403 2.815668,2.762542 4.887575,2.762542 3.149297,0 5.70978,-2.539473 5.70978,-5.699406 0,-3.159918 -2.560483,-5.710191 -5.70978,-5.710191 -2.042157,0 -3.831384,1.066836 -4.836524,2.671232 H 39.093116 c -8.36e-4,5.77e-4 -0.0019,10e-4 -0.0029,0.0021 v -0.0021 h 0.0029 c 6.886792,-5.321924 15.541156,-8.491415 24.917676,-8.491415 z M 29.96752,39.5561 v 45.014576 c -4.277688,-6.451598 -6.766068,-14.193388 -6.766068,-22.512888 0,-8.319505 2.48838,-16.060714 6.76607,-22.501688 z m 64.856239,29.034086 h 9.447681 c -1.22826,7.658614 -4.581363,14.588229 -9.447681,20.174939 z"
       style="fill:#b3b3b3;fill-opacity:1;stroke-width:0.212503" /><path
       id="path3"
       d="m 63.999999,13.208137 c -25.823395,0 -46.761502,20.937692 -46.761502,46.761092 0,25.82339 20.938107,46.761501 46.761502,46.761501 25.823393,0 46.761501,-20.938109 46.761501,-46.761501 0,-25.823396 -20.935984,-46.761092 -46.761501,-46.761092 z m 0.0108,5.965032 c 9.377768,0 18.003043,3.15775 24.890273,8.502207 -0.01062,0.09137 -0.01029,0.182551 -0.01029,0.273928 V 42.971041 H 48.538314 c -0.051,0 -0.09136,0.0108 -0.142364,0.0108 -0.051,0 -0.09136,0.0108 -0.142358,0.0108 -0.051,0 -0.09135,0.01053 -0.14236,0.02119 -0.05101,0.0085 -0.09136,0.01925 -0.142361,0.02989 -0.051,0.01062 -0.09135,0.02963 -0.142359,0.04026 -0.05101,0.01062 -0.09136,0.02963 -0.142364,0.04025 -0.05101,0.01062 -0.09136,0.0298 -0.14236,0.05105 -0.04038,0.02124 -0.08098,0.04017 -0.131985,0.06142 -0.05099,0.02124 -0.08057,0.05121 -0.131569,0.06184 -0.05101,0.01062 -0.08099,0.04017 -0.131982,0.06142 -0.04038,0.01912 -0.08082,0.04039 -0.121196,0.07014 -0.04038,0.0085 -0.0804,0.0404 -0.120777,0.07014 -0.0425,0.01912 -0.07039,0.05118 -0.112893,0.08093 -0.0425,0.02975 -0.06998,0.06156 -0.112477,0.09131 -0.0425,0.02975 -0.07209,0.05094 -0.112478,0.09131 l -0.102105,0.102095 c -0.02975,0.03187 -0.06156,0.05961 -0.09131,0.102105 -0.02975,0.0425 -0.06197,0.07209 -0.09173,0.112476 -0.01912,0.0425 -0.05077,0.07209 -0.08053,0.112477 -0.01912,0.04038 -0.05119,0.08082 -0.08093,0.121193 -0.01912,0.04038 -0.04039,0.0702 -0.07014,0.121193 -0.01912,0.051 -0.04889,0.08099 -0.07014,0.131985 -0.01062,0.051 -0.04018,0.09119 -0.06142,0.131569 -0.02125,0.04038 -0.04059,0.08057 -0.06184,0.131571 -0.01062,0.04038 -0.02938,0.08098 -0.05063,0.131982 -0.02124,0.051 -0.04042,0.09136 -0.05105,0.142361 -0.01062,0.051 -0.03218,0.09136 -0.04067,0.142362 -0.0085,0.051 -0.02098,0.09136 -0.02946,0.142359 -0.0085,0.051 -0.01925,0.09136 -0.02989,0.142361 -0.01062,0.051 -0.02119,0.09136 -0.02119,0.14236 0,0.051 -0.0108,0.09136 -0.0108,0.14236 v 9.26506 c -1.5959,1.005142 -2.651725,2.794615 -2.651725,4.826147 0,3.159923 2.528688,5.720571 5.688613,5.720571 3.159922,0 5.709778,-2.560899 5.709778,-5.710195 0,-2.082532 -1.106891,-3.899233 -2.772916,-4.895874 v -6.065055 h 40.409642 c 0.06162,0 0.09111,2.12e-4 0.152739,-0.01029 0.06163,-0.01062 0.102148,-0.01053 0.153151,-0.02119 0.051,-0.0085 0.09136,-0.01925 0.142359,-0.02989 0.051,-0.0085 0.09135,-0.01925 0.142362,-0.02989 0.051,-0.01062 0.09136,-0.01902 0.142361,-0.04025 0.051,-0.02124 0.09136,-0.0298 0.142359,-0.05106 0.051,-0.02126 0.09136,-0.04019 0.142362,-0.06143 0.04038,-0.02124 0.08057,-0.04059 0.131569,-0.06184 0.051,-0.01062 0.08098,-0.0423 0.131982,-0.06142 0.051,-0.01912 0.08057,-0.0404 0.131572,-0.07014 0.04037,-0.0085 0.08082,-0.0404 0.121193,-0.07014 0.051,-0.01912 0.08082,-0.05118 0.121193,-0.08093 0.0425,-0.02975 0.0721,-0.06156 0.112479,-0.09131 0.0425,-0.02975 0.07252,-0.05093 0.11289,-0.09131 0.03187,-0.04038 0.06132,-0.07023 0.101685,-0.102095 0.04038,-0.03187 0.07234,-0.06173 0.102095,-0.102105 0.02975,-0.0425 0.06156,-0.07209 0.09131,-0.112478 0.02975,-0.0425 0.06197,-0.07209 0.09173,-0.11248 0.01912,-0.04037 0.05076,-0.08082 0.08053,-0.121193 0.01912,-0.04038 0.04039,-0.07018 0.07014,-0.121189 0.01912,-0.051 0.05951,-0.08057 0.07015,-0.13157 0.01062,-0.051 0.04059,-0.08099 0.06184,-0.131985 0.02124,-0.04038 0.04018,-0.08057 0.06142,-0.131572 0.02124,-0.05101 0.04018,-0.09136 0.06142,-0.14236 0.02125,-0.051 0.0298,-0.09135 0.05105,-0.14236 0.01062,-0.051 0.03218,-0.09136 0.04066,-0.142359 0.0085,-0.05099 0.02095,-0.09135 0.02947,-0.142359 0.0085,-0.051 0.01925,-0.09177 0.02989,-0.142777 0.01062,-0.05101 0.02119,-0.08074 0.02119,-0.142362 0,-0.06163 0.0108,-0.101738 0.0108,-0.152736 V 33.270605 c 6.207221,7.152859 9.955701,16.487841 9.955701,26.69863 v 0.569439 H 91.814681 c -0.051,0 -0.09135,0.0108 -0.142362,0.0108 -0.051,0 -0.09135,1.64e-4 -0.142361,0.0108 -0.051,0.01062 -0.09136,0.01053 -0.142359,0.02115 -0.051,0.0085 -0.09135,0.01925 -0.142361,0.02989 -0.051,0.01912 -0.09136,0.02963 -0.142359,0.04025 -0.05101,0.01062 -0.09177,0.01902 -0.142778,0.04026 -0.051,0.01062 -0.09136,0.0298 -0.142358,0.05105 -0.04038,0.02124 -0.08057,0.04017 -0.131572,0.06142 -0.05099,0.02125 -0.08057,0.04059 -0.131568,0.06184 -0.051,0.01062 -0.09161,0.03167 -0.131985,0.06142 -0.04038,0.01912 -0.08082,0.0489 -0.121194,0.07014 -0.04038,0.0085 -0.08082,0.0404 -0.121191,0.07014 -0.051,0.01912 -0.0804,0.05117 -0.120781,0.08093 -0.0425,0.02975 -0.07252,0.06156 -0.11289,0.09131 -0.0425,0.02975 -0.0721,0.06156 -0.112479,0.09131 -0.04038,0.04038 -0.06173,0.07023 -0.102094,0.102095 -0.04038,0.03188 -0.07234,0.06173 -0.102095,0.102094 -0.02975,0.0425 -0.06156,0.07209 -0.09131,0.112478 -0.01912,0.0425 -0.06139,0.0721 -0.08052,0.112476 -0.01912,0.04038 -0.0512,0.08082 -0.08094,0.121196 -0.01912,0.04037 -0.05102,0.08082 -0.07014,0.121192 -0.01912,0.04038 -0.04889,0.0702 -0.07014,0.121192 -0.01062,0.05101 -0.04018,0.09119 -0.06143,0.131572 -0.02124,0.04038 -0.0406,0.08098 -0.06183,0.13198 -0.02124,0.051 -0.02981,0.09136 -0.05105,0.142362 -0.02126,0.051 -0.0298,0.09136 -0.05105,0.142363 -0.01062,0.051 -0.03176,0.09135 -0.04026,0.142358 -0.0085,0.051 -0.02139,0.09136 -0.02989,0.142363 -0.0085,0.051 -0.01885,0.09135 -0.02946,0.142357 -0.01062,0.051 -0.02119,0.09136 -0.02119,0.142366 0,0.051 -0.0108,0.09135 -0.0108,0.142357 V 92.3079 c -2.37791,1.827527 -4.957749,3.402228 -7.701167,4.673 V 68.392975 c 1.676651,-0.994516 2.794502,-2.824132 2.794502,-4.906665 0,-3.159925 -2.550272,-5.710197 -5.710197,-5.710197 -3.159921,0 -5.709779,2.560897 -5.709779,5.710197 0,2.031529 1.056242,3.810215 2.652141,4.815356 v 30.904276 c -3.555178,1.015758 -7.314295,1.553508 -11.194605,1.553508 -4.326566,0 -8.513159,-0.68235 -12.455095,-1.921243 0.01912,-0.131747 0.02989,-0.263371 0.02989,-0.395117 V 75.301408 h 6.978574 c 0.996639,1.655399 2.815666,2.762541 4.887574,2.762541 3.159925,0 5.710198,-2.549856 5.710198,-5.709782 0,-3.159922 -2.5609,-5.710194 -5.710198,-5.710194 -2.042156,0 -3.83138,1.066835 -4.836524,2.671231 H 48.538312 c -0.051,0 -0.09136,0.0108 -0.142363,0.0108 -0.05101,0.01062 -0.09136,0.02119 -0.142362,0.02119 -0.051,0 -0.09135,0.01266 -0.142358,0.02115 -0.051,0.0085 -0.09136,0.01925 -0.142362,0.02989 -0.05101,0.01062 -0.09135,0.02963 -0.142359,0.04026 -0.051,0.01062 -0.09136,0.019 -0.142361,0.04026 -0.051,0.02124 -0.09136,0.0298 -0.142363,0.05105 -0.04038,0.02124 -0.08098,0.04059 -0.131981,0.06184 -0.051,0.02124 -0.08057,0.05079 -0.131571,0.06143 -0.051,0.01062 -0.08098,0.04059 -0.131984,0.06183 -0.04038,0.01912 -0.08082,0.0404 -0.121195,0.07015 -0.04038,0.0085 -0.0804,0.0404 -0.120779,0.07014 -0.0425,0.01912 -0.07251,0.05078 -0.112889,0.08052 -0.0425,0.02975 -0.07209,0.06156 -0.112479,0.0913 -0.0425,0.02975 -0.07209,0.06156 -0.112475,0.09131 -0.04038,0.04038 -0.07234,0.07021 -0.102105,0.102094 -0.02975,0.03187 -0.06156,0.06173 -0.09131,0.102095 -0.02975,0.0425 -0.06197,0.07209 -0.09172,0.112477 -0.01913,0.0425 -0.05078,0.07252 -0.08053,0.11289 -0.01913,0.051 -0.05118,0.08082 -0.08094,0.121196 -0.01912,0.04038 -0.0404,0.0804 -0.07014,0.120777 -0.01912,0.04038 -0.0489,0.0702 -0.07014,0.121193 -0.01062,0.051 -0.04019,0.0916 -0.06142,0.131985 -0.02124,0.04038 -0.04059,0.08057 -0.06184,0.131569 -0.01062,0.04038 -0.02938,0.08099 -0.05064,0.131987 -0.02124,0.05099 -0.04042,0.09136 -0.05105,0.142358 -0.01062,0.05101 -0.03005,0.09136 -0.04067,0.142362 -0.0085,0.05099 -0.01885,0.09136 -0.02946,0.142359 -0.0085,0.051 -0.01925,0.09136 -0.02989,0.142361 -0.01062,0.05099 -0.02119,0.09136 -0.02119,0.142361 0,0.051 -0.0108,0.09135 -0.0108,0.14236 v 24.24031 c -3.555179,-1.799901 -6.81697,-4.105743 -9.692139,-6.82791 0.01062,-0.05949 0.0108,-0.09984 0.0108,-0.161453 V 33.640399 h 32.25569 c 0.996642,1.655403 2.815668,2.762542 4.887575,2.762542 3.149297,0 5.70978,-2.539474 5.70978,-5.699406 0,-3.159918 -2.560483,-5.710191 -5.70978,-5.710191 -2.042157,0 -3.831384,1.066835 -4.836524,2.671232 H 39.093116 c -8.36e-4,5.77e-4 -0.0019,0.001 -0.0029,0.0021 v -0.0021 h 0.0029 c 6.886792,-5.321924 15.541156,-8.491415 24.917676,-8.491415 z M 29.96752,37.46754 v 45.014576 c -4.27769,-6.451597 -6.76607,-14.193388 -6.76607,-22.512887 0,-8.319507 2.48838,-16.060715 6.76607,-22.501689 z m 64.856241,29.034086 h 9.447679 c -1.22826,7.658614 -4.581361,14.588229 -9.447679,20.174939 z"
       style="fill:url(#linearGradient7);stroke-width:0.212503" /><path
       id="path4"
       style="fill:#ffffff;fill-opacity:1;stroke-width:0.212503"
       d="m 63.999999,12.561198 c -25.823395,0 -46.762126,20.938726 -46.762126,46.762125 0,0.108864 0.0013,0.21765 0.0021,0.326338 0.175453,-25.673229 21.045498,-46.435789 46.760026,-46.435789 25.71664,0 46.584591,20.762568 46.760081,46.435789 7.6e-4,-0.108686 0.002,-0.217478 0.002,-0.326338 -5e-5,-25.823395 -20.936664,-46.762125 -46.762181,-46.762125 z m 9.084421,11.786903 c -2.042157,0 -3.830776,1.065452 -4.835915,2.669848 H 39.961163 c -0.292416,0.213788 -0.582497,0.431371 -0.868874,0.652676 h 29.156216 c 1.005139,-1.604397 2.793758,-2.66985 4.835915,-2.66985 3.040119,10e-7 5.531621,2.375212 5.700708,5.38253 0.0061,-0.107974 0.0082,-0.216792 0.0082,-0.326338 0,-3.159918 -2.55957,-5.708865 -5.708867,-5.708866 z m -33.992131,3.322524 h -0.0021 v 0.0021 h 0.0021 z m 49.799104,0.0041 v 0.26107 c 1.9e-5,-0.08444 3.8e-4,-0.168447 0.01019,-0.252911 -0.0035,-0.0027 -0.0068,-0.0056 -0.01019,-0.0082 z M 48.53772,42.325241 c -0.051,0 -0.09177,0.01019 -0.142772,0.01019 -0.051,0 -0.08973,0.01019 -0.140734,0.01019 -0.05101,0 -0.09177,0.01178 -0.142773,0.02243 -0.051,0.0085 -0.09177,0.0179 -0.142772,0.02855 -0.051,0.01062 -0.09177,0.03017 -0.142773,0.04079 -0.05101,0.01062 -0.08973,0.03017 -0.140733,0.04079 -0.05101,0.01062 -0.09178,0.02975 -0.142773,0.051 -0.04038,0.02125 -0.08155,0.03994 -0.132574,0.06118 -0.051,0.02124 -0.08156,0.05055 -0.132576,0.06118 -0.051,0.01062 -0.07953,0.04199 -0.130534,0.06323 -0.04038,0.01912 -0.082,0.0396 -0.122376,0.06935 -0.04038,0.0085 -0.07996,0.03961 -0.120338,0.06935 -0.0425,0.01912 -0.06968,0.05184 -0.112178,0.08159 -0.0425,0.02975 -0.06968,0.06203 -0.112179,0.09178 -0.0425,0.02975 -0.07384,0.0514 -0.114217,0.09178 l -0.10199,0.10198 c -0.02975,0.03187 -0.06,0.05949 -0.08975,0.10199 -0.02975,0.0425 -0.06202,0.0718 -0.09178,0.112178 -0.01912,0.0425 -0.05183,0.0718 -0.08158,0.112178 -0.01912,0.04038 -0.0498,0.07996 -0.07955,0.120337 -0.01912,0.04038 -0.04164,0.07138 -0.07139,0.122378 -0.01912,0.051 -0.0481,0.08156 -0.06935,0.132574 -0.01062,0.051 -0.03995,0.09017 -0.06118,0.130535 -0.02124,0.04038 -0.04198,0.08156 -0.06323,0.132574 -0.01062,0.04038 -0.02975,0.07952 -0.051,0.130535 -0.02124,0.051 -0.04037,0.09177 -0.051,0.142773 -0.01062,0.051 -0.03025,0.09177 -0.03875,0.142773 -0.0085,0.05101 -0.02212,0.09177 -0.0306,0.142771 -0.0085,0.051 -0.01995,0.08974 -0.0306,0.140734 -0.01062,0.05101 -0.02039,0.09177 -0.02039,0.142774 0,0.05099 -0.01019,0.09177 -0.01019,0.142772 v 0.652675 c 0,-0.051 0.01019,-0.09178 0.01019,-0.142773 0,-0.051 0.0098,-0.09177 0.02039,-0.142772 0.01064,-0.051 0.02214,-0.08973 0.0306,-0.140734 0.0085,-0.051 0.02214,-0.09177 0.0306,-0.142772 0.0085,-0.051 0.02813,-0.09178 0.03875,-0.142773 0.01062,-0.05099 0.02975,-0.09178 0.051,-0.142773 0.02124,-0.05102 0.04037,-0.09016 0.051,-0.130535 0.02126,-0.051 0.042,-0.09219 0.06323,-0.132574 0.02124,-0.04038 0.05056,-0.07954 0.06118,-0.130536 0.02125,-0.05101 0.05023,-0.08158 0.06935,-0.132574 0.02975,-0.051 0.05227,-0.082 0.07139,-0.122376 0.02974,-0.04037 0.06043,-0.07995 0.07955,-0.120337 0.02975,-0.04038 0.06247,-0.06968 0.08158,-0.112179 0.02976,-0.04038 0.06203,-0.06968 0.09178,-0.112179 0.02975,-0.04249 0.05999,-0.07012 0.08975,-0.101979 l 0.10199,-0.10198 c 0.04038,-0.04037 0.07171,-0.06203 0.114217,-0.09178 0.0425,-0.02975 0.06968,-0.06203 0.112179,-0.09178 0.0425,-0.02975 0.06968,-0.06247 0.112178,-0.08158 0.04038,-0.02974 0.07996,-0.06089 0.120338,-0.06935 0.04038,-0.02975 0.082,-0.05023 0.122376,-0.06935 0.051,-0.02125 0.07954,-0.05261 0.130534,-0.06323 0.05101,-0.01063 0.08158,-0.03995 0.132576,-0.06118 0.05102,-0.02126 0.09219,-0.03995 0.132574,-0.06118 0.051,-0.02124 0.09177,-0.04037 0.142773,-0.05099 0.05101,-0.01062 0.08973,-0.03017 0.140733,-0.04079 0.05101,-0.01062 0.09178,-0.03017 0.142773,-0.04079 0.051,-0.01064 0.09177,-0.02009 0.142772,-0.02855 0.05101,-0.01065 0.09177,-0.02243 0.142773,-0.02243 0.051,-2e-6 0.08975,-0.01019 0.140734,-0.01019 0.05101,0 0.09178,-0.01019 0.142772,-0.01019 H 88.891393 V 42.32525 Z m 3.059414,12.050013 v 0.652675 c 1.578244,0.944129 2.654615,2.625954 2.76367,4.570765 0.0061,-0.107833 0.0082,-0.217005 0.0082,-0.326338 0,-2.082531 -1.105804,-3.900461 -2.77183,-4.897102 z m -5.974016,0.06118 c -1.5959,1.005143 -2.651493,2.794185 -2.651493,4.825717 0,0.109794 0.0021,0.218072 0.0082,0.326337 0.106034,-1.896172 1.13325,-3.548286 2.643334,-4.499379 z m 32.639869,2.694326 c -3.159921,0 -5.708867,2.559565 -5.708867,5.708866 0,0.109654 0.0021,0.218238 0.0082,0.326337 0.168748,-2.998135 2.650561,-5.382529 5.700708,-5.382529 3.05015,0 5.531933,2.375526 5.700709,5.382529 0.0061,-0.107794 0.01019,-0.217066 0.01019,-0.326337 0,-3.159925 -2.550981,-5.708866 -5.710906,-5.708866 z m -55.059256,2.51892 c -8.51e-4,0.108679 -0.0021,0.217459 -0.0021,0.326338 0,8.3195 2.487695,16.061611 6.765384,22.513208 V 81.836553 C 25.745369,75.469368 23.267891,67.845238 23.203731,59.649661 Z m 68.610422,0.242714 c -0.05101,0 -0.09176,0.01019 -0.142773,0.01019 -0.051,0 -0.08972,0.0016 -0.140733,0.01223 -0.05101,0.01062 -0.09177,0.0098 -0.142773,0.02039 -0.051,0.0085 -0.09176,0.01995 -0.142772,0.0306 -0.051,0.01912 -0.09178,0.02813 -0.142773,0.03875 -0.05101,0.01062 -0.09177,0.01954 -0.142773,0.04079 -0.051,0.01062 -0.09178,0.02975 -0.142772,0.051 -0.04038,0.02124 -0.07954,0.03994 -0.130535,0.06118 -0.051,0.02125 -0.08156,0.04198 -0.132575,0.06323 -0.051,0.01062 -0.09016,0.03143 -0.130535,0.06118 -0.04038,0.01912 -0.082,0.0481 -0.122376,0.06935 -0.04038,0.0085 -0.07996,0.04165 -0.120338,0.07139 -0.051,0.01912 -0.07996,0.04978 -0.120336,0.07955 -0.0425,0.02975 -0.07386,0.06203 -0.114219,0.09178 -0.0425,0.02975 -0.07181,0.06203 -0.112178,0.09178 -0.04038,0.04038 -0.06161,0.07011 -0.10198,0.10198 -0.04038,0.03188 -0.07223,0.06161 -0.10199,0.10199 -0.02975,0.0425 -0.06203,0.0718 -0.09178,0.112178 -0.01912,0.0425 -0.06042,0.07181 -0.07954,0.112179 -0.01912,0.04038 -0.05182,0.082 -0.08159,0.122376 -0.01912,0.04037 -0.05022,0.07996 -0.06935,0.120338 -0.01912,0.04038 -0.05013,0.06934 -0.07139,0.120337 -0.01062,0.05101 -0.03993,0.0922 -0.06118,0.132574 -0.02124,0.04038 -0.03996,0.08156 -0.06118,0.132574 -0.02125,0.051 -0.02976,0.08973 -0.051,0.140734 -0.02127,0.051 -0.02975,0.09177 -0.051,0.142773 -0.01062,0.051 -0.03229,0.09177 -0.04079,0.142771 -0.0085,0.051 -0.02209,0.09177 -0.0306,0.142773 -0.0085,0.05101 -0.01794,0.09177 -0.02855,0.142774 -0.01062,0.051 -0.02039,0.08973 -0.02039,0.140731 0,0.051 -0.01223,0.09177 -0.01223,0.142774 v 0.652675 c 0,-0.051 0.01223,-0.09178 0.01223,-0.142773 0,-0.05101 0.0098,-0.08973 0.02039,-0.140733 0.01061,-0.05101 0.02009,-0.09177 0.02855,-0.142772 0.0085,-0.05101 0.02214,-0.09178 0.0306,-0.142773 0.0085,-0.05101 0.03017,-0.09178 0.04079,-0.142773 0.02124,-0.051 0.02973,-0.09178 0.051,-0.142772 0.02123,-0.051 0.02975,-0.08975 0.051,-0.140734 0.02123,-0.05102 0.03995,-0.09219 0.06118,-0.132574 0.02126,-0.04037 0.05056,-0.08156 0.06118,-0.132575 0.02125,-0.051 0.05227,-0.07995 0.07139,-0.120336 0.01913,-0.04037 0.05023,-0.07996 0.06935,-0.120338 0.02975,-0.04038 0.06247,-0.082 0.08159,-0.122376 0.01913,-0.04038 0.06042,-0.06968 0.07954,-0.112179 0.02975,-0.04038 0.06203,-0.06968 0.09178,-0.112178 0.02975,-0.04037 0.0616,-0.07011 0.10199,-0.10199 0.04037,-0.03187 0.0616,-0.0616 0.10198,-0.101979 0.04037,-0.02975 0.06968,-0.06203 0.112178,-0.09178 0.04036,-0.02975 0.07171,-0.06203 0.114219,-0.09178 0.04038,-0.02976 0.06935,-0.06043 0.120336,-0.07954 0.04037,-0.02974 0.07996,-0.06292 0.120338,-0.07139 0.04037,-0.02125 0.08199,-0.05023 0.122376,-0.06935 0.04037,-0.02975 0.07954,-0.05056 0.130535,-0.06118 0.05101,-0.02125 0.08158,-0.042 0.132575,-0.06323 0.05101,-0.02125 0.09015,-0.03995 0.130535,-0.06118 0.051,-0.02124 0.09178,-0.04038 0.142772,-0.051 0.05101,-0.02125 0.09177,-0.03017 0.142773,-0.04079 0.051,-0.01062 0.09178,-0.01964 0.142773,-0.03875 0.05102,-0.01064 0.09178,-0.02214 0.142772,-0.0306 0.051,-0.01061 0.09177,-0.0098 0.142773,-0.02039 0.05101,-0.01063 0.08974,-0.01223 0.140733,-0.01223 0.05102,0 0.09177,-0.01019 0.142773,-0.01019 h 13.002517 v -0.56905 c 0,-0.02775 5e-5,-0.05589 0,-0.08362 z m -28.36281,6.10455 c -2.042156,0 -3.830771,1.067491 -4.835913,2.671889 H 48.53772 c -0.051,0 -0.09177,0.01019 -0.142772,0.01019 -0.05101,0.01062 -0.08973,0.02243 -0.140734,0.02243 -0.051,0 -0.09177,0.01192 -0.142773,0.02039 -0.05099,0.0085 -0.09177,0.01995 -0.142772,0.0306 -0.051,0.01062 -0.09177,0.03017 -0.142773,0.04079 -0.051,0.01062 -0.09177,0.01749 -0.142773,0.03875 -0.051,0.02124 -0.08974,0.02975 -0.140733,0.051 -0.04038,0.02124 -0.08156,0.04198 -0.132574,0.06323 -0.05101,0.02125 -0.08156,0.05054 -0.132576,0.06118 -0.05099,0.01062 -0.07952,0.03995 -0.130534,0.06118 -0.04038,0.01912 -0.082,0.03961 -0.122376,0.06935 -0.04038,0.0085 -0.07996,0.04165 -0.120338,0.07139 -0.0425,0.01912 -0.07181,0.04979 -0.112178,0.07955 -0.0425,0.02975 -0.0718,0.06204 -0.112179,0.09178 -0.0425,0.02975 -0.07384,0.06203 -0.114217,0.09178 -0.04038,0.04038 -0.07223,0.07011 -0.10199,0.10198 -0.02975,0.03187 -0.06,0.06161 -0.08975,0.10199 -0.02975,0.0425 -0.06203,0.0718 -0.09178,0.112178 -0.01913,0.0425 -0.05183,0.07386 -0.08158,0.114219 -0.01913,0.051 -0.04979,0.07996 -0.07955,0.120337 -0.01912,0.04038 -0.04165,0.07996 -0.07139,0.120337 -0.01912,0.04038 -0.0481,0.07138 -0.06935,0.122377 -0.01062,0.051 -0.03995,0.09015 -0.06118,0.130535 -0.02124,0.04038 -0.04198,0.08156 -0.06323,0.132574 -0.01062,0.04038 -0.02974,0.07953 -0.051,0.130535 -0.02124,0.051 -0.04037,0.09178 -0.051,0.142773 -0.01062,0.05101 -0.02813,0.09177 -0.03875,0.142772 -0.0085,0.051 -0.01998,0.09178 -0.0306,0.142773 -0.0085,0.05099 -0.01995,0.09177 -0.0306,0.142773 -0.01062,0.051 -0.02039,0.08973 -0.02039,0.140733 0,0.051 -0.01019,0.09177 -0.01019,0.142772 v 0.652675 c 0,-0.05101 0.01019,-0.09178 0.01019,-0.142773 0,-0.051 0.0098,-0.08974 0.02039,-0.140732 0.01064,-0.051 0.02214,-0.09178 0.0306,-0.142773 0.01061,-0.051 0.02214,-0.09178 0.0306,-0.142773 0.01062,-0.051 0.02813,-0.09177 0.03875,-0.142771 0.01062,-0.051 0.02975,-0.09178 0.051,-0.142774 0.02126,-0.05101 0.04037,-0.09015 0.051,-0.130535 0.02126,-0.051 0.042,-0.09219 0.06323,-0.132574 0.02124,-0.04038 0.05056,-0.07954 0.06118,-0.130536 0.02125,-0.051 0.05023,-0.08199 0.06935,-0.122376 0.02974,-0.04038 0.05227,-0.07995 0.07139,-0.120337 0.02975,-0.04038 0.06041,-0.06935 0.07955,-0.120338 0.02975,-0.04036 0.06245,-0.07171 0.08158,-0.114218 0.02975,-0.04038 0.06203,-0.06968 0.09178,-0.112178 0.02975,-0.04037 0.05999,-0.07012 0.08975,-0.10199 0.02975,-0.03188 0.0616,-0.0616 0.10199,-0.10199 0.04038,-0.02975 0.07171,-0.06203 0.114217,-0.09178 0.04038,-0.02974 0.06968,-0.06203 0.112179,-0.09178 0.04037,-0.02975 0.06968,-0.06042 0.112178,-0.07954 0.04038,-0.02974 0.07996,-0.06292 0.120338,-0.07139 0.04038,-0.02974 0.082,-0.05023 0.122376,-0.06935 0.05102,-0.02124 0.07955,-0.05056 0.130534,-0.06118 0.05101,-0.01064 0.08156,-0.03995 0.132576,-0.06118 0.05102,-0.02125 0.09219,-0.042 0.132574,-0.06323 0.05101,-0.02125 0.08975,-0.02975 0.140733,-0.051 0.051,-0.02127 0.09178,-0.02813 0.142773,-0.03875 0.05101,-0.01062 0.09177,-0.03017 0.142773,-0.04079 0.05101,-0.01064 0.09178,-0.02214 0.142772,-0.0306 0.05101,-0.0085 0.09178,-0.02039 0.142773,-0.02039 0.05101,0 0.08973,-0.01181 0.140734,-0.02243 0.05101,0 0.09178,-0.01019 0.142772,-0.01019 h 10.07771 c 1.005142,-1.604397 2.793757,-2.671889 4.835913,-2.671889 3.040238,0 5.531768,2.377083 5.700709,5.384569 0.0061,-0.108099 0.01019,-0.216686 0.01019,-0.326337 0,-3.159923 -2.56161,-5.710907 -5.710906,-5.710907 z m 40.710607,0.511941 c -1.3104,7.39963 -4.609633,14.09353 -9.337334,19.521104 v 0.652674 c 4.866318,-5.58673 8.219204,-12.515183 9.447474,-20.173798 z M 35.941092,88.936413 v 0.481347 c 0,0.06162 4.23e-4,0.101644 -0.01019,0.161129 2.87517,2.722167 6.137046,5.028713 9.692225,6.828613 V 95.754828 C 42.0724,93.957179 38.813641,91.654131 35.941103,88.936413 Z m 52.938063,2.724918 c -2.37791,1.827528 -4.956109,3.401973 -7.699526,4.672745 v 0.652674 c 2.743417,-1.270771 5.321616,-2.845216 7.699526,-4.672744 z m -37.294259,6.541028 v 0.246792 c 0,0.131748 -0.0093,0.263937 -0.02855,0.395684 3.941936,1.238895 8.12729,1.921315 12.453857,1.921315 3.880309,0 7.640237,-0.53843 11.195416,-1.554185 V 98.55929 c -3.555179,1.015762 -7.315107,1.55418 -11.195416,1.55418 -4.315634,0 -8.492094,-0.678154 -12.425302,-1.911111 z" /><path
       id="path5"
       style="fill:#696969;fill-opacity:1;stroke-width:0.212503"
       d="m 64.010198,18.712217 c -9.376522,-10e-7 -18.031118,3.16897 -24.917909,8.490894 h 0.609842 c 6.78485,-5.043142 15.205845,-8.029942 24.308067,-8.029942 9.373074,0 17.995673,3.155376 24.881195,8.494972 v -0.179486 c 0,-0.09137 -4.23e-4,-0.183973 0.01019,-0.275346 C 82.014354,21.868852 73.387957,18.712217 64.01019,18.712217 Z m 14.779008,11.760387 c -0.12105,3.051905 -2.632525,5.468193 -5.704786,5.468193 -2.071907,0 -3.890263,-1.106229 -4.886906,-2.761631 H 35.941092 v 0.460952 h 32.256422 c 0.996643,1.655401 2.814999,2.763671 4.886906,2.763671 3.149296,0 5.708866,-2.540777 5.708866,-5.700709 0,-0.07729 -10e-4,-0.153939 -0.0041,-0.230476 z m 16.072123,2.337393 v 0.460952 c 6.207221,7.152859 9.955341,16.487699 9.955341,26.698487 v -0.460951 c 0,-10.210789 -3.74812,-19.54563 -9.955341,-26.698488 z m -64.894254,4.195477 c -4.277689,6.440973 -6.765384,14.183505 -6.765384,22.503011 0,0.07697 -4.26e-4,0.153607 0,0.230476 0.04556,-8.231876 2.52727,-15.889112 6.765384,-22.270497 z m 64.894254,8.645903 c 0,0.05101 -0.01019,0.09134 -0.01019,0.152972 0,0.06163 -0.0098,0.08973 -0.02039,0.140732 -0.01064,0.05101 -0.02214,0.09178 -0.03059,0.142773 -0.0085,0.051 -0.0201,0.09178 -0.02855,0.142773 -0.0085,0.051 -0.03017,0.09178 -0.04079,0.142773 -0.02125,0.05101 -0.02975,0.09178 -0.05098,0.142772 -0.02124,0.051 -0.04198,0.08974 -0.06323,0.140733 -0.02124,0.051 -0.03995,0.09219 -0.06119,0.132574 -0.02125,0.05101 -0.05056,0.08159 -0.06119,0.132576 -0.01063,0.051 -0.05023,0.07954 -0.06934,0.130534 -0.02975,0.05101 -0.05227,0.082 -0.07139,0.122377 -0.02976,0.04038 -0.06042,0.07997 -0.07955,0.120337 -0.02976,0.04038 -0.06203,0.06968 -0.09178,0.112178 -0.02975,0.04038 -0.06203,0.06968 -0.09178,0.112179 -0.02975,0.04037 -0.0616,0.07011 -0.10198,0.10198 -0.04036,0.03187 -0.07011,0.0616 -0.101979,0.101979 -0.04037,0.04038 -0.06968,0.06203 -0.112178,0.09178 -0.04038,0.02975 -0.06968,0.06203 -0.112179,0.09178 -0.04038,0.02975 -0.07139,0.06246 -0.122377,0.08159 -0.04038,0.02974 -0.07997,0.06089 -0.120337,0.06934 -0.05101,0.02974 -0.08159,0.05023 -0.132574,0.06934 -0.05101,0.01912 -0.07955,0.05261 -0.130535,0.06323 -0.05101,0.02126 -0.09219,0.03995 -0.132574,0.06119 -0.051,0.02125 -0.09178,0.03993 -0.142774,0.06119 -0.051,0.02126 -0.09178,0.02975 -0.142773,0.05099 -0.051,0.02124 -0.08975,0.03017 -0.140732,0.04079 -0.05101,0.01064 -0.09178,0.0201 -0.142773,0.02855 -0.051,0.01064 -0.09178,0.02214 -0.142773,0.03059 -0.051,0.01065 -0.09134,0.0098 -0.15297,0.02039 -0.06162,0.01055 -0.09135,0.01223 -0.152971,0.01223 H 51.597134 v 0.460951 h 40.408742 c 0.06162,0 0.09134,3.53e-4 0.152971,-0.01019 0.06163,-0.01062 0.101969,-0.01178 0.15297,-0.02243 0.051,-0.0085 0.09178,-0.01792 0.142773,-0.02855 0.051,-0.0085 0.09176,-0.01995 0.142773,-0.03059 0.051,-0.01062 0.08974,-0.01955 0.140732,-0.0408 0.051,-0.02125 0.09178,-0.02974 0.142773,-0.051 0.051,-0.02127 0.09177,-0.03994 0.142774,-0.06119 0.04038,-0.02125 0.08158,-0.03994 0.132574,-0.06119 0.051,-0.01062 0.07953,-0.04207 0.130535,-0.06119 0.051,-0.01912 0.08156,-0.04165 0.132574,-0.07139 0.04037,-0.0085 0.07996,-0.0396 0.120337,-0.06935 0.05099,-0.01912 0.082,-0.05183 0.122377,-0.08159 0.0425,-0.02975 0.0718,-0.05999 0.112179,-0.08975 0.0425,-0.02975 0.07181,-0.0514 0.112178,-0.09178 0.03187,-0.04038 0.06162,-0.07011 0.101979,-0.10198 0.04038,-0.03187 0.07223,-0.06161 0.10198,-0.101979 0.02975,-0.0425 0.06203,-0.07384 0.09178,-0.114218 0.02975,-0.0425 0.06202,-0.0718 0.09178,-0.112177 0.01912,-0.04037 0.04978,-0.07996 0.07955,-0.120338 0.01912,-0.04038 0.04164,-0.07137 0.07139,-0.122376 0.01912,-0.051 0.05871,-0.07953 0.06934,-0.130535 0.01062,-0.051 0.03994,-0.08158 0.06119,-0.132575 0.02124,-0.04038 0.03995,-0.07953 0.06119,-0.130535 0.02125,-0.05101 0.04198,-0.09177 0.06323,-0.142773 0.02124,-0.05099 0.02975,-0.09176 0.05098,-0.142773 0.01062,-0.051 0.0323,-0.09178 0.04079,-0.142772 0.0085,-0.051 0.02004,-0.08972 0.02855,-0.140733 0.0085,-0.051 0.01995,-0.09176 0.03059,-0.142773 0.01062,-0.05101 0.02039,-0.08114 0.02039,-0.142772 0,-0.06163 0.01019,-0.101969 0.01019,-0.15297 z M 42.975705,59.677772 c -0.003,0.07637 -0.0041,0.153389 -0.0041,0.230476 0,3.159923 2.528547,5.721105 5.688471,5.721105 3.159923,0 5.708868,-2.561612 5.708868,-5.710907 0,-0.07743 -10e-4,-0.153813 -0.0041,-0.230476 -0.120732,3.042871 -2.622274,5.478391 -5.704788,5.478391 -3.082446,0 -5.564543,-2.435959 -5.684391,-5.488589 z m -25.735792,0.06119 c -3.72e-4,0.07687 -0.002,0.153514 -0.002,0.230476 0,25.823389 20.938731,46.762122 46.762126,46.762122 25.823393,0 46.762131,-20.938731 46.762131,-46.762122 0,-0.07697 -0.002,-0.153601 -0.002,-0.230476 -0.12426,25.717258 -21.01364,46.529608 -46.760075,46.529608 -25.746435,0 -46.6358,-20.812354 -46.760086,-46.529611 z m 55.318286,3.516286 c -0.003,0.07646 -0.0041,0.153276 -0.0041,0.230477 0,2.031527 1.055594,3.810377 2.651493,4.815517 v -0.460953 c -1.535116,-0.966857 -2.57074,-2.65014 -2.647415,-4.585041 z m 11.409576,0 c -0.07897,1.986621 -1.173576,3.719131 -2.788146,4.676825 v 0.460951 c 1.676651,-0.994516 2.794265,-2.824767 2.794265,-4.907299 0,-0.07746 -0.003,-0.153776 -0.0061,-0.230477 z m 10.856841,2.784067 v 0.462991 h 9.369964 c 0.0265,-0.153538 0.0528,-0.308857 0.0775,-0.462991 z M 69.15817,72.123472 c -0.120695,3.052275 -2.624274,5.478391 -5.706827,5.478391 -2.071908,0 -3.890265,-1.106234 -4.886903,-2.761632 h -6.979544 v 0.460953 h 6.979544 c 0.996638,1.655398 2.814995,2.76367 4.886903,2.76367 3.159925,0 5.710907,-2.550981 5.710907,-5.710907 0,-0.07722 -0.0011,-0.154018 -0.0041,-0.230475 z M 35.941092,88.950246 c 0,0.06162 4.23e-4,0.101633 -0.01019,0.16113 0.0036,0.0034 0.0066,0.0068 0.01019,0.01019 z m 15.643804,9.031392 c 0,0.131747 -0.0095,0.263937 -0.02855,0.395683 0.01,0.0032 0.01859,0.005 0.02855,0.0082 z" /></g></svg>
