<?xml version="1.0" encoding="UTF-8" standalone="no"?>
<!-- Created with Inkscape (http://www.inkscape.org/) -->

<svg
   width="128"
   height="128"
   viewBox="0 0 128 128"
   version="1.1"
   id="svg5"
   inkscape:version="1.4.3 (0d15f75042, 2025-12-25)"
   sodipodi:docname="app.drey.Warp.svg"
   xml:space="preserve"
   xmlns:inkscape="http://www.inkscape.org/namespaces/inkscape"
   xmlns:sodipodi="http://sodipodi.sourceforge.net/DTD/sodipodi-0.dtd"
   xmlns:xlink="http://www.w3.org/1999/xlink"
   xmlns="http://www.w3.org/2000/svg"
   xmlns:svg="http://www.w3.org/2000/svg"><sodipodi:namedview
     id="namedview7"
     pagecolor="#ffffff"
     bordercolor="#666666"
     borderopacity="1"
     inkscape:pageshadow="2"
     inkscape:pageopacity="0.0"
     inkscape:pagecheckerboard="true"
     inkscape:document-units="px"
     showgrid="false"
     inkscape:showpageshadow="false"
     showborder="true"
     inkscape:snap-page="true"
     inkscape:zoom="1.4975158"
     inkscape:cx="-87.144321"
     inkscape:cy="223.36993"
     inkscape:window-width="1728"
     inkscape:window-height="1043"
     inkscape:window-x="0"
     inkscape:window-y="0"
     inkscape:window-maximized="1"
     inkscape:current-layer="layer2"
     inkscape:deskcolor="#d1d1d1" /><defs
     id="defs2"><linearGradient
       id="linearGradient3"
       inkscape:collect="always"><stop
         style="stop-color:#00f2a6;stop-opacity:1;"
         offset="0"
         id="stop3" /><stop
         style="stop-color:#00f2a6;stop-opacity:0;"
         offset="1"
         id="stop4" /></linearGradient><linearGradient
       id="linearGradient1"
       inkscape:collect="always"><stop
         style="stop-color:#c2fae3;stop-opacity:1"
         offset="0"
         id="stop1" /><stop
         style="stop-color:#00f2a6;stop-opacity:0;"
         offset="1"
         id="stop2" /></linearGradient><linearGradient
       id="linearGradient11"
       inkscape:collect="always"><stop
         style="stop-color:#181818;stop-opacity:1;"
         offset="0"
         id="stop11" /><stop
         style="stop-color:#4c4c4c;stop-opacity:1;"
         offset="1"
         id="stop12" /></linearGradient><linearGradient
       inkscape:collect="always"
       id="linearGradient404"><stop
         style="stop-color:#565656;stop-opacity:1;"
         offset="0"
         id="stop400" /><stop
         style="stop-color:#c8c8c8;stop-opacity:1;"
         offset="1"
         id="stop402" /></linearGradient><linearGradient
       y2="236"
       x2="96"
       y1="236"
       x1="32"
       gradientTransform="translate(604.81684,170.58641)"
       gradientUnits="userSpaceOnUse"
       id="linearGradient1099"
       xlink:href="#linearGradient1036" /><linearGradient
       id="linearGradient1036"><stop
         id="stop1032"
         offset="0"
         style="stop-color:#d5d3cf;stop-opacity:1;" /><stop
         id="stop1034"
         offset="1"
         style="stop-color:#f6f5f4;stop-opacity:1" /></linearGradient><radialGradient
       r="32"
       fy="-76"
       fx="-244"
       cy="-76"
       cx="-244"
       gradientTransform="matrix(0.88333331,0,0,0.88333331,-460.35018,463.11973)"
       gradientUnits="userSpaceOnUse"
       id="radialGradient1103"
       xlink:href="#linearGradient1069" /><linearGradient
       id="linearGradient1069"><stop
         id="stop1065"
         offset="0"
         style="stop-color:#d5d3cf;stop-opacity:1" /><stop
         id="stop1067-1"
         offset="1"
         style="stop-color:#949390;stop-opacity:1" /></linearGradient><linearGradient
       gradientUnits="userSpaceOnUse"
       y2="232"
       x2="64"
       y1="262.5"
       x1="64"
       id="linearGradient1027"
       xlink:href="#linearGradient1025"
       gradientTransform="translate(-470.5864,432.81685)" /><linearGradient
       id="linearGradient1025"><stop
         id="stop1021"
         offset="0"
         style="stop-color:#9a9996;stop-opacity:1" /><stop
         id="stop1023"
         offset="1"
         style="stop-color:#77767b;stop-opacity:1" /></linearGradient><inkscape:path-effect
       effect="spiro"
       id="path-effect35304-9"
       is_visible="true" /><clipPath
       clipPathUnits="userSpaceOnUse"
       id="clipPath1609-7"><path
         sodipodi:nodetypes="cccccc"
         inkscape:connector-curvature="0"
         id="path1611-5"
         d="m 252,116 28,-28 v -8 h -36 v 36 z"
         style="fill:#e74747;stroke:none;stroke-width:0.25px;stroke-linecap:butt;stroke-linejoin:miter;stroke-opacity:1" /></clipPath><linearGradient
       inkscape:collect="always"
       id="linearGradient8241"><stop
         style="stop-color:#0a0a0a;stop-opacity:1;"
         offset="0"
         id="stop8237" /><stop
         style="stop-color:#313131;stop-opacity:1;"
         offset="0.05"
         id="stop9349" /><stop
         style="stop-color:#0a0a0a;stop-opacity:1;"
         offset="0.1"
         id="stop21746" /><stop
         style="stop-color:#0a0a0a;stop-opacity:1;"
         offset="0.89999998"
         id="stop21940" /><stop
         style="stop-color:#313131;stop-opacity:1;"
         offset="0.94999999"
         id="stop9351" /><stop
         style="stop-color:#0a0a0a;stop-opacity:1;"
         offset="1"
         id="stop8239" /></linearGradient><radialGradient
       r="32"
       fy="-76"
       fx="-244"
       cy="-76"
       cx="-244"
       gradientTransform="matrix(0.88333331,0,0,0.88333331,-460.35018,463.11973)"
       gradientUnits="userSpaceOnUse"
       id="radialGradient1103-5"
       xlink:href="#linearGradient1069" /><inkscape:path-effect
       effect="spiro"
       id="path-effect35304-9-2"
       is_visible="true" /><clipPath
       clipPathUnits="userSpaceOnUse"
       id="clipPath1609-7-7"><path
         sodipodi:nodetypes="cccccc"
         inkscape:connector-curvature="0"
         id="path1611-5-0"
         d="m 252,116 28,-28 v -8 h -36 v 36 z"
         style="fill:#e74747;stroke:none;stroke-width:0.25px;stroke-linecap:butt;stroke-linejoin:miter;stroke-opacity:1" /></clipPath><clipPath
       clipPathUnits="userSpaceOnUse"
       id="clipPath744"><rect
         style="fill:#1e88e5;fill-opacity:1;stroke-width:0.264583"
         id="rect746"
         width="541.86664"
         height="541.86664"
         x="0"
         y="1.5987212e-14"
         rx="79.375"
         ry="79.375" /></clipPath><clipPath
       clipPathUnits="userSpaceOnUse"
       id="clipPath62"><rect
         style="fill:#1e88e5;fill-opacity:1;stroke-width:0.264583"
         id="rect64"
         width="541.86664"
         height="541.86664"
         x="2.2507105e-05"
         y="-0.42205024"
         rx="79.375"
         ry="79.375" /></clipPath><linearGradient
       inkscape:collect="always"
       xlink:href="#linearGradient8241"
       id="linearGradient8243"
       x1="11.5"
       y1="120.5"
       x2="116.5"
       y2="120.5"
       gradientUnits="userSpaceOnUse" /><radialGradient
       r="32"
       fy="-76"
       fx="-244"
       cy="-76"
       cx="-244"
       gradientTransform="matrix(0.88333331,0,0,0.88333331,-460.35018,463.11973)"
       gradientUnits="userSpaceOnUse"
       id="radialGradient1103-6"
       xlink:href="#linearGradient1069" /><inkscape:path-effect
       effect="spiro"
       id="path-effect35304-9-20"
       is_visible="true" /><clipPath
       clipPathUnits="userSpaceOnUse"
       id="clipPath1609-7-2"><path
         sodipodi:nodetypes="cccccc"
         inkscape:connector-curvature="0"
         id="path1611-5-3"
         d="m 252,116 28,-28 v -8 h -36 v 36 z"
         style="fill:#e74747;stroke:none;stroke-width:0.25px;stroke-linecap:butt;stroke-linejoin:miter;stroke-opacity:1" /></clipPath><radialGradient
       r="32"
       fy="-76"
       fx="-244"
       cy="-76"
       cx="-244"
       gradientTransform="matrix(0.88333331,0,0,0.88333331,-460.35018,463.11973)"
       gradientUnits="userSpaceOnUse"
       id="radialGradient1103-56"
       xlink:href="#linearGradient1069" /><inkscape:path-effect
       effect="spiro"
       id="path-effect35304-9-7"
       is_visible="true" /><clipPath
       clipPathUnits="userSpaceOnUse"
       id="clipPath1609-7-0"><path
         sodipodi:nodetypes="cccccc"
         inkscape:connector-curvature="0"
         id="path1611-5-9"
         d="m 252,116 28,-28 v -8 h -36 v 36 z"
         style="fill:#e74747;stroke:none;stroke-width:0.25px;stroke-linecap:butt;stroke-linejoin:miter;stroke-opacity:1" /></clipPath><clipPath
       clipPathUnits="userSpaceOnUse"
       id="clipPath37"><rect
         style="fill:#1a1a1a;fill-opacity:1;stroke-width:0.264583"
         id="rect39"
         width="541.86664"
         height="541.86664"
         x="-2.6626146e-06"
         y="3.2408705"
         rx="79.375"
         ry="79.375" /></clipPath><clipPath
       clipPathUnits="userSpaceOnUse"
       id="clipPath22042"><rect
         style="fill:#333333;fill-opacity:1;stroke-width:0.0133797"
         id="rect22044"
         width="27.31955"
         height="27.483929"
         x="166.96844"
         y="105.40438"
         rx="4.0018873"
         ry="4.0259666" /></clipPath><clipPath
       clipPathUnits="userSpaceOnUse"
       id="clipPath1039"><rect
         style="fill:#b3b3b3;fill-opacity:1;stroke-width:0.264583"
         id="rect1041"
         width="541.8667"
         height="541.86682"
         x="2.5931527e-05"
         y="-0.00010962487"
         rx="79.375008"
         ry="79.375031" /></clipPath><clipPath
       clipPathUnits="userSpaceOnUse"
       id="clipPath154"><rect
         style="fill:#b3b3b3;fill-opacity:1;stroke-width:0.264583"
         id="rect156"
         width="541.8667"
         height="541.86682"
         x="-2.9218751e-05"
         y="-0.00016368683"
         rx="79.375008"
         ry="79.375031" /></clipPath><linearGradient
       inkscape:collect="always"
       xlink:href="#linearGradient404"
       id="linearGradient406"
       x1="64"
       y1="112.5"
       x2="64"
       y2="7.5"
       gradientUnits="userSpaceOnUse" /><linearGradient
       id="paint0_linear"
       x1="49.9392"
       y1="0.257812"
       x2="49.9392"
       y2="99.7423"
       gradientUnits="userSpaceOnUse"
       gradientTransform="matrix(0.76242929,0,0,0.76242929,26.69079,21.878509)"><stop
         stop-color="white"
         id="stop585" /><stop
         offset="1"
         stop-color="white"
         stop-opacity="0"
         id="stop587" /></linearGradient><linearGradient
       inkscape:collect="always"
       xlink:href="#linearGradient11"
       id="linearGradient12"
       x1="63.999996"
       y1="9.6223326"
       x2="63.999996"
       y2="110.37766"
       gradientUnits="userSpaceOnUse" /><filter
       style="color-interpolation-filters:sRGB;"
       inkscape:label="Drop Shadow"
       id="filter82"
       x="-0.091769586"
       y="-0.071702249"
       width="1.1835392"
       height="1.1852308"><feFlood
         result="flood"
         in="SourceGraphic"
         flood-opacity="0.20223335597826086"
         flood-color="rgb(0,0,0)"
         id="feFlood81" /><feGaussianBlur
         result="blur"
         in="SourceGraphic"
         stdDeviation="2.5"
         id="feGaussianBlur81" /><feOffset
         result="offset"
         in="blur"
         dx="0.000000"
         dy="3.500000"
         id="feOffset81" /><feComposite
         result="comp1"
         operator="in"
         in="flood"
         in2="offset"
         id="feComposite81" /><feComposite
         result="comp2"
         operator="over"
         in="SourceGraphic"
         in2="comp1"
         id="feComposite82" /></filter><linearGradient
       inkscape:collect="always"
       xlink:href="#linearGradient1"
       id="linearGradient2"
       x1="63.953972"
       y1="27.41997"
       x2="63.953972"
       y2="34.381653"
       gradientUnits="userSpaceOnUse" /><linearGradient
       inkscape:collect="always"
       xlink:href="#linearGradient3"
       id="linearGradient4"
       x1="63.953972"
       y1="93.208252"
       x2="63.953972"
       y2="86.246567"
       gradientUnits="userSpaceOnUse" /></defs><g
     inkscape:groupmode="layer"
     id="layer2"
     inkscape:label="Layer 1"><rect
       style="fill:url(#linearGradient8243);fill-opacity:1"
       id="rect440"
       width="105"
       height="105"
       x="11.5"
       y="15.5"
       rx="13"
       ry="13" /><rect
       style="fill:url(#linearGradient406);fill-opacity:1"
       id="rect358"
       width="105"
       height="105"
       x="11.5"
       y="7.5"
       rx="13"
       ry="13" /><rect
       style="fill:url(#linearGradient12);fill-opacity:1;stroke-width:0.959575"
       id="rect338"
       width="100.75533"
       height="100.75533"
       x="13.622333"
       y="9.6223326"
       rx="12"
       ry="12" /><path
       id="path1"
       style="fill:#0cc98c;fill-opacity:1;stroke:#9cf8d2;stroke-width:2.675;stroke-opacity:1;stroke-dasharray:none"
       d="M 68.015625 18.339844 C 65.521684 18.26684 63.066529 18.319736 60.720703 18.476562 C 53.246059 18.976273 45.627955 19.688767 38.705078 22.806641 C 35.792944 24.118191 32.401363 26.200493 31.517578 29.490234 C 30.823152 32.075148 32.228751 34.542652 34.150391 36.193359 C 37.437165 39.016736 41.913394 40.395993 46.042969 41.427734 C 47.503255 41.792572 49.557399 41.815333 50.802734 42.707031 C 51.810521 43.428636 52.255219 44.852433 52.671875 45.962891 C 53.75401 48.846936 54.439126 51.881761 54.833984 54.933594 C 55.575333 60.663355 55.042166 66.518896 53.410156 72.058594 C 52.894125 73.810211 52.30711 76.654597 50.669922 77.712891 C 49.254599 78.627762 47.010297 78.679012 45.390625 79.082031 C 40.660849 80.258933 33.657634 82.358339 31.71875 87.388672 C 29.690098 92.651925 35.645562 96.26193 39.683594 97.943359 C 49.91555 102.20392 62.067492 102.54337 72.953125 101.46875 C 79.109724 100.86099 85.580346 99.609893 91.056641 96.617188 C 93.576707 95.240009 96.315779 93.060342 96.650391 89.998047 C 96.914605 87.580096 95.440667 85.45257 93.658203 83.976562 C 90.423209 81.297751 86.123307 79.864061 82.085938 78.916016 C 80.5981 78.566647 78.601704 78.550764 77.296875 77.710938 C 76.28664 77.060721 75.833994 75.735175 75.419922 74.667969 C 74.420699 72.092621 73.763727 69.399378 73.324219 66.675781 C 72.348501 60.629262 72.768786 54.463768 74.427734 48.572266 C 74.93762 46.761501 75.587864 43.682577 77.296875 42.617188 C 78.651796 41.772528 80.716419 41.743825 82.25 41.355469 C 87.072812 40.134165 94.08368 38.114675 96.21875 33.078125 C 98.215948 28.366806 93.448174 24.810591 89.751953 23.019531 C 83.344163 19.91454 75.497447 18.558856 68.015625 18.339844 z " /><g
       id="g4"
       style="filter:url(#filter82)"><path
         style="fill:#0cc98c;stroke:none;stroke-width:0.975318;fill-opacity:1"
         d="m 60.721669,18.476832 c -7.474644,0.49971 -15.094366,1.211186 -22.017243,4.32906 -2.912134,1.31155 -6.303091,3.39538 -7.186876,6.685121 -0.694426,2.584914 0.711729,5.052546 2.633369,6.703253 3.286774,2.823377 7.763016,4.201191 11.892591,5.232932 1.460286,0.364838 3.514852,0.38738 4.760187,1.279078 1.007787,0.721605 1.451332,2.146443 1.867988,3.256901 1.082135,2.884045 1.766623,5.918144 2.161481,8.969977 0.741349,5.729761 0.208659,11.584825 -1.423351,17.124523 -0.516031,1.751617 -1.102129,4.596809 -2.739317,5.655103 -1.415323,0.914871 -3.659677,0.966364 -5.279349,1.369383 -4.729776,1.176902 -11.733019,3.275755 -13.671903,8.306088 -2.028652,5.263253 3.925695,8.874091 7.963727,10.55552 10.231956,4.260559 22.384869,4.600099 33.270502,3.525479 6.156599,-0.60776 12.626772,-1.859207 18.103067,-4.851912 2.520066,-1.377178 5.259492,-3.557391 5.594104,-6.619686 C 96.91486,87.579701 95.44093,85.452066 93.658466,83.976058 90.423472,81.297246 86.123919,79.864285 82.08655,78.91624 80.598712,78.566871 78.601309,78.55171 77.29648,77.711883 76.286245,77.061666 75.833678,75.734294 75.419606,74.667088 74.420383,72.09174 73.764443,69.399281 73.324935,66.675684 72.349217,60.629165 72.769131,54.46412 74.428079,48.572618 c 0.509886,-1.810765 1.15939,-4.88954 2.868401,-5.95493 1.354921,-0.844659 3.419582,-0.873601 4.953163,-1.261957 4.822812,-1.221304 11.83455,-3.240223 13.96962,-8.276773 1.997198,-4.711319 -2.771222,-8.26871 -6.467443,-10.05977 C 81.2081,18.879199 70.104971,17.849524 60.721669,18.476832"
         id="path53" /><path
         id="path52"
         style="fill:#9cf8d2;fill-opacity:1;stroke:none;stroke-width:0.975318"
         d="M 93.992188 32.099609 C 88.030409 32.818595 82.995054 34.755727 78.988281 39.439453 C 84.207286 38.68148 90.992938 36.765606 93.992188 32.099609 z M 69.691406 79.560547 L 70.669922 84.126953 C 73.467915 84.554981 76.619622 85.000923 78.972656 86.701172 C 81.090549 88.23152 81.240109 90.418844 79.128906 92.037109 C 78.539073 92.489231 77.876072 92.839636 77.193359 93.128906 C 76.037938 93.618467 74.813898 93.9132 73.605469 94.238281 C 75.045633 95.72573 77.204089 97.372889 79.314453 97.701172 C 80.746844 97.923993 82.362538 97.289972 83.716797 96.884766 C 87.586479 95.726956 91.717219 94.189624 93.992188 90.650391 C 89.507362 90.532064 85.080952 89.019137 81.433594 86.398438 C 80.044282 85.400183 78.759046 84.260281 77.621094 82.982422 C 76.825498 82.089012 76.108249 80.890953 75.019531 80.326172 C 73.531663 79.554331 71.333842 79.679674 69.691406 79.560547 z M 78.988281 80.701172 C 82.049024 85.894083 88.506422 87.453325 93.992188 88.203125 C 90.839296 83.298091 84.274798 81.972949 78.988281 80.701172 z M 59.474609 94.980469 C 56.603439 95.013736 55.193595 96.85155 52.892578 98.640625 L 62.679688 99.457031 C 62.689048 98.378368 63.106046 96.708585 62.601562 95.722656 C 62.176265 94.89147 60.842694 95.052377 60.068359 94.998047 C 59.863254 94.98366 59.666021 94.978251 59.474609 94.980469 z M 68.498047 94.980469 C 68.305729 94.977505 68.106734 94.983436 67.898438 94.998047 C 67.127274 95.052148 65.787346 94.890582 65.367188 95.722656 C 64.871544 96.704157 65.283163 98.382376 65.289062 99.457031 L 75.074219 98.640625 L 75.074219 98.478516 C 72.571321 96.968979 71.382809 95.024921 68.498047 94.980469 z " /><path
         id="path49"
         style="fill:#c2fae3;fill-opacity:1;stroke:none;stroke-width:0.975318"
         d="M 67.083984 20.84375 C 66.567867 20.830897 66.062249 20.889184 65.685547 21.146484 C 64.830876 21.730262 64.834631 24.365896 65.685547 24.951172 C 66.488478 25.503439 68.098855 25.345105 69.039062 25.390625 C 71.376463 25.503781 73.565861 23.091503 75.074219 21.5 C 72.896734 21.369912 70.72892 21.107 68.550781 20.96875 C 68.127815 20.941904 67.600102 20.856603 67.083984 20.84375 z M 61.109375 20.851562 C 60.628185 20.847047 60.130369 20.921206 59.742188 20.947266 C 57.406621 21.104061 55.026953 21.175305 52.730469 21.662109 C 54.408885 22.823423 56.298627 25.340831 58.4375 25.400391 C 60.720135 25.463954 62.894448 25.547565 62.830078 22.808594 C 62.817662 22.280172 62.810309 21.602322 62.378906 21.222656 C 62.055652 20.938169 61.590565 20.856079 61.109375 20.851562 z M 48.107422 22.501953 C 46.819424 22.490248 45.435292 23.018549 44.25 23.375 C 40.4482 24.518317 36.058601 26.025519 33.974609 29.654297 C 38.304358 29.913247 42.423037 31.125891 46.042969 33.558594 C 47.568767 34.583973 48.97196 35.802593 50.210938 37.160156 C 51.055183 38.085205 51.814948 39.361465 52.960938 39.941406 C 54.439616 40.689707 56.495431 40.50816 58.111328 40.744141 C 57.931197 39.472066 57.846257 37.41949 56.849609 36.486328 C 56.148443 35.829819 54.927524 35.790416 54.035156 35.585938 C 51.610886 35.030434 45.222261 32.949767 47.751953 29.361328 C 48.049425 28.939363 48.429477 28.58063 48.837891 28.267578 C 49.474521 27.779595 50.194617 27.408953 50.935547 27.107422 C 52.042709 26.656843 53.209604 26.376223 54.361328 26.066406 C 52.929639 24.554995 50.787365 22.848304 48.652344 22.541016 C 48.473167 22.515227 48.291422 22.503625 48.107422 22.501953 z M 79.859375 22.501953 C 79.675376 22.503626 79.493629 22.515225 79.314453 22.541016 C 77.182778 22.847846 75.040961 24.562969 73.605469 26.066406 C 74.757193 26.376228 75.924079 26.656843 77.03125 27.107422 C 77.77218 27.408957 78.492277 27.779595 79.128906 28.267578 C 79.537311 28.580625 79.917381 28.939363 80.214844 29.361328 C 82.744536 32.949772 76.355921 35.030428 73.931641 35.585938 C 73.071547 35.78302 71.941423 35.826485 71.226562 36.394531 C 70.148758 37.250976 70.052356 39.480756 69.855469 40.744141 C 71.466948 40.508808 73.529789 40.693277 75.001953 39.941406 C 76.914816 38.964459 78.296555 36.428884 79.966797 35.037109 C 83.913529 31.748389 88.849062 29.789999 93.992188 29.654297 C 91.720926 26.120851 87.582353 24.537489 83.716797 23.375 C 82.531513 23.018549 81.147368 22.490243 79.859375 22.501953 z M 33.974609 32.099609 C 36.648288 36.850641 43.934716 38.706923 48.978516 39.439453 C 45.343086 34.839453 39.762488 32.374705 33.974609 32.099609 z M 60.720703 79.396484 L 59.742188 83.800781 L 68.224609 83.800781 L 67.246094 79.396484 L 60.720703 79.396484 z M 58.275391 79.560547 C 56.632955 79.679674 54.435113 79.554344 52.947266 80.326172 C 51.858547 80.890953 51.141299 82.089007 50.345703 82.982422 C 49.163939 84.30949 47.821614 85.492261 46.369141 86.515625 C 42.715326 89.089977 38.406689 90.385045 33.974609 90.650391 C 36.093117 94.260952 40.293481 95.660037 44.085938 96.830078 C 45.483344 97.261208 47.170026 97.927653 48.652344 97.703125 C 50.806052 97.3769 52.910903 95.769454 54.361328 94.238281 C 53.152899 93.913205 51.928857 93.618462 50.773438 93.128906 C 50.090725 92.839636 49.427735 92.489236 48.837891 92.037109 C 46.726688 90.418844 46.876237 88.23152 48.994141 86.701172 C 51.347164 85.000923 54.498882 84.554981 57.296875 84.126953 L 58.275391 79.560547 z M 49.142578 80.701172 C 43.996575 81.839557 36.787329 83.205024 33.974609 88.203125 C 39.829873 87.852576 45.49004 85.425625 49.142578 80.701172 z " /><path
         id="path45"
         style="fill:#6cf5c2;fill-opacity:1;stroke:none;stroke-width:0.975318"
         d="M 61.048828 36.486328 C 60.594015 36.466881 60.126317 36.504806 59.742188 36.503906 L 60.720703 40.744141 L 62.679688 40.908203 C 62.688661 39.883272 63.265317 37.497883 62.28125 36.814453 C 61.947379 36.582581 61.503641 36.505776 61.048828 36.486328 z M 66.917969 36.486328 C 66.463057 36.505722 66.020805 36.582347 65.6875 36.814453 C 64.717478 37.48995 65.283163 39.891225 65.289062 40.908203 L 67.246094 40.744141 L 68.224609 36.503906 C 67.840895 36.504787 67.37288 36.466934 66.917969 36.486328 z M 54.197266 42.865234 C 55.235687 45.797099 56.288464 46.736589 59.416016 47.105469 C 59.2088 46.089362 59.217359 44.42041 58.441406 43.652344 C 57.562 42.781881 55.356822 43.004798 54.197266 42.865234 z M 73.769531 42.865234 C 72.609966 43.004798 70.404796 42.781883 69.525391 43.652344 C 68.749437 44.420405 68.757997 46.089368 68.550781 47.105469 C 71.678343 46.736589 72.7311 45.797104 73.769531 42.865234 z M 61.375 43.353516 L 62.027344 47.431641 L 65.941406 47.431641 L 66.59375 43.353516 L 61.375 43.353516 z M 56.318359 49.224609 C 56.886063 51.809871 57.19431 53.030713 60.068359 53.138672 L 59.742188 49.714844 L 56.318359 49.224609 z M 71.648438 49.224609 L 68.224609 49.714844 L 67.898438 53.138672 C 70.769891 53.000114 71.077663 51.823772 71.648438 49.224609 z M 62.353516 50.041016 L 62.679688 53.302734 L 65.289062 53.302734 L 65.615234 50.041016 L 62.353516 50.041016 z M 57.458984 55.585938 L 57.623047 58.847656 L 60.394531 58.847656 L 60.232422 55.748047 L 57.458984 55.585938 z M 70.507812 55.585938 L 67.734375 55.748047 L 67.572266 58.847656 L 70.34375 58.847656 L 70.507812 55.585938 z M 62.841797 55.912109 L 62.841797 58.847656 L 65.125 58.847656 L 65.125 55.912109 L 62.841797 55.912109 z M 57.623047 61.457031 L 57.458984 64.71875 L 60.232422 64.554688 L 60.394531 61.457031 L 57.623047 61.457031 z M 62.841797 61.457031 L 62.841797 64.392578 L 65.125 64.392578 L 65.125 61.457031 L 62.841797 61.457031 z M 67.572266 61.457031 L 67.734375 64.554688 L 70.507812 64.71875 L 70.34375 61.457031 L 67.572266 61.457031 z M 62.679688 67.001953 L 62.353516 70.263672 L 65.615234 70.263672 L 65.289062 67.001953 L 62.679688 67.001953 z M 60.068359 67.164062 C 57.19431 67.272031 56.886063 68.494806 56.318359 71.080078 L 59.742188 70.589844 L 60.068359 67.164062 z M 67.898438 67.164062 L 68.224609 70.589844 L 71.648438 71.080078 C 71.080714 68.494806 70.772496 67.272031 67.898438 67.164062 z M 62.027344 72.873047 L 61.375 76.951172 L 66.59375 76.951172 L 65.941406 72.873047 L 62.027344 72.873047 z M 59.416016 73.199219 C 56.288454 73.568075 55.235687 74.507594 54.197266 77.439453 L 58.763672 77.113281 L 59.416016 73.199219 z M 68.550781 73.199219 L 69.203125 77.113281 L 73.769531 77.439453 C 72.768279 74.498654 71.655414 73.565372 68.550781 73.199219 z " /><ellipse
         style="fill:url(#linearGradient2);fill-opacity:1;stroke:none;stroke-width:1.82532;stroke-linecap:round;stroke-linejoin:round;stroke-dasharray:none;stroke-opacity:1"
         id="path54"
         cx="63.953972"
         cy="30.90081"
         rx="13.290906"
         ry="3.4808412" /><ellipse
         style="fill:url(#linearGradient4);fill-opacity:1;stroke:none;stroke-width:1.82532;stroke-linecap:round;stroke-linejoin:round;stroke-dasharray:none;stroke-opacity:1"
         id="ellipse55"
         cx="63.953972"
         cy="89.727409"
         rx="13.290906"
         ry="3.4808412" /></g></g></svg>
