<?xml version="1.0" encoding="UTF-8" standalone="no"?>
<!-- Created with Inkscape (http://www.inkscape.org/) -->

<svg
   width="128"
   height="128"
   viewBox="0 0 128 128"
   version="1.1"
   id="svg5"
   inkscape:version="1.4.3 (0d15f75042, 2025-12-25)"
   sodipodi:docname="cider.svg"
   inkscape:export-filename="/home/retro/.icons/skeuowaita/scalable/apps/skeuowaita.png"
   inkscape:export-xdpi="1536"
   inkscape:export-ydpi="1536"
   xml:space="preserve"
   xmlns:inkscape="http://www.inkscape.org/namespaces/inkscape"
   xmlns:sodipodi="http://sodipodi.sourceforge.net/DTD/sodipodi-0.dtd"
   xmlns:xlink="http://www.w3.org/1999/xlink"
   xmlns="http://www.w3.org/2000/svg"
   xmlns:svg="http://www.w3.org/2000/svg"><sodipodi:namedview
     id="namedview7"
     pagecolor="#ffffff"
     bordercolor="#666666"
     borderopacity="1"
     inkscape:pageshadow="2"
     inkscape:pageopacity="0.0"
     inkscape:pagecheckerboard="true"
     inkscape:document-units="px"
     showgrid="false"
     inkscape:showpageshadow="false"
     showborder="true"
     inkscape:snap-page="true"
     inkscape:zoom="2"
     inkscape:cx="16.75"
     inkscape:cy="89.75"
     inkscape:window-width="1728"
     inkscape:window-height="1043"
     inkscape:window-x="0"
     inkscape:window-y="0"
     inkscape:window-maximized="1"
     inkscape:current-layer="layer2"
     inkscape:snap-bbox="true"
     inkscape:snap-bbox-midpoints="true"
     inkscape:snap-bbox-edge-midpoints="true"
     inkscape:bbox-nodes="true"
     inkscape:bbox-paths="true"
     inkscape:snap-intersection-paths="true"
     inkscape:object-paths="true"
     inkscape:snap-smooth-nodes="true"
     inkscape:snap-midpoints="true"
     inkscape:deskcolor="#d1d1d1" /><defs
     id="defs2"><linearGradient
       id="linearGradient1"
       inkscape:collect="always"><stop
         style="stop-color:#f09ec4;stop-opacity:1;"
         offset="0"
         id="stop17" /><stop
         style="stop-color:#e86ba6;stop-opacity:1;"
         offset="1"
         id="stop18" /></linearGradient><inkscape:path-effect
       effect="fillet_chamfer"
       id="path-effect16"
       is_visible="true"
       lpeversion="1"
       nodesatellites_param="F,0,0,1,0,3.3986054,0,1 @ F,0,0,1,0,0,0,1 @ F,0,0,1,0,3.840993,0,1 @ F,0,0,1,0,0,0,1 @ F,0,0,1,0,3.2686882,0,1 @ F,0,0,1,0,0,0,1"
       radius="0"
       unit="px"
       method="auto"
       mode="F"
       chamfer_steps="1"
       flexible="false"
       use_knot_distance="true"
       apply_no_radius="true"
       apply_with_radius="true"
       only_selected="false"
       hide_knots="false" /><linearGradient
       id="linearGradient2"
       inkscape:collect="always"><stop
         style="stop-color:#f52657;stop-opacity:1"
         offset="0"
         id="stop15" /><stop
         style="stop-color:#900247;stop-opacity:1"
         offset="1"
         id="stop16" /></linearGradient><linearGradient
       inkscape:collect="always"
       id="linearGradient1668"><stop
         style="stop-color:#ffffff;stop-opacity:1;"
         offset="0"
         id="stop1664" /><stop
         style="stop-color:#9b034c;stop-opacity:1;"
         offset="1"
         id="stop1666" /></linearGradient><linearGradient
       inkscape:collect="always"
       id="linearGradient1522"><stop
         style="stop-color:#59022b;stop-opacity:0.96862745;"
         offset="0"
         id="stop1518" /><stop
         style="stop-color:#59022b;stop-opacity:0.96862745;"
         offset="0.34999999"
         id="stop1617" /><stop
         style="stop-color:#7b023d;stop-opacity:0.96862745;"
         offset="0.5"
         id="stop1613" /><stop
         style="stop-color:#59022b;stop-opacity:0.96862745;"
         offset="0.64999998"
         id="stop1615" /><stop
         style="stop-color:#59022b;stop-opacity:0.96862745;"
         offset="1"
         id="stop1520" /></linearGradient><linearGradient
       y2="236"
       x2="96"
       y1="236"
       x1="32"
       gradientTransform="translate(604.81684,170.58641)"
       gradientUnits="userSpaceOnUse"
       id="linearGradient1099"
       xlink:href="#linearGradient1036" /><linearGradient
       id="linearGradient1036"><stop
         id="stop1032"
         offset="0"
         style="stop-color:#d5d3cf;stop-opacity:1;" /><stop
         id="stop1034"
         offset="1"
         style="stop-color:#f6f5f4;stop-opacity:1" /></linearGradient><radialGradient
       r="32"
       fy="-76"
       fx="-244"
       cy="-76"
       cx="-244"
       gradientTransform="matrix(0.88333331,0,0,0.88333331,-460.35018,463.11973)"
       gradientUnits="userSpaceOnUse"
       id="radialGradient1103"
       xlink:href="#linearGradient1069" /><linearGradient
       id="linearGradient1069"><stop
         id="stop1065"
         offset="0"
         style="stop-color:#d5d3cf;stop-opacity:1" /><stop
         id="stop1067-1"
         offset="1"
         style="stop-color:#949390;stop-opacity:1" /></linearGradient><linearGradient
       gradientUnits="userSpaceOnUse"
       y2="232"
       x2="64"
       y1="262.5"
       x1="64"
       id="linearGradient1027"
       xlink:href="#linearGradient1025"
       gradientTransform="translate(-470.5864,432.81685)" /><linearGradient
       id="linearGradient1025"><stop
         id="stop1021"
         offset="0"
         style="stop-color:#9a9996;stop-opacity:1" /><stop
         id="stop1023"
         offset="1"
         style="stop-color:#77767b;stop-opacity:1" /></linearGradient><inkscape:path-effect
       effect="spiro"
       id="path-effect35304-9"
       is_visible="true" /><clipPath
       clipPathUnits="userSpaceOnUse"
       id="clipPath1609-7"><path
         sodipodi:nodetypes="cccccc"
         inkscape:connector-curvature="0"
         id="path1611-5"
         d="m 252,116 28,-28 v -8 h -36 v 36 z"
         style="fill:#e74747;stroke:none;stroke-width:0.25px;stroke-linecap:butt;stroke-linejoin:miter;stroke-opacity:1" /></clipPath><radialGradient
       r="32"
       fy="-76"
       fx="-244"
       cy="-76"
       cx="-244"
       gradientTransform="matrix(0.88333331,0,0,0.88333331,-460.35018,463.11973)"
       gradientUnits="userSpaceOnUse"
       id="radialGradient1103-5"
       xlink:href="#linearGradient1069" /><inkscape:path-effect
       effect="spiro"
       id="path-effect35304-9-2"
       is_visible="true" /><clipPath
       clipPathUnits="userSpaceOnUse"
       id="clipPath1609-7-7"><path
         sodipodi:nodetypes="cccccc"
         inkscape:connector-curvature="0"
         id="path1611-5-0"
         d="m 252,116 28,-28 v -8 h -36 v 36 z"
         style="fill:#e74747;stroke:none;stroke-width:0.25px;stroke-linecap:butt;stroke-linejoin:miter;stroke-opacity:1" /></clipPath><clipPath
       clipPathUnits="userSpaceOnUse"
       id="clipPath744"><rect
         style="fill:#1e88e5;fill-opacity:1;stroke-width:0.264583"
         id="rect746"
         width="541.86664"
         height="541.86664"
         x="0"
         y="1.5987212e-14"
         rx="79.375"
         ry="79.375" /></clipPath><clipPath
       clipPathUnits="userSpaceOnUse"
       id="clipPath62"><rect
         style="fill:#1e88e5;fill-opacity:1;stroke-width:0.264583"
         id="rect64"
         width="541.86664"
         height="541.86664"
         x="2.2507105e-05"
         y="-0.42205024"
         rx="79.375"
         ry="79.375" /></clipPath><radialGradient
       r="32"
       fy="-76"
       fx="-244"
       cy="-76"
       cx="-244"
       gradientTransform="matrix(0.88333331,0,0,0.88333331,-460.35018,463.11973)"
       gradientUnits="userSpaceOnUse"
       id="radialGradient1103-6"
       xlink:href="#linearGradient1069" /><inkscape:path-effect
       effect="spiro"
       id="path-effect35304-9-20"
       is_visible="true" /><clipPath
       clipPathUnits="userSpaceOnUse"
       id="clipPath1609-7-2"><path
         sodipodi:nodetypes="cccccc"
         inkscape:connector-curvature="0"
         id="path1611-5-3"
         d="m 252,116 28,-28 v -8 h -36 v 36 z"
         style="fill:#e74747;stroke:none;stroke-width:0.25px;stroke-linecap:butt;stroke-linejoin:miter;stroke-opacity:1" /></clipPath><clipPath
       clipPathUnits="userSpaceOnUse"
       id="clipPath961"><rect
         style="fill:#00c853;stroke:none;stroke-width:0.529037"
         id="rect963"
         width="541.86664"
         height="541.86664"
         x="1.4210855e-14"
         y="2.717972e-05"
         rx="79.375"
         ry="79.375" /></clipPath><radialGradient
       r="32"
       fy="-76"
       fx="-244"
       cy="-76"
       cx="-244"
       gradientTransform="matrix(0.88333331,0,0,0.88333331,-460.35018,463.11973)"
       gradientUnits="userSpaceOnUse"
       id="radialGradient1103-56"
       xlink:href="#linearGradient1069" /><inkscape:path-effect
       effect="spiro"
       id="path-effect35304-9-7"
       is_visible="true" /><clipPath
       clipPathUnits="userSpaceOnUse"
       id="clipPath1440"><circle
         style="display:inline;opacity:1;vector-effect:none;fill:none;fill-opacity:1;stroke:#000000;stroke-width:2;stroke-linecap:butt;stroke-linejoin:miter;stroke-miterlimit:4;stroke-dasharray:none;stroke-dashoffset:0;stroke-opacity:1;marker:none;marker-start:none;marker-mid:none;marker-end:none;paint-order:normal;enable-background:new"
         id="circle1442"
         cx="-134.35028"
         cy="193.74727"
         r="24"
         transform="rotate(-45)" /></clipPath><clipPath
       clipPathUnits="userSpaceOnUse"
       id="clipPath1430"><circle
         style="display:inline;opacity:1;vector-effect:none;fill:none;fill-opacity:1;stroke:#000000;stroke-width:2;stroke-linecap:butt;stroke-linejoin:miter;stroke-miterlimit:4;stroke-dasharray:none;stroke-dashoffset:0;stroke-opacity:1;marker:none;marker-start:none;marker-mid:none;marker-end:none;paint-order:normal;enable-background:new"
         id="circle1432"
         cx="12"
         cy="232"
         r="24" /></clipPath><clipPath
       clipPathUnits="userSpaceOnUse"
       id="clipPath1440-9"><circle
         style="display:inline;opacity:1;vector-effect:none;fill:none;fill-opacity:1;stroke:#000000;stroke-width:2;stroke-linecap:butt;stroke-linejoin:miter;stroke-miterlimit:4;stroke-dasharray:none;stroke-dashoffset:0;stroke-opacity:1;marker:none;marker-start:none;marker-mid:none;marker-end:none;paint-order:normal;enable-background:new"
         id="circle1442-5"
         cx="-134.35028"
         cy="193.74727"
         r="24"
         transform="rotate(-45)" /></clipPath><clipPath
       clipPathUnits="userSpaceOnUse"
       id="clipPath1430-1"><circle
         style="display:inline;opacity:1;vector-effect:none;fill:none;fill-opacity:1;stroke:#000000;stroke-width:2;stroke-linecap:butt;stroke-linejoin:miter;stroke-miterlimit:4;stroke-dasharray:none;stroke-dashoffset:0;stroke-opacity:1;marker:none;marker-start:none;marker-mid:none;marker-end:none;paint-order:normal;enable-background:new"
         id="circle1432-8"
         cx="12"
         cy="232"
         r="24" /></clipPath><clipPath
       clipPathUnits="userSpaceOnUse"
       id="clipPath2024"><rect
         style="opacity:1;vector-effect:none;fill:#63452c;fill-opacity:1;stroke:none;stroke-width:4;stroke-linecap:round;stroke-linejoin:round;stroke-miterlimit:4;stroke-dasharray:none;stroke-dashoffset:0;stroke-opacity:1"
         id="rect2026"
         width="74"
         height="98"
         x="6"
         y="196" /></clipPath><linearGradient
       id="linearGradient914"
       inkscape:collect="always"><stop
         id="stop910"
         offset="0"
         style="stop-color:#f6f5f4;stop-opacity:0.43700787" /><stop
         id="stop912"
         offset="1"
         style="stop-color:#deddda;stop-opacity:0;" /></linearGradient><radialGradient
       gradientTransform="matrix(2.6086955,0,0,1.8410361,-102.95652,-748.94671)"
       gradientUnits="userSpaceOnUse"
       r="46"
       fy="296"
       fx="64.000008"
       cy="296"
       cx="64.000008"
       id="radialGradient916"
       xlink:href="#linearGradient914"
       inkscape:collect="always" /><clipPath
       clipPathUnits="userSpaceOnUse"
       id="clipPath11543"><rect
         style="fill:#f0c04e;fill-opacity:1;stroke:none;stroke-width:0.529037"
         id="rect11545"
         width="541.86664"
         height="541.86664"
         x="1.4746095e-06"
         y="6.4330168e-05"
         rx="79.375"
         ry="79.375" /></clipPath><style
       id="style374">.cls-1{fill:url(#linear-gradient);}.cls-2{opacity:0.35;fill:url(#radial-gradient);}.cls-2,.cls-4{isolation:isolate;}.cls-3{fill:url(#linear-gradient-2);}.cls-4{opacity:0.41;fill:url(#radial-gradient-2);}.cls-5{fill:url(#radial-gradient-3);}.cls-6{fill:url(#radial-gradient-4);}</style><linearGradient
       id="linear-gradient"
       x1="63.33"
       y1="84.03"
       x2="241.67"
       y2="84.03"
       gradientTransform="matrix(1,0,0,-1,0,266)"
       gradientUnits="userSpaceOnUse"><stop
         offset="0"
         stop-color="#0c59a4"
         id="stop376" /><stop
         offset="1"
         stop-color="#114a8b"
         id="stop378" /></linearGradient><radialGradient
       id="radial-gradient"
       cx="161.83"
       cy="68.91"
       r="95.38"
       gradientTransform="matrix(1,0,0,-0.95,0,248.84)"
       gradientUnits="userSpaceOnUse"><stop
         offset="0.72"
         stop-opacity="0"
         id="stop381" /><stop
         offset="0.95"
         stop-opacity="0.53"
         id="stop383" /><stop
         offset="1"
         id="stop385" /></radialGradient><linearGradient
       id="linear-gradient-2"
       x1="157.35"
       y1="161.39"
       x2="45.96"
       y2="40.06"
       gradientTransform="matrix(1,0,0,-1,0,266)"
       gradientUnits="userSpaceOnUse"><stop
         offset="0"
         stop-color="#1b9de2"
         id="stop388" /><stop
         offset="0.16"
         stop-color="#1595df"
         id="stop390" /><stop
         offset="0.67"
         stop-color="#0680d7"
         id="stop392" /><stop
         offset="1"
         stop-color="#0078d4"
         id="stop394" /></linearGradient><radialGradient
       id="radial-gradient-2"
       cx="-340.29"
       cy="62.99"
       r="143.24"
       gradientTransform="matrix(0.15,-0.99,-0.8,-0.12,176.64,-125.4)"
       gradientUnits="userSpaceOnUse"><stop
         offset="0.76"
         stop-opacity="0"
         id="stop397" /><stop
         offset="0.95"
         stop-opacity="0.5"
         id="stop399" /><stop
         offset="1"
         id="stop401" /></radialGradient><radialGradient
       id="radial-gradient-3"
       cx="113.37"
       cy="570.21"
       r="202.43"
       gradientTransform="matrix(-0.04,1,2.13,0.08,-1179.54,-106.69)"
       gradientUnits="userSpaceOnUse"><stop
         offset="0"
         stop-color="#35c1f1"
         id="stop404" /><stop
         offset="0.11"
         stop-color="#34c1ed"
         id="stop406" /><stop
         offset="0.23"
         stop-color="#2fc2df"
         id="stop408" /><stop
         offset="0.31"
         stop-color="#2bc3d2"
         id="stop410" /><stop
         offset="0.67"
         stop-color="#36c752"
         id="stop412" /></radialGradient><radialGradient
       id="radial-gradient-4"
       cx="376.52"
       cy="567.97"
       r="97.34"
       gradientTransform="matrix(0.28,0.96,0.78,-0.23,-303.76,-148.5)"
       gradientUnits="userSpaceOnUse"><stop
         offset="0"
         stop-color="#66eb6e"
         id="stop415" /><stop
         offset="1"
         stop-color="#66eb6e"
         stop-opacity="0"
         id="stop417" /></radialGradient><clipPath
       clipPathUnits="userSpaceOnUse"
       id="clipPath1260"><rect
         style="fill:#bbdefb;fill-opacity:1;stroke:none;stroke-width:0.529037"
         id="rect1262"
         width="541.86664"
         height="541.86664"
         x="2.9492187e-06"
         y="3.9968629e-05"
         rx="79.375"
         ry="79.375" /></clipPath><clipPath
       clipPathUnits="userSpaceOnUse"
       id="clipPath16285"><rect
         style="fill:#bbdefb;fill-opacity:1;stroke:none;stroke-width:0.529037"
         id="rect16287"
         width="541.86664"
         height="541.86664"
         x="0"
         y="6.4807005e-05"
         rx="79.375"
         ry="79.375" /></clipPath><clipPath
       clipPathUnits="userSpaceOnUse"
       id="clipPath990"><rect
         style="fill:#bbdefb;fill-opacity:1;stroke:none;stroke-width:0.529037"
         id="rect992"
         width="487.67996"
         height="487.67996"
         x="27.093349"
         y="27.093338"
         rx="71.4375"
         ry="71.4375" /></clipPath><linearGradient
       inkscape:collect="always"
       xlink:href="#linearGradient1522"
       id="linearGradient1524"
       x1="9"
       y1="64"
       x2="119"
       y2="64"
       gradientUnits="userSpaceOnUse" /><linearGradient
       inkscape:collect="always"
       xlink:href="#linearGradient1668"
       id="linearGradient1670"
       x1="64.502502"
       y1="5.0022955"
       x2="64.502502"
       y2="114.77119"
       gradientUnits="userSpaceOnUse" /><linearGradient
       id="linear-gradient-3"
       x1="921.62"
       y1="898.72"
       x2="225.61"
       y2="202.72"
       gradientUnits="userSpaceOnUse"
       gradientTransform="matrix(0.08346965,0,0,0.08346965,30.729137,45.627949)"><stop
         offset="0"
         stop-color="#3217ff"
         id="stop1" /><stop
         offset=".26"
         stop-color="#2b38ff"
         id="stop2" /><stop
         offset=".5"
         stop-color="#2455ff"
         id="stop3" /><stop
         offset=".75"
         stop-color="#1d74ff"
         id="stop4" /><stop
         offset="1"
         stop-color="#1792ff"
         id="stop5" /></linearGradient><linearGradient
       id="linear-gradient-2-6"
       x1="551.68"
       y1="880.73"
       x2="438.44"
       y2="238.5"
       gradientUnits="userSpaceOnUse"
       gradientTransform="matrix(0.08346965,0,0,0.08346965,19.263862,21.260716)"><stop
         offset="0"
         stop-color="#0e80ff"
         id="stop6"
         style="stop-color:#008080;stop-opacity:1" /><stop
         offset=".13"
         stop-color="#0789ff"
         id="stop7"
         style="stop-color:#008080;stop-opacity:1" /><stop
         offset=".25"
         stop-color="#0090ff"
         id="stop8"
         style="stop-color:#008080;stop-opacity:1" /><stop
         offset=".38"
         stop-color="#009dff"
         id="stop9"
         style="stop-color:#f9f9f9;stop-opacity:1" /><stop
         offset=".5"
         stop-color="#0af"
         id="stop10" /><stop
         offset=".62"
         stop-color="#00b7ff"
         id="stop11" /><stop
         offset=".75"
         stop-color="#00c4ff"
         id="stop12" /><stop
         offset=".87"
         stop-color="#21ccff"
         id="stop13" /><stop
         offset="1"
         stop-color="#46d4ff"
         id="stop14" /></linearGradient><linearGradient
       inkscape:collect="always"
       xlink:href="#linearGradient2"
       id="linearGradient16"
       x1="64"
       y1="7.7966461"
       x2="64"
       y2="112.20335"
       gradientUnits="userSpaceOnUse" /><linearGradient
       inkscape:collect="always"
       xlink:href="#linearGradient1"
       id="linearGradient18"
       x1="64"
       y1="94.830078"
       x2="64"
       y2="23.740234"
       gradientUnits="userSpaceOnUse" /></defs><g
     inkscape:groupmode="layer"
     id="layer2"
     inkscape:label="Layer 1"><path
       id="circle372"
       style="fill:url(#linearGradient1524);fill-opacity:1;stroke-width:1"
       d="M 64,5 A 55,55 0 0 0 9,60 v 8 a 55,55 0 0 0 55,55 55,55 0 0 0 55,-55 V 60 A 55,55 0 0 0 64,5 Z" /><circle
       style="fill:url(#linearGradient1670);fill-opacity:1;stroke-width:1"
       id="path953"
       cx="64"
       cy="60"
       r="55"
       inkscape:export-filename="/home/retro/.icons/skeuowaita/scalable/apps/skeuwaita.png"
       inkscape:export-xdpi="1536"
       inkscape:export-ydpi="1536" /><text
       xml:space="preserve"
       style="font-style:normal;font-variant:normal;font-weight:normal;font-stretch:normal;font-size:40px;line-height:1.25;font-family:'DejaVu Math TeX Gyre';-inkscape-font-specification:'DejaVu Math TeX Gyre';fill:#000000;fill-opacity:1;stroke:none"
       x="57.326862"
       y="68.239342"
       id="text3441"><tspan
         sodipodi:role="line"
         id="tspan3439"
         x="57.326862"
         y="68.239342" /></text><text
       xml:space="preserve"
       style="font-size:40px;line-height:1.25;font-family:Caladea;-inkscape-font-specification:Caladea"
       x="43.192081"
       y="68.806938"
       id="text13903"><tspan
         sodipodi:role="line"
         id="tspan13901"
         x="43.192081"
         y="68.806938" /></text><circle
       style="fill:url(#linearGradient16);fill-opacity:1;stroke-width:0.949152"
       id="circle1662"
       cx="64"
       cy="60"
       r="52.203354"
       inkscape:export-filename="/home/retro/.icons/skeuowaita/scalable/apps/skeuwaita.png"
       inkscape:export-xdpi="1536"
       inkscape:export-ydpi="1536" /><path
       id="circle16"
       style="fill:url(#linearGradient18);fill-opacity:1;stroke:none;stroke-width:0.263879;stroke-linecap:round;stroke-linejoin:round"
       d="M 64,24.649708 A 35.349214,35.349214 0 0 0 28.651806,60 35.349214,35.349214 0 0 0 64,95.350292 35.349214,35.349214 0 0 0 99.348194,60 35.349214,35.349214 0 0 0 64,24.649708 Z m 0,6.075339 A 29.2752,29.2752 0 0 1 93.274953,60 29.2752,29.2752 0 0 1 64,89.274953 29.2752,29.2752 0 0 1 34.725047,60 29.2752,29.2752 0 0 1 64,30.725047 Z m -5.034453,19.029769 a 1.0757266,1.0757266 0 0 0 -1.038788,1.076563 V 60 68.843344 a 1.2640724,1.2640724 0 0 0 1.895002,1.09545 l 7.659754,-4.421672 7.875907,-4.547586 a 1.1184823,1.1184823 0 0 0 0,-1.936974 l -7.875907,-4.549684 -7.940962,-4.583262 a 1.0757266,1.0757266 0 0 0 -0.575006,-0.1448 z" /><path
       id="path16"
       style="fill:#680232;fill-opacity:0.968627;stroke:none;stroke-width:0.263879;stroke-linecap:round;stroke-linejoin:round"
       d="M 64 23.740234 A 35.349214 35.349214 0 0 0 28.716797 58.089844 A 35.349214 35.349214 0 0 1 28.675781 57.439453 A 35.349214 35.349214 0 0 0 28.652344 57.783203 A 35.349214 35.349214 0 0 0 28.660156 57.894531 A 35.349214 35.349214 0 0 0 28.652344 58 A 35.349214 35.349214 0 0 0 28.716797 59 A 35.349214 35.349214 0 0 1 64 24.650391 A 35.349214 35.349214 0 0 1 99.283203 59 A 35.349214 35.349214 0 0 0 99.347656 58 A 35.349214 35.349214 0 0 0 99.341797 57.904297 A 35.349214 35.349214 0 0 0 99.347656 57.783203 A 35.349214 35.349214 0 0 0 99.324219 57.439453 A 35.349214 35.349214 0 0 1 99.283203 58.089844 A 35.349214 35.349214 0 0 0 64 23.740234 z M 58.964844 48.84375 A 1.0757266 1.0757266 0 0 0 57.927734 49.917969 L 57.927734 50.134766 L 57.927734 50.611328 L 57.927734 50.828125 A 1.0757266 1.0757266 0 0 1 58.964844 49.753906 A 1.0757266 1.0757266 0 0 1 59.541016 49.900391 L 67.482422 54.482422 L 75.300781 59 L 75.300781 59.001953 L 75.357422 59.033203 A 1.1184823 1.1184823 0 0 1 75.857422 59.654297 A 1.1184823 1.1184823 0 0 0 75.90625 59.189453 A 1.1184823 1.1184823 0 0 0 75.357422 58.123047 L 75.300781 58.091797 L 75.300781 58.089844 L 67.482422 53.572266 L 59.541016 48.990234 A 1.0757266 1.0757266 0 0 0 58.964844 48.84375 z M 34.748047 59.439453 A 29.2752 29.2752 0 0 0 34.724609 59.783203 A 29.2752 29.2752 0 0 0 34.732422 59.894531 A 29.2752 29.2752 0 0 0 34.724609 60 A 29.2752 29.2752 0 0 0 64 89.275391 A 29.2752 29.2752 0 0 0 93.275391 60 A 29.2752 29.2752 0 0 0 93.267578 59.894531 A 29.2752 29.2752 0 0 0 93.275391 59.783203 A 29.2752 29.2752 0 0 0 93.251953 59.439453 A 29.2752 29.2752 0 0 1 64 88.365234 A 29.2752 29.2752 0 0 1 34.748047 59.439453 z " /><path
       id="path17"
       style="fill:#f5c0da;fill-opacity:1;stroke:none;stroke-width:0.263879;stroke-linecap:round;stroke-linejoin:round"
       d="M 64 30.205078 A 29.2752 29.2752 0 0 0 34.724609 59.480469 A 29.2752 29.2752 0 0 0 34.730469 59.570312 A 29.2752 29.2752 0 0 0 34.724609 59.664062 A 29.2752 29.2752 0 0 0 34.742188 59.921875 A 29.2752 29.2752 0 0 1 64 30.908203 A 29.2752 29.2752 0 0 1 93.257812 59.921875 A 29.2752 29.2752 0 0 0 93.275391 59.664062 A 29.2752 29.2752 0 0 0 93.269531 59.570312 A 29.2752 29.2752 0 0 0 93.275391 59.480469 A 29.2752 29.2752 0 0 0 64 30.205078 z M 75.908203 60.128906 L 75.300781 60.480469 L 74.621094 60.873047 L 67.482422 64.998047 L 59.822266 69.419922 A 1.2640724 1.2640724 0 0 1 57.927734 68.324219 L 57.927734 68.507812 L 57.927734 68.84375 L 57.927734 69.027344 A 1.2640724 1.2640724 0 0 0 59.822266 70.123047 L 67.482422 65.701172 L 75.300781 61.183594 L 75.908203 60.876953 L 75.908203 60.128906 z M 28.716797 60.480469 A 35.349214 35.349214 0 0 0 28.652344 61.480469 A 35.349214 35.349214 0 0 0 28.658203 61.570312 A 35.349214 35.349214 0 0 0 28.652344 61.664062 A 35.349214 35.349214 0 0 0 28.669922 61.921875 A 35.349214 35.349214 0 0 1 28.716797 61.183594 A 35.349214 35.349214 0 0 0 64 95.533203 A 35.349214 35.349214 0 0 0 99.283203 61.183594 A 35.349214 35.349214 0 0 1 99.330078 61.921875 A 35.349214 35.349214 0 0 0 99.347656 61.664062 A 35.349214 35.349214 0 0 0 99.341797 61.560547 A 35.349214 35.349214 0 0 0 99.347656 61.480469 A 35.349214 35.349214 0 0 0 99.283203 60.480469 A 35.349214 35.349214 0 0 1 64 94.830078 A 35.349214 35.349214 0 0 1 28.716797 60.480469 z " /></g></svg>
