<?xml version="1.0" encoding="UTF-8" standalone="no"?>
<!-- Created with Inkscape (http://www.inkscape.org/) -->

<svg
   width="128"
   height="128"
   viewBox="0 0 128 128"
   version="1.1"
   id="svg5"
   inkscape:version="1.4.3 (0d15f75042, 2025-12-25)"
   sodipodi:docname="com.obsproject.Studio.svg"
   inkscape:export-filename="/home/retro/.icons/skeuowaita/scalable/apps/skeuowaita.png"
   inkscape:export-xdpi="1536"
   inkscape:export-ydpi="1536"
   xml:space="preserve"
   xmlns:inkscape="http://www.inkscape.org/namespaces/inkscape"
   xmlns:sodipodi="http://sodipodi.sourceforge.net/DTD/sodipodi-0.dtd"
   xmlns:xlink="http://www.w3.org/1999/xlink"
   xmlns="http://www.w3.org/2000/svg"
   xmlns:svg="http://www.w3.org/2000/svg"><sodipodi:namedview
     id="namedview7"
     pagecolor="#ffffff"
     bordercolor="#666666"
     borderopacity="1"
     inkscape:pageshadow="2"
     inkscape:pageopacity="0.0"
     inkscape:pagecheckerboard="true"
     inkscape:document-units="px"
     showgrid="false"
     inkscape:showpageshadow="false"
     showborder="true"
     inkscape:snap-page="true"
     inkscape:zoom="4.1984071"
     inkscape:cx="40.61064"
     inkscape:cy="60.141857"
     inkscape:window-width="1728"
     inkscape:window-height="1043"
     inkscape:window-x="0"
     inkscape:window-y="0"
     inkscape:window-maximized="1"
     inkscape:current-layer="layer2"
     inkscape:snap-bbox="true"
     inkscape:snap-bbox-midpoints="true"
     inkscape:snap-bbox-edge-midpoints="true"
     inkscape:bbox-nodes="true"
     inkscape:bbox-paths="true"
     inkscape:snap-intersection-paths="true"
     inkscape:object-paths="true"
     inkscape:snap-smooth-nodes="true"
     inkscape:snap-midpoints="true"
     inkscape:deskcolor="#d1d1d1" /><defs
     id="defs2"><linearGradient
       id="linearGradient1"
       inkscape:collect="always"><stop
         style="stop-color:#323232;stop-opacity:1;"
         offset="0"
         id="stop1" /><stop
         style="stop-color:#323232;stop-opacity:1;"
         offset="0.60000002"
         id="stop3" /><stop
         style="stop-color:#000000;stop-opacity:1;"
         offset="1"
         id="stop2" /></linearGradient><linearGradient
       inkscape:collect="always"
       id="linearGradient4539"><stop
         style="stop-color:#e6e6e6;stop-opacity:1"
         offset="0"
         id="stop4535" /><stop
         style="stop-color:#ffffff;stop-opacity:1"
         offset="1"
         id="stop4537" /></linearGradient><linearGradient
       inkscape:collect="always"
       id="linearGradient5042"><stop
         style="stop-color:#999999;stop-opacity:1"
         offset="0"
         id="stop5038" /><stop
         style="stop-color:#999999;stop-opacity:1"
         offset="0.29999998"
         id="stop12907" /><stop
         style="stop-color:#bdbdbd;stop-opacity:1;"
         offset="0.49999997"
         id="stop7880" /><stop
         style="stop-color:#999999;stop-opacity:1"
         offset="0.69999999"
         id="stop12905" /><stop
         style="stop-color:#999999;stop-opacity:1"
         offset="1"
         id="stop5040" /></linearGradient><linearGradient
       y2="236"
       x2="96"
       y1="236"
       x1="32"
       gradientTransform="translate(604.81684,170.58641)"
       gradientUnits="userSpaceOnUse"
       id="linearGradient1099"
       xlink:href="#linearGradient1036" /><linearGradient
       id="linearGradient1036"><stop
         id="stop1032"
         offset="0"
         style="stop-color:#d5d3cf;stop-opacity:1;" /><stop
         id="stop1034"
         offset="1"
         style="stop-color:#f6f5f4;stop-opacity:1" /></linearGradient><radialGradient
       r="32"
       fy="-76"
       fx="-244"
       cy="-76"
       cx="-244"
       gradientTransform="matrix(0.88333331,0,0,0.88333331,-460.35018,463.11973)"
       gradientUnits="userSpaceOnUse"
       id="radialGradient1103"
       xlink:href="#linearGradient1069" /><linearGradient
       id="linearGradient1069"><stop
         id="stop1065"
         offset="0"
         style="stop-color:#d5d3cf;stop-opacity:1" /><stop
         id="stop1067-1"
         offset="1"
         style="stop-color:#949390;stop-opacity:1" /></linearGradient><linearGradient
       gradientUnits="userSpaceOnUse"
       y2="232"
       x2="64"
       y1="262.5"
       x1="64"
       id="linearGradient1027"
       xlink:href="#linearGradient1025"
       gradientTransform="translate(-470.5864,432.81685)" /><linearGradient
       id="linearGradient1025"><stop
         id="stop1021"
         offset="0"
         style="stop-color:#9a9996;stop-opacity:1" /><stop
         id="stop1023"
         offset="1"
         style="stop-color:#77767b;stop-opacity:1" /></linearGradient><inkscape:path-effect
       effect="spiro"
       id="path-effect35304-9"
       is_visible="true" /><clipPath
       clipPathUnits="userSpaceOnUse"
       id="clipPath1609-7"><path
         sodipodi:nodetypes="cccccc"
         inkscape:connector-curvature="0"
         id="path1611-5"
         d="m 252,116 28,-28 v -8 h -36 v 36 z"
         style="fill:#e74747;stroke:none;stroke-width:0.25px;stroke-linecap:butt;stroke-linejoin:miter;stroke-opacity:1" /></clipPath><radialGradient
       r="32"
       fy="-76"
       fx="-244"
       cy="-76"
       cx="-244"
       gradientTransform="matrix(0.88333331,0,0,0.88333331,-460.35018,463.11973)"
       gradientUnits="userSpaceOnUse"
       id="radialGradient1103-5"
       xlink:href="#linearGradient1069" /><inkscape:path-effect
       effect="spiro"
       id="path-effect35304-9-2"
       is_visible="true" /><clipPath
       clipPathUnits="userSpaceOnUse"
       id="clipPath1609-7-7"><path
         sodipodi:nodetypes="cccccc"
         inkscape:connector-curvature="0"
         id="path1611-5-0"
         d="m 252,116 28,-28 v -8 h -36 v 36 z"
         style="fill:#e74747;stroke:none;stroke-width:0.25px;stroke-linecap:butt;stroke-linejoin:miter;stroke-opacity:1" /></clipPath><clipPath
       clipPathUnits="userSpaceOnUse"
       id="clipPath744"><rect
         style="fill:#1e88e5;fill-opacity:1;stroke-width:0.264583"
         id="rect746"
         width="541.86664"
         height="541.86664"
         x="0"
         y="1.5987212e-14"
         rx="79.375"
         ry="79.375" /></clipPath><clipPath
       clipPathUnits="userSpaceOnUse"
       id="clipPath62"><rect
         style="fill:#1e88e5;fill-opacity:1;stroke-width:0.264583"
         id="rect64"
         width="541.86664"
         height="541.86664"
         x="2.2507105e-05"
         y="-0.42205024"
         rx="79.375"
         ry="79.375" /></clipPath><radialGradient
       r="32"
       fy="-76"
       fx="-244"
       cy="-76"
       cx="-244"
       gradientTransform="matrix(0.88333331,0,0,0.88333331,-460.35018,463.11973)"
       gradientUnits="userSpaceOnUse"
       id="radialGradient1103-6"
       xlink:href="#linearGradient1069" /><inkscape:path-effect
       effect="spiro"
       id="path-effect35304-9-20"
       is_visible="true" /><clipPath
       clipPathUnits="userSpaceOnUse"
       id="clipPath1609-7-2"><path
         sodipodi:nodetypes="cccccc"
         inkscape:connector-curvature="0"
         id="path1611-5-3"
         d="m 252,116 28,-28 v -8 h -36 v 36 z"
         style="fill:#e74747;stroke:none;stroke-width:0.25px;stroke-linecap:butt;stroke-linejoin:miter;stroke-opacity:1" /></clipPath><clipPath
       clipPathUnits="userSpaceOnUse"
       id="clipPath961"><rect
         style="fill:#00c853;stroke:none;stroke-width:0.529037"
         id="rect963"
         width="541.86664"
         height="541.86664"
         x="1.4210855e-14"
         y="2.717972e-05"
         rx="79.375"
         ry="79.375" /></clipPath><radialGradient
       r="32"
       fy="-76"
       fx="-244"
       cy="-76"
       cx="-244"
       gradientTransform="matrix(0.88333331,0,0,0.88333331,-460.35018,463.11973)"
       gradientUnits="userSpaceOnUse"
       id="radialGradient1103-56"
       xlink:href="#linearGradient1069" /><inkscape:path-effect
       effect="spiro"
       id="path-effect35304-9-7"
       is_visible="true" /><clipPath
       clipPathUnits="userSpaceOnUse"
       id="clipPath1440"><circle
         style="display:inline;opacity:1;vector-effect:none;fill:none;fill-opacity:1;stroke:#000000;stroke-width:2;stroke-linecap:butt;stroke-linejoin:miter;stroke-miterlimit:4;stroke-dasharray:none;stroke-dashoffset:0;stroke-opacity:1;marker:none;marker-start:none;marker-mid:none;marker-end:none;paint-order:normal;enable-background:new"
         id="circle1442"
         cx="-134.35028"
         cy="193.74727"
         r="24"
         transform="rotate(-45)" /></clipPath><clipPath
       clipPathUnits="userSpaceOnUse"
       id="clipPath1430"><circle
         style="display:inline;opacity:1;vector-effect:none;fill:none;fill-opacity:1;stroke:#000000;stroke-width:2;stroke-linecap:butt;stroke-linejoin:miter;stroke-miterlimit:4;stroke-dasharray:none;stroke-dashoffset:0;stroke-opacity:1;marker:none;marker-start:none;marker-mid:none;marker-end:none;paint-order:normal;enable-background:new"
         id="circle1432"
         cx="12"
         cy="232"
         r="24" /></clipPath><clipPath
       clipPathUnits="userSpaceOnUse"
       id="clipPath1440-9"><circle
         style="display:inline;opacity:1;vector-effect:none;fill:none;fill-opacity:1;stroke:#000000;stroke-width:2;stroke-linecap:butt;stroke-linejoin:miter;stroke-miterlimit:4;stroke-dasharray:none;stroke-dashoffset:0;stroke-opacity:1;marker:none;marker-start:none;marker-mid:none;marker-end:none;paint-order:normal;enable-background:new"
         id="circle1442-5"
         cx="-134.35028"
         cy="193.74727"
         r="24"
         transform="rotate(-45)" /></clipPath><clipPath
       clipPathUnits="userSpaceOnUse"
       id="clipPath1430-1"><circle
         style="display:inline;opacity:1;vector-effect:none;fill:none;fill-opacity:1;stroke:#000000;stroke-width:2;stroke-linecap:butt;stroke-linejoin:miter;stroke-miterlimit:4;stroke-dasharray:none;stroke-dashoffset:0;stroke-opacity:1;marker:none;marker-start:none;marker-mid:none;marker-end:none;paint-order:normal;enable-background:new"
         id="circle1432-8"
         cx="12"
         cy="232"
         r="24" /></clipPath><clipPath
       clipPathUnits="userSpaceOnUse"
       id="clipPath2024"><rect
         style="opacity:1;vector-effect:none;fill:#63452c;fill-opacity:1;stroke:none;stroke-width:4;stroke-linecap:round;stroke-linejoin:round;stroke-miterlimit:4;stroke-dasharray:none;stroke-dashoffset:0;stroke-opacity:1"
         id="rect2026"
         width="74"
         height="98"
         x="6"
         y="196" /></clipPath><linearGradient
       id="linearGradient914"
       inkscape:collect="always"><stop
         id="stop910"
         offset="0"
         style="stop-color:#f6f5f4;stop-opacity:0.43700787" /><stop
         id="stop912"
         offset="1"
         style="stop-color:#deddda;stop-opacity:0;" /></linearGradient><radialGradient
       gradientTransform="matrix(2.6086955,0,0,1.8410361,-102.95652,-748.94671)"
       gradientUnits="userSpaceOnUse"
       r="46"
       fy="296"
       fx="64.000008"
       cy="296"
       cx="64.000008"
       id="radialGradient916"
       xlink:href="#linearGradient914"
       inkscape:collect="always" /><clipPath
       clipPathUnits="userSpaceOnUse"
       id="clipPath11543"><rect
         style="fill:#f0c04e;fill-opacity:1;stroke:none;stroke-width:0.529037"
         id="rect11545"
         width="541.86664"
         height="541.86664"
         x="1.4746095e-06"
         y="6.4330168e-05"
         rx="79.375"
         ry="79.375" /></clipPath><style
       id="style374">.cls-1{fill:url(#linear-gradient);}.cls-2{opacity:0.35;fill:url(#radial-gradient);}.cls-2,.cls-4{isolation:isolate;}.cls-3{fill:url(#linear-gradient-2);}.cls-4{opacity:0.41;fill:url(#radial-gradient-2);}.cls-5{fill:url(#radial-gradient-3);}.cls-6{fill:url(#radial-gradient-4);}</style><linearGradient
       id="linear-gradient"
       x1="63.33"
       y1="84.03"
       x2="241.67"
       y2="84.03"
       gradientTransform="matrix(1,0,0,-1,0,266)"
       gradientUnits="userSpaceOnUse"><stop
         offset="0"
         stop-color="#0c59a4"
         id="stop376" /><stop
         offset="1"
         stop-color="#114a8b"
         id="stop378" /></linearGradient><radialGradient
       id="radial-gradient"
       cx="161.83"
       cy="68.91"
       r="95.38"
       gradientTransform="matrix(1,0,0,-0.95,0,248.84)"
       gradientUnits="userSpaceOnUse"><stop
         offset="0.72"
         stop-opacity="0"
         id="stop381" /><stop
         offset="0.95"
         stop-opacity="0.53"
         id="stop383" /><stop
         offset="1"
         id="stop385" /></radialGradient><linearGradient
       id="linear-gradient-2"
       x1="157.35"
       y1="161.39"
       x2="45.96"
       y2="40.06"
       gradientTransform="matrix(1,0,0,-1,0,266)"
       gradientUnits="userSpaceOnUse"><stop
         offset="0"
         stop-color="#1b9de2"
         id="stop388" /><stop
         offset="0.16"
         stop-color="#1595df"
         id="stop390" /><stop
         offset="0.67"
         stop-color="#0680d7"
         id="stop392" /><stop
         offset="1"
         stop-color="#0078d4"
         id="stop394" /></linearGradient><radialGradient
       id="radial-gradient-2"
       cx="-340.29"
       cy="62.99"
       r="143.24"
       gradientTransform="matrix(0.15,-0.99,-0.8,-0.12,176.64,-125.4)"
       gradientUnits="userSpaceOnUse"><stop
         offset="0.76"
         stop-opacity="0"
         id="stop397" /><stop
         offset="0.95"
         stop-opacity="0.5"
         id="stop399" /><stop
         offset="1"
         id="stop401" /></radialGradient><radialGradient
       id="radial-gradient-3"
       cx="113.37"
       cy="570.21"
       r="202.43"
       gradientTransform="matrix(-0.04,1,2.13,0.08,-1179.54,-106.69)"
       gradientUnits="userSpaceOnUse"><stop
         offset="0"
         stop-color="#35c1f1"
         id="stop404" /><stop
         offset="0.11"
         stop-color="#34c1ed"
         id="stop406" /><stop
         offset="0.23"
         stop-color="#2fc2df"
         id="stop408" /><stop
         offset="0.31"
         stop-color="#2bc3d2"
         id="stop410" /><stop
         offset="0.67"
         stop-color="#36c752"
         id="stop412" /></radialGradient><radialGradient
       id="radial-gradient-4"
       cx="376.52"
       cy="567.97"
       r="97.34"
       gradientTransform="matrix(0.28,0.96,0.78,-0.23,-303.76,-148.5)"
       gradientUnits="userSpaceOnUse"><stop
         offset="0"
         stop-color="#66eb6e"
         id="stop415" /><stop
         offset="1"
         stop-color="#66eb6e"
         stop-opacity="0"
         id="stop417" /></radialGradient><clipPath
       clipPathUnits="userSpaceOnUse"
       id="clipPath1260"><rect
         style="fill:#bbdefb;fill-opacity:1;stroke:none;stroke-width:0.529037"
         id="rect1262"
         width="541.86664"
         height="541.86664"
         x="2.9492187e-06"
         y="3.9968629e-05"
         rx="79.375"
         ry="79.375" /></clipPath><clipPath
       clipPathUnits="userSpaceOnUse"
       id="clipPath16285"><rect
         style="fill:#bbdefb;fill-opacity:1;stroke:none;stroke-width:0.529037"
         id="rect16287"
         width="541.86664"
         height="541.86664"
         x="0"
         y="6.4807005e-05"
         rx="79.375"
         ry="79.375" /></clipPath><clipPath
       clipPathUnits="userSpaceOnUse"
       id="clipPath990"><rect
         style="fill:#bbdefb;fill-opacity:1;stroke:none;stroke-width:0.529037"
         id="rect992"
         width="487.67996"
         height="487.67996"
         x="27.093349"
         y="27.093338"
         rx="71.4375"
         ry="71.4375" /></clipPath><linearGradient
       id="linearGradient4292"><stop
         id="stop4294"
         offset="0"
         style="stop-color:#411f5d;stop-opacity:1" /><stop
         id="stop4296"
         offset="1"
         style="stop-color:#5b2a85;stop-opacity:1" /></linearGradient><linearGradient
       id="linearGradient4284"><stop
         offset="0"
         style="stop-color:#8381c5;stop-opacity:1"
         id="stop4286" /><stop
         id="stop4290"
         style="stop-color:#7e55b3;stop-opacity:0.99607843"
         offset="0.56639391" /><stop
         offset="1"
         style="stop-color:#a52ecb;stop-opacity:0.99215686"
         id="stop4288" /></linearGradient><linearGradient
       id="linearGradient4898"><stop
         id="stop4278"
         style="stop-color:#bab8db;stop-opacity:1"
         offset="0" /><stop
         id="stop4280"
         style="stop-color:#5955a9;stop-opacity:0.99159664"
         offset="1" /></linearGradient><linearGradient
       id="linearGradient3294"><stop
         offset="0"
         style="stop-color:#6376e6;stop-opacity:1"
         id="stop3296" /><stop
         offset="0.50094414"
         style="stop-color:#222989;stop-opacity:1"
         id="stop3302" /><stop
         offset="1"
         style="stop-color:#00003d;stop-opacity:1"
         id="stop3298" /></linearGradient><linearGradient
       id="linearGradient3284"><stop
         offset="0"
         style="stop-color:#000000;stop-opacity:1"
         id="stop3286" /><stop
         offset="0.84845906"
         style="stop-color:#000000;stop-opacity:0.49803922"
         id="stop3292" /><stop
         offset="1"
         style="stop-color:#000000;stop-opacity:0"
         id="stop3288" /></linearGradient><linearGradient
       id="linearGradient3274"><stop
         offset="0"
         style="stop-color:#000000;stop-opacity:1"
         id="stop3276" /><stop
         offset="1"
         style="stop-color:#000000;stop-opacity:0"
         id="stop3278" /></linearGradient><linearGradient
       id="linearGradient3242"><stop
         offset="0"
         style="stop-color:#282828;stop-opacity:1"
         id="stop3244" /><stop
         offset="0.39253417"
         style="stop-color:#808080;stop-opacity:1"
         id="stop3252" /><stop
         offset="1"
         style="stop-color:#d9d9d9;stop-opacity:1"
         id="stop3246" /></linearGradient><linearGradient
       id="linearGradient3202"><stop
         offset="0"
         style="stop-color:#2b2b2b;stop-opacity:1"
         id="stop3204" /><stop
         offset="0.5"
         style="stop-color:#828383;stop-opacity:1"
         id="stop3250" /><stop
         offset="1"
         style="stop-color:#dadbdb;stop-opacity:1"
         id="stop3206" /></linearGradient><linearGradient
       id="linearGradient4966"><stop
         offset="0"
         style="stop-color:#b6b3d8;stop-opacity:1"
         id="stop4968" /><stop
         offset="1"
         style="stop-color:#b6b3d8;stop-opacity:0"
         id="stop4970" /></linearGradient><linearGradient
       id="linearGradient4876"><stop
         offset="0"
         style="stop-color:#d3d2e8;stop-opacity:1"
         id="stop4878" /><stop
         offset="1"
         style="stop-color:#5955a9;stop-opacity:0.99159664"
         id="stop4880" /></linearGradient><radialGradient
       gradientTransform="matrix(0.6817439,0,0,0.5905355,-3.8523706,-28.935273)"
       gradientUnits="userSpaceOnUse"
       xlink:href="#linearGradient4898"
       id="radialGradient4892"
       fy="-108.96888"
       fx="20.951529"
       r="266.76535"
       cy="-108.96888"
       cx="20.951529" /><radialGradient
       gradientTransform="matrix(1,0,0,0.1854103,0,383.88493)"
       gradientUnits="userSpaceOnUse"
       xlink:href="#linearGradient3274"
       id="radialGradient4944"
       fy="471.26172"
       fx="233.8876"
       r="170.49393"
       cy="471.26172"
       cx="233.8876" /><radialGradient
       gradientTransform="matrix(1,0,0,0.9121621,0,32.654948)"
       gradientUnits="userSpaceOnUse"
       xlink:href="#linearGradient4966"
       id="radialGradient4972"
       fy="371.76376"
       fx="299.70135"
       r="76.696358"
       cy="371.76376"
       cx="299.70135" /><radialGradient
       gradientTransform="matrix(0.414705,0.3300575,-0.5059004,0.6356454,346.95314,49.479585)"
       gradientUnits="userSpaceOnUse"
       xlink:href="#linearGradient3202"
       id="radialGradient3210"
       fy="390.45248"
       fx="289.44067"
       r="17.67668"
       cy="390.45248"
       cx="289.44067" /><radialGradient
       gradientTransform="matrix(0.414705,0.3300575,-0.5059004,0.6356454,448.41009,-65.398074)"
       gradientUnits="userSpaceOnUse"
       xlink:href="#linearGradient3202"
       id="radialGradient3238"
       fy="382.14804"
       fx="283.50717"
       r="17.67668"
       cy="382.14804"
       cx="283.50717" /><radialGradient
       gradientTransform="matrix(-6.5565014e-2,-5.9721765e-2,1.6871024,-1.8521705,171.90774,540.51473)"
       gradientUnits="userSpaceOnUse"
       xlink:href="#linearGradient3242"
       id="radialGradient3248"
       fy="181.18982"
       fx="418.45551"
       r="63.068935"
       cy="181.18982"
       cx="418.45551" /><radialGradient
       gradientTransform="matrix(0.4055116,-3.3440123e-2,0.1034174,4.3988695,177.23251,-1191.6649)"
       gradientUnits="userSpaceOnUse"
       xlink:href="#linearGradient3274"
       id="radialGradient3268"
       fy="357.33591"
       fx="354.51709"
       r="33.712105"
       cy="357.33591"
       cx="354.51709" /><radialGradient
       gradientTransform="matrix(-0.1339874,-0.1146812,0.3079048,-0.3597394,444.23592,395.03849)"
       gradientUnits="userSpaceOnUse"
       xlink:href="#linearGradient3274"
       id="radialGradient3280"
       fy="223.55537"
       fx="510.58469"
       r="132.28336"
       cy="223.55537"
       cx="510.58469" /><radialGradient
       gradientTransform="matrix(-1.2497569,1.3798305,-9.6289463e-2,-7.2974479e-2,674.3826,-70.590682)"
       gradientUnits="userSpaceOnUse"
       xlink:href="#linearGradient3284"
       id="radialGradient3290"
       fy="-158.17821"
       fx="284.4671"
       r="110.2972"
       cy="-158.17821"
       cx="284.4671" /><radialGradient
       gradientTransform="matrix(-0.1008165,-8.0872321e-2,1.0745309,-1.3395252,13.843287,784.79288)"
       gradientUnits="userSpaceOnUse"
       xlink:href="#linearGradient3294"
       id="radialGradient3300"
       fy="356.62274"
       fx="425.51019"
       r="143.34167"
       cy="356.62274"
       cx="425.51019" /><filter
       height="1.1062305"
       y="-0.053115233"
       width="1.1073157"
       x="-0.053657864"
       id="filter4350"
       style="color-interpolation-filters:sRGB"><feGaussianBlur
         id="feGaussianBlur4352"
         stdDeviation="8.7848425" /></filter><linearGradient
       y2="300.73987"
       x2="236.61363"
       y1="-161.8512"
       x1="-122.20192"
       spreadMethod="pad"
       gradientTransform="matrix(0.17595114,0,0,0.16675393,-57.890895,62.668437)"
       gradientUnits="userSpaceOnUse"
       id="linearGradient4245"
       xlink:href="#linearGradient4284" /><linearGradient
       y2="66.018341"
       x2="173.94518"
       y1="396.6066"
       x1="447.80933"
       gradientTransform="matrix(0.19870189,0,0,0.19870189,-106.81348,12.782767)"
       gradientUnits="userSpaceOnUse"
       id="linearGradient4247"
       xlink:href="#linearGradient4292" /><linearGradient
       inkscape:collect="always"
       xlink:href="#linearGradient5042"
       id="linearGradient5044"
       x1="9"
       y1="115"
       x2="119"
       y2="115"
       gradientUnits="userSpaceOnUse" /><linearGradient
       inkscape:collect="always"
       xlink:href="#linearGradient4539"
       id="linearGradient4541"
       x1="64"
       y1="83.4767"
       x2="64"
       y2="5"
       gradientUnits="userSpaceOnUse" /><style
       id="style281">.cls-1{fill:url(#radial-gradient);}.cls-2{fill:none;}.cls-3{fill:url(#radial-gradient-2);}.cls-4{fill:url(#radial-gradient-3);}.cls-5{clip-path:url(#clip-path);}.cls-6{fill:url(#radial-gradient-5);}.cls-7{clip-path:url(#clip-path-2);}.cls-8{fill:url(#radial-gradient-6);}.cls-9{fill:url(#radial-gradient-7);}</style><radialGradient
       id="radial-gradient-36"
       cx="512.06144"
       cy="512.12118"
       r="444.12235"
       gradientUnits="userSpaceOnUse"><stop
         offset="0.99"
         stop-opacity="0.5"
         id="stop283" /><stop
         offset="1"
         stop-opacity="0"
         id="stop285" /></radialGradient><radialGradient
       id="radial-gradient-2-7"
       cx="514.5"
       cy="516.5"
       r="496.5"
       gradientUnits="userSpaceOnUse"
       gradientTransform="matrix(0.12068776,0,0,0.12068776,218.61185,-7.256702)"><stop
         offset="0.91341"
         id="stop288" /><stop
         offset="1"
         stop-opacity="0"
         id="stop290" /></radialGradient><radialGradient
       id="radial-gradient-3-5"
       cx="512.05911"
       cy="512.1212"
       r="486.27268"
       gradientUnits="userSpaceOnUse"
       gradientTransform="matrix(0.12068776,0,0,0.12068776,218.61185,-7.256702)"><stop
         offset="0.99"
         stop-color="#fff"
         id="stop293" /><stop
         offset="0.99505"
         stop-color="#fdfdfd"
         id="stop295" /><stop
         offset="0.99687"
         stop-color="#f6f6f6"
         id="stop297" /><stop
         offset="0.99817"
         stop-color="#ebebeb"
         id="stop299" /><stop
         offset="0.99921"
         stop-color="#dadada"
         id="stop301" /><stop
         offset="1"
         stop-color="#c7c7c7"
         id="stop303" /></radialGradient><clipPath
       id="clip-path"
       transform="translate(-18 -20)"><path
         id="SVGID"
         class="cls-1"
         d="M67.93793,512.1212c0,245.28622,198.83963,444.12116,444.12116,444.12116S956.185,757.40742,956.185,512.1212C956.185,266.83966,757.34063,68,512.05909,68S67.93793,266.83966,67.93793,512.1212"
         style="fill:url(#radial-gradient-36)" /></clipPath><radialGradient
       id="radial-gradient-5"
       cx="494.0614"
       cy="492.1212"
       r="444.12237"
       xlink:href="#radial-gradient-36" /><clipPath
       id="clip-path-2"
       transform="translate(-18 -20)"><path
         class="cls-2"
         d="M71.60309,512.1212c0,243.262,197.19869,440.456,440.456,440.456s440.46067-197.194,440.46067-440.456c0-243.25733-197.20334-440.45606-440.46067-440.45606S71.60309,268.86387,71.60309,512.1212"
         id="path309" /></clipPath><radialGradient
       id="radial-gradient-6"
       cx="5.29522"
       cy="1029.31443"
       r="4.65333"
       gradientTransform="matrix(94.65428,0,0,-94.65428,-7.15418,97921.139)"
       gradientUnits="userSpaceOnUse"><stop
         offset="0"
         id="stop312" /><stop
         offset="1"
         stop-color="#322f32"
         id="stop314" /></radialGradient><radialGradient
       id="radial-gradient-7"
       cx="578.89023"
       cy="473.31944"
       r="353.94182"
       gradientTransform="matrix(0.12068776,0,0,0.13240171,2.3864782,-6.5582418)"
       gradientUnits="userSpaceOnUse"><stop
         offset="0"
         stop-color="#c2c0c2"
         id="stop317"
         style="stop-color:#e1dfe1;stop-opacity:1;" /><stop
         offset="1"
         stop-color="#ebebeb"
         id="stop319"
         style="stop-color:#f9f9f9;stop-opacity:1;" /></radialGradient><filter
       style="color-interpolation-filters:sRGB;"
       inkscape:label="Drop Shadow"
       id="filter2901"
       x="-0.058974151"
       y="-0.053756475"
       width="1.1179483"
       height="1.15231"><feFlood
         flood-opacity="0.498039"
         flood-color="rgb(5,5,5)"
         result="flood"
         id="feFlood2891" /><feComposite
         in="flood"
         in2="SourceGraphic"
         operator="in"
         result="composite1"
         id="feComposite2893" /><feGaussianBlur
         in="composite1"
         stdDeviation="2"
         result="blur"
         id="feGaussianBlur2895" /><feOffset
         dx="0"
         dy="4"
         result="offset"
         id="feOffset2897" /><feComposite
         in="SourceGraphic"
         in2="offset"
         operator="over"
         result="composite2"
         id="feComposite2899" /></filter><filter
       inkscape:collect="always"
       style="color-interpolation-filters:sRGB"
       id="filter1"
       x="-0.023961925"
       y="-0.021841808"
       width="1.0479238"
       height="1.0436836"><feGaussianBlur
         inkscape:collect="always"
         stdDeviation="0.68978269"
         id="feGaussianBlur1" /></filter><radialGradient
       inkscape:collect="always"
       xlink:href="#linearGradient1"
       id="radialGradient2"
       cx="64"
       cy="60.186546"
       fx="64"
       fy="60.186546"
       r="52.489449"
       gradientTransform="matrix(1.5294347,0,0,1.5348703,-33.88382,-32.191994)"
       gradientUnits="userSpaceOnUse" /></defs><g
     inkscape:groupmode="layer"
     id="layer2"
     inkscape:label="Layer 1"><rect
       style="display:none;fill:none;stroke-width:0.20135"
       id="rect4772"
       y="12.314822"
       x="-107.39003"
       height="103.09106"
       width="103.09106" /><g
       style="display:none"
       id="g4788"
       transform="matrix(0.20134972,0,0,0.20134972,-107.42446,12.274351)"><g
         style="display:inline"
         id="g4790" /></g><g
       style="display:none"
       id="g4806"
       transform="matrix(0.20134972,0,0,0.20134972,-107.42446,12.274351)"><g
         style="display:inline"
         id="g4808"><path
           style="display:none;fill:#050505"
           id="path4810"
           d="m 349.098,256.651 c -0.265,-0.254 37.637,27.605 39.421,25.012 6.362,-9.252 82.046,-93.137 84.784,-116.236 0.242,-2.003 -0.516,-4.096 -0.516,-4.096 0,0 -1.19,-0.144 -6.325,-4.314 -2.692,-2.192 -5.483,-4.581 -5.483,-4.581 -16.054,0.998 -57.885,41.559 -111.062,103.568" /></g></g><g
       id="g3"><text
         xml:space="preserve"
         style="font-style:normal;font-variant:normal;font-weight:normal;font-stretch:normal;font-size:40px;line-height:1.25;font-family:'DejaVu Math TeX Gyre';-inkscape-font-specification:'DejaVu Math TeX Gyre';fill:#000000;fill-opacity:1;stroke:none"
         x="57.303368"
         y="70.244858"
         id="text3441"><tspan
           sodipodi:role="line"
           id="tspan3439"
           x="57.303368"
           y="70.244858" /></text><text
         xml:space="preserve"
         style="font-size:40px;line-height:1.25;font-family:Caladea;-inkscape-font-specification:Caladea"
         x="43.168587"
         y="70.812454"
         id="text13903"><tspan
           sodipodi:role="line"
           id="tspan13901"
           x="43.168587"
           y="70.812454" /></text><path
         id="circle1035"
         style="fill:url(#linearGradient5044);fill-opacity:1"
         d="M 64,5 A 55,55 0 0 0 9,60 v 8 a 55,55 0 0 0 55,55 55,55 0 0 0 55,-55 V 60 A 55,55 0 0 0 64,5 Z" /><circle
         style="fill:url(#linearGradient4541);fill-opacity:1;stroke-width:1"
         id="path953"
         cx="64"
         cy="60"
         r="55"
         inkscape:export-filename="/home/retro/.icons/skeuowaita/scalable/apps/skeuwaita.png"
         inkscape:export-xdpi="1536"
         inkscape:export-ydpi="1536" /><ellipse
         style="fill:url(#radialGradient2);fill-opacity:1;stroke-width:0.956048"
         id="circle466"
         cx="64"
         cy="60.186546"
         inkscape:export-filename="/home/retro/.icons/skeuowaita/scalable/apps/skeuwaita.png"
         inkscape:export-xdpi="1536"
         inkscape:export-ydpi="1536"
         ry="52.675995"
         rx="52.489449" /><path
         id="path1"
         style="mix-blend-mode:normal;fill:#1a1a1a;stroke-width:0.102444;filter:url(#filter1)"
         class="cls-9"
         d="M 54.351563,21.205613 A 25.036544,25.036544 0 0 0 43.175781,54.344285 c 0.05602,0.116376 0.114013,0.232155 0.171876,0.347656 0.02626,0.05246 0.05342,0.105931 0.08008,0.158203 a 0.47127637,0.47127637 0 0 0 0.04687,0.09375 c 0.03319,0.03676 0.04104,0.03022 0.0918,0.0293 0.264096,-0.0048 0.528898,-0.0037 0.792969,0.002 0.48793,0.01054 0.97457,0.03888 1.460937,0.08398 a 20.44534,20.44534 0 0 1 18.251954,17.042968 20.624865,20.624865 0 0 1 0.06641,6.164063 20.360455,20.360455 0 0 1 -4.728516,10.433594 20.713304,20.713304 0 0 1 -5.09961,4.281249 20.474559,20.474559 0 0 1 -12.718749,2.714844 20.802837,20.802837 0 0 1 -2.376953,-0.414062 c -0.50755,-0.119176 -1.010874,-0.258236 -1.507812,-0.416016 a 24.853148,24.853148 0 0 0 7.023437,1.943356 25.307238,25.307238 0 0 0 6.802734,-0.08203 24.948008,24.948008 0 0 0 11.132812,-4.599606 25.205397,25.205397 0 0 0 6.119141,-6.460938 c 0.0711,-0.108393 0.141515,-0.216687 0.210938,-0.326172 0.02691,-0.04249 0.08591,-0.109219 0.07813,-0.154297 a 0.87020215,0.87020215 0 0 0 -0.107432,-0.199264 c -0.136781,-0.256612 -0.266856,-0.516989 -0.392578,-0.779296 -0.252555,-0.526985 -0.482933,-1.063883 -0.689454,-1.611329 a 20.285751,20.285751 0 0 1 -0.957031,-3.417969 20.578228,20.578228 0 0 1 0.0039,-7.578125 20.271634,20.271634 0 0 1 2.189452,-6.070312 20.394519,20.394519 0 0 1 17.730469,-10.558594 c 0.501076,-0.0035 1.001574,0.01053 1.501954,0.04297 0.482577,0.0321 0.963787,0.08175 1.443359,0.146484 0.47479,0.06493 0.948413,0.145583 1.417969,0.244141 0.459652,0.09703 0.914756,0.210221 1.367187,0.33789 0.443191,0.125725 0.882462,0.266344 1.316407,0.421875 0.439869,0.15794 0.872716,0.329676 1.300781,0.517579 0.43635,0.190554 0.865569,0.396785 1.287107,0.61914 0.421087,0.221468 0.834951,0.458741 1.240233,0.708984 0.380429,0.235364 0.753659,0.481346 1.117188,0.742188 0.374945,0.26903 0.742004,0.550252 1.099616,0.841797 0.369104,0.300238 0.725804,0.615305 1.072254,0.941406 0.36885,0.347189 0.7225,0.707814 1.06446,1.082032 0.34132,0.372028 0.6682,0.75661 0.98047,1.154296 0.34831,0.442385 0.68065,0.89882 0.99023,1.369141 0.31803,0.48315 0.61897,0.980221 0.89649,1.488281 a 20.510654,20.510654 0 0 1 1.03125,2.1875 21.203083,21.203083 0 0 1 0.8164,2.498047 24.969615,24.969615 0 0 0 -5.29297,-12.390625 25.166545,25.166545 0 0 0 -7.685541,-6.40039 24.87918,24.87918 0 0 0 -9.828125,-2.900392 c -0.29142,-0.02331 -0.584837,-0.04151 -0.876953,-0.05469 a 20.411034,20.411034 0 0 1 -28.40039,7.21875 20.770174,20.770174 0 0 1 -4.601563,-3.86914 20.378178,20.378178 0 0 1 -5.111328,-14.458985 c 0.02911,-0.593111 0.07861,-1.184677 0.15625,-1.773437 0.07656,-0.580234 0.178509,-1.157807 0.304687,-1.728516 0.129532,-0.58587 0.285776,-1.165701 0.466797,-1.738281 0.175657,-0.557279 0.374817,-1.106024 0.599609,-1.646484 0.233012,-0.561914 0.493154,-1.110731 0.773438,-1.650391 0.295163,-0.568316 0.621562,-1.121437 0.970703,-1.658204 0.322007,-0.495051 0.66533,-0.97606 1.029297,-1.441405 0.39485,-0.50718 0.815182,-0.996854 1.257813,-1.462891 0.446773,-0.470395 0.91362,-0.91915 1.40039,-1.347657 0.495674,-0.43669 1.015289,-0.845994 1.550781,-1.232422 0.276068,-0.199217 0.55731,-0.390169 0.843751,-0.574218 z" /><path
         id="path339"
         style="fill:url(#radial-gradient-7);stroke-width:0.120688"
         class="cls-9"
         d="M 51.163723 11.464122 A 29.495364 29.495364 0 0 0 37.997619 50.504542 C 38.063619 50.641643 38.131937 50.778042 38.200104 50.914113 C 38.231037 50.975913 38.263043 51.038909 38.294443 51.100491 A 0.55520714 0.55520714 0 0 0 38.349666 51.210937 C 38.388766 51.254247 38.398011 51.246541 38.457811 51.245451 C 38.768941 51.239851 39.080902 51.241052 39.392002 51.247752 C 39.966828 51.260166 40.540135 51.29356 41.113121 51.346694 A 24.086501 24.086501 0 0 1 62.61561 71.424887 A 24.297998 24.297998 0 0 1 62.693843 78.686723 A 23.986499 23.986499 0 0 1 57.123214 90.978461 A 24.402188 24.402188 0 0 1 51.115402 96.022169 A 24.120924 24.120924 0 0 1 36.131539 99.220506 A 24.507666 24.507666 0 0 1 33.331268 98.732702 C 32.733328 98.592302 32.140366 98.428477 31.554926 98.242597 A 29.279307 29.279307 0 0 0 39.829185 100.53205 A 29.814267 29.814267 0 0 0 47.843435 100.43541 A 29.39106 29.39106 0 0 0 60.958917 95.016649 A 29.694289 29.694289 0 0 0 68.167831 87.405067 C 68.251598 87.27737 68.334548 87.149789 68.416335 87.020806 C 68.448035 86.970746 68.517543 86.892136 68.508373 86.83903 A 1.0251786 1.0251786 0 0 0 68.38182 86.604332 C 68.22068 86.30202 68.06744 85.995272 67.919327 85.686249 C 67.621794 85.065413 67.350387 84.432897 67.107087 83.787955 A 23.898491 23.898491 0 0 1 65.979616 79.761272 A 24.243055 24.243055 0 0 1 65.984218 70.83354 A 23.881859 23.881859 0 0 1 68.563596 63.68215 A 24.026629 24.026629 0 0 1 89.451728 51.24315 C 90.042041 51.239084 90.631674 51.255552 91.221168 51.293772 C 91.789688 51.331585 92.356599 51.390078 92.921579 51.466344 C 93.480925 51.542843 94.038897 51.637854 94.592077 51.753964 C 95.13359 51.868279 95.669744 52.001624 96.20275 52.15203 C 96.72487 52.300145 97.242372 52.465808 97.753599 52.649038 C 98.271805 52.835106 98.781739 53.037426 99.286039 53.258793 C 99.8001 53.483284 100.30576 53.726243 100.80237 53.988198 C 101.29845 54.249107 101.78602 54.528637 102.26348 54.823447 C 102.71166 55.100727 103.15136 55.390516 103.57963 55.697813 C 104.02135 56.014755 104.45378 56.34606 104.87508 56.689527 C 105.30992 57.043235 105.73015 57.414414 106.1383 57.798591 C 106.57284 58.207611 106.98947 58.632461 107.39233 59.073324 C 107.79444 59.511608 108.17953 59.964681 108.54741 60.433192 C 108.95775 60.954362 109.34928 61.492085 109.714 62.046166 C 110.08867 62.615362 110.4432 63.200958 110.77014 63.799499 A 24.163447 24.163447 0 0 1 111.98505 66.376577 A 24.979192 24.979192 0 0 1 112.94685 69.319507 A 29.416515 29.416515 0 0 0 106.71124 54.722205 A 29.648517 29.648517 0 0 0 97.656958 47.181953 A 29.309975 29.309975 0 0 0 86.078518 43.765024 C 85.735198 43.737558 85.389526 43.716117 85.045386 43.700597 A 24.046085 24.046085 0 0 1 51.5871 52.204952 A 24.469186 24.469186 0 0 1 46.166034 47.646747 A 24.007378 24.007378 0 0 1 40.144416 30.612726 C 40.178716 29.913986 40.237023 29.217067 40.328493 28.523453 C 40.418693 27.839884 40.538793 27.159449 40.687443 26.487102 C 40.840043 25.796892 41.024113 25.113798 41.237373 24.439246 C 41.444313 23.782719 41.678942 23.136247 41.943768 22.499535 C 42.218278 21.837549 42.524749 21.190992 42.854949 20.555222 C 43.202679 19.885693 43.587207 19.234066 43.998527 18.601705 C 44.377881 18.018489 44.782348 17.451815 45.211134 16.903596 C 45.676304 16.306091 46.171494 15.72921 46.692954 15.180175 C 47.219294 14.626006 47.769283 14.097332 48.342743 13.592511 C 48.926693 13.07805 49.538847 12.595852 50.169707 12.140604 C 50.49494 11.905907 50.826269 11.680948 51.163723 11.464122 z "
         transform="matrix(0.8488298,0,0,0.8488298,10.92227,8.7845369)" /><path
         id="ellipse471"
         style="fill:#1a1a1a;fill-opacity:1;stroke-width:0.956048"
         d="M 64,7.5097656 A 52.489449,52.675995 0 0 0 11.509766,60.1875 a 52.489449,52.675995 0 0 0 0.07226,1 A 52.489449,52.675995 0 0 1 64,9.5097656 52.489449,52.675995 0 0 1 116.45312,60.705078 52.489449,52.675995 0 0 0 116.49023,60.1875 52.489449,52.675995 0 0 0 64,7.5097656 Z" /></g></g></svg>
