<?xml version="1.0" encoding="UTF-8" standalone="no"?>
<!-- Created with Inkscape (http://www.inkscape.org/) -->

<svg
   width="128"
   height="128"
   viewBox="0 0 128 128"
   version="1.1"
   id="svg5"
   inkscape:version="1.4.3 (0d15f75042, 2025-12-25)"
   sodipodi:docname="com.discordapp.Discord.svg"
   inkscape:export-filename="/home/retro/.icons/skeuowaita/scalable/apps/skeuowaita.png"
   inkscape:export-xdpi="1536"
   inkscape:export-ydpi="1536"
   xml:space="preserve"
   xmlns:inkscape="http://www.inkscape.org/namespaces/inkscape"
   xmlns:sodipodi="http://sodipodi.sourceforge.net/DTD/sodipodi-0.dtd"
   xmlns:xlink="http://www.w3.org/1999/xlink"
   xmlns="http://www.w3.org/2000/svg"
   xmlns:svg="http://www.w3.org/2000/svg"><sodipodi:namedview
     id="namedview7"
     pagecolor="#ffffff"
     bordercolor="#666666"
     borderopacity="1"
     inkscape:pageshadow="2"
     inkscape:pageopacity="0.0"
     inkscape:pagecheckerboard="true"
     inkscape:document-units="px"
     showgrid="false"
     inkscape:showpageshadow="false"
     showborder="true"
     inkscape:snap-page="true"
     inkscape:zoom="5.9931375"
     inkscape:cx="45.051527"
     inkscape:cy="37.876654"
     inkscape:window-width="1728"
     inkscape:window-height="1043"
     inkscape:window-x="0"
     inkscape:window-y="0"
     inkscape:window-maximized="1"
     inkscape:current-layer="layer2"
     inkscape:snap-bbox="true"
     inkscape:snap-bbox-midpoints="true"
     inkscape:snap-bbox-edge-midpoints="true"
     inkscape:bbox-nodes="true"
     inkscape:bbox-paths="true"
     inkscape:snap-intersection-paths="true"
     inkscape:object-paths="true"
     inkscape:snap-smooth-nodes="true"
     inkscape:snap-midpoints="true"
     inkscape:deskcolor="#d1d1d1"><inkscape:page
       x="0"
       y="0"
       width="128"
       height="128"
       id="page707"
       margin="0"
       bleed="0" /><inkscape:page
       x="138"
       y="0"
       width="94.666664"
       height="73.333336"
       id="page709" /></sodipodi:namedview><defs
     id="defs2"><linearGradient
       inkscape:collect="always"
       id="linearGradient1039"><stop
         style="stop-color:#c8ccfa;stop-opacity:1;"
         offset="0"
         id="stop1035" /><stop
         style="stop-color:#7680f2;stop-opacity:1;"
         offset="1"
         id="stop1037" /></linearGradient><linearGradient
       inkscape:collect="always"
       id="linearGradient2242"><stop
         style="stop-color:#2a38d1;stop-opacity:1;"
         offset="0"
         id="stop2238" /><stop
         style="stop-color:#2a38d1;stop-opacity:1;"
         offset="0.30103558"
         id="stop2337" /><stop
         style="stop-color:#424ff0;stop-opacity:1;"
         offset="0.50172597"
         id="stop2333" /><stop
         style="stop-color:#2a38d1;stop-opacity:1;"
         offset="0.70103556"
         id="stop2335" /><stop
         style="stop-color:#2a38d1;stop-opacity:1;"
         offset="1"
         id="stop2240" /></linearGradient><linearGradient
       y2="236"
       x2="96"
       y1="236"
       x1="32"
       gradientTransform="translate(604.81684,170.58641)"
       gradientUnits="userSpaceOnUse"
       id="linearGradient1099"
       xlink:href="#linearGradient1036" /><linearGradient
       id="linearGradient1036"><stop
         id="stop1032"
         offset="0"
         style="stop-color:#d5d3cf;stop-opacity:1;" /><stop
         id="stop1034"
         offset="1"
         style="stop-color:#f6f5f4;stop-opacity:1" /></linearGradient><radialGradient
       r="32"
       fy="-76"
       fx="-244"
       cy="-76"
       cx="-244"
       gradientTransform="matrix(0.88333331,0,0,0.88333331,-460.35018,463.11973)"
       gradientUnits="userSpaceOnUse"
       id="radialGradient1103"
       xlink:href="#linearGradient1069" /><linearGradient
       id="linearGradient1069"><stop
         id="stop1065"
         offset="0"
         style="stop-color:#d5d3cf;stop-opacity:1" /><stop
         id="stop1067-1"
         offset="1"
         style="stop-color:#949390;stop-opacity:1" /></linearGradient><linearGradient
       gradientUnits="userSpaceOnUse"
       y2="232"
       x2="64"
       y1="262.5"
       x1="64"
       id="linearGradient1027"
       xlink:href="#linearGradient1025"
       gradientTransform="translate(-470.5864,432.81685)" /><linearGradient
       id="linearGradient1025"><stop
         id="stop1021"
         offset="0"
         style="stop-color:#9a9996;stop-opacity:1" /><stop
         id="stop1023"
         offset="1"
         style="stop-color:#77767b;stop-opacity:1" /></linearGradient><inkscape:path-effect
       effect="spiro"
       id="path-effect35304-9"
       is_visible="true" /><clipPath
       clipPathUnits="userSpaceOnUse"
       id="clipPath1609-7"><path
         sodipodi:nodetypes="cccccc"
         inkscape:connector-curvature="0"
         id="path1611-5"
         d="m 252,116 28,-28 v -8 h -36 v 36 z"
         style="fill:#e74747;stroke:none;stroke-width:0.25px;stroke-linecap:butt;stroke-linejoin:miter;stroke-opacity:1" /></clipPath><radialGradient
       r="32"
       fy="-76"
       fx="-244"
       cy="-76"
       cx="-244"
       gradientTransform="matrix(0.88333331,0,0,0.88333331,-460.35018,463.11973)"
       gradientUnits="userSpaceOnUse"
       id="radialGradient1103-5"
       xlink:href="#linearGradient1069" /><inkscape:path-effect
       effect="spiro"
       id="path-effect35304-9-2"
       is_visible="true" /><clipPath
       clipPathUnits="userSpaceOnUse"
       id="clipPath1609-7-7"><path
         sodipodi:nodetypes="cccccc"
         inkscape:connector-curvature="0"
         id="path1611-5-0"
         d="m 252,116 28,-28 v -8 h -36 v 36 z"
         style="fill:#e74747;stroke:none;stroke-width:0.25px;stroke-linecap:butt;stroke-linejoin:miter;stroke-opacity:1" /></clipPath><clipPath
       clipPathUnits="userSpaceOnUse"
       id="clipPath744"><rect
         style="fill:#1e88e5;fill-opacity:1;stroke-width:0.264583"
         id="rect746"
         width="541.86664"
         height="541.86664"
         x="0"
         y="1.5987212e-14"
         rx="79.375"
         ry="79.375" /></clipPath><clipPath
       clipPathUnits="userSpaceOnUse"
       id="clipPath62"><rect
         style="fill:#1e88e5;fill-opacity:1;stroke-width:0.264583"
         id="rect64"
         width="541.86664"
         height="541.86664"
         x="2.2507105e-05"
         y="-0.42205024"
         rx="79.375"
         ry="79.375" /></clipPath><radialGradient
       r="32"
       fy="-76"
       fx="-244"
       cy="-76"
       cx="-244"
       gradientTransform="matrix(0.88333331,0,0,0.88333331,-460.35018,463.11973)"
       gradientUnits="userSpaceOnUse"
       id="radialGradient1103-6"
       xlink:href="#linearGradient1069" /><inkscape:path-effect
       effect="spiro"
       id="path-effect35304-9-20"
       is_visible="true" /><clipPath
       clipPathUnits="userSpaceOnUse"
       id="clipPath1609-7-2"><path
         sodipodi:nodetypes="cccccc"
         inkscape:connector-curvature="0"
         id="path1611-5-3"
         d="m 252,116 28,-28 v -8 h -36 v 36 z"
         style="fill:#e74747;stroke:none;stroke-width:0.25px;stroke-linecap:butt;stroke-linejoin:miter;stroke-opacity:1" /></clipPath><clipPath
       clipPathUnits="userSpaceOnUse"
       id="clipPath961"><rect
         style="fill:#00c853;stroke:none;stroke-width:0.529037"
         id="rect963"
         width="541.86664"
         height="541.86664"
         x="1.4210855e-14"
         y="2.717972e-05"
         rx="79.375"
         ry="79.375" /></clipPath><radialGradient
       r="32"
       fy="-76"
       fx="-244"
       cy="-76"
       cx="-244"
       gradientTransform="matrix(0.88333331,0,0,0.88333331,-460.35018,463.11973)"
       gradientUnits="userSpaceOnUse"
       id="radialGradient1103-56"
       xlink:href="#linearGradient1069" /><inkscape:path-effect
       effect="spiro"
       id="path-effect35304-9-7"
       is_visible="true" /><clipPath
       clipPathUnits="userSpaceOnUse"
       id="clipPath1440"><circle
         style="display:inline;opacity:1;vector-effect:none;fill:none;fill-opacity:1;stroke:#000000;stroke-width:2;stroke-linecap:butt;stroke-linejoin:miter;stroke-miterlimit:4;stroke-dasharray:none;stroke-dashoffset:0;stroke-opacity:1;marker:none;marker-start:none;marker-mid:none;marker-end:none;paint-order:normal;enable-background:new"
         id="circle1442"
         cx="-134.35028"
         cy="193.74727"
         r="24"
         transform="rotate(-45)" /></clipPath><clipPath
       clipPathUnits="userSpaceOnUse"
       id="clipPath1430"><circle
         style="display:inline;opacity:1;vector-effect:none;fill:none;fill-opacity:1;stroke:#000000;stroke-width:2;stroke-linecap:butt;stroke-linejoin:miter;stroke-miterlimit:4;stroke-dasharray:none;stroke-dashoffset:0;stroke-opacity:1;marker:none;marker-start:none;marker-mid:none;marker-end:none;paint-order:normal;enable-background:new"
         id="circle1432"
         cx="12"
         cy="232"
         r="24" /></clipPath><clipPath
       clipPathUnits="userSpaceOnUse"
       id="clipPath1440-9"><circle
         style="display:inline;opacity:1;vector-effect:none;fill:none;fill-opacity:1;stroke:#000000;stroke-width:2;stroke-linecap:butt;stroke-linejoin:miter;stroke-miterlimit:4;stroke-dasharray:none;stroke-dashoffset:0;stroke-opacity:1;marker:none;marker-start:none;marker-mid:none;marker-end:none;paint-order:normal;enable-background:new"
         id="circle1442-5"
         cx="-134.35028"
         cy="193.74727"
         r="24"
         transform="rotate(-45)" /></clipPath><clipPath
       clipPathUnits="userSpaceOnUse"
       id="clipPath1430-1"><circle
         style="display:inline;opacity:1;vector-effect:none;fill:none;fill-opacity:1;stroke:#000000;stroke-width:2;stroke-linecap:butt;stroke-linejoin:miter;stroke-miterlimit:4;stroke-dasharray:none;stroke-dashoffset:0;stroke-opacity:1;marker:none;marker-start:none;marker-mid:none;marker-end:none;paint-order:normal;enable-background:new"
         id="circle1432-8"
         cx="12"
         cy="232"
         r="24" /></clipPath><clipPath
       clipPathUnits="userSpaceOnUse"
       id="clipPath2024"><rect
         style="opacity:1;vector-effect:none;fill:#63452c;fill-opacity:1;stroke:none;stroke-width:4;stroke-linecap:round;stroke-linejoin:round;stroke-miterlimit:4;stroke-dasharray:none;stroke-dashoffset:0;stroke-opacity:1"
         id="rect2026"
         width="74"
         height="98"
         x="6"
         y="196" /></clipPath><linearGradient
       id="linearGradient914"
       inkscape:collect="always"><stop
         id="stop910"
         offset="0"
         style="stop-color:#f6f5f4;stop-opacity:0.43700787" /><stop
         id="stop912"
         offset="1"
         style="stop-color:#deddda;stop-opacity:0;" /></linearGradient><radialGradient
       gradientTransform="matrix(2.6086955,0,0,1.8410361,-102.95652,-748.94671)"
       gradientUnits="userSpaceOnUse"
       r="46"
       fy="296"
       fx="64.000008"
       cy="296"
       cx="64.000008"
       id="radialGradient916"
       xlink:href="#linearGradient914"
       inkscape:collect="always" /><clipPath
       clipPathUnits="userSpaceOnUse"
       id="clipPath11543"><rect
         style="fill:#f0c04e;fill-opacity:1;stroke:none;stroke-width:0.529037"
         id="rect11545"
         width="541.86664"
         height="541.86664"
         x="1.4746095e-06"
         y="6.4330168e-05"
         rx="79.375"
         ry="79.375" /></clipPath><style
       id="style374">.cls-1{fill:url(#linear-gradient);}.cls-2{opacity:0.35;fill:url(#radial-gradient);}.cls-2,.cls-4{isolation:isolate;}.cls-3{fill:url(#linear-gradient-2);}.cls-4{opacity:0.41;fill:url(#radial-gradient-2);}.cls-5{fill:url(#radial-gradient-3);}.cls-6{fill:url(#radial-gradient-4);}</style><linearGradient
       id="linear-gradient"
       x1="63.33"
       y1="84.03"
       x2="241.67"
       y2="84.03"
       gradientTransform="matrix(1,0,0,-1,0,266)"
       gradientUnits="userSpaceOnUse"><stop
         offset="0"
         stop-color="#0c59a4"
         id="stop376" /><stop
         offset="1"
         stop-color="#114a8b"
         id="stop378" /></linearGradient><radialGradient
       id="radial-gradient"
       cx="161.83"
       cy="68.91"
       r="95.38"
       gradientTransform="matrix(1,0,0,-0.95,0,248.84)"
       gradientUnits="userSpaceOnUse"><stop
         offset="0.72"
         stop-opacity="0"
         id="stop381" /><stop
         offset="0.95"
         stop-opacity="0.53"
         id="stop383" /><stop
         offset="1"
         id="stop385" /></radialGradient><linearGradient
       id="linear-gradient-2"
       x1="157.35"
       y1="161.39"
       x2="45.96"
       y2="40.06"
       gradientTransform="matrix(1,0,0,-1,0,266)"
       gradientUnits="userSpaceOnUse"><stop
         offset="0"
         stop-color="#1b9de2"
         id="stop388" /><stop
         offset="0.16"
         stop-color="#1595df"
         id="stop390" /><stop
         offset="0.67"
         stop-color="#0680d7"
         id="stop392" /><stop
         offset="1"
         stop-color="#0078d4"
         id="stop394" /></linearGradient><radialGradient
       id="radial-gradient-2"
       cx="-340.29"
       cy="62.99"
       r="143.24"
       gradientTransform="matrix(0.15,-0.99,-0.8,-0.12,176.64,-125.4)"
       gradientUnits="userSpaceOnUse"><stop
         offset="0.76"
         stop-opacity="0"
         id="stop397" /><stop
         offset="0.95"
         stop-opacity="0.5"
         id="stop399" /><stop
         offset="1"
         id="stop401" /></radialGradient><radialGradient
       id="radial-gradient-3"
       cx="113.37"
       cy="570.21"
       r="202.43"
       gradientTransform="matrix(-0.04,1,2.13,0.08,-1179.54,-106.69)"
       gradientUnits="userSpaceOnUse"><stop
         offset="0"
         stop-color="#35c1f1"
         id="stop404" /><stop
         offset="0.11"
         stop-color="#34c1ed"
         id="stop406" /><stop
         offset="0.23"
         stop-color="#2fc2df"
         id="stop408" /><stop
         offset="0.31"
         stop-color="#2bc3d2"
         id="stop410" /><stop
         offset="0.67"
         stop-color="#36c752"
         id="stop412" /></radialGradient><radialGradient
       id="radial-gradient-4"
       cx="376.52"
       cy="567.97"
       r="97.34"
       gradientTransform="matrix(0.28,0.96,0.78,-0.23,-303.76,-148.5)"
       gradientUnits="userSpaceOnUse"><stop
         offset="0"
         stop-color="#66eb6e"
         id="stop415" /><stop
         offset="1"
         stop-color="#66eb6e"
         stop-opacity="0"
         id="stop417" /></radialGradient><clipPath
       clipPathUnits="userSpaceOnUse"
       id="clipPath1260"><rect
         style="fill:#bbdefb;fill-opacity:1;stroke:none;stroke-width:0.529037"
         id="rect1262"
         width="541.86664"
         height="541.86664"
         x="2.9492187e-06"
         y="3.9968629e-05"
         rx="79.375"
         ry="79.375" /></clipPath><clipPath
       clipPathUnits="userSpaceOnUse"
       id="clipPath16285"><rect
         style="fill:#bbdefb;fill-opacity:1;stroke:none;stroke-width:0.529037"
         id="rect16287"
         width="541.86664"
         height="541.86664"
         x="0"
         y="6.4807005e-05"
         rx="79.375"
         ry="79.375" /></clipPath><clipPath
       clipPathUnits="userSpaceOnUse"
       id="clipPath990"><rect
         style="fill:#bbdefb;fill-opacity:1;stroke:none;stroke-width:0.529037"
         id="rect992"
         width="487.67996"
         height="487.67996"
         x="27.093349"
         y="27.093338"
         rx="71.4375"
         ry="71.4375" /></clipPath><clipPath
       clipPathUnits="userSpaceOnUse"
       id="clipPath699"><path
         d="M 0,0 H 71 V 55 H 0 Z"
         id="path697" /></clipPath><clipPath
       clipPathUnits="userSpaceOnUse"
       id="clipPath1889"><path
         d="m -47.3174,-17.6746 h 71 v 55.000001 h -71 z"
         id="path1891"
         style="stroke-width:0.999999" /></clipPath><clipPath
       clipPathUnits="userSpaceOnUse"
       id="clipPath1977"><path
         d="m -47.3174,-17.6746 h 71 v 55.000001 h -71 z"
         id="path1979"
         style="stroke-width:0.999999" /></clipPath><clipPath
       clipPathUnits="userSpaceOnUse"
       id="clipPath2017"><path
         d="m -47.3174,-17.6746 h 71 v 55.000001 h -71 z"
         id="path2019"
         style="stroke-width:0.999999" /></clipPath><linearGradient
       inkscape:collect="always"
       xlink:href="#linearGradient2242"
       id="linearGradient2244"
       x1="9"
       y1="123"
       x2="119"
       y2="123"
       gradientUnits="userSpaceOnUse" /><linearGradient
       inkscape:collect="always"
       xlink:href="#linearGradient1039"
       id="linearGradient1041"
       x1="64"
       y1="5"
       x2="64"
       y2="115"
       gradientUnits="userSpaceOnUse" /><filter
       style="color-interpolation-filters:sRGB;"
       inkscape:label="Drop Shadow"
       id="filter32"
       x="-0.084507101"
       y="-0.19232116"
       width="1.1690142"
       height="1.3031903"><feFlood
         result="flood"
         in="SourceGraphic"
         flood-opacity="0.29971965699208442"
         flood-color="rgb(16,22,102)"
         id="feFlood31" /><feGaussianBlur
         result="blur"
         in="SourceGraphic"
         stdDeviation="2.500000"
         id="feGaussianBlur31" /><feOffset
         result="offset"
         in="blur"
         dx="0.000000"
         dy="-4.4080105633802873"
         id="feOffset31" /><feComposite
         result="comp1"
         operator="in"
         in="flood"
         in2="offset"
         id="feComposite31" /><feComposite
         result="comp2"
         operator="over"
         in="SourceGraphic"
         in2="comp1"
         id="feComposite32" /></filter></defs><g
     inkscape:groupmode="layer"
     id="layer2"
     inkscape:label="Layer 1"><path
       id="circle1035"
       style="fill:url(#linearGradient2244);fill-opacity:1"
       d="M 64 5 A 55 55 0 0 0 9 60 L 9 68 A 55 55 0 0 0 64 123 A 55 55 0 0 0 119 68 L 119 60 A 55 55 0 0 0 64 5 z " /><circle
       style="fill:url(#linearGradient1041);fill-opacity:1;stroke-width:1"
       id="path953"
       cx="64"
       cy="60"
       r="55"
       inkscape:export-filename="/home/retro/.icons/skeuowaita/scalable/apps/skeuwaita.png"
       inkscape:export-xdpi="1536"
       inkscape:export-ydpi="1536" /><text
       xml:space="preserve"
       style="font-style:normal;font-variant:normal;font-weight:normal;font-stretch:normal;font-size:40px;line-height:1.25;font-family:'DejaVu Math TeX Gyre';-inkscape-font-specification:'DejaVu Math TeX Gyre';fill:#000000;fill-opacity:1;stroke:none"
       x="57.303368"
       y="70.244858"
       id="text3441"><tspan
         sodipodi:role="line"
         id="tspan3439"
         x="57.303368"
         y="70.244858" /></text><text
       xml:space="preserve"
       style="font-size:40px;line-height:1.25;font-family:Caladea;-inkscape-font-specification:Caladea"
       x="43.168587"
       y="70.812454"
       id="text13903"><tspan
         sodipodi:role="line"
         id="tspan13901"
         x="43.168587"
         y="70.812454" /></text><circle
       style="fill:#5865f2;fill-opacity:1;stroke-width:0.956603"
       id="circle417"
       cx="64"
       cy="60"
       r="52.613155"
       inkscape:export-filename="/home/retro/.icons/skeuowaita/scalable/apps/skeuwaita.png"
       inkscape:export-xdpi="1536"
       inkscape:export-ydpi="1536" /></g><g
     id="g693"
     transform="matrix(1.0633017,0,0,-1.0633017,26.252805,91.109543)"
     style="fill:#e0e3ff;fill-opacity:1;filter:url(#filter32)"><g
       id="g695"
       clip-path="url(#clipPath699)"
       style="fill:#e0e3ff;fill-opacity:1"><g
         id="g701"
         transform="translate(47.3174,17.6746)"
         style="fill:#e0e3ff;fill-opacity:1"><path
           d="m 0,0 c -3.498,0 -6.38,3.212 -6.38,7.156 0,3.945 2.826,7.156 6.38,7.156 3.583,0 6.437,-3.24 6.381,-7.156 C 6.381,3.212 3.583,0 0,0 m -23.591,0 c -3.499,0 -6.381,3.212 -6.381,7.156 0,3.945 2.826,7.156 6.381,7.156 3.582,0 6.436,-3.24 6.38,-7.156 0,-3.944 -2.827,-7.156 -6.38,-7.156 m 36.378,32.428 c -4.525,2.076 -9.378,3.606 -14.452,4.482 -0.092,0.017 -0.185,-0.025 -0.232,-0.11 -0.624,-1.11 -1.315,-2.558 -1.799,-3.696 -5.457,0.817 -10.887,0.817 -16.232,0 -0.485,1.163 -1.201,2.586 -1.828,3.696 -0.047,0.082 -0.14,0.124 -0.232,0.11 -5.071,-0.873 -9.924,-2.403 -14.452,-4.482 -0.039,-0.017 -0.073,-0.046 -0.095,-0.082 -9.204,-13.752 -11.726,-27.165 -10.489,-40.412 0.005,-0.065 0.042,-0.126 0.092,-0.166 6.073,-4.46 11.956,-7.167 17.729,-8.962 0.093,-0.029 0.191,0.006 0.249,0.082 1.366,1.865 2.583,3.831 3.627,5.899 0.062,0.121 0.003,0.265 -0.123,0.313 -1.931,0.732 -3.77,1.626 -5.538,2.639 -0.14,0.082 -0.151,0.282 -0.023,0.378 0.373,0.279 0.745,0.57 1.1,0.862 0.065,0.054 0.154,0.065 0.23,0.032 11.619,-5.306 24.199,-5.306 35.682,0 0.075,0.036 0.165,0.024 0.231,-0.029 0.356,-0.293 0.729,-0.586 1.104,-0.865 0.128,-0.096 0.12,-0.296 -0.021,-0.378 -1.768,-1.033 -3.606,-1.907 -5.541,-2.636 -0.126,-0.048 -0.181,-0.195 -0.12,-0.316 1.067,-2.065 2.284,-4.031 3.624,-5.896 0.057,-0.079 0.158,-0.114 0.249,-0.085 5.802,1.795 11.685,4.502 17.757,8.962 0.054,0.04 0.087,0.098 0.093,0.164 1.48,15.314 -2.48,28.618 -10.497,40.411 -0.021,0.039 -0.054,0.068 -0.093,0.085"
           style="fill:#e0e3ff;fill-opacity:1;fill-rule:nonzero;stroke:none"
           id="path1899" /></g></g></g><path
     id="path17"
     style="fill:#ffffff;fill-opacity:1;fill-rule:nonzero;stroke:none;stroke-width:1.0633"
     d="m 53.22266,33.066406 c -0.0122,3.3e-5 -0.0249,0.002 -0.0371,0.0039 -5.392,0.928264 -10.55256,2.55502 -15.36719,4.765626 -0.0415,0.01808 -0.0781,0.04766 -0.10156,0.08594 -8.49914,12.698836 -11.63941,25.126627 -11.45703,37.402344 0.17425,-11.625409 3.41915,-23.392684 11.45703,-35.402344 0.0235,-0.03828 0.0601,-0.06786 0.10156,-0.08594 4.81463,-2.210606 9.97519,-3.837362 15.36719,-4.765626 0.0122,-0.0019 0.0249,-0.0039 0.0371,-0.0039 0.0851,-2.32e-4 0.16528,0.0448 0.20898,0.121094 0.66669,1.180265 1.42961,2.693067 1.94531,3.929688 5.68335,-0.868719 11.45538,-0.868719 17.25782,0 0.51463,-1.210039 1.25056,-2.749423 1.91406,-3.929688 0.05,-0.09039 0.14829,-0.135267 0.24609,-0.117188 5.3952,0.931455 10.55575,2.558212 15.36719,4.765626 0.0415,0.01808 0.0773,0.04837 0.0996,0.08984 7.16215,10.535524 11.27918,22.205776 11.47851,35.324219 0.2088,-13.936091 -3.95441,-26.256276 -11.47851,-37.324219 -0.0223,-0.04147 -0.0581,-0.07176 -0.0996,-0.08984 -4.81144,-2.207414 -9.97199,-3.834171 -15.36719,-4.765626 -0.0978,-0.01808 -0.19612,0.0268 -0.24609,0.117188 -0.6635,1.180265 -1.39943,2.719648 -1.91406,3.929688 -5.80244,-0.868719 -11.57447,-0.868719 -17.25782,0 -0.5157,-1.236621 -1.27862,-2.749423 -1.94531,-3.929688 -0.0437,-0.07629 -0.12384,-0.121326 -0.20898,-0.121094 z m 4.99218,32.585938 c -0.41205,3.749602 -3.24487,6.664062 -6.73437,6.664062 -3.42128,0 -6.2876,-2.887636 -6.72656,-6.613281 -0.0384,0.328813 -0.0586,0.663404 -0.0586,1.003906 0,4.193662 3.06467,7.609375 6.78516,7.609375 3.77791,0 6.78517,-3.415713 6.78515,-7.609375 0.005,-0.357306 -0.0118,-0.709684 -0.0508,-1.054687 z m 25.08399,0.002 c -0.40868,3.748542 -3.21415,6.662109 -6.73242,6.662109 -3.42031,0 -6.28746,-2.887637 -6.72657,-6.613281 -0.0384,0.328812 -0.0586,0.663405 -0.0586,1.003906 0,4.193662 3.06573,7.609375 6.78516,7.609375 3.80981,0 6.7832,-3.415713 6.7832,-7.609375 0.005,-0.356547 -0.012,-0.708434 -0.0508,-1.052734 z m -38.5,16.101562 c -0.0132,0.0071 -0.0252,0.01547 -0.0371,0.02539 -0.37747,0.31048 -0.77331,0.619356 -1.16992,0.916016 -0.13609,0.10207 -0.12544,0.315143 0.0234,0.402343 1.68899,0.96773 3.43854,1.834053 5.26563,2.564453 0.25969,-0.470056 0.51142,-0.945462 0.75391,-1.425781 0.0659,-0.12866 0.003,-0.280993 -0.13086,-0.332031 -1.62568,-0.616259 -3.19094,-1.340703 -4.70508,-2.150391 z m 38.36523,0.0059 c -1.51597,0.815681 -3.08179,1.52612 -4.71289,2.140625 -0.13398,0.05104 -0.19181,0.207277 -0.12695,0.335937 0.24686,0.477751 0.502,0.950185 0.76367,1.417969 1.82569,-0.723619 3.57062,-1.571995 5.25586,-2.556641 0.14992,-0.08719 0.15758,-0.300273 0.0215,-0.402343 -0.39874,-0.29666 -0.79529,-0.606416 -1.17382,-0.917969 -0.008,-0.0068 -0.0182,-0.01205 -0.0273,-0.01758 z" /><path
     id="path18"
     style="fill:#bcc2ff;fill-opacity:1;fill-rule:nonzero;stroke:none;stroke-width:1.0633"
     d="m 51.48047,55.097656 c -3.78004,0 -6.78516,3.41465 -6.78516,7.609375 0,0.337263 0.0202,0.670266 0.0586,0.996094 0.43477,-3.721909 3.25336,-6.605469 6.72656,-6.605469 3.48192,0 6.31879,2.879177 6.73437,6.554688 0.0341,-0.309908 0.0508,-0.625164 0.0508,-0.945313 0.0596,-4.163889 -2.9764,-7.609375 -6.78515,-7.609375 z m 25.08594,0 c -3.77897,0 -6.78516,3.41465 -6.78516,7.609375 0,0.337264 0.0202,0.670265 0.0586,0.996094 0.43491,-3.72191 3.25435,-6.605469 6.72657,-6.605469 3.48358,0 6.31813,2.880079 6.73242,6.556641 0.0339,-0.310614 0.0508,-0.626359 0.0508,-0.947266 0.0595,-4.163889 -2.97339,-7.609375 -6.7832,-7.609375 z m 25.17382,18.158203 c -0.0279,1.850774 -0.1339,3.730017 -0.31835,5.638672 -0.006,0.07018 -0.0403,0.131298 -0.0977,0.173828 -6.45637,4.742325 -12.71354,7.620671 -18.88281,9.529297 -0.0968,0.03084 -0.20308,-0.0058 -0.26368,-0.08984 -1.11482,-1.551599 -2.14888,-3.16941 -3.08984,-4.851562 -0.21093,0.0836 -0.42363,0.165813 -0.63672,0.246094 -0.13398,0.05104 -0.19181,0.207277 -0.12695,0.335937 1.13454,2.195718 2.42868,4.286474 3.85351,6.269531 0.0606,0.084 0.16692,0.12068 0.26368,0.08984 6.16927,-1.908626 12.42644,-4.786972 18.88281,-9.529297 0.0574,-0.04253 0.0912,-0.10365 0.0977,-0.173828 0.25127,-2.600018 0.35599,-5.145487 0.31835,-7.638672 z m -75.48046,0.06641 c -0.0379,2.529491 0.0696,5.053173 0.30468,7.570312 0.005,0.06911 0.0446,0.133249 0.0977,0.175781 6.45744,4.742325 12.71312,7.620671 18.85156,9.529297 0.0989,0.03084 0.20396,-0.0051 0.26563,-0.08594 1.45247,-1.983058 2.74538,-4.07453 3.85547,-6.273438 0.0659,-0.12866 0.003,-0.280993 -0.13086,-0.332031 -0.20849,-0.07903 -0.41655,-0.159638 -0.62305,-0.242188 -0.92916,1.681867 -1.96637,3.297771 -3.10156,4.847657 -0.0617,0.08084 -0.16673,0.116777 -0.26563,0.08594 -6.13844,-1.908626 -12.39412,-4.786972 -18.85156,-9.529297 -0.0531,-0.04253 -0.0927,-0.106671 -0.0977,-0.175781 -0.17305,-1.85327 -0.27707,-3.710496 -0.30468,-5.570312 z m 56.77929,4.404296 c -0.0323,3.2e-4 -0.0638,0.0071 -0.0937,0.02148 -12.20989,5.641878 -25.58495,5.641878 -37.93945,0 -0.0808,-0.03509 -0.17504,-0.02422 -0.24414,0.0332 -0.37747,0.310484 -0.77331,0.619355 -1.16992,0.916016 -0.13609,0.102077 -0.12544,0.315153 0.0234,0.402343 0.39144,0.224279 0.78541,0.443316 1.1836,0.65625 0.0634,-0.03419 0.14019,-0.03683 0.20703,-0.0078 12.3545,5.641878 25.72956,5.641878 37.93945,0 0.0702,-0.03368 0.15401,-0.02666 0.22071,0.01367 0.39631,-0.21324 0.78812,-0.43447 1.17773,-0.66211 0.14992,-0.08719 0.15758,-0.300266 0.0215,-0.402343 -0.39874,-0.296661 -0.79529,-0.606421 -1.17382,-0.917969 -0.0439,-0.03522 -0.0985,-0.05327 -0.15235,-0.05273 z" /></svg>
