<?xml version="1.0" encoding="UTF-8" standalone="no"?>
<!-- Created with Inkscape (http://www.inkscape.org/) -->

<svg
   width="128"
   height="128"
   viewBox="0 0 128 128"
   version="1.1"
   id="svg5"
   inkscape:version="1.4.3 (0d15f75042, 2025-12-25)"
   sodipodi:docname="com.valvesoftware.Steam.svg"
   xml:space="preserve"
   xmlns:inkscape="http://www.inkscape.org/namespaces/inkscape"
   xmlns:sodipodi="http://sodipodi.sourceforge.net/DTD/sodipodi-0.dtd"
   xmlns:xlink="http://www.w3.org/1999/xlink"
   xmlns="http://www.w3.org/2000/svg"
   xmlns:svg="http://www.w3.org/2000/svg"><sodipodi:namedview
     id="namedview7"
     pagecolor="#ffffff"
     bordercolor="#666666"
     borderopacity="1"
     inkscape:pageshadow="2"
     inkscape:pageopacity="0.0"
     inkscape:pagecheckerboard="true"
     inkscape:document-units="px"
     showgrid="false"
     inkscape:showpageshadow="false"
     showborder="true"
     inkscape:snap-page="true"
     inkscape:zoom="4.7164996"
     inkscape:cx="44.100502"
     inkscape:cy="59.578082"
     inkscape:window-width="1728"
     inkscape:window-height="1043"
     inkscape:window-x="0"
     inkscape:window-y="0"
     inkscape:window-maximized="1"
     inkscape:current-layer="layer2"
     inkscape:snap-global="false"
     inkscape:snap-bbox="true"
     inkscape:bbox-paths="true"
     inkscape:snap-bbox-midpoints="true"
     inkscape:snap-bbox-edge-midpoints="true"
     inkscape:bbox-nodes="true"
     inkscape:object-paths="true"
     inkscape:snap-intersection-paths="true"
     inkscape:deskcolor="#d1d1d1" /><defs
     id="defs2"><linearGradient
       id="linearGradient2"
       inkscape:collect="always"><stop
         style="stop-color:#0c264b;stop-opacity:1;"
         offset="0"
         id="stop2" /><stop
         style="stop-color:#123970;stop-opacity:1;"
         offset="1"
         id="stop3" /></linearGradient><linearGradient
       inkscape:collect="always"
       id="linearGradient2288"><stop
         style="stop-color:#174f96;stop-opacity:1;"
         offset="0"
         id="stop2284" /><stop
         style="stop-color:#87a7e3;stop-opacity:0.79867041;"
         offset="1"
         id="stop2286" /></linearGradient><linearGradient
       inkscape:collect="always"
       id="linearGradient3434"><stop
         style="stop-color:#0e2a52;stop-opacity:1;"
         offset="0"
         id="stop3430" /><stop
         style="stop-color:#10305e;stop-opacity:1;"
         offset="0.10029376"
         id="stop3442" /><stop
         style="stop-color:#0e2a52;stop-opacity:1;"
         offset="0.19918716"
         id="stop3446" /><stop
         style="stop-color:#0e2a52;stop-opacity:1;"
         offset="0.8009339"
         id="stop3444" /><stop
         style="stop-color:#10305e;stop-opacity:1;"
         offset="0.90404421"
         id="stop3440" /><stop
         style="stop-color:#0e2a52;stop-opacity:1;"
         offset="1"
         id="stop3432" /></linearGradient><linearGradient
       y2="236"
       x2="96"
       y1="236"
       x1="32"
       gradientTransform="translate(604.81684,170.58641)"
       gradientUnits="userSpaceOnUse"
       id="linearGradient1099"
       xlink:href="#linearGradient1036" /><linearGradient
       id="linearGradient1036"><stop
         id="stop1032"
         offset="0"
         style="stop-color:#d5d3cf;stop-opacity:1;" /><stop
         id="stop1034"
         offset="1"
         style="stop-color:#f6f5f4;stop-opacity:1" /></linearGradient><radialGradient
       r="32"
       fy="-76"
       fx="-244"
       cy="-76"
       cx="-244"
       gradientTransform="matrix(0.88333331,0,0,0.88333331,-460.35018,463.11973)"
       gradientUnits="userSpaceOnUse"
       id="radialGradient1103"
       xlink:href="#linearGradient1069" /><linearGradient
       id="linearGradient1069"><stop
         id="stop1065"
         offset="0"
         style="stop-color:#d5d3cf;stop-opacity:1" /><stop
         id="stop1067-1"
         offset="1"
         style="stop-color:#949390;stop-opacity:1" /></linearGradient><linearGradient
       gradientUnits="userSpaceOnUse"
       y2="232"
       x2="64"
       y1="262.5"
       x1="64"
       id="linearGradient1027"
       xlink:href="#linearGradient1025"
       gradientTransform="translate(-470.5864,432.81685)" /><linearGradient
       id="linearGradient1025"><stop
         id="stop1021"
         offset="0"
         style="stop-color:#9a9996;stop-opacity:1" /><stop
         id="stop1023"
         offset="1"
         style="stop-color:#77767b;stop-opacity:1" /></linearGradient><inkscape:path-effect
       effect="spiro"
       id="path-effect35304-9"
       is_visible="true" /><clipPath
       clipPathUnits="userSpaceOnUse"
       id="clipPath1609-7"><path
         sodipodi:nodetypes="cccccc"
         inkscape:connector-curvature="0"
         id="path1611-5"
         d="m 252,116 28,-28 v -8 h -36 v 36 z"
         style="fill:#e74747;stroke:none;stroke-width:0.25px;stroke-linecap:butt;stroke-linejoin:miter;stroke-opacity:1" /></clipPath><radialGradient
       r="32"
       fy="-76"
       fx="-244"
       cy="-76"
       cx="-244"
       gradientTransform="matrix(0.88333331,0,0,0.88333331,-460.35018,463.11973)"
       gradientUnits="userSpaceOnUse"
       id="radialGradient1103-5"
       xlink:href="#linearGradient1069" /><inkscape:path-effect
       effect="spiro"
       id="path-effect35304-9-2"
       is_visible="true" /><clipPath
       clipPathUnits="userSpaceOnUse"
       id="clipPath1609-7-7"><path
         sodipodi:nodetypes="cccccc"
         inkscape:connector-curvature="0"
         id="path1611-5-0"
         d="m 252,116 28,-28 v -8 h -36 v 36 z"
         style="fill:#e74747;stroke:none;stroke-width:0.25px;stroke-linecap:butt;stroke-linejoin:miter;stroke-opacity:1" /></clipPath><clipPath
       clipPathUnits="userSpaceOnUse"
       id="clipPath744"><rect
         style="fill:#1e88e5;fill-opacity:1;stroke-width:0.264583"
         id="rect746"
         width="541.86664"
         height="541.86664"
         x="0"
         y="1.5987212e-14"
         rx="79.375"
         ry="79.375" /></clipPath><clipPath
       clipPathUnits="userSpaceOnUse"
       id="clipPath62"><rect
         style="fill:#1e88e5;fill-opacity:1;stroke-width:0.264583"
         id="rect64"
         width="541.86664"
         height="541.86664"
         x="2.2507105e-05"
         y="-0.42205024"
         rx="79.375"
         ry="79.375" /></clipPath><radialGradient
       r="32"
       fy="-76"
       fx="-244"
       cy="-76"
       cx="-244"
       gradientTransform="matrix(0.88333331,0,0,0.88333331,-460.35018,463.11973)"
       gradientUnits="userSpaceOnUse"
       id="radialGradient1103-6"
       xlink:href="#linearGradient1069" /><inkscape:path-effect
       effect="spiro"
       id="path-effect35304-9-20"
       is_visible="true" /><clipPath
       clipPathUnits="userSpaceOnUse"
       id="clipPath1609-7-2"><path
         sodipodi:nodetypes="cccccc"
         inkscape:connector-curvature="0"
         id="path1611-5-3"
         d="m 252,116 28,-28 v -8 h -36 v 36 z"
         style="fill:#e74747;stroke:none;stroke-width:0.25px;stroke-linecap:butt;stroke-linejoin:miter;stroke-opacity:1" /></clipPath><clipPath
       clipPathUnits="userSpaceOnUse"
       id="clipPath961"><rect
         style="fill:#00c853;stroke:none;stroke-width:0.529037"
         id="rect963"
         width="541.86664"
         height="541.86664"
         x="1.4210855e-14"
         y="2.717972e-05"
         rx="79.375"
         ry="79.375" /></clipPath><radialGradient
       r="32"
       fy="-76"
       fx="-244"
       cy="-76"
       cx="-244"
       gradientTransform="matrix(0.88333331,0,0,0.88333331,-460.35018,463.11973)"
       gradientUnits="userSpaceOnUse"
       id="radialGradient1103-56"
       xlink:href="#linearGradient1069" /><inkscape:path-effect
       effect="spiro"
       id="path-effect35304-9-7"
       is_visible="true" /><clipPath
       clipPathUnits="userSpaceOnUse"
       id="clipPath1440"><circle
         style="display:inline;opacity:1;vector-effect:none;fill:none;fill-opacity:1;stroke:#000000;stroke-width:2;stroke-linecap:butt;stroke-linejoin:miter;stroke-miterlimit:4;stroke-dasharray:none;stroke-dashoffset:0;stroke-opacity:1;marker:none;marker-start:none;marker-mid:none;marker-end:none;paint-order:normal;enable-background:new"
         id="circle1442"
         cx="-134.35028"
         cy="193.74727"
         r="24"
         transform="rotate(-45)" /></clipPath><clipPath
       clipPathUnits="userSpaceOnUse"
       id="clipPath1430"><circle
         style="display:inline;opacity:1;vector-effect:none;fill:none;fill-opacity:1;stroke:#000000;stroke-width:2;stroke-linecap:butt;stroke-linejoin:miter;stroke-miterlimit:4;stroke-dasharray:none;stroke-dashoffset:0;stroke-opacity:1;marker:none;marker-start:none;marker-mid:none;marker-end:none;paint-order:normal;enable-background:new"
         id="circle1432"
         cx="12"
         cy="232"
         r="24" /></clipPath><clipPath
       clipPathUnits="userSpaceOnUse"
       id="clipPath1440-9"><circle
         style="display:inline;opacity:1;vector-effect:none;fill:none;fill-opacity:1;stroke:#000000;stroke-width:2;stroke-linecap:butt;stroke-linejoin:miter;stroke-miterlimit:4;stroke-dasharray:none;stroke-dashoffset:0;stroke-opacity:1;marker:none;marker-start:none;marker-mid:none;marker-end:none;paint-order:normal;enable-background:new"
         id="circle1442-5"
         cx="-134.35028"
         cy="193.74727"
         r="24"
         transform="rotate(-45)" /></clipPath><clipPath
       clipPathUnits="userSpaceOnUse"
       id="clipPath1430-1"><circle
         style="display:inline;opacity:1;vector-effect:none;fill:none;fill-opacity:1;stroke:#000000;stroke-width:2;stroke-linecap:butt;stroke-linejoin:miter;stroke-miterlimit:4;stroke-dasharray:none;stroke-dashoffset:0;stroke-opacity:1;marker:none;marker-start:none;marker-mid:none;marker-end:none;paint-order:normal;enable-background:new"
         id="circle1432-8"
         cx="12"
         cy="232"
         r="24" /></clipPath><clipPath
       clipPathUnits="userSpaceOnUse"
       id="clipPath2024"><rect
         style="opacity:1;vector-effect:none;fill:#63452c;fill-opacity:1;stroke:none;stroke-width:4;stroke-linecap:round;stroke-linejoin:round;stroke-miterlimit:4;stroke-dasharray:none;stroke-dashoffset:0;stroke-opacity:1"
         id="rect2026"
         width="74"
         height="98"
         x="6"
         y="196" /></clipPath><linearGradient
       id="linearGradient914"
       inkscape:collect="always"><stop
         id="stop910"
         offset="0"
         style="stop-color:#f6f5f4;stop-opacity:0.43700787" /><stop
         id="stop912"
         offset="1"
         style="stop-color:#deddda;stop-opacity:0;" /></linearGradient><radialGradient
       gradientTransform="matrix(2.6086955,0,0,1.8410361,-102.95652,-748.94671)"
       gradientUnits="userSpaceOnUse"
       r="46"
       fy="296"
       fx="64.000008"
       cy="296"
       cx="64.000008"
       id="radialGradient916"
       xlink:href="#linearGradient914"
       inkscape:collect="always" /><clipPath
       clipPathUnits="userSpaceOnUse"
       id="clipPath11543"><rect
         style="fill:#f0c04e;fill-opacity:1;stroke:none;stroke-width:0.529037"
         id="rect11545"
         width="541.86664"
         height="541.86664"
         x="1.4746095e-06"
         y="6.4330168e-05"
         rx="79.375"
         ry="79.375" /></clipPath><style
       id="style374">.cls-1{fill:url(#linear-gradient);}.cls-2{opacity:0.35;fill:url(#radial-gradient);}.cls-2,.cls-4{isolation:isolate;}.cls-3{fill:url(#linear-gradient-2);}.cls-4{opacity:0.41;fill:url(#radial-gradient-2);}.cls-5{fill:url(#radial-gradient-3);}.cls-6{fill:url(#radial-gradient-4);}</style><linearGradient
       id="linear-gradient"
       x1="63.33"
       y1="84.03"
       x2="241.67"
       y2="84.03"
       gradientTransform="matrix(1,0,0,-1,0,266)"
       gradientUnits="userSpaceOnUse"><stop
         offset="0"
         stop-color="#0c59a4"
         id="stop376" /><stop
         offset="1"
         stop-color="#114a8b"
         id="stop378" /></linearGradient><radialGradient
       id="radial-gradient"
       cx="161.83"
       cy="68.91"
       r="95.38"
       gradientTransform="matrix(1,0,0,-0.95,0,248.84)"
       gradientUnits="userSpaceOnUse"><stop
         offset="0.72"
         stop-opacity="0"
         id="stop381" /><stop
         offset="0.95"
         stop-opacity="0.53"
         id="stop383" /><stop
         offset="1"
         id="stop385" /></radialGradient><linearGradient
       id="linear-gradient-2"
       x1="157.35"
       y1="161.39"
       x2="45.96"
       y2="40.06"
       gradientTransform="matrix(1,0,0,-1,0,266)"
       gradientUnits="userSpaceOnUse"><stop
         offset="0"
         stop-color="#1b9de2"
         id="stop388" /><stop
         offset="0.16"
         stop-color="#1595df"
         id="stop390" /><stop
         offset="0.67"
         stop-color="#0680d7"
         id="stop392" /><stop
         offset="1"
         stop-color="#0078d4"
         id="stop394" /></linearGradient><radialGradient
       id="radial-gradient-2"
       cx="-340.29"
       cy="62.99"
       r="143.24"
       gradientTransform="matrix(0.15,-0.99,-0.8,-0.12,176.64,-125.4)"
       gradientUnits="userSpaceOnUse"><stop
         offset="0.76"
         stop-opacity="0"
         id="stop397" /><stop
         offset="0.95"
         stop-opacity="0.5"
         id="stop399" /><stop
         offset="1"
         id="stop401" /></radialGradient><radialGradient
       id="radial-gradient-3"
       cx="113.37"
       cy="570.21"
       r="202.43"
       gradientTransform="matrix(-0.04,1,2.13,0.08,-1179.54,-106.69)"
       gradientUnits="userSpaceOnUse"><stop
         offset="0"
         stop-color="#35c1f1"
         id="stop404" /><stop
         offset="0.11"
         stop-color="#34c1ed"
         id="stop406" /><stop
         offset="0.23"
         stop-color="#2fc2df"
         id="stop408" /><stop
         offset="0.31"
         stop-color="#2bc3d2"
         id="stop410" /><stop
         offset="0.67"
         stop-color="#36c752"
         id="stop412" /></radialGradient><radialGradient
       id="radial-gradient-4"
       cx="376.52"
       cy="567.97"
       r="97.34"
       gradientTransform="matrix(0.28,0.96,0.78,-0.23,-303.76,-148.5)"
       gradientUnits="userSpaceOnUse"><stop
         offset="0"
         stop-color="#66eb6e"
         id="stop415" /><stop
         offset="1"
         stop-color="#66eb6e"
         stop-opacity="0"
         id="stop417" /></radialGradient><clipPath
       clipPathUnits="userSpaceOnUse"
       id="clipPath1260"><rect
         style="fill:#bbdefb;fill-opacity:1;stroke:none;stroke-width:0.529037"
         id="rect1262"
         width="541.86664"
         height="541.86664"
         x="2.9492187e-06"
         y="3.9968629e-05"
         rx="79.375"
         ry="79.375" /></clipPath><linearGradient
       x1="0.00011788858"
       y1="119.55213"
       x2="235.77728"
       y2="119.55213"
       id="linearGradient-1"
       gradientTransform="matrix(1.4511897,0,0,1.7037658,99.854461,80.416034)"
       gradientUnits="userSpaceOnUse"><stop
         stop-color="#FF5500"
         offset="0%"
         id="stop6" /><stop
         stop-color="#FF5500"
         offset="40.9877232%"
         id="stop8" /><stop
         stop-color="#FF2000"
         offset="58.1981215%"
         id="stop10" /><stop
         stop-color="#FF2000"
         offset="100%"
         id="stop12" /></linearGradient><linearGradient
       x1="0.021484375"
       y1="0.50705516"
       x2="1"
       y2="0.50705516"
       id="linearGradient-2"
       gradientUnits="userSpaceOnUse"
       gradientTransform="matrix(7.1070123,0,0,7.1070123,54.42477,49.220049)"><stop
         stop-color="#FF452A"
         offset="0%"
         id="stop15" /><stop
         stop-color="#FF2000"
         offset="100%"
         id="stop17" /></linearGradient><mask
       id="mask-4"
       fill="#ffffff"><path
         d="M 45.051162,6.7034671 39.149895,2.8822695e-5 h -10.3632 -10.3632 L 12.522229,6.7034671 c 0,0 -5.1816002,-1.4411348 -7.6284669,1.0087943 0,0 6.9087999,-0.6244437 9.2836999,3.2425536 0,0 6.405033,1.224964 7.268633,1.224964 0.8636,0 2.734734,-0.720567 4.461934,-1.297021 1.7272,-0.576454 2.878666,-0.580633 2.878666,-0.580633 0,0 1.151467,0.0042 2.878667,0.580633 1.7272,0.576454 3.598333,1.297021 4.461933,1.297021 0.8636,0 7.268634,-1.224964 7.268634,-1.224964 2.3749,-3.8669973 9.2837,-3.2425536 9.2837,-3.2425536 C 50.232762,5.2623323 45.051162,6.7034671 45.051162,6.7034671"
         id="use25"
         style="stroke-width:0.264583" /></mask><clipPath
       clipPathUnits="userSpaceOnUse"
       id="clipPath3338"><rect
         style="fill:#ff7f2a;fill-opacity:1;stroke:none;stroke-width:0.529037"
         id="rect3340"
         width="541.86664"
         height="541.86664"
         x="1.1368684e-13"
         y="5.8174133e-05"
         rx="79.375"
         ry="79.375" /></clipPath><clipPath
       clipPathUnits="userSpaceOnUse"
       id="clipPath2140"><rect
         style="fill:#ffad76;fill-opacity:1;stroke:none;stroke-width:0.529037"
         id="rect2142"
         width="487.67996"
         height="487.67996"
         x="27.093353"
         y="27.093338"
         rx="71.4375"
         ry="71.4375" /></clipPath><linearGradient
       gradientUnits="userSpaceOnUse"
       y2="268"
       x2="115.82323"
       y1="268"
       x1="11.823223"
       id="linearGradient1329"
       xlink:href="#linearGradient1357"
       gradientTransform="matrix(2.2749684,0,0,2.2749684,-344.80754,-258.29553)" /><linearGradient
       id="linearGradient1357"><stop
         id="stop1345"
         offset="0"
         style="stop-color:#986a44;stop-opacity:1" /><stop
         style="stop-color:#cdab8f;stop-opacity:1"
         offset="0.02884588"
         id="stop1347" /><stop
         id="stop1349"
         offset="0.05769204"
         style="stop-color:#b5835a;stop-opacity:1" /><stop
         style="stop-color:#b5835a;stop-opacity:1"
         offset="0.94230765"
         id="stop1351" /><stop
         id="stop1353"
         offset="0.97133332"
         style="stop-color:#cdab8f;stop-opacity:1" /><stop
         id="stop1355"
         offset="1"
         style="stop-color:#986a44;stop-opacity:1" /></linearGradient><linearGradient
       y2="23"
       x2="60"
       y1="53.254841"
       x1="70.586235"
       gradientTransform="translate(0,170)"
       gradientUnits="userSpaceOnUse"
       id="linearGradient1610"
       xlink:href="#linearGradient1656" /><linearGradient
       id="linearGradient1656"><stop
         style="stop-color:#ffffff;stop-opacity:1"
         offset="0"
         id="stop1652" /><stop
         style="stop-color:#deddda;stop-opacity:1"
         offset="1"
         id="stop1654" /></linearGradient><linearGradient
       y2="268"
       x2="68"
       y1="268"
       x1="60"
       gradientUnits="userSpaceOnUse"
       id="linearGradient1612"
       xlink:href="#linearGradient1270" /><linearGradient
       id="linearGradient1270"><stop
         style="stop-color:#949390;stop-opacity:1;"
         offset="0"
         id="stop1258" /><stop
         id="stop1260"
         offset="0.08333334"
         style="stop-color:#d5d3cf;stop-opacity:1" /><stop
         style="stop-color:#949390;stop-opacity:1;"
         offset="0.16666667"
         id="stop1262" /><stop
         id="stop1264"
         offset="0.83333331"
         style="stop-color:#949390;stop-opacity:1;" /><stop
         style="stop-color:#d5d3cf;stop-opacity:1"
         offset="0.91666669"
         id="stop1266" /><stop
         style="stop-color:#949390;stop-opacity:1"
         offset="1"
         id="stop1268" /></linearGradient><radialGradient
       r="32"
       fy="-76"
       fx="-244"
       cy="-76"
       cx="-244"
       gradientTransform="matrix(0.88333331,0,0,0.88333331,-460.35018,463.11973)"
       gradientUnits="userSpaceOnUse"
       id="radialGradient1103-562"
       xlink:href="#linearGradient1069" /><inkscape:path-effect
       effect="spiro"
       id="path-effect35304-9-0"
       is_visible="true" /><clipPath
       clipPathUnits="userSpaceOnUse"
       id="clipPath1609-7-9"><path
         sodipodi:nodetypes="cccccc"
         inkscape:connector-curvature="0"
         id="path1611-5-36"
         d="m 252,116 28,-28 v -8 h -36 v 36 z"
         style="fill:#e74747;stroke:none;stroke-width:0.25px;stroke-linecap:butt;stroke-linejoin:miter;stroke-opacity:1" /></clipPath><radialGradient
       r="32"
       fy="-76"
       fx="-244"
       cy="-76"
       cx="-244"
       gradientTransform="matrix(0.88333331,0,0,0.88333331,-460.35018,463.11973)"
       gradientUnits="userSpaceOnUse"
       id="radialGradient1103-5-0"
       xlink:href="#linearGradient1069" /><inkscape:path-effect
       effect="spiro"
       id="path-effect35304-9-2-6"
       is_visible="true" /><clipPath
       clipPathUnits="userSpaceOnUse"
       id="clipPath1609-7-7-2"><path
         sodipodi:nodetypes="cccccc"
         inkscape:connector-curvature="0"
         id="path1611-5-0-6"
         d="m 252,116 28,-28 v -8 h -36 v 36 z"
         style="fill:#e74747;stroke:none;stroke-width:0.25px;stroke-linecap:butt;stroke-linejoin:miter;stroke-opacity:1" /></clipPath><clipPath
       clipPathUnits="userSpaceOnUse"
       id="clipPath744-1"><rect
         style="fill:#1e88e5;fill-opacity:1;stroke-width:0.264583"
         id="rect746-8"
         width="541.86664"
         height="541.86664"
         x="0"
         y="1.5987212e-14"
         rx="79.375"
         ry="79.375" /></clipPath><clipPath
       clipPathUnits="userSpaceOnUse"
       id="clipPath62-7"><rect
         style="fill:#1e88e5;fill-opacity:1;stroke-width:0.264583"
         id="rect64-9"
         width="541.86664"
         height="541.86664"
         x="2.2507105e-05"
         y="-0.42205024"
         rx="79.375"
         ry="79.375" /></clipPath><radialGradient
       r="32"
       fy="-76"
       fx="-244"
       cy="-76"
       cx="-244"
       gradientTransform="matrix(0.88333331,0,0,0.88333331,-460.35018,463.11973)"
       gradientUnits="userSpaceOnUse"
       id="radialGradient1103-6-2"
       xlink:href="#linearGradient1069" /><inkscape:path-effect
       effect="spiro"
       id="path-effect35304-9-20-0"
       is_visible="true" /><clipPath
       clipPathUnits="userSpaceOnUse"
       id="clipPath1609-7-2-2"><path
         sodipodi:nodetypes="cccccc"
         inkscape:connector-curvature="0"
         id="path1611-5-3-3"
         d="m 252,116 28,-28 v -8 h -36 v 36 z"
         style="fill:#e74747;stroke:none;stroke-width:0.25px;stroke-linecap:butt;stroke-linejoin:miter;stroke-opacity:1" /></clipPath><clipPath
       clipPathUnits="userSpaceOnUse"
       id="clipPath961-7"><rect
         style="fill:#00c853;stroke:none;stroke-width:0.529037"
         id="rect963-5"
         width="541.86664"
         height="541.86664"
         x="1.4210855e-14"
         y="2.717972e-05"
         rx="79.375"
         ry="79.375" /></clipPath><radialGradient
       r="32"
       fy="-76"
       fx="-244"
       cy="-76"
       cx="-244"
       gradientTransform="matrix(0.88333331,0,0,0.88333331,-460.35018,463.11973)"
       gradientUnits="userSpaceOnUse"
       id="radialGradient1103-56-9"
       xlink:href="#linearGradient1069" /><inkscape:path-effect
       effect="spiro"
       id="path-effect35304-9-7-2"
       is_visible="true" /><clipPath
       clipPathUnits="userSpaceOnUse"
       id="clipPath1440-2"><circle
         style="display:inline;opacity:1;vector-effect:none;fill:none;fill-opacity:1;stroke:#000000;stroke-width:2;stroke-linecap:butt;stroke-linejoin:miter;stroke-miterlimit:4;stroke-dasharray:none;stroke-dashoffset:0;stroke-opacity:1;marker:none;marker-start:none;marker-mid:none;marker-end:none;paint-order:normal;enable-background:new"
         id="circle1442-8"
         cx="-134.35028"
         cy="193.74727"
         r="24"
         transform="rotate(-45)" /></clipPath><clipPath
       clipPathUnits="userSpaceOnUse"
       id="clipPath1430-9"><circle
         style="display:inline;opacity:1;vector-effect:none;fill:none;fill-opacity:1;stroke:#000000;stroke-width:2;stroke-linecap:butt;stroke-linejoin:miter;stroke-miterlimit:4;stroke-dasharray:none;stroke-dashoffset:0;stroke-opacity:1;marker:none;marker-start:none;marker-mid:none;marker-end:none;paint-order:normal;enable-background:new"
         id="circle1432-7"
         cx="12"
         cy="232"
         r="24" /></clipPath><clipPath
       clipPathUnits="userSpaceOnUse"
       id="clipPath1440-9-3"><circle
         style="display:inline;opacity:1;vector-effect:none;fill:none;fill-opacity:1;stroke:#000000;stroke-width:2;stroke-linecap:butt;stroke-linejoin:miter;stroke-miterlimit:4;stroke-dasharray:none;stroke-dashoffset:0;stroke-opacity:1;marker:none;marker-start:none;marker-mid:none;marker-end:none;paint-order:normal;enable-background:new"
         id="circle1442-5-6"
         cx="-134.35028"
         cy="193.74727"
         r="24"
         transform="rotate(-45)" /></clipPath><clipPath
       clipPathUnits="userSpaceOnUse"
       id="clipPath1430-1-1"><circle
         style="display:inline;opacity:1;vector-effect:none;fill:none;fill-opacity:1;stroke:#000000;stroke-width:2;stroke-linecap:butt;stroke-linejoin:miter;stroke-miterlimit:4;stroke-dasharray:none;stroke-dashoffset:0;stroke-opacity:1;marker:none;marker-start:none;marker-mid:none;marker-end:none;paint-order:normal;enable-background:new"
         id="circle1432-8-2"
         cx="12"
         cy="232"
         r="24" /></clipPath><clipPath
       clipPathUnits="userSpaceOnUse"
       id="clipPath2024-9"><rect
         style="opacity:1;vector-effect:none;fill:#63452c;fill-opacity:1;stroke:none;stroke-width:4;stroke-linecap:round;stroke-linejoin:round;stroke-miterlimit:4;stroke-dasharray:none;stroke-dashoffset:0;stroke-opacity:1"
         id="rect2026-3"
         width="74"
         height="98"
         x="6"
         y="196" /></clipPath><radialGradient
       gradientTransform="matrix(2.6086955,0,0,1.8410361,-102.95652,-748.94671)"
       gradientUnits="userSpaceOnUse"
       r="46"
       fy="296"
       fx="64.000008"
       cy="296"
       cx="64.000008"
       id="radialGradient916-4"
       xlink:href="#linearGradient914"
       inkscape:collect="always" /><clipPath
       clipPathUnits="userSpaceOnUse"
       id="clipPath11543-7"><rect
         style="fill:#f0c04e;fill-opacity:1;stroke:none;stroke-width:0.529037"
         id="rect11545-8"
         width="541.86664"
         height="541.86664"
         x="1.4746095e-06"
         y="6.4330168e-05"
         rx="79.375"
         ry="79.375" /></clipPath><style
       id="style374-4">.cls-1{fill:url(#linear-gradient);}.cls-2{opacity:0.35;fill:url(#radial-gradient);}.cls-2,.cls-4{isolation:isolate;}.cls-3{fill:url(#linear-gradient-2);}.cls-4{opacity:0.41;fill:url(#radial-gradient-2);}.cls-5{fill:url(#radial-gradient-3);}.cls-6{fill:url(#radial-gradient-4);}</style><radialGradient
       id="radial-gradient-36"
       cx="161.83"
       cy="68.91"
       r="95.38"
       gradientTransform="matrix(1,0,0,-0.95,0,248.84)"
       gradientUnits="userSpaceOnUse"><stop
         offset="0.72"
         stop-opacity="0"
         id="stop381-1" /><stop
         offset="0.95"
         stop-opacity="0.53"
         id="stop383-0" /><stop
         offset="1"
         id="stop385-6" /></radialGradient><radialGradient
       id="radial-gradient-2-1"
       cx="-340.29"
       cy="62.99"
       r="143.24"
       gradientTransform="matrix(0.15,-0.99,-0.8,-0.12,176.64,-125.4)"
       gradientUnits="userSpaceOnUse"><stop
         offset="0.76"
         stop-opacity="0"
         id="stop397-5" /><stop
         offset="0.95"
         stop-opacity="0.5"
         id="stop399-5" /><stop
         offset="1"
         id="stop401-4" /></radialGradient><radialGradient
       id="radial-gradient-3-7"
       cx="113.37"
       cy="570.21"
       r="202.43"
       gradientTransform="matrix(-0.04,1,2.13,0.08,-1179.54,-106.69)"
       gradientUnits="userSpaceOnUse"><stop
         offset="0"
         stop-color="#35c1f1"
         id="stop404-6" /><stop
         offset="0.11"
         stop-color="#34c1ed"
         id="stop406-5" /><stop
         offset="0.23"
         stop-color="#2fc2df"
         id="stop408-6" /><stop
         offset="0.31"
         stop-color="#2bc3d2"
         id="stop410-9" /><stop
         offset="0.67"
         stop-color="#36c752"
         id="stop412-3" /></radialGradient><radialGradient
       id="radial-gradient-4-7"
       cx="376.52"
       cy="567.97"
       r="97.34"
       gradientTransform="matrix(0.28,0.96,0.78,-0.23,-303.76,-148.5)"
       gradientUnits="userSpaceOnUse"><stop
         offset="0"
         stop-color="#66eb6e"
         id="stop415-4" /><stop
         offset="1"
         stop-color="#66eb6e"
         stop-opacity="0"
         id="stop417-5" /></radialGradient><clipPath
       clipPathUnits="userSpaceOnUse"
       id="clipPath1260-2"><rect
         style="fill:#bbdefb;fill-opacity:1;stroke:none;stroke-width:0.529037"
         id="rect1262-5"
         width="541.86664"
         height="541.86664"
         x="2.9492187e-06"
         y="3.9968629e-05"
         rx="79.375"
         ry="79.375" /></clipPath><clipPath
       clipPathUnits="userSpaceOnUse"
       id="clipPath16285"><rect
         style="fill:#bbdefb;fill-opacity:1;stroke:none;stroke-width:0.529037"
         id="rect16287"
         width="541.86664"
         height="541.86664"
         x="0"
         y="6.4807005e-05"
         rx="79.375"
         ry="79.375" /></clipPath><clipPath
       clipPathUnits="userSpaceOnUse"
       id="clipPath990"><rect
         style="fill:#bbdefb;fill-opacity:1;stroke:none;stroke-width:0.529037"
         id="rect992"
         width="487.67996"
         height="487.67996"
         x="27.093349"
         y="27.093338"
         rx="71.4375"
         ry="71.4375" /></clipPath><linearGradient
       id="a"
       x2="116.68872"
       x1="116.68872"
       y2="418.42603"
       gradientTransform="matrix(0.58737344,0,0,0.58762883,-174.0507,-30.725597)"
       y1="-185.55121"
       gradientUnits="userSpaceOnUse"><stop
         stop-color="#111D2E"
         offset="0"
         id="stop318"
         style="stop-color:#0e2247;stop-opacity:1" /><stop
         stop-color="#051839"
         offset=".21248"
         id="stop320" /><stop
         stop-color="#0A1B48"
         offset=".40695"
         id="stop322" /><stop
         stop-color="#132E62"
         offset=".58110"
         id="stop324" /><stop
         stop-color="#144B7E"
         offset=".73760"
         id="stop326" /><stop
         stop-color="#136497"
         offset=".87279"
         id="stop328" /><stop
         stop-color="#1387B8"
         offset="1"
         id="stop330" /></linearGradient><linearGradient
       inkscape:collect="always"
       xlink:href="#linearGradient2288"
       id="linearGradient781"
       x1="64"
       y1="39.03825"
       x2="64"
       y2="7.5"
       gradientUnits="userSpaceOnUse"
       gradientTransform="translate(0,-1)" /><linearGradient
       inkscape:collect="always"
       xlink:href="#linearGradient3434"
       id="linearGradient3436"
       x1="11.5"
       y1="68"
       x2="116.5"
       y2="68"
       gradientUnits="userSpaceOnUse"
       gradientTransform="translate(0,1)" /><filter
       style="color-interpolation-filters:sRGB;"
       inkscape:label="Drop Shadow"
       id="filter3702"
       x="-0.042701882"
       y="-0.055229329"
       width="1.0854038"
       height="1.1536066"><feFlood
         flood-opacity="0.403922"
         flood-color="rgb(0,0,0)"
         result="flood"
         id="feFlood3692" /><feComposite
         in="flood"
         in2="SourceGraphic"
         operator="in"
         result="composite1"
         id="feComposite3694" /><feGaussianBlur
         in="composite1"
         stdDeviation="1.6"
         result="blur"
         id="feGaussianBlur3696" /><feOffset
         dx="0"
         dy="3"
         result="offset"
         id="feOffset3698" /><feComposite
         in="SourceGraphic"
         in2="offset"
         operator="over"
         result="composite2"
         id="feComposite3700" /></filter><linearGradient
       inkscape:collect="always"
       xlink:href="#linearGradient2"
       id="linearGradient3"
       x1="63.999996"
       y1="8.9375105"
       x2="63.999996"
       y2="109.06248"
       gradientUnits="userSpaceOnUse" /></defs><g
     inkscape:groupmode="layer"
     id="layer2"
     inkscape:label="Layer 1"><path
       id="rect440"
       style="fill:url(#linearGradient3436);fill-opacity:1"
       d="M 27.5 6.5 C 18.636 6.5 11.5 13.636 11.5 22.5 L 11.5 32.5 L 11.5 95.5 L 11.5 105.5 C 11.5 114.364 18.636 121.5 27.5 121.5 L 100.5 121.5 C 109.364 121.5 116.5 114.364 116.5 105.5 L 116.5 95.5 L 116.5 32.5 L 116.5 22.5 C 116.5 13.636 109.364 6.5 100.5 6.5 L 27.5 6.5 z " /><rect
       style="mix-blend-mode:normal;fill:url(#linearGradient781);fill-opacity:1"
       id="rect358"
       width="105"
       height="105"
       x="11.5"
       y="6.5"
       rx="16"
       ry="16" /><path
       style="fill:#ffffff;fill-opacity:1;stroke-width:0.216779"
       d="m 64,82.103516 v -3.59375"
       id="path42913" /><text
       xml:space="preserve"
       style="font-style:normal;font-variant:normal;font-weight:normal;font-stretch:normal;font-size:49.7615px;line-height:1.25;font-family:'DejaVu Math TeX Gyre';-inkscape-font-specification:'DejaVu Math TeX Gyre';fill:#000000;fill-opacity:1;stroke:none;stroke-width:1.24404"
       x="-113.87144"
       y="49.441406"
       id="text3441"><tspan
         sodipodi:role="line"
         id="tspan3439"
         x="-113.87144"
         y="49.441406"
         style="stroke-width:1.24404" /></text><text
       xml:space="preserve"
       style="font-size:49.7615px;line-height:1.25;font-family:Caladea;-inkscape-font-specification:Caladea;stroke-width:1.24404"
       x="-131.45563"
       y="50.147518"
       id="text13903"><tspan
         sodipodi:role="line"
         id="tspan13901"
         x="-131.45563"
         y="50.147518"
         style="stroke-width:1.24404" /></text><rect
       style="fill:url(#linearGradient3);fill-opacity:1;stroke-width:0.953571"
       id="rect512"
       width="100.12498"
       height="100.12498"
       x="13.93751"
       y="8.9375105"
       rx="15"
       ry="15" /><path
       id="path3708"
       style="fill:#091c3a;fill-opacity:1;stroke-width:0.517391"
       d="M 83.628906 23.492188 C 71.000565 23.492188 60.726562 33.776999 60.726562 46.417969 C 60.726562 46.519344 60.727136 46.619675 60.732422 46.714844 L 45.978516 68.136719 C 43.588448 68.028107 41.188198 68.446636 38.914062 69.382812 C 37.911552 69.791421 36.975151 70.291804 36.09375 70.871094 L 11.5 60.753906 L 11.5 83.541016 L 28.970703 90.746094 C 30.120707 95.882133 33.648184 100.38555 38.849609 102.55273 C 47.35977 106.10607 57.172816 102.05718 60.712891 93.548828 C 61.634143 91.324764 62.062103 88.991573 62 86.664062 L 83.113281 71.587891 C 83.284073 71.592991 83.458117 71.597656 83.628906 71.597656 C 96.262428 71.597656 106.53125 61.303995 106.53125 48.664062 C 106.53125 48.284948 106.49291 47.915677 106.47461 47.541016 C 106.49291 47.166367 106.53125 46.797052 106.53125 46.417969 C 106.53125 33.776999 96.262428 23.492187 83.628906 23.492188 z M 83.628906 33.390625 C 91.665598 33.390625 98.257438 39.646661 98.835938 47.541016 C 98.257437 55.441213 91.665598 61.697266 83.628906 61.697266 C 75.597164 61.697266 69.006094 55.441213 68.427734 47.541016 C 69.006094 39.646661 75.597164 33.390625 83.628906 33.390625 z M 83.654297 34.916016 C 77.329778 34.916016 72.195312 40.056976 72.195312 46.394531 C 72.195312 46.773636 72.216053 47.149877 72.251953 47.519531 C 72.216043 47.889202 72.195312 48.263503 72.195312 48.642578 C 72.195312 54.980647 77.329778 60.115234 83.654297 60.115234 C 89.984 60.115234 95.119141 54.980647 95.119141 48.642578 C 95.119141 48.263503 95.0983 47.889202 95.0625 47.519531 C 95.0984 47.149877 95.119141 46.773636 95.119141 46.394531 C 95.119141 40.056976 89.984 34.916016 83.654297 34.916016 z M 45.417969 74.197266 C 47.029704 74.210206 48.662873 74.530628 50.242188 75.1875 C 53.426704 76.511595 55.899571 79.005304 57.208984 82.191406 C 57.711746 83.414743 58.014269 84.686154 58.128906 85.96875 C 58.014641 87.278022 57.705023 88.577128 57.185547 89.822266 C 54.445612 96.396189 46.887286 99.515421 40.316406 96.779297 C 38.528725 96.035037 37.007669 94.918517 35.783203 93.568359 L 41.132812 95.783203 C 45.978681 97.80038 51.538406 95.503328 53.552734 90.662109 C 54.206764 89.093369 54.403069 87.449696 54.212891 85.875 C 54.701938 81.760758 52.448842 77.65701 48.4375 75.986328 L 44.226562 74.244141 C 44.621204 74.210381 45.019433 74.194086 45.417969 74.197266 z " /><path
       id="path337"
       style="fill:#d4d4d4;fill-opacity:1;stroke-width:0.517391"
       d="M 83.628906 19.654297 C 71.000552 19.654297 60.726563 29.939096 60.726562 42.580078 C 60.726562 42.681452 60.727129 42.781785 60.732422 42.876953 L 45.978516 64.296875 C 43.588443 64.188263 41.188199 64.606793 38.914062 65.542969 C 37.911552 65.951577 36.975153 66.453912 36.09375 67.033203 L 11.5 56.916016 L 11.5 77.455078 L 28.970703 84.660156 C 30.120709 89.7962 33.648179 94.301577 38.849609 96.46875 C 47.359778 100.02209 57.172813 95.973197 60.712891 87.464844 C 61.634144 85.240777 62.062103 82.907588 62 80.580078 L 83.113281 65.501953 C 83.284073 65.507053 83.458116 65.513672 83.628906 65.513672 C 96.262438 65.513672 106.53125 55.220023 106.53125 42.580078 C 106.53125 29.939094 96.262438 19.654297 83.628906 19.654297 z M 83.628906 27.306641 C 92.044364 27.306641 98.892578 34.162238 98.892578 42.580078 C 98.892578 51.004636 92.044364 57.857422 83.628906 57.857422 C 75.21863 57.857422 68.371094 51.004636 68.371094 42.580078 C 68.371094 34.162238 75.21863 27.306641 83.628906 27.306641 z M 83.654297 31.078125 C 77.32977 31.078125 72.195312 36.219081 72.195312 42.556641 C 72.195312 48.894716 77.32977 54.029297 83.654297 54.029297 C 89.984005 54.029297 95.119141 48.894716 95.119141 42.556641 C 95.119141 36.219081 89.984005 31.078125 83.654297 31.078125 z M 45.417969 68.113281 C 47.029705 68.126221 48.66287 68.446643 50.242188 69.103516 C 53.426707 70.427613 55.89957 72.919364 57.208984 76.105469 C 58.518398 79.291576 58.510483 82.806663 57.185547 85.982422 C 54.44561 92.556353 46.887293 95.677527 40.316406 92.941406 C 37.285075 91.679376 34.998015 89.368137 33.677734 86.611328 L 41.132812 89.697266 C 45.978682 91.714445 51.538403 89.417398 53.552734 84.576172 C 55.573264 79.729773 53.280786 74.165616 48.4375 72.148438 L 40.728516 68.957031 C 42.215454 68.393255 43.80624 68.100348 45.417969 68.113281 z " /><path
       id="path3"
       style="fill:#ffffff;fill-opacity:1;stroke-width:0.517391"
       d="M 83.628906 19.654297 C 71.000552 19.654297 60.728516 29.939096 60.728516 42.580078 C 60.728516 42.681452 60.727122 42.781785 60.732422 42.876953 L 45.980469 64.296875 C 43.590396 64.188263 41.190153 64.606793 38.916016 65.542969 C 37.913505 65.951577 36.975153 66.453912 36.09375 67.033203 L 11.5 56.916016 L 11.5 58.916016 L 36.09375 69.033203 C 36.975153 68.453912 37.913505 67.951577 38.916016 67.542969 C 41.190153 66.606793 43.590396 66.188263 45.980469 66.296875 L 60.732422 44.876953 C 60.727122 44.781783 60.728516 44.681452 60.728516 44.580078 C 60.728516 31.939096 71.000552 21.654297 83.628906 21.654297 C 95.927585 21.654297 105.98716 31.401183 106.51172 43.580078 C 106.52602 43.248502 106.5332 42.915098 106.5332 42.580078 C 106.5332 29.939094 96.262435 19.654297 83.628906 19.654297 z M 83.65625 31.078125 C 77.331723 31.078125 72.195312 36.219081 72.195312 42.556641 C 72.195312 42.893576 72.209851 43.227099 72.238281 43.556641 C 72.744639 37.686951 77.667938 33.078125 83.65625 33.078125 C 89.649468 33.078125 94.569872 37.686951 95.076172 43.556641 C 95.104592 43.227099 95.119141 42.893576 95.119141 42.556641 C 95.119141 36.219081 89.985958 31.078125 83.65625 31.078125 z M 68.404297 43.580078 C 68.382837 43.910571 68.371094 44.244274 68.371094 44.580078 C 68.371094 53.004636 75.21863 59.857422 83.628906 59.857422 C 92.044364 59.857422 98.892578 53.004636 98.892578 44.580078 C 98.892578 44.244274 98.882528 43.910571 98.861328 43.580078 C 98.344818 51.540224 91.708655 57.857422 83.628906 57.857422 C 75.554133 57.857422 68.920704 51.540224 68.404297 43.580078 z M 43.751953 70.208984 C 42.715549 70.336646 41.701626 70.588815 40.730469 70.957031 L 48.4375 74.148438 C 51.757562 75.531209 53.878885 78.580917 54.234375 81.923828 C 54.668732 77.847892 52.411863 73.803718 48.4375 72.148438 L 43.753906 70.208984 L 43.751953 70.208984 z M 58.146484 82.021484 C 58.040676 83.36805 57.721512 84.70244 57.1875 85.982422 C 54.447563 92.556353 46.887293 95.677527 40.316406 92.941406 C 38.354955 92.124798 36.705793 90.867483 35.427734 89.335938 L 35.425781 89.333984 L 33.677734 88.611328 C 34.998015 91.368137 37.285075 93.679376 40.316406 94.941406 C 46.887293 97.677527 54.447563 94.556353 57.1875 87.982422 C 57.985485 86.069719 58.304481 84.034497 58.146484 82.021484 z " /><path
       id="path1"
       style="fill:#909090;fill-opacity:1;stroke-width:0.517391"
       d="M 83.628906 25.306641 C 75.21863 25.306641 68.371094 32.162238 68.371094 40.580078 C 68.371094 40.916151 68.382838 41.249343 68.404297 41.580078 C 68.920752 33.6258 75.554133 27.306641 83.628906 27.306641 C 91.708655 27.306641 98.342862 33.6258 98.859375 41.580078 C 98.880836 41.249343 98.892578 40.916151 98.892578 40.580078 C 98.892578 32.162238 92.044364 25.306641 83.628906 25.306641 z M 72.238281 41.556641 C 72.209854 41.886191 72.195312 42.219735 72.195312 42.556641 C 72.195312 48.894716 77.32977 54.029297 83.654297 54.029297 C 89.984005 54.029297 95.119141 48.894716 95.119141 42.556641 C 95.119141 42.219731 95.104604 41.886195 95.076172 41.556641 C 94.56977 47.426109 89.647516 52.029297 83.654297 52.029297 C 77.665987 52.029297 72.74461 47.426104 72.238281 41.556641 z M 106.50977 41.580078 C 105.98525 53.758488 95.927588 63.513672 83.628906 63.513672 C 83.458116 63.513672 83.284073 63.507053 83.113281 63.501953 L 62 78.580078 C 62.062103 80.907588 61.634144 83.240777 60.712891 85.464844 C 57.172813 93.973197 47.359778 98.02209 38.849609 94.46875 C 33.648179 92.301577 30.120709 87.7962 28.970703 82.660156 L 11.5 75.455078 L 11.5 77.455078 L 28.970703 84.660156 C 30.120709 89.7962 33.648179 94.301577 38.849609 96.46875 C 47.359778 100.02209 57.172813 95.973197 60.712891 87.464844 C 61.634144 85.240777 62.062103 82.907588 62 80.580078 L 83.113281 65.501953 C 83.284073 65.507053 83.458116 65.513672 83.628906 65.513672 C 96.262438 65.513672 106.53125 55.220023 106.53125 42.580078 C 106.53125 42.24503 106.52405 41.911668 106.50977 41.580078 z M 45.417969 66.113281 C 43.80624 66.100348 42.215454 66.393255 40.728516 66.957031 L 43.751953 68.208984 C 44.302436 68.141353 44.858989 68.108796 45.417969 68.113281 C 47.029705 68.126221 48.662869 68.446643 50.242188 69.103516 C 53.426707 70.427613 55.89957 72.919364 57.208984 76.105469 C 57.729343 77.371621 58.042185 78.68946 58.146484 80.017578 C 58.303075 78.024305 57.990248 76.006464 57.208984 74.105469 C 55.89957 70.919364 53.426707 68.427613 50.242188 67.103516 C 48.662869 66.446643 47.029705 66.126221 45.417969 66.113281 z M 54.234375 79.921875 C 54.139393 80.813187 53.915336 81.706444 53.552734 82.576172 C 51.538403 87.417398 45.978682 89.714445 41.132812 87.697266 L 33.677734 84.611328 C 34.143215 85.583274 34.72971 86.49926 35.425781 87.333984 L 35.427734 87.335938 L 41.132812 89.697266 C 45.978682 91.714445 51.538403 89.417398 53.552734 84.576172 C 54.188328 83.051651 54.397498 81.455694 54.234375 79.921875 z " /></g></svg>
