<?xml version="1.0" encoding="UTF-8" standalone="no"?>
<!-- Created with Inkscape (http://www.inkscape.org/) -->

<svg
   width="128"
   height="128"
   viewBox="0 0 128 128"
   version="1.1"
   id="svg5"
   inkscape:version="1.4.3 (0d15f75042, 2025-12-25)"
   sodipodi:docname="com.getpostman.Postman.svg"
   xml:space="preserve"
   xmlns:inkscape="http://www.inkscape.org/namespaces/inkscape"
   xmlns:sodipodi="http://sodipodi.sourceforge.net/DTD/sodipodi-0.dtd"
   xmlns:xlink="http://www.w3.org/1999/xlink"
   xmlns="http://www.w3.org/2000/svg"
   xmlns:svg="http://www.w3.org/2000/svg"><sodipodi:namedview
     id="namedview7"
     pagecolor="#ffffff"
     bordercolor="#666666"
     borderopacity="1"
     inkscape:pageshadow="2"
     inkscape:pageopacity="0.0"
     inkscape:pagecheckerboard="true"
     inkscape:document-units="px"
     showgrid="false"
     inkscape:showpageshadow="false"
     showborder="true"
     inkscape:snap-page="true"
     inkscape:zoom="2.4303761"
     inkscape:cx="5.7604254"
     inkscape:cy="77.148555"
     inkscape:window-width="1728"
     inkscape:window-height="1043"
     inkscape:window-x="0"
     inkscape:window-y="0"
     inkscape:window-maximized="1"
     inkscape:current-layer="layer2"
     inkscape:snap-bbox="true"
     inkscape:snap-bbox-midpoints="true"
     inkscape:snap-bbox-edge-midpoints="true"
     inkscape:bbox-nodes="true"
     inkscape:bbox-paths="true"
     inkscape:snap-intersection-paths="true"
     inkscape:object-paths="true"
     inkscape:snap-smooth-nodes="true"
     inkscape:snap-midpoints="true"
     inkscape:snap-global="false"
     inkscape:deskcolor="#d1d1d1" /><defs
     id="defs2"><linearGradient
       inkscape:collect="always"
       id="linearGradient1020"><stop
         style="stop-color:#ffffff;stop-opacity:1;"
         offset="0"
         id="stop1016" /><stop
         style="stop-color:#ff8256;stop-opacity:1;"
         offset="1"
         id="stop1018" /></linearGradient><linearGradient
       inkscape:collect="always"
       id="linearGradient7939"><stop
         style="stop-color:#bf4720;stop-opacity:1;"
         offset="0"
         id="stop7935" /><stop
         style="stop-color:#bf4720;stop-opacity:1;"
         offset="0.30000001"
         id="stop8493" /><stop
         style="stop-color:#db552a;stop-opacity:1;"
         offset="0.5"
         id="stop8233" /><stop
         style="stop-color:#bf4720;stop-opacity:1;"
         offset="0.69999999"
         id="stop8751" /><stop
         style="stop-color:#bf4720;stop-opacity:1;"
         offset="1"
         id="stop7937" /></linearGradient><linearGradient
       y2="236"
       x2="96"
       y1="236"
       x1="32"
       gradientTransform="translate(604.81684,170.58641)"
       gradientUnits="userSpaceOnUse"
       id="linearGradient1099"
       xlink:href="#linearGradient1036" /><linearGradient
       id="linearGradient1036"><stop
         id="stop1032"
         offset="0"
         style="stop-color:#d5d3cf;stop-opacity:1;" /><stop
         id="stop1034"
         offset="1"
         style="stop-color:#f6f5f4;stop-opacity:1" /></linearGradient><radialGradient
       r="32"
       fy="-76"
       fx="-244"
       cy="-76"
       cx="-244"
       gradientTransform="matrix(0.88333331,0,0,0.88333331,-460.35018,463.11973)"
       gradientUnits="userSpaceOnUse"
       id="radialGradient1103"
       xlink:href="#linearGradient1069" /><linearGradient
       id="linearGradient1069"><stop
         id="stop1065"
         offset="0"
         style="stop-color:#d5d3cf;stop-opacity:1" /><stop
         id="stop1067-1"
         offset="1"
         style="stop-color:#949390;stop-opacity:1" /></linearGradient><linearGradient
       gradientUnits="userSpaceOnUse"
       y2="232"
       x2="64"
       y1="262.5"
       x1="64"
       id="linearGradient1027"
       xlink:href="#linearGradient1025"
       gradientTransform="translate(-470.5864,432.81685)" /><linearGradient
       id="linearGradient1025"><stop
         id="stop1021"
         offset="0"
         style="stop-color:#9a9996;stop-opacity:1" /><stop
         id="stop1023"
         offset="1"
         style="stop-color:#77767b;stop-opacity:1" /></linearGradient><inkscape:path-effect
       effect="spiro"
       id="path-effect35304-9"
       is_visible="true" /><clipPath
       clipPathUnits="userSpaceOnUse"
       id="clipPath1609-7"><path
         sodipodi:nodetypes="cccccc"
         inkscape:connector-curvature="0"
         id="path1611-5"
         d="m 252,116 28,-28 v -8 h -36 v 36 z"
         style="fill:#e74747;stroke:none;stroke-width:0.25px;stroke-linecap:butt;stroke-linejoin:miter;stroke-opacity:1" /></clipPath><radialGradient
       r="32"
       fy="-76"
       fx="-244"
       cy="-76"
       cx="-244"
       gradientTransform="matrix(0.88333331,0,0,0.88333331,-460.35018,463.11973)"
       gradientUnits="userSpaceOnUse"
       id="radialGradient1103-5"
       xlink:href="#linearGradient1069" /><inkscape:path-effect
       effect="spiro"
       id="path-effect35304-9-2"
       is_visible="true" /><clipPath
       clipPathUnits="userSpaceOnUse"
       id="clipPath1609-7-7"><path
         sodipodi:nodetypes="cccccc"
         inkscape:connector-curvature="0"
         id="path1611-5-0"
         d="m 252,116 28,-28 v -8 h -36 v 36 z"
         style="fill:#e74747;stroke:none;stroke-width:0.25px;stroke-linecap:butt;stroke-linejoin:miter;stroke-opacity:1" /></clipPath><clipPath
       clipPathUnits="userSpaceOnUse"
       id="clipPath744"><rect
         style="fill:#1e88e5;fill-opacity:1;stroke-width:0.264583"
         id="rect746"
         width="541.86664"
         height="541.86664"
         x="0"
         y="1.5987212e-14"
         rx="79.375"
         ry="79.375" /></clipPath><clipPath
       clipPathUnits="userSpaceOnUse"
       id="clipPath62"><rect
         style="fill:#1e88e5;fill-opacity:1;stroke-width:0.264583"
         id="rect64"
         width="541.86664"
         height="541.86664"
         x="2.2507105e-05"
         y="-0.42205024"
         rx="79.375"
         ry="79.375" /></clipPath><radialGradient
       r="32"
       fy="-76"
       fx="-244"
       cy="-76"
       cx="-244"
       gradientTransform="matrix(0.88333331,0,0,0.88333331,-460.35018,463.11973)"
       gradientUnits="userSpaceOnUse"
       id="radialGradient1103-6"
       xlink:href="#linearGradient1069" /><inkscape:path-effect
       effect="spiro"
       id="path-effect35304-9-20"
       is_visible="true" /><clipPath
       clipPathUnits="userSpaceOnUse"
       id="clipPath1609-7-2"><path
         sodipodi:nodetypes="cccccc"
         inkscape:connector-curvature="0"
         id="path1611-5-3"
         d="m 252,116 28,-28 v -8 h -36 v 36 z"
         style="fill:#e74747;stroke:none;stroke-width:0.25px;stroke-linecap:butt;stroke-linejoin:miter;stroke-opacity:1" /></clipPath><linearGradient
       inkscape:collect="always"
       xlink:href="#linearGradient7939"
       id="linearGradient7941"
       x1="9"
       y1="70"
       x2="119"
       y2="70"
       gradientUnits="userSpaceOnUse"
       gradientTransform="translate(0,-2)" /><clipPath
       clipPathUnits="userSpaceOnUse"
       id="clipPath961"><rect
         style="fill:#00c853;stroke:none;stroke-width:0.529037"
         id="rect963"
         width="541.86664"
         height="541.86664"
         x="1.4210855e-14"
         y="2.717972e-05"
         rx="79.375"
         ry="79.375" /></clipPath><radialGradient
       r="32"
       fy="-76"
       fx="-244"
       cy="-76"
       cx="-244"
       gradientTransform="matrix(0.88333331,0,0,0.88333331,-460.35018,463.11973)"
       gradientUnits="userSpaceOnUse"
       id="radialGradient1103-56"
       xlink:href="#linearGradient1069" /><inkscape:path-effect
       effect="spiro"
       id="path-effect35304-9-7"
       is_visible="true" /><clipPath
       clipPathUnits="userSpaceOnUse"
       id="clipPath1440"><circle
         style="display:inline;opacity:1;vector-effect:none;fill:none;fill-opacity:1;stroke:#000000;stroke-width:2;stroke-linecap:butt;stroke-linejoin:miter;stroke-miterlimit:4;stroke-dasharray:none;stroke-dashoffset:0;stroke-opacity:1;marker:none;marker-start:none;marker-mid:none;marker-end:none;paint-order:normal;enable-background:new"
         id="circle1442"
         cx="-134.35028"
         cy="193.74727"
         r="24"
         transform="rotate(-45)" /></clipPath><clipPath
       clipPathUnits="userSpaceOnUse"
       id="clipPath1430"><circle
         style="display:inline;opacity:1;vector-effect:none;fill:none;fill-opacity:1;stroke:#000000;stroke-width:2;stroke-linecap:butt;stroke-linejoin:miter;stroke-miterlimit:4;stroke-dasharray:none;stroke-dashoffset:0;stroke-opacity:1;marker:none;marker-start:none;marker-mid:none;marker-end:none;paint-order:normal;enable-background:new"
         id="circle1432"
         cx="12"
         cy="232"
         r="24" /></clipPath><clipPath
       clipPathUnits="userSpaceOnUse"
       id="clipPath1440-9"><circle
         style="display:inline;opacity:1;vector-effect:none;fill:none;fill-opacity:1;stroke:#000000;stroke-width:2;stroke-linecap:butt;stroke-linejoin:miter;stroke-miterlimit:4;stroke-dasharray:none;stroke-dashoffset:0;stroke-opacity:1;marker:none;marker-start:none;marker-mid:none;marker-end:none;paint-order:normal;enable-background:new"
         id="circle1442-5"
         cx="-134.35028"
         cy="193.74727"
         r="24"
         transform="rotate(-45)" /></clipPath><clipPath
       clipPathUnits="userSpaceOnUse"
       id="clipPath1430-1"><circle
         style="display:inline;opacity:1;vector-effect:none;fill:none;fill-opacity:1;stroke:#000000;stroke-width:2;stroke-linecap:butt;stroke-linejoin:miter;stroke-miterlimit:4;stroke-dasharray:none;stroke-dashoffset:0;stroke-opacity:1;marker:none;marker-start:none;marker-mid:none;marker-end:none;paint-order:normal;enable-background:new"
         id="circle1432-8"
         cx="12"
         cy="232"
         r="24" /></clipPath><clipPath
       clipPathUnits="userSpaceOnUse"
       id="clipPath2024"><rect
         style="opacity:1;vector-effect:none;fill:#63452c;fill-opacity:1;stroke:none;stroke-width:4;stroke-linecap:round;stroke-linejoin:round;stroke-miterlimit:4;stroke-dasharray:none;stroke-dashoffset:0;stroke-opacity:1"
         id="rect2026"
         width="74"
         height="98"
         x="6"
         y="196" /></clipPath><linearGradient
       id="linearGradient914"
       inkscape:collect="always"><stop
         id="stop910"
         offset="0"
         style="stop-color:#f6f5f4;stop-opacity:0.43700787" /><stop
         id="stop912"
         offset="1"
         style="stop-color:#deddda;stop-opacity:0;" /></linearGradient><radialGradient
       gradientTransform="matrix(2.6086955,0,0,1.8410361,-102.95652,-748.94671)"
       gradientUnits="userSpaceOnUse"
       r="46"
       fy="296"
       fx="64.000008"
       cy="296"
       cx="64.000008"
       id="radialGradient916"
       xlink:href="#linearGradient914"
       inkscape:collect="always" /><clipPath
       clipPathUnits="userSpaceOnUse"
       id="clipPath11543"><rect
         style="fill:#f0c04e;fill-opacity:1;stroke:none;stroke-width:0.529037"
         id="rect11545"
         width="541.86664"
         height="541.86664"
         x="1.4746095e-06"
         y="6.4330168e-05"
         rx="79.375"
         ry="79.375" /></clipPath><style
       id="style374">.cls-1{fill:url(#linear-gradient);}.cls-2{opacity:0.35;fill:url(#radial-gradient);}.cls-2,.cls-4{isolation:isolate;}.cls-3{fill:url(#linear-gradient-2);}.cls-4{opacity:0.41;fill:url(#radial-gradient-2);}.cls-5{fill:url(#radial-gradient-3);}.cls-6{fill:url(#radial-gradient-4);}</style><linearGradient
       id="linear-gradient"
       x1="63.33"
       y1="84.03"
       x2="241.67"
       y2="84.03"
       gradientTransform="matrix(1,0,0,-1,0,266)"
       gradientUnits="userSpaceOnUse"><stop
         offset="0"
         stop-color="#0c59a4"
         id="stop376" /><stop
         offset="1"
         stop-color="#114a8b"
         id="stop378" /></linearGradient><radialGradient
       id="radial-gradient"
       cx="161.83"
       cy="68.91"
       r="95.38"
       gradientTransform="matrix(1,0,0,-0.95,0,248.84)"
       gradientUnits="userSpaceOnUse"><stop
         offset="0.72"
         stop-opacity="0"
         id="stop381" /><stop
         offset="0.95"
         stop-opacity="0.53"
         id="stop383" /><stop
         offset="1"
         id="stop385" /></radialGradient><linearGradient
       id="linear-gradient-2"
       x1="157.35"
       y1="161.39"
       x2="45.96"
       y2="40.06"
       gradientTransform="matrix(1,0,0,-1,0,266)"
       gradientUnits="userSpaceOnUse"><stop
         offset="0"
         stop-color="#1b9de2"
         id="stop388" /><stop
         offset="0.16"
         stop-color="#1595df"
         id="stop390" /><stop
         offset="0.67"
         stop-color="#0680d7"
         id="stop392" /><stop
         offset="1"
         stop-color="#0078d4"
         id="stop394" /></linearGradient><radialGradient
       id="radial-gradient-2"
       cx="-340.29"
       cy="62.99"
       r="143.24"
       gradientTransform="matrix(0.15,-0.99,-0.8,-0.12,176.64,-125.4)"
       gradientUnits="userSpaceOnUse"><stop
         offset="0.76"
         stop-opacity="0"
         id="stop397" /><stop
         offset="0.95"
         stop-opacity="0.5"
         id="stop399" /><stop
         offset="1"
         id="stop401" /></radialGradient><radialGradient
       id="radial-gradient-3"
       cx="113.37"
       cy="570.21"
       r="202.43"
       gradientTransform="matrix(-0.04,1,2.13,0.08,-1179.54,-106.69)"
       gradientUnits="userSpaceOnUse"><stop
         offset="0"
         stop-color="#35c1f1"
         id="stop404" /><stop
         offset="0.11"
         stop-color="#34c1ed"
         id="stop406" /><stop
         offset="0.23"
         stop-color="#2fc2df"
         id="stop408" /><stop
         offset="0.31"
         stop-color="#2bc3d2"
         id="stop410" /><stop
         offset="0.67"
         stop-color="#36c752"
         id="stop412" /></radialGradient><radialGradient
       id="radial-gradient-4"
       cx="376.52"
       cy="567.97"
       r="97.34"
       gradientTransform="matrix(0.28,0.96,0.78,-0.23,-303.76,-148.5)"
       gradientUnits="userSpaceOnUse"><stop
         offset="0"
         stop-color="#66eb6e"
         id="stop415" /><stop
         offset="1"
         stop-color="#66eb6e"
         stop-opacity="0"
         id="stop417" /></radialGradient><clipPath
       clipPathUnits="userSpaceOnUse"
       id="clipPath1260"><rect
         style="fill:#bbdefb;fill-opacity:1;stroke:none;stroke-width:0.529037"
         id="rect1262"
         width="541.86664"
         height="541.86664"
         x="2.9492187e-06"
         y="3.9968629e-05"
         rx="79.375"
         ry="79.375" /></clipPath><clipPath
       clipPathUnits="userSpaceOnUse"
       id="clipPath16285"><rect
         style="fill:#bbdefb;fill-opacity:1;stroke:none;stroke-width:0.529037"
         id="rect16287"
         width="541.86664"
         height="541.86664"
         x="0"
         y="6.4807005e-05"
         rx="79.375"
         ry="79.375" /></clipPath><clipPath
       clipPathUnits="userSpaceOnUse"
       id="clipPath990"><rect
         style="fill:#bbdefb;fill-opacity:1;stroke:none;stroke-width:0.529037"
         id="rect992"
         width="487.67996"
         height="487.67996"
         x="27.093349"
         y="27.093338"
         rx="71.4375"
         ry="71.4375" /></clipPath><radialGradient
       r="32"
       fy="-76"
       fx="-244"
       cy="-76"
       cx="-244"
       gradientTransform="matrix(0.88333331,0,0,0.88333331,-460.35018,463.11973)"
       gradientUnits="userSpaceOnUse"
       id="radialGradient1103-562"
       xlink:href="#linearGradient1069" /><inkscape:path-effect
       effect="spiro"
       id="path-effect35304-9-0"
       is_visible="true" /><clipPath
       clipPathUnits="userSpaceOnUse"
       id="clipPath1609-7-9"><path
         sodipodi:nodetypes="cccccc"
         inkscape:connector-curvature="0"
         id="path1611-5-36"
         d="m 252,116 28,-28 v -8 h -36 v 36 z"
         style="fill:#e74747;stroke:none;stroke-width:0.25px;stroke-linecap:butt;stroke-linejoin:miter;stroke-opacity:1" /></clipPath><radialGradient
       r="32"
       fy="-76"
       fx="-244"
       cy="-76"
       cx="-244"
       gradientTransform="matrix(0.88333331,0,0,0.88333331,-460.35018,463.11973)"
       gradientUnits="userSpaceOnUse"
       id="radialGradient1103-5-0"
       xlink:href="#linearGradient1069" /><inkscape:path-effect
       effect="spiro"
       id="path-effect35304-9-2-6"
       is_visible="true" /><clipPath
       clipPathUnits="userSpaceOnUse"
       id="clipPath1609-7-7-2"><path
         sodipodi:nodetypes="cccccc"
         inkscape:connector-curvature="0"
         id="path1611-5-0-6"
         d="m 252,116 28,-28 v -8 h -36 v 36 z"
         style="fill:#e74747;stroke:none;stroke-width:0.25px;stroke-linecap:butt;stroke-linejoin:miter;stroke-opacity:1" /></clipPath><clipPath
       clipPathUnits="userSpaceOnUse"
       id="clipPath744-1"><rect
         style="fill:#1e88e5;fill-opacity:1;stroke-width:0.264583"
         id="rect746-8"
         width="541.86664"
         height="541.86664"
         x="0"
         y="1.5987212e-14"
         rx="79.375"
         ry="79.375" /></clipPath><clipPath
       clipPathUnits="userSpaceOnUse"
       id="clipPath62-7"><rect
         style="fill:#1e88e5;fill-opacity:1;stroke-width:0.264583"
         id="rect64-9"
         width="541.86664"
         height="541.86664"
         x="2.2507105e-05"
         y="-0.42205024"
         rx="79.375"
         ry="79.375" /></clipPath><radialGradient
       r="32"
       fy="-76"
       fx="-244"
       cy="-76"
       cx="-244"
       gradientTransform="matrix(0.88333331,0,0,0.88333331,-460.35018,463.11973)"
       gradientUnits="userSpaceOnUse"
       id="radialGradient1103-6-2"
       xlink:href="#linearGradient1069" /><inkscape:path-effect
       effect="spiro"
       id="path-effect35304-9-20-0"
       is_visible="true" /><clipPath
       clipPathUnits="userSpaceOnUse"
       id="clipPath1609-7-2-2"><path
         sodipodi:nodetypes="cccccc"
         inkscape:connector-curvature="0"
         id="path1611-5-3-3"
         d="m 252,116 28,-28 v -8 h -36 v 36 z"
         style="fill:#e74747;stroke:none;stroke-width:0.25px;stroke-linecap:butt;stroke-linejoin:miter;stroke-opacity:1" /></clipPath><clipPath
       clipPathUnits="userSpaceOnUse"
       id="clipPath961-7"><rect
         style="fill:#00c853;stroke:none;stroke-width:0.529037"
         id="rect963-5"
         width="541.86664"
         height="541.86664"
         x="1.4210855e-14"
         y="2.717972e-05"
         rx="79.375"
         ry="79.375" /></clipPath><clipPath
       clipPathUnits="userSpaceOnUse"
       id="clipPath1966"><rect
         style="fill:#e6e6e6;fill-opacity:1;stroke:none;stroke-width:0.478023"
         id="rect1968"
         width="523.51349"
         height="379.86176"
         x="18.353197"
         y="67.773338"
         rx="0"
         ry="0" /></clipPath><clipPath
       clipPathUnits="userSpaceOnUse"
       id="clipPath1979"><rect
         style="fill:#d32f2f;stroke:none;stroke-width:0.529037"
         id="rect1981"
         width="541.86664"
         height="541.86664"
         x="2.1816406e-05"
         y="0.00011160309"
         rx="79.375"
         ry="79.375" /></clipPath><linearGradient
       inkscape:collect="always"
       xlink:href="#linearGradient1020"
       id="linearGradient1022"
       x1="64"
       y1="5"
       x2="64"
       y2="115"
       gradientUnits="userSpaceOnUse" /></defs><g
     inkscape:groupmode="layer"
     id="layer2"
     inkscape:label="Layer 1"><path
       id="circle1035"
       style="fill:url(#linearGradient7941);fill-opacity:1"
       d="M 64 5 A 55 55 0 0 0 9 60 L 9 68 A 55 55 0 0 0 64 123 A 55 55 0 0 0 119 68 L 119 60 A 55 55 0 0 0 64 5 z " /><circle
       style="fill:url(#linearGradient1022);fill-opacity:1"
       id="path953"
       cx="64"
       cy="60"
       r="55" /><circle
       style="fill:#ff6c37;fill-opacity:1;stroke-width:0.955275"
       id="circle400"
       cx="64"
       cy="60"
       r="52.540085" /><path
       id="path11"
       style="fill:#db5b2c;fill-opacity:1;stroke-width:2.38154"
       d="m 66.011013,30.250519 c -5.313226,0.0053 -10.552638,1.202053 -15.339543,3.501199 -4.789285,2.299142 -8.998949,5.643985 -12.321204,9.785728 -3.324637,4.141503 -5.673779,8.975111 -6.881222,14.14616 -1.209824,5.171047 -1.244665,10.546869 -0.09914,15.73244 1.147904,5.185339 3.442452,10.049098 6.712312,14.230616 3.272241,4.181515 7.441706,7.574874 12.200031,9.932606 4.760707,2.357724 9.98647,3.616612 15.297314,3.686622 5.308463,0.07 10.564651,-1.05168 15.387278,-3.282706 v -3.760072 h -3.76007 l -20.392135,-20.3903 c -0.276259,-0.276735 -0.494388,-0.603965 -0.644426,-0.965721 -0.152419,-0.361518 -0.229497,-0.750449 -0.229497,-1.141975 0,-0.391525 0.07707,-0.77862 0.229497,-1.140138 0.150038,-0.361517 0.368167,-0.691297 0.644426,-0.967556 L 88.37131,38.086446 v -3.760069 h -3.763741 v 1.11627 C 79.03312,32.042677 72.599794,30.229289 66.011013,30.250519 Z M 92.704203,42.180663 66.890444,67.89528 v -0.01102 h -3.763743 v 3.760069 l 23.195665,23.195664 c 1.707568,-1.199583 3.304459,-2.557165 4.764346,-4.050153 6.356341,-6.400161 10.056088,-14.967008 10.358548,-23.983296 0.2977,-9.016288 -2.822917,-17.816339 -8.741057,-24.625886 z m -1.856167,17.289344 c 0.395336,-0.009 0.784941,0.06943 1.149318,0.223988 0.361994,0.154325 0.687972,0.383018 0.954705,0.673802 0.264352,0.290787 0.464216,0.634691 0.585675,1.009784 1.174101,2.379401 1.638498,5.049724 1.338423,7.685377 -0.304837,2.636133 -1.36287,5.127257 -3.051385,7.176813 -0.259588,0.309363 -0.582986,0.557816 -0.947361,0.730716 -0.366757,0.172424 -0.765942,0.263526 -1.173185,0.268053 -0.521559,-0.0017 -1.033701,-0.149953 -1.474285,-0.431454 -0.440586,-0.281734 -0.797482,-0.684333 -1.018965,-1.158498 -0.221484,-0.474166 -0.303521,-1.000769 -0.23684,-1.520184 0.06668,-0.519416 0.278506,-1.01234 0.609543,-1.415535 1.016919,-1.234593 1.659192,-2.736583 1.837807,-4.325549 0.18338,-1.588726 -0.103097,-3.196222 -0.815172,-4.628484 -0.21672,-0.32865 -0.359062,-0.697512 -0.418601,-1.086895 -0.0643,-0.388907 -0.04421,-0.787581 0.06058,-1.167678 0.102407,-0.380094 0.287332,-0.734153 0.539776,-1.037324 0.252443,-0.302694 0.570479,-0.550306 0.925329,-0.721537 0.354851,-0.17147 0.741676,-0.265869 1.134631,-0.275395 z" /><path
       id="path4"
       style="fill:#b2b2b2;fill-opacity:1;stroke-width:2.38154"
       d="m 66.011013,26.49045 c -5.313226,0.0053 -10.552638,1.202052 -15.339543,3.501198 -4.789285,2.299142 -8.998949,5.643985 -12.321204,9.785728 -3.324637,4.141503 -5.673779,8.975111 -6.881222,14.14616 -1.209824,5.171048 -1.244665,10.546869 -0.09914,15.73244 1.147904,5.18534 3.442452,10.049098 6.712312,14.230616 3.272241,4.181515 7.441706,7.574875 12.200031,9.932606 4.760707,2.357724 9.98647,3.616614 15.297314,3.686627 5.308463,0.07003 10.564651,-1.051682 15.387278,-3.282713 v -3.76007 h -3.76007 L 56.814632,70.072743 c -0.276259,-0.276736 -0.494388,-0.603965 -0.644426,-0.965722 -0.152419,-0.361518 -0.229497,-0.750449 -0.229497,-1.141974 0,-0.391526 0.07707,-0.77862 0.229497,-1.140139 0.150038,-0.361517 0.368167,-0.691297 0.644426,-0.967556 L 88.37131,34.326377 v -3.76007 h -3.763741 v 1.116271 C 79.03312,28.282607 72.599794,26.469219 66.011013,26.49045 Z M 92.704203,38.420593 66.890444,64.13521 v -0.01102 h -3.763743 v 3.76007 l 23.195665,23.195664 c 1.707568,-1.199584 3.304459,-2.557165 4.764346,-4.050154 6.356341,-6.400161 10.056088,-14.967008 10.358548,-23.983296 0.2977,-9.016288 -2.822917,-17.816338 -8.741057,-24.625886 z m -1.856167,17.289344 c 0.395336,-0.009 0.784941,0.06943 1.149318,0.223988 0.361994,0.154325 0.687972,0.383018 0.954705,0.673802 0.264352,0.290787 0.464216,0.634691 0.585675,1.009785 1.174101,2.3794 1.638498,5.049723 1.338423,7.685376 -0.304837,2.636133 -1.36287,5.127258 -3.051385,7.176813 -0.259588,0.309363 -0.582986,0.557816 -0.947361,0.730716 -0.366757,0.172424 -0.765942,0.263527 -1.173185,0.268053 -0.521559,-0.0017 -1.033701,-0.149953 -1.474285,-0.431454 -0.440586,-0.281734 -0.797482,-0.684333 -1.018965,-1.158498 -0.221484,-0.474166 -0.303521,-1.000769 -0.23684,-1.520184 0.06668,-0.519415 0.278506,-1.01234 0.609543,-1.415535 1.016919,-1.234592 1.659192,-2.736582 1.837807,-4.325548 0.18338,-1.588727 -0.103097,-3.196223 -0.815172,-4.628484 -0.21672,-0.32865 -0.359062,-0.697513 -0.418601,-1.086896 -0.0643,-0.388906 -0.04421,-0.787581 0.06058,-1.167678 0.102407,-0.380094 0.287332,-0.734153 0.539776,-1.037323 0.252443,-0.302694 0.570479,-0.550307 0.925329,-0.721538 0.354851,-0.171469 0.741676,-0.265869 1.134631,-0.275395 z" /><path
       id="path3"
       style="fill:#f1f1f1;fill-opacity:1;stroke-width:2.38154"
       d="m 66.011013,22.73038 c -5.313226,0.0053 -10.552638,1.202053 -15.339543,3.501198 -4.789285,2.299143 -8.998949,5.643985 -12.321204,9.785728 -3.324637,4.141504 -5.673779,8.975112 -6.881222,14.146161 -1.209824,5.171047 -1.244665,10.546868 -0.09914,15.73244 1.147904,5.185339 3.442452,10.049097 6.712312,14.230615 3.272241,4.181515 7.441706,7.574875 12.200031,9.932606 4.760707,2.357726 9.98647,3.616615 15.297314,3.686631 5.308463,0.07001 10.564651,-1.051686 15.387278,-3.282717 L 56.814632,66.312673 c -0.276259,-0.276736 -0.494388,-0.603965 -0.644426,-0.965721 -0.152419,-0.361519 -0.229497,-0.750449 -0.229497,-1.141975 0,-0.391526 0.07707,-0.77862 0.229497,-1.140139 0.150038,-0.361517 0.368167,-0.691297 0.644426,-0.967556 L 88.37131,30.566307 C 82.036402,25.470755 74.141604,22.704181 66.011013,22.73038 Z m 26.69319,11.930144 -29.577502,29.463671 23.195665,23.195664 c 1.707568,-1.199584 3.304459,-2.557165 4.764346,-4.050154 6.356341,-6.400161 10.056088,-14.967008 10.358548,-23.983296 0.2977,-9.016288 -2.822917,-17.816338 -8.741057,-24.625885 z m -1.856167,17.289343 c 0.395336,-0.009 0.784941,0.06943 1.149318,0.223989 0.361994,0.154324 0.687972,0.383017 0.954705,0.673801 0.264352,0.290787 0.464216,0.634692 0.585675,1.009785 1.174101,2.3794 1.638498,5.049724 1.338423,7.685377 -0.304837,2.636133 -1.36287,5.127257 -3.051385,7.176813 -0.259588,0.309362 -0.582986,0.557815 -0.947361,0.730716 -0.366757,0.172423 -0.765942,0.263526 -1.173185,0.268052 -0.521559,-0.0017 -1.033701,-0.149952 -1.474285,-0.431454 -0.440586,-0.281733 -0.797482,-0.684332 -1.018965,-1.158498 -0.221484,-0.474165 -0.303521,-1.000769 -0.23684,-1.520184 0.06668,-0.519415 0.278507,-1.012339 0.609543,-1.415534 1.016919,-1.234593 1.659192,-2.736583 1.837807,-4.325549 0.18338,-1.588726 -0.103097,-3.196223 -0.815172,-4.628484 -0.21672,-0.32865 -0.359062,-0.697513 -0.418601,-1.086895 -0.0643,-0.388907 -0.04421,-0.787582 0.06058,-1.167679 0.102407,-0.380094 0.287332,-0.734152 0.539776,-1.037323 0.252443,-0.302694 0.570479,-0.550307 0.925329,-0.721538 0.354851,-0.17147 0.741676,-0.265868 1.134631,-0.275395 z" /><path
       id="path12"
       style="fill:#ffffff;fill-opacity:1;stroke-width:2.38154"
       d="m 66.011013,22.73038 c -5.313226,0.0053 -10.552638,1.202053 -15.339543,3.501198 -4.789285,2.299143 -8.998949,5.643985 -12.321204,9.785728 -3.324638,4.141504 -5.673779,8.975112 -6.881222,14.146161 -0.693954,2.96611 -1.001896,5.999328 -0.921658,9.025636 0.06361,-2.399539 0.371386,-4.793619 0.921658,-7.145601 1.207443,-5.171049 3.556584,-10.004658 6.881222,-14.146161 3.322255,-4.141743 7.531919,-7.486585 12.321204,-9.785728 4.786905,-2.299145 10.026317,-3.495934 15.339543,-3.501198 7.682895,-0.02476 15.154485,2.443961 21.299106,7.015247 L 88.37131,30.566307 C 82.036402,25.470755 74.141604,22.704181 66.011013,22.73038 Z m 26.69319,11.930144 -29.577502,29.463671 0.941853,0.941853 28.635649,-28.52549 c 5.453,6.274342 8.531137,14.239116 8.748397,22.505339 0.23471,-8.931965 -2.883001,-17.63652 -8.748397,-24.385373 z m -4.389808,20.992498 c -0.02481,0.06907 -0.04695,0.140081 -0.0661,0.211136 -0.104793,0.380097 -0.124884,0.778772 -0.06059,1.167679 0.05954,0.389382 0.201881,0.758245 0.418601,1.086895 0.430695,0.866294 0.70567,1.796868 0.815172,2.748449 0.183339,-1.588671 -0.103123,-3.196274 -0.815172,-4.628484 -0.12103,-0.183539 -0.21875,-0.380483 -0.291919,-0.585675 z m 6.618677,5.265566 c -0.01419,0.208287 -0.03323,0.416215 -0.05691,0.624231 -0.304837,2.636133 -1.36287,5.127257 -3.051385,7.176813 -0.259588,0.309362 -0.582986,0.557815 -0.947361,0.730716 -0.366757,0.172423 -0.765942,0.263526 -1.173185,0.268052 -0.521559,-0.0017 -1.033701,-0.149952 -1.474285,-0.431454 -0.440586,-0.281733 -0.797482,-0.684332 -1.018965,-1.158498 -0.03519,-0.07533 -0.06736,-0.151761 -0.09547,-0.229496 -0.06818,0.190054 -0.115468,0.387594 -0.14137,0.589347 -0.06668,0.519415 0.01536,1.046018 0.23684,1.520184 0.221483,0.474165 0.578379,0.876765 1.018965,1.158498 0.440584,0.281501 0.952726,0.429761 1.474285,0.431454 0.407243,-0.0045 0.806428,-0.09563 1.173185,-0.268053 0.364375,-0.1729 0.687773,-0.421353 0.947361,-0.730715 1.688515,-2.049556 2.746548,-4.54068 3.051385,-7.176814 0.09505,-0.834826 0.113521,-1.672828 0.05691,-2.504265 z m -38.838141,4.226406 c -0.101943,0.302418 -0.154222,0.620156 -0.154222,0.940018 0,0.391526 0.07708,0.780456 0.229497,1.141974 0.150038,0.361757 0.368167,0.688986 0.644426,0.965722 l 22.844993,22.843157 c 0.438967,-0.182092 0.874937,-0.372845 1.307212,-0.572823 L 56.814632,66.312673 c -0.276259,-0.276736 -0.494388,-0.603965 -0.644426,-0.965721 -0.0279,-0.06617 -0.05244,-0.1341 -0.07527,-0.201958 z" /></g></svg>
