<?xml version="1.0" encoding="UTF-8" standalone="no"?>
<!-- Created with Inkscape (http://www.inkscape.org/) -->

<svg
   width="128"
   height="128"
   viewBox="0 0 128 128"
   version="1.1"
   id="svg5"
   inkscape:version="1.4.3 (0d15f75042, 2025-12-25)"
   sodipodi:docname="com.modrinth.ModrinthApp.svg"
   inkscape:export-filename="/home/retro/.icons/skeuowaita/scalable/apps/skeuowaita.png"
   inkscape:export-xdpi="1536"
   inkscape:export-ydpi="1536"
   xml:space="preserve"
   xmlns:inkscape="http://www.inkscape.org/namespaces/inkscape"
   xmlns:sodipodi="http://sodipodi.sourceforge.net/DTD/sodipodi-0.dtd"
   xmlns:xlink="http://www.w3.org/1999/xlink"
   xmlns="http://www.w3.org/2000/svg"
   xmlns:svg="http://www.w3.org/2000/svg"><sodipodi:namedview
     id="namedview7"
     pagecolor="#ffffff"
     bordercolor="#666666"
     borderopacity="1"
     inkscape:pageshadow="2"
     inkscape:pageopacity="0.0"
     inkscape:pagecheckerboard="true"
     inkscape:document-units="px"
     showgrid="false"
     inkscape:showpageshadow="false"
     showborder="true"
     inkscape:snap-page="true"
     inkscape:zoom="3.3400291"
     inkscape:cx="25.299181"
     inkscape:cy="98.352435"
     inkscape:window-width="1728"
     inkscape:window-height="1043"
     inkscape:window-x="0"
     inkscape:window-y="0"
     inkscape:window-maximized="1"
     inkscape:current-layer="layer2"
     inkscape:snap-bbox="true"
     inkscape:snap-bbox-midpoints="true"
     inkscape:snap-bbox-edge-midpoints="true"
     inkscape:bbox-nodes="true"
     inkscape:bbox-paths="true"
     inkscape:snap-intersection-paths="true"
     inkscape:object-paths="true"
     inkscape:snap-smooth-nodes="true"
     inkscape:snap-midpoints="true"
     inkscape:deskcolor="#d1d1d1" /><defs
     id="defs2"><linearGradient
       id="linearGradient5"
       inkscape:collect="always"><stop
         style="stop-color:#25d06c;stop-opacity:1;"
         offset="0"
         id="stop5" /><stop
         style="stop-color:#68eca7;stop-opacity:1;"
         offset="0.97723436"
         id="stop6" /></linearGradient><linearGradient
       inkscape:collect="always"
       id="linearGradient4539"><stop
         style="stop-color:#53566b;stop-opacity:1;"
         offset="0"
         id="stop4535" /><stop
         style="stop-color:#d5d9e0;stop-opacity:1;"
         offset="1"
         id="stop4537" /></linearGradient><linearGradient
       inkscape:collect="always"
       id="linearGradient5042"><stop
         style="stop-color:#393b48;stop-opacity:1;"
         offset="0"
         id="stop5038" /><stop
         style="stop-color:#393b48;stop-opacity:1;"
         offset="0.29999998"
         id="stop12907" /><stop
         style="stop-color:#484a59;stop-opacity:1;"
         offset="0.49999997"
         id="stop7880" /><stop
         style="stop-color:#393b48;stop-opacity:1;"
         offset="0.69999999"
         id="stop12905" /><stop
         style="stop-color:#393b48;stop-opacity:1;"
         offset="1"
         id="stop5040" /></linearGradient><linearGradient
       y2="236"
       x2="96"
       y1="236"
       x1="32"
       gradientTransform="translate(604.81684,170.58641)"
       gradientUnits="userSpaceOnUse"
       id="linearGradient1099"
       xlink:href="#linearGradient1036" /><linearGradient
       id="linearGradient1036"><stop
         id="stop1032"
         offset="0"
         style="stop-color:#d5d3cf;stop-opacity:1;" /><stop
         id="stop1034"
         offset="1"
         style="stop-color:#f6f5f4;stop-opacity:1" /></linearGradient><radialGradient
       r="32"
       fy="-76"
       fx="-244"
       cy="-76"
       cx="-244"
       gradientTransform="matrix(0.88333331,0,0,0.88333331,-460.35018,463.11973)"
       gradientUnits="userSpaceOnUse"
       id="radialGradient1103"
       xlink:href="#linearGradient1069" /><linearGradient
       id="linearGradient1069"><stop
         id="stop1065"
         offset="0"
         style="stop-color:#d5d3cf;stop-opacity:1" /><stop
         id="stop1067-1"
         offset="1"
         style="stop-color:#949390;stop-opacity:1" /></linearGradient><linearGradient
       gradientUnits="userSpaceOnUse"
       y2="232"
       x2="64"
       y1="262.5"
       x1="64"
       id="linearGradient1027"
       xlink:href="#linearGradient1025"
       gradientTransform="translate(-470.5864,432.81685)" /><linearGradient
       id="linearGradient1025"><stop
         id="stop1021"
         offset="0"
         style="stop-color:#9a9996;stop-opacity:1" /><stop
         id="stop1023"
         offset="1"
         style="stop-color:#77767b;stop-opacity:1" /></linearGradient><inkscape:path-effect
       effect="spiro"
       id="path-effect35304-9"
       is_visible="true" /><clipPath
       clipPathUnits="userSpaceOnUse"
       id="clipPath1609-7"><path
         sodipodi:nodetypes="cccccc"
         inkscape:connector-curvature="0"
         id="path1611-5"
         d="m 252,116 28,-28 v -8 h -36 v 36 z"
         style="fill:#e74747;stroke:none;stroke-width:0.25px;stroke-linecap:butt;stroke-linejoin:miter;stroke-opacity:1" /></clipPath><radialGradient
       r="32"
       fy="-76"
       fx="-244"
       cy="-76"
       cx="-244"
       gradientTransform="matrix(0.88333331,0,0,0.88333331,-460.35018,463.11973)"
       gradientUnits="userSpaceOnUse"
       id="radialGradient1103-5"
       xlink:href="#linearGradient1069" /><inkscape:path-effect
       effect="spiro"
       id="path-effect35304-9-2"
       is_visible="true" /><clipPath
       clipPathUnits="userSpaceOnUse"
       id="clipPath1609-7-7"><path
         sodipodi:nodetypes="cccccc"
         inkscape:connector-curvature="0"
         id="path1611-5-0"
         d="m 252,116 28,-28 v -8 h -36 v 36 z"
         style="fill:#e74747;stroke:none;stroke-width:0.25px;stroke-linecap:butt;stroke-linejoin:miter;stroke-opacity:1" /></clipPath><clipPath
       clipPathUnits="userSpaceOnUse"
       id="clipPath744"><rect
         style="fill:#1e88e5;fill-opacity:1;stroke-width:0.264583"
         id="rect746"
         width="541.86664"
         height="541.86664"
         x="0"
         y="1.5987212e-14"
         rx="79.375"
         ry="79.375" /></clipPath><clipPath
       clipPathUnits="userSpaceOnUse"
       id="clipPath62"><rect
         style="fill:#1e88e5;fill-opacity:1;stroke-width:0.264583"
         id="rect64"
         width="541.86664"
         height="541.86664"
         x="2.2507105e-05"
         y="-0.42205024"
         rx="79.375"
         ry="79.375" /></clipPath><radialGradient
       r="32"
       fy="-76"
       fx="-244"
       cy="-76"
       cx="-244"
       gradientTransform="matrix(0.88333331,0,0,0.88333331,-460.35018,463.11973)"
       gradientUnits="userSpaceOnUse"
       id="radialGradient1103-6"
       xlink:href="#linearGradient1069" /><inkscape:path-effect
       effect="spiro"
       id="path-effect35304-9-20"
       is_visible="true" /><clipPath
       clipPathUnits="userSpaceOnUse"
       id="clipPath1609-7-2"><path
         sodipodi:nodetypes="cccccc"
         inkscape:connector-curvature="0"
         id="path1611-5-3"
         d="m 252,116 28,-28 v -8 h -36 v 36 z"
         style="fill:#e74747;stroke:none;stroke-width:0.25px;stroke-linecap:butt;stroke-linejoin:miter;stroke-opacity:1" /></clipPath><clipPath
       clipPathUnits="userSpaceOnUse"
       id="clipPath961"><rect
         style="fill:#00c853;stroke:none;stroke-width:0.529037"
         id="rect963"
         width="541.86664"
         height="541.86664"
         x="1.4210855e-14"
         y="2.717972e-05"
         rx="79.375"
         ry="79.375" /></clipPath><radialGradient
       r="32"
       fy="-76"
       fx="-244"
       cy="-76"
       cx="-244"
       gradientTransform="matrix(0.88333331,0,0,0.88333331,-460.35018,463.11973)"
       gradientUnits="userSpaceOnUse"
       id="radialGradient1103-56"
       xlink:href="#linearGradient1069" /><inkscape:path-effect
       effect="spiro"
       id="path-effect35304-9-7"
       is_visible="true" /><clipPath
       clipPathUnits="userSpaceOnUse"
       id="clipPath1440"><circle
         style="display:inline;opacity:1;vector-effect:none;fill:none;fill-opacity:1;stroke:#000000;stroke-width:2;stroke-linecap:butt;stroke-linejoin:miter;stroke-miterlimit:4;stroke-dasharray:none;stroke-dashoffset:0;stroke-opacity:1;marker:none;marker-start:none;marker-mid:none;marker-end:none;paint-order:normal;enable-background:new"
         id="circle1442"
         cx="-134.35028"
         cy="193.74727"
         r="24"
         transform="rotate(-45)" /></clipPath><clipPath
       clipPathUnits="userSpaceOnUse"
       id="clipPath1430"><circle
         style="display:inline;opacity:1;vector-effect:none;fill:none;fill-opacity:1;stroke:#000000;stroke-width:2;stroke-linecap:butt;stroke-linejoin:miter;stroke-miterlimit:4;stroke-dasharray:none;stroke-dashoffset:0;stroke-opacity:1;marker:none;marker-start:none;marker-mid:none;marker-end:none;paint-order:normal;enable-background:new"
         id="circle1432"
         cx="12"
         cy="232"
         r="24" /></clipPath><clipPath
       clipPathUnits="userSpaceOnUse"
       id="clipPath1440-9"><circle
         style="display:inline;opacity:1;vector-effect:none;fill:none;fill-opacity:1;stroke:#000000;stroke-width:2;stroke-linecap:butt;stroke-linejoin:miter;stroke-miterlimit:4;stroke-dasharray:none;stroke-dashoffset:0;stroke-opacity:1;marker:none;marker-start:none;marker-mid:none;marker-end:none;paint-order:normal;enable-background:new"
         id="circle1442-5"
         cx="-134.35028"
         cy="193.74727"
         r="24"
         transform="rotate(-45)" /></clipPath><clipPath
       clipPathUnits="userSpaceOnUse"
       id="clipPath1430-1"><circle
         style="display:inline;opacity:1;vector-effect:none;fill:none;fill-opacity:1;stroke:#000000;stroke-width:2;stroke-linecap:butt;stroke-linejoin:miter;stroke-miterlimit:4;stroke-dasharray:none;stroke-dashoffset:0;stroke-opacity:1;marker:none;marker-start:none;marker-mid:none;marker-end:none;paint-order:normal;enable-background:new"
         id="circle1432-8"
         cx="12"
         cy="232"
         r="24" /></clipPath><clipPath
       clipPathUnits="userSpaceOnUse"
       id="clipPath2024"><rect
         style="opacity:1;vector-effect:none;fill:#63452c;fill-opacity:1;stroke:none;stroke-width:4;stroke-linecap:round;stroke-linejoin:round;stroke-miterlimit:4;stroke-dasharray:none;stroke-dashoffset:0;stroke-opacity:1"
         id="rect2026"
         width="74"
         height="98"
         x="6"
         y="196" /></clipPath><linearGradient
       id="linearGradient914"
       inkscape:collect="always"><stop
         id="stop910"
         offset="0"
         style="stop-color:#f6f5f4;stop-opacity:0.43700787" /><stop
         id="stop912"
         offset="1"
         style="stop-color:#deddda;stop-opacity:0;" /></linearGradient><radialGradient
       gradientTransform="matrix(2.6086955,0,0,1.8410361,-102.95652,-748.94671)"
       gradientUnits="userSpaceOnUse"
       r="46"
       fy="296"
       fx="64.000008"
       cy="296"
       cx="64.000008"
       id="radialGradient916"
       xlink:href="#linearGradient914"
       inkscape:collect="always" /><clipPath
       clipPathUnits="userSpaceOnUse"
       id="clipPath11543"><rect
         style="fill:#f0c04e;fill-opacity:1;stroke:none;stroke-width:0.529037"
         id="rect11545"
         width="541.86664"
         height="541.86664"
         x="1.4746095e-06"
         y="6.4330168e-05"
         rx="79.375"
         ry="79.375" /></clipPath><style
       id="style374">.cls-1{fill:url(#linear-gradient);}.cls-2{opacity:0.35;fill:url(#radial-gradient);}.cls-2,.cls-4{isolation:isolate;}.cls-3{fill:url(#linear-gradient-2);}.cls-4{opacity:0.41;fill:url(#radial-gradient-2);}.cls-5{fill:url(#radial-gradient-3);}.cls-6{fill:url(#radial-gradient-4);}</style><linearGradient
       id="linear-gradient"
       x1="63.33"
       y1="84.03"
       x2="241.67"
       y2="84.03"
       gradientTransform="matrix(1,0,0,-1,0,266)"
       gradientUnits="userSpaceOnUse"><stop
         offset="0"
         stop-color="#0c59a4"
         id="stop376" /><stop
         offset="1"
         stop-color="#114a8b"
         id="stop378" /></linearGradient><radialGradient
       id="radial-gradient"
       cx="161.83"
       cy="68.91"
       r="95.38"
       gradientTransform="matrix(1,0,0,-0.95,0,248.84)"
       gradientUnits="userSpaceOnUse"><stop
         offset="0.72"
         stop-opacity="0"
         id="stop381" /><stop
         offset="0.95"
         stop-opacity="0.53"
         id="stop383" /><stop
         offset="1"
         id="stop385" /></radialGradient><linearGradient
       id="linear-gradient-2"
       x1="157.35"
       y1="161.39"
       x2="45.96"
       y2="40.06"
       gradientTransform="matrix(1,0,0,-1,0,266)"
       gradientUnits="userSpaceOnUse"><stop
         offset="0"
         stop-color="#1b9de2"
         id="stop388" /><stop
         offset="0.16"
         stop-color="#1595df"
         id="stop390" /><stop
         offset="0.67"
         stop-color="#0680d7"
         id="stop392" /><stop
         offset="1"
         stop-color="#0078d4"
         id="stop394" /></linearGradient><radialGradient
       id="radial-gradient-2"
       cx="-340.29"
       cy="62.99"
       r="143.24"
       gradientTransform="matrix(0.15,-0.99,-0.8,-0.12,176.64,-125.4)"
       gradientUnits="userSpaceOnUse"><stop
         offset="0.76"
         stop-opacity="0"
         id="stop397" /><stop
         offset="0.95"
         stop-opacity="0.5"
         id="stop399" /><stop
         offset="1"
         id="stop401" /></radialGradient><radialGradient
       id="radial-gradient-3"
       cx="113.37"
       cy="570.21"
       r="202.43"
       gradientTransform="matrix(-0.04,1,2.13,0.08,-1179.54,-106.69)"
       gradientUnits="userSpaceOnUse"><stop
         offset="0"
         stop-color="#35c1f1"
         id="stop404" /><stop
         offset="0.11"
         stop-color="#34c1ed"
         id="stop406" /><stop
         offset="0.23"
         stop-color="#2fc2df"
         id="stop408" /><stop
         offset="0.31"
         stop-color="#2bc3d2"
         id="stop410" /><stop
         offset="0.67"
         stop-color="#36c752"
         id="stop412" /></radialGradient><radialGradient
       id="radial-gradient-4"
       cx="376.52"
       cy="567.97"
       r="97.34"
       gradientTransform="matrix(0.28,0.96,0.78,-0.23,-303.76,-148.5)"
       gradientUnits="userSpaceOnUse"><stop
         offset="0"
         stop-color="#66eb6e"
         id="stop415" /><stop
         offset="1"
         stop-color="#66eb6e"
         stop-opacity="0"
         id="stop417" /></radialGradient><clipPath
       clipPathUnits="userSpaceOnUse"
       id="clipPath1260"><rect
         style="fill:#bbdefb;fill-opacity:1;stroke:none;stroke-width:0.529037"
         id="rect1262"
         width="541.86664"
         height="541.86664"
         x="2.9492187e-06"
         y="3.9968629e-05"
         rx="79.375"
         ry="79.375" /></clipPath><clipPath
       clipPathUnits="userSpaceOnUse"
       id="clipPath16285"><rect
         style="fill:#bbdefb;fill-opacity:1;stroke:none;stroke-width:0.529037"
         id="rect16287"
         width="541.86664"
         height="541.86664"
         x="0"
         y="6.4807005e-05"
         rx="79.375"
         ry="79.375" /></clipPath><clipPath
       clipPathUnits="userSpaceOnUse"
       id="clipPath990"><rect
         style="fill:#bbdefb;fill-opacity:1;stroke:none;stroke-width:0.529037"
         id="rect992"
         width="487.67996"
         height="487.67996"
         x="27.093349"
         y="27.093338"
         rx="71.4375"
         ry="71.4375" /></clipPath><linearGradient
       id="linearGradient4292"><stop
         id="stop4294"
         offset="0"
         style="stop-color:#411f5d;stop-opacity:1" /><stop
         id="stop4296"
         offset="1"
         style="stop-color:#5b2a85;stop-opacity:1" /></linearGradient><linearGradient
       id="linearGradient4284"><stop
         offset="0"
         style="stop-color:#8381c5;stop-opacity:1"
         id="stop4286" /><stop
         id="stop4290"
         style="stop-color:#7e55b3;stop-opacity:0.99607843"
         offset="0.56639391" /><stop
         offset="1"
         style="stop-color:#a52ecb;stop-opacity:0.99215686"
         id="stop4288" /></linearGradient><linearGradient
       id="linearGradient4898"><stop
         id="stop4278"
         style="stop-color:#bab8db;stop-opacity:1"
         offset="0" /><stop
         id="stop4280"
         style="stop-color:#5955a9;stop-opacity:0.99159664"
         offset="1" /></linearGradient><linearGradient
       id="linearGradient3294"><stop
         offset="0"
         style="stop-color:#6376e6;stop-opacity:1"
         id="stop3296" /><stop
         offset="0.50094414"
         style="stop-color:#222989;stop-opacity:1"
         id="stop3302" /><stop
         offset="1"
         style="stop-color:#00003d;stop-opacity:1"
         id="stop3298" /></linearGradient><linearGradient
       id="linearGradient3284"><stop
         offset="0"
         style="stop-color:#000000;stop-opacity:1"
         id="stop3286" /><stop
         offset="0.84845906"
         style="stop-color:#000000;stop-opacity:0.49803922"
         id="stop3292" /><stop
         offset="1"
         style="stop-color:#000000;stop-opacity:0"
         id="stop3288" /></linearGradient><linearGradient
       id="linearGradient3274"><stop
         offset="0"
         style="stop-color:#000000;stop-opacity:1"
         id="stop3276" /><stop
         offset="1"
         style="stop-color:#000000;stop-opacity:0"
         id="stop3278" /></linearGradient><linearGradient
       id="linearGradient3242"><stop
         offset="0"
         style="stop-color:#282828;stop-opacity:1"
         id="stop3244" /><stop
         offset="0.39253417"
         style="stop-color:#808080;stop-opacity:1"
         id="stop3252" /><stop
         offset="1"
         style="stop-color:#d9d9d9;stop-opacity:1"
         id="stop3246" /></linearGradient><linearGradient
       id="linearGradient3202"><stop
         offset="0"
         style="stop-color:#2b2b2b;stop-opacity:1"
         id="stop3204" /><stop
         offset="0.5"
         style="stop-color:#828383;stop-opacity:1"
         id="stop3250" /><stop
         offset="1"
         style="stop-color:#dadbdb;stop-opacity:1"
         id="stop3206" /></linearGradient><linearGradient
       id="linearGradient4966"><stop
         offset="0"
         style="stop-color:#b6b3d8;stop-opacity:1"
         id="stop4968" /><stop
         offset="1"
         style="stop-color:#b6b3d8;stop-opacity:0"
         id="stop4970" /></linearGradient><linearGradient
       id="linearGradient4876"><stop
         offset="0"
         style="stop-color:#d3d2e8;stop-opacity:1"
         id="stop4878" /><stop
         offset="1"
         style="stop-color:#5955a9;stop-opacity:0.99159664"
         id="stop4880" /></linearGradient><radialGradient
       gradientTransform="matrix(0.6817439,0,0,0.5905355,-3.8523706,-28.935273)"
       gradientUnits="userSpaceOnUse"
       xlink:href="#linearGradient4898"
       id="radialGradient4892"
       fy="-108.96888"
       fx="20.951529"
       r="266.76535"
       cy="-108.96888"
       cx="20.951529" /><radialGradient
       gradientTransform="matrix(1,0,0,0.1854103,0,383.88493)"
       gradientUnits="userSpaceOnUse"
       xlink:href="#linearGradient3274"
       id="radialGradient4944"
       fy="471.26172"
       fx="233.8876"
       r="170.49393"
       cy="471.26172"
       cx="233.8876" /><radialGradient
       gradientTransform="matrix(1,0,0,0.9121621,0,32.654948)"
       gradientUnits="userSpaceOnUse"
       xlink:href="#linearGradient4966"
       id="radialGradient4972"
       fy="371.76376"
       fx="299.70135"
       r="76.696358"
       cy="371.76376"
       cx="299.70135" /><radialGradient
       gradientTransform="matrix(0.414705,0.3300575,-0.5059004,0.6356454,346.95314,49.479585)"
       gradientUnits="userSpaceOnUse"
       xlink:href="#linearGradient3202"
       id="radialGradient3210"
       fy="390.45248"
       fx="289.44067"
       r="17.67668"
       cy="390.45248"
       cx="289.44067" /><radialGradient
       gradientTransform="matrix(0.414705,0.3300575,-0.5059004,0.6356454,448.41009,-65.398074)"
       gradientUnits="userSpaceOnUse"
       xlink:href="#linearGradient3202"
       id="radialGradient3238"
       fy="382.14804"
       fx="283.50717"
       r="17.67668"
       cy="382.14804"
       cx="283.50717" /><radialGradient
       gradientTransform="matrix(-6.5565014e-2,-5.9721765e-2,1.6871024,-1.8521705,171.90774,540.51473)"
       gradientUnits="userSpaceOnUse"
       xlink:href="#linearGradient3242"
       id="radialGradient3248"
       fy="181.18982"
       fx="418.45551"
       r="63.068935"
       cy="181.18982"
       cx="418.45551" /><radialGradient
       gradientTransform="matrix(0.4055116,-3.3440123e-2,0.1034174,4.3988695,177.23251,-1191.6649)"
       gradientUnits="userSpaceOnUse"
       xlink:href="#linearGradient3274"
       id="radialGradient3268"
       fy="357.33591"
       fx="354.51709"
       r="33.712105"
       cy="357.33591"
       cx="354.51709" /><radialGradient
       gradientTransform="matrix(-0.1339874,-0.1146812,0.3079048,-0.3597394,444.23592,395.03849)"
       gradientUnits="userSpaceOnUse"
       xlink:href="#linearGradient3274"
       id="radialGradient3280"
       fy="223.55537"
       fx="510.58469"
       r="132.28336"
       cy="223.55537"
       cx="510.58469" /><radialGradient
       gradientTransform="matrix(-1.2497569,1.3798305,-9.6289463e-2,-7.2974479e-2,674.3826,-70.590682)"
       gradientUnits="userSpaceOnUse"
       xlink:href="#linearGradient3284"
       id="radialGradient3290"
       fy="-158.17821"
       fx="284.4671"
       r="110.2972"
       cy="-158.17821"
       cx="284.4671" /><radialGradient
       gradientTransform="matrix(-0.1008165,-8.0872321e-2,1.0745309,-1.3395252,13.843287,784.79288)"
       gradientUnits="userSpaceOnUse"
       xlink:href="#linearGradient3294"
       id="radialGradient3300"
       fy="356.62274"
       fx="425.51019"
       r="143.34167"
       cy="356.62274"
       cx="425.51019" /><filter
       height="1.1062305"
       y="-0.053115233"
       width="1.1073157"
       x="-0.053657864"
       id="filter4350"
       style="color-interpolation-filters:sRGB"><feGaussianBlur
         id="feGaussianBlur4352"
         stdDeviation="8.7848425" /></filter><linearGradient
       y2="300.73987"
       x2="236.61363"
       y1="-161.8512"
       x1="-122.20192"
       spreadMethod="pad"
       gradientTransform="matrix(0.17595114,0,0,0.16675393,-57.890895,62.668437)"
       gradientUnits="userSpaceOnUse"
       id="linearGradient4245"
       xlink:href="#linearGradient4284" /><linearGradient
       y2="66.018341"
       x2="173.94518"
       y1="396.6066"
       x1="447.80933"
       gradientTransform="matrix(0.19870189,0,0,0.19870189,-106.81348,12.782767)"
       gradientUnits="userSpaceOnUse"
       id="linearGradient4247"
       xlink:href="#linearGradient4292" /><linearGradient
       inkscape:collect="always"
       xlink:href="#linearGradient5042"
       id="linearGradient5044"
       x1="9"
       y1="115"
       x2="119"
       y2="115"
       gradientUnits="userSpaceOnUse" /><linearGradient
       inkscape:collect="always"
       xlink:href="#linearGradient4539"
       id="linearGradient4541"
       x1="64"
       y1="115"
       x2="64"
       y2="7.5105515"
       gradientUnits="userSpaceOnUse" /><linearGradient
       inkscape:collect="always"
       xlink:href="#linearGradient5"
       id="linearGradient1"
       gradientUnits="userSpaceOnUse"
       x1="-294.23376"
       y1="166.15547"
       x2="130.23256"
       y2="-120.15067"
       spreadMethod="pad"
       gradientTransform="matrix(0.17363495,0,0,0.17281576,78.238171,55.970898)" /></defs><g
     inkscape:groupmode="layer"
     id="layer2"
     inkscape:label="Layer 1"><path
       id="circle1035"
       style="fill:url(#linearGradient5044);fill-opacity:1"
       d="M 64 5 A 55 55 0 0 0 9 60 L 9 68 A 55 55 0 0 0 64 123 A 55 55 0 0 0 119 68 L 119 60 A 55 55 0 0 0 64 5 z " /><circle
       style="display:inline;fill:url(#linearGradient4541);fill-opacity:1;stroke-width:1"
       id="path953"
       cx="64"
       cy="60"
       r="55"
       inkscape:export-filename="/home/retro/.icons/skeuowaita/scalable/apps/skeuwaita.png"
       inkscape:export-xdpi="1536"
       inkscape:export-ydpi="1536" /><text
       xml:space="preserve"
       style="font-style:normal;font-variant:normal;font-weight:normal;font-stretch:normal;font-size:40px;line-height:1.25;font-family:'DejaVu Math TeX Gyre';-inkscape-font-specification:'DejaVu Math TeX Gyre';display:inline;fill:#000000;fill-opacity:1;stroke:none"
       x="57.303368"
       y="70.244858"
       id="text3441"><tspan
         sodipodi:role="line"
         id="tspan3439"
         x="0"
         y="0" /></text><text
       xml:space="preserve"
       style="font-size:40px;line-height:1.25;font-family:Caladea;-inkscape-font-specification:Caladea"
       x="43.168587"
       y="70.812454"
       id="text13903"><tspan
         sodipodi:role="line"
         id="tspan13901"
         x="43.168587"
         y="70.812454" /></text><rect
       style="display:none;fill:none;stroke-width:0.20135"
       id="rect4772"
       y="12.314822"
       x="-107.39003"
       height="103.09106"
       width="103.09106"
       inkscape:label="rect4772" /><ellipse
       style="display:inline;fill:#4d5062;fill-opacity:1;stroke-width:0.956048"
       id="circle466"
       cx="64"
       cy="60.186546"
       inkscape:export-filename="/home/retro/.icons/skeuowaita/scalable/apps/skeuwaita.png"
       inkscape:export-xdpi="1536"
       inkscape:export-ydpi="1536"
       ry="52.675995"
       rx="52.489449" /><g
       id="g1-2"
       style="fill:#181818;fill-opacity:0.518033;fill-rule:nonzero"
       inkscape:label="g1"
       transform="matrix(0.17363496,0,0,0.17281577,78.238175,59.276849)"><path
         fill-rule="evenodd"
         clip-rule="evenodd"
         d="m 165.16,89.56244 c 11.39,-42.09 12.16,-87.65 0.04,-132.8 -36.63,-136.5301 -177.16,-217.5601 -313.87,-180.98009 -105.5199,28.23999 -177.9401,118.29009 -188.64006,220.69009 H -294.01 c 10.3,-83.14 69.75,-155.7402 155.76,-178.7602 106.3,-28.45 215.38,28.9601 253.42,129.6702 l -42.14,11.27 c -19.39,-46.85 -58.46,-81.2 -104.73,-95.8302 l -7.74,43.8402 c 36.53,13.47 66.16,43.84 77,84.25 15.8,58.89 -13.62,119.23 -67,144.26 l 11.53,42.99 c 70.16,-28.95 112.31,-101.86 102.34,-177.02 l 41.98,-11.23 c 4.5,28.71 2.94,57.25 -3.86,84.16 z"
         fill="var(--color-brand)"
         id="path1-9"
         style="fill:#181818;fill-opacity:0.518033;fill-rule:nonzero" /><path
         d="m -16.01,270.22244 c -136.72,36.58 -277.2399,-44.45 -313.87989,-180.98 -4.27,-15.93 -6.94011,-31.91 -8.11011,-47.78 h 43.27 c 1.09,11.91 3.1999,23.89 6.4099,35.83 3.36,12.51 7.7701,24.46 13.1101,35.78 l 38.59,-23.15 c -3.2501,-7.5 -5.99,-15.32 -8.17,-23.45 -24.04,-89.6 29.2,-181.7 118.92,-205.7099 17,-4.55 34.1,-6.32 50.8,-5.61 l -7.74,43.8499 c -10.46,0.05 -21.08,1.42 -31.66,4.25 -66.22,17.73 -105.52,85.7 -87.78,151.84 1.1,4.07 2.38,8.04 3.84,11.9 l 49.35,-29.61 -14.87,-39.43 46.6,-47.87 58.9,-12.69 17.05,20.99 -27.15,27.5 -23.68,7.45 -16.92,17.39 8.29,23.07 c 0,0 16.79,17.84 16.82,17.85 l 23.72,-6.31 16.88,-18.54 36.86,-11.67 10.98,24.7 -38.03,46.63 -63.73,20.18 -28.58,-31.82 -49.82,29.89 c 25.54,29.08 63.94,45.23 103.75,41.86 l 11.53,42.99 c -59.41,7.86 -117.44,-16.73 -153.49,-61.91 l -38.4101,23.04 c 50.6101,66.49 138.2001,99.43 223.9701,76.48 61.74,-16.52 109.79,-58.6 135.81,-111.78 l 42.64,15.5 c -30.89,66.28 -89.84,118.94 -166.07,139.34 z"
         fill="var(--color-brand)"
         id="path2-1"
         style="fill:#181818;fill-opacity:0.518033;fill-rule:nonzero" /></g><path
       id="path1-9-2"
       style="fill:url(#linearGradient1);fill-opacity:1;fill-rule:nonzero;stroke-width:0.173225"
       d="M 65.722923,15.739379 C 61.348772,15.566342 56.874287,16.037908 52.42348,17.22321 34.101535,22.103525 21.527054,37.66434 19.669168,55.360675 h 7.517818 C 28.975427,40.992772 39.299334,28.44601 54.233677,24.46779 72.691074,19.551182 91.631179,29.472746 98.236255,46.877038 l -7.316686,1.948713 C 87.552787,40.729332 80.768203,34.792869 72.734114,32.264539 l -1.343416,7.576641 c 6.342886,2.327829 11.487446,7.575883 13.369649,14.55937 2.743434,10.17712 -2.36482,20.605421 -11.633455,24.930999 l 2.001843,7.428637 C 87.310963,81.75717 94.629783,69.157837 92.898642,56.169002 l 7.288228,-1.941123 c 0.78136,4.961541 0.5109,9.893718 -0.669819,14.54419 l 7.398289,2.677345 c 1.97769,-7.273816 2.11218,-15.147398 0.007,-22.950029 C 101.75534,29.328809 84.677574,16.489211 65.722923,15.739379 Z M 65.203013,30.9382 c -2.899705,-0.122698 -5.867696,0.183302 -8.819491,0.969612 -15.57853,4.14929 -24.824467,20.066907 -20.650283,35.5512 0.378525,1.404992 0.854985,2.755002 1.419315,4.051122 L 30.45255,75.51192 c -0.92721,-1.956273 -1.693563,-4.021964 -2.276977,-6.183889 -0.557368,-2.06342 -0.922661,-4.133244 -1.111923,-6.19148 h -7.514024 c 0.203153,2.742587 0.666509,5.502983 1.40793,8.255939 6.361983,23.594538 30.761968,37.59777 54.50134,31.27618 C 88.69509,99.143223 98.929428,90.043864 104.29301,78.589635 L 96.890942,75.910392 C 92.37296,85.100734 84.029273,92.373726 73.309051,95.228643 58.41638,99.194762 43.207865,93.501313 34.420182,82.010792 l 6.669646,-3.980914 c 6.259541,7.807816 16.334463,12.056328 26.650116,10.697996 L 65.738102,81.299237 C 58.825695,81.881626 52.158057,79.091523 47.72342,74.066041 l 8.650615,-5.166841 4.961912,5.498899 11.066108,-3.487569 6.603232,-8.0586 -1.906967,-4.267435 -6.400204,2.017023 -2.929709,3.202946 -4.119431,1.091052 c -0.0052,-0.0017 -2.920223,-3.085304 -2.920223,-3.085304 l -1.440187,-3.986607 2.939197,-3.005609 4.111841,-1.286492 4.713342,-4.753189 -2.960069,-3.626086 -10.227422,2.19159 -8.090858,8.273016 2.582471,6.813853 -8.569024,5.117506 c -0.253507,-0.66707 -0.476915,-1.353508 -0.667913,-2.056869 -3.080284,-11.430034 3.744357,-23.176238 15.242464,-26.240261 1.837057,-0.489069 3.68078,-0.725679 5.497002,-0.734325 z" /><path
       id="path7"
       style="fill:#d2f9e4;fill-opacity:1;fill-rule:nonzero;stroke-width:0.173225"
       d="M 65.722923,15.739379 C 61.348772,15.566342 56.874287,16.037908 52.42348,17.22321 34.101535,22.103525 21.527054,37.66434 19.669168,55.360675 h 0.119541 c 2.22807,-17.268237 14.668592,-32.323478 32.634771,-37.109031 4.450807,-1.1853 8.925292,-1.656868 13.299443,-1.48383 18.95465,0.749832 36.032237,13.589429 41.199997,32.760005 0.98707,3.659769 1.48091,7.334279 1.52368,10.956054 0.0465,-3.953262 -0.44296,-7.977826 -1.52368,-11.984488 C 101.75534,29.328809 84.677574,16.489211 65.722923,15.739379 Z M 65.203013,30.9382 c -2.899705,-0.122697 -5.867696,0.183302 -8.819491,0.969612 -13.221445,3.521489 -21.882103,15.518628 -21.648358,28.534316 0.226597,-12.614781 8.775889,-24.077341 21.648358,-27.505881 2.890396,-0.769955 5.797097,-1.079863 8.639229,-0.977202 z m 7.531101,1.326339 -1.343416,7.576641 c 0.05712,0.02096 0.113849,0.04308 0.170772,0.06452 l 1.172644,-6.61272 c 8.034089,2.52833 14.818673,8.464793 18.185455,16.561212 l 7.316686,-1.948714 C 98.117632,47.592901 97.99465,47.28341 97.868144,46.975708 l -6.948575,1.850043 C 87.552787,40.729332 80.768203,34.792869 72.734114,32.264539 Z m -4.641237,12.88769 -10.227422,2.19159 -8.090858,8.273016 0.280827,0.741915 7.810031,-7.986497 10.227422,-2.19159 2.498981,3.062533 0.461088,-0.464881 z m 24.921511,12.014848 -0.115746,0.03036 c 0.146329,1.097916 0.227137,2.192747 0.246672,3.280744 0.01969,-1.096697 -0.02222,-2.201473 -0.130926,-3.311104 z m -33.454482,1.40793 -0.27134,0.277033 1.440187,3.986607 c 1e-6,0 2.914977,3.083554 2.920223,3.085304 l 4.119431,-1.091052 2.929709,-3.202948 6.400204,-2.017021 1.609063,3.601419 0.297904,-0.362419 -1.906967,-4.267435 -6.400204,2.017023 -2.929709,3.202946 -4.119431,1.091052 c -0.0052,-0.0017 -2.920223,-3.085304 -2.920223,-3.085304 z m 41.065274,1.813992 c -0.0407,2.85675 -0.41882,5.668133 -1.108129,8.38307 l 0.227703,0.08159 C 100.36437,66.106087 100.66615,63.26762 100.62518,60.389 Z m -58.237476,0.05883 c -0.04868,2.000161 0.185184,4.041277 0.732427,6.071938 0.190998,0.703361 0.414406,1.389801 0.667913,2.05687 l 8.569024,-5.117506 -0.318776,-0.838686 -8.250248,4.927757 c -0.253507,-0.66707 -0.476915,-1.353508 -0.667913,-2.056869 -0.453755,-1.683757 -0.691825,-3.37479 -0.732427,-5.043504 z m 43.106968,0.02656 c -0.195258,8.023367 -4.949199,15.394989 -12.36778,18.857164 l 0.244775,0.912689 h 0.0019 c 7.590175,-3.660538 12.323637,-11.443129 12.12106,-19.769856 z m -65.945046,2.662166 c 0.02538,0.34253 0.05565,0.685399 0.08919,1.028435 h 7.424843 c 0.189261,2.058235 0.554554,4.128059 1.111923,6.191479 0.583413,2.161925 1.349766,4.227616 2.276976,6.183891 l 6.700004,-4.001788 C 37.034131,72.266565 36.919718,71.99183 36.809119,71.715066 l -6.356561,3.796858 c -0.92721,-1.956273 -1.693563,-4.021964 -2.276976,-6.183889 -0.557369,-2.06342 -0.922662,-4.133244 -1.111923,-6.19148 z m 28.784783,11.593607 -0.610989,0.364316 c 4.434637,5.025484 11.102275,7.815587 18.014682,7.233198 l 1.734298,6.434357 c 0.0893,-0.01092 0.178208,-0.0224 0.267544,-0.03416 L 65.738102,81.299237 C 59.13616,81.855469 52.757615,79.335955 48.334409,74.730158 Z m 48.556533,1.180234 C 92.37296,85.100734 84.029273,92.373726 73.309051,95.228643 58.722179,99.11332 43.833182,93.730766 34.970453,82.710962 l -0.550271,0.328265 C 43.207865,94.529748 58.41638,100.22316 73.309051,96.257078 84.029273,93.402161 92.37296,86.129168 96.890942,76.938826 l 6.980838,2.527444 c 0.14378,-0.290315 0.28382,-0.583174 0.42123,-0.876635 z" /><path
       id="path9"
       style="fill:#8aedb4;fill-opacity:1;fill-rule:nonzero;stroke-width:0.173225"
       d="m 64.582536,22.705031 c -3.41021,-0.07296 -6.888097,0.326679 -10.348859,1.248542 -14.934343,3.97822 -25.25825,16.524981 -27.046691,30.892885 h -7.460895 c -0.02002,0.171187 -0.03891,0.34262 -0.05692,0.514217 h 7.517818 C 28.975427,40.992772 39.299334,28.44601 54.233677,24.46779 72.525668,19.595243 91.292031,29.295431 98.055995,46.410259 l 0.18026,-0.04743 C 92.869632,32.221834 79.360116,23.021188 64.582536,22.705031 Z m 0.529397,8.229374 -1.252336,7.068117 c -1.816222,0.0086 -3.659945,0.245255 -5.497002,0.734323 -9.717266,2.589465 -16.096874,11.380516 -15.980584,20.940599 0.113871,-9.359572 6.437793,-17.883411 15.980584,-20.42638 1.837057,-0.489069 3.68078,-0.725679 5.497002,-0.734325 L 65.203013,30.9382 c -0.03016,-0.0012 -0.06091,-0.0027 -0.09108,-0.0038 z m 6.364151,8.424814 -0.08539,0.481961 c 6.342887,2.327829 11.487447,7.575883 13.36965,14.55937 0.477414,1.771029 0.716801,3.548803 0.73812,5.30156 0.02334,-1.918492 -0.213952,-3.871307 -0.73812,-5.815777 C 82.886612,46.934276 77.779642,41.702715 71.476081,39.359219 Z m -0.652733,9.13637 -4.483747,4.521697 -4.111841,1.286493 -2.939197,3.005609 0.13472,0.3757 2.804477,-2.867092 4.111841,-1.286492 4.713342,-4.753189 z m 29.363519,5.218073 -7.288228,1.941123 c 0.02212,0.165964 0.04344,0.331318 0.06261,0.49714 l 7.225608,-1.924046 c 0.28421,1.804703 0.42941,3.605954 0.44211,5.390743 0.0139,-1.952834 -0.13058,-3.926799 -0.44211,-5.90496 z m -50.27186,1.758965 -0.140413,0.144208 2.423082,6.394511 0.159389,-0.09488 z m -15.183641,4.199124 c -0.02307,2.569364 0.300212,5.184432 1.00187,7.787261 0.338803,1.257557 0.756242,2.471022 1.244748,3.641265 l 0.174567,-0.104361 c -0.56433,-1.296119 -1.04079,-2.646129 -1.419315,-4.051121 -0.654907,-2.429404 -0.980288,-4.86943 -1.00187,-7.273044 z m 58.41774,0.03605 C 93.045971,71.195415 86.037499,81.76594 75.128735,86.245968 l -1.878507,-6.971343 c -0.0409,0.01941 -0.08227,0.03776 -0.123336,0.05692 l 2.001843,7.428637 C 86.200068,82.213394 93.254008,71.393165 93.149109,59.707801 Z m 15.301281,0.0095 c -0.0228,3.832961 -0.55117,7.599245 -1.53505,11.217907 l -7.282543,-2.635632 c -0.03778,0.157656 -0.07587,0.315447 -0.115746,0.472472 l 7.398289,2.677345 c 1.02784,-3.78035 1.55851,-7.721924 1.53505,-11.732124 z m -29.593106,2.802579 -6.455229,7.876444 -11.066108,3.487569 -4.961912,-5.4989 -8.650615,5.166841 c 0.09931,0.11254 0.200174,0.223672 0.3017,0.333957 l 8.348915,-4.98658 4.961912,5.498899 11.066108,-3.487569 6.603232,-8.058601 z m -59.307658,0.616682 c 0.203153,2.742587 0.666509,5.502982 1.40793,8.255939 C 27.319539,94.98706 51.719524,108.99029 75.458896,102.6687 88.69509,99.143255 98.929427,90.043896 104.29301,78.589666 l -0.20872,-0.0759 C 98.666556,89.761281 88.525637,98.674104 75.458896,102.15445 51.719524,108.47604 27.319539,94.472811 20.957556,70.878273 20.262451,68.297291 19.812376,65.709805 19.59137,63.136551 Z m 21.540202,14.37911 -6.669646,3.980914 c 0.09011,0.11782 0.181788,0.234436 0.273237,0.351033 l 6.396409,-3.81773 c 6.259541,7.807816 16.334463,12.056327 26.650116,10.697996 l -0.13472,-0.497171 C 57.336347,89.534915 47.322284,85.289693 41.089828,77.515661 Z" /></g></svg>
