<?xml version="1.0" encoding="UTF-8" standalone="no"?>
<!-- Created with Inkscape (http://www.inkscape.org/) -->

<svg
   width="128"
   height="128"
   viewBox="0 0 128 128"
   version="1.1"
   id="svg5"
   inkscape:version="1.4.3 (0d15f75042, 2025-12-25)"
   sodipodi:docname="spotify-client.svg"
   xmlns:inkscape="http://www.inkscape.org/namespaces/inkscape"
   xmlns:sodipodi="http://sodipodi.sourceforge.net/DTD/sodipodi-0.dtd"
   xmlns:xlink="http://www.w3.org/1999/xlink"
   xmlns="http://www.w3.org/2000/svg"
   xmlns:svg="http://www.w3.org/2000/svg">
  <sodipodi:namedview
     id="namedview7"
     pagecolor="#ffffff"
     bordercolor="#666666"
     borderopacity="1"
     inkscape:pageshadow="2"
     inkscape:pageopacity="0.0"
     inkscape:pagecheckerboard="true"
     inkscape:document-units="px"
     showgrid="false"
     inkscape:showpageshadow="false"
     showborder="true"
     inkscape:snap-page="true"
     inkscape:zoom="3.5042754"
     inkscape:cx="42.234123"
     inkscape:cy="100.16336"
     inkscape:window-width="1728"
     inkscape:window-height="1043"
     inkscape:window-x="0"
     inkscape:window-y="0"
     inkscape:window-maximized="1"
     inkscape:current-layer="layer2"
     inkscape:snap-bbox="true"
     inkscape:snap-bbox-midpoints="true"
     inkscape:snap-bbox-edge-midpoints="true"
     inkscape:bbox-nodes="true"
     inkscape:bbox-paths="true"
     inkscape:snap-intersection-paths="true"
     inkscape:object-paths="true"
     inkscape:snap-smooth-nodes="true"
     inkscape:snap-midpoints="true"
     inkscape:deskcolor="#d1d1d1" />
  <defs
     id="defs2">
    <linearGradient
       inkscape:collect="always"
       id="linearGradient962">
      <stop
         style="stop-color:#00f376;stop-opacity:1;"
         offset="0"
         id="stop958" />
      <stop
         style="stop-color:#e2feef;stop-opacity:1;"
         offset="1"
         id="stop960" />
    </linearGradient>
    <linearGradient
       inkscape:collect="always"
       id="linearGradient7939">
      <stop
         style="stop-color:#00923c;stop-opacity:1"
         offset="0"
         id="stop7935" />
      <stop
         style="stop-color:#00923c;stop-opacity:1"
         offset="0.30000001"
         id="stop8493" />
      <stop
         style="stop-color:#00ba5a;stop-opacity:1"
         offset="0.5"
         id="stop8233" />
      <stop
         style="stop-color:#00923c;stop-opacity:1"
         offset="0.69999999"
         id="stop8751" />
      <stop
         style="stop-color:#00923c;stop-opacity:1"
         offset="1"
         id="stop7937" />
    </linearGradient>
    <linearGradient
       y2="236"
       x2="96"
       y1="236"
       x1="32"
       gradientTransform="translate(604.81684,170.58641)"
       gradientUnits="userSpaceOnUse"
       id="linearGradient1099"
       xlink:href="#linearGradient1036" />
    <linearGradient
       id="linearGradient1036">
      <stop
         id="stop1032"
         offset="0"
         style="stop-color:#d5d3cf;stop-opacity:1;" />
      <stop
         id="stop1034"
         offset="1"
         style="stop-color:#f6f5f4;stop-opacity:1" />
    </linearGradient>
    <radialGradient
       r="32"
       fy="-76"
       fx="-244"
       cy="-76"
       cx="-244"
       gradientTransform="matrix(0.88333331,0,0,0.88333331,-460.35018,463.11973)"
       gradientUnits="userSpaceOnUse"
       id="radialGradient1103"
       xlink:href="#linearGradient1069" />
    <linearGradient
       id="linearGradient1069">
      <stop
         id="stop1065"
         offset="0"
         style="stop-color:#d5d3cf;stop-opacity:1" />
      <stop
         id="stop1067-1"
         offset="1"
         style="stop-color:#949390;stop-opacity:1" />
    </linearGradient>
    <linearGradient
       gradientUnits="userSpaceOnUse"
       y2="232"
       x2="64"
       y1="262.5"
       x1="64"
       id="linearGradient1027"
       xlink:href="#linearGradient1025"
       gradientTransform="translate(-470.5864,432.81685)" />
    <linearGradient
       id="linearGradient1025">
      <stop
         id="stop1021"
         offset="0"
         style="stop-color:#9a9996;stop-opacity:1" />
      <stop
         id="stop1023"
         offset="1"
         style="stop-color:#77767b;stop-opacity:1" />
    </linearGradient>
    <inkscape:path-effect
       effect="spiro"
       id="path-effect35304-9"
       is_visible="true" />
    <clipPath
       clipPathUnits="userSpaceOnUse"
       id="clipPath1609-7">
      <path
         sodipodi:nodetypes="cccccc"
         inkscape:connector-curvature="0"
         id="path1611-5"
         d="m 252,116 28,-28 v -8 h -36 v 36 z"
         style="fill:#e74747;stroke:none;stroke-width:0.25px;stroke-linecap:butt;stroke-linejoin:miter;stroke-opacity:1" />
    </clipPath>
    <radialGradient
       r="32"
       fy="-76"
       fx="-244"
       cy="-76"
       cx="-244"
       gradientTransform="matrix(0.88333331,0,0,0.88333331,-460.35018,463.11973)"
       gradientUnits="userSpaceOnUse"
       id="radialGradient1103-5"
       xlink:href="#linearGradient1069" />
    <inkscape:path-effect
       effect="spiro"
       id="path-effect35304-9-2"
       is_visible="true" />
    <clipPath
       clipPathUnits="userSpaceOnUse"
       id="clipPath1609-7-7">
      <path
         sodipodi:nodetypes="cccccc"
         inkscape:connector-curvature="0"
         id="path1611-5-0"
         d="m 252,116 28,-28 v -8 h -36 v 36 z"
         style="fill:#e74747;stroke:none;stroke-width:0.25px;stroke-linecap:butt;stroke-linejoin:miter;stroke-opacity:1" />
    </clipPath>
    <clipPath
       clipPathUnits="userSpaceOnUse"
       id="clipPath744">
      <rect
         style="fill:#1e88e5;fill-opacity:1;stroke-width:0.264583"
         id="rect746"
         width="541.86664"
         height="541.86664"
         x="0"
         y="1.5987212e-14"
         rx="79.375"
         ry="79.375" />
    </clipPath>
    <clipPath
       clipPathUnits="userSpaceOnUse"
       id="clipPath62">
      <rect
         style="fill:#1e88e5;fill-opacity:1;stroke-width:0.264583"
         id="rect64"
         width="541.86664"
         height="541.86664"
         x="2.2507105e-05"
         y="-0.42205024"
         rx="79.375"
         ry="79.375" />
    </clipPath>
    <radialGradient
       r="32"
       fy="-76"
       fx="-244"
       cy="-76"
       cx="-244"
       gradientTransform="matrix(0.88333331,0,0,0.88333331,-460.35018,463.11973)"
       gradientUnits="userSpaceOnUse"
       id="radialGradient1103-6"
       xlink:href="#linearGradient1069" />
    <inkscape:path-effect
       effect="spiro"
       id="path-effect35304-9-20"
       is_visible="true" />
    <clipPath
       clipPathUnits="userSpaceOnUse"
       id="clipPath1609-7-2">
      <path
         sodipodi:nodetypes="cccccc"
         inkscape:connector-curvature="0"
         id="path1611-5-3"
         d="m 252,116 28,-28 v -8 h -36 v 36 z"
         style="fill:#e74747;stroke:none;stroke-width:0.25px;stroke-linecap:butt;stroke-linejoin:miter;stroke-opacity:1" />
    </clipPath>
    <linearGradient
       inkscape:collect="always"
       xlink:href="#linearGradient7939"
       id="linearGradient7941"
       x1="9"
       y1="70"
       x2="119"
       y2="70"
       gradientUnits="userSpaceOnUse"
       gradientTransform="translate(0,-2)" />
    <radialGradient
       r="32"
       fy="-76"
       fx="-244"
       cy="-76"
       cx="-244"
       gradientTransform="matrix(0.88333331,0,0,0.88333331,-460.35018,463.11973)"
       gradientUnits="userSpaceOnUse"
       id="radialGradient1103-56"
       xlink:href="#linearGradient1069" />
    <inkscape:path-effect
       effect="spiro"
       id="path-effect35304-9-7"
       is_visible="true" />
    <clipPath
       clipPathUnits="userSpaceOnUse"
       id="clipPath1609-7-0">
      <path
         sodipodi:nodetypes="cccccc"
         inkscape:connector-curvature="0"
         id="path1611-5-9"
         d="m 252,116 28,-28 v -8 h -36 v 36 z"
         style="fill:#e74747;stroke:none;stroke-width:0.25px;stroke-linecap:butt;stroke-linejoin:miter;stroke-opacity:1" />
    </clipPath>
    <radialGradient
       r="32"
       fy="-76"
       fx="-244"
       cy="-76"
       cx="-244"
       gradientTransform="matrix(0.88333331,0,0,0.88333331,-460.35018,463.11973)"
       gradientUnits="userSpaceOnUse"
       id="radialGradient1103-5-3"
       xlink:href="#linearGradient1069" />
    <inkscape:path-effect
       effect="spiro"
       id="path-effect35304-9-2-6"
       is_visible="true" />
    <clipPath
       clipPathUnits="userSpaceOnUse"
       id="clipPath1609-7-7-0">
      <path
         sodipodi:nodetypes="cccccc"
         inkscape:connector-curvature="0"
         id="path1611-5-0-6"
         d="m 252,116 28,-28 v -8 h -36 v 36 z"
         style="fill:#e74747;stroke:none;stroke-width:0.25px;stroke-linecap:butt;stroke-linejoin:miter;stroke-opacity:1" />
    </clipPath>
    <clipPath
       clipPathUnits="userSpaceOnUse"
       id="clipPath744-2">
      <rect
         style="fill:#1e88e5;fill-opacity:1;stroke-width:0.264583"
         id="rect746-6"
         width="541.86664"
         height="541.86664"
         x="0"
         y="1.5987212e-14"
         rx="79.375"
         ry="79.375" />
    </clipPath>
    <clipPath
       clipPathUnits="userSpaceOnUse"
       id="clipPath62-1">
      <rect
         style="fill:#1e88e5;fill-opacity:1;stroke-width:0.264583"
         id="rect64-8"
         width="541.86664"
         height="541.86664"
         x="2.2507105e-05"
         y="-0.42205024"
         rx="79.375"
         ry="79.375" />
    </clipPath>
    <radialGradient
       r="32"
       fy="-76"
       fx="-244"
       cy="-76"
       cx="-244"
       gradientTransform="matrix(0.88333331,0,0,0.88333331,-460.35018,463.11973)"
       gradientUnits="userSpaceOnUse"
       id="radialGradient1103-6-7"
       xlink:href="#linearGradient1069" />
    <inkscape:path-effect
       effect="spiro"
       id="path-effect35304-9-20-9"
       is_visible="true" />
    <clipPath
       clipPathUnits="userSpaceOnUse"
       id="clipPath1609-7-2-2">
      <path
         sodipodi:nodetypes="cccccc"
         inkscape:connector-curvature="0"
         id="path1611-5-3-0"
         d="m 252,116 28,-28 v -8 h -36 v 36 z"
         style="fill:#e74747;stroke:none;stroke-width:0.25px;stroke-linecap:butt;stroke-linejoin:miter;stroke-opacity:1" />
    </clipPath>
    <linearGradient
       inkscape:collect="always"
       xlink:href="#linearGradient962"
       id="linearGradient964"
       x1="64"
       y1="115"
       x2="64"
       y2="5"
       gradientUnits="userSpaceOnUse" />
    <filter
       inkscape:collect="always"
       style="color-interpolation-filters:sRGB"
       id="filter3"
       x="-0.048402737"
       y="-0.072593842"
       width="1.0968055"
       height="1.1451877">
      <feGaussianBlur
         inkscape:collect="always"
         stdDeviation="1.4915165"
         id="feGaussianBlur3" />
    </filter>
  </defs>
  <g
     inkscape:groupmode="layer"
     id="layer2"
     inkscape:label="Layer 1">
    <path
       id="circle1035"
       style="fill:url(#linearGradient7941);fill-opacity:1"
       d="M 64 5 A 55 55 0 0 0 9 60 L 9 68 A 55 55 0 0 0 64 123 A 55 55 0 0 0 119 68 L 119 60 A 55 55 0 0 0 64 5 z " />
    <circle
       style="fill:url(#linearGradient964);fill-opacity:1"
       id="path953"
       cx="64"
       cy="60"
       r="55" />
    <circle
       style="fill:#00df6d;fill-opacity:1;stroke-width:0.965231"
       id="circle340"
       cx="64"
       cy="60"
       r="53.087715" />
    <path
       d="m 98.119882,60.964254 c -1.088802,0 -1.758835,-0.272201 -2.701087,-0.816605 -14.908309,-8.898924 -41.563211,-11.034669 -58.816656,-6.21878 -0.753788,0.209389 -1.696027,0.544405 -2.701087,0.544405 -2.763898,0 -4.878705,-2.15668 -4.878705,-4.94152 0,-2.847655 1.758848,-4.45993 3.643326,-5.004336 7.370404,-2.15668 15.620231,-3.182674 24.602909,-3.182674 15.285213,0 31.303284,3.182674 43.007988,10.008673 1.63321,0.942238 2.70109,2.240434 2.70109,4.732133 0,2.847658 -2.30326,4.878704 -4.857778,4.878704 z m -6.490979,15.955249 c -1.088813,0 -1.821667,-0.481589 -2.575455,-0.879422 -13.086653,-7.747298 -32.601472,-10.867157 -49.95961,-6.155962 -1.005058,0.272202 -1.54946,0.544406 -2.491699,0.544406 -2.240438,0 -4.062098,-1.821664 -4.062098,-4.0621 0,-2.240433 1.088815,-3.727076 3.24549,-4.334299 5.820945,-1.633215 11.767521,-2.847655 20.477998,-2.847655 13.589179,0 26.717713,3.371122 37.061402,9.527085 1.696037,1.005054 2.366079,2.30325 2.366079,4.124912 -0.02098,2.261374 -1.7798,4.083035 -4.062107,4.083035 z m -5.632492,13.735753 c -0.879428,0 -1.423831,-0.272205 -2.240439,-0.753791 C 70.690257,82.02853 55.488797,81.69352 40.475789,84.771493 c -0.816608,0.209387 -1.884478,0.544405 -2.491697,0.544405 -2.031052,0 -3.308309,-1.612274 -3.308309,-3.3083 0,-2.156684 1.277257,-3.18268 2.847661,-3.517694 17.148747,-3.789896 34.674394,-3.454878 49.624592,5.485925 1.277256,0.816604 2.031043,1.549456 2.031043,3.454871 0,1.90542 -1.486641,3.224556 -3.182668,3.224556 z"
       style="mix-blend-mode:normal;fill:#009740;fill-opacity:1;stroke-width:0.232652;filter:url(#filter3)"
       id="path3" />
    <path
       d="m 98.119882,56.964254 c -1.088802,0 -1.758835,-0.272201 -2.701087,-0.816605 -14.908309,-8.898924 -41.563211,-11.034669 -58.816656,-6.21878 -0.753788,0.209389 -1.696027,0.544405 -2.701087,0.544405 -2.763898,0 -4.878705,-2.15668 -4.878705,-4.94152 0,-2.847655 1.758848,-4.45993 3.643326,-5.004336 7.370404,-2.15668 15.620231,-3.182674 24.602909,-3.182674 15.285213,0 31.303284,3.182674 43.007988,10.008673 1.63321,0.942238 2.70109,2.240434 2.70109,4.732133 0,2.847658 -2.30326,4.878704 -4.857778,4.878704 z m -6.490979,15.955249 c -1.088813,0 -1.821667,-0.481589 -2.575455,-0.879422 -13.086653,-7.747298 -32.601472,-10.867157 -49.95961,-6.155962 -1.005058,0.272202 -1.54946,0.544406 -2.491699,0.544406 -2.240438,0 -4.062098,-1.821664 -4.062098,-4.0621 0,-2.240433 1.088815,-3.727076 3.24549,-4.334299 5.820945,-1.633215 11.767521,-2.847655 20.477998,-2.847655 13.589179,0 26.717713,3.371122 37.061402,9.527085 1.696037,1.005054 2.366079,2.30325 2.366079,4.124912 -0.02098,2.261374 -1.7798,4.083035 -4.062107,4.083035 z m -5.632492,13.735753 c -0.879428,0 -1.423831,-0.272205 -2.240439,-0.753791 C 70.690257,78.02853 55.488797,77.69352 40.475789,80.771493 c -0.816608,0.209387 -1.884478,0.544405 -2.491697,0.544405 -2.031052,0 -3.308309,-1.612274 -3.308309,-3.3083 0,-2.156684 1.277257,-3.18268 2.847661,-3.517694 17.148747,-3.789896 34.674394,-3.454878 49.624592,5.485925 1.277256,0.816604 2.031043,1.549456 2.031043,3.454871 0,1.90542 -1.486641,3.224556 -3.182668,3.224556 z"
       style="fill:#00493c;fill-opacity:1;stroke-width:0.232652"
       id="path879" />
    <path
       id="path1"
       style="fill:#1d7a69;fill-opacity:1;stroke-width:0.232652"
       d="M 57.269531 37.345703 C 48.286853 37.345703 40.03642 38.370664 32.666016 40.527344 C 30.781538 41.07175 29.021484 42.683595 29.021484 45.53125 C 29.021484 45.858589 29.051364 46.176876 29.107422 46.484375 C 29.480718 44.282783 31.026068 43.001107 32.666016 42.527344 C 40.03642 40.370664 48.286853 39.345703 57.269531 39.345703 C 72.554744 39.345703 88.57264 42.527517 100.27734 49.353516 C 101.65078 50.145882 102.62345 51.190469 102.89844 52.984375 C 102.95024 52.695656 102.97852 52.39552 102.97852 52.085938 C 102.97852 49.594239 101.91055 48.295754 100.27734 47.353516 C 88.57264 40.527517 72.554744 37.345703 57.269531 37.345703 z M 56.263672 55.183594 C 47.553195 55.183594 41.606101 56.398035 35.785156 58.03125 C 33.628481 58.638473 32.541016 60.126754 32.541016 62.367188 C 32.541016 62.674953 32.573558 62.973394 32.638672 63.261719 C 32.952001 61.632954 34.005078 60.53244 35.785156 60.03125 C 41.606101 58.398035 47.553195 57.183594 56.263672 57.183594 C 69.852851 57.183594 82.98053 60.554975 93.324219 66.710938 C 94.650819 67.497067 95.350268 68.463713 95.591797 69.71875 C 95.654049 69.434944 95.688596 69.138844 95.691406 68.835938 C 95.691406 67.014276 95.020256 65.715992 93.324219 64.710938 C 82.98053 58.554975 69.852851 55.183594 56.263672 55.183594 z M 56.818359 72.203125 C 50.437266 72.227908 43.954218 73.069023 37.523438 74.490234 C 35.953033 74.825248 34.675781 75.851129 34.675781 78.007812 C 34.675781 78.318551 34.718251 78.62616 34.800781 78.921875 C 35.158992 77.494169 36.244147 76.763145 37.523438 76.490234 C 54.672185 72.700338 72.198239 73.035759 87.148438 81.976562 C 88.13832 82.609436 88.812565 83.191517 89.066406 84.308594 C 89.139158 84.033548 89.179688 83.740652 89.179688 83.431641 C 89.179688 81.526226 88.425693 80.793166 87.148438 79.976562 C 77.804564 74.388561 67.453514 72.16182 56.818359 72.203125 z " />
    <path
       id="path2"
       style="fill:#002821;fill-opacity:1;stroke-width:0.232652"
       d="M 29.107422 44.484375 C 29.05176 44.812652 29.021484 45.161737 29.021484 45.53125 C 29.021484 48.31609 31.136493 50.472656 33.900391 50.472656 C 34.905451 50.472656 35.847774 50.139077 36.601562 49.929688 C 53.855007 45.113798 80.50966 47.249513 95.417969 56.148438 C 96.360221 56.692842 97.030339 56.964844 98.119141 56.964844 C 100.67366 56.964844 102.97852 54.933596 102.97852 52.085938 C 102.97852 51.68961 102.95045 51.323682 102.89844 50.984375 C 102.4737 53.351405 100.39594 54.964844 98.119141 54.964844 C 97.030339 54.964844 96.360221 54.692842 95.417969 54.148438 C 80.50966 45.249513 53.855007 43.113798 36.601562 47.929688 C 35.847774 48.139077 34.905451 48.472656 33.900391 48.472656 C 31.46137 48.472656 29.528276 46.792925 29.107422 44.484375 z M 32.638672 61.261719 C 32.572383 61.606304 32.541016 61.975965 32.541016 62.367188 C 32.541016 64.607623 34.361125 66.427734 36.601562 66.427734 C 37.543801 66.427734 38.088692 66.156968 39.09375 65.884766 C 56.451888 61.173571 75.966081 64.293718 89.052734 72.041016 C 89.806522 72.438849 90.540093 72.919922 91.628906 72.919922 C 93.911213 72.919922 95.670426 71.097312 95.691406 68.835938 C 95.691406 68.439137 95.659059 68.068257 95.591797 67.71875 C 95.189298 69.553726 93.605503 70.919922 91.628906 70.919922 C 90.540093 70.919922 89.806522 70.438849 89.052734 70.041016 C 75.966081 62.293718 56.451888 59.173571 39.09375 63.884766 C 38.088692 64.156968 37.543801 64.427734 36.601562 64.427734 C 34.668891 64.427734 33.047564 63.072305 32.638672 61.261719 z M 34.800781 76.921875 C 34.719268 77.246761 34.675781 77.608018 34.675781 78.007812 C 34.675781 79.703838 35.953323 81.316406 37.984375 81.316406 C 38.591594 81.316406 39.659954 80.980871 40.476562 80.771484 C 55.489571 77.693511 70.690144 78.029409 83.755859 85.902344 C 84.572467 86.38393 85.116666 86.654297 85.996094 86.654297 C 87.692121 86.654297 89.179688 85.337061 89.179688 83.431641 C 89.179688 83.002936 89.140099 82.632893 89.066406 82.308594 C 88.690559 83.729533 87.417068 84.654297 85.996094 84.654297 C 85.116666 84.654297 84.572467 84.38393 83.755859 83.902344 C 70.690144 76.029409 55.489571 75.693511 40.476562 78.771484 C 39.659954 78.980871 38.591594 79.316406 37.984375 79.316406 C 36.325443 79.316406 35.168706 78.240188 34.800781 76.921875 z " />
  </g>
</svg>
