<?xml version="1.0" encoding="UTF-8" standalone="no"?>
<!-- Created with Inkscape (http://www.inkscape.org/) -->

<svg
   width="128"
   height="128"
   viewBox="0 0 128 128"
   version="1.1"
   id="svg5"
   inkscape:version="1.4.3 (0d15f75042, 2025-12-25)"
   sodipodi:docname="com.moonlight_stream.Moonlight.svg"
   inkscape:export-filename="/home/retro/.icons/skeuowaita/scalable/apps/skeuowaita.png"
   inkscape:export-xdpi="1536"
   inkscape:export-ydpi="1536"
   xml:space="preserve"
   xmlns:inkscape="http://www.inkscape.org/namespaces/inkscape"
   xmlns:sodipodi="http://sodipodi.sourceforge.net/DTD/sodipodi-0.dtd"
   xmlns:xlink="http://www.w3.org/1999/xlink"
   xmlns="http://www.w3.org/2000/svg"
   xmlns:svg="http://www.w3.org/2000/svg"><sodipodi:namedview
     id="namedview7"
     pagecolor="#ffffff"
     bordercolor="#666666"
     borderopacity="1"
     inkscape:pageshadow="2"
     inkscape:pageopacity="0.0"
     inkscape:pagecheckerboard="true"
     inkscape:document-units="px"
     showgrid="false"
     inkscape:showpageshadow="false"
     showborder="true"
     inkscape:snap-page="true"
     inkscape:zoom="2.8284271"
     inkscape:cx="25.102291"
     inkscape:cy="111.89965"
     inkscape:window-width="1728"
     inkscape:window-height="1043"
     inkscape:window-x="0"
     inkscape:window-y="0"
     inkscape:window-maximized="1"
     inkscape:current-layer="layer2"
     inkscape:snap-bbox="true"
     inkscape:snap-bbox-midpoints="true"
     inkscape:snap-bbox-edge-midpoints="true"
     inkscape:bbox-nodes="true"
     inkscape:bbox-paths="true"
     inkscape:snap-intersection-paths="true"
     inkscape:object-paths="true"
     inkscape:snap-smooth-nodes="true"
     inkscape:snap-midpoints="true"
     inkscape:deskcolor="#d1d1d1"
     showguides="true"><inkscape:grid
       id="grid1"
       units="px"
       originx="0"
       originy="0"
       spacingx="1"
       spacingy="1"
       empcolor="#0099e5"
       empopacity="0.30196078"
       color="#0099e5"
       opacity="0.14902"
       empspacing="5"
       enabled="true"
       visible="false" /></sodipodi:namedview><defs
     id="defs2"><linearGradient
       inkscape:collect="always"
       id="linearGradient4539"><stop
         style="stop-color:#5c626b;stop-opacity:1;"
         offset="0"
         id="stop4535" /><stop
         style="stop-color:#e2e5ea;stop-opacity:1;"
         offset="1"
         id="stop4537" /></linearGradient><linearGradient
       inkscape:collect="always"
       id="linearGradient5042"><stop
         style="stop-color:#242929;stop-opacity:1;"
         offset="0"
         id="stop5038" /><stop
         style="stop-color:#1f2228;stop-opacity:1;"
         offset="0.29999998"
         id="stop12907" /><stop
         style="stop-color:#3b3e45;stop-opacity:1;"
         offset="0.49999997"
         id="stop7880" /><stop
         style="stop-color:#2c343c;stop-opacity:1;"
         offset="0.69999999"
         id="stop12905" /><stop
         style="stop-color:#242627;stop-opacity:1;"
         offset="1"
         id="stop5040" /></linearGradient><linearGradient
       y2="236"
       x2="96"
       y1="236"
       x1="32"
       gradientTransform="translate(604.81684,170.58641)"
       gradientUnits="userSpaceOnUse"
       id="linearGradient1099"
       xlink:href="#linearGradient1036" /><linearGradient
       id="linearGradient1036"><stop
         id="stop1032"
         offset="0"
         style="stop-color:#d5d3cf;stop-opacity:1;" /><stop
         id="stop1034"
         offset="1"
         style="stop-color:#f6f5f4;stop-opacity:1" /></linearGradient><radialGradient
       r="32"
       fy="-76"
       fx="-244"
       cy="-76"
       cx="-244"
       gradientTransform="matrix(0.88333331,0,0,0.88333331,-460.35018,463.11973)"
       gradientUnits="userSpaceOnUse"
       id="radialGradient1103"
       xlink:href="#linearGradient1069" /><linearGradient
       id="linearGradient1069"><stop
         id="stop1065"
         offset="0"
         style="stop-color:#d5d3cf;stop-opacity:1" /><stop
         id="stop1067-1"
         offset="1"
         style="stop-color:#949390;stop-opacity:1" /></linearGradient><linearGradient
       gradientUnits="userSpaceOnUse"
       y2="232"
       x2="64"
       y1="262.5"
       x1="64"
       id="linearGradient1027"
       xlink:href="#linearGradient1025"
       gradientTransform="translate(-470.5864,432.81685)" /><linearGradient
       id="linearGradient1025"><stop
         id="stop1021"
         offset="0"
         style="stop-color:#9a9996;stop-opacity:1" /><stop
         id="stop1023"
         offset="1"
         style="stop-color:#77767b;stop-opacity:1" /></linearGradient><inkscape:path-effect
       effect="spiro"
       id="path-effect35304-9"
       is_visible="true" /><clipPath
       clipPathUnits="userSpaceOnUse"
       id="clipPath1609-7"><path
         sodipodi:nodetypes="cccccc"
         inkscape:connector-curvature="0"
         id="path1611-5"
         d="m 252,116 28,-28 v -8 h -36 v 36 z"
         style="fill:#e74747;stroke:none;stroke-width:0.25px;stroke-linecap:butt;stroke-linejoin:miter;stroke-opacity:1" /></clipPath><radialGradient
       r="32"
       fy="-76"
       fx="-244"
       cy="-76"
       cx="-244"
       gradientTransform="matrix(0.88333331,0,0,0.88333331,-460.35018,463.11973)"
       gradientUnits="userSpaceOnUse"
       id="radialGradient1103-5"
       xlink:href="#linearGradient1069" /><inkscape:path-effect
       effect="spiro"
       id="path-effect35304-9-2"
       is_visible="true" /><clipPath
       clipPathUnits="userSpaceOnUse"
       id="clipPath1609-7-7"><path
         sodipodi:nodetypes="cccccc"
         inkscape:connector-curvature="0"
         id="path1611-5-0"
         d="m 252,116 28,-28 v -8 h -36 v 36 z"
         style="fill:#e74747;stroke:none;stroke-width:0.25px;stroke-linecap:butt;stroke-linejoin:miter;stroke-opacity:1" /></clipPath><clipPath
       clipPathUnits="userSpaceOnUse"
       id="clipPath744"><rect
         style="fill:#1e88e5;fill-opacity:1;stroke-width:0.264583"
         id="rect746"
         width="541.86664"
         height="541.86664"
         x="0"
         y="1.5987212e-14"
         rx="79.375"
         ry="79.375" /></clipPath><clipPath
       clipPathUnits="userSpaceOnUse"
       id="clipPath62"><rect
         style="fill:#1e88e5;fill-opacity:1;stroke-width:0.264583"
         id="rect64"
         width="541.86664"
         height="541.86664"
         x="2.2507105e-05"
         y="-0.42205024"
         rx="79.375"
         ry="79.375" /></clipPath><radialGradient
       r="32"
       fy="-76"
       fx="-244"
       cy="-76"
       cx="-244"
       gradientTransform="matrix(0.88333331,0,0,0.88333331,-460.35018,463.11973)"
       gradientUnits="userSpaceOnUse"
       id="radialGradient1103-6"
       xlink:href="#linearGradient1069" /><inkscape:path-effect
       effect="spiro"
       id="path-effect35304-9-20"
       is_visible="true" /><clipPath
       clipPathUnits="userSpaceOnUse"
       id="clipPath1609-7-2"><path
         sodipodi:nodetypes="cccccc"
         inkscape:connector-curvature="0"
         id="path1611-5-3"
         d="m 252,116 28,-28 v -8 h -36 v 36 z"
         style="fill:#e74747;stroke:none;stroke-width:0.25px;stroke-linecap:butt;stroke-linejoin:miter;stroke-opacity:1" /></clipPath><clipPath
       clipPathUnits="userSpaceOnUse"
       id="clipPath961"><rect
         style="fill:#00c853;stroke:none;stroke-width:0.529037"
         id="rect963"
         width="541.86664"
         height="541.86664"
         x="1.4210855e-14"
         y="2.717972e-05"
         rx="79.375"
         ry="79.375" /></clipPath><radialGradient
       r="32"
       fy="-76"
       fx="-244"
       cy="-76"
       cx="-244"
       gradientTransform="matrix(0.88333331,0,0,0.88333331,-460.35018,463.11973)"
       gradientUnits="userSpaceOnUse"
       id="radialGradient1103-56"
       xlink:href="#linearGradient1069" /><inkscape:path-effect
       effect="spiro"
       id="path-effect35304-9-7"
       is_visible="true" /><clipPath
       clipPathUnits="userSpaceOnUse"
       id="clipPath1440"><circle
         style="display:inline;opacity:1;vector-effect:none;fill:none;fill-opacity:1;stroke:#000000;stroke-width:2;stroke-linecap:butt;stroke-linejoin:miter;stroke-miterlimit:4;stroke-dasharray:none;stroke-dashoffset:0;stroke-opacity:1;marker:none;marker-start:none;marker-mid:none;marker-end:none;paint-order:normal;enable-background:new"
         id="circle1442"
         cx="-134.35028"
         cy="193.74727"
         r="24"
         transform="rotate(-45)" /></clipPath><clipPath
       clipPathUnits="userSpaceOnUse"
       id="clipPath1430"><circle
         style="display:inline;opacity:1;vector-effect:none;fill:none;fill-opacity:1;stroke:#000000;stroke-width:2;stroke-linecap:butt;stroke-linejoin:miter;stroke-miterlimit:4;stroke-dasharray:none;stroke-dashoffset:0;stroke-opacity:1;marker:none;marker-start:none;marker-mid:none;marker-end:none;paint-order:normal;enable-background:new"
         id="circle1432"
         cx="12"
         cy="232"
         r="24" /></clipPath><clipPath
       clipPathUnits="userSpaceOnUse"
       id="clipPath1440-9"><circle
         style="display:inline;opacity:1;vector-effect:none;fill:none;fill-opacity:1;stroke:#000000;stroke-width:2;stroke-linecap:butt;stroke-linejoin:miter;stroke-miterlimit:4;stroke-dasharray:none;stroke-dashoffset:0;stroke-opacity:1;marker:none;marker-start:none;marker-mid:none;marker-end:none;paint-order:normal;enable-background:new"
         id="circle1442-5"
         cx="-134.35028"
         cy="193.74727"
         r="24"
         transform="rotate(-45)" /></clipPath><clipPath
       clipPathUnits="userSpaceOnUse"
       id="clipPath1430-1"><circle
         style="display:inline;opacity:1;vector-effect:none;fill:none;fill-opacity:1;stroke:#000000;stroke-width:2;stroke-linecap:butt;stroke-linejoin:miter;stroke-miterlimit:4;stroke-dasharray:none;stroke-dashoffset:0;stroke-opacity:1;marker:none;marker-start:none;marker-mid:none;marker-end:none;paint-order:normal;enable-background:new"
         id="circle1432-8"
         cx="12"
         cy="232"
         r="24" /></clipPath><clipPath
       clipPathUnits="userSpaceOnUse"
       id="clipPath2024"><rect
         style="opacity:1;vector-effect:none;fill:#63452c;fill-opacity:1;stroke:none;stroke-width:4;stroke-linecap:round;stroke-linejoin:round;stroke-miterlimit:4;stroke-dasharray:none;stroke-dashoffset:0;stroke-opacity:1"
         id="rect2026"
         width="74"
         height="98"
         x="6"
         y="196" /></clipPath><linearGradient
       id="linearGradient914"
       inkscape:collect="always"><stop
         id="stop910"
         offset="0"
         style="stop-color:#f6f5f4;stop-opacity:0.43700787" /><stop
         id="stop912"
         offset="1"
         style="stop-color:#deddda;stop-opacity:0;" /></linearGradient><radialGradient
       gradientTransform="matrix(2.6086955,0,0,1.8410361,-102.95652,-748.94671)"
       gradientUnits="userSpaceOnUse"
       r="46"
       fy="296"
       fx="64.000008"
       cy="296"
       cx="64.000008"
       id="radialGradient916"
       xlink:href="#linearGradient914"
       inkscape:collect="always" /><clipPath
       clipPathUnits="userSpaceOnUse"
       id="clipPath11543"><rect
         style="fill:#f0c04e;fill-opacity:1;stroke:none;stroke-width:0.529037"
         id="rect11545"
         width="541.86664"
         height="541.86664"
         x="1.4746095e-06"
         y="6.4330168e-05"
         rx="79.375"
         ry="79.375" /></clipPath><style
       id="style374">.cls-1{fill:url(#linear-gradient);}.cls-2{opacity:0.35;fill:url(#radial-gradient);}.cls-2,.cls-4{isolation:isolate;}.cls-3{fill:url(#linear-gradient-2);}.cls-4{opacity:0.41;fill:url(#radial-gradient-2);}.cls-5{fill:url(#radial-gradient-3);}.cls-6{fill:url(#radial-gradient-4);}</style><linearGradient
       id="linear-gradient"
       x1="63.33"
       y1="84.03"
       x2="241.67"
       y2="84.03"
       gradientTransform="matrix(1,0,0,-1,0,266)"
       gradientUnits="userSpaceOnUse"><stop
         offset="0"
         stop-color="#0c59a4"
         id="stop376" /><stop
         offset="1"
         stop-color="#114a8b"
         id="stop378" /></linearGradient><radialGradient
       id="radial-gradient"
       cx="161.83"
       cy="68.91"
       r="95.38"
       gradientTransform="matrix(1,0,0,-0.95,0,248.84)"
       gradientUnits="userSpaceOnUse"><stop
         offset="0.72"
         stop-opacity="0"
         id="stop381" /><stop
         offset="0.95"
         stop-opacity="0.53"
         id="stop383" /><stop
         offset="1"
         id="stop385" /></radialGradient><linearGradient
       id="linear-gradient-2"
       x1="157.35"
       y1="161.39"
       x2="45.96"
       y2="40.06"
       gradientTransform="matrix(1,0,0,-1,0,266)"
       gradientUnits="userSpaceOnUse"><stop
         offset="0"
         stop-color="#1b9de2"
         id="stop388" /><stop
         offset="0.16"
         stop-color="#1595df"
         id="stop390" /><stop
         offset="0.67"
         stop-color="#0680d7"
         id="stop392" /><stop
         offset="1"
         stop-color="#0078d4"
         id="stop394" /></linearGradient><radialGradient
       id="radial-gradient-2"
       cx="-340.29"
       cy="62.99"
       r="143.24"
       gradientTransform="matrix(0.15,-0.99,-0.8,-0.12,176.64,-125.4)"
       gradientUnits="userSpaceOnUse"><stop
         offset="0.76"
         stop-opacity="0"
         id="stop397" /><stop
         offset="0.95"
         stop-opacity="0.5"
         id="stop399" /><stop
         offset="1"
         id="stop401" /></radialGradient><radialGradient
       id="radial-gradient-3"
       cx="113.37"
       cy="570.21"
       r="202.43"
       gradientTransform="matrix(-0.04,1,2.13,0.08,-1179.54,-106.69)"
       gradientUnits="userSpaceOnUse"><stop
         offset="0"
         stop-color="#35c1f1"
         id="stop404" /><stop
         offset="0.11"
         stop-color="#34c1ed"
         id="stop406" /><stop
         offset="0.23"
         stop-color="#2fc2df"
         id="stop408" /><stop
         offset="0.31"
         stop-color="#2bc3d2"
         id="stop410" /><stop
         offset="0.67"
         stop-color="#36c752"
         id="stop412" /></radialGradient><radialGradient
       id="radial-gradient-4"
       cx="376.52"
       cy="567.97"
       r="97.34"
       gradientTransform="matrix(0.28,0.96,0.78,-0.23,-303.76,-148.5)"
       gradientUnits="userSpaceOnUse"><stop
         offset="0"
         stop-color="#66eb6e"
         id="stop415" /><stop
         offset="1"
         stop-color="#66eb6e"
         stop-opacity="0"
         id="stop417" /></radialGradient><clipPath
       clipPathUnits="userSpaceOnUse"
       id="clipPath1260"><rect
         style="fill:#bbdefb;fill-opacity:1;stroke:none;stroke-width:0.529037"
         id="rect1262"
         width="541.86664"
         height="541.86664"
         x="2.9492187e-06"
         y="3.9968629e-05"
         rx="79.375"
         ry="79.375" /></clipPath><clipPath
       clipPathUnits="userSpaceOnUse"
       id="clipPath16285"><rect
         style="fill:#bbdefb;fill-opacity:1;stroke:none;stroke-width:0.529037"
         id="rect16287"
         width="541.86664"
         height="541.86664"
         x="0"
         y="6.4807005e-05"
         rx="79.375"
         ry="79.375" /></clipPath><clipPath
       clipPathUnits="userSpaceOnUse"
       id="clipPath990"><rect
         style="fill:#bbdefb;fill-opacity:1;stroke:none;stroke-width:0.529037"
         id="rect992"
         width="487.67996"
         height="487.67996"
         x="27.093349"
         y="27.093338"
         rx="71.4375"
         ry="71.4375" /></clipPath><linearGradient
       id="linearGradient4292"><stop
         id="stop4294"
         offset="0"
         style="stop-color:#411f5d;stop-opacity:1" /><stop
         id="stop4296"
         offset="1"
         style="stop-color:#5b2a85;stop-opacity:1" /></linearGradient><linearGradient
       id="linearGradient4284"><stop
         offset="0"
         style="stop-color:#8381c5;stop-opacity:1"
         id="stop4286" /><stop
         id="stop4290"
         style="stop-color:#7e55b3;stop-opacity:0.99607843"
         offset="0.56639391" /><stop
         offset="1"
         style="stop-color:#a52ecb;stop-opacity:0.99215686"
         id="stop4288" /></linearGradient><linearGradient
       id="linearGradient4898"><stop
         id="stop4278"
         style="stop-color:#bab8db;stop-opacity:1"
         offset="0" /><stop
         id="stop4280"
         style="stop-color:#5955a9;stop-opacity:0.99159664"
         offset="1" /></linearGradient><linearGradient
       id="linearGradient3294"><stop
         offset="0"
         style="stop-color:#6376e6;stop-opacity:1"
         id="stop3296" /><stop
         offset="0.50094414"
         style="stop-color:#222989;stop-opacity:1"
         id="stop3302" /><stop
         offset="1"
         style="stop-color:#00003d;stop-opacity:1"
         id="stop3298" /></linearGradient><linearGradient
       id="linearGradient3284"><stop
         offset="0"
         style="stop-color:#000000;stop-opacity:1"
         id="stop3286" /><stop
         offset="0.84845906"
         style="stop-color:#000000;stop-opacity:0.49803922"
         id="stop3292" /><stop
         offset="1"
         style="stop-color:#000000;stop-opacity:0"
         id="stop3288" /></linearGradient><linearGradient
       id="linearGradient3274"><stop
         offset="0"
         style="stop-color:#000000;stop-opacity:1"
         id="stop3276" /><stop
         offset="1"
         style="stop-color:#000000;stop-opacity:0"
         id="stop3278" /></linearGradient><linearGradient
       id="linearGradient3242"><stop
         offset="0"
         style="stop-color:#282828;stop-opacity:1"
         id="stop3244" /><stop
         offset="0.39253417"
         style="stop-color:#808080;stop-opacity:1"
         id="stop3252" /><stop
         offset="1"
         style="stop-color:#d9d9d9;stop-opacity:1"
         id="stop3246" /></linearGradient><linearGradient
       id="linearGradient3202"><stop
         offset="0"
         style="stop-color:#2b2b2b;stop-opacity:1"
         id="stop3204" /><stop
         offset="0.5"
         style="stop-color:#828383;stop-opacity:1"
         id="stop3250" /><stop
         offset="1"
         style="stop-color:#dadbdb;stop-opacity:1"
         id="stop3206" /></linearGradient><linearGradient
       id="linearGradient4966"><stop
         offset="0"
         style="stop-color:#b6b3d8;stop-opacity:1"
         id="stop4968" /><stop
         offset="1"
         style="stop-color:#b6b3d8;stop-opacity:0"
         id="stop4970" /></linearGradient><linearGradient
       id="linearGradient4876"><stop
         offset="0"
         style="stop-color:#d3d2e8;stop-opacity:1"
         id="stop4878" /><stop
         offset="1"
         style="stop-color:#5955a9;stop-opacity:0.99159664"
         id="stop4880" /></linearGradient><radialGradient
       gradientTransform="matrix(0.6817439,0,0,0.5905355,-3.8523706,-28.935273)"
       gradientUnits="userSpaceOnUse"
       xlink:href="#linearGradient4898"
       id="radialGradient4892"
       fy="-108.96888"
       fx="20.951529"
       r="266.76535"
       cy="-108.96888"
       cx="20.951529" /><radialGradient
       gradientTransform="matrix(1,0,0,0.1854103,0,383.88493)"
       gradientUnits="userSpaceOnUse"
       xlink:href="#linearGradient3274"
       id="radialGradient4944"
       fy="471.26172"
       fx="233.8876"
       r="170.49393"
       cy="471.26172"
       cx="233.8876" /><radialGradient
       gradientTransform="matrix(1,0,0,0.9121621,0,32.654948)"
       gradientUnits="userSpaceOnUse"
       xlink:href="#linearGradient4966"
       id="radialGradient4972"
       fy="371.76376"
       fx="299.70135"
       r="76.696358"
       cy="371.76376"
       cx="299.70135" /><radialGradient
       gradientTransform="matrix(0.414705,0.3300575,-0.5059004,0.6356454,346.95314,49.479585)"
       gradientUnits="userSpaceOnUse"
       xlink:href="#linearGradient3202"
       id="radialGradient3210"
       fy="390.45248"
       fx="289.44067"
       r="17.67668"
       cy="390.45248"
       cx="289.44067" /><radialGradient
       gradientTransform="matrix(0.414705,0.3300575,-0.5059004,0.6356454,448.41009,-65.398074)"
       gradientUnits="userSpaceOnUse"
       xlink:href="#linearGradient3202"
       id="radialGradient3238"
       fy="382.14804"
       fx="283.50717"
       r="17.67668"
       cy="382.14804"
       cx="283.50717" /><radialGradient
       gradientTransform="matrix(-6.5565014e-2,-5.9721765e-2,1.6871024,-1.8521705,171.90774,540.51473)"
       gradientUnits="userSpaceOnUse"
       xlink:href="#linearGradient3242"
       id="radialGradient3248"
       fy="181.18982"
       fx="418.45551"
       r="63.068935"
       cy="181.18982"
       cx="418.45551" /><radialGradient
       gradientTransform="matrix(0.4055116,-3.3440123e-2,0.1034174,4.3988695,177.23251,-1191.6649)"
       gradientUnits="userSpaceOnUse"
       xlink:href="#linearGradient3274"
       id="radialGradient3268"
       fy="357.33591"
       fx="354.51709"
       r="33.712105"
       cy="357.33591"
       cx="354.51709" /><radialGradient
       gradientTransform="matrix(-0.1339874,-0.1146812,0.3079048,-0.3597394,444.23592,395.03849)"
       gradientUnits="userSpaceOnUse"
       xlink:href="#linearGradient3274"
       id="radialGradient3280"
       fy="223.55537"
       fx="510.58469"
       r="132.28336"
       cy="223.55537"
       cx="510.58469" /><radialGradient
       gradientTransform="matrix(-1.2497569,1.3798305,-9.6289463e-2,-7.2974479e-2,674.3826,-70.590682)"
       gradientUnits="userSpaceOnUse"
       xlink:href="#linearGradient3284"
       id="radialGradient3290"
       fy="-158.17821"
       fx="284.4671"
       r="110.2972"
       cy="-158.17821"
       cx="284.4671" /><radialGradient
       gradientTransform="matrix(-0.1008165,-8.0872321e-2,1.0745309,-1.3395252,13.843287,784.79288)"
       gradientUnits="userSpaceOnUse"
       xlink:href="#linearGradient3294"
       id="radialGradient3300"
       fy="356.62274"
       fx="425.51019"
       r="143.34167"
       cy="356.62274"
       cx="425.51019" /><filter
       height="1.1062305"
       y="-0.053115233"
       width="1.1073157"
       x="-0.053657864"
       id="filter4350"
       style="color-interpolation-filters:sRGB"><feGaussianBlur
         id="feGaussianBlur4352"
         stdDeviation="8.7848425" /></filter><linearGradient
       y2="300.73987"
       x2="236.61363"
       y1="-161.8512"
       x1="-122.20192"
       spreadMethod="pad"
       gradientTransform="matrix(0.17595114,0,0,0.16675393,-57.890895,62.668437)"
       gradientUnits="userSpaceOnUse"
       id="linearGradient4245"
       xlink:href="#linearGradient4284" /><linearGradient
       y2="66.018341"
       x2="173.94518"
       y1="396.6066"
       x1="447.80933"
       gradientTransform="matrix(0.19870189,0,0,0.19870189,-106.81348,12.782767)"
       gradientUnits="userSpaceOnUse"
       id="linearGradient4247"
       xlink:href="#linearGradient4292" /><linearGradient
       inkscape:collect="always"
       xlink:href="#linearGradient5042"
       id="linearGradient5044"
       x1="9"
       y1="115"
       x2="119"
       y2="115"
       gradientUnits="userSpaceOnUse" /><linearGradient
       inkscape:collect="always"
       xlink:href="#linearGradient4539"
       id="linearGradient4541"
       x1="64"
       y1="115"
       x2="64"
       y2="7.5105515"
       gradientUnits="userSpaceOnUse" /></defs><g
     inkscape:groupmode="layer"
     id="layer2"
     inkscape:label="Layer 1"><path
       id="circle1035"
       style="display:inline;fill:url(#linearGradient5044);fill-opacity:1"
       d="M 64,5 A 55,55 0 0 0 9,60 v 8 a 55,55 0 0 0 55,55 55,55 0 0 0 55,-55 V 60 A 55,55 0 0 0 64,5 Z" /><circle
       style="display:inline;fill:url(#linearGradient4541);fill-opacity:1;stroke-width:1"
       id="path953"
       cx="64"
       cy="60"
       r="55"
       inkscape:export-filename="/home/retro/.icons/skeuowaita/scalable/apps/skeuwaita.png"
       inkscape:export-xdpi="1536"
       inkscape:export-ydpi="1536" /><text
       xml:space="preserve"
       style="font-style:normal;font-variant:normal;font-weight:normal;font-stretch:normal;font-size:40px;line-height:1.25;font-family:'DejaVu Math TeX Gyre';-inkscape-font-specification:'DejaVu Math TeX Gyre';display:inline;fill:#000000;fill-opacity:1;stroke:none"
       x="57.303368"
       y="70.244858"
       id="text3441"><tspan
         sodipodi:role="line"
         id="tspan3439"
         x="0"
         y="0" /></text><text
       xml:space="preserve"
       style="font-size:40px;line-height:1.25;font-family:Caladea;-inkscape-font-specification:Caladea"
       x="43.168587"
       y="70.812454"
       id="text13903"><tspan
         sodipodi:role="line"
         id="tspan13901"
         x="43.168587"
         y="70.812454" /></text><rect
       style="display:none;fill:none;stroke-width:0.20135"
       id="rect4772"
       y="12.314822"
       x="-107.39003"
       height="103.09106"
       width="103.09106"
       inkscape:label="rect4772" /><ellipse
       style="display:inline;fill:#565c64;fill-opacity:1;stroke-width:0.956048"
       id="circle466"
       cx="64"
       cy="60.186546"
       inkscape:export-filename="/home/retro/.icons/skeuowaita/scalable/apps/skeuwaita.png"
       inkscape:export-xdpi="1536"
       inkscape:export-ydpi="1536"
       ry="52.675995"
       rx="52.489449" /><path
       id="path10"
       style="display:inline;isolation:isolate;fill:#363d48;fill-opacity:1;stroke-width:0.429688"
       d="m 62.28125,22.972656 a 41.25,41.25 0 0 0 -24.208984,9.128906 v -0.273437 h -2 v 2 L 62.28125,60.037109 Z m 3.4375,0 V 60.037109 L 91.927734,33.828125 v -2 h -2 v 0.273437 A 41.25,41.25 0 0 0 65.71875,22.972656 Z M 33.640625,36.259766 A 41.25,41.25 0 0 0 22.785156,62.46875 h 35.064453 2 v -2 h -2 z m 60.71875,0 -24.208984,24.208984 h -2 v 2 h 2 35.064449 A 41.25,41.25 0 0 0 94.359375,36.259766 Z M 57.849609,63.90625 v 2 H 22.785156 A 41.25,41.25 0 0 0 33.640625,92.115234 L 59.849609,65.90625 v -2 z m 10.300782,0 v 2 L 94.359375,92.115234 A 41.25,41.25 0 0 0 105.21484,65.90625 H 70.150391 v -2 z M 62.28125,68.337891 37.580078,93.041016 v -0.494141 h -1.507812 v 2 h 0.002 A 41.25,41.25 0 0 0 62.28125,105.40234 Z m 3.4375,0 V 105.40234 A 41.25,41.25 0 0 0 91.925781,94.546875 h 0.002 v -2 h -2 z" /><path
       id="path3"
       style="display:inline;isolation:isolate;fill:#a9b1b9;fill-opacity:1;stroke-width:0.429688"
       d="M 62.28125 20.972656 A 41.25 41.25 0 0 0 38.072266 30.101562 L 38.072266 29.828125 L 36.072266 29.828125 L 36.072266 31.828125 L 62.28125 58.037109 L 62.28125 20.972656 z M 65.71875 20.972656 L 65.71875 58.037109 L 91.927734 31.828125 L 91.927734 29.828125 L 89.927734 29.828125 L 89.927734 30.101562 A 41.25 41.25 0 0 0 65.71875 20.972656 z M 33.640625 34.259766 A 41.25 41.25 0 0 0 22.785156 60.46875 L 57.849609 60.46875 L 59.849609 60.46875 L 59.849609 58.46875 L 57.849609 58.46875 L 33.640625 34.259766 z M 94.359375 34.259766 L 70.150391 58.46875 L 68.150391 58.46875 L 68.150391 60.46875 L 70.150391 60.46875 L 105.21484 60.46875 A 41.25 41.25 0 0 0 94.359375 34.259766 z M 57.849609 61.90625 L 57.849609 63.90625 L 22.785156 63.90625 A 41.25 41.25 0 0 0 33.640625 90.115234 L 59.849609 63.90625 L 59.849609 61.90625 L 57.849609 61.90625 z M 68.150391 61.90625 L 68.150391 63.90625 L 94.359375 90.115234 A 41.25 41.25 0 0 0 105.21484 63.90625 L 70.150391 63.90625 L 70.150391 61.90625 L 68.150391 61.90625 z M 62.28125 66.337891 L 37.580078 91.041016 L 37.580078 90.546875 L 36.072266 90.546875 L 36.072266 92.546875 L 36.074219 92.546875 A 41.25 41.25 0 0 0 62.28125 103.40234 L 62.28125 66.337891 z M 65.71875 66.337891 L 65.71875 103.40234 A 41.25 41.25 0 0 0 91.925781 92.546875 L 91.927734 92.546875 L 91.927734 90.546875 L 89.927734 90.546875 L 65.71875 66.337891 z " /><path
       id="circle2"
       d="M 62.281251,18.971701 A 41.25,41.25 0 0 0 36.072266,29.82717 l 26.208985,26.208985 z m 3.4375,0 V 56.036155 L 91.927732,29.82717 A 41.25,41.25 0 0 0 65.718751,18.971701 Z M 33.640626,32.258811 A 41.25,41.25 0 0 0 22.785157,58.467795 h 37.064454 z m 60.718751,0 -26.208987,26.208984 h 37.06445 A 41.25,41.25 0 0 0 94.359377,32.258811 Z M 22.785157,61.905295 A 41.25,41.25 0 0 0 33.640626,88.114282 L 59.849611,61.905295 Z m 45.365233,0 26.208987,26.208987 A 41.25,41.25 0 0 0 105.21484,61.905295 Z m -5.869139,2.43164 -26.208985,26.208987 a 41.25,41.25 0 0 0 26.208985,10.855468 z m 3.4375,0 V 101.40139 A 41.25,41.25 0 0 0 91.927732,90.545922 Z"
       style="display:inline;isolation:isolate;stroke-width:0.429688;fill:#eff1f3;fill-opacity:1" /><path
       id="path1"
       style="display:inline;isolation:isolate;stroke-width:0.429688;fill:#ffffff;fill-opacity:1"
       d="M 62.28125 18.972656 A 41.25 41.25 0 0 0 36.072266 29.828125 L 37.130859 30.886719 A 41.25 41.25 0 0 1 62.28125 20.972656 L 62.28125 18.972656 z M 65.71875 18.972656 L 65.71875 20.972656 A 41.25 41.25 0 0 1 90.869141 30.886719 L 91.927734 29.828125 A 41.25 41.25 0 0 0 65.71875 18.972656 z M 33.640625 32.259766 A 41.25 41.25 0 0 0 22.785156 58.46875 L 22.917969 58.46875 A 41.25 41.25 0 0 1 33.640625 34.259766 L 57.849609 58.46875 L 59.849609 58.46875 L 33.640625 32.259766 z M 94.359375 32.259766 L 68.150391 58.46875 L 70.150391 58.46875 L 94.359375 34.259766 A 41.25 41.25 0 0 1 105.08203 58.46875 L 105.21484 58.46875 A 41.25 41.25 0 0 0 94.359375 32.259766 z M 22.785156 61.90625 A 41.25 41.25 0 0 0 22.917969 63.90625 L 57.849609 63.90625 L 59.849609 61.90625 L 22.785156 61.90625 z M 68.150391 61.90625 L 70.150391 63.90625 L 105.08203 63.90625 A 41.25 41.25 0 0 0 105.21484 61.90625 L 68.150391 61.90625 z M 62.28125 64.337891 L 36.072266 90.546875 A 41.25 41.25 0 0 0 37.130859 91.486328 L 37.132812 91.486328 L 62.28125 66.337891 L 62.28125 64.337891 z M 65.71875 64.337891 L 65.71875 66.337891 L 90.867188 91.486328 L 90.869141 91.486328 A 41.25 41.25 0 0 0 91.927734 90.546875 L 65.71875 64.337891 z " /><path
       id="path2"
       style="display:inline;isolation:isolate;stroke-width:0.429688;fill:#f8f9fa;fill-opacity:1"
       d="M 37.130859 28.886719 A 41.25 41.25 0 0 0 36.072266 29.828125 L 62.28125 56.037109 L 62.28125 54.037109 L 37.130859 28.886719 z M 90.869141 28.886719 L 65.71875 54.037109 L 65.71875 56.037109 L 91.927734 29.828125 A 41.25 41.25 0 0 0 90.869141 28.886719 z M 22.917969 56.46875 A 41.25 41.25 0 0 0 22.785156 58.46875 L 59.849609 58.46875 L 57.849609 56.46875 L 22.917969 56.46875 z M 70.150391 56.46875 L 68.150391 58.46875 L 105.21484 58.46875 A 41.25 41.25 0 0 0 105.08203 56.46875 L 70.150391 56.46875 z M 22.785156 61.90625 A 41.25 41.25 0 0 0 33.640625 88.115234 L 59.849609 61.90625 L 57.849609 61.90625 L 33.640625 86.115234 A 41.25 41.25 0 0 1 22.917969 61.90625 L 22.785156 61.90625 z M 68.150391 61.90625 L 94.359375 88.115234 A 41.25 41.25 0 0 0 105.21484 61.90625 L 105.08203 61.90625 A 41.25 41.25 0 0 1 94.359375 86.115234 L 70.150391 61.90625 L 68.150391 61.90625 z M 37.130859 89.486328 L 36.072266 90.546875 A 41.25 41.25 0 0 0 62.28125 101.40234 L 62.28125 99.402344 A 41.25 41.25 0 0 1 37.132812 89.486328 L 37.130859 89.486328 z M 90.867188 89.486328 A 41.25 41.25 0 0 1 65.71875 99.402344 L 65.71875 101.40234 A 41.25 41.25 0 0 0 91.927734 90.546875 L 90.869141 89.486328 L 90.867188 89.486328 z " /></g></svg>
