<?xml version="1.0" encoding="UTF-8" standalone="no"?>
<!-- Created with Inkscape (http://www.inkscape.org/) -->

<svg
   width="128"
   height="128"
   viewBox="0 0 128 128"
   version="1.1"
   id="svg5"
   inkscape:version="1.4.3 (0d15f75042, 2025-12-25)"
   sodipodi:docname="com.visualstudio.code.svg"
   xml:space="preserve"
   xmlns:inkscape="http://www.inkscape.org/namespaces/inkscape"
   xmlns:sodipodi="http://sodipodi.sourceforge.net/DTD/sodipodi-0.dtd"
   xmlns:xlink="http://www.w3.org/1999/xlink"
   xmlns="http://www.w3.org/2000/svg"
   xmlns:svg="http://www.w3.org/2000/svg"><sodipodi:namedview
     id="namedview7"
     pagecolor="#ffffff"
     bordercolor="#666666"
     borderopacity="1"
     inkscape:pageshadow="2"
     inkscape:pageopacity="0.0"
     inkscape:pagecheckerboard="true"
     inkscape:document-units="px"
     showgrid="false"
     inkscape:showpageshadow="false"
     showborder="true"
     inkscape:snap-page="true"
     inkscape:zoom="3.2627628"
     inkscape:cx="15.784169"
     inkscape:cy="88.881729"
     inkscape:window-width="1728"
     inkscape:window-height="1043"
     inkscape:window-x="0"
     inkscape:window-y="0"
     inkscape:window-maximized="1"
     inkscape:current-layer="layer2"
     inkscape:deskcolor="#d1d1d1" /><defs
     id="defs2"><linearGradient
       id="linearGradient16"
       x1="49.9392"
       y1="0.257812"
       x2="49.9392"
       y2="99.7423"
       gradientUnits="userSpaceOnUse"
       gradientTransform="matrix(0.76242929,0,0,0.76242929,22.69079,21.878509)"><stop
         stop-color="white"
         id="stop15"
         offset="0"
         style="stop-color:#3b3b3b;stop-opacity:1;" /><stop
         offset="1"
         stop-color="white"
         stop-opacity="0"
         id="stop16" /></linearGradient><linearGradient
       id="linearGradient7"
       x1="49.9392"
       y1="0.257812"
       x2="49.9392"
       y2="99.7423"
       gradientUnits="userSpaceOnUse"
       gradientTransform="matrix(0.76242929,0,0,0.76242929,26.69079,21.878509)"><stop
         stop-color="white"
         id="stop6"
         offset="0"
         style="stop-color:#000000;stop-opacity:1;" /><stop
         offset="1"
         stop-color="white"
         stop-opacity="0"
         id="stop7"
         style="stop-color:#000000;stop-opacity:1;" /></linearGradient><linearGradient
       inkscape:collect="always"
       id="linearGradient404"><stop
         style="stop-color:#f1f1f1;stop-opacity:1;"
         offset="0"
         id="stop400" /><stop
         style="stop-color:#ffffff;stop-opacity:1;"
         offset="1"
         id="stop402" /></linearGradient><linearGradient
       y2="236"
       x2="96"
       y1="236"
       x1="32"
       gradientTransform="translate(604.81684,170.58641)"
       gradientUnits="userSpaceOnUse"
       id="linearGradient1099"
       xlink:href="#linearGradient1036" /><linearGradient
       id="linearGradient1036"><stop
         id="stop1032"
         offset="0"
         style="stop-color:#d5d3cf;stop-opacity:1;" /><stop
         id="stop1034"
         offset="1"
         style="stop-color:#f6f5f4;stop-opacity:1" /></linearGradient><radialGradient
       r="32"
       fy="-76"
       fx="-244"
       cy="-76"
       cx="-244"
       gradientTransform="matrix(0.88333331,0,0,0.88333331,-460.35018,463.11973)"
       gradientUnits="userSpaceOnUse"
       id="radialGradient1103"
       xlink:href="#linearGradient1069" /><linearGradient
       id="linearGradient1069"><stop
         id="stop1065"
         offset="0"
         style="stop-color:#d5d3cf;stop-opacity:1" /><stop
         id="stop1067-1"
         offset="1"
         style="stop-color:#949390;stop-opacity:1" /></linearGradient><linearGradient
       gradientUnits="userSpaceOnUse"
       y2="232"
       x2="64"
       y1="262.5"
       x1="64"
       id="linearGradient1027"
       xlink:href="#linearGradient1025"
       gradientTransform="translate(-470.5864,432.81685)" /><linearGradient
       id="linearGradient1025"><stop
         id="stop1021"
         offset="0"
         style="stop-color:#9a9996;stop-opacity:1" /><stop
         id="stop1023"
         offset="1"
         style="stop-color:#77767b;stop-opacity:1" /></linearGradient><inkscape:path-effect
       effect="spiro"
       id="path-effect35304-9"
       is_visible="true" /><clipPath
       clipPathUnits="userSpaceOnUse"
       id="clipPath1609-7"><path
         sodipodi:nodetypes="cccccc"
         inkscape:connector-curvature="0"
         id="path1611-5"
         d="m 252,116 28,-28 v -8 h -36 v 36 z"
         style="fill:#e74747;stroke:none;stroke-width:0.25px;stroke-linecap:butt;stroke-linejoin:miter;stroke-opacity:1" /></clipPath><linearGradient
       inkscape:collect="always"
       id="linearGradient8241"><stop
         style="stop-color:#999999;stop-opacity:1"
         offset="0"
         id="stop8237" /><stop
         style="stop-color:#b3b3b3;stop-opacity:1"
         offset="0.05"
         id="stop9349" /><stop
         style="stop-color:#999999;stop-opacity:1"
         offset="0.1"
         id="stop21746" /><stop
         style="stop-color:#999999;stop-opacity:1"
         offset="0.89999998"
         id="stop21940" /><stop
         style="stop-color:#b3b3b3;stop-opacity:1"
         offset="0.94999999"
         id="stop9351" /><stop
         style="stop-color:#999999;stop-opacity:1"
         offset="1"
         id="stop8239" /></linearGradient><radialGradient
       r="32"
       fy="-76"
       fx="-244"
       cy="-76"
       cx="-244"
       gradientTransform="matrix(0.88333331,0,0,0.88333331,-460.35018,463.11973)"
       gradientUnits="userSpaceOnUse"
       id="radialGradient1103-5"
       xlink:href="#linearGradient1069" /><inkscape:path-effect
       effect="spiro"
       id="path-effect35304-9-2"
       is_visible="true" /><clipPath
       clipPathUnits="userSpaceOnUse"
       id="clipPath1609-7-7"><path
         sodipodi:nodetypes="cccccc"
         inkscape:connector-curvature="0"
         id="path1611-5-0"
         d="m 252,116 28,-28 v -8 h -36 v 36 z"
         style="fill:#e74747;stroke:none;stroke-width:0.25px;stroke-linecap:butt;stroke-linejoin:miter;stroke-opacity:1" /></clipPath><clipPath
       clipPathUnits="userSpaceOnUse"
       id="clipPath744"><rect
         style="fill:#1e88e5;fill-opacity:1;stroke-width:0.264583"
         id="rect746"
         width="541.86664"
         height="541.86664"
         x="0"
         y="1.5987212e-14"
         rx="79.375"
         ry="79.375" /></clipPath><clipPath
       clipPathUnits="userSpaceOnUse"
       id="clipPath62"><rect
         style="fill:#1e88e5;fill-opacity:1;stroke-width:0.264583"
         id="rect64"
         width="541.86664"
         height="541.86664"
         x="2.2507105e-05"
         y="-0.42205024"
         rx="79.375"
         ry="79.375" /></clipPath><linearGradient
       inkscape:collect="always"
       xlink:href="#linearGradient8241"
       id="linearGradient8243"
       x1="11.5"
       y1="120.5"
       x2="116.5"
       y2="120.5"
       gradientUnits="userSpaceOnUse" /><radialGradient
       r="32"
       fy="-76"
       fx="-244"
       cy="-76"
       cx="-244"
       gradientTransform="matrix(0.88333331,0,0,0.88333331,-460.35018,463.11973)"
       gradientUnits="userSpaceOnUse"
       id="radialGradient1103-6"
       xlink:href="#linearGradient1069" /><inkscape:path-effect
       effect="spiro"
       id="path-effect35304-9-20"
       is_visible="true" /><clipPath
       clipPathUnits="userSpaceOnUse"
       id="clipPath1609-7-2"><path
         sodipodi:nodetypes="cccccc"
         inkscape:connector-curvature="0"
         id="path1611-5-3"
         d="m 252,116 28,-28 v -8 h -36 v 36 z"
         style="fill:#e74747;stroke:none;stroke-width:0.25px;stroke-linecap:butt;stroke-linejoin:miter;stroke-opacity:1" /></clipPath><radialGradient
       r="32"
       fy="-76"
       fx="-244"
       cy="-76"
       cx="-244"
       gradientTransform="matrix(0.88333331,0,0,0.88333331,-460.35018,463.11973)"
       gradientUnits="userSpaceOnUse"
       id="radialGradient1103-56"
       xlink:href="#linearGradient1069" /><inkscape:path-effect
       effect="spiro"
       id="path-effect35304-9-7"
       is_visible="true" /><clipPath
       clipPathUnits="userSpaceOnUse"
       id="clipPath1609-7-0"><path
         sodipodi:nodetypes="cccccc"
         inkscape:connector-curvature="0"
         id="path1611-5-9"
         d="m 252,116 28,-28 v -8 h -36 v 36 z"
         style="fill:#e74747;stroke:none;stroke-width:0.25px;stroke-linecap:butt;stroke-linejoin:miter;stroke-opacity:1" /></clipPath><clipPath
       clipPathUnits="userSpaceOnUse"
       id="clipPath37"><rect
         style="fill:#1a1a1a;fill-opacity:1;stroke-width:0.264583"
         id="rect39"
         width="541.86664"
         height="541.86664"
         x="-2.6626146e-06"
         y="3.2408705"
         rx="79.375"
         ry="79.375" /></clipPath><clipPath
       clipPathUnits="userSpaceOnUse"
       id="clipPath22042"><rect
         style="fill:#333333;fill-opacity:1;stroke-width:0.0133797"
         id="rect22044"
         width="27.31955"
         height="27.483929"
         x="166.96844"
         y="105.40438"
         rx="4.0018873"
         ry="4.0259666" /></clipPath><clipPath
       clipPathUnits="userSpaceOnUse"
       id="clipPath1039"><rect
         style="fill:#b3b3b3;fill-opacity:1;stroke-width:0.264583"
         id="rect1041"
         width="541.8667"
         height="541.86682"
         x="2.5931527e-05"
         y="-0.00010962487"
         rx="79.375008"
         ry="79.375031" /></clipPath><clipPath
       clipPathUnits="userSpaceOnUse"
       id="clipPath154"><rect
         style="fill:#b3b3b3;fill-opacity:1;stroke-width:0.264583"
         id="rect156"
         width="541.8667"
         height="541.86682"
         x="-2.9218751e-05"
         y="-0.00016368683"
         rx="79.375008"
         ry="79.375031" /></clipPath><linearGradient
       inkscape:collect="always"
       xlink:href="#linearGradient404"
       id="linearGradient406"
       x1="64"
       y1="112.5"
       x2="64"
       y2="7.5"
       gradientUnits="userSpaceOnUse" /><linearGradient
       id="paint0_linear"
       x1="49.9392"
       y1="0.257812"
       x2="49.9392"
       y2="99.7423"
       gradientUnits="userSpaceOnUse"
       gradientTransform="matrix(0.76242929,0,0,0.76242929,22.69079,21.878509)"><stop
         stop-color="white"
         id="stop585" /><stop
         offset="1"
         stop-color="white"
         stop-opacity="0"
         id="stop587" /></linearGradient><filter
       style="color-interpolation-filters:sRGB;"
       inkscape:label="Drop Shadow"
       id="filter47"
       x="-0.031459186"
       y="-0.031641392"
       width="1.0629184"
       height="1.0896506"><feFlood
         result="flood"
         in="SourceGraphic"
         flood-opacity="0.254902"
         flood-color="rgb(0,0,0)"
         id="feFlood46" /><feGaussianBlur
         result="blur"
         in="SourceGraphic"
         stdDeviation="1.000000"
         id="feGaussianBlur46" /><feOffset
         result="offset"
         in="blur"
         dx="0.000000"
         dy="2.000000"
         id="feOffset46" /><feComposite
         result="comp1"
         operator="in"
         in="flood"
         in2="offset"
         id="feComposite46" /><feComposite
         result="comp2"
         operator="over"
         in="SourceGraphic"
         in2="comp1"
         id="feComposite47" /></filter><linearGradient
       inkscape:collect="always"
       xlink:href="#linearGradient16"
       id="linearGradient15"
       gradientUnits="userSpaceOnUse"
       gradientTransform="matrix(0.76242929,0,0,0.76242929,22.69079,21.878509)"
       x1="49.9392"
       y1="0.257812"
       x2="49.9392"
       y2="99.7423" /><filter
       inkscape:collect="always"
       style="color-interpolation-filters:sRGB"
       id="filter16"
       x="-0.079208945"
       y="-0.07961936"
       width="1.1584179"
       height="1.1592387"><feGaussianBlur
         inkscape:collect="always"
         stdDeviation="2.5162985"
         id="feGaussianBlur16" /></filter></defs><g
     inkscape:groupmode="layer"
     id="layer2"
     inkscape:label="Layer 1"><rect
       style="fill:url(#linearGradient8243);fill-opacity:1"
       id="rect440"
       width="105"
       height="105"
       x="11.5"
       y="15.5"
       rx="13"
       ry="13" /><rect
       style="fill:url(#linearGradient406);fill-opacity:1"
       id="rect358"
       width="105"
       height="105"
       x="11.5"
       y="7.5"
       rx="13"
       ry="13" /><rect
       style="fill:#e6e6e6;fill-opacity:1;stroke-width:0.959575"
       id="rect338"
       width="100.75533"
       height="100.75533"
       x="13.622333"
       y="9.6223326"
       rx="12"
       ry="12" /><path
       fill-rule="evenodd"
       clip-rule="evenodd"
       d="m 76.70974,101.60078 c 1.20083,0.46774 2.57015,0.43778 3.78211,-0.1454 l 15.69712,-7.553158 c 1.64944,-0.793689 2.69839,-2.463028 2.69839,-4.29446 V 38.39249 c 0,-1.831432 -1.04887,-3.500771 -2.69831,-4.29446 l -15.6972,-7.55339 c -1.59058,-0.765392 -3.4522,-0.577919 -4.84829,0.437013 -0.19937,0.144991 -0.38937,0.30687 -0.56763,0.485263 L 45.02562,54.882387 31.93631,44.946561 c -1.21844,-0.92498 -2.92281,-0.849118 -4.05448,0.180238 l -4.19817,3.818856 c -1.38425,1.259228 -1.38584,3.436955 -0.003,4.698165 L 35.0321,63.999974 23.68063,74.356203 c -1.38241,1.261211 -1.38082,3.438937 0.003,4.698089 l 4.19817,3.818856 c 1.13167,1.029432 2.83604,1.105218 4.05448,0.180315 l 13.08934,-9.935903 30.05031,27.41551 c 0.47538,0.4756 1.03355,0.83387 1.63381,1.06771 z M 79.83822,46.69199 57.03693,63.999974 79.83822,81.308033 Z"
       fill="url(#paint0_linear)"
       id="path16"
       style="opacity:1;mix-blend-mode:normal;fill:#9a9a9a;fill-opacity:1;stroke-width:0.762429;filter:url(#filter16)" /><path
       fill-rule="evenodd"
       clip-rule="evenodd"
       d="m 76.70974,97.600775 c 1.20083,0.467745 2.57015,0.437785 3.78211,-0.145395 l 15.69712,-7.553158 c 1.64944,-0.793689 2.69839,-2.463028 2.69839,-4.29446 V 34.39249 c 0,-1.831432 -1.04887,-3.500771 -2.69831,-4.29446 l -15.6972,-7.55339 c -1.59058,-0.765392 -3.4522,-0.577919 -4.84829,0.437013 -0.19937,0.144991 -0.38937,0.30687 -0.56763,0.485263 L 45.02562,50.882387 31.93631,40.946561 c -1.21844,-0.92498 -2.92281,-0.849118 -4.05448,0.180238 l -4.19817,3.818856 c -1.38425,1.259228 -1.38584,3.436955 -0.003,4.698165 L 35.0321,59.999974 23.68063,70.356203 c -1.38241,1.261211 -1.38082,3.438937 0.003,4.698089 l 4.19817,3.818856 c 1.13167,1.029432 2.83604,1.105218 4.05448,0.180315 L 45.02562,69.11756 75.07593,96.533069 c 0.47538,0.475603 1.03355,0.833869 1.63381,1.067706 z M 79.83822,42.69199 57.03693,59.999974 79.83822,77.308033 Z"
       fill="url(#paint0_linear)"
       id="path15"
       style="opacity:1;mix-blend-mode:overlay;fill:url(#linearGradient15);stroke-width:0.762429" /><path
       d="m 96.23579,30.109935 -15.70948,-7.5638 C 78.70792,21.670626 76.53484,22.039934 75.1078,23.466988 L 23.68087,70.35629 c -1.38326,1.261134 -1.38167,3.438937 0.003,4.698089 l 4.20071,3.818856 c 1.13236,1.029432 2.83774,1.105218 4.05694,0.180315 L 93.87144,32.072199 c 2.0777,-1.57617 5.06185,-0.09431 5.06185,2.513577 v -0.182373 c 0,-1.830593 -1.04865,-3.499322 -2.69793,-4.293468 z"
       fill="#0065a9"
       id="path539"
       style="stroke-width:0.762429" /><path
       id="path9"
       style="stroke-width:0.762429;fill:#004878;fill-opacity:1"
       d="M 79.873047 40.691406 L 31.941406 77.052734 C 30.722206 77.977637 29.017126 77.902479 27.884766 76.873047 L 23.683594 73.054688 C 23.262949 72.672173 22.970002 72.203743 22.804688 71.703125 C 22.425314 72.851906 22.718443 74.177025 23.683594 75.054688 L 27.884766 78.873047 C 29.017126 79.902479 30.722206 79.977637 31.941406 79.052734 L 79.873047 42.691406 L 79.873047 40.691406 z " /><path
       id="path3"
       style="stroke-width:0.762429;fill:#6ac3ff;fill-opacity:1"
       d="M 78.388672 22.076172 C 78.605204 22.072541 78.822614 22.089032 79.039062 22.115234 C 78.822381 22.088741 78.605519 22.072599 78.388672 22.076172 z M 78.388672 22.076172 C 78.173817 22.079712 77.959943 22.102351 77.748047 22.134766 C 77.960069 22.10227 78.17368 22.079777 78.388672 22.076172 z M 79.238281 22.146484 C 79.389553 22.171376 79.539992 22.204288 79.689453 22.244141 C 79.539993 22.204078 79.389562 22.171563 79.238281 22.146484 z M 77.613281 22.15625 C 77.406045 22.194066 77.200845 22.243495 77 22.308594 C 77.201217 22.243256 77.405639 22.194213 77.613281 22.15625 z M 79.916016 22.308594 C 80.082323 22.361946 80.246296 22.427429 80.408203 22.5 C 80.246056 22.427148 80.08255 22.362225 79.916016 22.308594 z M 76.900391 22.345703 C 76.721934 22.407996 76.54772 22.48272 76.376953 22.566406 C 76.547445 22.482799 76.722228 22.407993 76.900391 22.345703 z M 76.271484 22.615234 C 76.082295 22.71377 75.900886 22.828322 75.724609 22.953125 C 75.900678 22.828429 76.08253 22.713731 76.271484 22.615234 z M 76.955078 22.646484 C 76.429993 22.666878 75.901234 22.83932 75.433594 23.1875 C 75.32371 23.279089 75.210007 23.364213 75.107422 23.466797 L 23.681641 70.355469 C 22.718597 71.233487 22.42582 72.555818 22.804688 73.703125 C 22.969589 73.203788 23.262548 72.73756 23.681641 72.355469 L 75.107422 25.466797 C 76.298224 24.275983 78.007593 23.821741 79.597656 24.212891 C 79.1092 23.204003 78.040161 22.604341 76.955078 22.646484 z M 75.107422 23.466797 C 75.211713 23.362506 75.321409 23.271027 75.433594 23.1875 C 75.495285 23.13608 75.553397 23.07917 75.617188 23.03125 C 75.439615 23.164602 75.267726 23.306492 75.107422 23.466797 z " /><g
       filter="url(#filter0_d)"
       id="g543"
       transform="matrix(0.76242929,0,0,0.76242929,22.69079,21.878596)"
       style="fill:none"><path
         d="m 96.4614,89.2038 -20.6045,9.9207 c -2.385,1.1485 -5.2352,0.6639 -7.1069,-1.2078 L 1.29858,36.4169 c -1.814273,-1.6542 -1.812187,-4.5106 0.0045,-6.1621 L 6.81272,25.246 C 8.29793,23.8958 10.5347,23.7964 12.1338,25.0095 L 93.3609,86.6301 C 96.086,88.6974 100,86.7538 100,83.3334 v 0.2392 c 0,2.4009 -1.3754,4.5896 -3.5386,5.6312 z"
         fill="#007acc"
         id="path541" /></g><g
       filter="url(#filter1_d)"
       id="g547"
       transform="matrix(0.76242929,0,0,0.76242929,22.69079,21.878596)"
       style="fill:#1f9cf0;fill-opacity:1"><path
         d="M 75.8578,99.1263 C 73.4721,100.274 70.6219,99.7885 68.75,97.9166 71.0564,100.223 75,98.5895 75,95.3278 V 4.67213 C 75,1.41039 71.0564,-0.223106 68.75,2.08329 70.6219,0.211402 73.4721,-0.273666 75.8578,0.873633 L 96.4587,10.7807 C 98.6234,11.8217 100,14.0112 100,16.4132 v 67.1739 c 0,2.402 -1.3766,4.5915 -3.5414,5.6325 z"
         fill="#1f9cf0"
         id="path545"
         style="fill:#1f9cf0;fill-opacity:1" /></g><path
       fill-rule="evenodd"
       clip-rule="evenodd"
       d="m 76.70974,97.60078 c 1.20083,0.46774 2.57015,0.43778 3.78211,-0.1454 l 15.69712,-7.553158 c 1.64944,-0.793689 2.69839,-2.463028 2.69839,-4.29446 V 34.39249 c 0,-1.831432 -1.04887,-3.500771 -2.69831,-4.29446 l -15.6972,-7.55339 c -1.59058,-0.765392 -3.4522,-0.577919 -4.84829,0.437013 -0.19937,0.144991 -0.38937,0.30687 -0.56763,0.485263 L 45.02562,50.882387 31.93631,40.946561 c -1.21844,-0.92498 -2.92281,-0.849118 -4.05448,0.180238 l -4.19817,3.818856 c -1.38425,1.259228 -1.38584,3.436955 -0.003,4.698165 L 35.0321,59.999974 23.68063,70.356203 c -1.38241,1.261211 -1.38082,3.438937 0.003,4.698089 l 4.19817,3.818856 c 1.13167,1.029432 2.83604,1.105218 4.05448,0.180315 L 45.02562,69.11756 75.07593,96.53307 c 0.47538,0.4756 1.03355,0.83387 1.63381,1.06771 z M 79.83822,42.69199 57.03693,59.999974 79.83822,77.308033 Z"
       fill="url(#paint0_linear)"
       id="path549"
       style="opacity:0.25;mix-blend-mode:overlay;fill:url(#paint0_linear);stroke-width:0.762429" /><path
       id="path1"
       style="fill:#acdaf9;fill-opacity:1;stroke-width:0.762429"
       d="M 78.388672 22.076172 C 77.321233 22.094072 76.279169 22.482707 75.433594 23.1875 C 76.866862 22.120206 78.871831 22.715523 79.597656 24.210938 C 79.914046 24.288408 80.225438 24.399733 80.527344 24.544922 L 96.234375 32.097656 C 97.884806 32.891345 98.933594 34.561223 98.933594 36.392578 L 98.933594 34.392578 C 98.933594 32.561223 97.884806 30.891345 96.234375 30.097656 L 80.527344 22.544922 C 79.845246 22.216897 79.112364 22.064036 78.388672 22.076172 z " /><path
       id="path5"
       style="stroke-width:0.762429;fill:#7dc5f5;fill-opacity:1"
       d="M 30.150391 40.302734 C 29.339338 40.269938 28.521723 40.547898 27.884766 41.126953 L 23.683594 44.945312 C 22.718119 45.82302 22.425253 47.148028 22.804688 48.296875 C 22.97005 47.796179 23.262774 47.327878 23.683594 46.945312 L 27.884766 43.126953 C 29.017134 42.097521 30.722205 42.022363 31.941406 42.947266 L 79.873047 79.308594 L 79.873047 77.308594 L 31.941406 40.947266 C 31.408006 40.542621 30.781209 40.328243 30.150391 40.302734 z " /><path
       id="path11"
       style="fill:#09578b;fill-opacity:1;stroke-width:0.762429"
       d="M 98.933594 83.607422 C 98.933594 85.438777 97.884882 87.108655 96.234375 87.902344 L 80.527344 95.455078 C 80.225416 95.600328 79.914068 95.711572 79.597656 95.789062 C 78.871774 97.284365 76.866819 97.879773 75.433594 96.8125 C 76.852444 97.99517 78.839158 98.267221 80.527344 97.455078 L 96.234375 89.902344 C 97.884882 89.108655 98.933594 87.438777 98.933594 85.607422 L 98.933594 83.607422 z " /><path
       id="path13"
       style="stroke-width:0.762429;fill:#004878;fill-opacity:1"
       d="M 22.804688 46.294922 C 22.425759 47.442708 22.718403 48.76628 23.681641 49.644531 L 75.107422 96.533203 C 75.210007 96.635788 75.32371 96.720907 75.433594 96.8125 C 75.436234 96.814466 75.438762 96.816405 75.441406 96.818359 C 76.874881 97.877964 78.874169 97.281443 79.597656 95.787109 C 78.007591 96.178308 76.298224 95.724005 75.107422 94.533203 L 23.681641 47.644531 C 23.262195 47.26208 22.969675 46.794904 22.804688 46.294922 z " /></g></svg>
