<?xml version="1.0" encoding="UTF-8" standalone="no"?>
<!-- Created with Inkscape (http://www.inkscape.org/) -->

<svg
   width="128"
   height="128"
   viewBox="0 0 128 128"
   version="1.1"
   id="svg5"
   inkscape:version="1.4.3 (0d15f75042, 2025-12-25)"
   sodipodi:docname="com.brave.Browser.svg"
   inkscape:export-filename="/home/retro/.icons/skeuowaita/scalable/apps/skeuowaita.png"
   inkscape:export-xdpi="1536"
   inkscape:export-ydpi="1536"
   xml:space="preserve"
   xmlns:inkscape="http://www.inkscape.org/namespaces/inkscape"
   xmlns:sodipodi="http://sodipodi.sourceforge.net/DTD/sodipodi-0.dtd"
   xmlns:xlink="http://www.w3.org/1999/xlink"
   xmlns="http://www.w3.org/2000/svg"
   xmlns:svg="http://www.w3.org/2000/svg"><sodipodi:namedview
     id="namedview7"
     pagecolor="#ffffff"
     bordercolor="#666666"
     borderopacity="1"
     inkscape:pageshadow="2"
     inkscape:pageopacity="0.0"
     inkscape:pagecheckerboard="true"
     inkscape:document-units="px"
     showgrid="false"
     inkscape:showpageshadow="false"
     showborder="true"
     inkscape:snap-page="true"
     inkscape:zoom="4"
     inkscape:cx="61.375"
     inkscape:cy="68.625"
     inkscape:window-width="1728"
     inkscape:window-height="1043"
     inkscape:window-x="0"
     inkscape:window-y="0"
     inkscape:window-maximized="1"
     inkscape:current-layer="layer2"
     inkscape:snap-bbox="true"
     inkscape:snap-bbox-midpoints="true"
     inkscape:snap-bbox-edge-midpoints="true"
     inkscape:bbox-nodes="true"
     inkscape:bbox-paths="true"
     inkscape:snap-intersection-paths="true"
     inkscape:object-paths="true"
     inkscape:snap-smooth-nodes="true"
     inkscape:snap-midpoints="true"
     inkscape:deskcolor="#d1d1d1" /><defs
     id="defs2"><linearGradient
       id="linearGradient6"
       inkscape:collect="always"><stop
         style="stop-color:#ff5c2a;stop-opacity:1;"
         offset="0"
         id="stop6" /><stop
         style="stop-color:#ff4a1f;stop-opacity:1;"
         offset="1"
         id="stop7" /></linearGradient><linearGradient
       id="linearGradient2"
       inkscape:collect="always"><stop
         style="stop-color:#ffffff;stop-opacity:1;"
         offset="0"
         id="stop2" /><stop
         style="stop-color:#ffffff;stop-opacity:0;"
         offset="1"
         id="stop3" /></linearGradient><linearGradient
       x1="11.296889"
       y1="46.234235"
       x2="100.51935"
       y2="46.234235"
       id="linearGradient1912"
       gradientTransform="scale(1.980754,0.50485825)"
       gradientUnits="userSpaceOnUse"><stop
         stop-color="#FF452A"
         offset="0%"
         id="stop1908" /><stop
         stop-color="#FF2000"
         offset="1"
         id="stop1910"
         style="stop-color:#ffffff;stop-opacity:1;" /></linearGradient><linearGradient
       x1="0.00011788858"
       y1="119.55213"
       x2="235.77728"
       y2="119.55213"
       id="linearGradient1229"
       gradientTransform="matrix(0.40821693,0,0,0.47926611,15.875837,7.499952)"
       gradientUnits="userSpaceOnUse"><stop
         stop-color="#FF5500"
         offset="0"
         id="stop1221"
         style="stop-color:#9b3400;stop-opacity:1;" /><stop
         stop-color="#FF5500"
         offset="0.40987724"
         id="stop1223"
         style="stop-color:#9a3300;stop-opacity:1;" /><stop
         stop-color="#FF2000"
         offset="0.58198124"
         id="stop1225"
         style="stop-color:#a51500;stop-opacity:1;" /><stop
         stop-color="#FF2000"
         offset="1"
         id="stop1227"
         style="stop-color:#9f1400;stop-opacity:1;" /></linearGradient><linearGradient
       y2="236"
       x2="96"
       y1="236"
       x1="32"
       gradientTransform="translate(604.81684,170.58641)"
       gradientUnits="userSpaceOnUse"
       id="linearGradient1099"
       xlink:href="#linearGradient1036" /><linearGradient
       id="linearGradient1036"><stop
         id="stop1032"
         offset="0"
         style="stop-color:#d5d3cf;stop-opacity:1;" /><stop
         id="stop1034"
         offset="1"
         style="stop-color:#f6f5f4;stop-opacity:1" /></linearGradient><radialGradient
       r="32"
       fy="-76"
       fx="-244"
       cy="-76"
       cx="-244"
       gradientTransform="matrix(0.88333331,0,0,0.88333331,-460.35018,463.11973)"
       gradientUnits="userSpaceOnUse"
       id="radialGradient1103"
       xlink:href="#linearGradient1069" /><linearGradient
       id="linearGradient1069"><stop
         id="stop1065"
         offset="0"
         style="stop-color:#d5d3cf;stop-opacity:1" /><stop
         id="stop1067-1"
         offset="1"
         style="stop-color:#949390;stop-opacity:1" /></linearGradient><linearGradient
       gradientUnits="userSpaceOnUse"
       y2="232"
       x2="64"
       y1="262.5"
       x1="64"
       id="linearGradient1027"
       xlink:href="#linearGradient1025"
       gradientTransform="translate(-470.5864,432.81685)" /><linearGradient
       id="linearGradient1025"><stop
         id="stop1021"
         offset="0"
         style="stop-color:#9a9996;stop-opacity:1" /><stop
         id="stop1023"
         offset="1"
         style="stop-color:#77767b;stop-opacity:1" /></linearGradient><inkscape:path-effect
       effect="spiro"
       id="path-effect35304-9"
       is_visible="true" /><clipPath
       clipPathUnits="userSpaceOnUse"
       id="clipPath1609-7"><path
         sodipodi:nodetypes="cccccc"
         inkscape:connector-curvature="0"
         id="path1611-5"
         d="m 252,116 28,-28 v -8 h -36 v 36 z"
         style="fill:#e74747;stroke:none;stroke-width:0.25px;stroke-linecap:butt;stroke-linejoin:miter;stroke-opacity:1" /></clipPath><radialGradient
       r="32"
       fy="-76"
       fx="-244"
       cy="-76"
       cx="-244"
       gradientTransform="matrix(0.88333331,0,0,0.88333331,-460.35018,463.11973)"
       gradientUnits="userSpaceOnUse"
       id="radialGradient1103-5"
       xlink:href="#linearGradient1069" /><inkscape:path-effect
       effect="spiro"
       id="path-effect35304-9-2"
       is_visible="true" /><clipPath
       clipPathUnits="userSpaceOnUse"
       id="clipPath1609-7-7"><path
         sodipodi:nodetypes="cccccc"
         inkscape:connector-curvature="0"
         id="path1611-5-0"
         d="m 252,116 28,-28 v -8 h -36 v 36 z"
         style="fill:#e74747;stroke:none;stroke-width:0.25px;stroke-linecap:butt;stroke-linejoin:miter;stroke-opacity:1" /></clipPath><clipPath
       clipPathUnits="userSpaceOnUse"
       id="clipPath744"><rect
         style="fill:#1e88e5;fill-opacity:1;stroke-width:0.264583"
         id="rect746"
         width="541.86664"
         height="541.86664"
         x="0"
         y="1.5987212e-14"
         rx="79.375"
         ry="79.375" /></clipPath><clipPath
       clipPathUnits="userSpaceOnUse"
       id="clipPath62"><rect
         style="fill:#1e88e5;fill-opacity:1;stroke-width:0.264583"
         id="rect64"
         width="541.86664"
         height="541.86664"
         x="2.2507105e-05"
         y="-0.42205024"
         rx="79.375"
         ry="79.375" /></clipPath><radialGradient
       r="32"
       fy="-76"
       fx="-244"
       cy="-76"
       cx="-244"
       gradientTransform="matrix(0.88333331,0,0,0.88333331,-460.35018,463.11973)"
       gradientUnits="userSpaceOnUse"
       id="radialGradient1103-6"
       xlink:href="#linearGradient1069" /><inkscape:path-effect
       effect="spiro"
       id="path-effect35304-9-20"
       is_visible="true" /><clipPath
       clipPathUnits="userSpaceOnUse"
       id="clipPath1609-7-2"><path
         sodipodi:nodetypes="cccccc"
         inkscape:connector-curvature="0"
         id="path1611-5-3"
         d="m 252,116 28,-28 v -8 h -36 v 36 z"
         style="fill:#e74747;stroke:none;stroke-width:0.25px;stroke-linecap:butt;stroke-linejoin:miter;stroke-opacity:1" /></clipPath><clipPath
       clipPathUnits="userSpaceOnUse"
       id="clipPath961"><rect
         style="fill:#00c853;stroke:none;stroke-width:0.529037"
         id="rect963"
         width="541.86664"
         height="541.86664"
         x="1.4210855e-14"
         y="2.717972e-05"
         rx="79.375"
         ry="79.375" /></clipPath><radialGradient
       r="32"
       fy="-76"
       fx="-244"
       cy="-76"
       cx="-244"
       gradientTransform="matrix(0.88333331,0,0,0.88333331,-460.35018,463.11973)"
       gradientUnits="userSpaceOnUse"
       id="radialGradient1103-56"
       xlink:href="#linearGradient1069" /><inkscape:path-effect
       effect="spiro"
       id="path-effect35304-9-7"
       is_visible="true" /><clipPath
       clipPathUnits="userSpaceOnUse"
       id="clipPath1440"><circle
         style="display:inline;opacity:1;vector-effect:none;fill:none;fill-opacity:1;stroke:#000000;stroke-width:2;stroke-linecap:butt;stroke-linejoin:miter;stroke-miterlimit:4;stroke-dasharray:none;stroke-dashoffset:0;stroke-opacity:1;marker:none;marker-start:none;marker-mid:none;marker-end:none;paint-order:normal;enable-background:new"
         id="circle1442"
         cx="-134.35028"
         cy="193.74727"
         r="24"
         transform="rotate(-45)" /></clipPath><clipPath
       clipPathUnits="userSpaceOnUse"
       id="clipPath1430"><circle
         style="display:inline;opacity:1;vector-effect:none;fill:none;fill-opacity:1;stroke:#000000;stroke-width:2;stroke-linecap:butt;stroke-linejoin:miter;stroke-miterlimit:4;stroke-dasharray:none;stroke-dashoffset:0;stroke-opacity:1;marker:none;marker-start:none;marker-mid:none;marker-end:none;paint-order:normal;enable-background:new"
         id="circle1432"
         cx="12"
         cy="232"
         r="24" /></clipPath><clipPath
       clipPathUnits="userSpaceOnUse"
       id="clipPath1440-9"><circle
         style="display:inline;opacity:1;vector-effect:none;fill:none;fill-opacity:1;stroke:#000000;stroke-width:2;stroke-linecap:butt;stroke-linejoin:miter;stroke-miterlimit:4;stroke-dasharray:none;stroke-dashoffset:0;stroke-opacity:1;marker:none;marker-start:none;marker-mid:none;marker-end:none;paint-order:normal;enable-background:new"
         id="circle1442-5"
         cx="-134.35028"
         cy="193.74727"
         r="24"
         transform="rotate(-45)" /></clipPath><clipPath
       clipPathUnits="userSpaceOnUse"
       id="clipPath1430-1"><circle
         style="display:inline;opacity:1;vector-effect:none;fill:none;fill-opacity:1;stroke:#000000;stroke-width:2;stroke-linecap:butt;stroke-linejoin:miter;stroke-miterlimit:4;stroke-dasharray:none;stroke-dashoffset:0;stroke-opacity:1;marker:none;marker-start:none;marker-mid:none;marker-end:none;paint-order:normal;enable-background:new"
         id="circle1432-8"
         cx="12"
         cy="232"
         r="24" /></clipPath><clipPath
       clipPathUnits="userSpaceOnUse"
       id="clipPath2024"><rect
         style="opacity:1;vector-effect:none;fill:#63452c;fill-opacity:1;stroke:none;stroke-width:4;stroke-linecap:round;stroke-linejoin:round;stroke-miterlimit:4;stroke-dasharray:none;stroke-dashoffset:0;stroke-opacity:1"
         id="rect2026"
         width="74"
         height="98"
         x="6"
         y="196" /></clipPath><linearGradient
       id="linearGradient914"
       inkscape:collect="always"><stop
         id="stop910"
         offset="0"
         style="stop-color:#f6f5f4;stop-opacity:0.43700787" /><stop
         id="stop912"
         offset="1"
         style="stop-color:#deddda;stop-opacity:0;" /></linearGradient><radialGradient
       gradientTransform="matrix(2.6086955,0,0,1.8410361,-102.95652,-748.94671)"
       gradientUnits="userSpaceOnUse"
       r="46"
       fy="296"
       fx="64.000008"
       cy="296"
       cx="64.000008"
       id="radialGradient916"
       xlink:href="#linearGradient914"
       inkscape:collect="always" /><clipPath
       clipPathUnits="userSpaceOnUse"
       id="clipPath11543"><rect
         style="fill:#f0c04e;fill-opacity:1;stroke:none;stroke-width:0.529037"
         id="rect11545"
         width="541.86664"
         height="541.86664"
         x="1.4746095e-06"
         y="6.4330168e-05"
         rx="79.375"
         ry="79.375" /></clipPath><style
       id="style374">.cls-1{fill:url(#linear-gradient);}.cls-2{opacity:0.35;fill:url(#radial-gradient);}.cls-2,.cls-4{isolation:isolate;}.cls-3{fill:url(#linear-gradient-2);}.cls-4{opacity:0.41;fill:url(#radial-gradient-2);}.cls-5{fill:url(#radial-gradient-3);}.cls-6{fill:url(#radial-gradient-4);}</style><linearGradient
       id="linear-gradient"
       x1="63.33"
       y1="84.03"
       x2="241.67"
       y2="84.03"
       gradientTransform="matrix(1,0,0,-1,0,266)"
       gradientUnits="userSpaceOnUse"><stop
         offset="0"
         stop-color="#0c59a4"
         id="stop376" /><stop
         offset="1"
         stop-color="#114a8b"
         id="stop378" /></linearGradient><radialGradient
       id="radial-gradient"
       cx="161.83"
       cy="68.91"
       r="95.38"
       gradientTransform="matrix(1,0,0,-0.95,0,248.84)"
       gradientUnits="userSpaceOnUse"><stop
         offset="0.72"
         stop-opacity="0"
         id="stop381" /><stop
         offset="0.95"
         stop-opacity="0.53"
         id="stop383" /><stop
         offset="1"
         id="stop385" /></radialGradient><linearGradient
       id="linear-gradient-2"
       x1="157.35"
       y1="161.39"
       x2="45.96"
       y2="40.06"
       gradientTransform="matrix(1,0,0,-1,0,266)"
       gradientUnits="userSpaceOnUse"><stop
         offset="0"
         stop-color="#1b9de2"
         id="stop388" /><stop
         offset="0.16"
         stop-color="#1595df"
         id="stop390" /><stop
         offset="0.67"
         stop-color="#0680d7"
         id="stop392" /><stop
         offset="1"
         stop-color="#0078d4"
         id="stop394" /></linearGradient><radialGradient
       id="radial-gradient-2"
       cx="-340.29"
       cy="62.99"
       r="143.24"
       gradientTransform="matrix(0.15,-0.99,-0.8,-0.12,176.64,-125.4)"
       gradientUnits="userSpaceOnUse"><stop
         offset="0.76"
         stop-opacity="0"
         id="stop397" /><stop
         offset="0.95"
         stop-opacity="0.5"
         id="stop399" /><stop
         offset="1"
         id="stop401" /></radialGradient><radialGradient
       id="radial-gradient-3"
       cx="113.37"
       cy="570.21"
       r="202.43"
       gradientTransform="matrix(-0.04,1,2.13,0.08,-1179.54,-106.69)"
       gradientUnits="userSpaceOnUse"><stop
         offset="0"
         stop-color="#35c1f1"
         id="stop404" /><stop
         offset="0.11"
         stop-color="#34c1ed"
         id="stop406" /><stop
         offset="0.23"
         stop-color="#2fc2df"
         id="stop408" /><stop
         offset="0.31"
         stop-color="#2bc3d2"
         id="stop410" /><stop
         offset="0.67"
         stop-color="#36c752"
         id="stop412" /></radialGradient><radialGradient
       id="radial-gradient-4"
       cx="376.52"
       cy="567.97"
       r="97.34"
       gradientTransform="matrix(0.28,0.96,0.78,-0.23,-303.76,-148.5)"
       gradientUnits="userSpaceOnUse"><stop
         offset="0"
         stop-color="#66eb6e"
         id="stop415" /><stop
         offset="1"
         stop-color="#66eb6e"
         stop-opacity="0"
         id="stop417" /></radialGradient><clipPath
       clipPathUnits="userSpaceOnUse"
       id="clipPath1260"><rect
         style="fill:#bbdefb;fill-opacity:1;stroke:none;stroke-width:0.529037"
         id="rect1262"
         width="541.86664"
         height="541.86664"
         x="2.9492187e-06"
         y="3.9968629e-05"
         rx="79.375"
         ry="79.375" /></clipPath><clipPath
       clipPathUnits="userSpaceOnUse"
       id="clipPath16285"><rect
         style="fill:#bbdefb;fill-opacity:1;stroke:none;stroke-width:0.529037"
         id="rect16287"
         width="541.86664"
         height="541.86664"
         x="0"
         y="6.4807005e-05"
         rx="79.375"
         ry="79.375" /></clipPath><clipPath
       clipPathUnits="userSpaceOnUse"
       id="clipPath990"><rect
         style="fill:#bbdefb;fill-opacity:1;stroke:none;stroke-width:0.529037"
         id="rect992"
         width="487.67996"
         height="487.67996"
         x="27.093349"
         y="27.093338"
         rx="71.4375"
         ry="71.4375" /></clipPath><linearGradient
       id="linearGradient4292"><stop
         id="stop4294"
         offset="0"
         style="stop-color:#411f5d;stop-opacity:1" /><stop
         id="stop4296"
         offset="1"
         style="stop-color:#5b2a85;stop-opacity:1" /></linearGradient><linearGradient
       id="linearGradient4284"><stop
         offset="0"
         style="stop-color:#8381c5;stop-opacity:1"
         id="stop4286" /><stop
         id="stop4290"
         style="stop-color:#7e55b3;stop-opacity:0.99607843"
         offset="0.56639391" /><stop
         offset="1"
         style="stop-color:#a52ecb;stop-opacity:0.99215686"
         id="stop4288" /></linearGradient><linearGradient
       id="linearGradient4898"><stop
         id="stop4278"
         style="stop-color:#bab8db;stop-opacity:1"
         offset="0" /><stop
         id="stop4280"
         style="stop-color:#5955a9;stop-opacity:0.99159664"
         offset="1" /></linearGradient><linearGradient
       id="linearGradient3294"><stop
         offset="0"
         style="stop-color:#6376e6;stop-opacity:1"
         id="stop3296" /><stop
         offset="0.50094414"
         style="stop-color:#222989;stop-opacity:1"
         id="stop3302" /><stop
         offset="1"
         style="stop-color:#00003d;stop-opacity:1"
         id="stop3298" /></linearGradient><linearGradient
       id="linearGradient3284"><stop
         offset="0"
         style="stop-color:#000000;stop-opacity:1"
         id="stop3286" /><stop
         offset="0.84845906"
         style="stop-color:#000000;stop-opacity:0.49803922"
         id="stop3292" /><stop
         offset="1"
         style="stop-color:#000000;stop-opacity:0"
         id="stop3288" /></linearGradient><linearGradient
       id="linearGradient3274"><stop
         offset="0"
         style="stop-color:#000000;stop-opacity:1"
         id="stop3276" /><stop
         offset="1"
         style="stop-color:#000000;stop-opacity:0"
         id="stop3278" /></linearGradient><linearGradient
       id="linearGradient3242"><stop
         offset="0"
         style="stop-color:#282828;stop-opacity:1"
         id="stop3244" /><stop
         offset="0.39253417"
         style="stop-color:#808080;stop-opacity:1"
         id="stop3252" /><stop
         offset="1"
         style="stop-color:#d9d9d9;stop-opacity:1"
         id="stop3246" /></linearGradient><linearGradient
       id="linearGradient3202"><stop
         offset="0"
         style="stop-color:#2b2b2b;stop-opacity:1"
         id="stop3204" /><stop
         offset="0.5"
         style="stop-color:#828383;stop-opacity:1"
         id="stop3250" /><stop
         offset="1"
         style="stop-color:#dadbdb;stop-opacity:1"
         id="stop3206" /></linearGradient><linearGradient
       id="linearGradient4966"><stop
         offset="0"
         style="stop-color:#b6b3d8;stop-opacity:1"
         id="stop4968" /><stop
         offset="1"
         style="stop-color:#b6b3d8;stop-opacity:0"
         id="stop4970" /></linearGradient><linearGradient
       id="linearGradient4876"><stop
         offset="0"
         style="stop-color:#d3d2e8;stop-opacity:1"
         id="stop4878" /><stop
         offset="1"
         style="stop-color:#5955a9;stop-opacity:0.99159664"
         id="stop4880" /></linearGradient><radialGradient
       gradientTransform="matrix(0.6817439,0,0,0.5905355,-3.8523706,-28.935273)"
       gradientUnits="userSpaceOnUse"
       xlink:href="#linearGradient4898"
       id="radialGradient4892"
       fy="-108.96888"
       fx="20.951529"
       r="266.76535"
       cy="-108.96888"
       cx="20.951529" /><radialGradient
       gradientTransform="matrix(1,0,0,0.1854103,0,383.88493)"
       gradientUnits="userSpaceOnUse"
       xlink:href="#linearGradient3274"
       id="radialGradient4944"
       fy="471.26172"
       fx="233.8876"
       r="170.49393"
       cy="471.26172"
       cx="233.8876" /><radialGradient
       gradientTransform="matrix(1,0,0,0.9121621,0,32.654948)"
       gradientUnits="userSpaceOnUse"
       xlink:href="#linearGradient4966"
       id="radialGradient4972"
       fy="371.76376"
       fx="299.70135"
       r="76.696358"
       cy="371.76376"
       cx="299.70135" /><radialGradient
       gradientTransform="matrix(0.414705,0.3300575,-0.5059004,0.6356454,346.95314,49.479585)"
       gradientUnits="userSpaceOnUse"
       xlink:href="#linearGradient3202"
       id="radialGradient3210"
       fy="390.45248"
       fx="289.44067"
       r="17.67668"
       cy="390.45248"
       cx="289.44067" /><radialGradient
       gradientTransform="matrix(0.414705,0.3300575,-0.5059004,0.6356454,448.41009,-65.398074)"
       gradientUnits="userSpaceOnUse"
       xlink:href="#linearGradient3202"
       id="radialGradient3238"
       fy="382.14804"
       fx="283.50717"
       r="17.67668"
       cy="382.14804"
       cx="283.50717" /><radialGradient
       gradientTransform="matrix(-6.5565014e-2,-5.9721765e-2,1.6871024,-1.8521705,171.90774,540.51473)"
       gradientUnits="userSpaceOnUse"
       xlink:href="#linearGradient3242"
       id="radialGradient3248"
       fy="181.18982"
       fx="418.45551"
       r="63.068935"
       cy="181.18982"
       cx="418.45551" /><radialGradient
       gradientTransform="matrix(0.4055116,-3.3440123e-2,0.1034174,4.3988695,177.23251,-1191.6649)"
       gradientUnits="userSpaceOnUse"
       xlink:href="#linearGradient3274"
       id="radialGradient3268"
       fy="357.33591"
       fx="354.51709"
       r="33.712105"
       cy="357.33591"
       cx="354.51709" /><radialGradient
       gradientTransform="matrix(-0.1339874,-0.1146812,0.3079048,-0.3597394,444.23592,395.03849)"
       gradientUnits="userSpaceOnUse"
       xlink:href="#linearGradient3274"
       id="radialGradient3280"
       fy="223.55537"
       fx="510.58469"
       r="132.28336"
       cy="223.55537"
       cx="510.58469" /><radialGradient
       gradientTransform="matrix(-1.2497569,1.3798305,-9.6289463e-2,-7.2974479e-2,674.3826,-70.590682)"
       gradientUnits="userSpaceOnUse"
       xlink:href="#linearGradient3284"
       id="radialGradient3290"
       fy="-158.17821"
       fx="284.4671"
       r="110.2972"
       cy="-158.17821"
       cx="284.4671" /><radialGradient
       gradientTransform="matrix(-0.1008165,-8.0872321e-2,1.0745309,-1.3395252,13.843287,784.79288)"
       gradientUnits="userSpaceOnUse"
       xlink:href="#linearGradient3294"
       id="radialGradient3300"
       fy="356.62274"
       fx="425.51019"
       r="143.34167"
       cy="356.62274"
       cx="425.51019" /><filter
       height="1.1062305"
       y="-0.053115233"
       width="1.1073157"
       x="-0.053657864"
       id="filter4350"
       style="color-interpolation-filters:sRGB"><feGaussianBlur
         id="feGaussianBlur4352"
         stdDeviation="8.7848425" /></filter><linearGradient
       y2="300.73987"
       x2="236.61363"
       y1="-161.8512"
       x1="-122.20192"
       spreadMethod="pad"
       gradientTransform="matrix(0.17595114,0,0,0.16675393,-57.890895,62.668437)"
       gradientUnits="userSpaceOnUse"
       id="linearGradient4245"
       xlink:href="#linearGradient4284" /><linearGradient
       y2="66.018341"
       x2="173.94518"
       y1="396.6066"
       x1="447.80933"
       gradientTransform="matrix(0.19870189,0,0,0.19870189,-106.81348,12.782767)"
       gradientUnits="userSpaceOnUse"
       id="linearGradient4247"
       xlink:href="#linearGradient4292" /><linearGradient
       x1="0.00011788858"
       y1="119.55213"
       x2="235.77728"
       y2="119.55213"
       id="linearGradient-1"
       gradientTransform="matrix(0.41833802,0,0,0.49114875,14.682675,1.9999501)"
       gradientUnits="userSpaceOnUse"><stop
         stop-color="#FF5500"
         offset="0%"
         id="stop444" /><stop
         stop-color="#FF5500"
         offset="40.9877232%"
         id="stop446" /><stop
         stop-color="#FF2000"
         offset="58.1981215%"
         id="stop448" /><stop
         stop-color="#FF2000"
         offset="100%"
         id="stop450" /></linearGradient><linearGradient
       x1="11.296889"
       y1="46.234235"
       x2="100.51935"
       y2="46.234235"
       id="linearGradient-2"
       gradientTransform="scale(1.980754,0.50485825)"
       gradientUnits="userSpaceOnUse"><stop
         stop-color="#FF452A"
         offset="0%"
         id="stop453" /><stop
         stop-color="#FF2000"
         offset="100%"
         id="stop455" /></linearGradient><path
       d="M170.272109,25.3359387 L147.968109,0.00010893617 L108.800109,0.00010893617 L69.6321088,0.00010893617 L47.3281088,25.3359387 C47.3281088,25.3359387 27.7441088,19.8891302 18.4961088,29.1487047 C18.4961088,29.1487047 44.6081088,26.7886026 53.5841088,41.4040238 C53.5841088,41.4040238 77.7921088,46.0338111 81.0561088,46.0338111 C84.3201088,46.0338111 91.3921088,43.3104068 97.9201088,41.1316834 C104.448109,38.95296 108.800109,38.9371643 108.800109,38.9371643 C108.800109,38.9371643 113.152109,38.95296 119.680109,41.1316834 C126.208109,43.3104068 133.280109,46.0338111 136.544109,46.0338111 C139.808109,46.0338111 164.016109,41.4040238 164.016109,41.4040238 C172.992109,26.7886026 199.104109,29.1487047 199.104109,29.1487047 C189.856109,19.8891302 170.272109,25.3359387 170.272109,25.3359387"
       id="path-3" /><mask
       id="mask-4"
       fill="#ffffff"><use
         xlink:href="#path-3"
         id="use463" /></mask><filter
       style="color-interpolation-filters:sRGB;"
       inkscape:label="Drop Shadow"
       id="filter2647"
       x="-0.080835619"
       y="-0.082486494"
       width="1.1616712"
       height="1.2405856"><feFlood
         flood-opacity="0.4"
         flood-color="rgb(0,0,0)"
         result="flood"
         id="feFlood2637" /><feComposite
         in="flood"
         in2="SourceGraphic"
         operator="in"
         result="composite1"
         id="feComposite2639" /><feGaussianBlur
         in="composite1"
         stdDeviation="2.5"
         result="blur"
         id="feGaussianBlur2641" /><feOffset
         dx="0"
         dy="5.5"
         result="offset"
         id="feOffset2643" /><feComposite
         in="SourceGraphic"
         in2="offset"
         operator="over"
         result="composite2"
         id="feComposite2645" /></filter><filter
       style="color-interpolation-filters:sRGB;"
       inkscape:label="Drop Shadow"
       id="filter5015"
       x="-0.032334248"
       y="-0.036814408"
       width="1.0646685"
       height="1.1579952"><feFlood
         flood-opacity="0.254902"
         flood-color="rgb(0,0,0)"
         result="flood"
         id="feFlood5005" /><feComposite
         in="flood"
         in2="SourceGraphic"
         operator="in"
         result="composite1"
         id="feComposite5007" /><feGaussianBlur
         in="composite1"
         stdDeviation="1"
         result="blur"
         id="feGaussianBlur5009" /><feOffset
         dx="0"
         dy="5.5"
         result="offset"
         id="feOffset5011" /><feComposite
         in="SourceGraphic"
         in2="offset"
         operator="over"
         result="composite2"
         id="feComposite5013" /></filter><linearGradient
       inkscape:collect="always"
       xlink:href="#linearGradient2"
       id="linearGradient3"
       x1="65.21125"
       y1="1.0000014"
       x2="65.21125"
       y2="21.853516"
       gradientUnits="userSpaceOnUse" /><linearGradient
       inkscape:collect="always"
       xlink:href="#linearGradient6"
       id="linearGradient7"
       x1="18.187849"
       y1="18.717318"
       x2="95.508598"
       y2="96.038071"
       gradientUnits="userSpaceOnUse" /></defs><g
     inkscape:groupmode="layer"
     id="layer2"
     inkscape:label="Layer 1"><rect
       style="display:none;fill:none;stroke-width:0.20135"
       id="rect4772"
       y="12.314822"
       x="-107.39003"
       height="103.09106"
       width="103.09106" /><g
       style="display:none"
       id="g4788"
       transform="matrix(0.20134972,0,0,0.20134972,-107.42446,12.274351)"><g
         style="display:inline"
         id="g4790" /></g><g
       style="display:none"
       id="g4806"
       transform="matrix(0.20134972,0,0,0.20134972,-107.42446,12.274351)"><g
         style="display:inline"
         id="g4808"><path
           style="display:none;fill:#050505"
           id="path4810"
           d="m 349.098,256.651 c -0.265,-0.254 37.637,27.605 39.421,25.012 6.362,-9.252 82.046,-93.137 84.784,-116.236 0.242,-2.003 -0.516,-4.096 -0.516,-4.096 0,0 -1.19,-0.144 -6.325,-4.314 -2.692,-2.192 -5.483,-4.581 -5.483,-4.581 -16.054,0.998 -57.885,41.559 -111.062,103.568" /></g></g><text
       xml:space="preserve"
       style="font-style:normal;font-variant:normal;font-weight:normal;font-stretch:normal;font-size:40px;line-height:1.25;font-family:'DejaVu Math TeX Gyre';-inkscape-font-specification:'DejaVu Math TeX Gyre';fill:#000000;fill-opacity:1;stroke:none"
       x="57.303368"
       y="69.244858"
       id="text3441"><tspan
         sodipodi:role="line"
         id="tspan3439"
         x="57.303368"
         y="69.244858" /></text><text
       xml:space="preserve"
       style="font-size:40px;line-height:1.25;font-family:Caladea;-inkscape-font-specification:Caladea"
       x="43.168587"
       y="69.812454"
       id="text13903"><tspan
         sodipodi:role="line"
         id="tspan13901"
         x="43.168587"
         y="69.812454" /></text><path
       id="path516"
       style="fill:#b92808;fill-opacity:1;fill-rule:evenodd;stroke:none;stroke-width:0.460715"
       d="M 45.955212,9.2999609 35.67965,20.973128 c 0,0 -9.023698,-2.510362 -13.284382,1.755654 l -7.769228,-0.30312 v 8.332746 l 2.75656,6.776461 -0.45773,1.306059 -3.051544,0.398735 v 8.332747 c 0,0 10.321479,39.136572 11.530762,43.915768 2.380971,9.410332 4.009046,13.049042 10.776015,17.816942 6.766971,4.7679 19.048583,13.04888 21.053611,14.3036 2.005028,1.25471 4.510631,3.39128 6.766287,3.39128 2.255656,0 4.761259,-2.13657 6.766287,-3.39128 2.005028,-1.25472 14.28664,-9.5357 21.053611,-14.3036 6.766969,-4.7679 8.395041,-8.40661 10.776011,-17.816942 1.20903,-4.779196 11.53076,-43.915768 11.53076,-43.915768 l -0.0569,-0.162749 v -8.169998 h -2.85625 l -0.59607,-1.704794 2.75655,-6.776461 v -8.332746 h -4.25587 v 3.901906 c -1.12017,-1.156595 -2.14805,-2.23178 -3.51335,-3.598786 C 101.3441,18.462766 92.320413,20.973128 92.320413,20.973128 L 82.04479,9.2999609 H 64.000001 Z" /><path
       d="m 110.61696,29.234791 2.7569,-6.775446 c 0,0 -3.50879,-3.764137 -7.76948,-8.030159 -4.26069,-4.266021 -13.283328,-1.756597 -13.283328,-1.756597 L 82.045273,1.0000014 H 64.000001 45.95473 L 35.67895,12.672589 c 0,0 -9.022636,-2.509424 -13.283324,1.756597 -4.260689,4.266022 -7.769492,8.030159 -7.769492,8.030159 l 2.756917,6.775446 -3.508803,10.037697 c 0,0 10.319639,39.135727 11.528923,43.914928 2.380974,9.410341 4.01006,13.049005 10.777037,17.816914 6.766977,4.7679 19.047786,13.04901 21.052815,14.30372 2.005032,1.25471 4.51132,3.39199 6.766978,3.39199 2.255658,0 4.761946,-2.13728 6.766978,-3.39199 2.005029,-1.25471 14.285838,-9.53582 21.052815,-14.30372 6.766977,-4.767909 8.396066,-8.406573 10.777036,-17.816914 1.20903,-4.779201 11.52892,-43.914928 11.52892,-43.914928 z"
       id="Head"
       fill="url(#linearGradient-1)"
       style="fill:url(#linearGradient7);fill-opacity:1;fill-rule:evenodd;stroke:none;stroke-width:0.460715" /><path
       id="path4"
       style="fill:#cccccc;fill-opacity:0.803151;fill-rule:evenodd;stroke:none;stroke-width:0.460714"
       d="M 47.738281 31.521484 C 44.696067 31.433367 40.776665 31.9393 39.128906 32.095703 C 36.931894 32.304237 36.743431 32.622022 37.46875 32.957031 C 37.748278 33.086042 38.782968 33.48507 40.121094 33.992188 C 42.823134 33.704781 47.90983 33.1549 50.371094 33.841797 C 53.181896 34.626242 57.984072 35.820249 58.373047 36.453125 C 58.516316 36.686379 58.654005 36.837007 58.75 37.042969 C 59.078408 35.10515 58.746465 35.061082 58.373047 34.453125 C 57.984072 33.820249 53.181896 32.626242 50.371094 31.841797 C 49.668393 31.645685 48.752353 31.550857 47.738281 31.521484 z M 80.261719 31.521484 C 79.247628 31.550857 78.331606 31.645685 77.628906 31.841797 C 74.818104 32.626242 70.015925 33.820249 69.626953 34.453125 C 69.253307 35.061058 68.921434 35.105378 69.25 37.042969 C 69.346014 36.837126 69.483645 36.686292 69.626953 36.453125 C 70.015925 35.820249 74.818104 34.626242 77.628906 33.841797 C 80.090196 33.154892 85.177009 33.704787 87.878906 33.992188 C 89.217009 33.485064 90.251817 33.086043 90.53125 32.957031 C 91.25682 32.622022 91.068356 32.304237 88.871094 32.095703 C 87.223523 31.939303 83.303992 31.433368 80.261719 31.521484 z M 25.449219 40.857422 C 25.38097 41.100336 25.34375 41.313739 25.34375 41.492188 C 25.34375 44.911277 27.00604 45.814372 28.677734 47.591797 C 30.349428 49.369222 37.650539 57.13021 38.587891 58.126953 C 39.175577 58.751701 40.161522 59.579636 40.533203 60.779297 C 41.19753 58.418245 39.457155 57.051037 38.587891 56.126953 C 37.650539 55.13021 30.349428 47.369222 28.677734 45.591797 C 27.253903 44.077912 25.838147 43.19742 25.449219 40.857422 z M 102.55078 40.857422 C 102.16181 43.197444 100.7461 44.077905 99.322266 45.591797 C 97.650572 47.369222 90.34971 55.13021 89.412109 56.126953 C 88.543062 57.05105 86.802419 58.418182 87.466797 60.779297 C 87.838504 59.579581 88.824561 58.751719 89.412109 58.126953 C 90.34971 57.13021 97.650572 49.369222 99.322266 47.591797 C 100.99395 45.814372 102.65625 44.911277 102.65625 41.492188 C 102.65625 41.31373 102.61904 41.100349 102.55078 40.857422 z M 54.605469 43.082031 C 54.087217 45.336546 52.206091 48.078454 51.054688 50.246094 C 49.599787 52.984379 49.561106 53.309559 49.662109 54.417969 C 49.672078 54.527615 49.728098 54.65343 49.824219 54.792969 C 50.019371 54.244494 50.389781 53.497523 51.054688 52.246094 C 52.509338 49.50756 55.129453 45.853257 54.693359 43.421875 C 54.672601 43.30615 54.642862 43.192581 54.605469 43.082031 z M 73.394531 43.082031 C 73.357146 43.192567 73.327397 43.306165 73.306641 43.421875 C 72.870546 45.853257 75.490413 49.50756 76.945312 52.246094 C 77.610228 53.497543 77.980664 54.244492 78.175781 54.792969 C 78.271929 54.653419 78.327896 54.527622 78.337891 54.417969 C 78.438644 53.309559 78.400208 52.984379 76.945312 50.246094 C 75.793719 48.078468 73.91274 45.336537 73.394531 43.082031 z M 55.990234 54.322266 C 55.797693 55.897451 55.648693 56.944102 57.462891 57.359375 C 59.466668 57.818099 62.840842 58.615234 64 58.615234 C 65.159158 58.615234 68.533083 57.818099 70.537109 57.359375 C 72.351045 56.94411 72.202304 55.8974 72.009766 54.322266 C 71.834167 54.808851 71.416522 55.158051 70.537109 55.359375 C 68.533083 55.818099 65.159158 56.615234 64 56.615234 C 62.840842 56.615234 59.466668 55.818099 57.462891 55.359375 C 56.583313 55.158038 56.165849 54.808898 55.990234 54.322266 z M 62.306641 65.863281 C 60.987122 68.003719 56.758694 71.453527 55.259766 72.427734 C 53.474036 73.588342 48.618469 76.129873 46.550781 76.517578 C 44.483095 76.905035 41.25482 74.561965 39.371094 71.050781 C 38.940523 70.248109 38.697734 69.447443 38.591797 68.658203 C 38.417465 70.078008 38.57153 71.560228 39.371094 73.050781 C 41.25482 76.561965 44.483095 78.905035 46.550781 78.517578 C 48.618469 78.129873 53.474036 75.588342 55.259766 74.427734 C 57.045496 73.267124 62.705078 68.594853 62.705078 66.806641 C 62.705078 66.52331 62.558193 66.202524 62.306641 65.863281 z M 65.693359 65.863281 C 65.441797 66.202524 65.294922 66.52331 65.294922 66.806641 C 65.294922 68.594853 70.954504 73.267124 72.740234 74.427734 C 74.525963 75.588342 79.381532 78.129873 81.449219 78.517578 C 83.516906 78.905035 86.745181 76.561965 88.628906 73.050781 C 89.428458 71.56025 89.582542 70.077989 89.408203 68.658203 C 89.302264 69.447423 89.059465 70.24813 88.628906 71.050781 C 86.745181 74.561965 83.516906 76.905035 81.449219 76.517578 C 79.381532 76.129873 74.525963 73.588342 72.740234 72.427734 C 71.241305 71.453527 67.012934 68.003719 65.693359 65.863281 z M 48.705078 83.126953 C 48.6151 83.179301 48.535781 83.227536 48.46875 83.269531 C 47.650698 83.782458 48.151115 84.749862 48.896484 85.277344 C 49.641854 85.804825 59.656716 93.56951 60.628906 94.427734 C 61.600844 95.286205 63.028813 96.703125 64 96.703125 C 64.971186 96.703125 66.398908 95.286205 67.371094 94.427734 C 68.343032 93.56951 78.358149 85.804825 79.103516 85.277344 C 79.848639 84.749862 80.349304 83.782458 79.53125 83.269531 C 79.464211 83.227531 79.384913 83.179308 79.294922 83.126953 C 79.233879 83.179583 79.169103 83.230914 79.103516 83.277344 C 78.358149 83.804825 68.343032 91.56951 67.371094 92.427734 C 66.398908 93.286205 64.971186 94.703125 64 94.703125 C 63.028813 94.703125 61.600844 93.286205 60.628906 92.427734 C 59.656716 91.56951 49.641854 83.804825 48.896484 83.277344 C 48.830883 83.230919 48.766129 83.179576 48.705078 83.126953 z " /><path
       d="m 88.422988,25.813665 c 0,0 12.689362,15.35876 12.689362,18.641319 0,3.282558 -1.596271,4.148913 -3.20121,5.855361 -1.604939,1.706448 -8.61446,9.159121 -9.51462,10.116062 -0.900164,0.957183 -2.774116,2.408253 -1.671831,5.020088 1.102281,2.61183 2.728394,5.935344 0.920131,9.306323 -1.808503,3.370975 -4.906493,5.620946 -6.891612,5.248961 -1.98512,-0.372223 -6.647144,-2.811554 -8.361565,-3.925817 -1.714422,-1.114264 -7.148116,-5.601192 -7.148116,-7.317997 0,-1.716572 5.616805,-4.798921 6.654361,-5.499282 1.038039,-0.700117 5.771046,-3.41073 5.868015,-4.47464 0.09673,-1.064149 0.05991,-1.376142 -1.33689,-4.005081 -1.396803,-2.629178 -3.912248,-6.137481 -3.493568,-8.471772 0.41868,-2.33405 4.475543,-3.547813 7.370691,-4.642562 2.894665,-1.094507 8.468641,-3.161856 9.164755,-3.483246 0.696597,-0.321631 0.516613,-0.627842 -1.592908,-0.828048 -2.109039,-0.200206 -8.09472,-0.99573 -10.793279,-0.242608 -2.69856,0.753121 -7.30885,1.898945 -7.68229,2.506549 -0.373444,0.607605 -0.702855,0.628083 -0.319304,2.724103 0.383308,2.096018 2.357843,12.153537 2.549375,13.939972 0.191775,1.786435 0.566661,2.967431 -1.3571,3.407838 C 68.351384,60.129594 65.11287,60.894276 64,60.894276 c -1.11287,0 -4.351623,-0.764682 -6.275385,-1.205088 -1.924002,-0.440407 -1.549115,-1.621403 -1.35734,-3.407838 0.191774,-1.786435 2.166066,-11.843954 2.549615,-13.939972 0.383309,-2.09602 0.0539,-2.116498 -0.319303,-2.724103 -0.373443,-0.607604 -4.983974,-1.753428 -7.682534,-2.506549 -2.69856,-0.753122 -8.683996,0.0424 -10.793276,0.242608 -2.10928,0.200206 -2.289264,0.506417 -1.592909,0.828048 0.696356,0.32139 6.270332,2.388739 9.164997,3.483246 2.894907,1.094749 6.95201,2.308512 7.37069,4.642562 0.41868,2.334291 -2.097008,5.842594 -3.49357,8.471772 -1.396803,2.628939 -1.433858,2.940932 -1.336888,4.005081 0.09673,1.06391 4.829977,3.774523 5.867773,4.47464 1.037797,0.700361 6.654361,3.78271 6.654361,5.499282 0,1.716805 -5.433452,6.203733 -7.147874,7.317997 -1.714421,1.114263 -6.376445,3.553594 -8.361565,3.925817 -1.985119,0.371985 -5.083109,-1.877986 -6.891613,-5.248961 -1.808264,-3.370979 -0.18215,-6.694493 0.919892,-9.306323 1.102283,-2.611835 -0.77143,-4.062905 -1.671832,-5.020088 -0.899921,-0.956941 -7.909679,-8.409614 -9.514618,-10.116062 -1.60494,-1.706448 -3.200976,-2.572803 -3.200976,-5.855361 0,-3.282559 12.689367,-18.641319 12.689367,-18.641319 0,0 10.707615,2.047835 12.151339,2.047835 1.443723,0 4.57179,-1.204609 7.459237,-2.168296 C 62.075036,24.729517 64,24.722531 64,24.722531 c 0,0 1.924965,0.007 4.812412,0.970673 2.887447,0.963687 6.015514,2.168296 7.459238,2.168296 1.443723,0 12.151338,-2.047835 12.151338,-2.047835 z m -9.512744,58.750302 c 0.785388,0.492445 0.306314,1.420719 -0.409055,1.927137 -0.715603,0.506418 -10.331044,7.961498 -11.26417,8.785451 -0.933364,0.824191 -2.304663,2.185157 -3.237067,2.185157 -0.932405,0 -2.303942,-1.360966 -3.237068,-2.185157 -0.933368,-0.823953 -10.548566,-8.279033 -11.264172,-8.785451 -0.715605,-0.506418 -1.19444,-1.434692 -0.409055,-1.927137 0.785626,-0.492201 3.243084,-1.734635 6.63415,-3.491674 3.390585,-1.756804 7.616605,-3.250518 8.276145,-3.250518 0.659539,0 4.885318,1.493714 8.276383,3.250518 3.390826,1.757039 5.848283,2.999473 6.633909,3.491674 z"
       id="Face"
       fill="#ffffff"
       style="fill-rule:evenodd;stroke:none;stroke-width:0.442317;fill:#ffffff;fill-opacity:0.89999998"
       transform="matrix(1.0415932,0,0,1.0415932,-2.6619669,-6.8119482)" /><path
       id="use1895"
       style="fill:url(#linearGradient3);fill-opacity:1;fill-rule:evenodd;stroke:none;stroke-width:0.460715"
       d="M 45.955212,1.0000011 35.67965,12.673169 c 0,0 -9.023698,-2.510362 -13.284382,1.755654 0,0 1.63376,-0.138912 3.887665,0.0081 4.332028,-1.087434 9.396717,0.319394 9.396717,0.319394 L 45.955212,3.0831876 H 64.000001 82.04479 L 92.320352,14.756356 c 0,0 5.064685,-1.406829 9.396718,-0.319394 2.2539,-0.147051 3.88766,-0.0081 3.88766,-0.0081 -4.26069,-4.266029 -13.284378,-1.755667 -13.284378,-1.755667 L 82.04479,1.0000011 H 64.000001 Z" /><path
       id="path1"
       style="fill:#ff7f60;fill-opacity:1;fill-rule:evenodd;stroke:none;stroke-width:0.460715"
       d="M 15.195312 21.853516 C 14.828944 22.242327 14.626953 22.458984 14.626953 22.458984 L 17.007812 28.310547 L 17.382812 27.234375 L 15.195312 21.853516 z M 112.80469 21.853516 L 110.61719 27.234375 L 110.99219 28.310547 L 113.37305 22.458984 C 113.37305 22.458984 113.17105 22.242327 112.80469 21.853516 z M 14.175781 38.412109 L 13.875 39.273438 C 13.875 39.273438 24.19306 78.408299 25.402344 83.1875 C 27.783318 92.597841 29.41271 96.235997 36.179688 101.00391 C 42.946664 105.77181 55.227393 114.05388 57.232422 115.30859 C 59.237454 116.5633 61.744342 118.69922 64 118.69922 C 66.255658 118.69922 68.762546 116.5633 70.767578 115.30859 C 72.772607 114.05388 85.053336 105.77181 91.820312 101.00391 C 98.587289 96.235997 100.21669 92.597841 102.59766 83.1875 C 103.80669 78.408299 114.125 39.273438 114.125 39.273438 L 113.82422 38.412109 C 112.11729 44.887023 103.68356 76.895025 102.59766 81.1875 C 100.21669 90.597841 98.587289 94.235997 91.820312 99.003906 C 85.053336 103.77181 72.772607 112.05388 70.767578 113.30859 C 68.762546 114.5633 66.255658 116.69922 64 116.69922 C 61.744342 116.69922 59.237454 114.5633 57.232422 113.30859 C 55.227393 112.05388 42.946664 103.77181 36.179688 99.003906 C 29.41271 94.235997 27.783318 90.597841 25.402344 81.1875 C 24.316217 76.895028 15.882675 44.887054 14.175781 38.412109 z " /><path
       id="path5"
       style="fill:#c63b1c;fill-opacity:1;fill-rule:evenodd;stroke:none;stroke-width:0.460714"
       d="m 47.738281,33.521484 c -3.042214,-0.08812 -6.961616,0.417816 -8.609375,0.574219 -2.197012,0.208534 -2.385475,0.526319 -1.660156,0.861328 0.279528,0.129011 1.314218,0.528039 2.652344,1.035157 2.70204,-0.287407 7.788736,-0.837288 10.25,-0.150391 2.810802,0.784445 7.612978,1.978452 8.001953,2.611328 0.143269,0.233254 0.280958,0.383882 0.376953,0.589844 0.328408,-1.937819 -0.0035,-1.981887 -0.376953,-2.589844 -0.388975,-0.632876 -5.191151,-1.826883 -8.001953,-2.611328 -0.702701,-0.196112 -1.618741,-0.29094 -2.632813,-0.320313 z m 32.523438,0 c -1.014091,0.02937 -1.930113,0.124201 -2.632813,0.320313 -2.810802,0.784445 -7.612981,1.978452 -8.001953,2.611328 -0.373646,0.607933 -0.705519,0.652253 -0.376953,2.589844 0.09601,-0.205843 0.233645,-0.356677 0.376953,-0.589844 0.388972,-0.632876 5.191151,-1.826883 8.001953,-2.611328 2.46129,-0.686905 7.548103,-0.13701 10.25,0.150391 1.338103,-0.507124 2.372911,-0.906145 2.652344,-1.035157 0.72557,-0.335009 0.537106,-0.652794 -1.660156,-0.861328 -1.647571,-0.1564 -5.567102,-0.662335 -8.609375,-0.574219 z m -54.8125,9.335938 c -0.06825,0.242914 -0.105469,0.456317 -0.105469,0.634766 0,3.419089 1.66229,4.322184 3.333984,6.099609 1.671694,1.777425 8.972805,9.538413 9.910157,10.535156 0.587686,0.624748 1.573631,1.452683 1.945312,2.652344 0.664327,-2.361052 -1.076048,-3.72826 -1.945312,-4.652344 C 37.650539,57.13021 30.349428,49.369222 28.677734,47.591797 27.253903,46.077912 25.838147,45.19742 25.449219,42.857422 Z m 77.101561,0 c -0.38897,2.340022 -1.80468,3.220483 -3.228514,4.734375 -1.671694,1.777425 -8.972556,9.538413 -9.910157,10.535156 -0.869047,0.924097 -2.60969,2.291229 -1.945312,4.652344 0.371707,-1.199716 1.357764,-2.027578 1.945312,-2.652344 0.937601,-0.996743 8.238463,-8.757731 9.910157,-10.535156 1.671684,-1.777425 3.333984,-2.68052 3.333984,-6.099609 0,-0.178458 -0.0372,-0.391839 -0.10547,-0.634766 z m -47.945311,2.224609 c -0.518252,2.254515 -2.399378,4.996423 -3.550781,7.164063 -1.454901,2.738285 -1.493582,3.063465 -1.392579,4.171875 0.01,0.109646 0.06599,0.235461 0.16211,0.375 0.195152,-0.548475 0.565562,-1.295446 1.230469,-2.546875 1.45465,-2.738534 4.074765,-6.392837 3.638671,-8.824219 -0.02076,-0.115725 -0.0505,-0.229294 -0.08789,-0.339844 z m 18.789062,0 c -0.03739,0.110536 -0.06713,0.224134 -0.08789,0.339844 -0.436095,2.431382 2.183772,6.085685 3.638671,8.824219 0.664916,1.251449 1.035352,1.998398 1.230469,2.546875 0.09615,-0.13955 0.152115,-0.265347 0.16211,-0.375 0.100753,-1.10841 0.06232,-1.43359 -1.392579,-4.171875 -1.151593,-2.167626 -3.032572,-4.909557 -3.550781,-7.164063 z M 55.990234,56.322266 c -0.192541,1.575185 -0.341541,2.621836 1.472657,3.037109 2.003777,0.458724 5.377951,1.255859 6.537109,1.255859 1.159158,0 4.533083,-0.797135 6.537109,-1.255859 1.813936,-0.415265 1.665195,-1.461975 1.472657,-3.037109 -0.175599,0.486585 -0.593244,0.835785 -1.472657,1.037109 -2.004026,0.458724 -5.377951,1.255859 -6.537109,1.255859 -1.159158,0 -4.533332,-0.797135 -6.537109,-1.255859 -0.879578,-0.201337 -1.297042,-0.550477 -1.472657,-1.037109 z m 6.316407,11.541015 c -1.319519,2.140438 -5.547947,5.590246 -7.046875,6.564453 -1.78573,1.160608 -6.641297,3.702139 -8.708985,4.089844 -2.067686,0.387457 -5.295961,-1.955613 -7.179687,-5.466797 -0.430571,-0.802672 -0.67336,-1.603338 -0.779297,-2.392578 -0.174332,1.419805 -0.02027,2.902025 0.779297,4.392578 1.883726,3.511184 5.112001,5.854254 7.179687,5.466797 2.067688,-0.387705 6.923255,-2.929236 8.708985,-4.089844 1.78573,-1.16061 7.445312,-5.832881 7.445312,-7.621093 0,-0.283331 -0.146885,-0.604117 -0.398437,-0.94336 z m 3.386718,0 c -0.251562,0.339243 -0.398437,0.660029 -0.398437,0.94336 0,1.788212 5.659582,6.460483 7.445312,7.621093 1.785729,1.160608 6.641298,3.702139 8.708985,4.089844 2.067687,0.387457 5.295962,-1.955613 7.179687,-5.466797 0.799552,-1.490531 0.953636,-2.972792 0.779297,-4.392578 -0.105939,0.78922 -0.348738,1.589927 -0.779297,2.392578 -1.883725,3.511184 -5.112,5.854254 -7.179687,5.466797 -2.067687,-0.387705 -6.923256,-2.929236 -8.708985,-4.089844 -1.498929,-0.974207 -5.7273,-4.424015 -7.046875,-6.564453 z M 48.705078,85.126953 c -0.08998,0.05235 -0.169297,0.100583 -0.236328,0.142578 -0.818052,0.512927 -0.317635,1.480331 0.427734,2.007813 0.74537,0.527481 10.760232,8.292166 11.732422,9.15039 0.971938,0.858471 2.399907,2.275391 3.371094,2.275391 0.971186,0 2.398908,-1.41692 3.371094,-2.275391 0.971938,-0.858224 10.987055,-8.622909 11.732422,-9.15039 0.745123,-0.527482 1.245788,-1.494886 0.427734,-2.007813 -0.06704,-0.042 -0.146337,-0.09022 -0.236328,-0.142578 -0.06104,0.05263 -0.125819,0.103961 -0.191406,0.150391 -0.745367,0.527481 -10.760484,8.292166 -11.732422,9.15039 -0.972186,0.858471 -2.399908,2.275391 -3.371094,2.275391 -0.971187,0 -2.399156,-1.41692 -3.371094,-2.275391 -0.97219,-0.858224 -10.987052,-8.622909 -11.732422,-9.15039 -0.0656,-0.04642 -0.130355,-0.09777 -0.191406,-0.150391 z" /><path
       id="path3"
       style="fill-rule:evenodd;stroke:none;stroke-width:0.442317;fill:#ffffff;fill-opacity:1"
       d="M 64.000002 24.723089 C 64.000002 24.723089 62.075861 24.728845 59.188413 25.692532 C 56.300966 26.656219 53.17286 27.86206 51.729137 27.86206 C 50.285413 27.86206 39.576404 25.814416 39.576404 25.814416 C 39.576404 25.814416 26.887385 41.172547 26.887385 44.455106 C 26.887385 44.941812 26.92364 45.374738 26.988642 45.765823 C 28.178552 41.53065 39.576404 27.734551 39.576404 27.734551 C 39.576404 27.734551 50.285413 29.782196 51.729137 29.782196 C 53.17286 29.782196 56.300966 28.576355 59.188413 27.612668 C 62.07586 26.648982 64.000002 26.643224 64.000002 26.643224 C 64.000002 26.643224 65.924144 26.649004 68.811591 27.612668 C 71.699038 28.576355 74.827144 29.782196 76.270867 29.782196 C 77.71459 29.782196 88.4236 27.734551 88.4236 27.734551 C 88.4236 27.734551 99.821404 41.530612 101.01136 45.765823 C 101.07637 45.374747 101.11262 44.941799 101.11262 44.455106 C 101.11262 41.172547 88.4236 25.814416 88.4236 25.814416 C 88.4236 25.814416 77.71459 27.86206 76.270867 27.86206 C 74.827143 27.86206 71.699038 26.656219 68.811591 25.692532 C 65.924144 24.728859 64.000002 24.723089 64.000002 24.723089 z M 41.074635 39.174733 C 40.706226 39.213919 40.384368 39.249218 40.122068 39.274115 C 38.012788 39.474322 37.83185 39.779417 38.528206 40.101049 C 39.224562 40.422438 44.799186 42.490537 47.693852 43.585044 C 50.450958 44.627682 54.262327 45.778068 54.980616 47.901599 C 55.111658 47.331535 55.152278 46.794359 55.064997 46.307736 C 54.646317 43.973686 50.588759 42.759658 47.693852 41.664909 C 45.914751 40.99221 43.12346 39.951189 41.074635 39.174733 z M 86.925369 39.174733 C 84.876602 39.951188 82.085245 40.992213 80.306152 41.664909 C 77.411004 42.759658 73.353687 43.973686 72.935007 46.307736 C 72.847724 46.794371 72.888352 47.331519 73.019388 47.901599 C 73.737621 45.778042 77.548799 44.627689 80.306152 43.585044 C 83.200818 42.490537 88.775684 40.422438 89.471798 40.101049 C 90.168395 39.779417 89.987456 39.474322 87.877936 39.274115 C 87.615687 39.249221 87.293725 39.213915 86.925369 39.174733 z M 58.959647 42.10369 C 58.946723 42.179949 58.931612 42.259299 58.916518 42.341832 C 58.532969 44.43785 56.558113 54.49513 56.366339 56.281565 C 56.258735 57.283925 56.094545 58.095717 56.310085 58.692985 C 56.329427 58.534746 56.348173 58.370919 56.366339 58.2017 C 56.558113 56.415266 58.53297 46.357985 58.916518 44.261967 C 59.158555 42.938459 59.117542 42.442463 58.959647 42.10369 z M 69.040358 42.10369 C 68.882337 42.442469 68.841244 42.93817 69.083486 44.261967 C 69.466794 46.357985 71.440259 56.415266 71.63179 58.2017 C 71.649959 58.37095 71.670574 58.534719 71.689919 58.692985 C 71.905465 58.095709 71.7394 57.283974 71.63179 56.281565 C 71.440258 54.49513 69.466794 44.43785 69.083486 42.341832 C 69.068368 42.259219 69.053301 42.180017 69.040358 42.10369 z M 50.390292 59.144892 C 50.167686 59.770527 50.182003 60.127182 50.234656 60.705002 C 50.331386 61.768912 55.064149 64.47895 56.101945 65.179067 C 56.975288 65.768445 61.091728 68.04352 62.374262 69.773141 C 62.616654 69.379949 62.756789 69.034426 62.756789 68.758695 C 62.756789 67.042123 57.139742 63.959293 56.101945 63.258932 C 55.166833 62.628087 51.230681 60.364893 50.390292 59.144892 z M 77.609712 59.144892 C 76.769147 60.3649 72.833384 62.628092 71.898059 63.258932 C 70.860503 63.959293 65.243215 67.042123 65.243215 68.758695 C 65.243215 69.034426 65.38334 69.37995 65.625742 69.773141 C 66.908326 68.04352 71.02492 65.768445 71.898059 65.179067 C 72.936099 64.47895 77.668379 61.768912 77.765348 60.705002 C 77.81787 60.12719 77.832272 59.770511 77.609712 59.144892 z M 41.470288 64.892172 C 41.419964 65.071026 41.355887 65.256201 41.275274 65.447211 C 40.425164 67.461966 39.263208 69.899613 39.606407 72.456455 C 39.833298 70.608585 40.641066 68.870415 41.275274 67.367347 C 41.686833 66.392167 41.682905 65.57843 41.470288 64.892172 z M 86.529716 64.892172 C 86.317099 65.578409 86.31319 66.392214 86.72473 67.367347 C 87.359083 68.870431 88.166691 70.608563 88.393597 72.456455 C 88.736812 69.899592 87.575031 67.461982 86.72473 65.447211 C 86.644132 65.256237 86.580034 65.070995 86.529716 64.892172 z M 64.000002 77.821209 C 63.340462 77.821209 59.113753 79.315884 55.723168 81.072688 C 52.332102 82.829727 49.874576 84.071983 49.08895 84.564184 C 48.372688 85.013289 48.708485 85.823926 49.315841 86.347435 C 50.284026 85.784162 52.609881 84.605935 55.723168 82.992824 C 59.113753 81.23602 63.340462 79.741344 64.000002 79.741344 C 64.659541 79.741344 68.885771 81.23602 72.276836 82.992824 C 75.389868 84.605917 77.715961 85.784155 78.684163 86.347435 C 79.291362 85.823925 79.62731 85.013283 78.911054 84.564184 C 78.125428 84.071983 75.667662 82.829727 72.276836 81.072688 C 68.885771 79.315884 64.659541 77.821209 64.000002 77.821209 z "
       transform="matrix(1.0415932,0,0,1.0415932,-2.6619669,-6.8119482)" /></g></svg>
