<?xml version="1.0" encoding="UTF-8" standalone="no"?>
<!-- Created with Inkscape (http://www.inkscape.org/) -->

<svg
   width="128"
   height="128"
   viewBox="0 0 128 128"
   version="1.1"
   id="svg5"
   inkscape:version="1.4.3 (0d15f75042, 2025-12-25)"
   sodipodi:docname="com.calibre_ebook.calibre.svg"
   xml:space="preserve"
   xmlns:inkscape="http://www.inkscape.org/namespaces/inkscape"
   xmlns:sodipodi="http://sodipodi.sourceforge.net/DTD/sodipodi-0.dtd"
   xmlns:xlink="http://www.w3.org/1999/xlink"
   xmlns="http://www.w3.org/2000/svg"
   xmlns:svg="http://www.w3.org/2000/svg"><sodipodi:namedview
     id="namedview7"
     pagecolor="#ffffff"
     bordercolor="#666666"
     borderopacity="1"
     inkscape:pageshadow="2"
     inkscape:pageopacity="0.0"
     inkscape:pagecheckerboard="true"
     inkscape:document-units="px"
     showgrid="false"
     inkscape:showpageshadow="false"
     showborder="true"
     inkscape:snap-page="true"
     inkscape:zoom="2.8284271"
     inkscape:cx="-28.991378"
     inkscape:cy="13.258252"
     inkscape:window-width="1728"
     inkscape:window-height="1043"
     inkscape:window-x="0"
     inkscape:window-y="0"
     inkscape:window-maximized="1"
     inkscape:current-layer="layer2"
     inkscape:snap-global="true"
     inkscape:snap-bbox="true"
     inkscape:bbox-nodes="true"
     inkscape:snap-bbox-edge-midpoints="true"
     inkscape:snap-bbox-midpoints="true"
     inkscape:bbox-paths="true"
     inkscape:snap-intersection-paths="true"
     inkscape:object-paths="true"
     inkscape:deskcolor="#d1d1d1"
     showguides="true" /><defs
     id="defs2"><inkscape:perspective
       sodipodi:type="inkscape:persp3d"
       inkscape:vp_x="-286.23907 : 143.76529 : 1"
       inkscape:vp_y="0 : 1000 : 0"
       inkscape:vp_z="392.15917 : 322.09193 : 1"
       inkscape:persp3d-origin="143.92482 : -9.376727 : 1"
       id="perspective46" /><inkscape:path-effect
       effect="powerclip"
       id="path-effect5337"
       is_visible="true"
       lpeversion="1"
       inverse="true"
       flatten="false"
       hide_clip="false"
       message="" /><linearGradient
       y2="236"
       x2="96"
       y1="236"
       x1="32"
       gradientTransform="translate(604.81684,170.58641)"
       gradientUnits="userSpaceOnUse"
       id="linearGradient1099"
       xlink:href="#linearGradient1036" /><linearGradient
       id="linearGradient1036"><stop
         id="stop1032"
         offset="0"
         style="stop-color:#d5d3cf;stop-opacity:1;" /><stop
         id="stop1034"
         offset="1"
         style="stop-color:#f6f5f4;stop-opacity:1" /></linearGradient><radialGradient
       r="32"
       fy="-76"
       fx="-244"
       cy="-76"
       cx="-244"
       gradientTransform="matrix(0.88333331,0,0,0.88333331,-460.35018,463.11973)"
       gradientUnits="userSpaceOnUse"
       id="radialGradient1103"
       xlink:href="#linearGradient1069" /><linearGradient
       id="linearGradient1069"><stop
         id="stop1065"
         offset="0"
         style="stop-color:#d5d3cf;stop-opacity:1" /><stop
         id="stop1067-1"
         offset="1"
         style="stop-color:#949390;stop-opacity:1" /></linearGradient><linearGradient
       gradientUnits="userSpaceOnUse"
       y2="232"
       x2="64"
       y1="262.5"
       x1="64"
       id="linearGradient1027"
       xlink:href="#linearGradient1025"
       gradientTransform="translate(-470.5864,432.81685)" /><linearGradient
       id="linearGradient1025"><stop
         id="stop1021"
         offset="0"
         style="stop-color:#9a9996;stop-opacity:1" /><stop
         id="stop1023"
         offset="1"
         style="stop-color:#77767b;stop-opacity:1" /></linearGradient><inkscape:path-effect
       effect="spiro"
       id="path-effect35304-9"
       is_visible="true" /><clipPath
       clipPathUnits="userSpaceOnUse"
       id="clipPath1609-7"><path
         sodipodi:nodetypes="cccccc"
         inkscape:connector-curvature="0"
         id="path1611-5"
         d="m 252,116 28,-28 v -8 h -36 v 36 z"
         style="fill:#e74747;stroke:none;stroke-width:0.25px;stroke-linecap:butt;stroke-linejoin:miter;stroke-opacity:1" /></clipPath><radialGradient
       r="32"
       fy="-76"
       fx="-244"
       cy="-76"
       cx="-244"
       gradientTransform="matrix(0.88333331,0,0,0.88333331,-460.35018,463.11973)"
       gradientUnits="userSpaceOnUse"
       id="radialGradient1103-5"
       xlink:href="#linearGradient1069" /><inkscape:path-effect
       effect="spiro"
       id="path-effect35304-9-2"
       is_visible="true" /><clipPath
       clipPathUnits="userSpaceOnUse"
       id="clipPath1609-7-7"><path
         sodipodi:nodetypes="cccccc"
         inkscape:connector-curvature="0"
         id="path1611-5-0"
         d="m 252,116 28,-28 v -8 h -36 v 36 z"
         style="fill:#e74747;stroke:none;stroke-width:0.25px;stroke-linecap:butt;stroke-linejoin:miter;stroke-opacity:1" /></clipPath><clipPath
       clipPathUnits="userSpaceOnUse"
       id="clipPath744"><rect
         style="fill:#1e88e5;fill-opacity:1;stroke-width:0.264583"
         id="rect746"
         width="541.86664"
         height="541.86664"
         x="0"
         y="1.5987212e-14"
         rx="79.375"
         ry="79.375" /></clipPath><clipPath
       clipPathUnits="userSpaceOnUse"
       id="clipPath62"><rect
         style="fill:#1e88e5;fill-opacity:1;stroke-width:0.264583"
         id="rect64"
         width="541.86664"
         height="541.86664"
         x="2.2507105e-05"
         y="-0.42205024"
         rx="79.375"
         ry="79.375" /></clipPath><radialGradient
       r="32"
       fy="-76"
       fx="-244"
       cy="-76"
       cx="-244"
       gradientTransform="matrix(0.88333331,0,0,0.88333331,-460.35018,463.11973)"
       gradientUnits="userSpaceOnUse"
       id="radialGradient1103-6"
       xlink:href="#linearGradient1069" /><inkscape:path-effect
       effect="spiro"
       id="path-effect35304-9-20"
       is_visible="true" /><clipPath
       clipPathUnits="userSpaceOnUse"
       id="clipPath1609-7-2"><path
         sodipodi:nodetypes="cccccc"
         inkscape:connector-curvature="0"
         id="path1611-5-3"
         d="m 252,116 28,-28 v -8 h -36 v 36 z"
         style="fill:#e74747;stroke:none;stroke-width:0.25px;stroke-linecap:butt;stroke-linejoin:miter;stroke-opacity:1" /></clipPath><clipPath
       clipPathUnits="userSpaceOnUse"
       id="clipPath966"><rect
         style="fill:#999999;fill-opacity:1;stroke-width:0.264583"
         id="rect968"
         width="541.86664"
         height="541.86664"
         x="0"
         y="-2.8421709e-14"
         rx="79.375"
         ry="79.375" /></clipPath><clipPath
       clipPathUnits="userSpaceOnUse"
       id="clipPath402"><rect
         style="fill:#999999;fill-opacity:1;stroke-width:0.264583"
         id="rect404"
         width="541.86664"
         height="541.86664"
         x="1.5908203e-05"
         y="1.5908203e-05"
         rx="79.375"
         ry="79.375" /></clipPath><clipPath
       clipPathUnits="userSpaceOnUse"
       id="clipPath2739"><rect
         style="fill:#999999;fill-opacity:1;stroke-width:0.264583"
         id="rect2741"
         width="541.86664"
         height="541.86664"
         x="-7.8515623e-06"
         y="1.8626168"
         rx="79.375"
         ry="79.375" /></clipPath><clipPath
       clipPathUnits="userSpaceOnUse"
       id="clipPath5331"><g
         aria-label="@"
         id="g5335"
         style="font-size:55.6805px;line-height:1.25;display:block;fill:#75a8ff;fill-opacity:1;stroke-width:1.39201"
         transform="translate(0,2)"><path
           d="m 56.985383,60.163136 q 0,3.887848 1.93033,6.117243 1.93033,2.202207 5.30161,2.202207 3.344093,0 5.247235,-2.229395 1.930329,-2.229395 1.930329,-6.090055 0,-3.806284 -1.957517,-6.035679 -1.957518,-2.256583 -5.274423,-2.256583 -3.289717,0 -5.247234,2.229395 -1.93033,2.229395 -1.93033,6.062867 z m 14.817321,8.129136 q -1.631265,2.093456 -3.751909,3.099402 -2.093456,0.978759 -4.893794,0.978759 -4.676292,0 -7.612568,-3.37128 -2.909089,-3.398468 -2.909089,-8.836017 0,-5.437549 2.936276,-8.836017 2.936277,-3.398468 7.585381,-3.398468 2.800338,0 4.920982,1.033135 2.120644,1.005946 3.724721,3.072215 v -3.561595 h 3.887847 v 20.01018 q 3.969411,-0.598131 6.198806,-3.61597 2.256582,-3.045028 2.256582,-7.857258 0,-2.909089 -0.870007,-5.464737 -0.84282,-2.555648 -2.582836,-4.730667 -2.827525,-3.561595 -6.905687,-5.437549 -4.050974,-1.903142 -8.836017,-1.903142 -3.344092,0 -6.416308,0.897195 -3.072215,0.870008 -5.682238,2.610024 -4.268476,2.77315 -6.688185,7.286315 -2.392522,4.485978 -2.392522,9.733213 0,4.322851 1.549702,8.101947 1.576889,3.779097 4.540353,6.660998 2.854713,2.827525 6.606622,4.295663 3.751909,1.495326 8.020384,1.495326 3.507219,0 6.8785,-1.196261 3.398468,-1.169073 6.225993,-3.37128 l 2.446897,3.01784 q -3.398468,2.637211 -7.422254,4.023786 -3.996598,1.413763 -8.129136,1.413763 -5.029732,0 -9.488522,-1.794391 -4.45879,-1.767204 -7.938822,-5.165672 -3.480031,-3.398468 -5.30161,-7.857258 -1.821579,-4.485978 -1.821579,-9.624461 0,-4.94817 1.848767,-9.434148 1.848767,-4.485977 5.274422,-7.884445 3.507219,-3.452844 8.101948,-5.274423 4.594729,-1.848766 9.733213,-1.848766 5.763801,0 10.684783,2.365333 4.948169,2.365334 8.292262,6.715373 2.039081,2.664399 3.099403,5.79099 1.08751,3.12659 1.08751,6.470683 0,7.150377 -4.322852,11.282914 -4.322851,4.132537 -11.935419,4.295663 z"
           id="path5333"
           style="fill:#75a8ff;fill-opacity:1" /></g></clipPath><mask
       maskUnits="userSpaceOnUse"
       id="mask2399"><g
         aria-label="@"
         id="g2403"
         style="font-size:55.6805px;line-height:1.25;fill:#75a8ff;fill-opacity:1;stroke-width:1.39201"
         transform="translate(0,2)"><path
           d="m 56.985383,60.163136 q 0,3.887848 1.93033,6.117243 1.93033,2.202207 5.30161,2.202207 3.344093,0 5.247235,-2.229395 1.930329,-2.229395 1.930329,-6.090055 0,-3.806284 -1.957517,-6.035679 -1.957518,-2.256583 -5.274423,-2.256583 -3.289717,0 -5.247234,2.229395 -1.93033,2.229395 -1.93033,6.062867 z m 14.817321,8.129136 q -1.631265,2.093456 -3.751909,3.099402 -2.093456,0.978759 -4.893794,0.978759 -4.676292,0 -7.612568,-3.37128 -2.909089,-3.398468 -2.909089,-8.836017 0,-5.437549 2.936276,-8.836017 2.936277,-3.398468 7.585381,-3.398468 2.800338,0 4.920982,1.033135 2.120644,1.005946 3.724721,3.072215 v -3.561595 h 3.887847 v 20.01018 q 3.969411,-0.598131 6.198806,-3.61597 2.256582,-3.045028 2.256582,-7.857258 0,-2.909089 -0.870007,-5.464737 -0.84282,-2.555648 -2.582836,-4.730667 -2.827525,-3.561595 -6.905687,-5.437549 -4.050974,-1.903142 -8.836017,-1.903142 -3.344092,0 -6.416308,0.897195 -3.072215,0.870008 -5.682238,2.610024 -4.268476,2.77315 -6.688185,7.286315 -2.392522,4.485978 -2.392522,9.733213 0,4.322851 1.549702,8.101947 1.576889,3.779097 4.540353,6.660998 2.854713,2.827525 6.606622,4.295663 3.751909,1.495326 8.020384,1.495326 3.507219,0 6.8785,-1.196261 3.398468,-1.169073 6.225993,-3.37128 l 2.446897,3.01784 q -3.398468,2.637211 -7.422254,4.023786 -3.996598,1.413763 -8.129136,1.413763 -5.029732,0 -9.488522,-1.794391 -4.45879,-1.767204 -7.938822,-5.165672 -3.480031,-3.398468 -5.30161,-7.857258 -1.821579,-4.485978 -1.821579,-9.624461 0,-4.94817 1.848767,-9.434148 1.848767,-4.485977 5.274422,-7.884445 3.507219,-3.452844 8.101948,-5.274423 4.594729,-1.848766 9.733213,-1.848766 5.763801,0 10.684783,2.365333 4.948169,2.365334 8.292262,6.715373 2.039081,2.664399 3.099403,5.79099 1.08751,3.12659 1.08751,6.470683 0,7.150377 -4.322852,11.282914 -4.322851,4.132537 -11.935419,4.295663 z"
           id="path2401"
           style="fill:#75a8ff;fill-opacity:1" /></g><path
         id="mask-powermask-path-effect2405_box"
         style="fill:#ffffff;fill-opacity:1"
         d="M 38.938667,34.558228 H 89.060975 V 85.441792 H 38.938667 Z" /></mask><filter
       id="mask-powermask-path-effect2405_inverse"
       inkscape:label="filtermask-powermask-path-effect2405"
       style="color-interpolation-filters:sRGB"
       height="100"
       width="100"
       x="-50"
       y="-50"><feColorMatrix
         id="mask-powermask-path-effect2405_primitive1"
         values="1"
         type="saturate"
         result="fbSourceGraphic" /><feColorMatrix
         id="mask-powermask-path-effect2405_primitive2"
         values="-1 0 0 0 1 0 -1 0 0 1 0 0 -1 0 1 0 0 0 1 0 "
         in="fbSourceGraphic" /></filter><filter
       style="color-interpolation-filters:sRGB;"
       inkscape:label="Drop Shadow"
       id="filter102"
       x="-0.17108517"
       y="-0.046084042"
       width="1.2570458"
       height="1.1586105"><feFlood
         result="flood"
         in="SourceGraphic"
         flood-opacity="0.364706"
         flood-color="rgb(0,0,0)"
         id="feFlood101" /><feGaussianBlur
         result="blur"
         in="SourceGraphic"
         stdDeviation="1.502787"
         id="feGaussianBlur101" /><feOffset
         result="offset"
         in="blur"
         dx="-3.571606"
         dy="5.200000"
         id="feOffset101" /><feComposite
         result="comp1"
         operator="in"
         in="flood"
         in2="offset"
         id="feComposite101" /><feComposite
         result="comp2"
         operator="over"
         in="SourceGraphic"
         in2="comp1"
         id="feComposite102" /></filter><filter
       style="color-interpolation-filters:sRGB"
       inkscape:label="Drop Shadow"
       id="filter183"
       x="-0.014006006"
       y="-0.024181512"
       width="1.0400228"
       height="1.0831043"><feFlood
         result="flood"
         in="SourceGraphic"
         flood-opacity="0.168627"
         flood-color="rgb(0,0,0)"
         id="feFlood181" /><feGaussianBlur
         result="blur"
         in="SourceGraphic"
         stdDeviation="1.502787"
         id="feGaussianBlur181" /><feOffset
         result="offset"
         in="blur"
         dx="3.100000"
         dy="5.200000"
         id="feOffset181" /><feComposite
         result="comp1"
         operator="in"
         in="flood"
         in2="offset"
         id="feComposite182" /><feComposite
         result="comp2"
         operator="over"
         in="SourceGraphic"
         in2="comp1"
         id="feComposite183" /></filter><linearGradient
       inkscape:collect="always"
       xlink:href="#linearGradient79"
       id="linearGradient70"
       gradientUnits="userSpaceOnUse"
       gradientTransform="translate(-31.379243,584.06837)"
       x1="448.59732"
       y1="472.74832"
       x2="707.10864"
       y2="472.74832" /><linearGradient
       id="linearGradient79"
       inkscape:collect="always"><stop
         style="stop-color:#732f21;stop-opacity:1;"
         offset="0"
         id="stop75" /><stop
         style="stop-color:#732f21;stop-opacity:1;"
         offset="0.57984352"
         id="stop76" /><stop
         style="stop-color:#a4422f;stop-opacity:1;"
         offset="0.61859685"
         id="stop77" /><stop
         style="stop-color:#732f21;stop-opacity:1"
         offset="0.65878552"
         id="stop78" /><stop
         style="stop-color:#732f21;stop-opacity:1;"
         offset="1"
         id="stop79" /></linearGradient><inkscape:path-effect
       effect="fillet_chamfer"
       id="path-effect68"
       is_visible="true"
       lpeversion="1"
       nodesatellites_param="F,0,0,1,0,8.6800102,0,1 @ F,0,0,1,0,11.790055,0,1 @ F,0,0,1,0,11.95286,0,1 @ F,0,0,1,0,0,0,1"
       radius="0"
       unit="px"
       method="auto"
       mode="F"
       chamfer_steps="1"
       flexible="false"
       use_knot_distance="true"
       apply_no_radius="true"
       apply_with_radius="true"
       only_selected="false"
       hide_knots="false" /><linearGradient
       inkscape:collect="always"
       xlink:href="#linearGradient159"
       id="linearGradient168"
       gradientUnits="userSpaceOnUse"
       gradientTransform="translate(361.70277,131.56457)"
       x1="257.14001"
       y1="906.3504"
       x2="262.77347"
       y2="912.99707" /><linearGradient
       id="linearGradient159"
       inkscape:collect="always"><stop
         style="stop-color:#d4d4d4;stop-opacity:1;"
         offset="0"
         id="stop159" /><stop
         style="stop-color:#f9f9f9;stop-opacity:1;"
         offset="1"
         id="stop160" /></linearGradient><linearGradient
       inkscape:collect="always"
       xlink:href="#linearGradient28"
       id="linearGradient167"
       gradientUnits="userSpaceOnUse"
       gradientTransform="translate(-31.3792,584.06884)"
       x1="603.51794"
       y1="492.14929"
       x2="616.48376"
       y2="483.05582" /><linearGradient
       id="linearGradient28"
       inkscape:collect="always"><stop
         style="stop-color:#c9c9c9;stop-opacity:0.59086055;"
         offset="0"
         id="stop28" /><stop
         style="stop-color:#c9c9c9;stop-opacity:0;"
         offset="1"
         id="stop29" /></linearGradient><linearGradient
       inkscape:collect="always"
       xlink:href="#linearGradient157"
       id="linearGradient166"
       gradientUnits="userSpaceOnUse"
       gradientTransform="translate(361.70277,131.56457)"
       x1="140.69283"
       y1="936.09558"
       x2="143.90854"
       y2="921.65039" /><linearGradient
       id="linearGradient157"
       inkscape:collect="always"><stop
         style="stop-color:#f9f9f9;stop-opacity:1;"
         offset="0"
         id="stop157" /><stop
         style="stop-color:#d6d6d6;stop-opacity:1;"
         offset="1"
         id="stop158" /></linearGradient><filter
       style="color-interpolation-filters:sRGB"
       inkscape:label="Drop Shadow"
       id="filter181"
       x="-0.014006011"
       y="-0.024181475"
       width="1.0400231"
       height="1.0831041"><feFlood
         result="flood"
         in="SourceGraphic"
         flood-opacity="0.168627"
         flood-color="rgb(0,0,0)"
         id="feFlood179" /><feGaussianBlur
         result="blur"
         in="SourceGraphic"
         stdDeviation="1.502787"
         id="feGaussianBlur179" /><feOffset
         result="offset"
         in="blur"
         dx="3.100000"
         dy="5.200000"
         id="feOffset179" /><feComposite
         result="comp1"
         operator="in"
         in="flood"
         in2="offset"
         id="feComposite180" /><feComposite
         result="comp2"
         operator="over"
         in="SourceGraphic"
         in2="comp1"
         id="feComposite181" /></filter><linearGradient
       inkscape:collect="always"
       xlink:href="#linearGradient98"
       id="linearGradient89"
       gradientUnits="userSpaceOnUse"
       gradientTransform="translate(-41.444867,333.1398)"
       x1="448.59732"
       y1="472.74832"
       x2="707.10864"
       y2="472.74832" /><linearGradient
       id="linearGradient98"
       inkscape:collect="always"><stop
         style="stop-color:#704f92;stop-opacity:1;"
         offset="0"
         id="stop94" /><stop
         style="stop-color:#704f92;stop-opacity:1;"
         offset="0.57984352"
         id="stop95" /><stop
         style="stop-color:#8967ad;stop-opacity:1;"
         offset="0.61859685"
         id="stop96" /><stop
         style="stop-color:#704f92;stop-opacity:1;"
         offset="0.65878552"
         id="stop97" /><stop
         style="stop-color:#704f92;stop-opacity:1;"
         offset="1"
         id="stop98" /></linearGradient><inkscape:path-effect
       effect="fillet_chamfer"
       id="path-effect87"
       is_visible="true"
       lpeversion="1"
       nodesatellites_param="F,0,0,1,0,8.6800102,0,1 @ F,0,0,1,0,11.790055,0,1 @ F,0,0,1,0,11.95286,0,1 @ F,0,0,1,0,0,0,1"
       radius="0"
       unit="px"
       method="auto"
       mode="F"
       chamfer_steps="1"
       flexible="false"
       use_knot_distance="true"
       apply_no_radius="true"
       apply_with_radius="true"
       only_selected="false"
       hide_knots="false" /><linearGradient
       inkscape:collect="always"
       xlink:href="#linearGradient159"
       id="linearGradient164"
       gradientUnits="userSpaceOnUse"
       x1="257.14001"
       y1="906.3504"
       x2="262.77347"
       y2="912.99707"
       gradientTransform="translate(351.63712,-119.40938)" /><linearGradient
       inkscape:collect="always"
       xlink:href="#linearGradient28"
       id="linearGradient163"
       gradientUnits="userSpaceOnUse"
       gradientTransform="translate(-41.444852,333.09489)"
       x1="603.51794"
       y1="492.14929"
       x2="616.48376"
       y2="483.05582" /><linearGradient
       inkscape:collect="always"
       xlink:href="#linearGradient157"
       id="linearGradient162"
       gradientUnits="userSpaceOnUse"
       x1="140.69283"
       y1="936.09558"
       x2="143.90854"
       y2="921.65039"
       gradientTransform="translate(351.63712,-119.40938)" /><filter
       style="color-interpolation-filters:sRGB"
       inkscape:label="Drop Shadow"
       id="filter179"
       x="-0.014006018"
       y="-0.024181503"
       width="1.0400237"
       height="1.0831042"><feFlood
         result="flood"
         in="SourceGraphic"
         flood-opacity="0.168627"
         flood-color="rgb(0,0,0)"
         id="feFlood178" /><feGaussianBlur
         result="blur"
         in="SourceGraphic"
         stdDeviation="1.502787"
         id="feGaussianBlur178" /><feOffset
         result="offset"
         in="blur"
         dx="3.100000"
         dy="5.200000"
         id="feOffset178" /><feComposite
         result="comp1"
         operator="in"
         in="flood"
         in2="offset"
         id="feComposite178" /><feComposite
         result="comp2"
         operator="over"
         in="SourceGraphic"
         in2="comp1"
         id="feComposite179" /></filter><linearGradient
       inkscape:collect="always"
       xlink:href="#linearGradient34"
       id="linearGradient58"
       gradientUnits="userSpaceOnUse"
       x1="448.59732"
       y1="472.74832"
       x2="707.10864"
       y2="472.74832"
       gradientTransform="translate(-393.08197,452.50427)" /><linearGradient
       id="linearGradient34"
       inkscape:collect="always"><stop
         style="stop-color:#2d6eaa;stop-opacity:1;"
         offset="0"
         id="stop35" /><stop
         style="stop-color:#2d6eaa;stop-opacity:1;"
         offset="0.57984352"
         id="stop39" /><stop
         style="stop-color:#5a99d3;stop-opacity:1;"
         offset="0.61859685"
         id="stop37" /><stop
         style="stop-color:#2d6eaa;stop-opacity:1;"
         offset="0.65878552"
         id="stop38" /><stop
         style="stop-color:#2d6eaa;stop-opacity:1;"
         offset="1"
         id="stop36" /></linearGradient><linearGradient
       inkscape:collect="always"
       xlink:href="#linearGradient159"
       id="linearGradient160"
       x1="257.14001"
       y1="906.3504"
       x2="262.77347"
       y2="912.99707"
       gradientUnits="userSpaceOnUse" /><linearGradient
       inkscape:collect="always"
       xlink:href="#linearGradient28"
       id="linearGradient59"
       gradientUnits="userSpaceOnUse"
       x1="603.51794"
       y1="492.14929"
       x2="616.48376"
       y2="483.05582"
       gradientTransform="translate(-393.08197,452.50427)" /><inkscape:path-effect
       effect="fillet_chamfer"
       id="path-effect58"
       is_visible="true"
       lpeversion="1"
       nodesatellites_param="F,0,0,1,0,8.6800102,0,1 @ F,0,0,1,0,11.790055,0,1 @ F,0,0,1,0,11.95286,0,1 @ F,0,0,1,0,0,0,1"
       radius="0"
       unit="px"
       method="auto"
       mode="F"
       chamfer_steps="1"
       flexible="false"
       use_knot_distance="true"
       apply_no_radius="true"
       apply_with_radius="true"
       only_selected="false"
       hide_knots="false" /><linearGradient
       inkscape:collect="always"
       xlink:href="#linearGradient157"
       id="linearGradient158"
       x1="140.69283"
       y1="936.09558"
       x2="143.90854"
       y2="921.65039"
       gradientUnits="userSpaceOnUse" /></defs><g
     inkscape:groupmode="layer"
     id="layer2"
     inkscape:label="Layer 1"><path
       id="path245"
       style="font-size:13.3333px;font-family:Bookerly;-inkscape-font-specification:Bookerly;fill:#2d6eaa;fill-opacity:1;stroke:none;stroke-width:0.0978303;stroke-linecap:round;stroke-linejoin:round"
       d="m 68.212258,28.474256 c -0.203043,-0.03299 -0.424168,-0.06206 -0.664704,-0.08494 -0.230111,-0.02131 -0.464789,-0.03961 -0.70322,-0.05415 -0.228111,-0.01304 -0.455306,-0.02148 -0.681707,-0.02608 -0.216278,-0.0032 -0.413454,0.002 -0.587814,0.01371 -0.280941,0.01852 -0.489842,0.03975 -0.632608,0.06475 -0.132642,0.02649 -0.235656,0.06673 -0.305604,0.119718 l -0.157631,0.119301 c -0.05982,0.0546 -0.115583,0.109571 -0.165474,0.165875 l 1.240722,0.312854 -8.165341,6.193226 c -0.721914,0.01164 -1.327633,0.03963 -1.819218,0.08446 l -0.586438,0.374003 4.270266,0.786034 c 0.185702,-0.09366 0.325419,-0.165921 0.41746,-0.217128 0.101349,-0.05798 0.180859,-0.108359 0.234815,-0.149549 0.170879,-0.130235 0.132678,-0.234882 -0.114901,-0.313937 L 58.88007,35.569932 Z m 9.838933,1.599663 c -0.212078,-0.03444 -0.442634,-0.06491 -0.693089,-0.08913 -0.239536,-0.02253 -0.481448,-0.04153 -0.729399,-0.05712 -0.237227,-0.01389 -0.475625,-0.0235 -0.710748,-0.02895 -0.224397,-0.0037 -0.426518,0.0014 -0.607009,0.01309 -0.290732,0.01829 -0.508936,0.03918 -0.656043,0.06449 -0.136586,0.02691 -0.241948,0.06799 -0.312456,0.122274 -0.02644,0.02039 -0.07365,0.06218 -0.14285,0.124835 -0.07061,0.05429 -0.12901,0.110228 -0.179262,0.167827 l 1.296985,0.32449 -7.85608,6.055023 -1.24116,0.807769 c 0.284717,0.199351 0.663379,0.377891 1.136253,0.534426 0.475595,0.165852 1.03019,0.306548 1.664419,0.423555 0.667809,0.123223 1.359708,0.164441 2.074746,0.12121 0.725321,-0.05043 1.453655,-0.18012 2.184046,-0.387762 0.730786,-0.207654 1.444168,-0.489081 2.137209,-0.843309 0.712683,-0.359008 1.37857,-0.781903 2.002025,-1.268309 1.045604,-0.81596 1.564159,-1.497947 1.554289,-2.045631 0.0098,-0.550684 -0.506665,-0.913937 -1.546792,-1.089929 -0.491562,-0.08317 -1.057293,-0.09378 -1.693279,-0.03329 -0.624368,0.06235 -1.30678,0.19031 -2.047835,0.383708 0.217553,-0.148096 0.415384,-0.287061 0.59539,-0.416157 0.199444,-0.134067 0.376365,-0.260213 0.527731,-0.377171 z m -5.627978,-0.854047 c -0.754392,-0.122775 -1.451933,0.06026 -2.093861,0.55082 -0.581287,0.444249 -0.523711,0.725524 0.177733,0.842307 0.755459,0.125711 1.459274,-0.05927 2.103383,-0.553252 0.581343,-0.445929 0.517791,-0.725166 -0.187255,-0.839875 z M 52.660288,26.743677 c -0.739831,-0.121683 -1.531124,-0.142437 -2.376458,-0.06268 -0.834123,0.08123 -1.685705,0.248532 -2.556997,0.502765 -0.852547,0.249182 -1.707528,0.584333 -2.564548,1.005543 -0.848781,0.415056 -1.653616,0.902085 -2.412232,1.461023 -1.416716,1.043606 -2.113046,1.915623 -2.083837,2.616505 0.04747,0.699897 0.826766,1.190334 2.344686,1.470435 0.433052,0.0799 0.871652,0.127137 1.311268,0.142313 0.440828,0.02345 0.850834,0.02193 1.232925,-0.0068 0.391301,-0.03543 0.738732,-0.09586 1.042212,-0.180533 0.322035,-0.08951 0.575698,-0.203487 0.762058,-0.34254 l 0.479135,-0.35738 c -0.474519,0.06188 -0.994734,0.08229 -1.558846,0.06205 -0.563025,-0.02027 -1.099158,-0.07723 -1.609168,-0.169996 -1.204094,-0.218938 -1.81074,-0.589753 -1.82545,-1.111506 -0.0059,-0.52614 0.578202,-1.221456 1.750585,-2.087183 1.17752,-0.869524 2.35784,-1.495052 3.543384,-1.878229 1.186426,-0.3835 2.280405,-0.491677 3.283319,-0.32467 0.503148,0.08386 0.876479,0.225862 1.122149,0.425175 l -1.289933,1.273695 0.199215,0.03398 c 0.30587,0.05209 0.608283,0.01598 0.905927,-0.109353 0.315899,-0.130275 0.741285,-0.394573 1.273241,-0.791134 l 0.325239,-0.242528 c 0.12192,-0.09076 0.230525,-0.176716 0.325564,-0.256178 0.113101,-0.0842 0.202903,-0.156203 0.27178,-0.215984 l 0.196635,-0.146642 C 54.614512,27.320393 54.355204,27.191138 53.974597,27.06534 53.613242,26.934972 53.173931,26.82815 52.66019,26.743691 Z m 5.158496,2.961578 c -0.382128,-0.06467 -0.807651,-0.09248 -1.275075,-0.08299 -0.466931,0.0095 -0.929724,0.04781 -1.388687,0.114711 -0.458567,0.06689 -0.875294,0.156772 -1.25206,0.269603 -0.376668,0.112829 -0.663427,0.242223 -0.856563,0.386696 -0.193332,0.144481 -0.28635,0.277072 -0.282971,0.399165 0.01292,0.123912 0.120265,0.20456 0.323471,0.239928 l 0.609121,0.106016 c 0.960981,-0.702078 1.932854,-0.969294 2.919108,-0.800554 0.440841,0.07545 0.635005,0.219498 0.583925,0.430244 -0.04225,0.204478 -0.332006,0.509516 -0.870547,0.914855 l -0.756073,0.568953 c -0.536576,-0.06971 -0.978077,-0.118248 -1.326216,-0.146756 -0.338726,-0.03499 -0.642002,-0.05679 -0.910065,-0.06304 -1.786891,-0.07002 -3.184913,0.274872 -4.203131,1.035823 -0.585618,0.437643 -0.85543,0.822515 -0.808263,1.154189 0.04728,0.33256 0.399273,0.559365 1.056947,0.680685 0.465538,0.08585 0.997594,0.101413 1.595015,0.04423 0.598407,-0.0573 1.17753,-0.177445 1.735811,-0.359507 l -0.125528,0.177256 c -0.27771,0.392696 -0.192714,0.631123 0.259508,0.714466 0.186971,0.03452 0.405546,0.0495 0.656618,0.04523 0.252096,0.0042 0.499865,-0.0052 0.739654,-0.02848 0.248896,-0.03011 0.47303,-0.06945 0.67163,-0.117195 0.207612,-0.05451 0.350506,-0.111532 0.431115,-0.172516 l 0.322532,-0.243939 c -0.08828,-0.0077 -0.201389,-0.0192 -0.339148,-0.03597 l -0.357025,-0.06494 c -0.316499,-0.05763 -0.489817,-0.13957 -0.520838,-0.245598 -0.01208,-0.110985 0.123722,-0.273888 0.409061,-0.489247 l 3.063483,-2.311069 c 0.812814,-0.613183 1.209282,-1.085483 1.185595,-1.415218 -0.01383,-0.327132 -0.445313,-0.562083 -1.290404,-0.705057 z m 29.928022,5.063642 c -0.536249,-0.09068 -1.155923,-0.07808 -1.854628,0.03589 -0.686797,0.115626 -1.49467,0.338696 -2.427943,0.670218 l -0.09951,-0.01709 1.252721,-1.128071 c -0.319964,-0.05417 -0.731661,-0.09353 -1.234324,-0.118877 -0.490747,-0.02339 -0.937733,-0.02215 -1.342655,0.003 -0.384598,0.02002 -0.647026,0.04318 -0.788053,0.0704 -0.132021,0.02016 -0.235377,0.05861 -0.30722,0.11472 l -0.120253,0.09398 c -0.04291,0.04406 -0.102544,0.101807 -0.181569,0.173918 l 1.288365,0.492973 -4.768929,3.738177 c -0.336791,2.18e-4 -0.681003,0.0075 -1.0353,0.02209 -0.344801,0.0075 -0.666143,0.02344 -0.96531,0.04788 l -0.602151,0.392614 5.226271,0.962111 c 0.30875,-0.157169 0.529264,-0.287056 0.657527,-0.388268 0.192153,-0.151565 0.153304,-0.265589 -0.118516,-0.341818 L 78.790991,39.194508 82.5112,36.270397 c 0.783946,-0.245363 1.415358,-0.413474 1.895041,-0.503862 0.500203,-0.09569 0.895119,-0.117961 1.184418,-0.0682 0.356535,0.0613 0.641829,0.226927 0.856228,0.498651 0.7238,-0.16229 1.257551,-0.377996 1.600506,-0.649173 0.504699,-0.399289 0.404783,-0.659557 -0.300785,-0.778996 z m 5.823381,0.985415 c -0.652338,-0.110391 -1.3311,-0.137233 -2.035449,-0.08252 -0.691841,0.05664 -1.391109,0.190103 -2.096511,0.400634 -0.684689,0.20513 -1.364905,0.484775 -2.045487,0.839065 -0.68097,0.354597 -1.330666,0.776761 -1.949187,1.266494 -1.176156,0.931369 -1.708506,1.684903 -1.591128,2.260343 0.117942,0.577995 0.891528,0.999387 2.323806,1.263598 0.433749,0.08008 0.86199,0.131747 1.283836,0.155112 0.433864,0.02551 0.828104,0.02589 1.184985,7.89e-4 0.3687,-0.02305 0.691497,-0.07315 0.970699,-0.149054 0.29082,-0.07395 0.516382,-0.174115 0.673055,-0.299617 l 0.469334,-0.376294 c -0.491676,0.01934 -1.005907,0.01228 -1.54232,-0.02194 -0.5238,-0.03209 -0.986358,-0.08431 -1.386998,-0.157282 -1.004128,-0.182792 -1.563213,-0.483215 -1.681434,-0.898686 -0.108692,-0.421362 0.219639,-0.93513 0.985921,-1.543604 l 0.05614,-0.04442 5.66509,1.002815 c 0.195029,-0.09974 0.422625,-0.238324 0.685863,-0.415326 0.272235,-0.184361 0.500801,-0.349361 0.683211,-0.495623 0.847217,-0.679351 1.206117,-1.254834 1.077883,-1.726581 -0.107172,-0.47518 -0.68602,-0.801071 -1.731213,-0.978015 z M 69.910314,31.838711 c -0.186398,-0.03157 -0.397084,-0.05833 -0.631794,-0.08159 -0.234511,-0.02316 -0.473685,-0.04322 -0.716612,-0.05953 -0.232403,-0.0146 -0.46379,-0.02451 -0.694581,-0.03056 -0.220163,-0.0042 -0.414242,-0.0053 -0.582966,-8.59e-4 -0.306465,0.01406 -0.521693,0.03161 -0.647791,0.0515 -0.126097,0.01989 -0.22593,0.05708 -0.296838,0.111179 l -0.159638,0.121826 c -0.05176,0.04914 -0.09702,0.09385 -0.140173,0.13623 l 1.193976,0.467829 -4.790499,3.663924 c -0.338002,0.0066 -0.663576,0.01961 -0.979397,0.03867 -0.306515,0.0122 -0.592579,0.02769 -0.857872,0.04727 l -0.59056,0.378759 4.307721,0.793036 c 0.300003,-0.151596 0.515403,-0.276799 0.641991,-0.374111 0.180731,-0.138903 0.144562,-0.248845 -0.109387,-0.329509 l -0.886734,-0.276396 6.050292,-4.63916 z m 22.422032,4.637179 c 1.284784,0.219834 1.33215,0.809117 0.131459,1.76922 l -0.150195,0.120089 -4.077147,-0.714017 c 0.692326,-0.494879 1.379888,-0.83957 2.069355,-1.03613 0.698861,-0.20383 1.375346,-0.250673 2.026526,-0.139261 z M 75.778928,33.845456 c 0.662313,0.113683 0.959912,0.369332 0.894075,0.766715 -0.0569,0.391607 -0.46792,0.885157 -1.23394,1.481266 -0.903325,0.703001 -1.80478,1.195887 -2.706018,1.476133 -0.891447,0.273062 -1.767832,0.330315 -2.627826,0.173506 -0.656046,-0.119584 -1.105463,-0.282482 -1.344241,-0.490185 l 4.01107,-3.099584 c 1.142075,-0.35275 2.144555,-0.4558 3.00688,-0.307851 z m -21.096572,-0.923644 -1.386953,1.043894 c -0.175516,0.06809 -0.371611,0.128114 -0.587086,0.180661 -0.196729,0.0475 -0.403214,0.08507 -0.620956,0.112076 -0.20883,0.02025 -0.419667,0.03194 -0.629938,0.03531 -0.191526,-0.0017 -0.363449,-0.01693 -0.519015,-0.04528 -0.378788,-0.06911 -0.591228,-0.194281 -0.636857,-0.376725 -0.04553,-0.182152 0.08632,-0.389136 0.397193,-0.621986 0.177428,-0.132981 0.369492,-0.240059 0.571104,-0.319221 0.211247,-0.07744 0.451391,-0.131641 0.724316,-0.16517 0.282758,-0.03182 0.597922,-0.0385 0.94397,-0.01796 0.355257,0.01379 0.770963,0.05146 1.247471,0.111505 z" /><g
       id="g183"
       transform="matrix(0.45929979,0,0,0.45929979,-181.90615,-295.28517)"><g
         id="g177"
         transform="translate(-13.013903,-200.25961)"
         style="filter:url(#filter183)"><path
           id="path60"
           style="fill:url(#linearGradient70);fill-opacity:1;stroke:#672a1d;stroke-width:0.0272954;stroke-linecap:round;stroke-linejoin:round;stroke-opacity:1"
           d="m 538.64516,957.09765 a 20.757117,20.757117 45 0 0 -12.90826,3.79615 l -100.25279,70.9802 -3.41478,-0.7571 c 0,0 -13.90965,24.8714 5.44204,41.907 v 5e-4 l 143.14889,30.2271 a 16.079515,16.079515 0 0 0 13.76092,-3.5021 l 89.39454,-76.2997 a 5.4021085,5.4021085 0 0 0 -2.66392,-9.4449 l -21.92011,-3.4654 24.44502,-20.43239 a 5.4950744,5.4950744 0 0 0 -2.5616,-9.62681 L 541.36696,957.39841 a 20.757117,20.757117 45 0 0 -2.7218,-0.30076 z" /><path
           id="path61"
           style="fill:#b67c6e;fill-opacity:1;stroke:#f0ecdd;stroke-width:0.0261937;stroke-linecap:round;stroke-linejoin:round"
           d="m 652.42604,1007.8694 -64.1103,53.5874 a 24.294844,24.294844 0 0 1 -20.84059,5.0777 l -145.40559,-32.2424 c 0,0 -9.59047,22.228 5.44204,35.5575 l 143.14889,30.2271 a 16.079515,16.079515 0 0 0 13.76092,-3.5022 l 89.39454,-76.2997 a 5.4021085,5.4021085 0 0 0 -2.66392,-9.4449 z" /><path
           id="path65"
           style="fill:#985341;fill-opacity:1;stroke:#f0ecdd;stroke-width:0.0261937;stroke-linecap:round;stroke-linejoin:round"
           transform="rotate(60,-653.31302,473.48894)"
           d="m 360.35512,-320.76718 84.8638,-100.82397 a 5.4950744,5.4950744 15.098262 0 1 9.61748,2.59469 l 19.11026,109.5998 a 24.294844,24.294844 106.30591 0 1 -6.02248,20.58739 l -100.62606,109.80363 -11.7309,-126.47788 a 20.757117,20.757117 107.39417 0 1 4.7879,-15.28366 z"
           sodipodi:nodetypes="ccccc"
           inkscape:path-effect="#path-effect68"
           inkscape:original-d="m 354.76558,-314.12643 98.04561,-116.48485 23.18864,132.98982 -108.70171,118.61582 z" /><path
           id="path164"
           style="fill:url(#linearGradient168);stroke:#f0ecdd;stroke-width:0.0261937;stroke-linecap:round;stroke-linejoin:round"
           d="m 669.30415,993.76211 -74.0177,61.86849 -6.97064,5.8266 a 24.294844,24.294844 0 0 1 -2.56832,1.8753 24.294844,24.294844 0 0 1 -5.1e-4,5e-4 24.294844,24.294844 0 0 1 -2.79105,1.5234 24.294844,24.294844 0 0 1 -5.2e-4,6e-4 24.294844,24.294844 0 0 1 -2.96622,1.1456 24.294844,24.294844 0 0 1 -5.64152,1.0222 24.294844,24.294844 0 0 1 -0.61236,0.066 l -0.0904,0.049 c -0.007,0.023 -4.67394,16.1472 2.54558,29.6214 a 16.079515,16.079515 0 0 0 0.678,-0.1726 16.079515,16.079515 0 0 0 0.78393,-0.2403 16.079515,16.079515 0 0 0 1.1374,-0.4542 16.079515,16.079515 0 0 0 0.70952,-0.3121 16.079515,16.079515 0 0 0 1.17615,-0.6589 16.079515,16.079515 0 0 0 0.55862,-0.3287 16.079515,16.079515 0 0 0 1.59991,-1.1937 l 15.64452,-13.3527 v -5e-4 h 5.2e-4 l 73.38518,-62.636 c -5.32411,-8.3014 -4.39342,-17.3338 -2.56005,-23.64859 z" /><path
           id="path165"
           style="fill:url(#linearGradient167);fill-opacity:1;stroke:#f0ecdd;stroke-width:0.0293306;stroke-linecap:round;stroke-linejoin:round"
           d="m 595.28642,1055.6307 -6.97063,5.8266 a 24.294844,24.294844 0 0 1 -14.57947,5.6332 h -5.2e-4 l -0.091,0.049 c -0.007,0.023 -4.6826,16.1716 2.56005,29.6519 h 0.001 a 16.079515,16.079515 0 0 0 6.62802,-3.391 l 15.64452,-13.3526 v -6e-4 z" /><path
           id="path166"
           style="fill:url(#linearGradient166);stroke:#f0ecdd;stroke-width:0.0261937;stroke-linecap:round;stroke-linejoin:round"
           d="m 424.11601,1034.7461 c -8.37068,18.2082 1.80816,31.9288 1.80816,31.9288 l 14.52108,3.1879 0.17725,-0.084 128.45056,27.1235 a 16.079515,16.079515 0 0 0 7.11739,-0.1416 c -7.21952,-13.4743 -2.55257,-29.5986 -2.54558,-29.6215 l 0.0904,-0.049 a 24.294844,24.294844 0 0 1 -6.26009,-0.5555 l -96.5202,-21.4028 z m 157.11806,59.8476 a 16.079515,16.079515 0 0 1 -0.55862,0.3286 16.079515,16.079515 0 0 0 0.55862,-0.3286 z m -1.73477,0.9875 a 16.079515,16.079515 0 0 1 -0.70952,0.3121 16.079515,16.079515 0 0 0 0.70952,-0.3121 z m -1.84692,0.7664 a 16.079515,16.079515 0 0 1 -0.78393,0.2403 16.079515,16.079515 0 0 0 0.78393,-0.2403 z" /><path
           id="path170"
           style="fill:#a2412e;fill-opacity:0.5;stroke:#f0ecdd;stroke-width:0.0261937;stroke-linecap:round;stroke-linejoin:round"
           d="m 671.2288,1017.9544 -72.74957,62.0934 h -5.1e-4 v 5e-4 l -15.64453,13.3527 a 16.079515,16.079515 0 0 1 -1.5999,1.1937 16.079515,16.079515 0 0 1 -0.55862,0.3292 16.079515,16.079515 0 0 1 -1.17616,0.6588 16.079515,16.079515 0 0 1 -0.70952,0.3122 16.079515,16.079515 0 0 1 -1.13739,0.4537 16.079515,16.079515 0 0 1 -0.78394,0.2403 16.079515,16.079515 0 0 1 -0.67799,0.1726 16.079515,16.079515 0 0 0 -5.2e-4,0 16.079515,16.079515 0 0 1 -7.11688,0.1416 l -128.45055,-27.124 -0.17725,0.084 -14.52108,-3.1879 c 0,0 -4.85458,-6.5442 -5.1015,-16.5908 -0.26858,10.9393 5.1015,18.1783 5.1015,18.1783 l 14.52108,3.1879 0.17725,-0.084 128.45055,27.1245 a 16.079515,16.079515 0 0 0 7.11688,-0.1416 16.079515,16.079515 0 0 0 5.2e-4,0 16.079515,16.079515 0 0 0 0.67799,-0.1726 16.079515,16.079515 0 0 0 0.78394,-0.2403 16.079515,16.079515 0 0 0 1.13739,-0.4542 16.079515,16.079515 0 0 0 0.70952,-0.3116 16.079515,16.079515 0 0 0 1.17616,-0.6594 16.079515,16.079515 0 0 0 0.55862,-0.3287 16.079515,16.079515 0 0 0 1.5999,-1.1942 l 15.64453,-13.3522 v -5e-4 h 5.1e-4 l 73.38519,-62.636 c -0.22267,-0.3472 -0.43445,-0.6959 -0.63562,-1.0454 z" /></g><g
         id="g176"
         transform="translate(5.2916667)"
         style="filter:url(#filter181)"><path
           id="path79"
           style="fill:url(#linearGradient89);fill-opacity:1;stroke:#672a1d;stroke-width:0.0272954;stroke-linecap:round;stroke-linejoin:round;stroke-opacity:1"
           d="m 528.57962,706.16878 a 20.757117,20.757117 45 0 0 -12.90825,3.79615 l -100.25332,70.98068 -3.41426,-0.75706 c 0,0 -13.90964,24.87151 5.44205,41.90701 v 5.1e-4 l 143.14888,30.2271 a 16.079515,16.079515 0 0 0 13.76092,-3.50211 l 89.39454,-76.29974 a 5.4021085,5.4021085 0 0 0 -2.66392,-9.4449 l -21.92062,-3.46542 24.44553,-20.43286 a 5.4950744,5.4950744 0 0 0 -2.5616,-9.62629 L 531.30142,706.46954 a 20.757117,20.757117 45 0 0 -2.7218,-0.30076 z" /><path
           id="path80"
           style="fill:#b099c8;fill-opacity:1;stroke:#f0ecdd;stroke-width:0.0261937;stroke-linecap:round;stroke-linejoin:round"
           d="m 642.36042,756.94077 -64.1103,53.5875 a 24.294844,24.294844 0 0 1 -20.84059,5.0777 l -145.40559,-32.2425 c 0,0 -9.59047,22.2281 5.44204,35.5575 l 143.14889,30.2271 a 16.079515,16.079515 0 0 0 13.76092,-3.5021 l 89.39454,-76.2997 a 5.4021085,5.4021085 0 0 0 -2.66392,-9.4449 z" /><path
           id="path84"
           style="fill:#9677b5;fill-opacity:1;stroke:#f0ecdd;stroke-width:0.0261937;stroke-linecap:round;stroke-linejoin:round"
           transform="rotate(60,-441.03532,339.30758)"
           d="m 360.35512,-320.76718 84.8638,-100.82397 a 5.4950744,5.4950744 15.098262 0 1 9.61748,2.59469 l 19.11026,109.5998 a 24.294844,24.294844 106.30591 0 1 -6.02248,20.58739 l -100.62606,109.80363 -11.7309,-126.47788 a 20.757117,20.757117 107.39417 0 1 4.7879,-15.28366 z"
           sodipodi:nodetypes="ccccc"
           inkscape:path-effect="#path-effect87"
           inkscape:original-d="m 354.76558,-314.12643 98.04561,-116.48485 23.18864,132.98982 -108.70171,118.61582 z" /><path
           id="path160"
           style="fill:url(#linearGradient164);stroke:#f0ecdd;stroke-width:0.0261937;stroke-linecap:round;stroke-linejoin:round"
           d="m 659.2385,742.78812 -74.0177,61.86858 -6.97064,5.82651 a 24.294844,24.294844 0 0 1 -2.56832,1.87534 24.294844,24.294844 0 0 1 -5.1e-4,5.2e-4 24.294844,24.294844 0 0 1 -2.79105,1.52342 24.294844,24.294844 0 0 1 -5.2e-4,5.2e-4 24.294844,24.294844 0 0 1 -2.96622,1.14566 24.294844,24.294844 0 0 1 -5.64152,1.02216 24.294844,24.294844 0 0 1 -0.61236,0.0656 l -0.0904,0.0486 c -0.007,0.0229 -4.67394,16.1472 2.54558,29.62145 a 16.079515,16.079515 0 0 0 0.678,-0.1726 16.079515,16.079515 0 0 0 0.78393,-0.2403 16.079515,16.079515 0 0 0 1.1374,-0.45423 16.079515,16.079515 0 0 0 0.70952,-0.31213 16.079515,16.079515 0 0 0 1.17615,-0.65887 16.079515,16.079515 0 0 0 0.55862,-0.32867 16.079515,16.079515 0 0 0 1.59991,-1.19372 l 15.64452,-13.35268 v -5.1e-4 h 5.2e-4 l 73.38518,-62.63597 c -5.32411,-8.3014 -4.39342,-17.33388 -2.56005,-23.64869 z" /><path
           id="path161"
           style="fill:url(#linearGradient163);fill-opacity:1;stroke:#f0ecdd;stroke-width:0.0293306;stroke-linecap:round;stroke-linejoin:round"
           d="m 585.22077,804.6568 -6.97063,5.82652 a 24.294844,24.294844 0 0 1 -14.57947,5.63325 h -5.2e-4 l -0.091,0.0486 c -0.007,0.0229 -4.6826,16.1716 2.56005,29.65193 h 0.001 a 16.079515,16.079515 0 0 0 6.62802,-3.39101 l 15.64452,-13.35267 v -5.2e-4 z" /><path
           id="path162"
           style="fill:url(#linearGradient162);stroke:#f0ecdd;stroke-width:0.0261937;stroke-linecap:round;stroke-linejoin:round"
           d="m 414.05036,783.77218 c -8.37068,18.20813 1.80816,31.9288 1.80816,31.9288 l 14.52108,3.18792 0.17725,-0.0842 128.45056,27.12343 a 16.079515,16.079515 0 0 0 7.11739,-0.1416 c -7.21952,-13.47426 -2.55257,-29.59858 -2.54558,-29.62146 l 0.0904,-0.0486 a 24.294844,24.294844 0 0 1 -6.26009,-0.55552 l -96.5202,-21.40283 z m 157.11806,59.84755 a 16.079515,16.079515 0 0 1 -0.55862,0.3286 16.079515,16.079515 0 0 0 0.55862,-0.3286 z m -1.73477,0.9875 a 16.079515,16.079515 0 0 1 -0.70952,0.3121 16.079515,16.079515 0 0 0 0.70952,-0.3121 z m -1.84692,0.7664 a 16.079515,16.079515 0 0 1 -0.78393,0.2403 16.079515,16.079515 0 0 0 0.78393,-0.2403 z" /><path
           id="path172"
           style="fill:#8967ad;fill-opacity:0.502792;stroke:#f0ecdd;stroke-width:0.0261937;stroke-linecap:round;stroke-linejoin:round"
           d="m 661.16274,766.97954 -72.74956,62.09337 h -5.2e-4 v 5.2e-4 l -15.64452,13.35267 a 16.079515,16.079515 0 0 1 -1.5999,1.19372 16.079515,16.079515 0 0 1 -0.55862,0.32867 16.079515,16.079515 0 0 1 -1.17616,0.65887 16.079515,16.079515 0 0 1 -0.70952,0.31213 16.079515,16.079515 0 0 1 -1.1374,0.45423 16.079515,16.079515 0 0 1 -0.78393,0.2403 16.079515,16.079515 0 0 1 -0.67799,0.1726 16.079515,16.079515 0 0 1 -7.1174,0.14159 l -128.45055,-27.12341 -0.17726,0.0842 -14.52107,-3.18792 c 0,0 -4.85459,-6.54412 -5.1015,-16.59071 -0.26857,10.93926 5.1015,18.17821 5.1015,18.17821 l 14.52107,3.18792 0.17726,-0.0842 128.45055,27.12341 a 16.079515,16.079515 0 0 0 7.1174,-0.14159 16.079515,16.079515 0 0 0 0.67799,-0.1726 16.079515,16.079515 0 0 0 0.78393,-0.2403 16.079515,16.079515 0 0 0 1.1374,-0.45423 16.079515,16.079515 0 0 0 0.70952,-0.31213 16.079515,16.079515 0 0 0 1.17616,-0.65887 16.079515,16.079515 0 0 0 0.55862,-0.32867 16.079515,16.079515 0 0 0 1.5999,-1.19372 l 15.64452,-13.35267 v -5.2e-4 h 5.2e-4 l 73.38518,-62.63597 c -0.22265,-0.34716 -0.43445,-0.69543 -0.63562,-1.0449 z" /></g><g
         id="g178"
         transform="translate(341.21645,-157.67792)"
         style="filter:url(#filter179)"><path
           id="path49"
           style="fill:url(#linearGradient58);fill-opacity:1;stroke:#f0ecdd;stroke-width:0.0272954;stroke-linecap:round;stroke-linejoin:round"
           d="m 176.94217,825.53359 a 20.757117,20.757117 45 0 0 -12.90774,3.79615 L 63.781637,900.3099 60.366858,899.55284 c 0,0 -13.909645,24.87149 5.442045,41.90701 v 5.1e-4 l 143.148887,30.2271 a 16.079515,16.079515 0 0 0 13.76092,-3.50211 l 89.39454,-76.29974 a 5.4021085,5.4021085 0 0 0 -2.66392,-9.4449 l -21.92063,-3.46542 24.44554,-20.43286 a 5.4950744,5.4950744 0 0 0 -2.56212,-9.62629 L 179.66449,825.83435 a 20.757117,20.757117 45 0 0 -2.72232,-0.30076 z" /><path
           id="path50"
           style="fill:#90bae1;fill-opacity:1;stroke:#f0ecdd;stroke-width:0.0261937;stroke-linecap:round;stroke-linejoin:round"
           d="m 290.72332,876.30528 -64.1103,53.58742 a 24.294844,24.294844 0 0 1 -20.84059,5.07773 L 60.36684,902.72795 c 0,0 -9.59047,22.22805 5.44204,35.55752 l 143.14889,30.2271 a 16.079515,16.079515 0 0 0 13.76092,-3.50212 l 89.39454,-76.29973 a 5.4021085,5.4021085 0 0 0 -2.66392,-9.4449 z" /><path
           id="path51"
           style="fill:url(#linearGradient160);stroke:#f0ecdd;stroke-width:0.0261937;stroke-linecap:round;stroke-linejoin:round"
           d="m 307.60138,862.1975 -74.0177,61.86858 -6.97064,5.82651 a 24.294844,24.294844 0 0 1 -2.56832,1.87534 24.294844,24.294844 0 0 1 -5.1e-4,5.2e-4 24.294844,24.294844 0 0 1 -2.79105,1.52342 24.294844,24.294844 0 0 1 -5.2e-4,5.2e-4 24.294844,24.294844 0 0 1 -2.96622,1.14566 24.294844,24.294844 0 0 1 -5.64152,1.02216 24.294844,24.294844 0 0 1 -0.61236,0.0656 l -0.0904,0.0486 c -0.007,0.0229 -4.67394,16.1472 2.54558,29.62145 a 16.079515,16.079515 0 0 0 0.678,-0.1726 16.079515,16.079515 0 0 0 0.78393,-0.2403 16.079515,16.079515 0 0 0 1.1374,-0.45423 16.079515,16.079515 0 0 0 0.70952,-0.31213 16.079515,16.079515 0 0 0 1.17615,-0.65887 16.079515,16.079515 0 0 0 0.55862,-0.32867 16.079515,16.079515 0 0 0 1.59991,-1.19372 l 15.64452,-13.35268 v -5.1e-4 h 5.2e-4 l 73.38518,-62.63597 c -5.32411,-8.3014 -4.39342,-17.33388 -2.56005,-23.64869 z" /><path
           id="path52"
           style="fill:url(#linearGradient59);fill-opacity:1;stroke:#f0ecdd;stroke-width:0.0293306;stroke-linecap:round;stroke-linejoin:round"
           d="m 233.58365,924.06618 -6.97063,5.82652 a 24.294844,24.294844 0 0 1 -14.57947,5.63325 h -5.2e-4 l -0.091,0.0486 c -0.007,0.0229 -4.6826,16.1716 2.56005,29.65193 h 0.001 a 16.079515,16.079515 0 0 0 6.62802,-3.39101 l 15.64452,-13.35267 v -5.2e-4 z" /><path
           id="path54"
           style="fill:#629ed5;fill-opacity:1;stroke:#f0ecdd;stroke-width:0.0261937;stroke-linecap:round;stroke-linejoin:round"
           transform="rotate(60,-720.22653,94.463147)"
           d="m 360.35512,-320.76718 84.8638,-100.82397 a 5.4950744,5.4950744 15.098262 0 1 9.61748,2.59469 l 19.11026,109.5998 a 24.294844,24.294844 106.30591 0 1 -6.02248,20.58739 l -100.62606,109.80363 -11.7309,-126.47788 a 20.757117,20.757117 107.39417 0 1 4.7879,-15.28366 z"
           sodipodi:nodetypes="ccccc"
           inkscape:path-effect="#path-effect58"
           inkscape:original-d="m 354.76558,-314.12643 98.04561,-116.48485 23.18864,132.98982 -108.70171,118.61582 z" /><path
           id="path156"
           style="fill:url(#linearGradient158);stroke:#f0ecdd;stroke-width:0.0261937;stroke-linecap:round;stroke-linejoin:round"
           d="m 62.413245,903.18156 c -8.37068,18.20813 1.808158,31.9288 1.808158,31.9288 l 14.521077,3.18792 0.177251,-0.0842 128.450559,27.12343 a 16.079515,16.079515 0 0 0 7.11739,-0.1416 c -7.21952,-13.47426 -2.55257,-29.59858 -2.54558,-29.62146 l 0.0904,-0.0486 a 24.294844,24.294844 0 0 1 -6.26009,-0.55552 L 109.25221,913.5675 Z M 219.5313,963.02911 a 16.079515,16.079515 0 0 1 -0.55862,0.3286 16.079515,16.079515 0 0 0 0.55862,-0.3286 z m -1.73477,0.9875 a 16.079515,16.079515 0 0 1 -0.70952,0.3121 16.079515,16.079515 0 0 0 0.70952,-0.3121 z m -1.84692,0.7664 a 16.079515,16.079515 0 0 1 -0.78393,0.2403 16.079515,16.079515 0 0 0 0.78393,-0.2403 z" /><path
           id="path174"
           style="fill:#5695d0;fill-opacity:0.500967;stroke:#f0ecdd;stroke-width:0.0261937;stroke-linecap:round;stroke-linejoin:round"
           d="m 309.52581,886.38879 -72.74956,62.09337 h -5.2e-4 v 5.1e-4 l -15.64452,13.35268 a 16.079515,16.079515 0 0 1 -1.59991,1.19372 16.079515,16.079515 0 0 1 -0.55862,0.32867 16.079515,16.079515 0 0 1 -1.17615,0.65887 16.079515,16.079515 0 0 1 -0.70952,0.31213 16.079515,16.079515 0 0 1 -1.1374,0.45423 16.079515,16.079515 0 0 1 -0.78393,0.2403 16.079515,16.079515 0 0 1 -0.678,0.1726 16.079515,16.079515 0 0 1 -7.11739,0.14159 l -128.450559,-27.12341 -0.177251,0.0842 -14.521077,-3.18792 c 0,0 -4.854591,-6.54412 -5.101497,-16.59071 -0.26857,10.93926 5.101497,18.17821 5.101497,18.17821 l 14.521077,3.18792 0.177251,-0.0842 128.450559,27.12341 a 16.079515,16.079515 0 0 0 7.11739,-0.14159 16.079515,16.079515 0 0 0 0.678,-0.1726 16.079515,16.079515 0 0 0 0.78393,-0.2403 16.079515,16.079515 0 0 0 1.1374,-0.45423 16.079515,16.079515 0 0 0 0.70952,-0.31213 16.079515,16.079515 0 0 0 1.17615,-0.65887 16.079515,16.079515 0 0 0 0.55862,-0.32867 16.079515,16.079515 0 0 0 1.59991,-1.19372 l 15.64452,-13.35268 v -5.1e-4 h 5.2e-4 l 73.38518,-62.63597 c -0.22265,-0.34716 -0.43445,-0.69543 -0.63562,-1.0449 z" /></g></g><path
       id="path10"
       style="font-size:13.3333px;font-family:Bookerly;-inkscape-font-specification:Bookerly;fill:#dec678;fill-opacity:1;stroke:none;stroke-width:0.0978303;stroke-linecap:round;stroke-linejoin:round"
       d="m 66.212259,23.281014 c -0.203044,-0.03299 -0.424169,-0.06206 -0.664704,-0.08494 -0.230112,-0.02131 -0.464789,-0.03961 -0.70322,-0.05415 -0.228111,-0.01304 -0.455307,-0.02148 -0.681708,-0.02608 -0.216277,-0.0032 -0.413454,0.002 -0.587814,0.01371 -0.28094,0.01852 -0.489842,0.03975 -0.632608,0.06475 -0.132642,0.02649 -0.235655,0.06673 -0.305604,0.119718 l -0.15763,0.119301 c -0.05983,0.0546 -0.115583,0.109571 -0.165475,0.165875 l 1.240722,0.312854 -8.16534,6.193227 c -0.721915,0.01164 -1.327634,0.03963 -1.819219,0.08446 l -0.586437,0.374003 4.270266,0.786034 c 0.185701,-0.09366 0.325419,-0.165921 0.417459,-0.217128 0.10135,-0.05798 0.180859,-0.108359 0.234815,-0.149549 0.170879,-0.130235 0.132679,-0.234882 -0.1149,-0.313937 L 56.88007,30.37669 Z m 9.838933,1.599663 c -0.212079,-0.03444 -0.442634,-0.06491 -0.69309,-0.08913 -0.239536,-0.02253 -0.481448,-0.04153 -0.729398,-0.05712 -0.237228,-0.01389 -0.475626,-0.0235 -0.710748,-0.02895 -0.224398,-0.0037 -0.426519,0.0014 -0.60701,0.01309 -0.290732,0.01829 -0.508935,0.03918 -0.656042,0.06449 -0.136586,0.02691 -0.241949,0.06799 -0.312457,0.122274 -0.02644,0.02039 -0.07365,0.06218 -0.14285,0.124835 -0.07061,0.05429 -0.129009,0.110228 -0.179262,0.167827 l 1.296986,0.32449 -7.85608,6.055023 -1.241161,0.807769 c 0.284717,0.199351 0.66338,0.377891 1.136253,0.534426 0.475595,0.165852 1.03019,0.306548 1.664419,0.423555 0.667809,0.123223 1.359709,0.164441 2.074747,0.12121 0.725321,-0.05043 1.453655,-0.180119 2.184045,-0.387762 0.730786,-0.207654 1.444169,-0.48908 2.13721,-0.843309 0.712682,-0.359008 1.37857,-0.781903 2.002025,-1.268309 1.045604,-0.81596 1.564159,-1.497947 1.554289,-2.045631 0.0098,-0.550684 -0.506666,-0.913937 -1.546793,-1.089929 -0.491562,-0.08317 -1.057293,-0.09378 -1.693278,-0.03329 -0.624368,0.06235 -1.30678,0.19031 -2.047835,0.383708 0.217553,-0.148096 0.415383,-0.287061 0.595389,-0.416157 0.199445,-0.134067 0.376365,-0.260213 0.527732,-0.377171 z M 70.423214,24.02663 c -0.754393,-0.122775 -1.451933,0.06026 -2.093861,0.55082 -0.581287,0.44425 -0.523712,0.725524 0.177733,0.842307 0.755459,0.125711 1.459274,-0.05927 2.103383,-0.553252 0.581342,-0.445929 0.51779,-0.725166 -0.187255,-0.839875 z M 50.660289,21.550435 c -0.739832,-0.121683 -1.531124,-0.142437 -2.376458,-0.06268 -0.834124,0.08123 -1.685706,0.248532 -2.556998,0.502765 -0.852547,0.249182 -1.707528,0.584333 -2.564547,1.005543 -0.848781,0.415056 -1.653617,0.902085 -2.412233,1.461023 -1.416716,1.043606 -2.113045,1.915623 -2.083837,2.616505 0.04747,0.699897 0.826767,1.190334 2.344686,1.470435 0.433052,0.0799 0.871652,0.127137 1.311268,0.142313 0.440828,0.02345 0.850834,0.02193 1.232925,-0.0068 0.391301,-0.03543 0.738732,-0.09586 1.042213,-0.180533 0.322034,-0.08951 0.575697,-0.203487 0.762057,-0.34254 l 0.479135,-0.35738 c -0.474519,0.06188 -0.994734,0.08229 -1.558846,0.06205 -0.563025,-0.02027 -1.099158,-0.07723 -1.609167,-0.169997 -1.204094,-0.218938 -1.81074,-0.589753 -1.82545,-1.111506 -0.0059,-0.52614 0.578202,-1.221456 1.750585,-2.087183 1.177519,-0.869524 2.357839,-1.495052 3.543383,-1.878229 1.186426,-0.3835 2.280406,-0.491677 3.28332,-0.32467 0.503147,0.08386 0.876479,0.225862 1.122148,0.425175 l -1.289932,1.273695 0.199214,0.03398 c 0.30587,0.05209 0.608283,0.01598 0.905928,-0.109353 0.315898,-0.130275 0.741284,-0.394573 1.27324,-0.791133 l 0.325239,-0.242529 c 0.121921,-0.09077 0.230525,-0.176716 0.325564,-0.256178 0.113102,-0.0842 0.202903,-0.156203 0.27178,-0.215984 l 0.196636,-0.146642 c -0.13763,-0.133414 -0.396938,-0.262669 -0.777545,-0.388467 -0.361355,-0.130368 -0.800665,-0.23719 -1.314407,-0.321649 z m 5.158496,2.961578 c -0.382128,-0.06467 -0.807652,-0.09248 -1.275075,-0.08299 -0.466932,0.0095 -0.929725,0.04781 -1.388687,0.11471 -0.458568,0.06689 -0.875294,0.156772 -1.252061,0.269603 -0.376667,0.112829 -0.663427,0.242223 -0.856563,0.386696 -0.193331,0.144481 -0.28635,0.277072 -0.28297,0.399165 0.01291,0.123912 0.120265,0.20456 0.32347,0.239928 l 0.609121,0.106016 c 0.960981,-0.702078 1.932854,-0.969294 2.919109,-0.800554 0.44084,0.07545 0.635005,0.219498 0.583924,0.430244 -0.04225,0.204479 -0.332005,0.509516 -0.870546,0.914855 l -0.756074,0.568953 c -0.536576,-0.06971 -0.978077,-0.118248 -1.326216,-0.146756 -0.338726,-0.03499 -0.642002,-0.05679 -0.910065,-0.06304 -1.786891,-0.07002 -3.184913,0.274872 -4.20313,1.035823 -0.585619,0.437643 -0.855431,0.822515 -0.808264,1.154189 0.04728,0.33256 0.399273,0.559365 1.056947,0.680685 0.465538,0.08585 0.997594,0.101413 1.595015,0.04423 0.598407,-0.05729 1.17753,-0.177445 1.735811,-0.359507 l -0.125528,0.177256 c -0.27771,0.392696 -0.192714,0.631123 0.259508,0.714466 0.186972,0.03452 0.405546,0.0495 0.656619,0.04523 0.252096,0.0042 0.499864,-0.0052 0.739653,-0.02848 0.248897,-0.03011 0.47303,-0.06945 0.67163,-0.117195 0.207612,-0.05451 0.350507,-0.111532 0.431115,-0.172516 l 0.322532,-0.243939 c -0.08828,-0.0077 -0.201388,-0.0192 -0.339147,-0.03597 l -0.357026,-0.06494 c -0.316499,-0.05763 -0.489817,-0.13957 -0.520838,-0.245598 -0.01207,-0.110985 0.123722,-0.273888 0.409062,-0.489246 l 3.063483,-2.31107 c 0.812814,-0.613183 1.209282,-1.085483 1.185595,-1.415218 -0.01384,-0.327132 -0.445314,-0.562083 -1.290404,-0.705057 z m 29.928021,5.063643 c -0.536249,-0.09068 -1.155923,-0.07808 -1.854627,0.03589 -0.686798,0.115626 -1.494671,0.338696 -2.427944,0.670218 l -0.09951,-0.0171 1.252722,-1.128071 c -0.319965,-0.05417 -0.731662,-0.09353 -1.234325,-0.118877 -0.490746,-0.02339 -0.937732,-0.02216 -1.342654,0.003 -0.384599,0.02002 -0.647026,0.04318 -0.788053,0.0704 -0.132022,0.02016 -0.235378,0.05861 -0.307221,0.11472 l -0.120252,0.09398 c -0.04291,0.04406 -0.102544,0.101807 -0.181569,0.173919 l 1.288365,0.492972 -4.76893,3.738177 c -0.33679,2.18e-4 -0.681003,0.0075 -1.0353,0.02209 -0.3448,0.0075 -0.666142,0.02344 -0.96531,0.04788 l -0.60215,0.392613 5.22627,0.962111 c 0.30875,-0.157168 0.529265,-0.287056 0.657527,-0.388268 0.192154,-0.151565 0.153304,-0.265589 -0.118516,-0.341818 l -1.534337,-0.398185 3.720209,-2.924111 c 0.783945,-0.245363 1.415358,-0.413474 1.895041,-0.503862 0.500202,-0.09569 0.895119,-0.117961 1.184418,-0.0682 0.356534,0.0613 0.641828,0.226927 0.856228,0.498651 0.723799,-0.16229 1.257551,-0.377996 1.600505,-0.649173 0.504699,-0.399289 0.404784,-0.659556 -0.300785,-0.778996 z m 5.823382,0.985414 c -0.652339,-0.110391 -1.331101,-0.137233 -2.035449,-0.08252 -0.691842,0.05664 -1.391109,0.190103 -2.096512,0.400634 -0.684688,0.20513 -1.364905,0.484775 -2.045487,0.839065 -0.680969,0.354597 -1.330665,0.776761 -1.949186,1.266494 -1.176156,0.931369 -1.708506,1.684903 -1.591129,2.260343 0.117942,0.577995 0.891528,0.999387 2.323807,1.263598 0.433749,0.08008 0.86199,0.131747 1.283835,0.155112 0.433864,0.02551 0.828105,0.02589 1.184986,7.89e-4 0.368699,-0.02305 0.691496,-0.07315 0.970698,-0.149053 0.29082,-0.07395 0.516382,-0.174116 0.673056,-0.299618 l 0.469334,-0.376294 c -0.491677,0.01934 -1.005908,0.01228 -1.54232,-0.02194 -0.523801,-0.03209 -0.986359,-0.08431 -1.386999,-0.157281 -1.004127,-0.182793 -1.563213,-0.483216 -1.681433,-0.898687 -0.108693,-0.421362 0.219639,-0.93513 0.98592,-1.543604 l 0.05614,-0.04442 5.665089,1.002814 c 0.195029,-0.09974 0.422625,-0.238324 0.685864,-0.415325 0.272234,-0.184362 0.5008,-0.349362 0.683211,-0.495624 0.847216,-0.679351 1.206116,-1.254834 1.077882,-1.726581 -0.107171,-0.47518 -0.68602,-0.801071 -1.731212,-0.978015 z M 67.910315,26.645469 c -0.186399,-0.03157 -0.397085,-0.05833 -0.631795,-0.08158 -0.234511,-0.02316 -0.473684,-0.04322 -0.716612,-0.05953 -0.232403,-0.01461 -0.46379,-0.02451 -0.69458,-0.03057 -0.220164,-0.0042 -0.414243,-0.0053 -0.582966,-8.59e-4 -0.306465,0.01406 -0.521694,0.03161 -0.647791,0.0515 -0.126098,0.01989 -0.22593,0.05708 -0.296838,0.111179 l -0.159639,0.121826 c -0.05176,0.04914 -0.09702,0.09385 -0.140173,0.13623 l 1.193976,0.467829 -4.790499,3.663924 c -0.338002,0.0066 -0.663575,0.01961 -0.979396,0.03867 -0.306516,0.0122 -0.592579,0.02769 -0.857873,0.04726 l -0.59056,0.378759 4.307721,0.793036 c 0.300003,-0.151596 0.515403,-0.276799 0.641991,-0.374111 0.180732,-0.138903 0.144562,-0.248845 -0.109387,-0.329509 l -0.886734,-0.276396 6.050292,-4.639159 z m 22.422031,4.637179 c 1.284785,0.219834 1.33215,0.809117 0.13146,1.76922 L 90.31361,33.171957 86.236464,32.45794 c 0.692325,-0.494879 1.379888,-0.83957 2.069355,-1.03613 0.69886,-0.20383 1.375345,-0.250673 2.026525,-0.139261 z M 73.778929,28.652214 c 0.662312,0.113683 0.959911,0.369332 0.894074,0.766715 -0.0569,0.391607 -0.467919,0.885157 -1.23394,1.481266 -0.903325,0.703001 -1.80478,1.195887 -2.706018,1.476133 -0.891447,0.273062 -1.767832,0.330316 -2.627826,0.173506 -0.656046,-0.119584 -1.105463,-0.282482 -1.344241,-0.490185 l 4.01107,-3.099583 c 1.142075,-0.352751 2.144556,-0.455801 3.006881,-0.307852 z M 52.682356,27.72857 51.295403,28.772464 c -0.175515,0.06809 -0.371611,0.128114 -0.587086,0.180661 -0.196728,0.0475 -0.403214,0.08507 -0.620955,0.112077 -0.208831,0.02025 -0.419668,0.03194 -0.629939,0.03531 -0.191526,-0.0017 -0.363449,-0.01693 -0.519015,-0.04528 -0.378788,-0.06911 -0.591228,-0.19428 -0.636856,-0.376725 -0.04553,-0.182152 0.08632,-0.389136 0.397192,-0.621986 0.177428,-0.132981 0.369492,-0.240059 0.571105,-0.319221 0.211246,-0.07744 0.45139,-0.131641 0.724315,-0.16517 0.282758,-0.03182 0.597922,-0.0385 0.943971,-0.01796 0.355256,0.01379 0.770962,0.05146 1.24747,0.111505 z" /><path
       id="path248"
       style="fill:#000000;fill-opacity:0.117519;stroke:none;stroke-width:0.0978303;stroke-linecap:round;stroke-linejoin:round"
       d="m 12.620155,51.447428 v 9.727449 l 1.864428,-1.385776 1.864428,2.211837 v -9.727449 l -1.864428,-0.413031 z" /><path
       id="path246"
       style="fill:#ae3e3e;fill-opacity:1;stroke:none;stroke-width:0.0978303;stroke-linecap:round;stroke-linejoin:round"
       d="m 12.620155,51.447428 c 0,0 -2.345941,2.572478 -1.781435,8.897528 l 1.642472,-1.883729 2.088314,2.71365 c -0.565012,-6.326146 1.779505,-8.901388 1.779505,-8.901388 z" /><path
       id="path250"
       style="fill:#6f2828;fill-opacity:1;stroke:none;stroke-width:0.0978303;stroke-linecap:round;stroke-linejoin:round"
       d="m 12.620155,51.447428 c 0,0 -0.238749,0.262529 -0.546203,0.826061 l 3.728855,0.826061 c 0.307067,-0.563497 0.546204,-0.826061 0.546204,-0.826061 z" /></g></svg>
