<?xml version="1.0" encoding="UTF-8" standalone="no"?>
<!-- Created with Inkscape (http://www.inkscape.org/) -->

<svg
   width="128"
   height="128"
   viewBox="0 0 128 128"
   version="1.1"
   id="svg5"
   inkscape:version="1.4.3 (0d15f75042, 2025-12-25)"
   sodipodi:docname="com.github.KRTirtho.Spotube.svg"
   xml:space="preserve"
   xmlns:inkscape="http://www.inkscape.org/namespaces/inkscape"
   xmlns:sodipodi="http://sodipodi.sourceforge.net/DTD/sodipodi-0.dtd"
   xmlns:xlink="http://www.w3.org/1999/xlink"
   xmlns="http://www.w3.org/2000/svg"
   xmlns:svg="http://www.w3.org/2000/svg"><sodipodi:namedview
     id="namedview7"
     pagecolor="#ffffff"
     bordercolor="#666666"
     borderopacity="1"
     inkscape:pageshadow="2"
     inkscape:pageopacity="0.0"
     inkscape:pagecheckerboard="true"
     inkscape:document-units="px"
     showgrid="false"
     inkscape:showpageshadow="false"
     showborder="true"
     inkscape:snap-page="true"
     inkscape:zoom="3.2627628"
     inkscape:cx="63.289921"
     inkscape:cy="121.52278"
     inkscape:window-width="1728"
     inkscape:window-height="1043"
     inkscape:window-x="0"
     inkscape:window-y="0"
     inkscape:window-maximized="1"
     inkscape:current-layer="layer2"
     inkscape:deskcolor="#d1d1d1" /><defs
     id="defs2"><linearGradient
       id="linearGradient9"
       inkscape:collect="always"><stop
         style="stop-color:#62a9ff;stop-opacity:1;"
         offset="0"
         id="stop10" /><stop
         style="stop-color:#ef41de;stop-opacity:1;"
         offset="1"
         id="stop11" /></linearGradient><linearGradient
       id="linearGradient16"
       x1="49.9392"
       y1="0.257812"
       x2="49.9392"
       y2="99.7423"
       gradientUnits="userSpaceOnUse"
       gradientTransform="matrix(0.76242929,0,0,0.76242929,22.69079,21.878509)"><stop
         stop-color="white"
         id="stop15"
         offset="0"
         style="stop-color:#3b3b3b;stop-opacity:1;" /><stop
         offset="1"
         stop-color="white"
         stop-opacity="0"
         id="stop16" /></linearGradient><linearGradient
       id="linearGradient7"
       x1="49.9392"
       y1="0.257812"
       x2="49.9392"
       y2="99.7423"
       gradientUnits="userSpaceOnUse"
       gradientTransform="matrix(0.76242929,0,0,0.76242929,26.69079,21.878509)"><stop
         stop-color="white"
         id="stop6"
         offset="0"
         style="stop-color:#000000;stop-opacity:1;" /><stop
         offset="1"
         stop-color="white"
         stop-opacity="0"
         id="stop7"
         style="stop-color:#000000;stop-opacity:1;" /></linearGradient><linearGradient
       inkscape:collect="always"
       id="linearGradient404"><stop
         style="stop-color:#40add3;stop-opacity:1;"
         offset="0"
         id="stop400" /><stop
         style="stop-color:#0cbafd;stop-opacity:1;"
         offset="0.3290036"
         id="stop8" /><stop
         style="stop-color:#be2e9e;stop-opacity:1;"
         offset="0.65958107"
         id="stop9" /><stop
         style="stop-color:#fffaff;stop-opacity:1;"
         offset="1"
         id="stop402" /></linearGradient><linearGradient
       y2="236"
       x2="96"
       y1="236"
       x1="32"
       gradientTransform="translate(604.81684,170.58641)"
       gradientUnits="userSpaceOnUse"
       id="linearGradient1099"
       xlink:href="#linearGradient1036" /><linearGradient
       id="linearGradient1036"><stop
         id="stop1032"
         offset="0"
         style="stop-color:#d5d3cf;stop-opacity:1;" /><stop
         id="stop1034"
         offset="1"
         style="stop-color:#f6f5f4;stop-opacity:1" /></linearGradient><radialGradient
       r="32"
       fy="-76"
       fx="-244"
       cy="-76"
       cx="-244"
       gradientTransform="matrix(0.88333331,0,0,0.88333331,-460.35018,463.11973)"
       gradientUnits="userSpaceOnUse"
       id="radialGradient1103"
       xlink:href="#linearGradient1069" /><linearGradient
       id="linearGradient1069"><stop
         id="stop1065"
         offset="0"
         style="stop-color:#d5d3cf;stop-opacity:1" /><stop
         id="stop1067-1"
         offset="1"
         style="stop-color:#949390;stop-opacity:1" /></linearGradient><linearGradient
       gradientUnits="userSpaceOnUse"
       y2="232"
       x2="64"
       y1="262.5"
       x1="64"
       id="linearGradient1027"
       xlink:href="#linearGradient1025"
       gradientTransform="translate(-470.5864,432.81685)" /><linearGradient
       id="linearGradient1025"><stop
         id="stop1021"
         offset="0"
         style="stop-color:#9a9996;stop-opacity:1" /><stop
         id="stop1023"
         offset="1"
         style="stop-color:#77767b;stop-opacity:1" /></linearGradient><inkscape:path-effect
       effect="spiro"
       id="path-effect35304-9"
       is_visible="true" /><clipPath
       clipPathUnits="userSpaceOnUse"
       id="clipPath1609-7"><path
         sodipodi:nodetypes="cccccc"
         inkscape:connector-curvature="0"
         id="path1611-5"
         d="m 252,116 28,-28 v -8 h -36 v 36 z"
         style="fill:#e74747;stroke:none;stroke-width:0.25px;stroke-linecap:butt;stroke-linejoin:miter;stroke-opacity:1" /></clipPath><radialGradient
       r="32"
       fy="-76"
       fx="-244"
       cy="-76"
       cx="-244"
       gradientTransform="matrix(0.88333331,0,0,0.88333331,-460.35018,463.11973)"
       gradientUnits="userSpaceOnUse"
       id="radialGradient1103-5"
       xlink:href="#linearGradient1069" /><inkscape:path-effect
       effect="spiro"
       id="path-effect35304-9-2"
       is_visible="true" /><clipPath
       clipPathUnits="userSpaceOnUse"
       id="clipPath1609-7-7"><path
         sodipodi:nodetypes="cccccc"
         inkscape:connector-curvature="0"
         id="path1611-5-0"
         d="m 252,116 28,-28 v -8 h -36 v 36 z"
         style="fill:#e74747;stroke:none;stroke-width:0.25px;stroke-linecap:butt;stroke-linejoin:miter;stroke-opacity:1" /></clipPath><clipPath
       clipPathUnits="userSpaceOnUse"
       id="clipPath744"><rect
         style="fill:#1e88e5;fill-opacity:1;stroke-width:0.264583"
         id="rect746"
         width="541.86664"
         height="541.86664"
         x="0"
         y="1.5987212e-14"
         rx="79.375"
         ry="79.375" /></clipPath><clipPath
       clipPathUnits="userSpaceOnUse"
       id="clipPath62"><rect
         style="fill:#1e88e5;fill-opacity:1;stroke-width:0.264583"
         id="rect64"
         width="541.86664"
         height="541.86664"
         x="2.2507105e-05"
         y="-0.42205024"
         rx="79.375"
         ry="79.375" /></clipPath><radialGradient
       r="32"
       fy="-76"
       fx="-244"
       cy="-76"
       cx="-244"
       gradientTransform="matrix(0.88333331,0,0,0.88333331,-460.35018,463.11973)"
       gradientUnits="userSpaceOnUse"
       id="radialGradient1103-6"
       xlink:href="#linearGradient1069" /><inkscape:path-effect
       effect="spiro"
       id="path-effect35304-9-20"
       is_visible="true" /><clipPath
       clipPathUnits="userSpaceOnUse"
       id="clipPath1609-7-2"><path
         sodipodi:nodetypes="cccccc"
         inkscape:connector-curvature="0"
         id="path1611-5-3"
         d="m 252,116 28,-28 v -8 h -36 v 36 z"
         style="fill:#e74747;stroke:none;stroke-width:0.25px;stroke-linecap:butt;stroke-linejoin:miter;stroke-opacity:1" /></clipPath><radialGradient
       r="32"
       fy="-76"
       fx="-244"
       cy="-76"
       cx="-244"
       gradientTransform="matrix(0.88333331,0,0,0.88333331,-460.35018,463.11973)"
       gradientUnits="userSpaceOnUse"
       id="radialGradient1103-56"
       xlink:href="#linearGradient1069" /><inkscape:path-effect
       effect="spiro"
       id="path-effect35304-9-7"
       is_visible="true" /><clipPath
       clipPathUnits="userSpaceOnUse"
       id="clipPath1609-7-0"><path
         sodipodi:nodetypes="cccccc"
         inkscape:connector-curvature="0"
         id="path1611-5-9"
         d="m 252,116 28,-28 v -8 h -36 v 36 z"
         style="fill:#e74747;stroke:none;stroke-width:0.25px;stroke-linecap:butt;stroke-linejoin:miter;stroke-opacity:1" /></clipPath><clipPath
       clipPathUnits="userSpaceOnUse"
       id="clipPath37"><rect
         style="fill:#1a1a1a;fill-opacity:1;stroke-width:0.264583"
         id="rect39"
         width="541.86664"
         height="541.86664"
         x="-2.6626146e-06"
         y="3.2408705"
         rx="79.375"
         ry="79.375" /></clipPath><clipPath
       clipPathUnits="userSpaceOnUse"
       id="clipPath22042"><rect
         style="fill:#333333;fill-opacity:1;stroke-width:0.0133797"
         id="rect22044"
         width="27.31955"
         height="27.483929"
         x="166.96844"
         y="105.40438"
         rx="4.0018873"
         ry="4.0259666" /></clipPath><clipPath
       clipPathUnits="userSpaceOnUse"
       id="clipPath1039"><rect
         style="fill:#b3b3b3;fill-opacity:1;stroke-width:0.264583"
         id="rect1041"
         width="541.8667"
         height="541.86682"
         x="2.5931527e-05"
         y="-0.00010962487"
         rx="79.375008"
         ry="79.375031" /></clipPath><clipPath
       clipPathUnits="userSpaceOnUse"
       id="clipPath154"><rect
         style="fill:#b3b3b3;fill-opacity:1;stroke-width:0.264583"
         id="rect156"
         width="541.8667"
         height="541.86682"
         x="-2.9218751e-05"
         y="-0.00016368683"
         rx="79.375008"
         ry="79.375031" /></clipPath><linearGradient
       inkscape:collect="always"
       xlink:href="#linearGradient404"
       id="linearGradient406"
       x1="13.622333"
       y1="110.37766"
       x2="116.5"
       y2="7.5"
       gradientUnits="userSpaceOnUse" /><linearGradient
       id="paint0_linear"
       x1="49.9392"
       y1="0.257812"
       x2="49.9392"
       y2="99.7423"
       gradientUnits="userSpaceOnUse"
       gradientTransform="matrix(0.76242929,0,0,0.76242929,22.69079,21.878509)"><stop
         stop-color="white"
         id="stop585" /><stop
         offset="1"
         stop-color="white"
         stop-opacity="0"
         id="stop587" /></linearGradient><filter
       style="color-interpolation-filters:sRGB;"
       inkscape:label="Drop Shadow"
       id="filter47"
       x="-0.031459186"
       y="-0.031641392"
       width="1.0629184"
       height="1.0896506"><feFlood
         result="flood"
         in="SourceGraphic"
         flood-opacity="0.254902"
         flood-color="rgb(0,0,0)"
         id="feFlood46" /><feGaussianBlur
         result="blur"
         in="SourceGraphic"
         stdDeviation="1.000000"
         id="feGaussianBlur46" /><feOffset
         result="offset"
         in="blur"
         dx="0.000000"
         dy="2.000000"
         id="feOffset46" /><feComposite
         result="comp1"
         operator="in"
         in="flood"
         in2="offset"
         id="feComposite46" /><feComposite
         result="comp2"
         operator="over"
         in="SourceGraphic"
         in2="comp1"
         id="feComposite47" /></filter><radialGradient
       r="32"
       fy="-76"
       fx="-244"
       cy="-76"
       cx="-244"
       gradientTransform="matrix(0.88333331,0,0,0.88333331,-460.35018,463.11973)"
       gradientUnits="userSpaceOnUse"
       id="radialGradient1103-9"
       xlink:href="#linearGradient1069" /><inkscape:path-effect
       effect="spiro"
       id="path-effect35304-9-9"
       is_visible="true" /><clipPath
       clipPathUnits="userSpaceOnUse"
       id="clipPath1609-7-3"><path
         sodipodi:nodetypes="cccccc"
         inkscape:connector-curvature="0"
         id="path1611-5-6"
         d="m 252,116 28,-28 v -8 h -36 v 36 z"
         style="fill:#e74747;stroke:none;stroke-width:0.25px;stroke-linecap:butt;stroke-linejoin:miter;stroke-opacity:1" /></clipPath><linearGradient
       inkscape:collect="always"
       id="linearGradient8241-0"><stop
         style="stop-color:#36819d;stop-opacity:1;"
         offset="0"
         id="stop8237-6" /><stop
         style="stop-color:#3196bb;stop-opacity:1;"
         offset="0.05"
         id="stop9349-2" /><stop
         style="stop-color:#2a6e89;stop-opacity:1;"
         offset="0.1"
         id="stop21746-6" /><stop
         style="stop-color:#2f3f69;stop-opacity:1;"
         offset="0.89999998"
         id="stop21940-1" /><stop
         style="stop-color:#664da7;stop-opacity:1;"
         offset="0.94999999"
         id="stop9351-8" /><stop
         style="stop-color:#7a3b90;stop-opacity:1;"
         offset="1"
         id="stop8239-7" /></linearGradient><radialGradient
       r="32"
       fy="-76"
       fx="-244"
       cy="-76"
       cx="-244"
       gradientTransform="matrix(0.88333331,0,0,0.88333331,-460.35018,463.11973)"
       gradientUnits="userSpaceOnUse"
       id="radialGradient1103-5-9"
       xlink:href="#linearGradient1069" /><inkscape:path-effect
       effect="spiro"
       id="path-effect35304-9-2-2"
       is_visible="true" /><clipPath
       clipPathUnits="userSpaceOnUse"
       id="clipPath1609-7-7-0"><path
         sodipodi:nodetypes="cccccc"
         inkscape:connector-curvature="0"
         id="path1611-5-0-2"
         d="m 252,116 28,-28 v -8 h -36 v 36 z"
         style="fill:#e74747;stroke:none;stroke-width:0.25px;stroke-linecap:butt;stroke-linejoin:miter;stroke-opacity:1" /></clipPath><clipPath
       clipPathUnits="userSpaceOnUse"
       id="clipPath744-3"><rect
         style="fill:#1e88e5;fill-opacity:1;stroke-width:0.264583"
         id="rect746-7"
         width="541.86664"
         height="541.86664"
         x="0"
         y="1.5987212e-14"
         rx="79.375"
         ry="79.375" /></clipPath><clipPath
       clipPathUnits="userSpaceOnUse"
       id="clipPath62-5"><rect
         style="fill:#1e88e5;fill-opacity:1;stroke-width:0.264583"
         id="rect64-9"
         width="541.86664"
         height="541.86664"
         x="2.2507105e-05"
         y="-0.42205024"
         rx="79.375"
         ry="79.375" /></clipPath><linearGradient
       inkscape:collect="always"
       xlink:href="#linearGradient8241-0"
       id="linearGradient8243-0"
       x1="11.5"
       y1="120.5"
       x2="116.5"
       y2="120.5"
       gradientUnits="userSpaceOnUse"
       gradientTransform="translate(-5.1820374e-6)" /><radialGradient
       r="32"
       fy="-76"
       fx="-244"
       cy="-76"
       cx="-244"
       gradientTransform="matrix(0.88333331,0,0,0.88333331,-460.35018,463.11973)"
       gradientUnits="userSpaceOnUse"
       id="radialGradient1103-6-2"
       xlink:href="#linearGradient1069" /><inkscape:path-effect
       effect="spiro"
       id="path-effect35304-9-20-2"
       is_visible="true" /><clipPath
       clipPathUnits="userSpaceOnUse"
       id="clipPath1609-7-2-8"><path
         sodipodi:nodetypes="cccccc"
         inkscape:connector-curvature="0"
         id="path1611-5-3-9"
         d="m 252,116 28,-28 v -8 h -36 v 36 z"
         style="fill:#e74747;stroke:none;stroke-width:0.25px;stroke-linecap:butt;stroke-linejoin:miter;stroke-opacity:1" /></clipPath><radialGradient
       r="32"
       fy="-76"
       fx="-244"
       cy="-76"
       cx="-244"
       gradientTransform="matrix(0.88333331,0,0,0.88333331,-460.35018,463.11973)"
       gradientUnits="userSpaceOnUse"
       id="radialGradient1103-56-7"
       xlink:href="#linearGradient1069" /><inkscape:path-effect
       effect="spiro"
       id="path-effect35304-9-7-3"
       is_visible="true" /><clipPath
       clipPathUnits="userSpaceOnUse"
       id="clipPath1609-7-0-6"><path
         sodipodi:nodetypes="cccccc"
         inkscape:connector-curvature="0"
         id="path1611-5-9-1"
         d="m 252,116 28,-28 v -8 h -36 v 36 z"
         style="fill:#e74747;stroke:none;stroke-width:0.25px;stroke-linecap:butt;stroke-linejoin:miter;stroke-opacity:1" /></clipPath><clipPath
       clipPathUnits="userSpaceOnUse"
       id="clipPath37-2"><rect
         style="fill:#1a1a1a;fill-opacity:1;stroke-width:0.264583"
         id="rect39-9"
         width="541.86664"
         height="541.86664"
         x="-2.6626146e-06"
         y="3.2408705"
         rx="79.375"
         ry="79.375" /></clipPath><clipPath
       clipPathUnits="userSpaceOnUse"
       id="clipPath22042-3"><rect
         style="fill:#333333;fill-opacity:1;stroke-width:0.0133797"
         id="rect22044-1"
         width="27.31955"
         height="27.483929"
         x="166.96844"
         y="105.40438"
         rx="4.0018873"
         ry="4.0259666" /></clipPath><clipPath
       clipPathUnits="userSpaceOnUse"
       id="clipPath1039-9"><rect
         style="fill:#b3b3b3;fill-opacity:1;stroke-width:0.264583"
         id="rect1041-4"
         width="541.8667"
         height="541.86682"
         x="2.5931527e-05"
         y="-0.00010962487"
         rx="79.375008"
         ry="79.375031" /></clipPath><clipPath
       clipPathUnits="userSpaceOnUse"
       id="clipPath154-7"><rect
         style="fill:#b3b3b3;fill-opacity:1;stroke-width:0.264583"
         id="rect156-8"
         width="541.8667"
         height="541.86682"
         x="-2.9218751e-05"
         y="-0.00016368683"
         rx="79.375008"
         ry="79.375031" /></clipPath><clipPath
       id="clip0_1957_1318"><rect
         width="96"
         height="96"
         fill="white"
         id="rect1" /></clipPath><filter
       style="color-interpolation-filters:sRGB;"
       inkscape:label="Drop Shadow"
       id="filter25"
       x="-0.0625"
       y="-0.0625"
       width="1.125"
       height="1.1666667"><feFlood
         result="flood"
         in="SourceGraphic"
         flood-opacity="0.698039"
         flood-color="rgb(0,0,0)"
         id="feFlood24" /><feGaussianBlur
         result="blur"
         in="SourceGraphic"
         stdDeviation="2.500000"
         id="feGaussianBlur24" /><feOffset
         result="offset"
         in="blur"
         dx="0.000000"
         dy="4.000000"
         id="feOffset24" /><feComposite
         result="comp1"
         operator="in"
         in="flood"
         in2="offset"
         id="feComposite24" /><feComposite
         result="comp2"
         operator="over"
         in="SourceGraphic"
         in2="comp1"
         id="feComposite25" /></filter><filter
       inkscape:collect="always"
       style="color-interpolation-filters:sRGB"
       id="filter6"
       x="-0.20689783"
       y="-0.37710276"
       width="1.4137957"
       height="1.7542055"><feGaussianBlur
         inkscape:collect="always"
         stdDeviation="7.0190015"
         id="feGaussianBlur6" /></filter><filter
       inkscape:collect="always"
       style="color-interpolation-filters:sRGB"
       id="filter7"
       x="-0.32749183"
       y="-0.1654102"
       width="1.6549837"
       height="1.3308204"><feGaussianBlur
         inkscape:collect="always"
         stdDeviation="4.8473483"
         id="feGaussianBlur7" /></filter><linearGradient
       inkscape:collect="always"
       xlink:href="#linearGradient9"
       id="linearGradient11"
       x1="28.043153"
       y1="58.000585"
       x2="99.956847"
       y2="58.000585"
       gradientUnits="userSpaceOnUse" /></defs><g
     inkscape:groupmode="layer"
     id="layer2"
     inkscape:label="Layer 1"><rect
       style="fill:url(#linearGradient8243-0);fill-opacity:1"
       id="rect440-5"
       width="105"
       height="105"
       x="11.499998"
       y="15.500004"
       rx="13"
       ry="13" /><rect
       style="fill:url(#linearGradient406);fill-opacity:1;stroke:#ffffff;stroke-opacity:1;stroke-width:0.2;stroke-dasharray:none"
       id="rect358"
       width="105"
       height="105"
       x="11.5"
       y="7.5"
       rx="13"
       ry="13" /><rect
       style="fill:#080808;fill-opacity:1;stroke-width:0.959575"
       id="rect338"
       width="100.75533"
       height="100.75533"
       x="13.622333"
       y="9.6223326"
       rx="12"
       ry="12" /><path
       id="path1"
       style="mix-blend-mode:normal;fill:#0cbbff;fill-opacity:1;stroke-width:3.947;filter:url(#filter7)"
       d="M 56.988281,25.191406 A 35.523035,35.523035 0 0 0 55.5,25.578125 35.523035,35.523035 0 0 1 56.988281,25.191406 Z m -4.480469,1.22461 a 35.523035,35.523035 0 0 0 -1.675781,0.666015 35.523035,35.523035 0 0 1 1.675781,-0.666015 z m -4.283203,1.798828 a 35.523035,35.523035 0 0 0 -1.667968,0.916015 35.523035,35.523035 0 0 1 1.667968,-0.916015 z m -4.007812,2.33789 a 35.523035,35.523035 0 0 0 -1.589844,1.148438 35.523035,35.523035 0 0 1 1.589844,-1.148438 z M 64,32.371094 A 27.629027,27.629027 0 0 0 60.447266,32.603516 27.629027,27.629027 0 0 1 64,32.371094 Z m -4.708984,0.455078 a 27.629027,27.629027 0 0 0 -2.337891,0.466797 27.629027,27.629027 0 0 1 2.337891,-0.466797 z m -18.757813,0.578125 a 35.523035,35.523035 0 0 0 -1.445312,1.347656 35.523035,35.523035 0 0 1 1.445312,-1.347656 z m 15.125,0.3125 a 27.629027,27.629027 0 0 0 -2.089844,0.708984 27.629027,27.629027 0 0 1 2.089844,-0.708984 z m -3.396484,1.332031 a 27.629027,27.629027 0 0 0 -1.888672,0.931641 27.629027,27.629027 0 0 1 1.888672,-0.931641 z M 38.267578,35.630859 A 35.523035,35.523035 0 0 0 28.476562,60 v 23.681641 c 2e-6,3.907534 0.07974,5.92079 0.869141,7.539062 a 7.8940078,7.8940078 0 0 0 3.472656,3.433594 c 1.657742,0.868341 3.868419,0.86914 8.289063,0.869141 h 3.472656 c 2.644492,0 3.987858,-5.61e-4 4.97461,-0.513672 0.907809,-0.47364 1.618155,-1.183986 2.091796,-2.091797 0.51311,-1.026221 0.511719,-2.328163 0.511719,-4.972657 V 71.525391 c 0,-2.644492 0.0014,-3.985906 -0.511719,-4.972657 -0.473641,-0.907811 -1.183987,-1.618155 -2.091796,-2.091796 -1.026221,-0.51311 -2.330118,-0.513672 -4.97461,-0.513672 H 36.371094 V 60 a 27.629027,27.629027 0 0 1 7.216797,-18.539062 27.629027,27.629027 0 0 0 -1.041016,1.126953 z m 10.785156,1.199219 a 27.629027,27.629027 0 0 0 -1.65039,1.101563 27.629027,27.629027 0 0 1 1.65039,-1.101563 z m -2.908203,2.158203 a 27.629027,27.629027 0 0 0 -1.4375,1.261719 27.629027,27.629027 0 0 1 1.4375,-1.261719 z"
       transform="matrix(1.0759173,0,0,1.0759173,-5.9177749,-8.365866)" /><path
       id="rect2"
       style="opacity:1;mix-blend-mode:normal;fill:#ff4cd7;fill-opacity:1;stroke-width:2;stroke-linecap:round;stroke-linejoin:round;filter:url(#filter6)"
       d="m 53.184466,-39.575977 a 35.523035,35.523035 0 0 0 -2.869931,25.653601 l 8.252872,3.11e-4 a 27.629027,27.629027 0 0 1 2.539537,-23.625627 27.629027,27.629027 0 0 1 38.009564,-9.054607 l 3.361962,2.068358 -4.301485,6.991754 c -1.385708,2.252367 -2.08915,3.396833 -2.169179,4.506136 -0.07228,1.021386 0.160514,1.998622 0.685529,2.877721 0.605184,0.974764 1.714804,1.655794 3.967165,3.041501 l 13.98518,8.603999 c 2.25236,1.385708 3.39414,2.089789 4.50345,2.169819 a 4.7364047,4.7364047 0 0 0 2.87772,-0.685529 c 0.97476,-0.605184 1.65848,-1.715443 3.04418,-3.96781 l 1.81967,-2.95773 c 2.31641,-3.765151 3.4739,-5.648099 3.62365,-7.548656 a 7.8940078,7.8940078 0 0 0 -1.15853,-4.744123 c -0.91037,-1.533255 -2.60435,-2.622708 -5.93248,-4.670246 l -20.17012,-12.409122 a 35.523035,35.523035 0 0 0 -50.068754,13.75025 z"
       transform="matrix(0.57849122,0.94029527,-0.94029527,0.57849122,-8.1065176,-9.980621)" /><path
       id="path6"
       style="fill:#ffffff;fill-opacity:1;stroke-width:2;stroke-dasharray:none;stroke:url(#linearGradient11)"
       d="m 61.5466,24.506482 a 35.956439,33.572543 0 0 0 -33.503447,33.49355 v 22.381334 c 1e-6,3.69298 0.08071,5.595692 0.879746,7.125108 a 7.9903197,7.4605651 0 0 0 3.515025,3.245063 c 1.677967,0.820663 3.915615,0.821419 8.390194,0.821419 h 3.515024 c 2.676757,0 4.036514,-5.3e-4 5.035305,-0.485468 0.918884,-0.447633 1.637896,-1.118976 2.117317,-1.976941 0.51937,-0.969873 0.517961,-2.200329 0.517961,-4.699619 V 68.892589 c 0,-2.499289 0.0014,-3.767049 -0.517961,-4.699619 -0.479421,-0.857965 -1.198433,-1.529306 -2.117317,-1.97694 -1.038743,-0.484937 -2.358548,-0.485468 -5.035305,-0.485468 h -8.309138 v -3.73053 A 27.966118,26.111977 0 0 1 64,31.888169 27.966118,26.111977 0 0 1 91.965996,58.000032 v 3.73053 h -8.309138 c -2.676758,0 -4.036514,5.31e-4 -5.035305,0.485468 -0.918885,0.447633 -1.637897,1.118975 -2.117317,1.97694 -0.51937,0.969873 -0.517961,2.20033 -0.517961,4.699619 v 15.518339 c 0,2.49929 -0.0014,3.767049 0.517961,4.699619 a 4.7941919,4.4763391 0 0 0 2.117317,1.976941 c 1.038744,0.484938 2.358547,0.485468 5.035305,0.485468 h 3.515024 c 4.47458,0 6.711815,-7.56e-4 8.429733,-0.821419 a 7.9903197,7.4605651 0 0 0 3.475486,-3.28198 c 0.838984,-1.492113 0.879746,-3.395211 0.879746,-7.088191 V 58.000032 A 35.956439,33.572543 0 0 0 61.5466,24.506482 Z" /></g></svg>
