<?xml version="1.0" encoding="UTF-8" standalone="no"?>
<!-- Created with Inkscape (http://www.inkscape.org/) -->

<svg
   width="128"
   height="128"
   viewBox="0 0 128 128"
   version="1.1"
   id="svg5"
   inkscape:version="1.4.3 (0d15f75042, 2025-12-25)"
   sodipodi:docname="io.dbeaver.DBeaverCommunity.svg"
   xml:space="preserve"
   xmlns:inkscape="http://www.inkscape.org/namespaces/inkscape"
   xmlns:sodipodi="http://sodipodi.sourceforge.net/DTD/sodipodi-0.dtd"
   xmlns:xlink="http://www.w3.org/1999/xlink"
   xmlns="http://www.w3.org/2000/svg"
   xmlns:svg="http://www.w3.org/2000/svg"><sodipodi:namedview
     id="namedview7"
     pagecolor="#ffffff"
     bordercolor="#666666"
     borderopacity="1"
     inkscape:pageshadow="2"
     inkscape:pageopacity="0.0"
     inkscape:pagecheckerboard="true"
     inkscape:document-units="px"
     showgrid="false"
     inkscape:showpageshadow="false"
     showborder="true"
     inkscape:snap-page="true"
     inkscape:zoom="1.7217716"
     inkscape:cx="148.10326"
     inkscape:cy="77.826813"
     inkscape:window-width="1728"
     inkscape:window-height="1043"
     inkscape:window-x="0"
     inkscape:window-y="0"
     inkscape:window-maximized="1"
     inkscape:current-layer="layer2"
     inkscape:deskcolor="#d1d1d1" /><defs
     id="defs2"><linearGradient
       inkscape:collect="always"
       id="linearGradient404"><stop
         style="stop-color:#e5dacf;stop-opacity:1;"
         offset="0"
         id="stop400" /><stop
         style="stop-color:#ffffff;stop-opacity:1;"
         offset="1"
         id="stop402" /></linearGradient><linearGradient
       y2="236"
       x2="96"
       y1="236"
       x1="32"
       gradientTransform="translate(604.81684,170.58641)"
       gradientUnits="userSpaceOnUse"
       id="linearGradient1099"
       xlink:href="#linearGradient1036" /><linearGradient
       id="linearGradient1036"><stop
         id="stop1032"
         offset="0"
         style="stop-color:#d5d3cf;stop-opacity:1;" /><stop
         id="stop1034"
         offset="1"
         style="stop-color:#f6f5f4;stop-opacity:1" /></linearGradient><radialGradient
       r="32"
       fy="-76"
       fx="-244"
       cy="-76"
       cx="-244"
       gradientTransform="matrix(0.88333331,0,0,0.88333331,-460.35018,463.11973)"
       gradientUnits="userSpaceOnUse"
       id="radialGradient1103"
       xlink:href="#linearGradient1069" /><linearGradient
       id="linearGradient1069"><stop
         id="stop1065"
         offset="0"
         style="stop-color:#d5d3cf;stop-opacity:1" /><stop
         id="stop1067-1"
         offset="1"
         style="stop-color:#949390;stop-opacity:1" /></linearGradient><linearGradient
       gradientUnits="userSpaceOnUse"
       y2="232"
       x2="64"
       y1="262.5"
       x1="64"
       id="linearGradient1027"
       xlink:href="#linearGradient1025"
       gradientTransform="translate(-470.5864,432.81685)" /><linearGradient
       id="linearGradient1025"><stop
         id="stop1021"
         offset="0"
         style="stop-color:#9a9996;stop-opacity:1" /><stop
         id="stop1023"
         offset="1"
         style="stop-color:#77767b;stop-opacity:1" /></linearGradient><inkscape:path-effect
       effect="spiro"
       id="path-effect35304-9"
       is_visible="true" /><clipPath
       clipPathUnits="userSpaceOnUse"
       id="clipPath1609-7"><path
         sodipodi:nodetypes="cccccc"
         inkscape:connector-curvature="0"
         id="path1611-5"
         d="m 252,116 28,-28 v -8 h -36 v 36 z"
         style="fill:#e74747;stroke:none;stroke-width:0.25px;stroke-linecap:butt;stroke-linejoin:miter;stroke-opacity:1" /></clipPath><linearGradient
       inkscape:collect="always"
       id="linearGradient8241"><stop
         style="stop-color:#887363;stop-opacity:1;"
         offset="0"
         id="stop8237" /><stop
         style="stop-color:#a18d7e;stop-opacity:1;"
         offset="0.05"
         id="stop9349" /><stop
         style="stop-color:#887363;stop-opacity:1;"
         offset="0.1"
         id="stop21746" /><stop
         style="stop-color:#887363;stop-opacity:1;"
         offset="0.89999998"
         id="stop21940" /><stop
         style="stop-color:#a18d7e;stop-opacity:1;"
         offset="0.94999999"
         id="stop9351" /><stop
         style="stop-color:#887363;stop-opacity:1;"
         offset="1"
         id="stop8239" /></linearGradient><radialGradient
       r="32"
       fy="-76"
       fx="-244"
       cy="-76"
       cx="-244"
       gradientTransform="matrix(0.88333331,0,0,0.88333331,-460.35018,463.11973)"
       gradientUnits="userSpaceOnUse"
       id="radialGradient1103-5"
       xlink:href="#linearGradient1069" /><inkscape:path-effect
       effect="spiro"
       id="path-effect35304-9-2"
       is_visible="true" /><clipPath
       clipPathUnits="userSpaceOnUse"
       id="clipPath1609-7-7"><path
         sodipodi:nodetypes="cccccc"
         inkscape:connector-curvature="0"
         id="path1611-5-0"
         d="m 252,116 28,-28 v -8 h -36 v 36 z"
         style="fill:#e74747;stroke:none;stroke-width:0.25px;stroke-linecap:butt;stroke-linejoin:miter;stroke-opacity:1" /></clipPath><clipPath
       clipPathUnits="userSpaceOnUse"
       id="clipPath744"><rect
         style="fill:#1e88e5;fill-opacity:1;stroke-width:0.264583"
         id="rect746"
         width="541.86664"
         height="541.86664"
         x="0"
         y="1.5987212e-14"
         rx="79.375"
         ry="79.375" /></clipPath><clipPath
       clipPathUnits="userSpaceOnUse"
       id="clipPath62"><rect
         style="fill:#1e88e5;fill-opacity:1;stroke-width:0.264583"
         id="rect64"
         width="541.86664"
         height="541.86664"
         x="2.2507105e-05"
         y="-0.42205024"
         rx="79.375"
         ry="79.375" /></clipPath><linearGradient
       inkscape:collect="always"
       xlink:href="#linearGradient8241"
       id="linearGradient8243"
       x1="11.5"
       y1="120.5"
       x2="116.5"
       y2="120.5"
       gradientUnits="userSpaceOnUse" /><radialGradient
       r="32"
       fy="-76"
       fx="-244"
       cy="-76"
       cx="-244"
       gradientTransform="matrix(0.88333331,0,0,0.88333331,-460.35018,463.11973)"
       gradientUnits="userSpaceOnUse"
       id="radialGradient1103-6"
       xlink:href="#linearGradient1069" /><inkscape:path-effect
       effect="spiro"
       id="path-effect35304-9-20"
       is_visible="true" /><clipPath
       clipPathUnits="userSpaceOnUse"
       id="clipPath1609-7-2"><path
         sodipodi:nodetypes="cccccc"
         inkscape:connector-curvature="0"
         id="path1611-5-3"
         d="m 252,116 28,-28 v -8 h -36 v 36 z"
         style="fill:#e74747;stroke:none;stroke-width:0.25px;stroke-linecap:butt;stroke-linejoin:miter;stroke-opacity:1" /></clipPath><radialGradient
       r="32"
       fy="-76"
       fx="-244"
       cy="-76"
       cx="-244"
       gradientTransform="matrix(0.88333331,0,0,0.88333331,-460.35018,463.11973)"
       gradientUnits="userSpaceOnUse"
       id="radialGradient1103-56"
       xlink:href="#linearGradient1069" /><inkscape:path-effect
       effect="spiro"
       id="path-effect35304-9-7"
       is_visible="true" /><clipPath
       clipPathUnits="userSpaceOnUse"
       id="clipPath1609-7-0"><path
         sodipodi:nodetypes="cccccc"
         inkscape:connector-curvature="0"
         id="path1611-5-9"
         d="m 252,116 28,-28 v -8 h -36 v 36 z"
         style="fill:#e74747;stroke:none;stroke-width:0.25px;stroke-linecap:butt;stroke-linejoin:miter;stroke-opacity:1" /></clipPath><clipPath
       clipPathUnits="userSpaceOnUse"
       id="clipPath37"><rect
         style="fill:#1a1a1a;fill-opacity:1;stroke-width:0.264583"
         id="rect39"
         width="541.86664"
         height="541.86664"
         x="-2.6626146e-06"
         y="3.2408705"
         rx="79.375"
         ry="79.375" /></clipPath><clipPath
       clipPathUnits="userSpaceOnUse"
       id="clipPath22042"><rect
         style="fill:#333333;fill-opacity:1;stroke-width:0.0133797"
         id="rect22044"
         width="27.31955"
         height="27.483929"
         x="166.96844"
         y="105.40438"
         rx="4.0018873"
         ry="4.0259666" /></clipPath><clipPath
       clipPathUnits="userSpaceOnUse"
       id="clipPath1039"><rect
         style="fill:#b3b3b3;fill-opacity:1;stroke-width:0.264583"
         id="rect1041"
         width="541.8667"
         height="541.86682"
         x="2.5931527e-05"
         y="-0.00010962487"
         rx="79.375008"
         ry="79.375031" /></clipPath><clipPath
       clipPathUnits="userSpaceOnUse"
       id="clipPath154"><rect
         style="fill:#b3b3b3;fill-opacity:1;stroke-width:0.264583"
         id="rect156"
         width="541.8667"
         height="541.86682"
         x="-2.9218751e-05"
         y="-0.00016368683"
         rx="79.375008"
         ry="79.375031" /></clipPath><linearGradient
       inkscape:collect="always"
       xlink:href="#linearGradient404"
       id="linearGradient406"
       x1="64"
       y1="112.5"
       x2="64"
       y2="7.5"
       gradientUnits="userSpaceOnUse" /><filter
       style="color-interpolation-filters:sRGB"
       inkscape:label="Drop Shadow"
       id="filter11925"
       x="-0.055653371"
       y="-0.075096314"
       width="1.1003193"
       height="1.2188798"><feFlood
         flood-opacity="0.34902"
         flood-color="rgb(0,0,0)"
         result="flood"
         id="feFlood11915" /><feComposite
         in="flood"
         in2="SourceGraphic"
         operator="in"
         result="composite1"
         id="feComposite11917" /><feGaussianBlur
         in="composite1"
         stdDeviation="1.5"
         result="blur"
         id="feGaussianBlur11919" /><feOffset
         dx="2.77556e-17"
         dy="4.98702"
         result="offset"
         id="feOffset11921" /><feComposite
         in="SourceGraphic"
         in2="offset"
         operator="over"
         result="composite2"
         id="feComposite11923" /></filter><linearGradient
       x1="14.96875"
       y1="19.110678"
       x2="39.524544"
       y2="46.98568"
       id="linearGradient8530"
       xlink:href="#linearGradient10150"
       gradientUnits="userSpaceOnUse"
       gradientTransform="matrix(2.4319976,0,0,2.4319976,9.3729159,2.9207641)" /><linearGradient
       id="linearGradient10150"><stop
         style="stop-color:#615a48;stop-opacity:1;"
         offset="0"
         id="stop10146" /><stop
         style="stop-color:white;stop-opacity:0"
         offset="1"
         id="stop10148" /></linearGradient><filter
       style="color-interpolation-filters:sRGB;"
       inkscape:label="Drop Shadow"
       id="filter2490"
       x="-0.010724955"
       y="-0.029450083"
       width="1.0214499"
       height="1.105055"><feFlood
         flood-opacity="0.447059"
         flood-color="rgb(0,0,0)"
         result="flood"
         id="feFlood2480" /><feComposite
         in="flood"
         in2="SourceGraphic"
         operator="in"
         result="composite1"
         id="feComposite2482" /><feGaussianBlur
         in="composite1"
         stdDeviation="0.5"
         result="blur"
         id="feGaussianBlur2484" /><feOffset
         dx="2.77556e-17"
         dy="5"
         result="offset"
         id="feOffset2486" /><feComposite
         in="SourceGraphic"
         in2="offset"
         operator="over"
         result="composite2"
         id="feComposite2488" /></filter><filter
       style="color-interpolation-filters:sRGB;"
       inkscape:label="Drop Shadow"
       id="filter58"
       x="-0.38273"
       y="-0.32763633"
       width="1.76546"
       height="1.9283029"><feFlood
         result="flood"
         in="SourceGraphic"
         flood-opacity="0.505882"
         flood-color="rgb(93,28,28)"
         id="feFlood57" /><feGaussianBlur
         result="blur"
         in="SourceGraphic"
         stdDeviation="2.000000"
         id="feGaussianBlur57" /><feOffset
         result="offset"
         in="blur"
         dx="0.000000"
         dy="4.000000"
         id="feOffset57" /><feComposite
         result="comp1"
         operator="in"
         in="offset"
         in2="flood"
         id="feComposite57" /><feComposite
         result="comp2"
         operator="over"
         in="SourceGraphic"
         in2="comp1"
         id="feComposite58" /></filter><filter
       style="color-interpolation-filters:sRGB;"
       inkscape:label="Drop Shadow"
       id="filter60"
       x="-0.057710031"
       y="-0.067771436"
       width="1.1154201"
       height="1.2739224"><feFlood
         result="flood"
         in="SourceGraphic"
         flood-opacity="0.505882"
         flood-color="rgb(93,28,28)"
         id="feFlood58" /><feGaussianBlur
         result="blur"
         in="SourceGraphic"
         stdDeviation="2.000000"
         id="feGaussianBlur58" /><feOffset
         result="offset"
         in="blur"
         dx="0.000000"
         dy="4.000000"
         id="feOffset58" /><feComposite
         result="comp1"
         operator="in"
         in="offset"
         in2="flood"
         id="feComposite59" /><feComposite
         result="comp2"
         operator="over"
         in="SourceGraphic"
         in2="comp1"
         id="feComposite60" /></filter></defs><g
     inkscape:groupmode="layer"
     id="layer2"
     inkscape:label="Layer 1"><rect
       style="fill:url(#linearGradient8243);fill-opacity:1"
       id="rect440"
       width="105"
       height="105"
       x="11.5"
       y="15.5"
       rx="13"
       ry="13" /><rect
       style="fill:url(#linearGradient406);fill-opacity:1"
       id="rect358"
       width="105"
       height="105"
       x="11.5"
       y="7.5"
       rx="13"
       ry="13" /><rect
       style="fill:#d5c6b6;fill-opacity:1;stroke-width:0.959575"
       id="rect338"
       width="100.75533"
       height="100.75533"
       x="13.622333"
       y="9.6223326"
       rx="12"
       ry="12" /><g
       id="g58"
       style="filter:url(#filter60)"><path
         id="path26"
         style="fill:#9d8878;fill-opacity:1;stroke:none;stroke-width:5.41984;stroke-linejoin:bevel;stroke-opacity:1"
         d="m 63.515625,27.496091 c -3.577736,0.06399 -7.209894,0.922758 -10.644531,2.685547 -5.862909,3.009068 -10.613521,8.920124 -12.228516,15.21289 -0.461441,1.79803 -0.594671,2.070528 -1.533203,3.183594 -2.679236,3.177447 -4.345131,6.474941 -5.300781,10.490234 -0.03905,0.164079 -0.07389,0.314658 -0.107422,0.451172 -0.01261,0.05278 -0.02623,0.102995 -0.03906,0.152344 -0.0031,0.01239 -0.0066,0.02496 -0.0098,0.03711 -0.538832,2.114777 -0.389009,5.245886 -0.302735,7.21875 0.08678,1.984427 0.840885,5.408953 2.322266,8.345704 0.266459,0.528238 0.56103,1.0086 0.865234,1.441406 0.785543,-0.442109 1.57803,-0.889498 2.337891,-1.31836 6.403318,-3.613989 7.17829,-3.840922 7.589844,-2.201172 0.274055,1.091966 0.156649,1.182755 -6.300782,4.804688 -1.698246,0.952543 -1.682763,0.910157 -0.65625,1.669922 0.0037,0.0027 0.008,0.0051 0.01172,0.0078 l 0.144531,0.09961 c 0.151044,0.108043 0.302194,0.217464 0.460938,0.320312 2.261316,1.465088 5.262819,2.388672 7.855469,2.388672 14.56409,0 20.023036,-18.552835 7.814453,-26.558594 -2.245526,-1.472498 -2.31618,-2.115459 -0.472656,-4.353515 2.374053,-2.882084 5.77538,-4.248085 9.115234,-4.134766 3.339834,0.113322 6.616689,1.707236 8.748047,4.742188 1.351168,1.923981 1.272471,2.286689 -0.78125,3.615234 -10.648743,6.888636 -8.509404,22.527573 3.585937,26.220703 3.834371,1.170764 9.770858,-0.0062 12.791016,-2.535156 l 0.708984,-0.591797 c 1.370529,-1.093154 3.105469,-4.027344 3.105469,-4.027344 l 0.792969,-2.070312 h -0.02539 c 9.28e-4,-0.0026 10e-4,-0.0053 0.002,-0.0078 L 88.859375,71.412106 C 86.368046,70.652252 84.180825,69.881986 84,69.701169 c -0.451637,-0.451628 -0.425836,-1.540978 0.04687,-2.013672 0.201733,-0.201733 0.238765,-0.366302 0.628906,-0.363281 0.737197,0.0057 2.737032,0.607883 9.5,2.683593 0.220674,-1.000315 0.405758,-2.070913 0.558594,-3.171874 0.02571,-0.191724 0.05507,-0.407176 0.08594,-0.648438 0.02282,-0.180977 0.01325,-0.374677 0.02734,-0.560547 -0.02528,-0.151352 -0.105169,-0.194228 -0.261718,-0.199219 -4.847376,-0.154541 -9.868543,-0.699054 -10.199219,-1.107422 -0.500578,-0.618193 -0.391164,-1.640206 0.222656,-2.09375 0.236844,-0.175009 5.223087,-0.0063 10.197266,0.257813 -0.10884,-1.10202 -0.27439,-2.038269 -0.371094,-2.535156 -0.02567,-0.113671 -0.05087,-0.239519 -0.07813,-0.38086 C 93.6263,55.776763 91.678434,51.825721 88.964844,48.62695 88.023687,47.517533 87.897703,47.254541 87.398438,45.351559 84.487747,34.25734 74.248833,27.304118 63.515625,27.496091 Z M 50.681641,40.25195 c 2.416848,0.01682 4.765625,2.070138 4.765625,4.839844 0,3.529558 -4.260864,5.928138 -7.09961,3.996094 -3.14634,-2.141382 -3.15612,-6.01179 -0.02148,-8.125 0.73632,-0.496202 1.549853,-0.716544 2.355469,-0.710938 z m 26.585937,0 c 2.416848,0.01682 4.765625,2.070138 4.765625,4.839844 0,3.529558 -4.260863,5.928138 -7.099609,3.996094 -3.14634,-2.141382 -3.154168,-6.01179 -0.01953,-8.125 0.73632,-0.496202 1.5479,-0.716544 2.353516,-0.710938 z m 5.765625,31.939453 c 0.364898,0.0083 0.767121,0.125942 1.166016,0.369141 0.251777,0.153504 1.629874,0.938822 3.785156,2.158203 l -1.642578,2.40625 -0.367188,-0.207031 c -4.076121,-2.284662 -4.365234,-2.503141 -4.365234,-3.361328 0,-0.872049 0.621054,-1.383516 1.423828,-1.365235 z" /><path
         style="fill:#382a24;fill-opacity:1;stroke-width:3.04639"
         d="m 48.34794,49.088304 c -3.14634,-2.141382 -3.155966,-6.012215 -0.02133,-8.125425 2.945279,-1.984807 7.120598,0.436716 7.120598,4.129657 0,3.529558 -4.261685,5.927812 -7.100431,3.995768 z"
         id="path25" /><path
         style="fill:#382a24;fill-opacity:1;stroke-width:3.04639"
         d="m 74.934418,49.088304 c -3.14634,-2.141382 -3.155966,-6.012215 -0.02133,-8.125425 2.945279,-1.984807 7.120598,0.436716 7.120598,4.129657 0,3.529558 -4.261685,5.927812 -7.100431,3.995768 z"
         id="path24" /><path
         style="fill:#382a24;fill-opacity:1;stroke-width:1.92983"
         d="m 30.535669,60.614685 c 0.05095,-0.180304 0.150334,-0.707195 0.221004,-1.170853 0.571981,-3.755641 3.024964,-8.988992 5.724694,-12.213504 1.12781,-1.347015 1.886135,-3.481179 1.305721,-3.674652 -0.849973,-0.283323 -2.217409,-1.74277 -2.916373,-3.112628 -3.409656,-6.682247 4.102367,-13.758143 10.452364,-9.845536 l 0.898218,0.553444 1.443491,-1.094721 C 57.167253,22.849719 70.689102,22.755113 80.07267,29.82949 l 1.739873,1.311722 1.16384,-0.637082 c 8.500808,-4.653381 15.464296,7.262592 7.551642,12.922435 -0.642092,0.459287 -0.359585,2.038597 0.574992,3.214386 2.515316,3.164497 3.84155,5.383774 4.897764,8.195724 0.554786,1.476996 1.527438,5.204228 1.532282,5.871678 0.0012,0.160677 -0.336369,0.233368 -1.075492,0.231614 -1.761565,-0.0042 -1.847577,-0.06037 -2.100481,-1.371947 C 93.626014,55.776332 91.678993,51.825223 88.965329,48.626365 88.024172,47.516948 87.898637,47.254412 87.399371,45.351432 83.518452,30.559138 66.609565,23.130198 52.871016,30.181353 c -5.862909,3.009068 -10.614392,8.91948 -12.229387,15.212246 -0.461441,1.79803 -0.593036,2.071653 -1.531568,3.184719 -2.679236,3.177447 -4.34593,6.475549 -5.30158,10.490842 -0.445481,1.871799 -0.439885,1.866793 -2.088284,1.870496 -1.127444,0.0025 -1.266295,-0.03557 -1.184528,-0.324971 z"
         id="path20" /><path
         style="fill:#382a24;fill-opacity:1;stroke-width:1.92983"
         d="m 95.708605,68.774731 c -1.30904,-0.414976 -1.204771,-0.111235 -0.88801,-2.586785 0.0799,-0.624515 0.04091,-0.7511 -0.234165,-0.759869 -4.847376,-0.154541 -9.868359,-0.700357 -10.199035,-1.108722 -0.500578,-0.618193 -0.392662,-1.639768 0.221158,-2.093312 0.46476,-0.343422 19.216247,0.639979 20.284367,1.06379 0.8068,0.320122 0.94316,1.665155 0.23615,2.329355 -0.48446,0.455134 -1.67767,0.469611 -6.113573,0.07418 l -1.235629,-0.110154 -0.126789,1.363572 c -0.231637,2.492282 -0.135088,2.40155 -1.944532,1.827942 z"
         id="path19" /><path
         style="fill:#382a24;fill-opacity:1;stroke-width:1.92983"
         d="m 30.587369,68.389148 c -0.06098,-0.437899 -0.16693,-1.248458 -0.235593,-1.801242 l -0.12486,-1.005063 -1.23752,0.111525 c -5.635421,0.507899 -6.576617,0.34853 -6.576617,-1.11361 0,-1.359476 -0.01351,-1.356691 9.273163,-1.955256 4.636562,-0.298855 9.069952,-0.596612 9.851956,-0.66168 2.152741,-0.179126 3.305233,1.172669 2.060804,2.417116 -0.340267,0.340253 -5.836663,0.914301 -10.019504,1.046444 -0.328263,0.01042 -0.345497,0.122563 -0.230537,1.500884 l 0.124281,1.489677 -1.288333,0.383688 c -0.708593,0.211029 -1.332931,0.383688 -1.387391,0.383688 -0.05442,0 -0.148982,-0.358282 -0.209849,-0.79618 z"
         id="path18" /><path
         style="fill:#382a24;fill-opacity:1;stroke-width:1.92983"
         d="M 93.621479,75.990888 C 92.3355,75.266179 92.359816,75.354221 93.003355,73.752516 l 0.385387,-0.959238 -4.529669,-1.381549 c -2.491329,-0.759854 -4.677629,-1.529491 -4.858454,-1.710308 -0.451637,-0.451628 -0.426781,-1.54209 0.04593,-2.014784 0.645546,-0.645546 -0.400825,-0.907298 13.862907,3.467839 6.790984,2.08301 6.951114,2.173289 6.438824,3.629985 -0.39262,1.116386 -0.89764,1.1112 -4.718808,-0.04846 -1.908502,-0.579198 -3.481349,-1.032352 -3.495186,-1.00701 -0.01351,0.02534 -0.267551,0.661666 -0.56376,1.414053 -0.667469,1.695366 -0.541972,1.640779 -1.949028,0.847841 z"
         id="path17" /><path
         style="fill:#382a24;fill-opacity:1;stroke-width:1.92983"
         d="m 32.525011,75.226928 c -0.33054,-0.798521 -0.61739,-1.470912 -0.637441,-1.494201 -0.02007,-0.02329 -1.548898,0.418497 -3.39742,0.981745 -3.943272,1.20153 -3.709647,1.176075 -4.405697,0.480033 -0.656952,-0.656947 -0.691148,-1.141228 -0.126018,-1.785381 0.427264,-0.487065 18.039495,-6.09716 19.14133,-6.09716 1.06729,0 1.746454,1.495522 1.056618,2.326708 -0.228047,0.27479 -2.258977,0.966602 -7.459068,2.540833 -2.125877,0.643574 -2.109107,0.619866 -1.446019,2.044299 0.258771,0.55591 0.447623,1.028015 0.41966,1.049125 -0.164807,0.124474 -2.424132,1.405858 -2.478746,1.405858 -0.03647,0 -0.336581,-0.653335 -0.667122,-1.451859 z"
         id="path16" /><path
         id="path27"
         style="fill:#fbfbfb;fill-opacity:1;stroke:none;stroke-width:5.41984;stroke-linejoin:bevel;stroke-opacity:1;filter:url(#filter58)"
         d="m 65.5,77.763669 v 7.326172 7.324218 h 1.507812 c 1.339108,0 1.557574,-0.04781 1.955079,-0.445312 0.246092,-0.246076 0.491105,-0.73175 0.546875,-1.078125 0.158632,-0.986832 0.876639,-8.263462 0.818359,-8.294922 -0.692093,-0.373904 -3.055838,-2.565612 -3.814453,-3.535156 z M 62.351562,78.0957 c -0.08338,0.09928 -0.558404,0.668137 -1.058593,1.269531 -0.817725,0.983193 -2.660157,2.666049 -3.357422,3.064454 -0.228472,0.130495 -0.201955,0.753919 0.179687,4.365234 0.24505,2.318288 0.447319,4.306178 0.449219,4.419922 0.01351,0.756796 0.910899,1.199218 2.431641,1.199218 h 1.507812 v -7.248046 c 0,-3.986357 -0.07016,-7.166356 -0.152344,-7.070313 z" /><path
         id="path15"
         style="fill:#382a24;fill-opacity:1;stroke-width:1.92983"
         d="m 64.43687,47.439822 c -3.339854,-0.113319 -6.739861,1.25272 -9.113914,4.134804 -1.843524,2.238056 -1.774378,2.880918 0.471148,4.353416 12.208583,8.005759 6.750552,26.557727 -7.813538,26.557727 -2.836131,0 -6.162766,-1.105557 -8.473134,-2.815586 -1.026514,-0.759765 -1.042415,-0.71721 0.655832,-1.669753 6.45743,-3.621933 6.576153,-3.713754 6.302098,-4.805719 -0.411554,-1.63975 -1.187846,-1.412781 -7.591164,2.201208 -3.129696,1.766384 -6.825873,3.840656 -8.216834,4.613491 -1.39098,0.772834 -2.719453,1.577427 -2.951283,1.786597 -0.906421,0.817829 -0.308869,2.374591 0.912151,2.374591 0.591453,0 0.968445,-0.186267 4.813257,-2.393436 l 2.122057,-1.21745 0.572926,0.727455 c 4.342225,5.503848 12.975052,10.191896 18.770572,10.191896 0.580742,0 0.663127,0.08381 1.221213,1.217448 0.68285,1.387057 1.496851,2.101795 2.79298,2.461283 1.642224,0.455472 10.056344,0.259602 11.021103,-0.256306 0.954029,-0.510171 1.847828,-1.566081 2.182363,-2.574357 0.209309,-0.630822 0.342351,-0.764673 0.799083,-0.806608 7.295689,-0.669868 15.00384,-4.860202 19.155032,-10.414277 l 0.403295,-0.535226 3.181203,1.801675 c 1.760908,0.996572 3.398327,1.797903 3.667422,1.797903 1.095172,0 1.791482,-0.925784 1.402132,-1.86575 -0.22918,-0.553274 -0.17137,-0.51037 -3.02666,-2.114517 -7.341483,-4.124629 -12.962759,-7.302837 -13.497475,-7.628844 -1.276464,-0.778237 -2.589441,-0.273368 -2.589441,0.995066 0,0.858187 0.288606,1.077459 4.364727,3.362121 l 3.516664,1.971286 -0.708613,0.591764 C 85.761914,82.010686 79.823799,83.189154 75.989428,82.01839 63.894087,78.32526 61.756187,62.684757 72.40493,55.796121 74.458651,54.467576 74.536326,54.105446 73.185158,52.181465 71.0538,49.146513 67.776704,47.553144 64.43687,47.439822 Z m 1.06291,30.323151 1.013911,1.296602 c 0.758615,0.969544 3.122324,3.161597 3.814417,3.535501 0.05828,0.03146 -0.659286,7.30916 -0.817918,8.295992 -0.05577,0.346375 -0.300435,0.831913 -0.546527,1.077989 -0.397505,0.397506 -0.6171,0.444763 -1.956207,0.444763 H 65.49978 v -7.323538 z m -3.147277,0.331689 c 0.08221,-0.09788 0.150719,3.083546 0.150719,7.071003 v 7.248155 h -1.507676 c -1.520742,0 -2.41761,-0.441805 -2.431118,-1.198601 -0.0019,-0.113744 -0.203481,-2.102975 -0.448531,-4.421263 -0.381642,-3.611315 -0.409296,-4.23423 -0.180824,-4.364725 0.697265,-0.398405 2.540616,-2.081159 3.358341,-3.064352 0.501022,-0.602395 0.976936,-1.172337 1.059147,-1.270217 z" /><path
         style="fill:#fbfbfb;fill-opacity:1;stroke-width:1.79243"
         d="m 75.908565,48.386413 c -1.851241,-1.259944 -1.856905,-3.537462 -0.01255,-4.78083 1.73294,-1.167819 4.189611,0.256954 4.189611,2.429804 0,2.076718 -2.507487,3.4878 -4.177746,2.351026 z"
         id="path34" /><path
         style="fill:#fbfbfb;fill-opacity:1;stroke-width:1.79243"
         d="m 49.322087,48.386413 c -1.851241,-1.259944 -1.856905,-3.537462 -0.01255,-4.78083 1.73294,-1.167819 4.189611,0.256954 4.189611,2.429804 0,2.076718 -2.507487,3.4878 -4.177746,2.351026 z"
         id="path35" /></g></g></svg>
