<?xml version="1.0" encoding="UTF-8" standalone="no"?>
<!-- Created with Inkscape (http://www.inkscape.org/) -->

<svg
   width="128"
   height="128"
   viewBox="0 0 128 128"
   version="1.1"
   id="svg5"
   inkscape:version="1.4.3 (0d15f75042, 2025-12-25)"
   sodipodi:docname="io.freetubeapp.FreeTube.svg"
   xml:space="preserve"
   xmlns:inkscape="http://www.inkscape.org/namespaces/inkscape"
   xmlns:sodipodi="http://sodipodi.sourceforge.net/DTD/sodipodi-0.dtd"
   xmlns:xlink="http://www.w3.org/1999/xlink"
   xmlns="http://www.w3.org/2000/svg"
   xmlns:svg="http://www.w3.org/2000/svg"><sodipodi:namedview
     id="namedview7"
     pagecolor="#ffffff"
     bordercolor="#666666"
     borderopacity="1"
     inkscape:pageshadow="2"
     inkscape:pageopacity="0.0"
     inkscape:pagecheckerboard="true"
     inkscape:document-units="px"
     showgrid="false"
     inkscape:showpageshadow="false"
     showborder="true"
     inkscape:snap-page="true"
     inkscape:zoom="2.8284273"
     inkscape:cx="14.672465"
     inkscape:cy="127.45599"
     inkscape:window-width="1728"
     inkscape:window-height="1043"
     inkscape:window-x="0"
     inkscape:window-y="0"
     inkscape:window-maximized="1"
     inkscape:current-layer="layer2"
     inkscape:deskcolor="#d1d1d1" /><defs
     id="defs2"><linearGradient
       id="linearGradient1"
       inkscape:collect="always"><stop
         style="stop-color:#fbd7d7;stop-opacity:1;"
         offset="0"
         id="stop1" /><stop
         style="stop-color:#fae7e7;stop-opacity:1;"
         offset="1"
         id="stop2" /></linearGradient><inkscape:path-effect
       effect="fillet_chamfer"
       id="path-effect80"
       is_visible="true"
       lpeversion="1"
       nodesatellites_param="F,0,0,1,0,10.666976,0,1 @ F,0,0,1,0,0,0,1 @ F,0,0,1,0,8.9777313,0,1 @ F,0,0,1,0,0,0,1 @ F,0,0,1,0,8.9249292,0,1 @ F,0,0,1,0,0,0,1"
       radius="0"
       unit="px"
       method="auto"
       mode="F"
       chamfer_steps="1"
       flexible="false"
       use_knot_distance="true"
       apply_no_radius="true"
       apply_with_radius="true"
       only_selected="false"
       hide_knots="false" /><inkscape:path-effect
       effect="fillet_chamfer"
       id="path-effect77"
       is_visible="true"
       lpeversion="1"
       nodesatellites_param="F,0,0,1,0,10.666976,0,1 @ F,0,0,1,0,0,0,1 @ F,0,0,1,0,8.9777313,0,1 @ F,0,0,1,0,0,0,1 @ F,0,0,1,0,8.9249292,0,1 @ F,0,0,1,0,0,0,1"
       radius="0"
       unit="px"
       method="auto"
       mode="F"
       chamfer_steps="1"
       flexible="false"
       use_knot_distance="true"
       apply_no_radius="true"
       apply_with_radius="true"
       only_selected="false"
       hide_knots="false" /><inkscape:path-effect
       effect="fillet_chamfer"
       id="path-effect74"
       is_visible="true"
       lpeversion="1"
       nodesatellites_param="F,0,0,1,0,10.666976,0,1 @ F,0,0,1,0,0,0,1 @ F,0,0,1,0,8.9777313,0,1 @ F,0,0,1,0,0,0,1 @ F,0,0,1,0,8.9249292,0,1 @ F,0,0,1,0,0,0,1"
       radius="0"
       unit="px"
       method="auto"
       mode="F"
       chamfer_steps="1"
       flexible="false"
       use_knot_distance="true"
       apply_no_radius="true"
       apply_with_radius="true"
       only_selected="false"
       hide_knots="false" /><inkscape:path-effect
       effect="fillet_chamfer"
       id="path-effect71"
       is_visible="true"
       lpeversion="1"
       nodesatellites_param="F,0,0,1,0,10.666976,0,1 @ F,0,0,1,0,0,0,1 @ F,0,0,1,0,8.9777313,0,1 @ F,0,0,1,0,0,0,1 @ F,0,0,1,0,8.9249292,0,1 @ F,0,0,1,0,0,0,1"
       radius="0"
       unit="px"
       method="auto"
       mode="F"
       chamfer_steps="1"
       flexible="false"
       use_knot_distance="true"
       apply_no_radius="true"
       apply_with_radius="true"
       only_selected="false"
       hide_knots="false" /><inkscape:path-effect
       effect="fillet_chamfer"
       id="path-effect5"
       is_visible="true"
       lpeversion="1"
       nodesatellites_param="F,0,0,1,0,10.666976,0,1 @ F,0,0,1,0,0,0,1 @ F,0,0,1,0,8.9777313,0,1 @ F,0,0,1,0,0,0,1 @ F,0,0,1,0,8.9249292,0,1 @ F,0,0,1,0,0,0,1"
       radius="0"
       unit="px"
       method="auto"
       mode="F"
       chamfer_steps="1"
       flexible="false"
       use_knot_distance="true"
       apply_no_radius="true"
       apply_with_radius="true"
       only_selected="false"
       hide_knots="false" /><linearGradient
       id="linearGradient16"
       x1="49.9392"
       y1="0.257812"
       x2="49.9392"
       y2="99.7423"
       gradientUnits="userSpaceOnUse"
       gradientTransform="matrix(0.76242929,0,0,0.76242929,22.69079,21.878509)"><stop
         stop-color="white"
         id="stop15"
         offset="0"
         style="stop-color:#3b3b3b;stop-opacity:1;" /><stop
         offset="1"
         stop-color="white"
         stop-opacity="0"
         id="stop16" /></linearGradient><linearGradient
       id="linearGradient7"
       x1="49.9392"
       y1="0.257812"
       x2="49.9392"
       y2="99.7423"
       gradientUnits="userSpaceOnUse"
       gradientTransform="matrix(0.76242929,0,0,0.76242929,26.69079,21.878509)"><stop
         stop-color="white"
         id="stop6"
         offset="0"
         style="stop-color:#000000;stop-opacity:1;" /><stop
         offset="1"
         stop-color="white"
         stop-opacity="0"
         id="stop7"
         style="stop-color:#000000;stop-opacity:1;" /></linearGradient><linearGradient
       inkscape:collect="always"
       id="linearGradient404"><stop
         style="stop-color:#f7dfdf;stop-opacity:1;"
         offset="0"
         id="stop400" /><stop
         style="stop-color:#ffffff;stop-opacity:1;"
         offset="1"
         id="stop402" /></linearGradient><linearGradient
       y2="236"
       x2="96"
       y1="236"
       x1="32"
       gradientTransform="translate(604.81684,170.58641)"
       gradientUnits="userSpaceOnUse"
       id="linearGradient1099"
       xlink:href="#linearGradient1036" /><linearGradient
       id="linearGradient1036"><stop
         id="stop1032"
         offset="0"
         style="stop-color:#d5d3cf;stop-opacity:1;" /><stop
         id="stop1034"
         offset="1"
         style="stop-color:#f6f5f4;stop-opacity:1" /></linearGradient><radialGradient
       r="32"
       fy="-76"
       fx="-244"
       cy="-76"
       cx="-244"
       gradientTransform="matrix(0.88333331,0,0,0.88333331,-460.35018,463.11973)"
       gradientUnits="userSpaceOnUse"
       id="radialGradient1103"
       xlink:href="#linearGradient1069" /><linearGradient
       id="linearGradient1069"><stop
         id="stop1065"
         offset="0"
         style="stop-color:#d5d3cf;stop-opacity:1" /><stop
         id="stop1067-1"
         offset="1"
         style="stop-color:#949390;stop-opacity:1" /></linearGradient><linearGradient
       gradientUnits="userSpaceOnUse"
       y2="232"
       x2="64"
       y1="262.5"
       x1="64"
       id="linearGradient1027"
       xlink:href="#linearGradient1025"
       gradientTransform="translate(-470.5864,432.81685)" /><linearGradient
       id="linearGradient1025"><stop
         id="stop1021"
         offset="0"
         style="stop-color:#9a9996;stop-opacity:1" /><stop
         id="stop1023"
         offset="1"
         style="stop-color:#77767b;stop-opacity:1" /></linearGradient><inkscape:path-effect
       effect="spiro"
       id="path-effect35304-9"
       is_visible="true" /><clipPath
       clipPathUnits="userSpaceOnUse"
       id="clipPath1609-7"><path
         sodipodi:nodetypes="cccccc"
         inkscape:connector-curvature="0"
         id="path1611-5"
         d="m 252,116 28,-28 v -8 h -36 v 36 z"
         style="fill:#e74747;stroke:none;stroke-width:0.25px;stroke-linecap:butt;stroke-linejoin:miter;stroke-opacity:1" /></clipPath><linearGradient
       inkscape:collect="always"
       id="linearGradient8241"><stop
         style="stop-color:#f1a2a2;stop-opacity:1"
         offset="0"
         id="stop8237" /><stop
         style="stop-color:#f5baba;stop-opacity:1;"
         offset="0.05"
         id="stop9349" /><stop
         style="stop-color:#f1a2a2;stop-opacity:1"
         offset="0.1"
         id="stop21746" /><stop
         style="stop-color:#f1a2a2;stop-opacity:1"
         offset="0.89999998"
         id="stop21940" /><stop
         style="stop-color:#f5baba;stop-opacity:1;"
         offset="0.94999999"
         id="stop9351" /><stop
         style="stop-color:#f1a2a2;stop-opacity:1"
         offset="1"
         id="stop8239" /></linearGradient><radialGradient
       r="32"
       fy="-76"
       fx="-244"
       cy="-76"
       cx="-244"
       gradientTransform="matrix(0.88333331,0,0,0.88333331,-460.35018,463.11973)"
       gradientUnits="userSpaceOnUse"
       id="radialGradient1103-5"
       xlink:href="#linearGradient1069" /><inkscape:path-effect
       effect="spiro"
       id="path-effect35304-9-2"
       is_visible="true" /><clipPath
       clipPathUnits="userSpaceOnUse"
       id="clipPath1609-7-7"><path
         sodipodi:nodetypes="cccccc"
         inkscape:connector-curvature="0"
         id="path1611-5-0"
         d="m 252,116 28,-28 v -8 h -36 v 36 z"
         style="fill:#e74747;stroke:none;stroke-width:0.25px;stroke-linecap:butt;stroke-linejoin:miter;stroke-opacity:1" /></clipPath><clipPath
       clipPathUnits="userSpaceOnUse"
       id="clipPath744"><rect
         style="fill:#1e88e5;fill-opacity:1;stroke-width:0.264583"
         id="rect746"
         width="541.86664"
         height="541.86664"
         x="0"
         y="1.5987212e-14"
         rx="79.375"
         ry="79.375" /></clipPath><clipPath
       clipPathUnits="userSpaceOnUse"
       id="clipPath62"><rect
         style="fill:#1e88e5;fill-opacity:1;stroke-width:0.264583"
         id="rect64"
         width="541.86664"
         height="541.86664"
         x="2.2507105e-05"
         y="-0.42205024"
         rx="79.375"
         ry="79.375" /></clipPath><linearGradient
       inkscape:collect="always"
       xlink:href="#linearGradient8241"
       id="linearGradient8243"
       x1="11.5"
       y1="120.5"
       x2="116.5"
       y2="120.5"
       gradientUnits="userSpaceOnUse" /><radialGradient
       r="32"
       fy="-76"
       fx="-244"
       cy="-76"
       cx="-244"
       gradientTransform="matrix(0.88333331,0,0,0.88333331,-460.35018,463.11973)"
       gradientUnits="userSpaceOnUse"
       id="radialGradient1103-6"
       xlink:href="#linearGradient1069" /><inkscape:path-effect
       effect="spiro"
       id="path-effect35304-9-20"
       is_visible="true" /><clipPath
       clipPathUnits="userSpaceOnUse"
       id="clipPath1609-7-2"><path
         sodipodi:nodetypes="cccccc"
         inkscape:connector-curvature="0"
         id="path1611-5-3"
         d="m 252,116 28,-28 v -8 h -36 v 36 z"
         style="fill:#e74747;stroke:none;stroke-width:0.25px;stroke-linecap:butt;stroke-linejoin:miter;stroke-opacity:1" /></clipPath><radialGradient
       r="32"
       fy="-76"
       fx="-244"
       cy="-76"
       cx="-244"
       gradientTransform="matrix(0.88333331,0,0,0.88333331,-460.35018,463.11973)"
       gradientUnits="userSpaceOnUse"
       id="radialGradient1103-56"
       xlink:href="#linearGradient1069" /><inkscape:path-effect
       effect="spiro"
       id="path-effect35304-9-7"
       is_visible="true" /><clipPath
       clipPathUnits="userSpaceOnUse"
       id="clipPath1609-7-0"><path
         sodipodi:nodetypes="cccccc"
         inkscape:connector-curvature="0"
         id="path1611-5-9"
         d="m 252,116 28,-28 v -8 h -36 v 36 z"
         style="fill:#e74747;stroke:none;stroke-width:0.25px;stroke-linecap:butt;stroke-linejoin:miter;stroke-opacity:1" /></clipPath><clipPath
       clipPathUnits="userSpaceOnUse"
       id="clipPath37"><rect
         style="fill:#1a1a1a;fill-opacity:1;stroke-width:0.264583"
         id="rect39"
         width="541.86664"
         height="541.86664"
         x="-2.6626146e-06"
         y="3.2408705"
         rx="79.375"
         ry="79.375" /></clipPath><clipPath
       clipPathUnits="userSpaceOnUse"
       id="clipPath22042"><rect
         style="fill:#333333;fill-opacity:1;stroke-width:0.0133797"
         id="rect22044"
         width="27.31955"
         height="27.483929"
         x="166.96844"
         y="105.40438"
         rx="4.0018873"
         ry="4.0259666" /></clipPath><clipPath
       clipPathUnits="userSpaceOnUse"
       id="clipPath1039"><rect
         style="fill:#b3b3b3;fill-opacity:1;stroke-width:0.264583"
         id="rect1041"
         width="541.8667"
         height="541.86682"
         x="2.5931527e-05"
         y="-0.00010962487"
         rx="79.375008"
         ry="79.375031" /></clipPath><clipPath
       clipPathUnits="userSpaceOnUse"
       id="clipPath154"><rect
         style="fill:#b3b3b3;fill-opacity:1;stroke-width:0.264583"
         id="rect156"
         width="541.8667"
         height="541.86682"
         x="-2.9218751e-05"
         y="-0.00016368683"
         rx="79.375008"
         ry="79.375031" /></clipPath><linearGradient
       inkscape:collect="always"
       xlink:href="#linearGradient404"
       id="linearGradient406"
       x1="64"
       y1="112.5"
       x2="64"
       y2="7.5"
       gradientUnits="userSpaceOnUse" /><linearGradient
       id="paint0_linear"
       x1="49.9392"
       y1="0.257812"
       x2="49.9392"
       y2="99.7423"
       gradientUnits="userSpaceOnUse"
       gradientTransform="matrix(0.76242929,0,0,0.76242929,22.69079,21.878509)"><stop
         stop-color="white"
         id="stop585" /><stop
         offset="1"
         stop-color="white"
         stop-opacity="0"
         id="stop587" /></linearGradient><filter
       style="color-interpolation-filters:sRGB;"
       inkscape:label="Drop Shadow"
       id="filter47"
       x="-0.055125515"
       y="-0.062331228"
       width="1.110251"
       height="1.1397513"><feFlood
         result="flood"
         in="SourceGraphic"
         flood-opacity="0.37578402531083482"
         flood-color="rgb(0,0,0)"
         id="feFlood46" /><feGaussianBlur
         result="blur"
         in="SourceGraphic"
         stdDeviation="1.9174107142857142"
         id="feGaussianBlur46" /><feOffset
         result="offset"
         in="blur"
         dx="0.000000"
         dy="1.1139774859287002"
         id="feOffset46" /><feComposite
         result="comp1"
         operator="arithmetic"
         in="flood"
         in2="offset"
         id="feComposite46" /><feComposite
         result="comp2"
         operator="over"
         in="SourceGraphic"
         in2="comp1"
         id="feComposite47" /></filter><filter
       style="color-interpolation-filters:sRGB;"
       inkscape:label="Drop Shadow"
       id="filter68"
       x="-0.071874943"
       y="-0.081270053"
       width="1.1437499"
       height="1.1896301"><feFlood
         result="flood"
         in="SourceGraphic"
         flood-opacity="0.541176"
         flood-color="rgb(0,0,0)"
         id="feFlood67" /><feGaussianBlur
         result="blur"
         in="SourceGraphic"
         stdDeviation="2.500000"
         id="feGaussianBlur67" /><feOffset
         result="offset"
         in="blur"
         dx="0.000000"
         dy="2.000000"
         id="feOffset67" /><feComposite
         result="comp1"
         operator="in"
         in="offset"
         in2="flood"
         id="feComposite67" /><feComposite
         result="comp2"
         operator="over"
         in="SourceGraphic"
         in2="comp1"
         id="feComposite68" /></filter><linearGradient
       inkscape:collect="always"
       xlink:href="#linearGradient1"
       id="linearGradient2"
       x1="63.999996"
       y1="110.37766"
       x2="63.999996"
       y2="9.6223326"
       gradientUnits="userSpaceOnUse" /></defs><g
     inkscape:groupmode="layer"
     id="layer2"
     inkscape:label="Layer 1"><rect
       style="fill:url(#linearGradient8243);fill-opacity:1"
       id="rect440"
       width="105"
       height="105"
       x="11.5"
       y="15.5"
       rx="13"
       ry="13" /><rect
       style="fill:url(#linearGradient406);fill-opacity:1"
       id="rect358"
       width="105"
       height="105"
       x="11.5"
       y="7.5"
       rx="13"
       ry="13" /><rect
       style="fill:url(#linearGradient2);fill-opacity:1;stroke-width:0.959575"
       id="rect338"
       width="100.75533"
       height="100.75533"
       x="13.622333"
       y="9.6223326"
       rx="12"
       ry="12" /><g
       id="g48"><path
         id="rect1"
         style="opacity:1;fill:#ff3333;fill-opacity:1;stroke-width:0.553103;stroke-linecap:round;stroke-linejoin:round"
         d="m 36.341843,26.563717 c -2.848726,0 -5.14213,2.293403 -5.14213,5.142126 v 54.500793 l -0.0051,-0.002 0.0051,0.25494 v 0.0108 c 0,0.0479 7.37e-4,0.0957 0.0022,0.14332 v 0.65969 0.3176 h 0.0058 c -0.02755,2.15839 0.804336,12.551404 19.810159,12.551404 l -0.013,-13.026724 h -0.0267 c 0.0262,-0.21114 0.0396,-0.42684 0.0396,-0.64529 V 31.705843 c 0,-2.848723 -2.292676,-5.142126 -5.141399,-5.142126 z" /><path
         id="rect2"
         style="opacity:1;fill:#ff3333;fill-opacity:1;stroke-width:0.553103;stroke-linecap:round;stroke-linejoin:round"
         d="m 105.58051,26.314533 -6.513358,0.0094 h -39.47051 c -2.84872,0 -5.14212,2.293404 -5.14212,5.142126 V 41.0006 c 0,2.848723 2.2934,5.142126 5.14212,5.142126 h 32.95715 V 26.333257 l 0.008,19.792149 c 0,0 13.020108,1.375732 13.018798,-19.792149 h 9.09235 c -0.10306,-0.0061 -0.2072,-0.0094 -0.31184,-0.0094 h -8.78051 c 0,-0.003 0,-0.0064 0,-0.0094 z" /><path
         sodipodi:type="star"
         style="opacity:1;fill:#29abe1;fill-opacity:1;stroke-width:1.5;stroke-linecap:round;stroke-linejoin:round"
         id="path5"
         inkscape:flatsided="false"
         sodipodi:sides="3"
         sodipodi:cx="-230.80664"
         sodipodi:cy="-173.06438"
         sodipodi:r1="46.074993"
         sodipodi:r2="23.037498"
         sodipodi:arg1="0"
         sodipodi:arg2="1.0471976"
         inkscape:rounded="0"
         inkscape:randomized="0"
         d="m -193.96952,-167.73089 -25.31837,14.61757 -26.7813,15.46219 a 5.1832962,5.1832962 30 0 1 -7.77495,-4.48886 l 0,-30.92439 0,-30.97718 a 5.1528108,5.1528108 150 0 1 7.72922,-4.46247 l 26.82703,15.48859 25.31837,14.61757 a 6.1585821,6.1585821 90 0 1 0,10.66698 z"
         inkscape:transform-center-x="-5.509106"
         transform="matrix(0.47827325,0,0,0.43128953,175.86138,138.64567)"
         inkscape:path-effect="#path-effect5" /></g><path
       id="path80"
       style="mix-blend-mode:darken;fill:#000000;fill-opacity:0.15129025;stroke-width:0.553103;stroke-linecap:round;stroke-linejoin:round"
       d="M 105.54102,26.314453 C 104.75497,45.414336 92.5625,44.125 92.5625,44.125 v 2 c 0,0 13.01889,1.376865 13.01758,-19.791016 h 9.09375 c -0.10306,-0.0061 -0.20786,-0.0098 -0.3125,-0.0098 h -8.78125 v -0.0098 z M 54.455078,39 v 2 c 0,2.848723 2.291905,5.142578 5.140625,5.142578 h 32.958985 v -2 H 59.595703 c -2.84872,0 -5.140625,-2.293855 -5.140625,-5.142578 z m 29.890625,24.005859 a 2.9454851,2.656132 0 0 1 -1.253906,1.298829 l -12.109375,6.304687 -12.808594,6.667969 a 2.4790319,2.2355014 0 0 1 -3.71875,-1.935547 v 2 a 2.4790319,2.2355014 0 0 0 3.71875,1.935547 l 12.808594,-6.667969 12.109375,-6.304687 a 2.9454851,2.656132 0 0 0 1.253906,-3.298829 z M 31.199219,84.470703 v 1.736328 l -0.0039,-0.002 0.0039,0.253906 v 0.01172 c 0,0.0479 4.9e-4,0.09496 0.002,0.142578 v 0.660157 0.318359 h 0.0059 c -0.02755,2.15839 0.804724,12.550783 19.810547,12.550783 l -0.002,-2.000002 C 32.011925,98.141781 31.179482,87.750104 31.207031,85.591797 h -0.0059 v -0.318359 -0.660157 c -0.0015,-0.04762 -0.002,-0.09468 -0.002,-0.142578 z m 19.818359,0.03125 c -0.0012,0.2077 -0.01411,0.412222 -0.03906,0.613281 h 0.02539 l 0.002,1.712891 c 0.0079,-0.118137 0.01172,-0.237107 0.01172,-0.357422 z" /><path
       id="path81"
       style="mix-blend-mode:lighten;fill:#ffffff;fill-opacity:1;stroke-width:0.553103;stroke-linecap:round;stroke-linejoin:round"
       d="m 105.58008,26.314453 -6.513674,0.0098 H 59.595703 c -2.84872,0 -5.140625,2.293856 -5.140625,5.142578 v 2 c 0,-2.848722 2.291905,-5.142578 5.140625,-5.142578 h 32.958985 6.511718 l 6.474614,-0.0098 c 0.0262,-0.637214 0.0391,-1.297062 0.0391,-1.980469 h 9.09375 c -0.10306,-0.0061 -0.20786,-0.0098 -0.3125,-0.0098 h -8.78125 z m -69.238283,0.25 c -2.848726,0 -5.142578,2.291902 -5.142578,5.140625 v 2 c 0,-2.848723 2.293852,-5.140625 5.142578,-5.140625 h 9.535156 c 2.838527,0 5.1243,2.274842 5.140625,5.109375 v -1.96875 c 0,-2.848723 -2.291902,-5.140625 -5.140625,-5.140625 z m 20.490234,21.859375 a 2.4644516,2.2223533 0 0 0 -2.376953,2.220703 v 2 a 2.4644516,2.2223533 0 0 1 2.376953,-2.220703 2.4644516,2.2223533 0 0 1 1.31836,0.296875 l 12.832031,6.679688 12.109375,6.304687 a 2.9454851,2.656132 0 0 1 1.253906,1.298828 2.9454851,2.656132 0 0 0 -1.253906,-3.298828 L 70.982422,55.400391 58.150391,48.720703 a 2.4644516,2.2223533 0 0 0 -1.31836,-0.296875 z m -25.636719,37.78125 0.0039,0.253906 v -0.251953 z m 19.810547,2.626953 c -0.0064,0.09481 -0.01576,0.189853 -0.02734,0.283203 h 0.02539 l 0.01172,11.027346 h 0.002 z" /><path
       id="path1"
       style="mix-blend-mode:darken;fill:#f1a2a2;fill-opacity:0.34777966;stroke-width:0.553103;stroke-linecap:round;stroke-linejoin:round"
       d="M 105.54102 28.314453 C 104.75497 47.414336 92.5625 46.125 92.5625 46.125 L 92.5625 48.125 L 92.5625 50.125 C 92.5625 50.125 105.58139 51.501865 105.58008 30.333984 L 114.67383 30.333984 C 114.57077 30.327884 114.46597 30.324219 114.36133 30.324219 L 105.58008 30.324219 L 105.58008 30.314453 L 105.54102 30.314453 C 105.5276 30.640428 105.48479 30.914311 105.46484 31.228516 C 105.52365 30.300957 105.58014 29.365932 105.58008 28.333984 L 114.67383 28.333984 C 114.57077 28.327884 114.46597 28.324219 114.36133 28.324219 L 105.58008 28.324219 L 105.58008 28.314453 L 105.54102 28.314453 z M 105.33594 32.806641 C 105.27491 33.392664 105.20304 33.955911 105.11914 34.498047 C 105.20299 33.956102 105.27494 33.392438 105.33594 32.806641 z M 104.87695 35.878906 C 104.77416 36.385952 104.6614 36.867946 104.53906 37.333984 C 104.66117 36.868662 104.77432 36.385104 104.87695 35.878906 z M 104.20312 38.515625 C 104.06759 38.94013 103.92254 39.338609 103.77148 39.726562 C 103.92229 39.339141 104.0678 38.939491 104.20312 38.515625 z M 103.35156 40.742188 C 103.18704 41.100859 103.0147 41.432998 102.83789 41.757812 C 103.01432 41.433562 103.18738 41.100165 103.35156 40.742188 z M 54.455078 41 L 54.455078 43 L 54.455078 45 C 54.455078 47.848723 56.746983 50.142578 59.595703 50.142578 L 92.554688 50.142578 L 92.554688 48.142578 L 92.554688 46.142578 L 59.595703 46.142578 C 56.746983 46.142578 54.455078 43.848723 54.455078 41 z M 102.35938 42.595703 C 102.17031 42.896518 101.97554 43.1703 101.77734 43.439453 C 101.97508 43.170808 102.17073 42.895876 102.35938 42.595703 z M 101.27539 44.099609 C 101.06103 44.355443 100.84356 44.58401 100.62305 44.808594 C 100.84314 44.584325 101.06143 44.355022 101.27539 44.099609 z M 100.10742 45.320312 C 99.889917 45.516356 99.672799 45.68755 99.453125 45.857422 C 99.672382 45.687819 99.890327 45.515992 100.10742 45.320312 z M 98.910156 46.267578 C 98.679361 46.424654 98.451746 46.555481 98.222656 46.6875 C 98.450949 46.555872 98.680173 46.424092 98.910156 46.267578 z M 97.728516 46.970703 C 97.508017 47.082967 97.295196 47.173668 97.080078 47.265625 C 97.294871 47.173776 97.50836 47.082799 97.728516 46.970703 z M 96.552734 47.486328 C 96.356921 47.558242 96.174062 47.610771 95.986328 47.667969 C 96.173157 47.611042 96.3579 47.557828 96.552734 47.486328 z M 95.494141 47.818359 C 95.307313 47.865893 95.139244 47.896763 94.964844 47.931641 C 95.138621 47.896886 95.308022 47.865679 95.494141 47.818359 z M 94.521484 48.019531 C 94.396069 48.039278 94.291696 48.04841 94.175781 48.0625 C 94.290925 48.048524 94.39695 48.039088 94.521484 48.019531 z M 84.345703 65.005859 A 2.9454851 2.656132 0 0 1 83.091797 66.304688 L 70.982422 72.609375 L 58.173828 79.277344 A 2.4790319 2.2355014 0 0 1 54.455078 77.341797 L 54.455078 79.341797 L 54.455078 81.341797 A 2.4790319 2.2355014 0 0 0 58.173828 83.277344 L 70.982422 76.609375 L 83.091797 70.304688 A 2.9454851 2.656132 0 0 0 84.345703 67.005859 A 2.9454851 2.656132 0 0 0 84.345703 65.005859 z M 84.238281 67.203125 A 2.9454851 2.656132 0 0 1 84.167969 67.332031 A 2.9454851 2.656132 0 0 0 84.238281 67.203125 z M 51.017578 86.501953 C 51.016378 86.709653 51.003466 86.914175 50.978516 87.115234 L 51.003906 87.115234 L 51.005859 88.828125 C 50.999409 88.924903 50.990336 89.019981 50.978516 89.115234 L 51.003906 89.115234 L 51.005859 90.828125 C 51.013759 90.709988 51.017578 90.591018 51.017578 90.470703 L 51.017578 88.501953 C 51.017636 88.491497 51.017578 88.481179 51.017578 88.470703 L 51.017578 86.501953 z M 31.199219 86.503906 L 31.199219 88.207031 L 31.195312 88.205078 L 31.199219 88.458984 L 31.199219 88.470703 C 31.199219 88.481856 31.199159 88.492827 31.199219 88.503906 L 31.199219 90.207031 L 31.195312 90.205078 L 31.199219 90.458984 L 31.199219 90.470703 C 31.199219 90.518603 31.199662 90.565663 31.201172 90.613281 L 31.201172 91.273438 L 31.201172 91.591797 L 31.207031 91.591797 C 31.179481 93.750187 32.011755 104.14258 51.017578 104.14258 L 51.015625 102.14258 L 51.017578 102.14258 L 51.015625 100.14258 C 32.011884 100.14183 31.179482 89.750104 31.207031 87.591797 L 31.201172 87.591797 L 31.201172 87.273438 L 31.201172 86.613281 C 31.200022 86.576771 31.199418 86.540388 31.199219 86.503906 z M 31.396484 91.550781 C 31.509431 92.124694 31.685858 92.773277 31.960938 93.458984 C 31.685875 92.773311 31.509428 92.124664 31.396484 91.550781 z " /></g></svg>
