<?xml version="1.0" encoding="UTF-8" standalone="no"?>
<!-- Created with Inkscape (http://www.inkscape.org/) -->

<svg
   width="128"
   height="128"
   viewBox="0 0 128 128"
   version="1.1"
   id="svg5"
   inkscape:version="1.4.3 (0d15f75042, 2025-12-25)"
   sodipodi:docname="io.gitlab.librewolf-community.svg"
   inkscape:export-filename="/home/retro/.icons/skeuowaita/scalable/apps/skeuowaita.png"
   inkscape:export-xdpi="1536"
   inkscape:export-ydpi="1536"
   xml:space="preserve"
   xmlns:inkscape="http://www.inkscape.org/namespaces/inkscape"
   xmlns:sodipodi="http://sodipodi.sourceforge.net/DTD/sodipodi-0.dtd"
   xmlns:xlink="http://www.w3.org/1999/xlink"
   xmlns="http://www.w3.org/2000/svg"
   xmlns:svg="http://www.w3.org/2000/svg"><sodipodi:namedview
     id="namedview7"
     pagecolor="#ffffff"
     bordercolor="#666666"
     borderopacity="1"
     inkscape:pageshadow="2"
     inkscape:pageopacity="0.0"
     inkscape:pagecheckerboard="true"
     inkscape:document-units="px"
     showgrid="false"
     inkscape:showpageshadow="false"
     showborder="true"
     inkscape:snap-page="true"
     inkscape:zoom="8.396814"
     inkscape:cx="70.622024"
     inkscape:cy="86.461365"
     inkscape:window-width="1728"
     inkscape:window-height="1043"
     inkscape:window-x="0"
     inkscape:window-y="0"
     inkscape:window-maximized="1"
     inkscape:current-layer="layer2"
     inkscape:snap-bbox="true"
     inkscape:snap-bbox-midpoints="true"
     inkscape:snap-bbox-edge-midpoints="true"
     inkscape:bbox-nodes="true"
     inkscape:bbox-paths="true"
     inkscape:snap-intersection-paths="true"
     inkscape:object-paths="true"
     inkscape:snap-smooth-nodes="true"
     inkscape:snap-midpoints="true"
     inkscape:deskcolor="#d1d1d1" /><defs
     id="defs2"><linearGradient
       inkscape:collect="always"
       id="linearGradient1028"><stop
         style="stop-color:#e7f8ff;stop-opacity:1;"
         offset="0"
         id="stop1024" /><stop
         style="stop-color:#2eb6ff;stop-opacity:1;"
         offset="1"
         id="stop1026" /></linearGradient><linearGradient
       inkscape:collect="always"
       id="linearGradient5042"><stop
         style="stop-color:#0079b2;stop-opacity:1;"
         offset="0"
         id="stop5038" /><stop
         style="stop-color:#0079b2;stop-opacity:1;"
         offset="0.29999998"
         id="stop12907" /><stop
         style="stop-color:#0091d7;stop-opacity:1;"
         offset="0.49999997"
         id="stop7880" /><stop
         style="stop-color:#0079b2;stop-opacity:1;"
         offset="0.69999999"
         id="stop12905" /><stop
         style="stop-color:#0079b2;stop-opacity:1;"
         offset="1"
         id="stop5040" /></linearGradient><linearGradient
       y2="236"
       x2="96"
       y1="236"
       x1="32"
       gradientTransform="translate(604.81684,170.58641)"
       gradientUnits="userSpaceOnUse"
       id="linearGradient1099"
       xlink:href="#linearGradient1036" /><linearGradient
       id="linearGradient1036"><stop
         id="stop1032"
         offset="0"
         style="stop-color:#d5d3cf;stop-opacity:1;" /><stop
         id="stop1034"
         offset="1"
         style="stop-color:#f6f5f4;stop-opacity:1" /></linearGradient><radialGradient
       r="32"
       fy="-76"
       fx="-244"
       cy="-76"
       cx="-244"
       gradientTransform="matrix(0.88333331,0,0,0.88333331,-460.35018,463.11973)"
       gradientUnits="userSpaceOnUse"
       id="radialGradient1103"
       xlink:href="#linearGradient1069" /><linearGradient
       id="linearGradient1069"><stop
         id="stop1065"
         offset="0"
         style="stop-color:#d5d3cf;stop-opacity:1" /><stop
         id="stop1067-1"
         offset="1"
         style="stop-color:#949390;stop-opacity:1" /></linearGradient><linearGradient
       gradientUnits="userSpaceOnUse"
       y2="232"
       x2="64"
       y1="262.5"
       x1="64"
       id="linearGradient1027"
       xlink:href="#linearGradient1025"
       gradientTransform="translate(-470.5864,432.81685)" /><linearGradient
       id="linearGradient1025"><stop
         id="stop1021"
         offset="0"
         style="stop-color:#9a9996;stop-opacity:1" /><stop
         id="stop1023"
         offset="1"
         style="stop-color:#77767b;stop-opacity:1" /></linearGradient><inkscape:path-effect
       effect="spiro"
       id="path-effect35304-9"
       is_visible="true" /><clipPath
       clipPathUnits="userSpaceOnUse"
       id="clipPath1609-7"><path
         sodipodi:nodetypes="cccccc"
         inkscape:connector-curvature="0"
         id="path1611-5"
         d="m 252,116 28,-28 v -8 h -36 v 36 z"
         style="fill:#e74747;stroke:none;stroke-width:0.25px;stroke-linecap:butt;stroke-linejoin:miter;stroke-opacity:1" /></clipPath><radialGradient
       r="32"
       fy="-76"
       fx="-244"
       cy="-76"
       cx="-244"
       gradientTransform="matrix(0.88333331,0,0,0.88333331,-460.35018,463.11973)"
       gradientUnits="userSpaceOnUse"
       id="radialGradient1103-5"
       xlink:href="#linearGradient1069" /><inkscape:path-effect
       effect="spiro"
       id="path-effect35304-9-2"
       is_visible="true" /><clipPath
       clipPathUnits="userSpaceOnUse"
       id="clipPath1609-7-7"><path
         sodipodi:nodetypes="cccccc"
         inkscape:connector-curvature="0"
         id="path1611-5-0"
         d="m 252,116 28,-28 v -8 h -36 v 36 z"
         style="fill:#e74747;stroke:none;stroke-width:0.25px;stroke-linecap:butt;stroke-linejoin:miter;stroke-opacity:1" /></clipPath><clipPath
       clipPathUnits="userSpaceOnUse"
       id="clipPath744"><rect
         style="fill:#1e88e5;fill-opacity:1;stroke-width:0.264583"
         id="rect746"
         width="541.86664"
         height="541.86664"
         x="0"
         y="1.5987212e-14"
         rx="79.375"
         ry="79.375" /></clipPath><clipPath
       clipPathUnits="userSpaceOnUse"
       id="clipPath62"><rect
         style="fill:#1e88e5;fill-opacity:1;stroke-width:0.264583"
         id="rect64"
         width="541.86664"
         height="541.86664"
         x="2.2507105e-05"
         y="-0.42205024"
         rx="79.375"
         ry="79.375" /></clipPath><radialGradient
       r="32"
       fy="-76"
       fx="-244"
       cy="-76"
       cx="-244"
       gradientTransform="matrix(0.88333331,0,0,0.88333331,-460.35018,463.11973)"
       gradientUnits="userSpaceOnUse"
       id="radialGradient1103-6"
       xlink:href="#linearGradient1069" /><inkscape:path-effect
       effect="spiro"
       id="path-effect35304-9-20"
       is_visible="true" /><clipPath
       clipPathUnits="userSpaceOnUse"
       id="clipPath1609-7-2"><path
         sodipodi:nodetypes="cccccc"
         inkscape:connector-curvature="0"
         id="path1611-5-3"
         d="m 252,116 28,-28 v -8 h -36 v 36 z"
         style="fill:#e74747;stroke:none;stroke-width:0.25px;stroke-linecap:butt;stroke-linejoin:miter;stroke-opacity:1" /></clipPath><clipPath
       clipPathUnits="userSpaceOnUse"
       id="clipPath961"><rect
         style="fill:#00c853;stroke:none;stroke-width:0.529037"
         id="rect963"
         width="541.86664"
         height="541.86664"
         x="1.4210855e-14"
         y="2.717972e-05"
         rx="79.375"
         ry="79.375" /></clipPath><radialGradient
       r="32"
       fy="-76"
       fx="-244"
       cy="-76"
       cx="-244"
       gradientTransform="matrix(0.88333331,0,0,0.88333331,-460.35018,463.11973)"
       gradientUnits="userSpaceOnUse"
       id="radialGradient1103-56"
       xlink:href="#linearGradient1069" /><inkscape:path-effect
       effect="spiro"
       id="path-effect35304-9-7"
       is_visible="true" /><clipPath
       clipPathUnits="userSpaceOnUse"
       id="clipPath1440"><circle
         style="display:inline;opacity:1;vector-effect:none;fill:none;fill-opacity:1;stroke:#000000;stroke-width:2;stroke-linecap:butt;stroke-linejoin:miter;stroke-miterlimit:4;stroke-dasharray:none;stroke-dashoffset:0;stroke-opacity:1;marker:none;marker-start:none;marker-mid:none;marker-end:none;paint-order:normal;enable-background:new"
         id="circle1442"
         cx="-134.35028"
         cy="193.74727"
         r="24"
         transform="rotate(-45)" /></clipPath><clipPath
       clipPathUnits="userSpaceOnUse"
       id="clipPath1430"><circle
         style="display:inline;opacity:1;vector-effect:none;fill:none;fill-opacity:1;stroke:#000000;stroke-width:2;stroke-linecap:butt;stroke-linejoin:miter;stroke-miterlimit:4;stroke-dasharray:none;stroke-dashoffset:0;stroke-opacity:1;marker:none;marker-start:none;marker-mid:none;marker-end:none;paint-order:normal;enable-background:new"
         id="circle1432"
         cx="12"
         cy="232"
         r="24" /></clipPath><clipPath
       clipPathUnits="userSpaceOnUse"
       id="clipPath1440-9"><circle
         style="display:inline;opacity:1;vector-effect:none;fill:none;fill-opacity:1;stroke:#000000;stroke-width:2;stroke-linecap:butt;stroke-linejoin:miter;stroke-miterlimit:4;stroke-dasharray:none;stroke-dashoffset:0;stroke-opacity:1;marker:none;marker-start:none;marker-mid:none;marker-end:none;paint-order:normal;enable-background:new"
         id="circle1442-5"
         cx="-134.35028"
         cy="193.74727"
         r="24"
         transform="rotate(-45)" /></clipPath><clipPath
       clipPathUnits="userSpaceOnUse"
       id="clipPath1430-1"><circle
         style="display:inline;opacity:1;vector-effect:none;fill:none;fill-opacity:1;stroke:#000000;stroke-width:2;stroke-linecap:butt;stroke-linejoin:miter;stroke-miterlimit:4;stroke-dasharray:none;stroke-dashoffset:0;stroke-opacity:1;marker:none;marker-start:none;marker-mid:none;marker-end:none;paint-order:normal;enable-background:new"
         id="circle1432-8"
         cx="12"
         cy="232"
         r="24" /></clipPath><clipPath
       clipPathUnits="userSpaceOnUse"
       id="clipPath2024"><rect
         style="opacity:1;vector-effect:none;fill:#63452c;fill-opacity:1;stroke:none;stroke-width:4;stroke-linecap:round;stroke-linejoin:round;stroke-miterlimit:4;stroke-dasharray:none;stroke-dashoffset:0;stroke-opacity:1"
         id="rect2026"
         width="74"
         height="98"
         x="6"
         y="196" /></clipPath><linearGradient
       id="linearGradient914"
       inkscape:collect="always"><stop
         id="stop910"
         offset="0"
         style="stop-color:#f6f5f4;stop-opacity:0.43700787" /><stop
         id="stop912"
         offset="1"
         style="stop-color:#deddda;stop-opacity:0;" /></linearGradient><radialGradient
       gradientTransform="matrix(2.6086955,0,0,1.8410361,-102.95652,-748.94671)"
       gradientUnits="userSpaceOnUse"
       r="46"
       fy="296"
       fx="64.000008"
       cy="296"
       cx="64.000008"
       id="radialGradient916"
       xlink:href="#linearGradient914"
       inkscape:collect="always" /><clipPath
       clipPathUnits="userSpaceOnUse"
       id="clipPath11543"><rect
         style="fill:#f0c04e;fill-opacity:1;stroke:none;stroke-width:0.529037"
         id="rect11545"
         width="541.86664"
         height="541.86664"
         x="1.4746095e-06"
         y="6.4330168e-05"
         rx="79.375"
         ry="79.375" /></clipPath><style
       id="style374">.cls-1{fill:url(#linear-gradient);}.cls-2{opacity:0.35;fill:url(#radial-gradient);}.cls-2,.cls-4{isolation:isolate;}.cls-3{fill:url(#linear-gradient-2);}.cls-4{opacity:0.41;fill:url(#radial-gradient-2);}.cls-5{fill:url(#radial-gradient-3);}.cls-6{fill:url(#radial-gradient-4);}</style><linearGradient
       id="linear-gradient"
       x1="63.33"
       y1="84.03"
       x2="241.67"
       y2="84.03"
       gradientTransform="matrix(1,0,0,-1,0,266)"
       gradientUnits="userSpaceOnUse"><stop
         offset="0"
         stop-color="#0c59a4"
         id="stop376" /><stop
         offset="1"
         stop-color="#114a8b"
         id="stop378" /></linearGradient><radialGradient
       id="radial-gradient"
       cx="161.83"
       cy="68.91"
       r="95.38"
       gradientTransform="matrix(1,0,0,-0.95,0,248.84)"
       gradientUnits="userSpaceOnUse"><stop
         offset="0.72"
         stop-opacity="0"
         id="stop381" /><stop
         offset="0.95"
         stop-opacity="0.53"
         id="stop383" /><stop
         offset="1"
         id="stop385" /></radialGradient><linearGradient
       id="linear-gradient-2"
       x1="157.35"
       y1="161.39"
       x2="45.96"
       y2="40.06"
       gradientTransform="matrix(1,0,0,-1,0,266)"
       gradientUnits="userSpaceOnUse"><stop
         offset="0"
         stop-color="#1b9de2"
         id="stop388" /><stop
         offset="0.16"
         stop-color="#1595df"
         id="stop390" /><stop
         offset="0.67"
         stop-color="#0680d7"
         id="stop392" /><stop
         offset="1"
         stop-color="#0078d4"
         id="stop394" /></linearGradient><radialGradient
       id="radial-gradient-2"
       cx="-340.29"
       cy="62.99"
       r="143.24"
       gradientTransform="matrix(0.15,-0.99,-0.8,-0.12,176.64,-125.4)"
       gradientUnits="userSpaceOnUse"><stop
         offset="0.76"
         stop-opacity="0"
         id="stop397" /><stop
         offset="0.95"
         stop-opacity="0.5"
         id="stop399" /><stop
         offset="1"
         id="stop401" /></radialGradient><radialGradient
       id="radial-gradient-3"
       cx="113.37"
       cy="570.21"
       r="202.43"
       gradientTransform="matrix(-0.04,1,2.13,0.08,-1179.54,-106.69)"
       gradientUnits="userSpaceOnUse"><stop
         offset="0"
         stop-color="#35c1f1"
         id="stop404" /><stop
         offset="0.11"
         stop-color="#34c1ed"
         id="stop406" /><stop
         offset="0.23"
         stop-color="#2fc2df"
         id="stop408" /><stop
         offset="0.31"
         stop-color="#2bc3d2"
         id="stop410" /><stop
         offset="0.67"
         stop-color="#36c752"
         id="stop412" /></radialGradient><radialGradient
       id="radial-gradient-4"
       cx="376.52"
       cy="567.97"
       r="97.34"
       gradientTransform="matrix(0.28,0.96,0.78,-0.23,-303.76,-148.5)"
       gradientUnits="userSpaceOnUse"><stop
         offset="0"
         stop-color="#66eb6e"
         id="stop415" /><stop
         offset="1"
         stop-color="#66eb6e"
         stop-opacity="0"
         id="stop417" /></radialGradient><clipPath
       clipPathUnits="userSpaceOnUse"
       id="clipPath1260"><rect
         style="fill:#bbdefb;fill-opacity:1;stroke:none;stroke-width:0.529037"
         id="rect1262"
         width="541.86664"
         height="541.86664"
         x="2.9492187e-06"
         y="3.9968629e-05"
         rx="79.375"
         ry="79.375" /></clipPath><clipPath
       clipPathUnits="userSpaceOnUse"
       id="clipPath16285"><rect
         style="fill:#bbdefb;fill-opacity:1;stroke:none;stroke-width:0.529037"
         id="rect16287"
         width="541.86664"
         height="541.86664"
         x="0"
         y="6.4807005e-05"
         rx="79.375"
         ry="79.375" /></clipPath><clipPath
       clipPathUnits="userSpaceOnUse"
       id="clipPath990"><rect
         style="fill:#bbdefb;fill-opacity:1;stroke:none;stroke-width:0.529037"
         id="rect992"
         width="487.67996"
         height="487.67996"
         x="27.093349"
         y="27.093338"
         rx="71.4375"
         ry="71.4375" /></clipPath><linearGradient
       id="linearGradient4292"><stop
         id="stop4294"
         offset="0"
         style="stop-color:#411f5d;stop-opacity:1" /><stop
         id="stop4296"
         offset="1"
         style="stop-color:#5b2a85;stop-opacity:1" /></linearGradient><linearGradient
       id="linearGradient4284"><stop
         offset="0"
         style="stop-color:#8381c5;stop-opacity:1"
         id="stop4286" /><stop
         id="stop4290"
         style="stop-color:#7e55b3;stop-opacity:0.99607843"
         offset="0.56639391" /><stop
         offset="1"
         style="stop-color:#a52ecb;stop-opacity:0.99215686"
         id="stop4288" /></linearGradient><linearGradient
       id="linearGradient4898"><stop
         id="stop4278"
         style="stop-color:#bab8db;stop-opacity:1"
         offset="0" /><stop
         id="stop4280"
         style="stop-color:#5955a9;stop-opacity:0.99159664"
         offset="1" /></linearGradient><linearGradient
       id="linearGradient3294"><stop
         offset="0"
         style="stop-color:#6376e6;stop-opacity:1"
         id="stop3296" /><stop
         offset="0.50094414"
         style="stop-color:#222989;stop-opacity:1"
         id="stop3302" /><stop
         offset="1"
         style="stop-color:#00003d;stop-opacity:1"
         id="stop3298" /></linearGradient><linearGradient
       id="linearGradient3284"><stop
         offset="0"
         style="stop-color:#000000;stop-opacity:1"
         id="stop3286" /><stop
         offset="0.84845906"
         style="stop-color:#000000;stop-opacity:0.49803922"
         id="stop3292" /><stop
         offset="1"
         style="stop-color:#000000;stop-opacity:0"
         id="stop3288" /></linearGradient><linearGradient
       id="linearGradient3274"><stop
         offset="0"
         style="stop-color:#000000;stop-opacity:1"
         id="stop3276" /><stop
         offset="1"
         style="stop-color:#000000;stop-opacity:0"
         id="stop3278" /></linearGradient><linearGradient
       id="linearGradient3242"><stop
         offset="0"
         style="stop-color:#282828;stop-opacity:1"
         id="stop3244" /><stop
         offset="0.39253417"
         style="stop-color:#808080;stop-opacity:1"
         id="stop3252" /><stop
         offset="1"
         style="stop-color:#d9d9d9;stop-opacity:1"
         id="stop3246" /></linearGradient><linearGradient
       id="linearGradient3202"><stop
         offset="0"
         style="stop-color:#2b2b2b;stop-opacity:1"
         id="stop3204" /><stop
         offset="0.5"
         style="stop-color:#828383;stop-opacity:1"
         id="stop3250" /><stop
         offset="1"
         style="stop-color:#dadbdb;stop-opacity:1"
         id="stop3206" /></linearGradient><linearGradient
       id="linearGradient4966"><stop
         offset="0"
         style="stop-color:#b6b3d8;stop-opacity:1"
         id="stop4968" /><stop
         offset="1"
         style="stop-color:#b6b3d8;stop-opacity:0"
         id="stop4970" /></linearGradient><linearGradient
       id="linearGradient4876"><stop
         offset="0"
         style="stop-color:#d3d2e8;stop-opacity:1"
         id="stop4878" /><stop
         offset="1"
         style="stop-color:#5955a9;stop-opacity:0.99159664"
         id="stop4880" /></linearGradient><radialGradient
       gradientTransform="matrix(0.6817439,0,0,0.5905355,-3.8523706,-28.935273)"
       gradientUnits="userSpaceOnUse"
       xlink:href="#linearGradient4898"
       id="radialGradient4892"
       fy="-108.96888"
       fx="20.951529"
       r="266.76535"
       cy="-108.96888"
       cx="20.951529" /><radialGradient
       gradientTransform="matrix(1,0,0,0.1854103,0,383.88493)"
       gradientUnits="userSpaceOnUse"
       xlink:href="#linearGradient3274"
       id="radialGradient4944"
       fy="471.26172"
       fx="233.8876"
       r="170.49393"
       cy="471.26172"
       cx="233.8876" /><radialGradient
       gradientTransform="matrix(1,0,0,0.9121621,0,32.654948)"
       gradientUnits="userSpaceOnUse"
       xlink:href="#linearGradient4966"
       id="radialGradient4972"
       fy="371.76376"
       fx="299.70135"
       r="76.696358"
       cy="371.76376"
       cx="299.70135" /><radialGradient
       gradientTransform="matrix(0.414705,0.3300575,-0.5059004,0.6356454,346.95314,49.479585)"
       gradientUnits="userSpaceOnUse"
       xlink:href="#linearGradient3202"
       id="radialGradient3210"
       fy="390.45248"
       fx="289.44067"
       r="17.67668"
       cy="390.45248"
       cx="289.44067" /><radialGradient
       gradientTransform="matrix(0.414705,0.3300575,-0.5059004,0.6356454,448.41009,-65.398074)"
       gradientUnits="userSpaceOnUse"
       xlink:href="#linearGradient3202"
       id="radialGradient3238"
       fy="382.14804"
       fx="283.50717"
       r="17.67668"
       cy="382.14804"
       cx="283.50717" /><radialGradient
       gradientTransform="matrix(-6.5565014e-2,-5.9721765e-2,1.6871024,-1.8521705,171.90774,540.51473)"
       gradientUnits="userSpaceOnUse"
       xlink:href="#linearGradient3242"
       id="radialGradient3248"
       fy="181.18982"
       fx="418.45551"
       r="63.068935"
       cy="181.18982"
       cx="418.45551" /><radialGradient
       gradientTransform="matrix(0.4055116,-3.3440123e-2,0.1034174,4.3988695,177.23251,-1191.6649)"
       gradientUnits="userSpaceOnUse"
       xlink:href="#linearGradient3274"
       id="radialGradient3268"
       fy="357.33591"
       fx="354.51709"
       r="33.712105"
       cy="357.33591"
       cx="354.51709" /><radialGradient
       gradientTransform="matrix(-0.1339874,-0.1146812,0.3079048,-0.3597394,444.23592,395.03849)"
       gradientUnits="userSpaceOnUse"
       xlink:href="#linearGradient3274"
       id="radialGradient3280"
       fy="223.55537"
       fx="510.58469"
       r="132.28336"
       cy="223.55537"
       cx="510.58469" /><radialGradient
       gradientTransform="matrix(-1.2497569,1.3798305,-9.6289463e-2,-7.2974479e-2,674.3826,-70.590682)"
       gradientUnits="userSpaceOnUse"
       xlink:href="#linearGradient3284"
       id="radialGradient3290"
       fy="-158.17821"
       fx="284.4671"
       r="110.2972"
       cy="-158.17821"
       cx="284.4671" /><radialGradient
       gradientTransform="matrix(-0.1008165,-8.0872321e-2,1.0745309,-1.3395252,13.843287,784.79288)"
       gradientUnits="userSpaceOnUse"
       xlink:href="#linearGradient3294"
       id="radialGradient3300"
       fy="356.62274"
       fx="425.51019"
       r="143.34167"
       cy="356.62274"
       cx="425.51019" /><linearGradient
       y2="300.73987"
       x2="236.61363"
       y1="-161.8512"
       x1="-122.20192"
       spreadMethod="pad"
       gradientTransform="matrix(0.17595114,0,0,0.16675393,-57.890895,62.668437)"
       gradientUnits="userSpaceOnUse"
       id="linearGradient4245"
       xlink:href="#linearGradient4284" /><linearGradient
       y2="66.018341"
       x2="173.94518"
       y1="396.6066"
       x1="447.80933"
       gradientTransform="matrix(0.19870189,0,0,0.19870189,-106.81348,12.782767)"
       gradientUnits="userSpaceOnUse"
       id="linearGradient4247"
       xlink:href="#linearGradient4292" /><linearGradient
       inkscape:collect="always"
       xlink:href="#linearGradient1028"
       id="linearGradient625"
       x1="64"
       y1="5"
       x2="64"
       y2="115"
       gradientUnits="userSpaceOnUse" /><linearGradient
       inkscape:collect="always"
       xlink:href="#linearGradient5042"
       id="linearGradient5044"
       x1="9"
       y1="115"
       x2="119"
       y2="115"
       gradientUnits="userSpaceOnUse" /><filter
       style="color-interpolation-filters:sRGB;"
       inkscape:label="Drop Shadow"
       id="filter36"
       x="-0.026247735"
       y="-0.027741904"
       width="1.0524955"
       height="1.0959407"><feFlood
         result="flood"
         in="SourceGraphic"
         flood-opacity="0.203922"
         flood-color="rgb(93,28,28)"
         id="feFlood35" /><feGaussianBlur
         result="blur"
         in="SourceGraphic"
         stdDeviation="1"
         id="feGaussianBlur35" /><feOffset
         result="offset"
         in="blur"
         dx="0.000000"
         dy="3.500000"
         id="feOffset35" /><feComposite
         result="comp1"
         operator="in"
         in="flood"
         in2="offset"
         id="feComposite35" /><feComposite
         result="comp2"
         operator="over"
         in="SourceGraphic"
         in2="comp1"
         id="feComposite36" /></filter></defs><g
     inkscape:groupmode="layer"
     id="layer2"
     inkscape:label="Layer 1"><path
       id="circle1035"
       style="fill:url(#linearGradient5044);fill-opacity:1"
       d="M 64 5 A 55 55 0 0 0 9 60 L 9 68 A 55 55 0 0 0 64 123 A 55 55 0 0 0 119 68 L 119 60 A 55 55 0 0 0 64 5 z " /><circle
       style="fill:url(#linearGradient625);fill-opacity:1;stroke-width:1"
       id="path953"
       cx="64"
       cy="60"
       r="55"
       inkscape:export-filename="/home/retro/.icons/skeuowaita/scalable/apps/skeuwaita.png"
       inkscape:export-xdpi="1536"
       inkscape:export-ydpi="1536" /><text
       xml:space="preserve"
       style="font-style:normal;font-variant:normal;font-weight:normal;font-stretch:normal;font-size:40px;line-height:1.25;font-family:'DejaVu Math TeX Gyre';-inkscape-font-specification:'DejaVu Math TeX Gyre';fill:#000000;fill-opacity:1;stroke:none"
       x="57.303368"
       y="70.244858"
       id="text3441"><tspan
         sodipodi:role="line"
         id="tspan3439"
         x="57.303368"
         y="70.244858" /></text><text
       xml:space="preserve"
       style="font-size:40px;line-height:1.25;font-family:Caladea;-inkscape-font-specification:Caladea"
       x="43.168587"
       y="70.812454"
       id="text13903"><tspan
         sodipodi:role="line"
         id="tspan13901"
         x="43.168587"
         y="70.812454" /></text><rect
       style="display:none;fill:none;stroke-width:0.20135"
       id="rect4772"
       y="12.314822"
       x="-107.39003"
       height="103.09106"
       width="103.09106" /><g
       style="display:none"
       id="g4788"
       transform="matrix(0.20134972,0,0,0.20134972,-107.42446,12.274351)"><g
         style="display:inline"
         id="g4790" /></g><g
       style="display:none"
       id="g4806"
       transform="matrix(0.20134972,0,0,0.20134972,-107.42446,12.274351)"><g
         style="display:inline"
         id="g4808"><path
           style="display:none;fill:#050505"
           id="path4810"
           d="m 349.098,256.651 c -0.265,-0.254 37.637,27.605 39.421,25.012 6.362,-9.252 82.046,-93.137 84.784,-116.236 0.242,-2.003 -0.516,-4.096 -0.516,-4.096 0,0 -1.19,-0.144 -6.325,-4.314 -2.692,-2.192 -5.483,-4.581 -5.483,-4.581 -16.054,0.998 -57.885,41.559 -111.062,103.568" /></g></g><circle
       style="fill:#ececec;fill-opacity:1;stroke-width:0.954354"
       id="circle466"
       cx="64"
       cy="60"
       r="52.489449"
       inkscape:export-filename="/home/retro/.icons/skeuowaita/scalable/apps/skeuwaita.png"
       inkscape:export-xdpi="1536"
       inkscape:export-ydpi="1536" /><circle
       style="fill:#00acff;fill-opacity:1;stroke:none;stroke-width:0.837128;stroke-miterlimit:4;stroke-dasharray:none"
       id="path875"
       cx="64"
       cy="59.999992"
       r="52.946758" /><path
       id="path1"
       style="mix-blend-mode:normal;fill:#008fd3;fill-opacity:1;stroke-width:0.225869"
       d="m 63.996094,22.095703 c -7.109526,-0.0068 -13.343774,1.622976 -19.513672,5.101563 -5.616756,3.166723 -11.423412,8.978948 -14.603516,14.61914 -2.342117,4.153963 -4.057683,9.083223 -4.726562,13.587891 -0.257466,1.733948 -0.366822,4.472518 -0.326172,7.009766 0.02865,-1.879631 0.138998,-3.695051 0.328125,-4.96875 0.668879,-4.504668 2.380539,-9.433928 4.722656,-13.587891 3.180105,-5.640192 8.988712,-11.452417 14.605469,-14.61914 6.169896,-3.478587 12.404146,-5.110285 19.513672,-5.103517 6.716103,0.0068 11.827737,1.217094 17.794922,4.208985 3.932573,1.971749 6.990026,4.244305 10.347656,7.691406 5.385591,5.52913 8.803818,11.990917 10.390618,19.640626 0.35141,1.693989 0.57555,4.683001 0.6211,7.5 0.057,-3.295922 -0.1826,-7.427142 -0.6211,-9.541016 C 100.94248,45.985057 97.524263,39.523271 92.138672,33.99414 88.781041,30.547039 85.723589,28.274484 81.791016,26.302734 75.823831,23.310845 70.712197,22.102515 63.996094,22.095703 Z m 25.966797,18.978516 c -0.126643,0.904649 -0.421478,1.917404 -0.917969,3.212891 -0.22445,0.585636 -0.328426,1.144578 -0.230469,1.242187 0.128459,0.128012 0.426763,-0.114435 0.671875,-0.447266 0.473761,-1.471325 0.621583,-2.560094 0.517578,-3.658203 -0.01077,-0.113743 -0.02449,-0.230428 -0.04102,-0.349609 z m 4.828125,6.166015 a 1.8393011,1.3430709 0 0 1 -0.01563,0.0039 c 0.0077,0.113108 0.01271,0.226666 0.01563,0.341796 z m 0,0.761719 c -0.01646,0.649591 -0.109076,1.297971 -0.28711,1.833985 -0.477445,1.437434 -1.920885,3.095369 -3.230469,3.710937 -1.171812,0.550825 -3.544109,2.867693 -4.654296,4.544922 -0.424969,0.642033 -1.222605,1.980779 -1.771485,2.97461 -0.548889,0.993813 -1.468521,2.494522 -2.044922,3.335936 -1.13418,1.655651 -2.105519,3.965768 -3.042968,7.236329 -0.55071,1.921281 -0.596379,2.42013 -0.619141,6.705078 -0.02755,5.176171 -0.295959,6.447221 -1.695313,8.041016 -1.590915,1.811941 -3.179,5.791934 -3.3125,8.300781 -0.08426,1.583583 -0.327136,3.126324 -0.673827,4.269533 -0.09025,0.29757 -0.02842,0.41795 0.388671,0.35547 0.139582,-0.80551 0.237478,-1.689904 0.285156,-2.585941 0.133499,-2.508848 1.723538,-6.486886 3.314454,-8.298827 1.399353,-1.593794 1.663858,-2.864845 1.691406,-8.041016 0.02276,-4.284949 0.07039,-4.783798 0.621094,-6.705078 0.937449,-3.270561 1.908788,-5.580679 3.042968,-7.236329 0.576401,-0.841415 1.497987,-2.342124 2.046876,-3.335937 0.54888,-0.99383 1.344562,-2.332576 1.769531,-2.974609 1.110187,-1.677229 3.482485,-3.994096 4.654296,-4.544922 1.309584,-0.615567 2.753025,-2.273504 3.230469,-3.710938 0.216779,-0.652664 0.307562,-1.472655 0.28711,-2.257812 z m -49.28711,6.443359 v 1.863281 c -0.0032,0.194747 0.03115,0.404867 0.0957,0.638672 0.280451,1.01572 1.770386,3.013955 3.562499,4.775391 l 0.541016,0.53125 0.808594,-1.246094 -1.34961,-1.326172 c -1.792113,-1.761435 -3.282049,-3.759671 -3.562499,-4.77539 -0.04505,-0.163136 -0.07517,-0.31407 -0.08789,-0.457031 a 2.4421282,1.7843162 0 0 1 -0.0078,-0.0039 z m -27.68164,7.736329 c -0.03691,2.671969 0.07102,5.527323 0.324219,7.458984 1.037557,7.914942 4.182367,15.40346 9.240234,22.001953 1.806189,2.356347 5.945229,6.520202 8.15039,8.201172 6.761054,5.15393 14.507601,8.38252 22.607422,9.42188 2.608035,0.33464 9.317983,0.28832 12.158204,-0.084 8.220086,-1.07756 16.504775,-4.68213 23.003905,-10.00975 2.369324,-1.942252 5.939799,-5.69969 7.76758,-8.17188 6.15067,-8.319312 9.11133,-17.260965 9.11133,-27.515625 0,-0.368011 -0.004,-0.731912 -0.01,-1.091797 -0.17795,9.859001 -3.14332,18.50668 -9.10352,26.568359 -1.827755,2.472189 -5.398249,6.227675 -7.767572,8.169922 -6.499131,5.327641 -14.781867,8.932211 -23.001953,10.009761 -2.840221,0.37232 -9.55017,0.41869 -12.158204,0.084 -8.099821,-1.03935 -15.84832,-4.26794 -22.609375,-9.421876 -2.205162,-1.680969 -6.342248,-5.844826 -8.148437,-8.201172 -5.057867,-6.598494 -8.202677,-14.087011 -9.240234,-22.001953 -0.189287,-1.443953 -0.296967,-3.404376 -0.324219,-5.417968 z" /><path
       id="path36"
       style="mix-blend-mode:normal;fill:#11638a;fill-opacity:1;stroke-width:0.223585"
       d="M 63.996136 21.195846 C 56.958489 21.189115 50.78727 22.802413 44.67975 26.245831 C 39.119781 29.380538 33.371831 35.134001 30.223878 40.71717 C 27.90544 44.829136 26.207219 49.70856 25.545102 54.167685 C 25.290239 55.884103 25.181989 58.594985 25.222228 61.106581 C 25.250583 59.245954 25.359821 57.448888 25.547035 56.188066 C 26.209152 51.728941 27.903507 46.849517 30.221945 42.737551 C 33.369898 37.154382 39.11978 31.400919 44.67975 28.266212 C 50.787268 24.822794 56.958489 23.207593 63.996136 23.214293 C 70.644339 23.220993 75.704293 24.419082 81.611149 27.380724 C 85.503963 29.332538 88.530505 31.582119 91.854189 34.994369 C 97.185331 40.467599 100.569 46.864056 102.13976 54.436425 C 102.48761 56.113288 102.70949 59.072081 102.75458 61.860599 C 102.81099 58.598 102.57382 54.508547 102.13976 52.416044 C 100.56899 44.843675 97.185331 38.447219 91.854189 32.973988 C 88.530504 29.561738 85.503963 27.312158 81.611149 25.360343 C 75.704293 22.398702 70.644339 21.202589 63.996136 21.195846 z M 89.700405 39.982486 C 89.575043 40.877989 89.283189 41.880505 88.791717 43.162894 C 88.569536 43.74261 88.466612 44.295901 88.563578 44.392523 C 88.690739 44.519241 88.986027 44.279245 89.228661 43.949779 C 89.697632 42.493329 89.843959 41.415568 89.741006 40.328561 C 89.730342 40.215968 89.716759 40.100462 89.700405 39.982486 z M 94.479717 46.086162 A 1.8207055 1.3294923 0 0 1 94.46425 46.090029 C 94.471827 46.201994 94.476828 46.314404 94.479717 46.42837 L 94.479717 46.086162 z M 94.479717 46.84018 C 94.46342 47.483203 94.371744 48.125028 94.19551 48.655623 C 93.722892 50.078524 92.294046 51.719697 90.997702 52.329042 C 89.837737 52.874298 87.489424 55.167742 86.390461 56.828014 C 85.969789 57.463556 85.180217 58.788767 84.636886 59.77255 C 84.093547 60.756316 83.183212 62.241852 82.612639 63.07476 C 81.489925 64.713672 80.528407 67.000433 79.600435 70.237928 C 79.055293 72.139785 79.010086 72.63359 78.987554 76.875217 C 78.960283 81.999056 78.694587 83.257256 77.309381 84.834937 C 75.73455 86.628559 74.162521 90.568314 74.030371 93.051796 C 73.946963 94.619369 73.706542 96.146513 73.363356 97.278162 C 73.274022 97.57272 73.33522 97.691891 73.748098 97.630037 C 73.886269 96.832671 73.983175 95.957221 74.030371 95.070243 C 74.16252 92.58676 75.736484 88.64894 77.311315 86.855318 C 78.696521 85.277638 78.958351 84.019437 78.985621 78.895598 C 79.008151 74.653971 79.055294 74.160165 79.600435 72.258309 C 80.528407 69.020814 81.489925 66.734052 82.612639 65.095141 C 83.183212 64.262233 84.095481 62.776696 84.63882 61.79293 C 85.182151 60.809148 85.969789 59.483937 86.390461 58.848395 C 87.489424 57.188123 89.837738 54.89468 90.997702 54.349423 C 92.294046 53.740079 93.722893 52.098904 94.19551 50.676003 C 94.410097 50.029938 94.499963 49.218237 94.479717 48.441018 L 94.479717 46.84018 z M 45.690907 53.218396 L 45.690907 55.062839 C 45.687707 55.255617 45.721743 55.463612 45.785643 55.695054 C 46.063259 56.700504 47.538131 58.678537 49.312125 60.422165 L 49.847671 60.948044 L 50.64809 59.714548 L 49.312125 58.401784 C 47.538131 56.658157 46.063258 54.680123 45.785643 53.674673 C 45.741054 53.513187 45.711235 53.363779 45.698641 53.222263 A 2.4174379 1.7662765 0 0 1 45.690907 53.218396 z M 18.289132 60.876509 C 18.252595 63.521464 18.359437 66.34795 18.610073 68.260082 C 19.637141 76.095003 22.750156 83.507811 27.756887 90.039592 C 29.544816 92.372116 33.642009 96.493875 35.824876 98.157849 C 42.517575 103.25967 50.185803 106.45562 58.203734 107.48447 C 60.785401 107.81573 67.42751 107.76988 70.239016 107.40133 C 78.375996 106.33466 86.576926 102.76653 93.010349 97.492767 C 95.355718 95.570156 98.890095 91.850706 100.6994 89.403511 C 106.78788 81.168308 109.71861 72.317056 109.71861 62.166072 C 109.71861 61.801782 109.7149 61.44156 109.70894 61.085314 C 109.53279 70.844639 106.5974 79.404889 100.69746 87.385063 C 98.888181 89.832258 95.353785 93.549775 93.008416 95.472386 C 86.574993 100.74616 78.375996 104.31429 70.239016 105.38095 C 67.42751 105.7495 60.7854 105.7954 58.203734 105.46409 C 50.185803 104.43525 42.515642 101.2393 35.822943 96.137468 C 33.640075 94.473494 29.544816 90.351734 27.756887 88.019211 C 22.750156 81.487429 19.637141 74.074622 18.610073 66.239701 C 18.4227 64.810346 18.316109 62.869744 18.289132 60.876509 z "
       transform="matrix(1.0102134,0,0,1.0102134,-0.65366058,-1.3166244)" /><path
       id="path2"
       style="mix-blend-mode:normal;fill:#008fd3;fill-opacity:1;stroke-width:0.225869"
       d="m 63.996094,23.142967 c -7.109526,-0.0068 -13.343774,1.622976 -19.513672,5.101563 -5.616756,3.166723 -11.423412,8.978948 -14.603516,14.61914 -2.342117,4.153963 -4.057683,9.083223 -4.726562,13.587891 -0.257466,1.733948 -0.366822,4.472518 -0.326172,7.009766 0.02865,-1.879631 0.138998,-3.695051 0.328125,-4.96875 0.668879,-4.504668 2.380539,-9.433928 4.722656,-13.587891 3.180105,-5.640192 8.988712,-11.452417 14.605469,-14.61914 6.169896,-3.478587 12.404146,-5.110285 19.513672,-5.103517 6.716103,0.0068 11.827737,1.217094 17.794922,4.208985 3.932573,1.971749 6.990026,4.244305 10.347656,7.691406 5.385591,5.52913 8.803818,11.990917 10.390618,19.640626 0.35141,1.693989 0.57555,4.683001 0.6211,7.5 0.057,-3.295922 -0.1826,-7.427142 -0.6211,-9.541016 C 100.94248,47.032321 97.524263,40.570535 92.138672,35.041404 88.781041,31.594303 85.723589,29.321748 81.791016,27.349998 75.823831,24.358109 70.712197,23.149779 63.996094,23.142967 Z m 25.966797,18.978516 c -0.126643,0.904649 -0.421478,1.917404 -0.917969,3.212891 -0.22445,0.585636 -0.328426,1.144578 -0.230469,1.242187 0.128459,0.128012 0.426763,-0.114435 0.671875,-0.447266 0.473761,-1.471325 0.621583,-2.560094 0.517578,-3.658203 -0.01077,-0.113743 -0.02449,-0.230428 -0.04102,-0.349609 z m 4.828125,6.166015 a 1.8393011,1.3430709 0 0 1 -0.01563,0.0039 c 0.0077,0.113108 0.01271,0.226666 0.01563,0.341796 z m 0,0.761719 c -0.01646,0.649591 -0.109076,1.297971 -0.28711,1.833985 -0.477445,1.437434 -1.920885,3.095369 -3.230469,3.710937 -1.171812,0.550825 -3.544109,2.867693 -4.654296,4.544922 -0.424969,0.642033 -1.222605,1.980779 -1.771485,2.97461 -0.548889,0.993813 -1.468521,2.494522 -2.044922,3.335936 -1.13418,1.655651 -2.105519,3.965768 -3.042968,7.236329 -0.55071,1.921281 -0.596379,2.42013 -0.619141,6.705078 -0.02755,5.176171 -0.295959,6.447221 -1.695313,8.041016 -1.590915,1.811941 -3.179,5.791934 -3.3125,8.300781 -0.08426,1.583583 -0.327136,3.126324 -0.673827,4.269469 -0.09025,0.29757 -0.02842,0.41795 0.388671,0.35547 0.139582,-0.805478 0.237478,-1.68984 0.285156,-2.585877 0.133499,-2.508848 1.723538,-6.486886 3.314454,-8.298827 1.399353,-1.593794 1.663858,-2.864845 1.691406,-8.041016 0.02276,-4.284949 0.07039,-4.783798 0.621094,-6.705078 0.937449,-3.270561 1.908788,-5.580679 3.042968,-7.236329 0.576401,-0.841415 1.497987,-2.342124 2.046876,-3.335937 0.54888,-0.99383 1.344562,-2.332576 1.769531,-2.974609 1.110187,-1.677229 3.482485,-3.994096 4.654296,-4.544922 1.309584,-0.615567 2.753025,-2.273504 3.230469,-3.710938 0.216779,-0.652664 0.307562,-1.472655 0.28711,-2.257812 z m -49.28711,6.443359 v 1.863281 c -0.0032,0.194747 0.03115,0.404867 0.0957,0.638672 0.280451,1.01572 1.770386,3.013955 3.562499,4.775391 l 0.541016,0.53125 0.808594,-1.246094 -1.34961,-1.326172 c -1.792113,-1.761435 -3.282049,-3.759671 -3.562499,-4.77539 -0.04505,-0.163136 -0.07517,-0.31407 -0.08789,-0.457031 a 2.4421282,1.7843162 0 0 1 -0.0078,-0.0039 z m -27.68164,7.736329 c -0.03691,2.671969 0.07102,5.527323 0.324219,7.458984 1.037557,7.914942 4.182367,15.40346 9.240234,22.001953 1.806189,2.356347 5.945229,6.520194 8.15039,8.201108 6.761054,5.15393 14.507601,8.38252 22.607422,9.42188 2.608035,0.33464 9.317983,0.28832 12.158204,-0.084 8.220086,-1.07756 16.504775,-4.68213 23.003905,-10.00975 2.369324,-1.942188 5.939799,-5.699626 7.76758,-8.171816 6.15067,-8.319312 9.11133,-17.260965 9.11133,-27.515625 0,-0.368011 -0.004,-0.731912 -0.01,-1.091797 -0.17795,9.859001 -3.14332,18.50668 -9.10352,26.568359 -1.827755,2.472189 -5.398249,6.227675 -7.767572,8.169922 -6.499131,5.327577 -14.781867,8.932147 -23.001953,10.009697 -2.840221,0.37232 -9.55017,0.41869 -12.158204,0.084 C 50.04448,107.23247 42.295981,104.00388 35.534926,98.850008 33.329764,97.169039 29.192678,93.005182 27.386489,90.648836 22.328622,84.050342 19.183812,76.561825 18.146255,68.646883 17.956968,67.20293 17.849288,65.242507 17.822036,63.228915 Z" /><path
       style="mix-blend-mode:normal;fill:#cbedff;fill-opacity:1;stroke-width:0.225869"
       d="m 58.144431,105.22448 c -8.099821,-1.03934 -15.847578,-4.26821 -22.608632,-9.422147 -2.205162,-1.680969 -6.342703,-5.84533 -8.148893,-8.201676 -5.057867,-6.598494 -8.202921,-14.086996 -9.240479,-22.001938 -0.444191,-3.388473 -0.441723,-9.618333 0.005,-12.715277 2.233346,-15.481726 11.97642,-28.760973 25.967324,-35.391939 6.50758,-3.084277 12.464101,-4.389834 20.028367,-4.389834 12.234696,0 23.094455,4.383602 31.894782,12.874485 4.23944,4.090382 7.08234,7.970043 9.51671,12.987409 3.29293,6.786884 4.62657,12.690314 4.62657,20.480095 0,10.25466 -2.96139,19.197549 -9.11206,27.516862 -1.827767,2.472189 -5.398208,6.227537 -7.767531,8.169784 -6.49913,5.327636 -14.783322,8.932576 -23.003408,10.010136 -2.840221,0.37231 -9.549746,0.4187 -12.15778,0.084 z m 17.14414,-8.30706 c 4.948564,-1.559936 8.981276,-3.65622 12.874475,-6.692449 2.070152,-1.614469 5.648292,-5.226946 7.148526,-7.217153 4.069088,-5.397986 6.837808,-12.159668 7.652448,-18.688587 0.39239,-3.144631 0.16449,-9.797229 -0.43452,-12.68492 C 100.94268,43.984602 97.52416,37.523091 92.138569,31.99396 88.780938,28.546859 85.72426,26.274822 81.791687,24.303073 75.824502,21.311183 70.711273,20.10226 63.995169,20.095448 c -7.109525,-0.0068 -13.343486,1.622391 -19.513384,5.100978 -5.616755,3.166723 -11.423236,8.979836 -14.60334,14.620028 -2.342117,4.153963 -4.056372,9.08359 -4.725251,13.588258 -0.438561,2.95356 -0.447211,8.818594 -0.01717,11.646595 0.860619,5.659674 3.007452,11.253326 6.119675,15.945001 1.69951,2.562012 1.646148,2.533585 3.145359,1.675812 2.681861,-1.534393 3.381228,-2.276613 4.842191,-5.138845 1.708414,-3.34702 3.534995,-6.271947 5.185378,-8.303386 1.905098,-2.344991 2.167015,-2.762369 3.122721,-4.976409 0.48088,-1.114029 1.343644,-2.750094 1.917247,-3.635678 l 1.042916,-1.610183 -1.349197,-1.326117 c -1.792113,-1.761436 -3.282807,-3.758899 -3.563258,-4.774618 -0.286426,-1.03735 0.05158,-1.616177 1.39788,-2.393822 1.361362,-0.786354 2.334946,-1.012287 5.97343,-1.386248 1.771594,-0.182088 3.694964,-0.515603 4.300747,-0.745786 0.602736,-0.229024 2.403647,-1.209213 4.002025,-2.17822 4.614875,-2.797712 5.005298,-2.942512 7.772044,-2.882534 2.336824,0.05071 2.341221,0.04968 3.726822,-0.787821 2.903644,-1.75519 7.073631,-4.9221 12.561042,-9.539522 1.052271,-0.885431 2.065924,-1.580475 2.252574,-1.544536 0.776193,0.149563 2.201738,3.647512 2.418299,5.934097 0.131346,1.386793 -0.13698,2.758221 -0.959553,4.904547 -0.22445,0.585637 -0.327948,1.144656 -0.229991,1.242265 0.235171,0.234353 1.042688,-0.774282 1.042688,-1.302348 0,-0.673293 0.445835,-0.75014 1.052285,-0.18137 0.440896,0.413485 0.820965,0.531856 1.707693,0.531856 0.968193,0 1.20786,0.0898 1.585741,0.593987 0.641235,0.855585 0.791607,3.187415 0.300836,4.665006 -0.477445,1.437434 -1.920428,3.095201 -3.230012,3.710769 -1.171812,0.550825 -3.544185,2.867117 -4.654372,4.544346 -0.424968,0.642033 -1.221753,1.980441 -1.770633,2.974271 -0.548889,0.993814 -1.469584,2.495359 -2.045984,3.336774 -1.134181,1.65565 -2.105411,3.965148 -3.042861,7.235709 -0.55071,1.921281 -0.596923,2.421467 -0.619685,6.706415 -0.02755,5.176171 -0.295193,6.446283 -1.694546,8.040077 -1.590916,1.811941 -3.178975,5.791088 -3.312474,8.299935 -0.08426,1.583583 -0.328231,3.127248 -0.674922,4.270455 -0.15267,0.503397 0.132354,0.497517 1.830453,-0.03773 z"
       id="path847"
       inkscape:connector-curvature="0" /><path
       sodipodi:type="star"
       style="fill:#00acff;fill-opacity:1;stroke:none;stroke-width:1.5;stroke-miterlimit:4;stroke-dasharray:none"
       id="path814"
       sodipodi:sides="4"
       sodipodi:cx="18.854025"
       sodipodi:cy="172.98837"
       sodipodi:r1="1.6036172"
       sodipodi:r2="1.1339285"
       sodipodi:arg1="1.5707963"
       sodipodi:arg2="2.3561945"
       inkscape:flatsided="true"
       inkscape:rounded="0"
       inkscape:randomized="0"
       d="m 18.854025,174.59199 -1.603617,-1.60362 1.603617,-1.60361 1.603617,1.60361 z"
       transform="matrix(0.41847211,0.72481494,-1.7925681,1.0349397,371.0414,-145.37863)" /><path
       id="path46"
       style="mix-blend-mode:normal;fill:#ffffff;fill-opacity:1;stroke-width:0.225869"
       d="M 64.146484 13.101562 C 56.582218 13.101562 50.626721 14.40791 44.119141 17.492188 C 30.128237 24.123154 20.38569 37.401086 18.152344 52.882812 C 17.907825 54.577959 17.796283 57.212008 17.818359 59.804688 C 17.836782 57.651864 17.948269 55.582735 18.152344 54.167969 C 20.38569 38.686243 30.128237 25.40831 44.119141 18.777344 C 50.626721 15.693067 56.582218 14.386719 64.146484 14.386719 C 76.38118 14.386719 87.240689 18.770836 96.041016 27.261719 C 100.28046 31.352101 103.12422 35.230681 105.55859 40.248047 C 108.75497 46.835935 110.10521 52.592512 110.18164 60.048828 C 110.18394 59.847657 110.18555 59.645545 110.18555 59.443359 C 110.18555 51.653578 108.85152 45.749775 105.55859 38.962891 C 103.12422 33.945525 100.28046 30.066944 96.041016 25.976562 C 87.240689 17.48568 76.38118 13.101562 64.146484 13.101562 z M 87.566406 31.447266 C 87.336262 31.456197 86.353372 32.134426 85.333984 32.992188 C 79.846573 37.609609 75.675128 40.778013 72.771484 42.533203 C 71.385883 43.370704 71.381746 43.371023 69.044922 43.320312 C 66.278176 43.260334 65.888312 43.405413 61.273438 46.203125 C 59.67506 47.172132 57.87422 48.151835 57.271484 48.380859 C 56.665701 48.611042 54.742297 48.944865 52.970703 49.126953 C 49.332219 49.500914 48.357456 49.727318 46.996094 50.513672 C 45.649794 51.291317 45.313183 51.8689 45.599609 52.90625 C 45.608424 52.938175 45.617729 52.972033 45.628906 53.005859 C 45.82437 52.591143 46.258607 52.224813 46.996094 51.798828 C 48.357456 51.012474 49.332219 50.78607 52.970703 50.412109 C 54.742297 50.230021 56.665701 49.896199 57.271484 49.666016 C 57.87422 49.436992 59.67506 48.457288 61.273438 47.488281 C 65.888312 44.690569 66.278176 44.545491 69.044922 44.605469 C 71.381746 44.656179 71.385883 44.65586 72.771484 43.818359 C 75.675128 42.063169 79.846573 38.896719 85.333984 34.279297 C 86.386255 33.393866 87.399287 32.698436 87.585938 32.734375 C 88.362131 32.883938 89.787345 36.381384 90.003906 38.667969 C 90.00467 38.676029 90.005123 38.683346 90.005859 38.691406 C 90.046638 38.240621 90.044647 37.81297 90.003906 37.382812 C 89.787345 35.096228 88.362131 31.598782 87.585938 31.449219 C 87.580105 31.448096 87.57383 31.446978 87.566406 31.447266 z M 90.191406 41.666016 C 89.982517 41.679664 89.857422 41.868876 89.857422 42.226562 C 89.857422 42.624783 89.397001 43.296298 89.070312 43.501953 C 89.06145 43.52524 89.053917 43.548794 89.044922 43.572266 C 88.820472 44.157903 88.716496 44.716844 88.814453 44.814453 C 89.049624 45.048806 89.857422 44.039785 89.857422 43.511719 C 89.857422 42.838426 90.303706 42.761308 90.910156 43.330078 C 91.351052 43.743563 91.73046 43.863281 92.617188 43.863281 C 93.58538 43.863281 93.825244 43.952844 94.203125 44.457031 C 94.509081 44.865261 94.703397 45.610258 94.769531 46.4375 C 94.871191 45.163228 94.663748 43.786473 94.203125 43.171875 C 93.825244 42.667688 93.58538 42.578125 92.617188 42.578125 C 91.73046 42.578125 91.351052 42.458407 90.910156 42.044922 C 90.625883 41.778311 90.37572 41.653973 90.191406 41.666016 z M 50.001953 59.792969 L 49.46875 60.617188 C 48.895147 61.502771 48.031661 63.139877 47.550781 64.253906 C 46.595075 66.467946 46.332832 66.885478 44.427734 69.230469 C 42.777351 71.261908 40.952555 74.186183 39.244141 77.533203 C 37.783178 80.395435 37.082252 81.137482 34.400391 82.671875 C 32.90118 83.529648 32.955369 83.558106 31.255859 80.996094 C 28.143636 76.304419 25.997338 70.710455 25.136719 65.050781 C 24.945964 63.796356 24.841155 61.94405 24.822266 60.013672 C 24.799217 62.381921 24.903817 64.804345 25.136719 66.335938 C 25.997338 71.995611 28.143636 77.589575 31.255859 82.28125 C 32.955369 84.843262 32.90118 84.814804 34.400391 83.957031 C 37.082252 82.422638 37.783178 81.680591 39.244141 78.818359 C 40.952555 75.471339 42.777351 72.547064 44.427734 70.515625 C 46.332832 68.170634 46.595075 67.753102 47.550781 65.539062 C 48.031661 64.425033 48.895147 62.787928 49.46875 61.902344 L 50.511719 60.292969 L 50.001953 59.792969 z M 103.15625 60.822266 C 103.14175 62.16762 103.08015 63.394292 102.96484 64.318359 C 102.1502 70.847278 99.381588 77.609826 95.3125 83.007812 C 93.812266 84.99802 90.232261 88.61014 88.162109 90.224609 C 84.26891 93.260838 80.237627 95.358033 75.289062 96.917969 C 74.45697 97.180247 73.96357 97.315746 73.695312 97.326172 C 73.623053 97.652093 73.544645 97.95777 73.458984 98.240234 C 73.306314 98.743631 73.590964 98.738372 75.289062 98.203125 C 80.237627 96.643189 84.26891 94.545995 88.162109 91.509766 C 90.232261 89.895297 93.812266 86.283176 95.3125 84.292969 C 99.381588 78.894983 102.1502 72.134388 102.96484 65.605469 C 103.11605 64.393701 103.175 62.659679 103.15625 60.822266 z " /><path
       id="path3"
       style="mix-blend-mode:normal;fill:#e8f7ff;fill-opacity:1;stroke-width:0.225869"
       d="M 63.996094 19.261719 C 56.886569 19.254919 50.65232 20.884694 44.482422 24.363281 C 38.865667 27.530004 33.05901 33.34223 29.878906 38.982422 C 27.536789 43.136385 25.821223 48.065645 25.152344 52.570312 C 24.915877 54.162836 24.805432 56.602142 24.820312 58.955078 C 24.833434 56.872874 24.943735 54.809208 25.152344 53.404297 C 25.821223 48.899629 27.536789 43.970369 29.878906 39.816406 C 33.05901 34.176214 38.865667 28.363989 44.482422 25.197266 C 50.65232 21.718679 56.886569 20.088903 63.996094 20.095703 C 70.712198 20.102515 75.823831 21.310844 81.791016 24.302734 C 85.723589 26.274483 88.781041 28.54704 92.138672 31.994141 C 97.524263 37.523272 100.94248 43.985057 102.5293 51.634766 C 102.90718 53.45645 103.13826 56.775176 103.1582 59.767578 C 103.18023 56.578918 102.9427 52.793701 102.5293 50.800781 C 100.94248 43.151072 97.524263 36.689287 92.138672 31.160156 C 88.781041 27.713055 85.723589 25.440499 81.791016 23.46875 C 75.823831 20.47686 70.712198 19.268531 63.996094 19.261719 z M 90.023438 37.630859 C 89.960386 38.693308 89.655485 39.859993 89.044922 41.453125 C 88.820472 42.038762 88.716496 42.597703 88.814453 42.695312 C 88.836719 42.717501 88.863175 42.729102 88.894531 42.730469 C 88.935094 42.589598 88.986639 42.439182 89.044922 42.287109 C 89.81824 40.269302 90.1014 38.935547 90.023438 37.630859 z M 94.783203 45.376953 C 94.753684 45.955734 94.662905 46.523248 94.503906 47.001953 C 94.026461 48.439387 92.583021 50.097323 91.273438 50.712891 C 90.101625 51.263716 87.729328 53.580584 86.619141 55.257812 C 86.194173 55.899845 85.396536 57.238592 84.847656 58.232422 C 84.298767 59.226236 83.379134 60.726944 82.802734 61.568359 C 81.668553 63.224009 80.697216 65.534126 79.759766 68.804688 C 79.209056 70.725968 79.163387 71.226771 79.140625 75.511719 C 79.113075 80.68789 78.844665 81.956987 77.445312 83.550781 C 75.854397 85.362722 74.266312 89.342715 74.132812 91.851562 C 74.048552 93.435146 73.805675 94.977887 73.458984 96.121094 C 73.392466 96.340424 73.407556 96.463969 73.587891 96.488281 C 73.865166 95.408743 74.059551 94.062418 74.132812 92.685547 C 74.266312 90.1767 75.854397 86.196707 77.445312 84.384766 C 78.844665 82.790972 79.113075 81.519921 79.140625 76.34375 C 79.163387 72.058802 79.209056 71.559953 79.759766 69.638672 C 80.697216 66.368111 81.668553 64.057994 82.802734 62.402344 C 83.379134 61.560929 84.298767 60.06022 84.847656 59.066406 C 85.396536 58.072576 86.194173 56.73383 86.619141 56.091797 C 87.729328 54.414568 90.101625 52.0977 91.273438 51.546875 C 92.583021 50.931307 94.026461 49.273372 94.503906 47.835938 C 94.739388 47.12696 94.826337 46.221826 94.783203 45.376953 z M 45.558594 51.908203 C 45.473198 52.200532 45.493287 52.521182 45.599609 52.90625 C 45.88006 53.921969 47.369996 55.920205 49.162109 57.681641 L 50.181641 58.683594 L 50.511719 58.173828 L 49.162109 56.847656 C 47.369996 55.08622 45.88006 53.087985 45.599609 52.072266 C 45.583998 52.015725 45.570433 51.962126 45.558594 51.908203 z M 17.816406 58.744141 C 17.802624 61.234808 17.912286 63.813045 18.146484 65.599609 C 19.184042 73.514551 22.328852 81.003068 27.386719 87.601562 C 29.192909 89.957909 33.329994 94.121765 35.535156 95.802734 C 42.29621 100.95667 50.04471 104.18527 58.144531 105.22461 C 60.752565 105.55931 67.462513 105.51293 70.302734 105.14062 C 78.52282 104.06307 86.805558 100.4585 93.304688 95.130859 C 95.67401 93.188612 99.244499 89.433127 101.07227 86.960938 C 107.22294 78.641624 110.18555 69.698019 110.18555 59.443359 C 110.18555 59.295439 110.18456 59.148532 110.18359 59.001953 C 110.10895 69.092827 107.14445 77.913794 101.07227 86.126953 C 99.244499 88.599142 95.67401 92.354628 93.304688 94.296875 C 86.805558 99.624483 78.52282 103.22908 70.302734 104.30664 C 67.462513 104.67895 60.752565 104.72532 58.144531 104.39062 C 50.04471 103.35128 42.29621 100.12263 35.535156 94.96875 C 33.329994 93.287781 29.192909 89.123924 27.386719 86.767578 C 22.328852 80.169084 19.184042 72.680567 18.146484 64.765625 C 17.938353 63.177913 17.828656 60.964915 17.816406 58.744141 z " /></g></svg>
