<?xml version="1.0" encoding="UTF-8" standalone="no"?>
<!-- Created with Inkscape (http://www.inkscape.org/) -->

<svg
   width="128"
   height="128"
   viewBox="0 0 128 128"
   version="1.1"
   id="svg5"
   inkscape:version="1.4.3 (0d15f75042, 2025-12-25)"
   sodipodi:docname="io.missioncenter.MissionCenter.svg"
   xml:space="preserve"
   xmlns:inkscape="http://www.inkscape.org/namespaces/inkscape"
   xmlns:sodipodi="http://sodipodi.sourceforge.net/DTD/sodipodi-0.dtd"
   xmlns:xlink="http://www.w3.org/1999/xlink"
   xmlns="http://www.w3.org/2000/svg"
   xmlns:svg="http://www.w3.org/2000/svg"><sodipodi:namedview
     id="namedview7"
     pagecolor="#ffffff"
     bordercolor="#666666"
     borderopacity="1"
     inkscape:pageshadow="2"
     inkscape:pageopacity="0.0"
     inkscape:pagecheckerboard="true"
     inkscape:document-units="px"
     showgrid="false"
     inkscape:showpageshadow="false"
     showborder="true"
     inkscape:snap-page="true"
     inkscape:zoom="4"
     inkscape:cx="29.875"
     inkscape:cy="70.375001"
     inkscape:window-width="1728"
     inkscape:window-height="1043"
     inkscape:window-x="0"
     inkscape:window-y="0"
     inkscape:window-maximized="1"
     inkscape:current-layer="layer2"
     inkscape:deskcolor="#d1d1d1"
     showguides="true" /><defs
     id="defs2"><inkscape:path-effect
       effect="fillet_chamfer"
       id="path-effect2"
       is_visible="true"
       lpeversion="1"
       nodesatellites_param="F,0,1,1,0,3.4606601,0,1 @ F,0,1,1,0,3.4606601,0,1 @ F,0,1,1,0,3.4606601,0,1 @ F,0,1,1,0,3.4606601,0,1"
       radius="0"
       unit="px"
       method="auto"
       mode="F"
       chamfer_steps="1"
       flexible="false"
       use_knot_distance="true"
       apply_no_radius="true"
       apply_with_radius="true"
       only_selected="false"
       hide_knots="false" /><inkscape:path-effect
       effect="fillet_chamfer"
       id="path-effect1"
       is_visible="true"
       lpeversion="1"
       nodesatellites_param="F,0,0,1,0,1.3272894,0,1 @ F,0,1,1,0,1.3272894,0,1 @ F,0,0,1,0,0,0,1 @ F,0,0,1,0,0,0,1"
       radius="0"
       unit="px"
       method="auto"
       mode="F"
       chamfer_steps="1"
       flexible="false"
       use_knot_distance="true"
       apply_no_radius="true"
       apply_with_radius="true"
       only_selected="false"
       hide_knots="false" /><linearGradient
       id="linearGradient16"
       x1="49.9392"
       y1="0.257812"
       x2="49.9392"
       y2="99.7423"
       gradientUnits="userSpaceOnUse"
       gradientTransform="matrix(0.76242929,0,0,0.76242929,22.69079,21.878509)"><stop
         stop-color="white"
         id="stop15"
         offset="0"
         style="stop-color:#3b3b3b;stop-opacity:1;" /><stop
         offset="1"
         stop-color="white"
         stop-opacity="0"
         id="stop16" /></linearGradient><linearGradient
       id="linearGradient7"
       x1="49.9392"
       y1="0.257812"
       x2="49.9392"
       y2="99.7423"
       gradientUnits="userSpaceOnUse"
       gradientTransform="matrix(0.76242929,0,0,0.76242929,26.69079,21.878509)"><stop
         stop-color="white"
         id="stop6"
         offset="0"
         style="stop-color:#000000;stop-opacity:1;" /><stop
         offset="1"
         stop-color="white"
         stop-opacity="0"
         id="stop7"
         style="stop-color:#000000;stop-opacity:1;" /></linearGradient><linearGradient
       inkscape:collect="always"
       id="linearGradient404"><stop
         style="stop-color:#eceaea;stop-opacity:1;"
         offset="0"
         id="stop400" /><stop
         style="stop-color:#ffffff;stop-opacity:1;"
         offset="1"
         id="stop402" /></linearGradient><linearGradient
       y2="236"
       x2="96"
       y1="236"
       x1="32"
       gradientTransform="translate(604.81684,170.58641)"
       gradientUnits="userSpaceOnUse"
       id="linearGradient1099"
       xlink:href="#linearGradient1036" /><linearGradient
       id="linearGradient1036"><stop
         id="stop1032"
         offset="0"
         style="stop-color:#d5d3cf;stop-opacity:1;" /><stop
         id="stop1034"
         offset="1"
         style="stop-color:#f6f5f4;stop-opacity:1" /></linearGradient><radialGradient
       r="32"
       fy="-76"
       fx="-244"
       cy="-76"
       cx="-244"
       gradientTransform="matrix(0.88333331,0,0,0.88333331,-460.35018,463.11973)"
       gradientUnits="userSpaceOnUse"
       id="radialGradient1103"
       xlink:href="#linearGradient1069" /><linearGradient
       id="linearGradient1069"><stop
         id="stop1065"
         offset="0"
         style="stop-color:#d5d3cf;stop-opacity:1" /><stop
         id="stop1067-1"
         offset="1"
         style="stop-color:#949390;stop-opacity:1" /></linearGradient><linearGradient
       gradientUnits="userSpaceOnUse"
       y2="232"
       x2="64"
       y1="262.5"
       x1="64"
       id="linearGradient1027"
       xlink:href="#linearGradient1025"
       gradientTransform="translate(-470.5864,432.81685)" /><linearGradient
       id="linearGradient1025"><stop
         id="stop1021"
         offset="0"
         style="stop-color:#9a9996;stop-opacity:1" /><stop
         id="stop1023"
         offset="1"
         style="stop-color:#77767b;stop-opacity:1" /></linearGradient><inkscape:path-effect
       effect="spiro"
       id="path-effect35304-9"
       is_visible="true" /><clipPath
       clipPathUnits="userSpaceOnUse"
       id="clipPath1609-7"><path
         sodipodi:nodetypes="cccccc"
         inkscape:connector-curvature="0"
         id="path1611-5"
         d="m 252,116 28,-28 v -8 h -36 v 36 z"
         style="fill:#e74747;stroke:none;stroke-width:0.25px;stroke-linecap:butt;stroke-linejoin:miter;stroke-opacity:1" /></clipPath><linearGradient
       inkscape:collect="always"
       id="linearGradient8241"><stop
         style="stop-color:#d2d2d1;stop-opacity:1;"
         offset="0"
         id="stop8237" /><stop
         style="stop-color:#e2e1df;stop-opacity:1;"
         offset="0.05"
         id="stop9349" /><stop
         style="stop-color:#d2d2d1;stop-opacity:1;"
         offset="0.1"
         id="stop21746" /><stop
         style="stop-color:#d2d2d1;stop-opacity:1;"
         offset="0.89999998"
         id="stop21940" /><stop
         style="stop-color:#e2e1df;stop-opacity:1;"
         offset="0.94999999"
         id="stop9351" /><stop
         style="stop-color:#d2d2d1;stop-opacity:1;"
         offset="1"
         id="stop8239" /></linearGradient><radialGradient
       r="32"
       fy="-76"
       fx="-244"
       cy="-76"
       cx="-244"
       gradientTransform="matrix(0.88333331,0,0,0.88333331,-460.35018,463.11973)"
       gradientUnits="userSpaceOnUse"
       id="radialGradient1103-5"
       xlink:href="#linearGradient1069" /><inkscape:path-effect
       effect="spiro"
       id="path-effect35304-9-2"
       is_visible="true" /><clipPath
       clipPathUnits="userSpaceOnUse"
       id="clipPath1609-7-7"><path
         sodipodi:nodetypes="cccccc"
         inkscape:connector-curvature="0"
         id="path1611-5-0"
         d="m 252,116 28,-28 v -8 h -36 v 36 z"
         style="fill:#e74747;stroke:none;stroke-width:0.25px;stroke-linecap:butt;stroke-linejoin:miter;stroke-opacity:1" /></clipPath><clipPath
       clipPathUnits="userSpaceOnUse"
       id="clipPath744"><rect
         style="fill:#1e88e5;fill-opacity:1;stroke-width:0.264583"
         id="rect746"
         width="541.86664"
         height="541.86664"
         x="0"
         y="1.5987212e-14"
         rx="79.375"
         ry="79.375" /></clipPath><clipPath
       clipPathUnits="userSpaceOnUse"
       id="clipPath62"><rect
         style="fill:#1e88e5;fill-opacity:1;stroke-width:0.264583"
         id="rect64"
         width="541.86664"
         height="541.86664"
         x="2.2507105e-05"
         y="-0.42205024"
         rx="79.375"
         ry="79.375" /></clipPath><linearGradient
       inkscape:collect="always"
       xlink:href="#linearGradient8241"
       id="linearGradient8243"
       x1="11.5"
       y1="120.5"
       x2="116.5"
       y2="120.5"
       gradientUnits="userSpaceOnUse" /><radialGradient
       r="32"
       fy="-76"
       fx="-244"
       cy="-76"
       cx="-244"
       gradientTransform="matrix(0.88333331,0,0,0.88333331,-460.35018,463.11973)"
       gradientUnits="userSpaceOnUse"
       id="radialGradient1103-6"
       xlink:href="#linearGradient1069" /><inkscape:path-effect
       effect="spiro"
       id="path-effect35304-9-20"
       is_visible="true" /><clipPath
       clipPathUnits="userSpaceOnUse"
       id="clipPath1609-7-2"><path
         sodipodi:nodetypes="cccccc"
         inkscape:connector-curvature="0"
         id="path1611-5-3"
         d="m 252,116 28,-28 v -8 h -36 v 36 z"
         style="fill:#e74747;stroke:none;stroke-width:0.25px;stroke-linecap:butt;stroke-linejoin:miter;stroke-opacity:1" /></clipPath><radialGradient
       r="32"
       fy="-76"
       fx="-244"
       cy="-76"
       cx="-244"
       gradientTransform="matrix(0.88333331,0,0,0.88333331,-460.35018,463.11973)"
       gradientUnits="userSpaceOnUse"
       id="radialGradient1103-56"
       xlink:href="#linearGradient1069" /><inkscape:path-effect
       effect="spiro"
       id="path-effect35304-9-7"
       is_visible="true" /><clipPath
       clipPathUnits="userSpaceOnUse"
       id="clipPath1609-7-0"><path
         sodipodi:nodetypes="cccccc"
         inkscape:connector-curvature="0"
         id="path1611-5-9"
         d="m 252,116 28,-28 v -8 h -36 v 36 z"
         style="fill:#e74747;stroke:none;stroke-width:0.25px;stroke-linecap:butt;stroke-linejoin:miter;stroke-opacity:1" /></clipPath><clipPath
       clipPathUnits="userSpaceOnUse"
       id="clipPath37"><rect
         style="fill:#1a1a1a;fill-opacity:1;stroke-width:0.264583"
         id="rect39"
         width="541.86664"
         height="541.86664"
         x="-2.6626146e-06"
         y="3.2408705"
         rx="79.375"
         ry="79.375" /></clipPath><clipPath
       clipPathUnits="userSpaceOnUse"
       id="clipPath22042"><rect
         style="fill:#333333;fill-opacity:1;stroke-width:0.0133797"
         id="rect22044"
         width="27.31955"
         height="27.483929"
         x="166.96844"
         y="105.40438"
         rx="4.0018873"
         ry="4.0259666" /></clipPath><clipPath
       clipPathUnits="userSpaceOnUse"
       id="clipPath1039"><rect
         style="fill:#b3b3b3;fill-opacity:1;stroke-width:0.264583"
         id="rect1041"
         width="541.8667"
         height="541.86682"
         x="2.5931527e-05"
         y="-0.00010962487"
         rx="79.375008"
         ry="79.375031" /></clipPath><clipPath
       clipPathUnits="userSpaceOnUse"
       id="clipPath154"><rect
         style="fill:#b3b3b3;fill-opacity:1;stroke-width:0.264583"
         id="rect156"
         width="541.8667"
         height="541.86682"
         x="-2.9218751e-05"
         y="-0.00016368683"
         rx="79.375008"
         ry="79.375031" /></clipPath><linearGradient
       inkscape:collect="always"
       xlink:href="#linearGradient404"
       id="linearGradient406"
       x1="64"
       y1="112.5"
       x2="64"
       y2="7.5"
       gradientUnits="userSpaceOnUse" /><linearGradient
       id="paint0_linear"
       x1="49.9392"
       y1="0.257812"
       x2="49.9392"
       y2="99.7423"
       gradientUnits="userSpaceOnUse"
       gradientTransform="matrix(0.76242929,0,0,0.76242929,51.80343,-76.046413)"><stop
         stop-color="white"
         id="stop585" /><stop
         offset="1"
         stop-color="white"
         stop-opacity="0"
         id="stop587" /></linearGradient><filter
       style="color-interpolation-filters:sRGB;"
       inkscape:label="Drop Shadow"
       id="filter47"
       x="-0.031459186"
       y="-0.031641392"
       width="1.0629184"
       height="1.0896506"><feFlood
         result="flood"
         in="SourceGraphic"
         flood-opacity="0.254902"
         flood-color="rgb(0,0,0)"
         id="feFlood46" /><feGaussianBlur
         result="blur"
         in="SourceGraphic"
         stdDeviation="1.000000"
         id="feGaussianBlur46" /><feOffset
         result="offset"
         in="blur"
         dx="0.000000"
         dy="2.000000"
         id="feOffset46" /><feComposite
         result="comp1"
         operator="in"
         in="flood"
         in2="offset"
         id="feComposite46" /><feComposite
         result="comp2"
         operator="over"
         in="SourceGraphic"
         in2="comp1"
         id="feComposite47" /></filter><inkscape:path-effect
       effect="fillet_chamfer"
       id="path-effect2-7"
       is_visible="true"
       lpeversion="1"
       nodesatellites_param="F,0,0,1,0,3.4606601,0,1 @ F,0,1,1,0,3.4606601,0,1 @ F,0,1,1,0,3.4606601,0,1 @ F,0,1,1,0,3.4606601,0,1"
       radius="0"
       unit="px"
       method="auto"
       mode="F"
       chamfer_steps="1"
       flexible="false"
       use_knot_distance="true"
       apply_no_radius="true"
       apply_with_radius="true"
       only_selected="false"
       hide_knots="false" /><inkscape:path-effect
       effect="fillet_chamfer"
       id="path-effect2-5"
       is_visible="true"
       lpeversion="1"
       nodesatellites_param="F,0,1,1,0,3.4606601,0,1 @ F,0,1,1,0,3.4606601,0,1 @ F,0,1,1,0,3.4606601,0,1 @ F,0,1,1,0,3.4606601,0,1"
       radius="0"
       unit="px"
       method="auto"
       mode="F"
       chamfer_steps="1"
       flexible="false"
       use_knot_distance="true"
       apply_no_radius="true"
       apply_with_radius="true"
       only_selected="false"
       hide_knots="false" /><clipPath
       id="q"><rect
         width="192"
         height="152"
         id="rect2"
         x="0"
         y="0" /></clipPath><mask
       id="p"><g
         filter="url(#b)"
         id="g3"><rect
           width="128"
           height="128"
           fill-opacity="0.236"
           id="rect3"
           x="0"
           y="0" /></g></mask><filter
       id="b"
       x="0"
       y="0"
       width="1"
       height="1"><feColorMatrix
         in="SourceGraphic"
         values="0 0 0 0 1 0 0 0 0 1 0 0 0 0 1 0 0 0 1 0"
         id="feColorMatrix3" /></filter><clipPath
       id="o"><rect
         width="192"
         height="152"
         id="rect4"
         x="0"
         y="0" /></clipPath><mask
       id="n"><g
         filter="url(#b)"
         id="g5"><rect
           width="128"
           height="128"
           fill-opacity="0.236"
           id="rect5"
           x="0"
           y="0" /></g></mask><filter
       id="filter1"
       x="0"
       y="0"
       width="1"
       height="1"><feColorMatrix
         in="SourceGraphic"
         values="0 0 0 0 1 0 0 0 0 1 0 0 0 0 1 0 0 0 1 0"
         id="feColorMatrix1" /></filter><clipPath
       id="m"><rect
         width="192"
         height="152"
         id="rect6"
         x="0"
         y="0" /></clipPath><mask
       id="l"><g
         filter="url(#b)"
         id="g7"><rect
           width="128"
           height="128"
           fill-opacity="0.236"
           id="rect7"
           x="0"
           y="0" /></g></mask><filter
       id="filter2"
       x="0"
       y="0"
       width="1"
       height="1"><feColorMatrix
         in="SourceGraphic"
         values="0 0 0 0 1 0 0 0 0 1 0 0 0 0 1 0 0 0 1 0"
         id="feColorMatrix2" /></filter><clipPath
       id="j"><rect
         width="192"
         height="152"
         id="rect8"
         x="0"
         y="0" /></clipPath><mask
       id="i"><g
         filter="url(#b)"
         id="g9"><rect
           width="128"
           height="128"
           fill-opacity="0.236"
           id="rect9"
           x="0"
           y="0" /></g></mask><filter
       id="filter4"
       x="0"
       y="0"
       width="1"
       height="1"><feColorMatrix
         in="SourceGraphic"
         values="0 0 0 0 1 0 0 0 0 1 0 0 0 0 1 0 0 0 1 0"
         id="feColorMatrix4" /></filter><linearGradient
       id="linearGradient1"
       x1="36.417999"
       x2="21.723"
       y1="218.39999"
       y2="218.39999"
       gradientTransform="matrix(1.0208,0,0,0.9305,-8.9252,-173.6599)"
       xlink:href="#g" /><linearGradient
       id="g"
       gradientUnits="userSpaceOnUse"><stop
         stop-color="#4fd2fd"
         offset="0"
         id="stop1" /><stop
         stop-color="#4fd2fd"
         stop-opacity="0"
         offset="1"
         id="stop2" /></linearGradient><linearGradient
       id="linearGradient2"
       x1="36.417999"
       x2="21.723"
       y1="218.39999"
       y2="218.39999"
       gradientTransform="matrix(1.0208,0,0,0.9305,-8.9252,-157.6599)"
       xlink:href="#g" /><linearGradient
       id="linearGradient3"
       x1="36.417999"
       x2="21.723"
       y1="218.39999"
       y2="218.39999"
       gradientTransform="matrix(1.0208,0,0,0.9305,-8.9252,-141.6599)"
       xlink:href="#g" /><linearGradient
       id="k"
       x1="36.417999"
       x2="21.723"
       y1="218.39999"
       y2="218.39999"
       gradientTransform="matrix(1.0208,0,0,0.9305,-8.9252,-125.6599)"
       xlink:href="#g" /><clipPath
       id="j-0"><rect
         width="192"
         height="152"
         id="rect8-6"
         x="0"
         y="0" /></clipPath><mask
       id="i-2"><g
         filter="url(#b)"
         id="g9-6"
         style="filter:url(#b-8)"><rect
           width="128"
           height="128"
           fill-opacity="0.236"
           id="rect9-1"
           x="0"
           y="0" /></g></mask><filter
       id="b-8"
       x="0"
       y="0"
       width="1"
       height="1"><feColorMatrix
         in="SourceGraphic"
         values="0 0 0 0 1 0 0 0 0 1 0 0 0 0 1 0 0 0 1 0"
         id="feColorMatrix3-7" /></filter><clipPath
       id="m-9"><rect
         width="192"
         height="152"
         id="rect6-2"
         x="0"
         y="0" /></clipPath><mask
       id="l-0"><g
         filter="url(#b)"
         id="g7-2"
         style="filter:url(#b-8)"><rect
           width="128"
           height="128"
           fill-opacity="0.236"
           id="rect7-3"
           x="0"
           y="0" /></g></mask><filter
       id="filter8"
       x="0"
       y="0"
       width="1"
       height="1"><feColorMatrix
         in="SourceGraphic"
         values="0 0 0 0 1 0 0 0 0 1 0 0 0 0 1 0 0 0 1 0"
         id="feColorMatrix8" /></filter><clipPath
       id="o-7"><rect
         width="192"
         height="152"
         id="rect4-5"
         x="0"
         y="0" /></clipPath><mask
       id="n-9"><g
         filter="url(#b)"
         id="g5-2"
         style="filter:url(#b-8)"><rect
           width="128"
           height="128"
           fill-opacity="0.236"
           id="rect5-2"
           x="0"
           y="0" /></g></mask><filter
       id="filter9"
       x="0"
       y="0"
       width="1"
       height="1"><feColorMatrix
         in="SourceGraphic"
         values="0 0 0 0 1 0 0 0 0 1 0 0 0 0 1 0 0 0 1 0"
         id="feColorMatrix9" /></filter><clipPath
       id="q-8"><rect
         width="192"
         height="152"
         id="rect2-9"
         x="0"
         y="0" /></clipPath><mask
       id="p-7"><g
         filter="url(#b)"
         id="g3-3"
         style="filter:url(#b-8)"><rect
           width="128"
           height="128"
           fill-opacity="0.236"
           id="rect3-6"
           x="0"
           y="0" /></g></mask><filter
       id="filter10"
       x="0"
       y="0"
       width="1"
       height="1"><feColorMatrix
         in="SourceGraphic"
         values="0 0 0 0 1 0 0 0 0 1 0 0 0 0 1 0 0 0 1 0"
         id="feColorMatrix10" /></filter><clipPath
       id="q-8-6"><rect
         width="192"
         height="152"
         id="rect2-9-3"
         x="0"
         y="0" /></clipPath><mask
       id="p-7-2"><g
         filter="url(#b)"
         id="g3-3-0"
         style="filter:url(#b-8-1)"><rect
           width="128"
           height="128"
           fill-opacity="0.236"
           id="rect3-6-6"
           x="0"
           y="0" /></g></mask><filter
       id="b-8-1"
       x="0"
       y="0"
       width="1"
       height="1"><feColorMatrix
         in="SourceGraphic"
         values="0 0 0 0 1 0 0 0 0 1 0 0 0 0 1 0 0 0 1 0"
         id="feColorMatrix3-7-5" /></filter><clipPath
       id="q-8-3"><rect
         width="192"
         height="152"
         id="rect2-9-0"
         x="0"
         y="0" /></clipPath><mask
       id="p-7-7"><g
         filter="url(#b)"
         id="g3-3-8"
         style="filter:url(#b-8-8)"><rect
           width="128"
           height="128"
           fill-opacity="0.236"
           id="rect3-6-68"
           x="0"
           y="0" /></g></mask><filter
       id="b-8-8"
       x="0"
       y="0"
       width="1"
       height="1"><feColorMatrix
         in="SourceGraphic"
         values="0 0 0 0 1 0 0 0 0 1 0 0 0 0 1 0 0 0 1 0"
         id="feColorMatrix3-7-4" /></filter><linearGradient
       inkscape:collect="always"
       xlink:href="#g"
       id="linearGradient18"
       gradientTransform="matrix(1.0208,0,0,0.9305,-8.9252,-173.6599)"
       x1="36.417999"
       y1="218.39999"
       x2="21.723"
       y2="218.39999" /><linearGradient
       inkscape:collect="always"
       xlink:href="#g"
       id="linearGradient19"
       gradientTransform="matrix(1.0208,0,0,0.9305,-8.9252,-173.6599)"
       x1="36.417999"
       y1="218.39999"
       x2="21.723"
       y2="218.39999" /><linearGradient
       inkscape:collect="always"
       xlink:href="#g"
       id="linearGradient20"
       gradientTransform="matrix(1.0208,0,0,0.9305,-8.9252,-173.6599)"
       x1="36.417999"
       y1="218.39999"
       x2="21.723"
       y2="218.39999" /><linearGradient
       inkscape:collect="always"
       xlink:href="#g"
       id="linearGradient21"
       gradientTransform="matrix(1.0208,0,0,0.9305,-8.9252,-173.6599)"
       x1="36.417999"
       y1="218.39999"
       x2="21.723"
       y2="218.39999" /><linearGradient
       id="h"
       x1="93.539001"
       x2="58.923"
       y1="240.42"
       y2="240.42"
       gradientTransform="matrix(0.975,0,0,0.98939,6.0497,-187.26545)"
       xlink:href="#g" /><clipPath
       id="f"><rect
         width="192"
         height="152"
         id="rect10"
         x="0"
         y="0" /></clipPath><mask
       id="e"><g
         filter="url(#b)"
         id="g11-9"
         style="filter:url(#b-2)"><rect
           width="128"
           height="128"
           fill-opacity="0.236"
           id="rect11"
           x="0"
           y="0" /></g></mask><filter
       id="b-2"
       x="0"
       y="0"
       width="1"
       height="1"><feColorMatrix
         in="SourceGraphic"
         values="0 0 0 0 1 0 0 0 0 1 0 0 0 0 1 0 0 0 1 0"
         id="feColorMatrix3-6" /></filter><inkscape:path-effect
       effect="fillet_chamfer"
       id="path-effect2-6"
       is_visible="true"
       lpeversion="1"
       nodesatellites_param="F,0,1,1,0,3.4606601,0,1 @ F,0,1,1,0,3.4606601,0,1 @ F,0,1,1,0,3.4606601,0,1 @ F,0,1,1,0,3.4606601,0,1"
       radius="0"
       unit="px"
       method="auto"
       mode="F"
       chamfer_steps="1"
       flexible="false"
       use_knot_distance="true"
       apply_no_radius="true"
       apply_with_radius="true"
       only_selected="false"
       hide_knots="false" /><inkscape:path-effect
       effect="fillet_chamfer"
       id="path-effect2-6-5"
       is_visible="true"
       lpeversion="1"
       nodesatellites_param="F,0,1,1,0,3.4606601,0,1 @ F,0,1,1,0,3.4606601,0,1 @ F,0,1,1,0,3.4606601,0,1 @ F,0,1,1,0,3.4606601,0,1"
       radius="0"
       unit="px"
       method="auto"
       mode="F"
       chamfer_steps="1"
       flexible="false"
       use_knot_distance="true"
       apply_no_radius="true"
       apply_with_radius="true"
       only_selected="false"
       hide_knots="false" /><inkscape:path-effect
       effect="fillet_chamfer"
       id="path-effect2-5-8"
       is_visible="true"
       lpeversion="1"
       nodesatellites_param="F,0,1,1,0,3.4606601,0,1 @ F,0,1,1,0,3.4606601,0,1 @ F,0,1,1,0,3.4606601,0,1 @ F,0,1,1,0,3.4606601,0,1"
       radius="0"
       unit="px"
       method="auto"
       mode="F"
       chamfer_steps="1"
       flexible="false"
       use_knot_distance="true"
       apply_no_radius="true"
       apply_with_radius="true"
       only_selected="false"
       hide_knots="false" /><inkscape:path-effect
       effect="fillet_chamfer"
       id="path-effect2-5-8-7"
       is_visible="true"
       lpeversion="1"
       nodesatellites_param="F,0,1,1,0,3.4606601,0,1 @ F,0,1,1,0,3.4606601,0,1 @ F,0,1,1,0,3.4606601,0,1 @ F,0,1,1,0,3.4606601,0,1"
       radius="0"
       unit="px"
       method="auto"
       mode="F"
       chamfer_steps="1"
       flexible="false"
       use_knot_distance="true"
       apply_no_radius="true"
       apply_with_radius="true"
       only_selected="false"
       hide_knots="false" /></defs><g
     inkscape:groupmode="layer"
     id="layer2"
     inkscape:label="Layer 1"><rect
       style="fill:url(#linearGradient8243);fill-opacity:1"
       id="rect440"
       width="105"
       height="105"
       x="11.5"
       y="15.5"
       rx="13"
       ry="13" /><rect
       style="fill:url(#linearGradient406);fill-opacity:1"
       id="rect358"
       width="105"
       height="105"
       x="11.5"
       y="7.5"
       rx="13"
       ry="13" /><rect
       style="fill:#e7e4e4;fill-opacity:1;stroke-width:0.959575"
       id="rect338"
       width="100.75533"
       height="100.75533"
       x="13.622333"
       y="9.6223326"
       rx="12"
       ry="12" /><path
       d="M 24.96066,17.5 H 42.03934 A 3.4606601,3.4606601 45 0 1 45.5,20.96066 V 99.03934 A 3.4606601,3.4606601 135 0 1 42.03934,102.5 H 24.96066 A 3.4606601,3.4606601 45 0 1 21.5,99.03934 V 20.96066 A 3.4606601,3.4606601 135 0 1 24.96066,17.5 Z"
       fill="none"
       stroke="#241f31"
       stroke-linejoin="round"
       stroke-width="8"
       id="path24"
       style="stroke-linejoin:miter;stroke-miterlimit:4;fill:#8d5b78;fill-opacity:1"
       sodipodi:nodetypes="ccccc"
       inkscape:path-effect="#path-effect2"
       inkscape:original-d="m 21.5,17.5 h 24 v 85 h -24 z" /><path
       d="M 24.96066,29.5 H 65.03934 A 3.4606601,3.4606601 45 0 1 68.5,32.96066 V 83.03934 A 3.4606601,3.4606601 135 0 1 65.03934,86.5 H 24.96066 A 3.4606601,3.4606601 45 0 1 21.5,83.03934 V 32.96066 A 3.4606601,3.4606601 135 0 1 24.96066,29.5 Z"
       fill="none"
       stroke="#241f31"
       stroke-linejoin="round"
       stroke-width="8"
       id="path24-2"
       style="stroke-linejoin:miter;stroke-miterlimit:4;fill:#241f31;fill-opacity:1"
       sodipodi:nodetypes="ccccc"
       transform="translate(38)"
       inkscape:original-d="m 21.5,29.5 h 47 v 57 h -47 z"
       inkscape:path-effect="#path-effect2-5" /><g
       id="g21"
       transform="matrix(0.87037847,0,0,0.87037847,8.1476703,13.565809)"><g
         transform="translate(-5.0003,-32.945452)"
         clip-path="url(#f)"
         mask="url(#e)"
         id="g28"><path
           transform="matrix(0.975,0,0,0.98939,11.05,-154.32)"
           d="m 54.308,243.08 h 20.769 l 5.7692,-13.27 3.4615,22.5 4.6154,-9.2308 h 20.769"
           fill="none"
           stroke="#4fd2fd"
           stroke-miterlimit="10"
           stroke-width="2.3077"
           id="path28" /></g><path
         d="m 60.5267,53.230548 h 18.723 l 5.625,-13.129 3.375,22.262 4.5,-9.1328 h 3.375"
         fill="none"
         stroke="url(#h)"
         stroke-linecap="round"
         stroke-miterlimit="10"
         stroke-width="2.2665"
         id="path29"
         style="stroke:url(#h)" /></g><path
       id="path37-6-3"
       style="baseline-shift:baseline;display:inline;overflow:visible;vector-effect:none;fill:#f8f8f8;fill-opacity:1;stroke-linecap:round;stroke-linejoin:bevel;enable-background:accumulate;stop-color:#000000"
       d="m 108.49999,107.5995 c 1.10457,0 2,-0.89543 2,-1.99999 1.1e-4,-0.35104 -3.8e-4,-0.50246 1e-5,-1.09951 -0.35733,0.61892 -1.28532,1.09964 -1.99998,1.09951 H 57.499984 C 56.785321,105.59964 55.677644,104.9158 55.5,104.5 c -0.0071,0.59263 -1.29e-4,0.74847 -1.6e-5,1.09951 1e-6,1.10456 0.895431,1.99999 2,1.99999 z"
       sodipodi:nodetypes="sccccccss" /><path
       id="path37-6-3-5"
       style="baseline-shift:baseline;display:inline;overflow:visible;vector-effect:none;fill:#f8f8f8;fill-opacity:1;stroke-linecap:round;stroke-linejoin:bevel;enable-background:accumulate;stop-color:#000000"
       d="m 108.49999,99.5995 c 1.10456,0 2,-0.89543 2,-1.99999 1.1e-4,-0.35104 -3.9e-4,-0.50246 1e-5,-1.09951 -0.35734,0.61892 -1.28532,1.09964 -1.99998,1.09951 H 57.499982 c -0.714663,1.3e-4 -1.82234,-0.68371 -1.999984,-1.09951 -0.0071,0.59263 -1.29e-4,0.74847 -1.6e-5,1.09951 10e-7,1.10456 0.895431,1.99999 2,1.99999 z"
       sodipodi:nodetypes="sccccccss" /><path
       style="fill:#241f31;fill-opacity:1;stroke:#241f31;stroke-width:4;stroke-linecap:round;stroke-linejoin:bevel;stroke-miterlimit:4;stroke-dasharray:none;stroke-opacity:1"
       d="m 57.5,104.5 h 51"
       id="path8-1"
       sodipodi:nodetypes="cc" /><path
       id="path35-5"
       style="baseline-shift:baseline;display:inline;overflow:visible;vector-effect:none;fill:#f8f8f8;fill-opacity:1;stroke-linecap:round;stroke-linejoin:bevel;enable-background:accumulate;stop-color:#000000"
       d="m 106.50001,23.5 c 2.20914,0 4,-1.790861 4,-4 2e-5,-0.337353 0.0835,-1.754458 -8.2e-4,-2.081104 -0.45601,1.766094 -2.17517,4.08113 -3.99918,4.081104 H 59.5 c -1.824014,2.6e-5 -3.542871,-2.328788 -3.998875,-4.094882 -0.08432,0.326646 -0.0011,1.757529 -0.0011,2.094882 0,2.209139 1.790861,4 4,4 z"
       sodipodi:nodetypes="sscccccss" /><path
       style="fill:#241f31;fill-opacity:1;stroke:#241f31;stroke-width:4;stroke-linecap:round;stroke-linejoin:bevel;stroke-miterlimit:4;stroke-dasharray:none;stroke-opacity:1"
       d="m 57.5,96.5 h 51"
       id="path8-1-9"
       sodipodi:nodetypes="cc" /><path
       style="opacity:1;fill:#241f31;fill-opacity:1;stroke:#241f31;stroke-width:8;stroke-linecap:round;stroke-linejoin:bevel;stroke-miterlimit:4;stroke-dasharray:none;stroke-opacity:1"
       d="m 59.5,17.5 h 47"
       id="path8" /><g
       id="g8"
       transform="translate(10.250109,-4.2501)"><path
         d="m 11.25,21.7501 h 24 l 0,85 h -24 z"
         fill="#241f31"
         id="path25"
         sodipodi:nodetypes="ccccc"
         style="fill:#241f31;fill-opacity:1.0" /><g
         id="g10"
         transform="translate(0,52.757435)"><g
           transform="matrix(1,0,0,1.0001228,-14.75,-32.256877)"
           clip-path="url(#j-0)"
           mask="url(#i-2)"
           id="g30"><path
             transform="matrix(1.0208,0,0,0.9305,5.8248,-141.41)"
             d="m 19.764,219.53 h 8.8167 l 2.4491,-5.6337 1.4694,9.5505 1.9593,-3.9168 h 8.8167"
             fill="none"
             stroke="#4fd2fd"
             stroke-miterlimit="10"
             stroke-width="0.97963"
             id="path30" /></g><path
           d="m 13.293,30.6211 h 6.957 l 2.5,-5.2422 1.5,8.8867 2,-3.6445 h 1.5"
           fill="none"
           stroke="url(#linearGradient1)"
           stroke-linecap="round"
           stroke-miterlimit="10"
           stroke-width="0.95475"
           id="path31"
           style="stroke:url(#linearGradient21)" /></g><g
         id="g12"
         transform="translate(-3.104e-5,34.507435)"><g
           transform="matrix(1,0,0,1.0001228,-14.75,-32.256877)"
           clip-path="url(#j-0)"
           mask="url(#i-2)"
           id="g11"><path
             transform="matrix(1.0208,0,0,0.9305,5.8248,-141.41)"
             d="m 19.764,219.53 h 8.8167 l 2.4491,-5.6337 1.4694,9.5505 1.9593,-3.9168 h 8.8167"
             fill="none"
             stroke="#4fd2fd"
             stroke-miterlimit="10"
             stroke-width="0.97963"
             id="path10" /></g><path
           d="m 13.293,30.6211 h 6.957 l 2.5,-5.2422 1.5,8.8867 2,-3.6445 h 1.5"
           fill="none"
           stroke="url(#linearGradient1)"
           stroke-linecap="round"
           stroke-miterlimit="10"
           stroke-width="0.95475"
           id="path11"
           style="stroke:url(#linearGradient20)" /></g><g
         id="g14"
         transform="translate(-6.208e-5,16.257435)"><g
           transform="matrix(1,0,0,1.0001228,-14.75,-32.256877)"
           clip-path="url(#j-0)"
           mask="url(#i-2)"
           id="g13"><path
             transform="matrix(1.0208,0,0,0.9305,5.8248,-141.41)"
             d="m 19.764,219.53 h 8.8167 l 2.4491,-5.6337 1.4694,9.5505 1.9593,-3.9168 h 8.8167"
             fill="none"
             stroke="#4fd2fd"
             stroke-miterlimit="10"
             stroke-width="0.97963"
             id="path12" /></g><path
           d="m 13.293,30.6211 h 6.957 l 2.5,-5.2422 1.5,8.8867 2,-3.6445 h 1.5"
           fill="none"
           stroke="url(#linearGradient1)"
           stroke-linecap="round"
           stroke-miterlimit="10"
           stroke-width="0.95475"
           id="path13"
           style="stroke:url(#linearGradient19)" /></g><g
         id="g16"
         transform="translate(1.088e-4,-1.9925651)"><g
           transform="matrix(1,0,0,1.0001228,-14.75,-32.256877)"
           clip-path="url(#j-0)"
           mask="url(#i-2)"
           id="g15"><path
             transform="matrix(1.0208,0,0,0.9305,5.8248,-141.41)"
             d="m 19.764,219.53 h 8.8167 l 2.4491,-5.6337 1.4694,9.5505 1.9593,-3.9168 h 8.8167"
             fill="none"
             stroke="#4fd2fd"
             stroke-miterlimit="10"
             stroke-width="0.97963"
             id="path14" /></g><path
           d="m 13.293,30.6211 h 6.957 l 2.5,-5.2422 1.5,8.8867 2,-3.6445 h 1.5"
           fill="none"
           stroke="url(#linearGradient1)"
           stroke-linecap="round"
           stroke-miterlimit="10"
           stroke-width="0.95475"
           id="path15"
           style="stroke:url(#linearGradient1)" /></g><g
         id="g18"
         transform="translate(-1.2416e-4,71.007435)"><g
           transform="matrix(1,0,0,1.0001228,-14.75,-32.256877)"
           clip-path="url(#j-0)"
           mask="url(#i-2)"
           id="g17"><path
             transform="matrix(1.0208,0,0,0.9305,5.8248,-141.41)"
             d="m 19.764,219.53 h 8.8167 l 2.4491,-5.6337 1.4694,9.5505 1.9593,-3.9168 h 8.8167"
             fill="none"
             stroke="#4fd2fd"
             stroke-miterlimit="10"
             stroke-width="0.97963"
             id="path16" /></g><path
           d="m 13.293,30.6211 h 6.957 l 2.5,-5.2422 1.5,8.8867 2,-3.6445 h 1.5"
           fill="none"
           stroke="url(#linearGradient1)"
           stroke-linecap="round"
           stroke-miterlimit="10"
           stroke-width="0.95475"
           id="path17"
           style="stroke:url(#linearGradient18)" /></g></g><path
       id="path32"
       style="baseline-shift:baseline;display:inline;overflow:visible;opacity:1;vector-effect:none;fill:#15121c;enable-background:accumulate;stop-color:#000000;stop-opacity:1;fill-opacity:1"
       d="M 62.960938,25.5 C 58.887908,25.5 55.5,28.887908 55.5,32.960938 v 2 C 55.5,30.887908 58.887908,27.5 62.960938,27.5 h 40.078122 c 4.07303,0 7.46094,3.387908 7.46094,7.460938 v -2 C 110.5,28.887908 107.11209,25.5 103.03906,25.5 Z"
       sodipodi:nodetypes="sscsscsss" /><path
       id="path32-7"
       style="baseline-shift:baseline;display:inline;overflow:visible;vector-effect:none;fill:#f8f8f8;fill-opacity:1;enable-background:accumulate;stop-color:#000000"
       d="M 103.03906,92.460938 C 107.11209,92.460938 110.5,89.07303 110.5,85 v -2 c 0,4.07303 -3.38791,7.460938 -7.46094,7.460938 H 62.96094 C 58.88791,90.460938 55.5,87.07303 55.5,83 v 2 c 0,4.07303 3.38791,7.460938 7.46094,7.460938 z"
       sodipodi:nodetypes="sscsscsss" /><path
       id="path35"
       style="baseline-shift:baseline;display:inline;overflow:visible;opacity:1;vector-effect:none;fill:#15121c;stroke-linecap:round;stroke-linejoin:bevel;enable-background:accumulate;stop-color:#000000;stop-opacity:1;fill-opacity:1.0"
       d="m 59.500002,13.5 a 4,4 0 0 0 -4.000002,4 4,4 0 0 0 0.12696,1 4,4 0 0 1 3.873042,-3 h 47.000008 a 4,4 0 0 1 3.87304,3 4,4 0 0 0 0.12696,-1 4,4 0 0 0 -4,-4 z" /><path
       id="path37"
       style="baseline-shift:baseline;display:inline;overflow:visible;opacity:1;vector-effect:none;fill:#15121c;fill-opacity:1;stroke-linecap:round;stroke-linejoin:bevel;enable-background:accumulate;stop-color:#000000;stop-opacity:1"
       d="m 57.5,94.5 a 2,2 0 0 0 -2,2 2,2 0 0 0 0.267578,1 2,2 0 0 1 1.732422,-1 h 51 a 2,2 0 0 1 1.73242,1 2,2 0 0 0 0.26758,-1 2,2 0 0 0 -2,-2 z" /><path
       id="path37-7"
       style="baseline-shift:baseline;display:inline;overflow:visible;vector-effect:none;fill:#15121c;fill-opacity:1;stroke-linecap:round;stroke-linejoin:bevel;enable-background:accumulate;stop-color:#000000"
       d="m 57.5,102.5 a 2,2 0 0 0 -2,2 2,2 0 0 0 0.267578,1 2,2 0 0 1 1.732422,-1 h 51 a 2,2 0 0 1 1.73242,1 2,2 0 0 0 0.26758,-1 2,2 0 0 0 -2,-2 z" /><path
       id="rect27"
       style="display:inline;opacity:1;fill:#15121c;fill-opacity:1;stroke:#7a944a;stroke-width:0;stroke-linecap:round;stroke-linejoin:bevel;stroke-miterlimit:4;stroke-dasharray:none;stroke-opacity:1"
       d="M 24.960938,13.5 C 20.887907,13.5 17.5,16.887907 17.5,20.960937 v 2 C 17.5,18.887907 20.887907,15.5 24.960938,15.5 H 42.039062 C 46.112094,15.5 49.5,18.887907 49.5,22.960937 v -2 C 49.5,16.887907 46.112094,13.5 42.039062,13.5 Z" /><path
       id="rect27-1"
       style="display:inline;fill:#f8f8f8;fill-opacity:1;stroke:none;stroke-width:0;stroke-linecap:round;stroke-linejoin:bevel;stroke-miterlimit:4;stroke-dasharray:none;stroke-opacity:1"
       d="m 42.039062,108.46094 c 4.073031,0 7.460937,-3.38791 7.460937,-7.46094 v -2 c 0,4.07303 -3.387906,7.46094 -7.460937,7.46094 H 24.960938 C 20.887906,106.46094 17.5,103.07303 17.5,99 v 2 c 0,4.07303 3.387906,7.46094 7.460938,7.46094 z" /></g></svg>
