<?xml version="1.0" encoding="UTF-8" standalone="no"?>
<!-- Created with Inkscape (http://www.inkscape.org/) -->

<svg
   width="128"
   height="128"
   viewBox="0 0 128 128"
   version="1.1"
   id="svg5"
   inkscape:version="1.4.3 (0d15f75042, 2025-12-25)"
   sodipodi:docname="net.ankiweb.Anki.svg"
   xml:space="preserve"
   xmlns:inkscape="http://www.inkscape.org/namespaces/inkscape"
   xmlns:sodipodi="http://sodipodi.sourceforge.net/DTD/sodipodi-0.dtd"
   xmlns:xlink="http://www.w3.org/1999/xlink"
   xmlns="http://www.w3.org/2000/svg"
   xmlns:svg="http://www.w3.org/2000/svg"><sodipodi:namedview
     id="namedview7"
     pagecolor="#ffffff"
     bordercolor="#666666"
     borderopacity="1"
     inkscape:pageshadow="2"
     inkscape:pageopacity="0.0"
     inkscape:pagecheckerboard="true"
     inkscape:document-units="px"
     showgrid="false"
     inkscape:showpageshadow="false"
     showborder="true"
     inkscape:snap-page="true"
     inkscape:zoom="18.456973"
     inkscape:cx="92.43119"
     inkscape:cy="81.026287"
     inkscape:window-width="1728"
     inkscape:window-height="1043"
     inkscape:window-x="0"
     inkscape:window-y="0"
     inkscape:window-maximized="1"
     inkscape:current-layer="layer2"
     inkscape:deskcolor="#d1d1d1" /><defs
     id="defs2"><linearGradient
       id="linearGradient27"
       inkscape:collect="always"><stop
         style="stop-color:#41c2ed;stop-opacity:1;"
         offset="0"
         id="stop26" /><stop
         style="stop-color:#000000;stop-opacity:0.28935283;"
         offset="1"
         id="stop27" /></linearGradient><linearGradient
       id="linearGradient22"
       inkscape:collect="always"><stop
         style="stop-color:#41c2ed;stop-opacity:1;"
         offset="0"
         id="stop22" /><stop
         style="stop-color:#007bc8;stop-opacity:1;"
         offset="1"
         id="stop23" /></linearGradient><linearGradient
       inkscape:collect="always"
       id="linearGradient404"><stop
         style="stop-color:#797979;stop-opacity:1;"
         offset="0"
         id="stop400" /><stop
         style="stop-color:#9c9c9c;stop-opacity:1;"
         offset="1"
         id="stop402" /></linearGradient><linearGradient
       y2="236"
       x2="96"
       y1="236"
       x1="32"
       gradientTransform="translate(604.81684,170.58641)"
       gradientUnits="userSpaceOnUse"
       id="linearGradient1099"
       xlink:href="#linearGradient1036" /><linearGradient
       id="linearGradient1036"><stop
         id="stop1032"
         offset="0"
         style="stop-color:#d5d3cf;stop-opacity:1;" /><stop
         id="stop1034"
         offset="1"
         style="stop-color:#f6f5f4;stop-opacity:1" /></linearGradient><radialGradient
       r="32"
       fy="-76"
       fx="-244"
       cy="-76"
       cx="-244"
       gradientTransform="matrix(0.88333331,0,0,0.88333331,-460.35018,463.11973)"
       gradientUnits="userSpaceOnUse"
       id="radialGradient1103"
       xlink:href="#linearGradient1069" /><linearGradient
       id="linearGradient1069"><stop
         id="stop1065"
         offset="0"
         style="stop-color:#d5d3cf;stop-opacity:1" /><stop
         id="stop1067-1"
         offset="1"
         style="stop-color:#949390;stop-opacity:1" /></linearGradient><linearGradient
       gradientUnits="userSpaceOnUse"
       y2="232"
       x2="64"
       y1="262.5"
       x1="64"
       id="linearGradient1027"
       xlink:href="#linearGradient1025"
       gradientTransform="translate(-470.5864,432.81685)" /><linearGradient
       id="linearGradient1025"><stop
         id="stop1021"
         offset="0"
         style="stop-color:#9a9996;stop-opacity:1" /><stop
         id="stop1023"
         offset="1"
         style="stop-color:#77767b;stop-opacity:1" /></linearGradient><inkscape:path-effect
       effect="spiro"
       id="path-effect35304-9"
       is_visible="true" /><clipPath
       clipPathUnits="userSpaceOnUse"
       id="clipPath1609-7"><path
         sodipodi:nodetypes="cccccc"
         inkscape:connector-curvature="0"
         id="path1611-5"
         d="m 252,116 28,-28 v -8 h -36 v 36 z"
         style="fill:#e74747;stroke:none;stroke-width:0.25px;stroke-linecap:butt;stroke-linejoin:miter;stroke-opacity:1" /></clipPath><linearGradient
       inkscape:collect="always"
       id="linearGradient8241"><stop
         style="stop-color:#393939;stop-opacity:1"
         offset="0"
         id="stop8237" /><stop
         style="stop-color:#4f4f4f;stop-opacity:1;"
         offset="0.05"
         id="stop9349" /><stop
         style="stop-color:#393939;stop-opacity:1"
         offset="0.1"
         id="stop21746" /><stop
         style="stop-color:#393939;stop-opacity:1"
         offset="0.89999998"
         id="stop21940" /><stop
         style="stop-color:#4f4f4f;stop-opacity:1;"
         offset="0.94999999"
         id="stop9351" /><stop
         style="stop-color:#393939;stop-opacity:1"
         offset="1"
         id="stop8239" /></linearGradient><radialGradient
       r="32"
       fy="-76"
       fx="-244"
       cy="-76"
       cx="-244"
       gradientTransform="matrix(0.88333331,0,0,0.88333331,-460.35018,463.11973)"
       gradientUnits="userSpaceOnUse"
       id="radialGradient1103-5"
       xlink:href="#linearGradient1069" /><inkscape:path-effect
       effect="spiro"
       id="path-effect35304-9-2"
       is_visible="true" /><clipPath
       clipPathUnits="userSpaceOnUse"
       id="clipPath1609-7-7"><path
         sodipodi:nodetypes="cccccc"
         inkscape:connector-curvature="0"
         id="path1611-5-0"
         d="m 252,116 28,-28 v -8 h -36 v 36 z"
         style="fill:#e74747;stroke:none;stroke-width:0.25px;stroke-linecap:butt;stroke-linejoin:miter;stroke-opacity:1" /></clipPath><clipPath
       clipPathUnits="userSpaceOnUse"
       id="clipPath744"><rect
         style="fill:#1e88e5;fill-opacity:1;stroke-width:0.264583"
         id="rect746"
         width="541.86664"
         height="541.86664"
         x="0"
         y="1.5987212e-14"
         rx="79.375"
         ry="79.375" /></clipPath><clipPath
       clipPathUnits="userSpaceOnUse"
       id="clipPath62"><rect
         style="fill:#1e88e5;fill-opacity:1;stroke-width:0.264583"
         id="rect64"
         width="541.86664"
         height="541.86664"
         x="2.2507105e-05"
         y="-0.42205024"
         rx="79.375"
         ry="79.375" /></clipPath><linearGradient
       inkscape:collect="always"
       xlink:href="#linearGradient8241"
       id="linearGradient8243"
       x1="11.5"
       y1="120.5"
       x2="116.5"
       y2="120.5"
       gradientUnits="userSpaceOnUse" /><radialGradient
       r="32"
       fy="-76"
       fx="-244"
       cy="-76"
       cx="-244"
       gradientTransform="matrix(0.88333331,0,0,0.88333331,-460.35018,463.11973)"
       gradientUnits="userSpaceOnUse"
       id="radialGradient1103-6"
       xlink:href="#linearGradient1069" /><inkscape:path-effect
       effect="spiro"
       id="path-effect35304-9-20"
       is_visible="true" /><clipPath
       clipPathUnits="userSpaceOnUse"
       id="clipPath1609-7-2"><path
         sodipodi:nodetypes="cccccc"
         inkscape:connector-curvature="0"
         id="path1611-5-3"
         d="m 252,116 28,-28 v -8 h -36 v 36 z"
         style="fill:#e74747;stroke:none;stroke-width:0.25px;stroke-linecap:butt;stroke-linejoin:miter;stroke-opacity:1" /></clipPath><radialGradient
       r="32"
       fy="-76"
       fx="-244"
       cy="-76"
       cx="-244"
       gradientTransform="matrix(0.88333331,0,0,0.88333331,-460.35018,463.11973)"
       gradientUnits="userSpaceOnUse"
       id="radialGradient1103-56"
       xlink:href="#linearGradient1069" /><inkscape:path-effect
       effect="spiro"
       id="path-effect35304-9-7"
       is_visible="true" /><clipPath
       clipPathUnits="userSpaceOnUse"
       id="clipPath1609-7-0"><path
         sodipodi:nodetypes="cccccc"
         inkscape:connector-curvature="0"
         id="path1611-5-9"
         d="m 252,116 28,-28 v -8 h -36 v 36 z"
         style="fill:#e74747;stroke:none;stroke-width:0.25px;stroke-linecap:butt;stroke-linejoin:miter;stroke-opacity:1" /></clipPath><clipPath
       clipPathUnits="userSpaceOnUse"
       id="clipPath37"><rect
         style="fill:#1a1a1a;fill-opacity:1;stroke-width:0.264583"
         id="rect39"
         width="541.86664"
         height="541.86664"
         x="-2.6626146e-06"
         y="3.2408705"
         rx="79.375"
         ry="79.375" /></clipPath><clipPath
       clipPathUnits="userSpaceOnUse"
       id="clipPath22042"><rect
         style="fill:#333333;fill-opacity:1;stroke-width:0.0133797"
         id="rect22044"
         width="27.31955"
         height="27.483929"
         x="166.96844"
         y="105.40438"
         rx="4.0018873"
         ry="4.0259666" /></clipPath><clipPath
       clipPathUnits="userSpaceOnUse"
       id="clipPath1039"><rect
         style="fill:#b3b3b3;fill-opacity:1;stroke-width:0.264583"
         id="rect1041"
         width="541.8667"
         height="541.86682"
         x="2.5931527e-05"
         y="-0.00010962487"
         rx="79.375008"
         ry="79.375031" /></clipPath><clipPath
       clipPathUnits="userSpaceOnUse"
       id="clipPath154"><rect
         style="fill:#b3b3b3;fill-opacity:1;stroke-width:0.264583"
         id="rect156"
         width="541.8667"
         height="541.86682"
         x="-2.9218751e-05"
         y="-0.00016368683"
         rx="79.375008"
         ry="79.375031" /></clipPath><linearGradient
       inkscape:collect="always"
       xlink:href="#linearGradient404"
       id="linearGradient406"
       x1="64"
       y1="112.5"
       x2="64"
       y2="7.5"
       gradientUnits="userSpaceOnUse" /><linearGradient
       id="_Linear1"
       x1="0"
       y1="0"
       x2="1"
       y2="0"
       gradientUnits="userSpaceOnUse"
       gradientTransform="matrix(3.08228,-10.3064,8.72379,3.56577,19.8394,42.498)"><stop
         offset="0"
         style="stop-color:#ff9700;stop-opacity:1"
         id="stop219" /><stop
         offset="0.53"
         style="stop-color:#f48e00;stop-opacity:1"
         id="stop221" /><stop
         offset="1"
         style="stop-color:#d06f00;stop-opacity:1"
         id="stop223" /></linearGradient><filter
       style="color-interpolation-filters:sRGB;"
       inkscape:label="Drop Shadow"
       id="filter443"
       x="-0.1"
       y="-0.076990137"
       width="1.2"
       height="1.2181387"><feFlood
         flood-opacity="0.345098"
         flood-color="rgb(0,0,0)"
         result="flood"
         id="feFlood433" /><feComposite
         in="flood"
         in2="SourceGraphic"
         operator="in"
         result="composite1"
         id="feComposite435" /><feGaussianBlur
         in="composite1"
         stdDeviation="1.5"
         result="blur"
         id="feGaussianBlur437" /><feOffset
         dx="0"
         dy="3"
         result="offset"
         id="feOffset439" /><feComposite
         in="SourceGraphic"
         in2="offset"
         operator="over"
         result="composite2"
         id="feComposite441" /></filter><filter
       inkscape:collect="always"
       style="color-interpolation-filters:sRGB"
       id="filter7"
       x="-0.044996416"
       y="-0.047799669"
       width="1.0899928"
       height="1.0955993"><feGaussianBlur
         inkscape:collect="always"
         stdDeviation="1.4402497"
         id="feGaussianBlur7" /></filter><filter
       inkscape:collect="always"
       style="color-interpolation-filters:sRGB"
       id="filter8"
       x="-0.040834579"
       y="-0.04319639"
       width="1.0816692"
       height="1.0863928"><feGaussianBlur
         inkscape:collect="always"
         stdDeviation="1.2342075"
         id="feGaussianBlur8" /></filter><filter
       inkscape:collect="always"
       style="color-interpolation-filters:sRGB"
       id="filter9"
       x="-0.057822073"
       y="-0.057822073"
       width="1.1156441"
       height="1.1156441"><feGaussianBlur
         inkscape:collect="always"
         stdDeviation="1.5852033"
         id="feGaussianBlur9" /></filter><linearGradient
       inkscape:collect="always"
       xlink:href="#linearGradient22"
       id="linearGradient23"
       x1="-62.153755"
       y1="-10.570056"
       x2="-19.128054"
       y2="18.712217"
       gradientUnits="userSpaceOnUse" /><linearGradient
       inkscape:collect="always"
       xlink:href="#linearGradient27"
       id="linearGradient26"
       gradientUnits="userSpaceOnUse"
       x1="-62.153755"
       y1="-10.570056"
       x2="-19.128054"
       y2="18.712217" /><filter
       inkscape:collect="always"
       style="color-interpolation-filters:sRGB"
       id="filter27"
       x="-0.014819892"
       y="-0.014591783"
       width="1.0296398"
       height="1.0291836"><feGaussianBlur
         inkscape:collect="always"
         stdDeviation="0.32487895"
         id="feGaussianBlur27" /></filter><filter
       inkscape:collect="always"
       style="color-interpolation-filters:sRGB"
       id="filter29"
       x="-0.070687261"
       y="-0.069599239"
       width="1.1413745"
       height="1.1391985"><feGaussianBlur
         inkscape:collect="always"
         stdDeviation="1.5495932"
         id="feGaussianBlur29" /></filter><filter
       inkscape:collect="always"
       style="color-interpolation-filters:sRGB"
       id="filter30"
       x="-0.079986739"
       y="-0.07875558"
       width="1.1599735"
       height="1.1575112"><feGaussianBlur
         inkscape:collect="always"
         stdDeviation="1.7534547"
         id="feGaussianBlur30" /></filter><linearGradient
       inkscape:collect="always"
       xlink:href="#linearGradient22"
       id="linearGradient1"
       gradientUnits="userSpaceOnUse"
       x1="-62.153755"
       y1="-10.570056"
       x2="-19.128054"
       y2="18.712217" /></defs><g
     inkscape:groupmode="layer"
     id="layer2"
     inkscape:label="Layer 1"><rect
       style="fill:url(#linearGradient8243);fill-opacity:1"
       id="rect440"
       width="105"
       height="105"
       x="11.5"
       y="15.5"
       rx="13"
       ry="13" /><rect
       style="fill:url(#linearGradient406);fill-opacity:1"
       id="rect358"
       width="105"
       height="105"
       x="11.5"
       y="7.5"
       rx="13"
       ry="13" /><rect
       style="fill:#3f3f3f;fill-opacity:1;stroke-width:0.959575"
       id="rect338"
       width="100.75533"
       height="100.75533"
       x="13.622333"
       y="9.6223326"
       rx="12"
       ry="12" /><path
       sodipodi:type="star"
       style="mix-blend-mode:normal;fill:#2a2a2a;fill-opacity:1;filter:url(#filter30)"
       id="path27"
       inkscape:flatsided="false"
       sodipodi:sides="5"
       sodipodi:cx="-40.867855"
       sodipodi:cy="7.404891"
       sodipodi:r1="28.160292"
       sodipodi:r2="15.488161"
       sodipodi:arg1="0.52359878"
       sodipodi:arg2="1.1519173"
       inkscape:rounded="0.2"
       inkscape:randomized="0"
       d="m -16.480327,21.485037 c -1.808806,3.132943 -14.783073,-1.402422 -18.087925,0.06899 -3.304853,1.471415 -8.615899,14.147926 -12.154457,13.395783 -3.538558,-0.752144 -3.234438,-14.49291 -5.655093,-17.181319 -2.420654,-2.68841 -16.117936,-3.822257 -16.49608,-7.420051 -0.378143,-3.5977938 12.78408,-7.5546891 14.592886,-10.68763244 1.808806,-3.13294336 -1.345534,-16.51021056 1.959319,-17.98162656 3.304852,-1.471415 11.135434,9.8238557 14.673992,10.5759994 3.538558,0.7521437 15.286351,-6.3816144 17.707005,-3.6932054 2.420655,2.6884092 -5.902003,13.6261655 -5.52386,17.2239592 0.378144,3.5977938 10.793019,12.5661568 8.984213,15.6990998 z"
       inkscape:transform-center-x="2.2621026"
       inkscape:transform-center-y="-0.14925386"
       transform="matrix(0.91470136,0.11849471,-0.11849471,0.91470136,127.28025,82.080121)" /><rect
       style="mix-blend-mode:normal;fill:#000000;fill-opacity:0.340737;stroke-width:0.626633;filter:url(#filter9)"
       id="rect9"
       width="65.796463"
       height="65.796463"
       x="31.101768"
       y="33.101768"
       rx="7.8363843"
       ry="7.8363843"
       transform="matrix(0.94324449,0,0,0.93182711,4.4141998,9.6095653)" /><rect
       style="fill:#ffffff;fill-opacity:1;stroke-width:0.554864"
       id="rect1"
       width="58.260735"
       height="58.260735"
       x="35.651478"
       y="38.437908"
       rx="6.9388762"
       ry="6.9388762" /><rect
       style="fill:#e8e8e8;fill-opacity:1;stroke-width:0.532482"
       id="rect2"
       width="55.91061"
       height="55.91061"
       x="36.826542"
       y="39.612972"
       rx="6.6589756"
       ry="6.6589756" /><rect
       style="fill:#545454;fill-opacity:0.5;stroke-width:0.671695;filter:url(#filter8)"
       id="rect8"
       width="72.538963"
       height="68.572815"
       x="27.730515"
       y="27.294388"
       rx="8.6394196"
       ry="8.1670494"
       transform="matrix(0.88546908,0,0,0.88546908,8.111825,9.1273174)" /><rect
       style="fill:#ffffff;fill-opacity:1;stroke-width:0.594765"
       id="rect3"
       width="64.23101"
       height="60.719109"
       x="32.66634"
       y="30.853067"
       rx="7.6499391"
       ry="7.2316699" /><rect
       style="fill:#e8e8e8;fill-opacity:1;stroke-width:0.570774"
       id="rect4"
       width="61.640057"
       height="58.269821"
       x="33.961811"
       y="32.077713"
       rx="7.3413553"
       ry="6.9399586" /><rect
       style="fill:#4c4c4c;fill-opacity:0.740749;stroke-width:0.709836;filter:url(#filter7)"
       id="rect7"
       width="76.819435"
       height="72.314293"
       x="25.590282"
       y="16.958113"
       rx="9.1492252"
       ry="8.6126604"
       transform="matrix(0.88546908,0,0,0.88546908,8.111825,9.1273174)" /><rect
       style="fill:#ffffff;fill-opacity:1;stroke-width:0.628538"
       id="rect5"
       width="68.021233"
       height="64.032074"
       x="30.771229"
       y="22.372263"
       rx="8.1013565"
       ry="7.6262445" /><rect
       style="fill:#e8e8e8;fill-opacity:1;stroke-width:0.603185"
       id="rect6"
       width="65.27739"
       height="61.449139"
       x="32.143147"
       y="23.663727"
       rx="7.7745638"
       ry="7.3186169" /><rect
       style="fill:#cdcdcd;fill-opacity:1;stroke-width:0.847167"
       id="rect10"
       width="52.774502"
       height="3.9986439"
       x="38.394592"
       y="30.39576"
       rx="1.9993219"
       ry="1.9993219" /><rect
       style="fill:#cdcdcd;fill-opacity:1;stroke-width:0.622668"
       id="rect11"
       width="28.510132"
       height="3.9986439"
       x="38.394592"
       y="38.393051"
       rx="1.9993219"
       ry="1.9993219" /><rect
       style="fill:#cdcdcd;fill-opacity:1;stroke-width:0.847167"
       id="rect14"
       width="52.774502"
       height="3.9986439"
       x="38.394592"
       y="46.390335"
       rx="1.9993219"
       ry="1.9993219" /><rect
       style="fill:#cdcdcd;fill-opacity:1;stroke-width:0.675957"
       id="rect16"
       width="33.598835"
       height="3.9986439"
       x="38.394592"
       y="54.387619"
       rx="1.9993219"
       ry="1.9993219" /><rect
       style="fill:#cdcdcd;fill-opacity:1;stroke-width:0.648251"
       id="rect18"
       width="30.901001"
       height="3.9986439"
       x="38.394592"
       y="62.384903"
       rx="1.9993219"
       ry="1.9993219" /><path
       sodipodi:type="star"
       style="mix-blend-mode:normal;fill:#2a2a2a;fill-opacity:0.583689;filter:url(#filter29)"
       id="path29"
       inkscape:flatsided="false"
       sodipodi:sides="5"
       sodipodi:cx="-40.867855"
       sodipodi:cy="7.404891"
       sodipodi:r1="28.160292"
       sodipodi:r2="15.488161"
       sodipodi:arg1="0.52359878"
       sodipodi:arg2="1.1519173"
       inkscape:rounded="0.2"
       inkscape:randomized="0"
       d="m -16.480327,21.485037 c -1.808806,3.132943 -14.783073,-1.402422 -18.087925,0.06899 -3.304853,1.471415 -8.615899,14.147926 -12.154457,13.395783 -3.538558,-0.752144 -3.234438,-14.49291 -5.655093,-17.181319 -2.420654,-2.68841 -16.117936,-3.822257 -16.49608,-7.420051 -0.378143,-3.5977938 12.78408,-7.5546891 14.592886,-10.68763244 1.808806,-3.13294336 -1.345534,-16.51021056 1.959319,-17.98162656 3.304852,-1.471415 11.135434,9.8238557 14.673992,10.5759994 3.538558,0.7521437 15.286351,-6.3816144 17.707005,-3.6932054 2.420655,2.6884092 -5.902003,13.6261655 -5.52386,17.2239592 0.378144,3.5977938 10.793019,12.5661568 8.984213,15.6990998 z"
       inkscape:transform-center-x="2.2621026"
       inkscape:transform-center-y="-0.14925386"
       transform="matrix(0.91470136,0.11849471,-0.11849471,0.91470136,127.28025,80.080121)" /><rect
       style="fill:#cdcdcd;fill-opacity:1;stroke-width:0.502288"
       id="rect20"
       width="18.551994"
       height="3.9986439"
       x="38.394592"
       y="70.382187"
       rx="1.9993219"
       ry="1.9993219" /><path
       sodipodi:type="star"
       style="mix-blend-mode:normal;fill:url(#linearGradient26);fill-opacity:1;filter:url(#filter27)"
       id="path25"
       inkscape:flatsided="false"
       sodipodi:sides="5"
       sodipodi:cx="-40.867855"
       sodipodi:cy="7.404891"
       sodipodi:r1="28.160292"
       sodipodi:r2="15.488161"
       sodipodi:arg1="0.52359878"
       sodipodi:arg2="1.1519173"
       inkscape:rounded="0.2"
       inkscape:randomized="0"
       d="m -16.480327,21.485037 c -1.808806,3.132943 -14.783073,-1.402422 -18.087925,0.06899 -3.304853,1.471415 -8.615899,14.147926 -12.154457,13.395783 -3.538558,-0.752144 -3.234438,-14.49291 -5.655093,-17.181319 -2.420654,-2.68841 -16.117936,-3.822257 -16.49608,-7.420051 -0.378143,-3.5977938 12.78408,-7.5546891 14.592886,-10.68763244 1.808806,-3.13294336 -1.345534,-16.51021056 1.959319,-17.98162656 3.304852,-1.471415 11.135434,9.8238557 14.673992,10.5759994 3.538558,0.7521437 15.286351,-6.3816144 17.707005,-3.6932054 2.420655,2.6884092 -5.902003,13.6261655 -5.52386,17.2239592 0.378144,3.5977938 10.793019,12.5661568 8.984213,15.6990998 z"
       inkscape:transform-center-x="1.9544584"
       inkscape:transform-center-y="-0.12895543"
       transform="matrix(0.79030428,0.10237973,-0.10237973,0.79030428,119.5714,76.573157)" /><path
       style="fill:#f9f9f9;fill-opacity:1"
       sodipodi:type="inkscape:offset"
       inkscape:radius="1.4700933"
       inkscape:original="M 79.785156 56.21875 C 77.022674 57.043266 78.146741 67.937722 76.396484 70.228516 C 74.646228 72.519309 63.839024 74.299575 63.769531 77.181641 C 63.700038 80.063707 74.40906 82.361888 76.046875 84.734375 C 77.68469 87.106862 76.036326 97.933926 78.755859 98.890625 C 81.475393 99.847324 86.971893 90.373344 89.734375 89.548828 C 92.496857 88.724312 102.2849 93.636497 104.03516 91.345703 C 105.78541 89.05491 98.473476 80.901597 98.542969 78.019531 C 98.612462 75.137465 106.30969 67.345143 104.67188 64.972656 C 103.03406 62.600169 93.018361 67.034824 90.298828 66.078125 C 87.579295 65.121426 82.547638 55.394234 79.785156 56.21875 z "
       xlink:href="#path1"
       id="path2"
       inkscape:href="#path1"
       d="m 79.365234,54.810547 c -0.783488,0.233847 -1.338173,0.802545 -1.695312,1.376953 -0.357139,0.574408 -0.576054,1.197071 -0.753906,1.869141 -0.355704,1.344139 -0.524407,2.905597 -0.667969,4.484375 -0.143562,1.578777 -0.25601,3.17027 -0.429688,4.451171 -0.173678,1.280902 -0.539648,2.278053 -0.589843,2.34375 -0.05023,0.06574 -0.917148,0.683136 -2.107422,1.1875 -1.190275,0.504365 -2.696056,1.028387 -4.181641,1.582032 -1.485584,0.553644 -2.946989,1.127606 -4.150391,1.824218 -0.6017,0.348307 -1.145138,0.723173 -1.605468,1.21875 -0.460331,0.495578 -0.863103,1.180631 -0.882813,1.998047 -0.01971,0.817423 0.349221,1.519939 0.785156,2.03711 0.435936,0.517171 0.960692,0.918064 1.544922,1.294922 1.168461,0.753715 2.601398,1.396996 4.058594,2.021484 1.457196,0.624488 2.935021,1.222142 4.099609,1.783203 1.164589,0.561062 2.001857,1.219067 2.048829,1.287109 0.04697,0.06803 0.364869,1.081418 0.476562,2.369141 0.111694,1.287723 0.145654,2.883004 0.212891,4.466797 0.06724,1.583793 0.160716,3.150084 0.451172,4.509766 0.145227,0.67984 0.333079,1.313345 0.662109,1.904296 0.32903,0.590952 0.85566,1.185698 1.626953,1.457028 0.771317,0.27134 1.555054,0.13755 2.181641,-0.11718 0.626586,-0.254739 1.169964,-0.631184 1.708984,-1.070316 1.078041,-0.878264 2.133317,-2.041568 3.177734,-3.234375 1.044418,-1.192808 2.069261,-2.413493 2.962891,-3.347657 0.89363,-0.934163 1.776149,-1.527106 1.855469,-1.550781 0.07931,-0.02367 1.143094,-0.0123 2.402344,0.279297 1.259249,0.291594 2.785409,0.752419 4.3125,1.177734 1.52709,0.425316 3.046781,0.819102 4.429689,0.962891 0.69145,0.07189 1.35194,0.08739 2.01562,-0.04297 0.66369,-0.130357 1.39229,-0.446025 1.88868,-1.095703 0.49638,-0.649686 0.61115,-1.436712 0.5625,-2.111328 -0.0487,-0.674615 -0.2372,-1.306813 -0.48829,-1.955078 -0.50218,-1.29653 -1.28399,-2.657858 -2.0957,-4.019531 -0.81171,-1.361673 -1.65723,-2.715132 -2.26953,-3.853516 -0.6123,-1.138383 -0.90239,-2.161397 -0.90039,-2.244141 0.002,-0.08267 0.34128,-1.089628 1.00781,-2.197265 0.66653,-1.107638 1.57663,-2.419156 2.45313,-3.740235 0.87649,-1.321078 1.72099,-2.643172 2.28515,-3.914062 0.28208,-0.635445 0.50284,-1.25818 0.58399,-1.929688 0.0811,-0.671507 0.004,-1.463822 -0.46094,-2.136718 -0.46454,-0.672911 -1.17536,-1.023365 -1.83203,-1.185547 -0.65667,-0.162183 -1.31752,-0.179105 -2.01172,-0.140625 -1.38841,0.07696 -2.926559,0.39879 -4.472657,0.75 -1.546097,0.35121 -3.093164,0.738187 -4.365234,0.96875 -1.27207,0.230562 -2.334091,0.189555 -2.41211,0.162109 -0.07809,-0.02747 -0.93191,-0.660653 -1.779297,-1.636719 -0.847386,-0.976065 -1.813345,-2.246607 -2.798828,-3.488281 -0.985483,-1.241674 -1.981323,-2.453649 -3.015625,-3.382812 -0.517151,-0.464582 -1.042693,-0.865757 -1.65625,-1.150391 -0.613556,-0.284634 -1.388425,-0.456492 -2.171875,-0.222656 z" /><path
       sodipodi:type="star"
       style="fill:url(#linearGradient1);fill-opacity:1"
       id="path1"
       inkscape:flatsided="false"
       sodipodi:sides="5"
       sodipodi:cx="-40.867855"
       sodipodi:cy="7.404891"
       sodipodi:r1="28.160292"
       sodipodi:r2="15.488161"
       sodipodi:arg1="0.52359878"
       sodipodi:arg2="1.1519173"
       inkscape:rounded="0.2"
       inkscape:randomized="0"
       d="m -16.480327,21.485037 c -1.808806,3.132943 -14.783073,-1.402422 -18.087925,0.06899 -3.304853,1.471415 -8.615899,14.147926 -12.154457,13.395783 -3.538558,-0.752144 -3.234438,-14.49291 -5.655093,-17.181319 -2.420654,-2.68841 -16.117936,-3.822257 -16.49608,-7.420051 -0.378143,-3.5977938 12.78408,-7.5546891 14.592886,-10.68763244 1.808806,-3.13294336 -1.345534,-16.51021056 1.959319,-17.98162656 3.304852,-1.471415 11.135434,9.8238557 14.673992,10.5759994 3.538558,0.7521437 15.286351,-6.3816144 17.707005,-3.6932054 2.420655,2.6884092 -5.902003,13.6261655 -5.52386,17.2239592 0.378144,3.5977938 10.793019,12.5661568 8.984213,15.6990998 z"
       inkscape:transform-center-x="1.9544569"
       inkscape:transform-center-y="-0.12895504"
       transform="matrix(0.79030428,0.10237973,-0.10237973,0.79030428,119.25994,76.054055)" /><path
       sodipodi:type="star"
       style="fill:url(#linearGradient23);fill-opacity:1"
       id="path22"
       inkscape:flatsided="false"
       sodipodi:sides="5"
       sodipodi:cx="-40.867855"
       sodipodi:cy="7.404891"
       sodipodi:r1="28.160292"
       sodipodi:r2="15.488161"
       sodipodi:arg1="0.52359878"
       sodipodi:arg2="1.1519173"
       inkscape:rounded="0.2"
       inkscape:randomized="0"
       d="m -16.480327,21.485037 c -1.808806,3.132943 -14.783073,-1.402422 -18.087925,0.06899 -3.304853,1.471415 -8.615899,14.147926 -12.154457,13.395783 -3.538558,-0.752144 -3.234438,-14.49291 -5.655093,-17.181319 -2.420654,-2.68841 -16.117936,-3.822257 -16.49608,-7.420051 -0.378143,-3.5977938 12.78408,-7.5546891 14.592886,-10.68763244 1.808806,-3.13294336 -1.345534,-16.51021056 1.959319,-17.98162656 3.304852,-1.471415 11.135434,9.8238557 14.673992,10.5759994 3.538558,0.7521437 15.286351,-6.3816144 17.707005,-3.6932054 2.420655,2.6884092 -5.902003,13.6261655 -5.52386,17.2239592 0.378144,3.5977938 10.793019,12.5661568 8.984213,15.6990998 z"
       inkscape:transform-center-x="1.9544569"
       inkscape:transform-center-y="-0.12895504"
       transform="matrix(0.79030428,0.10237973,-0.10237973,0.79030428,119.25994,76.054055)" /></g></svg>
