<?xml version="1.0" encoding="UTF-8" standalone="no"?>
<!-- Created with Inkscape (http://www.inkscape.org/) -->

<svg
   width="128"
   height="128"
   viewBox="0 0 128 128"
   version="1.1"
   id="svg5"
   inkscape:version="1.4.3 (0d15f75042, 2025-12-25)"
   sodipodi:docname="net.audiorelay.AudioRelay.svg"
   xml:space="preserve"
   xmlns:inkscape="http://www.inkscape.org/namespaces/inkscape"
   xmlns:sodipodi="http://sodipodi.sourceforge.net/DTD/sodipodi-0.dtd"
   xmlns:xlink="http://www.w3.org/1999/xlink"
   xmlns="http://www.w3.org/2000/svg"
   xmlns:svg="http://www.w3.org/2000/svg"><sodipodi:namedview
     id="namedview7"
     pagecolor="#ffffff"
     bordercolor="#666666"
     borderopacity="1"
     inkscape:pageshadow="2"
     inkscape:pageopacity="0.0"
     inkscape:pagecheckerboard="true"
     inkscape:document-units="px"
     showgrid="false"
     inkscape:showpageshadow="false"
     showborder="true"
     inkscape:snap-page="true"
     inkscape:zoom="3.1575138"
     inkscape:cx="49.722665"
     inkscape:cy="78.701161"
     inkscape:window-width="1728"
     inkscape:window-height="1043"
     inkscape:window-x="0"
     inkscape:window-y="0"
     inkscape:window-maximized="1"
     inkscape:current-layer="layer2"
     inkscape:snap-bbox="true"
     inkscape:snap-bbox-midpoints="true"
     inkscape:snap-bbox-edge-midpoints="true"
     inkscape:bbox-nodes="true"
     inkscape:bbox-paths="true"
     inkscape:snap-intersection-paths="true"
     inkscape:object-paths="true"
     inkscape:snap-smooth-nodes="true"
     inkscape:snap-midpoints="true"
     inkscape:deskcolor="#d1d1d1" /><defs
     id="defs2"><linearGradient
       id="linearGradient6"
       inkscape:collect="always"><stop
         style="stop-color:#2094f4;stop-opacity:1;"
         offset="0"
         id="stop6" /><stop
         style="stop-color:#43a5f6;stop-opacity:1;"
         offset="1"
         id="stop7" /></linearGradient><linearGradient
       inkscape:collect="always"
       id="linearGradient408"><stop
         style="stop-color:#369ff5;stop-opacity:1;"
         offset="0"
         id="stop404" /><stop
         style="stop-color:#e7f4fe;stop-opacity:1;"
         offset="1"
         id="stop406" /></linearGradient><linearGradient
       inkscape:collect="always"
       id="linearGradient7939"><stop
         style="stop-color:#1565c0;stop-opacity:1"
         offset="0"
         id="stop7935" /><stop
         style="stop-color:#1565c0;stop-opacity:1"
         offset="0.28295189"
         id="stop8493" /><stop
         style="stop-color:#0a76d8;stop-opacity:1;"
         offset="0.5"
         id="stop8233" /><stop
         style="stop-color:#1565c0;stop-opacity:1"
         offset="0.7060551"
         id="stop8751" /><stop
         style="stop-color:#1565c0;stop-opacity:1"
         offset="1"
         id="stop7937" /></linearGradient><linearGradient
       y2="236"
       x2="96"
       y1="236"
       x1="32"
       gradientTransform="translate(604.81684,170.58641)"
       gradientUnits="userSpaceOnUse"
       id="linearGradient1099"
       xlink:href="#linearGradient1036" /><linearGradient
       id="linearGradient1036"><stop
         id="stop1032"
         offset="0"
         style="stop-color:#d5d3cf;stop-opacity:1;" /><stop
         id="stop1034"
         offset="1"
         style="stop-color:#f6f5f4;stop-opacity:1" /></linearGradient><radialGradient
       r="32"
       fy="-76"
       fx="-244"
       cy="-76"
       cx="-244"
       gradientTransform="matrix(0.88333331,0,0,0.88333331,-460.35018,463.11973)"
       gradientUnits="userSpaceOnUse"
       id="radialGradient1103"
       xlink:href="#linearGradient1069" /><linearGradient
       id="linearGradient1069"><stop
         id="stop1065"
         offset="0"
         style="stop-color:#d5d3cf;stop-opacity:1" /><stop
         id="stop1067-1"
         offset="1"
         style="stop-color:#949390;stop-opacity:1" /></linearGradient><linearGradient
       gradientUnits="userSpaceOnUse"
       y2="232"
       x2="64"
       y1="262.5"
       x1="64"
       id="linearGradient1027"
       xlink:href="#linearGradient1025"
       gradientTransform="translate(-470.5864,432.81685)" /><linearGradient
       id="linearGradient1025"><stop
         id="stop1021"
         offset="0"
         style="stop-color:#9a9996;stop-opacity:1" /><stop
         id="stop1023"
         offset="1"
         style="stop-color:#77767b;stop-opacity:1" /></linearGradient><inkscape:path-effect
       effect="spiro"
       id="path-effect35304-9"
       is_visible="true" /><clipPath
       clipPathUnits="userSpaceOnUse"
       id="clipPath1609-7"><path
         sodipodi:nodetypes="cccccc"
         inkscape:connector-curvature="0"
         id="path1611-5"
         d="m 252,116 28,-28 v -8 h -36 v 36 z"
         style="fill:#e74747;stroke:none;stroke-width:0.25px;stroke-linecap:butt;stroke-linejoin:miter;stroke-opacity:1" /></clipPath><radialGradient
       r="32"
       fy="-76"
       fx="-244"
       cy="-76"
       cx="-244"
       gradientTransform="matrix(0.88333331,0,0,0.88333331,-460.35018,463.11973)"
       gradientUnits="userSpaceOnUse"
       id="radialGradient1103-5"
       xlink:href="#linearGradient1069" /><inkscape:path-effect
       effect="spiro"
       id="path-effect35304-9-2"
       is_visible="true" /><clipPath
       clipPathUnits="userSpaceOnUse"
       id="clipPath1609-7-7"><path
         sodipodi:nodetypes="cccccc"
         inkscape:connector-curvature="0"
         id="path1611-5-0"
         d="m 252,116 28,-28 v -8 h -36 v 36 z"
         style="fill:#e74747;stroke:none;stroke-width:0.25px;stroke-linecap:butt;stroke-linejoin:miter;stroke-opacity:1" /></clipPath><clipPath
       clipPathUnits="userSpaceOnUse"
       id="clipPath744"><rect
         style="fill:#1e88e5;fill-opacity:1;stroke-width:0.264583"
         id="rect746"
         width="541.86664"
         height="541.86664"
         x="0"
         y="1.5987212e-14"
         rx="79.375"
         ry="79.375" /></clipPath><clipPath
       clipPathUnits="userSpaceOnUse"
       id="clipPath62"><rect
         style="fill:#1e88e5;fill-opacity:1;stroke-width:0.264583"
         id="rect64"
         width="541.86664"
         height="541.86664"
         x="2.2507105e-05"
         y="-0.42205024"
         rx="79.375"
         ry="79.375" /></clipPath><radialGradient
       r="32"
       fy="-76"
       fx="-244"
       cy="-76"
       cx="-244"
       gradientTransform="matrix(0.88333331,0,0,0.88333331,-460.35018,463.11973)"
       gradientUnits="userSpaceOnUse"
       id="radialGradient1103-6"
       xlink:href="#linearGradient1069" /><inkscape:path-effect
       effect="spiro"
       id="path-effect35304-9-20"
       is_visible="true" /><clipPath
       clipPathUnits="userSpaceOnUse"
       id="clipPath1609-7-2"><path
         sodipodi:nodetypes="cccccc"
         inkscape:connector-curvature="0"
         id="path1611-5-3"
         d="m 252,116 28,-28 v -8 h -36 v 36 z"
         style="fill:#e74747;stroke:none;stroke-width:0.25px;stroke-linecap:butt;stroke-linejoin:miter;stroke-opacity:1" /></clipPath><linearGradient
       inkscape:collect="always"
       xlink:href="#linearGradient7939"
       id="linearGradient7941"
       x1="9"
       y1="70"
       x2="119"
       y2="70"
       gradientUnits="userSpaceOnUse"
       gradientTransform="translate(0,-2)" /><linearGradient
       inkscape:collect="always"
       id="linearGradient156024"><stop
         style="stop-color:#cccccc;stop-opacity:1"
         offset="0"
         id="stop156020" /><stop
         style="stop-color:#cccccc;stop-opacity:1"
         offset="0.69999999"
         id="stop175546" /><stop
         style="stop-color:#ffffff;stop-opacity:1"
         offset="1"
         id="stop156022" /></linearGradient><radialGradient
       r="32"
       fy="-76"
       fx="-244"
       cy="-76"
       cx="-244"
       gradientTransform="matrix(0.88333331,0,0,0.88333331,-460.35018,463.11973)"
       gradientUnits="userSpaceOnUse"
       id="radialGradient1103-56"
       xlink:href="#linearGradient1069" /><inkscape:path-effect
       effect="spiro"
       id="path-effect35304-9-7"
       is_visible="true" /><clipPath
       clipPathUnits="userSpaceOnUse"
       id="clipPath1609-7-0"><path
         sodipodi:nodetypes="cccccc"
         inkscape:connector-curvature="0"
         id="path1611-5-9"
         d="m 252,116 28,-28 v -8 h -36 v 36 z"
         style="fill:#e74747;stroke:none;stroke-width:0.25px;stroke-linecap:butt;stroke-linejoin:miter;stroke-opacity:1" /></clipPath><clipPath
       clipPathUnits="userSpaceOnUse"
       id="clipPath744-3"><rect
         style="fill:#1e88e5;fill-opacity:1;stroke-width:0.264583"
         id="rect746-6"
         width="541.86664"
         height="541.86664"
         x="0"
         y="1.5987212e-14"
         rx="79.375"
         ry="79.375" /></clipPath><clipPath
       clipPathUnits="userSpaceOnUse"
       id="clipPath62-0"><rect
         style="fill:#1e88e5;fill-opacity:1;stroke-width:0.264583"
         id="rect64-6"
         width="541.86664"
         height="541.86664"
         x="2.2507105e-05"
         y="-0.42205024"
         rx="79.375"
         ry="79.375" /></clipPath><linearGradient
       inkscape:collect="always"
       xlink:href="#linearGradient156024"
       id="linearGradient156028"
       x1="45.564453"
       y1="66.000404"
       x2="102.91992"
       y2="66.000405"
       gradientUnits="userSpaceOnUse" /><linearGradient
       inkscape:collect="always"
       xlink:href="#linearGradient408"
       id="linearGradient410"
       x1="64"
       y1="115"
       x2="64"
       y2="5"
       gradientUnits="userSpaceOnUse" /><linearGradient
       inkscape:collect="always"
       xlink:href="#linearGradient6"
       id="linearGradient7"
       x1="64"
       y1="112.86842"
       x2="64"
       y2="7.1315727"
       gradientUnits="userSpaceOnUse" /></defs><g
     inkscape:groupmode="layer"
     id="layer2"
     inkscape:label="Layer 1"><path
       id="circle1035"
       style="fill:url(#linearGradient7941);fill-opacity:1"
       d="M 64 5 A 55 55 0 0 0 9 60 L 9 68 A 55 55 0 0 0 64 123 A 55 55 0 0 0 119 68 L 119 60 A 55 55 0 0 0 64 5 z " /><circle
       style="fill:url(#linearGradient410);fill-opacity:1"
       id="path953"
       cx="64"
       cy="60"
       r="55" /><circle
       style="fill:url(#linearGradient7);fill-opacity:1;stroke-width:0.961244"
       id="circle342"
       cx="64"
       cy="60"
       r="52.868427" /><path
       id="path6"
       style="fill:#0872c5;fill-opacity:1;stroke-width:0.0951124"
       d="m 64.882812,29.042228 c -6.786171,-0.183785 -13.147384,1.61002 -19.083984,5.382813 l 5.515625,5.517578 c 5.199479,-2.853373 10.700097,-3.852106 16.501953,-2.996094 5.801858,0.856012 10.795523,3.375601 14.980469,7.560547 4.184946,4.184946 6.706488,9.178612 7.5625,14.980469 0.856011,5.801857 -0.142722,11.302475 -2.996094,16.501953 l 5.515625,5.515625 C 97.190669,74.720433 98.918511,67.381871 98.0625,59.487541 97.206488,51.593211 93.925495,44.791942 88.21875,39.085197 82.512005,33.378452 75.710736,30.097458 67.816406,29.241447 66.829615,29.134445 65.852266,29.068483 64.882812,29.042228 Z M 42.564453,41.749259 V 63.339103 L 31.912109,73.991447 c -1.45839,1.45839 -2.1875,3.265994 -2.1875,5.421875 0,2.155881 0.72911,3.963485 2.1875,5.421875 l 10.748047,10.748047 c 1.45839,1.45839 3.24887,2.1875 5.373047,2.1875 2.124177,0 3.91661,-0.72911 5.375,-2.1875 L 64.154297,84.835197 h 21.591797 z m 22.642578,2.917969 c -2.746371,-0.154558 -5.474843,0.172013 -8.185547,0.980469 l 6.46875,6.46875 c 1.648615,0 3.216937,0.252499 4.707032,0.759765 1.490094,0.507266 2.805917,1.333261 3.947265,2.47461 1.077941,1.077941 1.854516,2.361468 2.330078,3.851562 0.475562,1.490095 0.712891,3.028075 0.712891,4.613282 l 6.46875,6.466796 c 1.077941,-3.614271 1.315269,-7.244649 0.712891,-10.890624 -0.602379,-3.645977 -2.235291,-6.799744 -4.898438,-9.462891 -2.663147,-2.663147 -5.834039,-4.31123 -9.511719,-4.945313 -0.91942,-0.15852 -1.836496,-0.264887 -2.751953,-0.316406 z" /><g
       id="g953"
       transform="matrix(0.81005337,0,0,0.81005337,114.8806,9.2783687)"
       style="display:none"><g
         id="g28177"
         transform="translate(-129.28039,0.80271123)"><path
           id="path148362"
           style="fill:url(#linearGradient156028);stroke-width:6.62952"
           d="m 99.472656,31.369141 c -0.549615,5.59e-4 -1.135571,0.109137 -1.736328,0.326171 L 28.703125,58.3125 v -0.002 c -2.466335,0.964143 -3.611168,2.138086 -3.611328,3.212891 h -0.01172 v 2 2 l 0.01172,0.0039 c 0.0024,0.985605 0.966527,1.888764 2.800781,2.470703 L 45.564453,73.509766 81.9375,50.609375 55.613281,74.390625 54.341797,92.607422 v 2 2 c 1.849628,0 2.654727,-0.805107 3.609375,-1.759766 l 8.634766,-8.318359 17.898437,13.193359 c 3.263717,1.849634 5.597632,0.894754 6.46875,-3.03125 l 11.753905,-55.376953 -0.006,0.0078 c 0.15043,-0.701986 0.21116,-1.336616 0.21094,-1.916016 0.003,-0.0012 0.005,-0.0027 0.008,-0.0039 v -2 -2 l -0.008,-0.0078 c -0.005,-2.661765 -1.48542,-4.02738 -3.439454,-4.02539 z" /><path
           d="M 28.703357,58.311764 97.736553,31.694903 c 3.204037,-1.157515 6.002367,0.781619 4.964177,5.626471 l 0.006,-0.0063 L 90.9526,92.69079 c -0.871118,3.925996 -3.204045,4.880646 -6.467762,3.031019 l -17.899388,-13.1921 -8.633635,8.317389 c -0.954648,0.954659 -1.760132,1.760143 -3.60976,1.760143 L 55.612926,74.391309 88.787043,44.421235 c 1.443911,-1.270882 -0.322195,-1.986868 -2.225522,-0.721957 L 45.565238,69.510641 27.892259,63.997531 c -3.836497,-1.217173 -3.920028,-3.836495 0.811459,-5.686134 z"
           fill="#ffffff"
           id="path938"
           style="stroke-width:6.62952" /></g><path
         id="path152835"
         style="fill:#e6e6e6;fill-opacity:1"
         d="m -104.20031,62.326149 v 2 2 l 0.0117,0.0039 c 0.002,0.985605 0.96652,1.888764 2.80078,2.470703 l 17.671874,5.511719 v -4 l -17.671874,-5.511713 c -1.83669,-0.58271 -2.80093,-1.487478 -2.80078,-2.474609 z" /><path
         id="path155887"
         style="fill:#e6e6e6;fill-opacity:1"
         d="m -62.694452,83.332008 -12.244141,10.078125 v 2 2 c 1.849628,0 2.654727,-0.805107 3.609375,-1.759766 l 8.634766,-8.318359 z" /></g><path
       id="path1-3"
       style="fill:#e5f3fe;fill-opacity:1;stroke-width:0.0951124"
       d="M 64.882812 25.642578 C 58.096641 25.458793 51.735428 27.252598 45.798828 31.025391 L 51.314453 36.542969 C 56.513932 33.689596 62.01455 32.690863 67.816406 33.546875 C 73.618264 34.402887 78.611929 36.922476 82.796875 41.107422 C 86.981821 45.292368 89.503363 50.286034 90.359375 56.087891 C 91.215386 61.889748 90.216653 67.390366 87.363281 72.589844 L 92.878906 78.105469 C 97.190669 71.320783 98.918511 63.982221 98.0625 56.087891 C 97.206488 48.193561 93.925495 41.392292 88.21875 35.685547 C 82.512005 29.978802 75.710736 26.697808 67.816406 25.841797 C 66.829615 25.734795 65.852266 25.668833 64.882812 25.642578 z M 42.564453 38.349609 L 42.564453 59.939453 L 31.912109 70.591797 C 30.453719 72.050187 29.724609 73.857791 29.724609 76.013672 C 29.724609 78.169553 30.453719 79.977157 31.912109 81.435547 L 42.660156 92.183594 C 44.118546 93.641984 45.909026 94.371094 48.033203 94.371094 C 50.15738 94.371094 51.949813 93.641984 53.408203 92.183594 L 64.154297 81.435547 L 85.746094 81.435547 L 42.564453 38.349609 z M 65.207031 41.267578 C 62.46066 41.11302 59.732188 41.439591 57.021484 42.248047 L 63.490234 48.716797 C 65.138849 48.716797 66.707171 48.969296 68.197266 49.476562 C 69.68736 49.983828 71.003183 50.809823 72.144531 51.951172 C 73.222472 53.029113 73.999047 54.31264 74.474609 55.802734 C 74.950171 57.292829 75.1875 58.830809 75.1875 60.416016 L 81.65625 66.882812 C 82.734191 63.268541 82.971519 59.638163 82.369141 55.992188 C 81.766762 52.346211 80.13385 49.192444 77.470703 46.529297 C 74.807556 43.86615 71.636664 42.218067 67.958984 41.583984 C 67.039564 41.425464 66.122488 41.319097 65.207031 41.267578 z " /><path
       id="path4"
       style="fill:#ffffff;fill-opacity:1;stroke-width:0.0951124"
       d="M 64.882812 25.642578 C 58.096641 25.458793 51.735428 27.252598 45.798828 31.025391 L 47.041016 32.267578 C 52.620368 29.012363 58.567726 27.471551 64.882812 27.642578 C 65.852266 27.668833 66.829615 27.734795 67.816406 27.841797 C 75.710736 28.697808 82.512005 31.978802 88.21875 37.685547 C 93.925495 43.392292 97.206488 50.193561 98.0625 58.087891 C 98.167287 59.054263 98.232417 60.013171 98.259766 60.962891 C 98.306432 59.362416 98.241302 57.736845 98.0625 56.087891 C 97.206488 48.193561 93.925495 41.392292 88.21875 35.685547 C 82.512005 29.978802 75.710736 26.697808 67.816406 25.841797 C 66.829615 25.734795 65.852266 25.668833 64.882812 25.642578 z M 42.564453 38.349609 L 42.564453 40.349609 L 83.742188 81.435547 L 85.746094 81.435547 L 42.564453 38.349609 z M 63.150391 41.242188 C 61.097318 41.306728 59.054512 41.641705 57.021484 42.248047 L 58.605469 43.832031 C 60.794717 43.331684 62.99462 43.14307 65.207031 43.267578 C 66.122488 43.319097 67.039564 43.425464 67.958984 43.583984 C 71.636664 44.218067 74.807556 45.86615 77.470703 48.529297 C 80.13385 51.192444 81.766762 54.34621 82.369141 57.992188 C 82.529918 58.965316 82.630753 59.937307 82.671875 60.908203 C 82.741261 59.272717 82.640404 57.634046 82.369141 55.992188 C 81.766762 52.34621 80.13385 49.192444 77.470703 46.529297 C 74.807556 43.86615 71.636664 42.218067 67.958984 41.583984 C 67.039564 41.425464 66.122488 41.319097 65.207031 41.267578 C 64.520438 41.228939 63.834748 41.220674 63.150391 41.242188 z M 42.564453 59.939453 L 31.912109 70.591797 C 30.453719 72.050187 29.724609 73.857791 29.724609 76.013672 C 29.724609 76.355776 29.742577 76.689111 29.779297 77.013672 C 29.973978 75.292908 30.685143 73.818763 31.912109 72.591797 L 42.564453 61.939453 L 42.564453 59.939453 z M 90.636719 61.052734 C 90.481609 65.050264 89.390238 68.896277 87.363281 72.589844 L 88.044922 73.271484 C 89.935455 69.365647 90.79916 65.291957 90.636719 61.052734 z " /><path
       id="path5"
       style="fill:#ecf7fe;fill-opacity:1;stroke-width:0.0951124"
       d="M 47.041016 30.267578 C 46.624814 30.510407 46.210937 30.763489 45.798828 31.025391 L 51.314453 36.542969 C 56.513932 33.689596 62.01455 32.690863 67.816406 33.546875 C 73.618264 34.402887 78.611929 36.922476 82.796875 41.107422 C 86.981821 45.292368 89.503363 50.286034 90.359375 56.087891 C 90.506524 57.085234 90.599184 58.073193 90.636719 59.052734 C 90.699959 57.422893 90.607299 55.768268 90.359375 54.087891 C 89.503363 48.286034 86.981821 43.292368 82.796875 39.107422 C 78.611929 34.922476 73.618264 32.402887 67.816406 31.546875 C 62.01455 30.690863 56.513932 31.689596 51.314453 34.542969 L 47.041016 30.267578 z M 58.605469 41.832031 C 58.077099 41.952789 57.54851 42.090864 57.021484 42.248047 L 63.490234 48.716797 C 65.138849 48.716797 66.707171 48.969296 68.197266 49.476562 C 69.68736 49.983829 71.003183 50.809823 72.144531 51.951172 C 73.222472 53.029113 73.999047 54.31264 74.474609 55.802734 C 74.950171 57.292829 75.1875 58.830809 75.1875 60.416016 L 81.65625 66.882812 C 82.446483 64.233208 82.784823 61.57492 82.671875 58.908203 C 82.58718 60.904541 82.248772 62.896123 81.65625 64.882812 L 75.1875 58.416016 C 75.1875 56.830809 74.950171 55.292829 74.474609 53.802734 C 73.999047 52.31264 73.222472 51.029113 72.144531 49.951172 C 71.003183 48.809823 69.68736 47.983829 68.197266 47.476562 C 66.707171 46.969296 65.138849 46.716797 63.490234 46.716797 L 58.605469 41.832031 z M 98.259766 58.962891 C 98.083018 65.024653 96.290036 70.737956 92.878906 76.105469 L 88.044922 71.271484 C 87.83107 71.713302 87.603402 72.152291 87.363281 72.589844 L 92.878906 78.105469 C 96.662851 72.15132 98.45583 65.771463 98.259766 58.962891 z M 29.779297 75.013672 C 29.742577 75.338233 29.724609 75.671567 29.724609 76.013672 C 29.724609 78.169553 30.453719 79.977157 31.912109 81.435547 L 42.660156 92.183594 C 44.118546 93.641984 45.909026 94.371094 48.033203 94.371094 C 50.15738 94.371094 51.949813 93.641984 53.408203 92.183594 L 64.154297 81.435547 L 85.746094 81.435547 L 83.742188 79.435547 L 64.154297 79.435547 L 53.408203 90.183594 C 51.949813 91.641984 50.15738 92.371094 48.033203 92.371094 C 45.909026 92.371094 44.118546 91.641984 42.660156 90.183594 L 31.912109 79.435547 C 30.685143 78.20858 29.973978 76.734436 29.779297 75.013672 z " /></g></svg>
