<?xml version="1.0" encoding="UTF-8" standalone="no"?>
<svg
   height="128px"
   viewBox="0 0 128 128"
   width="128px"
   version="1.1"
   id="svg53"
   sodipodi:docname="org.gnome.Connections.svg"
   xml:space="preserve"
   inkscape:version="1.4.3 (0d15f75042, 2025-12-25)"
   xmlns:inkscape="http://www.inkscape.org/namespaces/inkscape"
   xmlns:sodipodi="http://sodipodi.sourceforge.net/DTD/sodipodi-0.dtd"
   xmlns:xlink="http://www.w3.org/1999/xlink"
   xmlns="http://www.w3.org/2000/svg"
   xmlns:svg="http://www.w3.org/2000/svg"><defs
     id="defs53"><linearGradient
       id="linearGradient88"
       inkscape:collect="always"><stop
         style="stop-color:#bbefd7;stop-opacity:1;"
         offset="0"
         id="stop88" /><stop
         style="stop-color:#55d79b;stop-opacity:1;"
         offset="1"
         id="stop89" /></linearGradient><linearGradient
       id="linearGradient81"
       inkscape:collect="always"><stop
         style="stop-color:#165098;stop-opacity:1;"
         offset="0"
         id="stop81" /><stop
         style="stop-color:#165098;stop-opacity:1;"
         offset="0.40069991"
         id="stop85" /><stop
         style="stop-color:#195aab;stop-opacity:1;"
         offset="0.5"
         id="stop83" /><stop
         style="stop-color:#165098;stop-opacity:1;"
         offset="0.59848678"
         id="stop84" /><stop
         style="stop-color:#165098;stop-opacity:1;"
         offset="1"
         id="stop82" /></linearGradient><clipPath
       clipPathUnits="userSpaceOnUse"
       id="clipPath67"><path
         d="M 4,6 H 124 V 126 H 4 Z m 0,0"
         id="path68" /></clipPath><clipPath
       clipPathUnits="userSpaceOnUse"
       id="clipPath68"><path
         d="M 4,4 H 124 V 120 H 4 Z m 0,0"
         id="path69" /></clipPath><clipPath
       clipPathUnits="userSpaceOnUse"
       id="clipPath71"><path
         d="M 4,4 H 124 V 120 H 4 Z m 0,0"
         id="path72" /></clipPath><linearGradient
       inkscape:collect="always"
       xlink:href="#linearGradient81"
       id="linearGradient82"
       x1="-135.55439"
       y1="62.992184"
       x2="-15.999996"
       y2="62.992184"
       gradientUnits="userSpaceOnUse"
       gradientTransform="matrix(0.92758575,0,0,0.92758575,134.28998,9.2796912)" /><linearGradient
       inkscape:collect="always"
       xlink:href="#linearGradient88"
       id="linearGradient89"
       x1="-75.777344"
       y1="-5.0019531"
       x2="-75.777344"
       y2="76.810547"
       gradientUnits="userSpaceOnUse"
       gradientTransform="matrix(0.92758575,0,0,0.92758575,134.28998,9.2796912)" /><linearGradient
       y2="236"
       x2="96"
       y1="236"
       x1="32"
       gradientTransform="translate(604.81684,170.58641)"
       gradientUnits="userSpaceOnUse"
       id="linearGradient1099"
       xlink:href="#linearGradient1036" /><linearGradient
       id="linearGradient1036"><stop
         id="stop1032"
         offset="0"
         style="stop-color:#d5d3cf;stop-opacity:1;" /><stop
         id="stop1034"
         offset="1"
         style="stop-color:#f6f5f4;stop-opacity:1" /></linearGradient><radialGradient
       r="32"
       fy="-76"
       fx="-244"
       cy="-76"
       cx="-244"
       gradientTransform="matrix(0.88333331,0,0,0.88333331,-460.35018,463.11973)"
       gradientUnits="userSpaceOnUse"
       id="radialGradient1103"
       xlink:href="#linearGradient1069" /><linearGradient
       id="linearGradient1069"><stop
         id="stop1065"
         offset="0"
         style="stop-color:#d5d3cf;stop-opacity:1" /><stop
         id="stop1067-1"
         offset="1"
         style="stop-color:#949390;stop-opacity:1" /></linearGradient><linearGradient
       gradientUnits="userSpaceOnUse"
       y2="232"
       x2="64"
       y1="262.5"
       x1="64"
       id="linearGradient1027"
       xlink:href="#linearGradient1025"
       gradientTransform="translate(-470.5864,432.81685)" /><linearGradient
       id="linearGradient1025"><stop
         id="stop1021"
         offset="0"
         style="stop-color:#9a9996;stop-opacity:1" /><stop
         id="stop1023"
         offset="1"
         style="stop-color:#77767b;stop-opacity:1" /></linearGradient><inkscape:path-effect
       effect="spiro"
       id="path-effect35304-9"
       is_visible="true" /><clipPath
       clipPathUnits="userSpaceOnUse"
       id="clipPath1609-7"><path
         sodipodi:nodetypes="cccccc"
         inkscape:connector-curvature="0"
         id="path1611-5"
         d="m 252,116 28,-28 v -8 h -36 v 36 z"
         style="fill:#e74747;stroke:none;stroke-width:0.25px;stroke-linecap:butt;stroke-linejoin:miter;stroke-opacity:1" /></clipPath><radialGradient
       r="32"
       fy="-76"
       fx="-244"
       cy="-76"
       cx="-244"
       gradientTransform="matrix(0.88333331,0,0,0.88333331,-460.35018,463.11973)"
       gradientUnits="userSpaceOnUse"
       id="radialGradient1103-5"
       xlink:href="#linearGradient1069" /><inkscape:path-effect
       effect="spiro"
       id="path-effect35304-9-2"
       is_visible="true" /><clipPath
       clipPathUnits="userSpaceOnUse"
       id="clipPath1609-7-7"><path
         sodipodi:nodetypes="cccccc"
         inkscape:connector-curvature="0"
         id="path1611-5-0"
         d="m 252,116 28,-28 v -8 h -36 v 36 z"
         style="fill:#e74747;stroke:none;stroke-width:0.25px;stroke-linecap:butt;stroke-linejoin:miter;stroke-opacity:1" /></clipPath><clipPath
       clipPathUnits="userSpaceOnUse"
       id="clipPath744"><rect
         style="fill:#1e88e5;fill-opacity:1;stroke-width:0.264583"
         id="rect746"
         width="541.86664"
         height="541.86664"
         x="0"
         y="1.5987212e-14"
         rx="79.375"
         ry="79.375" /></clipPath><clipPath
       clipPathUnits="userSpaceOnUse"
       id="clipPath62"><rect
         style="fill:#1e88e5;fill-opacity:1;stroke-width:0.264583"
         id="rect64"
         width="541.86664"
         height="541.86664"
         x="2.2507105e-05"
         y="-0.42205024"
         rx="79.375"
         ry="79.375" /></clipPath><radialGradient
       r="32"
       fy="-76"
       fx="-244"
       cy="-76"
       cx="-244"
       gradientTransform="matrix(0.88333331,0,0,0.88333331,-460.35018,463.11973)"
       gradientUnits="userSpaceOnUse"
       id="radialGradient1103-6"
       xlink:href="#linearGradient1069" /><inkscape:path-effect
       effect="spiro"
       id="path-effect35304-9-20"
       is_visible="true" /><clipPath
       clipPathUnits="userSpaceOnUse"
       id="clipPath1609-7-2"><path
         sodipodi:nodetypes="cccccc"
         inkscape:connector-curvature="0"
         id="path1611-5-3"
         d="m 252,116 28,-28 v -8 h -36 v 36 z"
         style="fill:#e74747;stroke:none;stroke-width:0.25px;stroke-linecap:butt;stroke-linejoin:miter;stroke-opacity:1" /></clipPath><radialGradient
       r="32"
       fy="-76"
       fx="-244"
       cy="-76"
       cx="-244"
       gradientTransform="matrix(0.88333331,0,0,0.88333331,-460.35018,463.11973)"
       gradientUnits="userSpaceOnUse"
       id="radialGradient1103-56"
       xlink:href="#linearGradient1069" /><inkscape:path-effect
       effect="spiro"
       id="path-effect35304-9-7"
       is_visible="true" /><clipPath
       clipPathUnits="userSpaceOnUse"
       id="clipPath1609-7-0"><path
         sodipodi:nodetypes="cccccc"
         inkscape:connector-curvature="0"
         id="path1611-5-9"
         d="m 252,116 28,-28 v -8 h -36 v 36 z"
         style="fill:#e74747;stroke:none;stroke-width:0.25px;stroke-linecap:butt;stroke-linejoin:miter;stroke-opacity:1" /></clipPath><clipPath
       clipPathUnits="userSpaceOnUse"
       id="clipPath744-3"><rect
         style="fill:#1e88e5;fill-opacity:1;stroke-width:0.264583"
         id="rect746-6"
         width="541.86664"
         height="541.86664"
         x="0"
         y="1.5987212e-14"
         rx="79.375"
         ry="79.375" /></clipPath><clipPath
       clipPathUnits="userSpaceOnUse"
       id="clipPath62-0"><rect
         style="fill:#1e88e5;fill-opacity:1;stroke-width:0.264583"
         id="rect64-6"
         width="541.86664"
         height="541.86664"
         x="2.2507105e-05"
         y="-0.42205024"
         rx="79.375"
         ry="79.375" /></clipPath></defs><sodipodi:namedview
     id="namedview53"
     pagecolor="#ffffff"
     bordercolor="#999999"
     borderopacity="1"
     inkscape:showpageshadow="2"
     inkscape:pageopacity="0"
     inkscape:pagecheckerboard="0"
     inkscape:deskcolor="#d1d1d1"
     inkscape:zoom="5.6568542"
     inkscape:cx="50.116194"
     inkscape:cy="85.11798"
     inkscape:window-width="1728"
     inkscape:window-height="1043"
     inkscape:window-x="0"
     inkscape:window-y="0"
     inkscape:window-maximized="1"
     inkscape:current-layer="svg53" /><clipPath
     id="a"><path
       d="m 4 4 h 120 v 120 h -120 z m 0 0"
       id="path1" /></clipPath><clipPath
     id="b"><path
       d="m 123.996094 64 c 0 33.132812 -26.863282 59.996094 -59.996094 59.996094 s -59.996094 -26.863282 -59.996094 -59.996094 s 26.863282 -59.996094 59.996094 -59.996094 s 59.996094 26.863282 59.996094 59.996094 z m 0 0"
       id="path2" /></clipPath><clipPath
     id="c"><path
       d="m 4 4 h 120 v 116 h -120 z m 0 0"
       id="path3" /></clipPath><clipPath
     id="d"><path
       d="m 123.996094 64 c 0 33.132812 -26.863282 59.996094 -59.996094 59.996094 s -59.996094 -26.863282 -59.996094 -59.996094 s 26.863282 -59.996094 59.996094 -59.996094 s 59.996094 26.863282 59.996094 59.996094 z m 0 0"
       id="path4" /></clipPath><clipPath
     id="f"><path
       d="m 123.996094 64 c 0 33.132812 -26.863282 59.996094 -59.996094 59.996094 s -59.996094 -26.863282 -59.996094 -59.996094 s 26.863282 -59.996094 59.996094 -59.996094 s 59.996094 26.863282 59.996094 59.996094 z m 0 0"
       id="path6" /></clipPath><clipPath
     id="h"><path
       d="m 123.996094 64 c 0 33.132812 -26.863282 59.996094 -59.996094 59.996094 s -59.996094 -26.863282 -59.996094 -59.996094 s 26.863282 -59.996094 59.996094 -59.996094 s 59.996094 26.863282 59.996094 59.996094 z m 0 0"
       id="path8" /></clipPath><clipPath
     id="j"><path
       d="m 123.996094 64 c 0 33.132812 -26.863282 59.996094 -59.996094 59.996094 s -59.996094 -26.863282 -59.996094 -59.996094 s 26.863282 -59.996094 59.996094 -59.996094 s 59.996094 26.863282 59.996094 59.996094 z m 0 0"
       id="path10" /></clipPath><clipPath
     id="l"><path
       d="m 123.996094 64 c 0 33.132812 -26.863282 59.996094 -59.996094 59.996094 s -59.996094 -26.863282 -59.996094 -59.996094 s 26.863282 -59.996094 59.996094 -59.996094 s 59.996094 26.863282 59.996094 59.996094 z m 0 0"
       id="path12" /></clipPath><linearGradient
     id="m"
     gradientTransform="matrix(0.192655,0,0,0.25,-296.65367,26.054684)"
     gradientUnits="userSpaceOnUse"
     x1="48"
     x2="464"
     y1="44"
     y2="44"><stop
       offset="0"
       stop-color="#3d3846"
       id="stop12" /><stop
       offset="0.05"
       stop-color="#77767b"
       id="stop13" /><stop
       offset="0.1"
       stop-color="#3d3846"
       id="stop14" /><stop
       offset="0.899999"
       stop-color="#3d3846"
       id="stop15" /><stop
       offset="0.95"
       stop-color="#77767b"
       id="stop16" /><stop
       offset="1"
       stop-color="#3d3846"
       id="stop17" /></linearGradient><linearGradient
     id="n"
     gradientUnits="userSpaceOnUse"
     x1="-136.212692"
     x2="300.910431"
     y1="979.674214"
     y2="862.547383"
     gradientTransform="matrix(0.22008456,0,0,0.22008456,47.222016,-105.87242)"><stop
       offset="0"
       stop-color="#9141ac"
       id="stop18" /><stop
       offset="0.227896"
       stop-color="#33d17a"
       id="stop19" /><stop
       offset="0.510722"
       stop-color="#f5c211"
       id="stop20" /><stop
       offset="0.789213"
       stop-color="#e66100"
       id="stop21" /><stop
       offset="1"
       stop-color="#26a269"
       id="stop22" /></linearGradient><linearGradient
     id="o"
     gradientUnits="userSpaceOnUse"
     x1="85.99996119305"
     x2="109.44605422979"
     y1="25.68808626232"
     y2="24.83250689333"
     gradientTransform="translate(-335.40621,15.05469)"><stop
       offset="0"
       stop-color="#787878"
       id="stop23" /><stop
       offset="1"
       stop-color="#787878"
       stop-opacity="0"
       id="stop24" /></linearGradient><ellipse
     style="fill:url(#linearGradient82);fill-opacity:1;stroke-width:5.5733;stroke-linecap:round;stroke-linejoin:round"
     id="ellipse77"
     cx="64.000137"
     cy="67.710342"
     rx="55.448475"
     ry="55.649712" /><ellipse
     style="fill:#458ee7;fill-opacity:1;stroke-width:5.5733;stroke-linecap:round;stroke-linejoin:round"
     id="path73"
     cx="64.000137"
     cy="60.289658"
     rx="55.448475"
     ry="55.649712" /><path
     id="ellipse87"
     style="fill:#c2daf7;fill-opacity:1;stroke-width:5.5733;stroke-linecap:round;stroke-linejoin:round"
     d="M 63.999996,4.6399508 A 55.448474,55.64971 0 0 0 8.5513812,60.289661 55.448474,55.64971 0 0 0 8.6112105,61.217247 55.448474,55.64971 0 0 1 64.000033,6.4951223 55.448474,55.64971 0 0 1 119.38886,61.217247 55.448474,55.64971 0 0 0 119.44864,60.289661 55.448474,55.64971 0 0 0 64.00003,4.6399508 Z" /><path
     id="path80"
     style="fill:#1d6bcb;fill-opacity:1;stroke-width:0.979438"
     d="m 51.412367,12.471891 c -0.480056,1.607638 -1.902335,2.819516 -3.648745,2.92588 -2.234627,0 -4.047318,1.841642 -4.047318,4.112539 v 1.855171 1.855172 c 0,-2.270898 1.812691,-4.112539 4.047318,-4.112539 2.242306,-0.136565 3.949806,-2.096532 3.815421,-4.375233 -0.05139,-0.138472 -0.10683,-0.273403 -0.166676,-0.405819 -0.0072,0.02436 -0.01947,0.04648 -0.02718,0.07066 0.152234,-0.477412 0.225172,-0.988919 0.193851,-1.520009 -0.05139,-0.138471 -0.106829,-0.273402 -0.166675,-0.405818 z m 29.472588,6.563756 c -0.05484,0.300856 -0.08333,0.610884 -0.08333,0.927585 0,0.339006 0.03519,0.670297 0.09783,0.990996 -0.0042,-0.02142 -0.01057,-0.0419 -0.0145,-0.06341 -0.05484,0.300856 -0.08333,0.610885 -0.08333,0.927586 0,2.842663 2.308176,5.147014 5.147014,5.147014 h 17.560721 c 0.0236,0 0.0471,2.2e-4 0.0707,0 l 1.95843,2.02547 3.8118,-0.722864 a 55.448474,55.64971 0 0 0 -4.76293,-5.89343 l -0.92759,0.878669 a 55.448474,55.64971 0 0 0 -0.63047,-0.637715 l -1.26275,0.639527 H 85.948631 c -2.522563,0 -4.626273,-1.819527 -5.063676,-4.219428 z m -37.168651,12.34305 c 0,4.416934 -3.520187,7.991369 -7.862735,7.991369 -4.342548,0 -7.864554,3.578337 -7.864554,7.991369 0,4.416933 -3.520188,7.991368 -7.862736,7.991368 -4.342549,0 -7.864555,3.578336 -7.864555,7.991368 0,0.313802 0.018,0.623288 0.0525,0.927586 -0.03469,0.304413 -0.0525,0.613743 -0.0525,0.927586 0,0.313901 0.0179,0.623193 0.0525,0.927586 0.452355,-3.976328 3.778084,-7.063783 7.812015,-7.063783 4.342549,0 7.862737,-3.574435 7.862737,-7.991368 0,-4.413032 3.522006,-7.991369 7.864554,-7.991369 4.342548,0 7.862735,-3.574435 7.862735,-7.991369 v -1.855171 z m 16.368628,2.101562 v 1.855171 1.855172 c 0,3.141085 2.547624,5.69052 5.68871,5.69052 3.14491,0 5.688709,-2.549435 5.688709,-5.69052 V 35.33543 33.480259 c 0,3.141085 -2.543799,5.69052 -5.688709,5.69052 -3.141086,0 -5.68871,-2.549435 -5.68871,-5.69052 z m 59.285778,29.757023 c -0.92881,0.440891 -1.951,0.677932 -2.99835,0.675761 l -11.08031,-0.02718 c -3.17552,-0.0038 -6.225639,1.250947 -8.471461,3.49294 -2.249646,2.241992 -3.511058,5.28689 -3.511058,8.462407 v 1.855172 1.855171 c 0,-3.175517 1.261412,-6.220415 3.511058,-8.462407 2.245822,-2.241993 5.295941,-3.496767 8.471461,-3.49294 l 11.08031,0.02718 c 0.92082,0.0019 1.82371,-0.1784 2.65956,-0.521767 a 55.448474,55.64971 0 0 0 0.33879,-3.864337 z m -52.808983,2.974796 v 1.855172 1.855171 c 0,3.952182 3.205808,7.157991 7.157991,7.157991 2.195512,0.646547 3.717585,2.483714 4.065434,4.601696 0.102849,-0.627214 0.09897,-1.252448 0,-1.855172 0.464107,-2.830986 -1.245269,-5.626368 -4.065434,-6.456867 -3.952183,0 -7.157991,-3.205809 -7.157991,-7.157991 z m 11.063996,22.856293 v 1.855171 1.855172 c 0,4.334774 3.513471,7.846436 7.848245,7.846436 4.330949,-0.004 7.83939,-3.515487 7.835563,-7.846436 v -1.840678 c 6e-6,-0.0049 5e-6,-0.0096 0,-0.0145 V 89.08286 c -0.0038,4.324442 -3.509333,7.828141 -7.835563,7.831939 -4.334774,0 -7.848245,-3.511659 -7.848245,-7.846433 z" /><path
     id="path78"
     style="fill:#155a3a;fill-opacity:1;stroke-width:0.979438"
     d="m 51.412367,10.616719 c -0.480056,1.607638 -1.902335,2.819517 -3.648745,2.925881 -2.234627,0 -4.047318,1.841641 -4.047318,4.112538 v 1.855172 c 0,-2.270898 1.812691,-4.112539 4.047318,-4.112539 2.242306,-0.136566 3.949806,-2.096533 3.815421,-4.375233 -0.05139,-0.138472 -0.10683,-0.273403 -0.166676,-0.405819 z m 29.472588,6.563756 c -0.05484,0.300856 -0.08333,0.610884 -0.08333,0.927586 0,2.842663 2.308176,5.147014 5.147013,5.147014 h 17.560712 c 0.0503,0 0.10047,-2.94e-4 0.15037,-0.0019 l 1.52907,-0.219215 a 55.448474,55.64971 0 0 0 -2.15953,-2.273672 l -1.26275,0.639527 H 85.948634 c -2.522563,0 -4.626272,-1.819528 -5.063676,-4.219428 z M 43.716304,29.523526 c 0,4.416933 -3.520187,7.991368 -7.862735,7.991368 -4.342548,0 -7.864554,3.578337 -7.864554,7.991369 0,4.416934 -3.520188,7.991369 -7.862736,7.991369 -4.342549,0 -7.864555,3.578336 -7.864555,7.991368 0,0.313901 0.0179,0.623193 0.0525,0.927586 0.452355,-3.976328 3.778084,-7.063783 7.812015,-7.063783 4.342549,0 7.862737,-3.574435 7.862737,-7.991368 0,-4.413032 3.522006,-7.991369 7.864554,-7.991369 4.342548,0 7.862735,-3.574435 7.862735,-7.991369 z m 16.368628,2.101561 v 1.855172 c 0,3.141085 2.547624,5.69052 5.68871,5.69052 3.14491,0 5.688709,-2.549435 5.688709,-5.69052 v -1.855172 c 0,3.141086 -2.543799,5.690521 -5.688709,5.690521 -3.141086,0 -5.68871,-2.549435 -5.68871,-5.690521 z M 8.6093553,61.244421 a 55.448474,55.64971 0 0 0 -0.057974,0.900412 55.448474,55.64971 0 0 0 0.057974,2.552672 55.448474,55.64971 0 0 1 0.083297,-1.170353 55.448474,55.64971 0 0 1 -0.083297,-2.282731 z M 119.39788,61.369428 c -0.936,0.449199 -1.96797,0.690637 -3.02552,0.688443 l -11.08031,-0.02718 c -3.17552,-0.0038 -6.225639,1.250948 -8.471461,3.49294 -2.249646,2.241993 -3.511058,5.28689 -3.511058,8.462408 v 1.855171 c 0,-3.175517 1.261412,-6.220415 3.511058,-8.462407 2.245822,-2.241993 5.295941,-3.496767 8.471461,-3.49294 l 11.08031,0.02718 c 1.004,0.002 1.98645,-0.213435 2.88421,-0.619599 a 55.448474,55.64971 0 0 0 0.0109,-0.221026 55.448474,55.64971 0 0 1 0.0181,0.208345 c 0.0509,-0.02333 0.10181,-0.04791 0.15218,-0.07247 a 55.448474,55.64971 0 0 0 0.0109,-1.063457 55.448474,55.64971 0 0 0 -0.0507,-0.775405 z m -52.836153,2.987479 v 1.855171 c 0,3.952182 3.205808,7.157991 7.157991,7.157991 2.195512,0.646547 3.717585,2.483714 4.065434,4.601696 0.464233,-2.831063 -1.245195,-5.626347 -4.065434,-6.456867 -3.952183,0 -7.157991,-3.205809 -7.157991,-7.157991 z m 11.063996,22.856292 v 1.855172 c 0,4.334774 3.513471,7.846433 7.848245,7.846433 4.330949,-0.0038 7.83939,-3.515484 7.835563,-7.846433 v -1.840678 c -0.0038,4.324443 -3.509333,7.828141 -7.835563,7.831939 -4.334774,0 -7.848245,-3.511658 -7.848245,-7.846433 z" /><path
     id="path27"
     style="fill:#26a269;fill-opacity:1;stroke-width:0.979438"
     d="M 49.696696,6.5241093 A 55.448474,55.64971 0 0 0 8.5513812,60.289661 55.448474,55.64971 0 0 0 27.989015,102.60533 V 77.469926 c 0,-4.413032 -3.520188,-7.991369 -7.862736,-7.991369 -4.342549,0 -7.864555,-3.572624 -7.864555,-7.989557 0,-4.413032 3.522006,-7.991368 7.864555,-7.991368 4.342548,0 7.862736,-3.574435 7.862736,-7.991369 0,-4.413032 3.522006,-7.991369 7.864554,-7.991369 4.342548,0 7.862735,-3.574435 7.862735,-7.991368 V 17.655138 c 0,-2.270897 1.812691,-4.112538 4.047318,-4.112538 2.242306,-0.136566 3.949806,-2.096533 3.815421,-4.3752336 C 51.179722,8.0913352 50.518514,7.1952613 49.696696,6.5241093 Z m 36.251936,4.5835777 c -2.838838,0 -5.147015,2.30254 -5.147014,5.145203 0,2.842663 2.308176,5.147013 5.147014,5.147013 h 17.560718 c 0.0503,0 0.10047,-3.81e-4 0.15037,-0.0019 A 55.448474,55.64971 0 0 0 89.945221,11.107687 Z m -20.17499,8.58198 c -3.141086,0 -5.68871,2.547624 -5.68871,5.68871 v 6.24671 c 0,3.141086 2.547624,5.690521 5.68871,5.690521 3.14491,0 5.688709,-2.549435 5.688709,-5.690521 v -6.24671 c 0,-3.141086 -2.543799,-5.68871 -5.688709,-5.68871 z m 22.488518,6.572815 c -3.84888,0 -6.971386,3.120693 -6.971386,6.969575 v 2.972985 c 0,3.848882 -3.120693,6.971387 -6.969575,6.971387 -4.629371,0.344332 -8.103806,4.376342 -7.759472,9.009538 v 12.17094 c 0,3.952182 3.205808,7.157991 7.157991,7.157991 3.053089,0.899091 4.805098,4.101076 3.906005,7.157991 v 8.54031 c 0,4.334775 3.513471,7.846433 7.848245,7.846433 4.330949,-0.0038 7.839389,-3.515484 7.835563,-7.846433 V 73.986044 c 0,-3.175518 1.261412,-6.220416 3.511058,-8.462408 2.245822,-2.241992 5.295941,-3.496766 8.471461,-3.49294 l 11.08031,0.02718 c 1.07221,0.0022 2.11914,-0.243423 3.06538,-0.704748 a 55.448474,55.64971 0 0 0 0.0109,-1.063465 55.448474,55.64971 0 0 0 -11.57308,-34.027179 z" /><path
     id="path89"
     style="baseline-shift:baseline;display:inline;overflow:visible;vector-effect:none;fill:#000000;fill-opacity:0.3;stroke-width:0.927586;enable-background:accumulate;stop-color:#000000"
     d="m 97.871369,68.023769 v 2.857037 2.208451 19.763736 c 0,5.16457 -4.111289,9.275857 -9.275858,9.275857 H 56.749609 c -6.190554,0 -11.131029,-4.940474 -11.131029,-11.131028 V 90.586568 L 45.52799,90.186184 C 43.64606,81.785661 35.406334,76.417704 27.010699,77.881179 H 16.243822 v 0.842436 l 5.618053,6.57825 h 5.616244 l 0.400383,-0.0924 c 4.730975,-1.059861 9.326281,1.851445 10.399108,6.574626 0.425345,9.832239 8.540042,17.765449 18.471995,17.765449 h 31.845903 c 0.437148,0 0.869988,-0.0172 1.298982,-0.0507 a 55.448474,55.64971 0 0 0 14.40113,-10.980663 c 0.64508,-1.771494 0.99643,-3.680792 0.99643,-5.666969 V 73.089247 70.880795 68.023759 Z" /><path
     id="path86"
     style="fill:url(#linearGradient89);fill-opacity:1;stroke-width:0.979438"
     d="M 49.696696,6.5241093 A 55.448474,55.64971 0 0 0 8.5513812,60.289661 55.448474,55.64971 0 0 0 8.6093553,61.244421 55.448474,55.64971 0 0 1 49.696696,8.3792808 c 0.716061,0.5847831 1.310471,1.3408841 1.715671,2.2374382 C 51.54868,10.160228 51.608762,9.6713112 51.579043,9.1673664 51.179722,8.0913352 50.518514,7.1952613 49.696696,6.5241093 Z m 36.251936,4.5835777 c -2.838838,0 -5.147017,2.30254 -5.147014,5.145203 0,0.316701 0.02849,0.62669 0.08333,0.927585 0.437404,-2.39958 2.541115,-4.217616 5.063677,-4.217616 h 3.996589 a 55.448474,55.64971 0 0 1 11.821286,8.437044 h 1.74285 c 0.0503,0 0.10047,-3.81e-4 0.15037,-0.0019 A 55.448474,55.64971 0 0 0 89.945221,11.107687 Z m -20.17499,8.58198 c -3.141086,0 -5.68871,2.547624 -5.68871,5.68871 v 1.855171 c 0,-3.141085 2.547624,-5.68871 5.68871,-5.68871 3.14491,0 5.688709,2.547625 5.688709,5.68871 v -1.855171 c 0,-3.141086 -2.543799,-5.68871 -5.688709,-5.68871 z m 22.488518,6.572815 c -3.84888,0 -6.971386,3.120693 -6.971386,6.969575 v 1.855172 c 0,-3.848883 3.122506,-6.969575 6.971386,-6.969575 h 19.61337 a 55.448474,55.64971 0 0 1 11.52235,33.251774 c 0.013,-0.0062 0.0269,-0.01 0.0399,-0.01631 a 55.448474,55.64971 0 0 0 0.0109,-1.063461 55.448474,55.64971 0 0 0 -11.57308,-34.027179 z m -6.971386,9.94256 c 0,3.848882 -3.120693,6.971387 -6.969575,6.971387 -4.629371,0.344332 -8.103806,4.376342 -7.759472,9.009538 v 0.592423 c 0.305762,-4.081907 3.556665,-7.434185 7.759472,-7.74679 3.848882,0 6.969575,-3.122504 6.969575,-6.971387 z M 12.314263,62.416586 c -0.0346,0.304208 -0.0525,0.613962 -0.0525,0.927585 0,4.416934 3.522006,7.989558 7.864555,7.989558 4.342548,-1e-6 7.862736,3.578336 7.862736,7.991368 v -1.855171 c 0,-4.413032 -3.520188,-7.991369 -7.862736,-7.991369 -4.033932,0 -7.35966,-3.083218 -7.812016,-7.061971 z" /><path
     id="path38"
     style="baseline-shift:baseline;display:inline;overflow:visible;vector-effect:none;fill:url(#n);stroke-width:0.927586;enable-background:accumulate;stop-color:#000000"
     d="m 97.871369,64.312521 v 2.857036 2.208452 19.763736 c 0,5.16457 -4.111289,9.275857 -9.275858,9.275857 H 56.749609 c -6.190554,0 -11.131029,-4.940475 -11.131029,-11.131029 V 86.87532 L 45.52799,86.474936 C 43.64606,78.074413 35.406334,72.706457 27.010699,74.169932 H 16.243822 v 7.420686 h 11.234297 l 0.400383,-0.09059 c 4.730975,-1.059861 9.326281,1.851444 10.399108,6.574627 0.425345,9.832237 8.540046,17.763635 18.471999,17.763635 h 31.845902 c 9.176761,0 16.696549,-7.519787 16.696539,-16.69655 V 69.378009 67.169557 64.312521 Z" /><g
     id="g78"
     transform="matrix(0.92758575,0,0,0.92758575,134.28998,12.990034)"><g
       fill="#ffffff"
       id="g47"
       transform="translate(-143.26168,-11.52812)"><path
         d="m 72,108 c 0,2.21094 -1.789062,4 -4,4 -2.210938,0 -4,-1.78906 -4,-4 0,-2.21094 1.789062,-4 4,-4 2.210938,0 4,1.78906 4,4 z m 0,0"
         id="path39" /><path
         d="m 88,108 c 0,2.21094 -1.789062,4 -4,4 -2.210938,0 -4,-1.78906 -4,-4 0,-2.21094 1.789062,-4 4,-4 2.210938,0 4,1.78906 4,4 z m 0,0"
         id="path40" /><path
         d="m 104,106 c 0,2.21094 -1.78906,4 -4,4 -2.210938,0 -4,-1.78906 -4,-4 0,-2.21094 1.789062,-4 4,-4 2.21094,0 4,1.78906 4,4 z m 0,0"
         id="path41" /><path
         d="m 112,94 c 0,2.210938 -1.78906,4 -4,4 -2.21094,0 -4,-1.789062 -4,-4 0,-2.210938 1.78906,-4 4,-4 2.21094,0 4,1.789062 4,4 z m 0,0"
         id="path42" /><path
         d="m 112,80 c 0,2.210938 -1.78906,4 -4,4 -2.21094,0 -4,-1.789062 -4,-4 0,-2.210938 1.78906,-4 4,-4 2.21094,0 4,1.789062 4,4 z m 0,0"
         id="path43" /><path
         d="m 56,106 c 0,2.21094 -1.789062,4 -4,4 -2.210938,0 -4,-1.78906 -4,-4 0,-2.21094 1.789062,-4 4,-4 2.210938,0 4,1.78906 4,4 z m 0,0"
         id="path44" /><path
         d="m 48,94 c 0,2.210938 -1.789062,4 -4,4 -2.210938,0 -4,-1.789062 -4,-4 0,-2.210938 1.789062,-4 4,-4 2.210938,0 4,1.789062 4,4 z m 0,0"
         id="path45" /><path
         d="m 40,82 c 0,2.210938 -1.789062,4 -4,4 -2.210938,0 -4,-1.789062 -4,-4 0,-2.210938 1.789062,-4 4,-4 2.210938,0 4,1.789062 4,4 z m 0,0"
         id="path46" /><path
         d="m 27.984375,82 c 0,4.410156 -3.574219,7.984375 -7.984375,7.984375 -4.410156,0 -7.984375,-3.574219 -7.984375,-7.984375 0,-4.410156 3.574219,-7.988281 7.984375,-7.988281 4.410156,0 7.984375,3.578125 7.984375,7.988281 z m 0,0"
         id="path47" /></g><circle
       style="fill:#ffffff;fill-opacity:1;stroke-width:2.675;stroke-linecap:round;stroke-linejoin:round"
       id="path77"
       cx="-35.261681"
       cy="53.338867"
       r="6.1875" /></g><path
     id="ellipse85"
     style="fill:#a3c7f3;fill-opacity:0.23068;stroke-width:5.5733;stroke-linecap:round;stroke-linejoin:round"
     d="M 8.6111734,59.362075 A 55.448474,55.64971 0 0 0 8.5513441,60.289661 55.448474,55.64971 0 0 0 63.999958,115.93937 55.448474,55.64971 0 0 0 119.44861,60.289661 55.448474,55.64971 0 0 0 119.38883,59.362075 55.448474,55.64971 0 0 1 63.999998,114.0842 55.448474,55.64971 0 0 1 8.6111734,59.362075 Z" /><path
     d="m 33.28821,35.809509 10.79043,32.382163 7.040237,-6.03293 4.576327,5.493047 c 1.192096,1.431236 3.32264,1.626898 4.753877,0.431181 1.42761,-1.192092 1.623275,-3.315393 0.431179,-4.746629 l -4.637928,-5.565515 6.728623,-5.768424 z m 0,0"
     id="path48"
     style="mix-blend-mode:hard-light;fill:#000000;fill-opacity:0.25188431;stroke-width:0.927586" /><path
     id="path49"
     d="m 33.288173,31.254916 v 0.0036 l 1.070712,3.212128 0.715614,2.148666 v 0.0019 l 9.004104,27.015935 0.0019,-0.0019 0.0019,0.0055 7.036601,-6.032931 4.576337,5.493047 c 0.745055,0.894523 1.856553,1.304701 2.934937,1.195716 0.107841,-0.0108 0.21571,-0.02769 0.322484,-0.04892 0.21354,-0.04264 0.424167,-0.10546 0.628653,-0.190227 0.306734,-0.126944 0.599443,-0.301873 0.867803,-0.52539 0.08959,-0.07481 0.173792,-0.153754 0.253639,-0.23552 0.07923,-0.08126 0.153255,-0.164557 0.222834,-0.251825 3.06e-4,-3.84e-4 -3.06e-4,-0.0014 0,-0.0019 0.139314,-0.174871 0.260438,-0.360093 0.360524,-0.554377 2.51e-4,-4.89e-4 -2.5e-4,-0.0013 0,-0.0019 0.09998,-0.194272 0.180796,-0.395912 0.240959,-0.603293 1.58e-4,-5.62e-4 -1.67e-4,-0.0012 0,-0.0019 0.06005,-0.207379 0.09992,-0.4199 0.119566,-0.634093 5.6e-5,-5.99e-4 -4.6e-5,-0.0012 0,-0.0019 0.0097,-0.1068 0.01492,-0.215159 0.0145,-0.32248 0,-6.02e-4 0,-0.0012 0,-0.0019 -9.27e-4,-0.215255 -0.02296,-0.430518 -0.06522,-0.64315 -1.21e-4,-5.7e-4 1.11e-4,-0.0012 0,-0.0019 -0.106237,-0.533002 -0.343096,-1.047383 -0.715623,-1.494645 l -4.637929,-5.565514 5.253901,-4.503863 1.405877,-1.206587 0.06885,-0.05797 -0.06885,-0.03623 -5.565514,-3.036395 -0.846061,-0.461981 -1.405867,-0.766345 -8.879101,-4.84265 v -0.0019 l -1.322534,-0.721053 h -0.0019 l -9.806688,-5.348112 v -0.0036 z"
     style="fill:#ffffff;fill-opacity:1;stroke-width:0.927586" /><path
     d="m 33.28821,31.258542 10.79043,32.37854 7.040237,-6.029308 4.576327,5.489423 c 1.192096,1.431236 3.32264,1.626899 4.753877,0.434806 0.112322,-0.09783 0.221025,-0.20291 0.318858,-0.315234 z m 0,0"
     fill="#deddda"
     id="path51"
     style="fill:#bbb9b3;fill-opacity:1;stroke-width:0.927586" /></svg>
