<?xml version="1.0" encoding="UTF-8" standalone="no"?>
<!-- Created with Inkscape (http://www.inkscape.org/) -->

<svg
   width="128"
   height="128"
   viewBox="0 0 128 128"
   version="1.1"
   id="svg5"
   inkscape:version="1.4 (e7c3feb100, 2024-10-09)"
   sodipodi:docname="org.gnome.Papers.svg"
   xml:space="preserve"
   xmlns:inkscape="http://www.inkscape.org/namespaces/inkscape"
   xmlns:sodipodi="http://sodipodi.sourceforge.net/DTD/sodipodi-0.dtd"
   xmlns:xlink="http://www.w3.org/1999/xlink"
   xmlns="http://www.w3.org/2000/svg"
   xmlns:svg="http://www.w3.org/2000/svg"><sodipodi:namedview
     id="namedview7"
     pagecolor="#ffffff"
     bordercolor="#666666"
     borderopacity="1"
     inkscape:pageshadow="2"
     inkscape:pageopacity="0.0"
     inkscape:pagecheckerboard="true"
     inkscape:document-units="px"
     showgrid="false"
     inkscape:showpageshadow="false"
     showborder="true"
     inkscape:snap-page="true"
     inkscape:zoom="2"
     inkscape:cx="-39"
     inkscape:cy="69.75"
     inkscape:window-width="1920"
     inkscape:window-height="1043"
     inkscape:window-x="0"
     inkscape:window-y="0"
     inkscape:window-maximized="1"
     inkscape:current-layer="layer2"
     inkscape:deskcolor="#d1d1d1" /><defs
     id="defs2"><linearGradient
       id="linearGradient50"
       inkscape:collect="always"><stop
         style="stop-color:#7bb2ff;stop-opacity:1;"
         offset="0"
         id="stop50" /><stop
         style="stop-color:#66a5ff;stop-opacity:1;"
         offset="1"
         id="stop51" /></linearGradient><linearGradient
       id="linearGradient48"
       inkscape:collect="always"><stop
         style="stop-color:#3aaa67;stop-opacity:1;"
         offset="0"
         id="stop48" /><stop
         style="stop-color:#60c98b;stop-opacity:1;"
         offset="1"
         id="stop49" /></linearGradient><linearGradient
       y2="236"
       x2="96"
       y1="236"
       x1="32"
       gradientTransform="translate(604.81684,170.58641)"
       gradientUnits="userSpaceOnUse"
       id="linearGradient1099"
       xlink:href="#linearGradient1036" /><linearGradient
       id="linearGradient1036"><stop
         id="stop1032"
         offset="0"
         style="stop-color:#d5d3cf;stop-opacity:1;" /><stop
         id="stop1034"
         offset="1"
         style="stop-color:#f6f5f4;stop-opacity:1" /></linearGradient><radialGradient
       r="32"
       fy="-76"
       fx="-244"
       cy="-76"
       cx="-244"
       gradientTransform="matrix(0.88333331,0,0,0.88333331,-460.35018,463.11973)"
       gradientUnits="userSpaceOnUse"
       id="radialGradient1103"
       xlink:href="#linearGradient1069" /><linearGradient
       id="linearGradient1069"><stop
         id="stop1065"
         offset="0"
         style="stop-color:#d5d3cf;stop-opacity:1" /><stop
         id="stop1067-1"
         offset="1"
         style="stop-color:#949390;stop-opacity:1" /></linearGradient><linearGradient
       gradientUnits="userSpaceOnUse"
       y2="232"
       x2="64"
       y1="262.5"
       x1="64"
       id="linearGradient1027"
       xlink:href="#linearGradient1025"
       gradientTransform="translate(-470.5864,432.81685)" /><linearGradient
       id="linearGradient1025"><stop
         id="stop1021"
         offset="0"
         style="stop-color:#9a9996;stop-opacity:1" /><stop
         id="stop1023"
         offset="1"
         style="stop-color:#77767b;stop-opacity:1" /></linearGradient><inkscape:path-effect
       effect="spiro"
       id="path-effect35304-9"
       is_visible="true" /><clipPath
       clipPathUnits="userSpaceOnUse"
       id="clipPath1609-7"><path
         sodipodi:nodetypes="cccccc"
         inkscape:connector-curvature="0"
         id="path1611-5"
         d="m 252,116 28,-28 v -8 h -36 v 36 z"
         style="fill:#e74747;stroke:none;stroke-width:0.25px;stroke-linecap:butt;stroke-linejoin:miter;stroke-opacity:1" /></clipPath><radialGradient
       r="32"
       fy="-76"
       fx="-244"
       cy="-76"
       cx="-244"
       gradientTransform="matrix(0.88333331,0,0,0.88333331,-460.35018,463.11973)"
       gradientUnits="userSpaceOnUse"
       id="radialGradient1103-5"
       xlink:href="#linearGradient1069" /><inkscape:path-effect
       effect="spiro"
       id="path-effect35304-9-2"
       is_visible="true" /><clipPath
       clipPathUnits="userSpaceOnUse"
       id="clipPath1609-7-7"><path
         sodipodi:nodetypes="cccccc"
         inkscape:connector-curvature="0"
         id="path1611-5-0"
         d="m 252,116 28,-28 v -8 h -36 v 36 z"
         style="fill:#e74747;stroke:none;stroke-width:0.25px;stroke-linecap:butt;stroke-linejoin:miter;stroke-opacity:1" /></clipPath><clipPath
       clipPathUnits="userSpaceOnUse"
       id="clipPath744"><rect
         style="fill:#1e88e5;fill-opacity:1;stroke-width:0.264583"
         id="rect746"
         width="541.86664"
         height="541.86664"
         x="0"
         y="1.5987212e-14"
         rx="79.375"
         ry="79.375" /></clipPath><clipPath
       clipPathUnits="userSpaceOnUse"
       id="clipPath62"><rect
         style="fill:#1e88e5;fill-opacity:1;stroke-width:0.264583"
         id="rect64"
         width="541.86664"
         height="541.86664"
         x="2.2507105e-05"
         y="-0.42205024"
         rx="79.375"
         ry="79.375" /></clipPath><radialGradient
       r="32"
       fy="-76"
       fx="-244"
       cy="-76"
       cx="-244"
       gradientTransform="matrix(0.88333331,0,0,0.88333331,-460.35018,463.11973)"
       gradientUnits="userSpaceOnUse"
       id="radialGradient1103-6"
       xlink:href="#linearGradient1069" /><inkscape:path-effect
       effect="spiro"
       id="path-effect35304-9-20"
       is_visible="true" /><clipPath
       clipPathUnits="userSpaceOnUse"
       id="clipPath1609-7-2"><path
         sodipodi:nodetypes="cccccc"
         inkscape:connector-curvature="0"
         id="path1611-5-3"
         d="m 252,116 28,-28 v -8 h -36 v 36 z"
         style="fill:#e74747;stroke:none;stroke-width:0.25px;stroke-linecap:butt;stroke-linejoin:miter;stroke-opacity:1" /></clipPath><radialGradient
       r="32"
       fy="-76"
       fx="-244"
       cy="-76"
       cx="-244"
       gradientTransform="matrix(0.88333331,0,0,0.88333331,-460.35018,463.11973)"
       gradientUnits="userSpaceOnUse"
       id="radialGradient1103-56"
       xlink:href="#linearGradient1069" /><inkscape:path-effect
       effect="spiro"
       id="path-effect35304-9-7"
       is_visible="true" /><clipPath
       clipPathUnits="userSpaceOnUse"
       id="clipPath1609-7-0"><path
         sodipodi:nodetypes="cccccc"
         inkscape:connector-curvature="0"
         id="path1611-5-9"
         d="m 252,116 28,-28 v -8 h -36 v 36 z"
         style="fill:#e74747;stroke:none;stroke-width:0.25px;stroke-linecap:butt;stroke-linejoin:miter;stroke-opacity:1" /></clipPath><clipPath
       clipPathUnits="userSpaceOnUse"
       id="clipPath37"><rect
         style="fill:#1a1a1a;fill-opacity:1;stroke-width:0.264583"
         id="rect39"
         width="541.86664"
         height="541.86664"
         x="-2.6626146e-06"
         y="3.2408705"
         rx="79.375"
         ry="79.375" /></clipPath><clipPath
       clipPathUnits="userSpaceOnUse"
       id="clipPath22042"><rect
         style="fill:#333333;fill-opacity:1;stroke-width:0.0133797"
         id="rect22044"
         width="27.31955"
         height="27.483929"
         x="166.96844"
         y="105.40438"
         rx="4.0018873"
         ry="4.0259666" /></clipPath><clipPath
       clipPathUnits="userSpaceOnUse"
       id="clipPath1039"><rect
         style="fill:#b3b3b3;fill-opacity:1;stroke-width:0.264583"
         id="rect1041"
         width="541.8667"
         height="541.86682"
         x="2.5931527e-05"
         y="-0.00010962487"
         rx="79.375008"
         ry="79.375031" /></clipPath><clipPath
       clipPathUnits="userSpaceOnUse"
       id="clipPath154"><rect
         style="fill:#b3b3b3;fill-opacity:1;stroke-width:0.264583"
         id="rect156"
         width="541.8667"
         height="541.86682"
         x="-2.9218751e-05"
         y="-0.00016368683"
         rx="79.375008"
         ry="79.375031" /></clipPath><linearGradient
       id="_Linear1"
       x1="0"
       y1="0"
       x2="1"
       y2="0"
       gradientUnits="userSpaceOnUse"
       gradientTransform="matrix(3.08228,-10.3064,8.72379,3.56577,19.8394,42.498)"><stop
         offset="0"
         style="stop-color:#ff9700;stop-opacity:1"
         id="stop219" /><stop
         offset="0.53"
         style="stop-color:#f48e00;stop-opacity:1"
         id="stop221" /><stop
         offset="1"
         style="stop-color:#d06f00;stop-opacity:1"
         id="stop223" /></linearGradient><filter
       style="color-interpolation-filters:sRGB;"
       inkscape:label="Drop Shadow"
       id="filter443"
       x="-0.1"
       y="-0.076990137"
       width="1.2"
       height="1.2181387"><feFlood
         flood-opacity="0.345098"
         flood-color="rgb(0,0,0)"
         result="flood"
         id="feFlood433" /><feComposite
         in="flood"
         in2="SourceGraphic"
         operator="in"
         result="composite1"
         id="feComposite435" /><feGaussianBlur
         in="composite1"
         stdDeviation="1.5"
         result="blur"
         id="feGaussianBlur437" /><feOffset
         dx="0"
         dy="3"
         result="offset"
         id="feOffset439" /><feComposite
         in="SourceGraphic"
         in2="offset"
         operator="over"
         result="composite2"
         id="feComposite441" /></filter><radialGradient
       r="32"
       fy="-76"
       fx="-244"
       cy="-76"
       cx="-244"
       gradientTransform="matrix(0.88333331,0,0,0.88333331,-460.35018,463.11973)"
       gradientUnits="userSpaceOnUse"
       id="radialGradient1103-562"
       xlink:href="#linearGradient1069" /><inkscape:path-effect
       effect="spiro"
       id="path-effect35304-9-0"
       is_visible="true" /><clipPath
       clipPathUnits="userSpaceOnUse"
       id="clipPath1609-7-9"><path
         sodipodi:nodetypes="cccccc"
         inkscape:connector-curvature="0"
         id="path1611-5-36"
         d="m 252,116 28,-28 v -8 h -36 v 36 z"
         style="fill:#e74747;stroke:none;stroke-width:0.25px;stroke-linecap:butt;stroke-linejoin:miter;stroke-opacity:1" /></clipPath><radialGradient
       r="32"
       fy="-76"
       fx="-244"
       cy="-76"
       cx="-244"
       gradientTransform="matrix(0.88333331,0,0,0.88333331,-460.35018,463.11973)"
       gradientUnits="userSpaceOnUse"
       id="radialGradient1103-5-0"
       xlink:href="#linearGradient1069" /><inkscape:path-effect
       effect="spiro"
       id="path-effect35304-9-2-6"
       is_visible="true" /><clipPath
       clipPathUnits="userSpaceOnUse"
       id="clipPath1609-7-7-2"><path
         sodipodi:nodetypes="cccccc"
         inkscape:connector-curvature="0"
         id="path1611-5-0-6"
         d="m 252,116 28,-28 v -8 h -36 v 36 z"
         style="fill:#e74747;stroke:none;stroke-width:0.25px;stroke-linecap:butt;stroke-linejoin:miter;stroke-opacity:1" /></clipPath><clipPath
       clipPathUnits="userSpaceOnUse"
       id="clipPath744-1"><rect
         style="fill:#1e88e5;fill-opacity:1;stroke-width:0.264583"
         id="rect746-8"
         width="541.86664"
         height="541.86664"
         x="0"
         y="1.5987212e-14"
         rx="79.375"
         ry="79.375" /></clipPath><clipPath
       clipPathUnits="userSpaceOnUse"
       id="clipPath62-7"><rect
         style="fill:#1e88e5;fill-opacity:1;stroke-width:0.264583"
         id="rect64-9"
         width="541.86664"
         height="541.86664"
         x="2.2507105e-05"
         y="-0.42205024"
         rx="79.375"
         ry="79.375" /></clipPath><radialGradient
       r="32"
       fy="-76"
       fx="-244"
       cy="-76"
       cx="-244"
       gradientTransform="matrix(0.88333331,0,0,0.88333331,-460.35018,463.11973)"
       gradientUnits="userSpaceOnUse"
       id="radialGradient1103-6-2"
       xlink:href="#linearGradient1069" /><inkscape:path-effect
       effect="spiro"
       id="path-effect35304-9-20-0"
       is_visible="true" /><clipPath
       clipPathUnits="userSpaceOnUse"
       id="clipPath1609-7-2-2"><path
         sodipodi:nodetypes="cccccc"
         inkscape:connector-curvature="0"
         id="path1611-5-3-3"
         d="m 252,116 28,-28 v -8 h -36 v 36 z"
         style="fill:#e74747;stroke:none;stroke-width:0.25px;stroke-linecap:butt;stroke-linejoin:miter;stroke-opacity:1" /></clipPath><radialGradient
       r="32"
       fy="-76"
       fx="-244"
       cy="-76"
       cx="-244"
       gradientTransform="matrix(0.88333331,0,0,0.88333331,-460.35018,463.11973)"
       gradientUnits="userSpaceOnUse"
       id="radialGradient1103-56-7"
       xlink:href="#linearGradient1069" /><inkscape:path-effect
       effect="spiro"
       id="path-effect35304-9-7-5"
       is_visible="true" /><clipPath
       clipPathUnits="userSpaceOnUse"
       id="clipPath1609-7-0-9"><path
         sodipodi:nodetypes="cccccc"
         inkscape:connector-curvature="0"
         id="path1611-5-9-2"
         d="m 252,116 28,-28 v -8 h -36 v 36 z"
         style="fill:#e74747;stroke:none;stroke-width:0.25px;stroke-linecap:butt;stroke-linejoin:miter;stroke-opacity:1" /></clipPath><clipPath
       clipPathUnits="userSpaceOnUse"
       id="clipPath37-2"><rect
         style="fill:#1a1a1a;fill-opacity:1;stroke-width:0.264583"
         id="rect39-8"
         width="541.86664"
         height="541.86664"
         x="-2.6626146e-06"
         y="3.2408705"
         rx="79.375"
         ry="79.375" /></clipPath><clipPath
       clipPathUnits="userSpaceOnUse"
       id="clipPath22042-9"><rect
         style="fill:#333333;fill-opacity:1;stroke-width:0.0133797"
         id="rect22044-7"
         width="27.31955"
         height="27.483929"
         x="166.96844"
         y="105.40438"
         rx="4.0018873"
         ry="4.0259666" /></clipPath><clipPath
       clipPathUnits="userSpaceOnUse"
       id="clipPath1039-3"><rect
         style="fill:#b3b3b3;fill-opacity:1;stroke-width:0.264583"
         id="rect1041-6"
         width="541.8667"
         height="541.86682"
         x="2.5931527e-05"
         y="-0.00010962487"
         rx="79.375008"
         ry="79.375031" /></clipPath><clipPath
       clipPathUnits="userSpaceOnUse"
       id="clipPath154-1"><rect
         style="fill:#b3b3b3;fill-opacity:1;stroke-width:0.264583"
         id="rect156-2"
         width="541.8667"
         height="541.86682"
         x="-2.9218751e-05"
         y="-0.00016368683"
         rx="79.375008"
         ry="79.375031" /></clipPath><filter
       style="color-interpolation-filters:sRGB;"
       inkscape:label="Drop Shadow"
       id="filter443-9"
       x="-0.1"
       y="-0.076990137"
       width="1.2"
       height="1.2181387"><feFlood
         flood-opacity="0.345098"
         flood-color="rgb(0,0,0)"
         result="flood"
         id="feFlood433-4" /><feComposite
         in="flood"
         in2="SourceGraphic"
         operator="in"
         result="composite1"
         id="feComposite435-7" /><feGaussianBlur
         in="composite1"
         stdDeviation="1.5"
         result="blur"
         id="feGaussianBlur437-8" /><feOffset
         dx="0"
         dy="3"
         result="offset"
         id="feOffset439-4" /><feComposite
         in="SourceGraphic"
         in2="offset"
         operator="over"
         result="composite2"
         id="feComposite441-5" /></filter><filter
       inkscape:collect="always"
       style="color-interpolation-filters:sRGB"
       id="filter45"
       x="-0.20683738"
       y="-0.20683762"
       width="1.4136748"
       height="1.4136752"><feGaussianBlur
         inkscape:collect="always"
         stdDeviation="1.9370785"
         id="feGaussianBlur45" /></filter><filter
       inkscape:collect="always"
       style="color-interpolation-filters:sRGB"
       id="filter46"
       x="-0.043346823"
       y="-0.035247772"
       width="1.0866936"
       height="1.0704955"><feGaussianBlur
         inkscape:collect="always"
         stdDeviation="1.6155229"
         id="feGaussianBlur46" /></filter><filter
       style="color-interpolation-filters:sRGB"
       inkscape:label="Drop Shadow"
       id="filter6435"
       x="-0.088176968"
       y="-0.087048181"
       width="1.1893211"
       height="1.3089353"><feFlood
         flood-opacity="0.356863"
         flood-color="rgb(0,0,0)"
         result="flood"
         id="feFlood6425" /><feComposite
         in="flood"
         in2="SourceGraphic"
         operator="in"
         result="composite1"
         id="feComposite6427" /><feGaussianBlur
         in="composite1"
         stdDeviation="2"
         result="blur"
         id="feGaussianBlur6429" /><feOffset
         dx="4.57967e-15"
         dy="6.5333"
         result="offset"
         id="feOffset6431" /><feComposite
         in="SourceGraphic"
         in2="offset"
         operator="over"
         result="composite2"
         id="feComposite6433" /></filter><linearGradient
       inkscape:collect="always"
       xlink:href="#linearGradient48"
       id="linearGradient49"
       x1="65.293495"
       y1="45.426449"
       x2="65.293495"
       y2="60.241058"
       gradientUnits="userSpaceOnUse"
       gradientTransform="matrix(0.94449208,-0.10949287,0.10949287,0.94449208,-5.2450881,9.8147416)" /><linearGradient
       inkscape:collect="always"
       xlink:href="#linearGradient50"
       id="linearGradient51"
       x1="70.963318"
       y1="38.478718"
       x2="70.963318"
       y2="16.796181"
       gradientUnits="userSpaceOnUse"
       gradientTransform="matrix(0.95081754,0,0,0.95081754,-6.3404267,9.1454403)" /><filter
       style="color-interpolation-filters:sRGB"
       inkscape:label="Drop Shadow"
       id="filter6435-3"
       x="-0.088176968"
       y="-0.087048181"
       width="1.1893211"
       height="1.3089353"><feFlood
         flood-opacity="0.356863"
         flood-color="rgb(0,0,0)"
         result="flood"
         id="feFlood6425-6" /><feComposite
         in="flood"
         in2="SourceGraphic"
         operator="in"
         result="composite1"
         id="feComposite6427-1" /><feGaussianBlur
         in="composite1"
         stdDeviation="2"
         result="blur"
         id="feGaussianBlur6429-0" /><feOffset
         dx="4.57967e-15"
         dy="6.5333"
         result="offset"
         id="feOffset6431-6" /><feComposite
         in="SourceGraphic"
         in2="offset"
         operator="over"
         result="composite2"
         id="feComposite6433-3" /></filter></defs><g
     inkscape:groupmode="layer"
     id="layer2"
     inkscape:label="Layer 1"><path
       id="path5"
       style="mix-blend-mode:normal;fill:#3e3e3e;fill-opacity:0.56;stroke-width:0.944695;filter:url(#filter46)"
       d="m 29.144531,14.5 c -3.642539,0 -6.574218,2.894755 -6.574219,6.492188 v 97.015622 c 0,3.59743 2.93168,6.49219 6.574219,6.49219 H 89.541016 L 112.01758,102.02344 V 29.453125 20.992188 c 0,-3.597432 -2.93362,-6.492188 -6.57617,-6.492188 h -8.568363 z"
       transform="matrix(-0.90214954,-0.30030017,0.30030017,-0.90214954,103.87714,147.1805)" /><path
       id="path3"
       style="fill:#d0d0d0;fill-opacity:1;stroke-width:0.898233"
       d="M 45.51358,0.98665182 C 42.624749,0.62957062 39.816368,2.3105986 38.871091,5.1503492 L 9.7367658,92.672084 c -0.1487571,0.446874 -0.2323694,0.898513 -0.2763465,1.347835 -0.3679819,2.877067 1.3494827,5.70088 4.2436467,6.664261 l 7.730279,2.57344 61.102162,20.34032 c 3.286117,1.09386 6.799403,-0.63772 7.879715,-3.88315 L 119.55072,32.191162 c 0.14894,-0.447509 0.23243,-0.897888 0.27633,-1.34783 0.36748,-2.877096 -1.3514,-5.701052 -4.24553,-6.664431 L 107.85297,21.607506 46.750808,1.2671931 C 46.340049,1.1304625 45.926277,1.0376636 45.51358,0.98665182 Z" /><path
       id="path4"
       style="fill:#afafaf;fill-opacity:1;stroke-width:0.879043"
       d="M 45.156685,2.0198966 C 42.799808,1.7290033 40.507864,3.1025957 39.736691,5.4193062 L 10.589967,92.976141 c -0.124901,0.375278 -0.189861,0.754317 -0.22433,1.131599 -0.301786,2.348592 1.098234,4.655845 3.460323,5.442127 l 6.886689,2.291073 62.408462,20.77483 c 2.680864,0.89237 5.548176,-0.52227 6.42951,-3.16993 L 118.6956,31.88695 c 0.12502,-0.375263 0.19159,-0.752277 0.22608,-1.129559 0.30169,-2.348601 -1.09824,-4.655842 -3.46034,-5.442119 L 108.57468,23.02419 46.1662,2.2493757 C 45.831095,2.1378283 45.493385,2.0614524 45.156685,2.0198966 Z" /><path
       id="path6"
       style="mix-blend-mode:normal;fill:#3e3e3e;fill-opacity:0.56;stroke-width:0.944695;filter:url(#filter46)"
       d="m 29.144531,14.5 c -3.642539,0 -6.574218,2.894755 -6.574219,6.492188 v 97.015622 c 0,3.59743 2.93168,6.49219 6.574219,6.49219 H 89.541016 L 112.01758,102.02344 V 29.453125 20.992188 c 0,-3.597432 -2.93362,-6.492188 -6.57617,-6.492188 h -8.568363 z"
       transform="matrix(-0.94471338,-0.10756677,0.10756677,-0.94471338,120.0132,137.29455)" /><path
       id="path1"
       style="fill:#f1f1f1;fill-opacity:1;stroke-width:0.898233"
       d="M 33.452672,6.4341757 C 30.009295,6.0622282 26.941031,8.5003781 26.573719,11.901109 l -0.863215,7.998317 -7.409875,68.601523 0.07646,0.09501 -0.793604,6.964322 -0.910309,7.992895 c -0.386959,3.39856 2.072318,6.44881 5.51349,6.84064 l 8.094644,0.92167 63.984782,7.2855 c 3.441162,0.39184 6.521299,-2.02818 6.908259,-5.42673 l 0.0492,-0.42759 1.3e-4,-0.002 0.005,-0.0452 10.38179,-91.177279 c 0.24805,-2.178282 -0.68119,-4.202158 -2.2805,-5.485943 -0.97553,-0.971443 -2.2625,-1.650512 -3.75173,-1.811377 L 41.552726,7.3087834 Z" /><path
       id="path2"
       style="fill:#d5d5d5;fill-opacity:1;stroke-width:0.879043"
       d="M 33.09242,7.5186617 C 30.283257,7.2152181 27.777503,9.2056502 27.477826,11.980018 l -0.769268,7.121924 -7.603019,70.399515 0.07142,0.08703 -0.793884,6.968114 -0.810833,7.118798 c -0.315694,2.77259 1.692434,5.26362 4.499795,5.58327 l 7.211248,0.81966 65.352452,7.44083 c 2.807359,0.31958 5.321057,-1.65481 5.636737,-4.4274 l 0.0492,-0.42187 3.1e-4,-0.004 0.008,-0.0716 10.38291,-91.192395 c 0.203,-1.784756 -0.56291,-3.443587 -1.87796,-4.490783 -0.80274,-0.832304 -1.87967,-1.415192 -3.131,-1.550359 L 40.306642,8.2986265 Z" /><path
       id="path45"
       style="mix-blend-mode:normal;fill:#757575;fill-opacity:0.698262;filter:url(#filter45)"
       d="m 86.537102,118.4155 22.476538,-22.476511 -7.33202,-1e-6 -8.568338,4e-6 c -3.64256,-6e-6 -6.57618,2.894752 -6.57618,6.492148 v 8.46093 z"
       transform="matrix(1.0260874,0.03248187,-0.03248187,1.0260874,-3.0076984,-13.78754)" /><path
       id="path46"
       style="mix-blend-mode:normal;fill:#3c3c3c;fill-opacity:0.56;stroke-width:0.944695;filter:url(#filter46)"
       d="m 29.144531,14.5 c -3.642539,0 -6.574218,2.894755 -6.574219,6.492188 v 97.015622 c 0,3.59743 2.93168,6.49219 6.574219,6.49219 H 89.541016 L 112.01758,102.02344 V 29.453125 20.992188 c 0,-3.597432 -2.93362,-6.492188 -6.57617,-6.492188 h -8.568363 z"
       transform="matrix(0.94449208,-0.10949287,0.10949287,0.94449208,-7.5891985,6.2295224)" /><path
       id="path34"
       style="fill:#ffffff;fill-opacity:1;stroke-width:0.898233"
       d="m 21.323397,14.870791 c -3.440351,0.398832 -5.892343,3.453904 -5.498452,6.851651 l 10.622521,91.630478 c 0.393892,3.39776 3.479797,5.81082 6.920145,5.412 l 57.044002,-6.613 18.767927,-23.689943 -7.94594,-68.542085 -0.92642,-7.991289 C 99.91329,8.5308575 96.82556,6.1179928 93.385195,6.5168264 l -8.092753,0.9381751 z" /><path
       id="path35"
       style="fill:#efefef;fill-opacity:1;stroke-width:0.879043"
       d="m 21.20842,16.00769 c -2.806697,0.325376 -4.806738,2.820001 -4.485391,5.591944 l 10.626794,91.667386 c 0.321347,2.77193 2.839063,4.74283 5.645761,4.41745 L 91.391758,110.91473 108.38205,89.468614 100.22803,19.131625 99.402981,12.01473 C 99.081636,9.242788 96.562075,7.272109 93.755378,7.5974831 l -7.209132,0.8357387 z" /><rect
       style="fill:url(#linearGradient51);fill-opacity:0.740749;stroke-width:1.54813"
       id="rect1"
       width="61.07164"
       height="37.495502"
       x="25.205748"
       y="25.115543"
       rx="3.3509636"
       ry="3.3094685"
       transform="rotate(-6.6126541)" /><path
       id="rect2"
       style="fill:url(#linearGradient49);fill-opacity:1;stroke-width:2.55324"
       d="m 47.444758,30.207268 c -1.437724,0.166672 -2.812942,0.892099 -3.785019,2.137584 l -12.65588,16.213835 0.863199,7.446002 c 0.211133,1.821248 1.866011,3.115593 3.710096,2.901813 l 54.007844,-6.26101 c 1.844088,-0.213781 3.158945,-1.852402 2.947812,-3.67365 l -0.813555,-7.017779 -6.26153,-5.035737 c -2.462481,-1.98012 -6.008829,-1.568999 -7.952987,0.921972 L 70.597947,46.689556 51.615576,31.422548 c -1.231245,-0.990061 -2.733093,-1.381952 -4.170818,-1.21528 z" /><ellipse
       style="fill:#f9e677;fill-opacity:1;stroke-width:1.46117"
       id="path36"
       cx="65.770981"
       cy="37.460381"
       rx="5.8018703"
       ry="5.7300248"
       transform="rotate(-6.6126541)" /><path
       id="rect38"
       style="fill:#ffffff;fill-opacity:1;stroke-width:0.950817"
       d="m 90.411613,112.15192 18.767927,-23.689942 -6.92505,0.802804 -8.092751,0.938177 c -3.440369,0.398828 -5.894193,3.454116 -5.5003,6.851861 l 0.926411,7.9913 z" /><path
       id="rect37"
       style="fill:#cbcbcb;fill-opacity:1;stroke-width:0.950817"
       d="m 91.209104,111.14528 16.990266,-21.446105 -6.94164,0.804728 -7.209121,0.835741 c -2.806712,0.325372 -4.808589,2.820214 -4.487244,5.592154 l 0.825045,7.116892 z" /><path
       style="fill:#cbcbcb;fill-opacity:1;fill-rule:evenodd;stroke:#cbcbcb;stroke-width:3;stroke-linecap:round;stroke-linejoin:miter;stroke-dasharray:none;stroke-opacity:1;paint-order:normal"
       d="M 34.196843,68.620925 93.63802,61.668078"
       id="path12" /><path
       style="fill:#cbcbcb;fill-opacity:1;fill-rule:evenodd;stroke:#cbcbcb;stroke-width:3;stroke-linecap:round;stroke-linejoin:miter;stroke-dasharray:none;stroke-opacity:1;paint-order:normal"
       d="M 35.250626,77.623483 94.691803,70.670625"
       id="path13" /><path
       style="fill:#cbcbcb;fill-opacity:1;fill-rule:evenodd;stroke:#cbcbcb;stroke-width:3;stroke-linecap:round;stroke-linejoin:miter;stroke-dasharray:none;stroke-opacity:1;paint-order:normal"
       d="M 36.304407,86.626011 95.745584,79.673163"
       id="path14" /><path
       style="fill:#cbcbcb;fill-opacity:1;fill-rule:evenodd;stroke:#cbcbcb;stroke-width:3;stroke-linecap:round;stroke-linejoin:miter;stroke-dasharray:none;stroke-opacity:1;paint-order:normal"
       d="M 37.35819,95.628578 80.8033,90.546749"
       id="path15" /><path
       style="fill:#cbcbcb;fill-opacity:1;fill-rule:evenodd;stroke:#cbcbcb;stroke-width:3;stroke-linecap:round;stroke-linejoin:miter;stroke-dasharray:none;stroke-opacity:1;paint-order:normal"
       d="M 38.41197,104.6311 81.857079,99.549267"
       id="path16" /></g></svg>
