<?xml version="1.0" encoding="UTF-8" standalone="no"?>
<svg
   width="128"
   height="128"
   version="1.0"
   id="svg26"
   sodipodi:docname="org.gnome.SoundRecorder.svg"
   inkscape:version="1.4.3 (0d15f75042, 2025-12-25)"
   xmlns:inkscape="http://www.inkscape.org/namespaces/inkscape"
   xmlns:sodipodi="http://sodipodi.sourceforge.net/DTD/sodipodi-0.dtd"
   xmlns:xlink="http://www.w3.org/1999/xlink"
   xmlns="http://www.w3.org/2000/svg"
   xmlns:svg="http://www.w3.org/2000/svg">
  <sodipodi:namedview
     id="namedview26"
     pagecolor="#ffffff"
     bordercolor="#999999"
     borderopacity="1"
     inkscape:showpageshadow="2"
     inkscape:pageopacity="0"
     inkscape:pagecheckerboard="0"
     inkscape:deskcolor="#d1d1d1"
     inkscape:zoom="1.2480469"
     inkscape:cx="-0.40062598"
     inkscape:cy="26.040689"
     inkscape:window-width="1728"
     inkscape:window-height="1043"
     inkscape:window-x="0"
     inkscape:window-y="0"
     inkscape:window-maximized="1"
     inkscape:current-layer="svg26" />
  <defs
     id="defs14">
    <linearGradient
       id="linearGradient22"
       inkscape:collect="always">
      <stop
         style="stop-color:#ffffff;stop-opacity:1;"
         offset="0"
         id="stop21" />
      <stop
         style="stop-color:#f7f5f5;stop-opacity:1;"
         offset="1"
         id="stop22" />
    </linearGradient>
    <linearGradient
       id="linearGradient20">
      <stop
         offset="0"
         stop-color="#d5d3cf"
         id="stop15"
         style="stop-color:#a8a59c;stop-opacity:1;" />
      <stop
         offset="0.036"
         stop-color="#e4e1de"
         id="stop16"
         style="stop-color:#b3b1a9;stop-opacity:1;" />
      <stop
         offset="0.071"
         stop-color="#d5d3cf"
         id="stop17"
         style="stop-color:#a8a59c;stop-opacity:1;" />
      <stop
         offset="0.92900002"
         stop-color="#d5d3cf"
         id="stop18"
         style="stop-color:#a8a59c;stop-opacity:1;" />
      <stop
         offset="0.96399999"
         stop-color="#e4e1de"
         id="stop19"
         style="stop-color:#b3b1a9;stop-opacity:1;" />
      <stop
         offset="1"
         stop-color="#d5d3cf"
         id="stop20"
         style="stop-color:#a8a59c;stop-opacity:1;" />
    </linearGradient>
    <linearGradient
       id="linearGradient40"
       inkscape:collect="always">
      <stop
         style="stop-color:#f4f3f2;stop-opacity:1;"
         offset="0"
         id="stop40" />
      <stop
         style="stop-color:#f7f5f5;stop-opacity:1;"
         offset="1"
         id="stop41" />
    </linearGradient>
    <linearGradient
       id="e">
      <stop
         offset="0"
         stop-color="#26a269"
         id="stop1" />
      <stop
         offset="1"
         stop-color="#26a269"
         stop-opacity="0"
         id="stop2" />
    </linearGradient>
    <linearGradient
       id="d">
      <stop
         offset="0"
         stop-color="#e54b57"
         id="stop3" />
      <stop
         offset="1"
         stop-color="#a51d2d"
         id="stop4" />
    </linearGradient>
    <linearGradient
       id="b">
      <stop
         offset="0"
         stop-color="#deddda"
         id="stop5" />
      <stop
         offset="1"
         stop-color="#9a9996"
         id="stop6" />
    </linearGradient>
    <linearGradient
       id="a">
      <stop
         offset="0"
         stop-color="#57e389"
         id="stop7" />
      <stop
         offset="1"
         stop-color="#57e389"
         stop-opacity=".204"
         id="stop8" />
    </linearGradient>
    <linearGradient
       id="c">
      <stop
         offset="0"
         stop-color="#d5d3cf"
         id="stop9" />
      <stop
         offset=".036"
         stop-color="#e4e1de"
         id="stop10" />
      <stop
         offset=".071"
         stop-color="#d5d3cf"
         id="stop11" />
      <stop
         offset=".929"
         stop-color="#d5d3cf"
         id="stop12" />
      <stop
         offset=".964"
         stop-color="#e4e1de"
         id="stop13" />
      <stop
         offset="1"
         stop-color="#d5d3cf"
         id="stop14" />
    </linearGradient>
    <linearGradient
       xlink:href="#linearGradient20"
       id="f"
       gradientUnits="userSpaceOnUse"
       gradientTransform="matrix(0.25,0,0,0.25,-21.99911,-53.991)"
       x1="120"
       y1="619.964"
       x2="568"
       y2="619.964" />
    <linearGradient
       xlink:href="#d"
       id="i"
       x1="23.712"
       y1="268.75"
       x2="27.212"
       y2="268.75"
       gradientUnits="userSpaceOnUse"
       gradientTransform="translate(-6.712,-176)" />
    <linearGradient
       xlink:href="#c"
       id="h"
       gradientUnits="userSpaceOnUse"
       gradientTransform="matrix(0.25,0,0,0.25,-15.5,125.009)"
       x1="513.5"
       y1="-88.536"
       x2="277.5"
       y2="-88.536" />
    <linearGradient
       xlink:href="#e"
       id="g"
       x1="106.712"
       y1="227"
       x2="58.712"
       y2="227"
       gradientUnits="userSpaceOnUse"
       gradientTransform="translate(-6.4991097,-187)" />
    <linearGradient
       inkscape:collect="always"
       xlink:href="#linearGradient40"
       id="linearGradient41"
       x1="63.787109"
       y1="108"
       x2="63.787109"
       y2="28"
       gradientUnits="userSpaceOnUse"
       gradientTransform="translate(0.2128903,-11)" />
    <linearGradient
       inkscape:collect="always"
       xlink:href="#linearGradient22"
       id="linearGradient1"
       gradientUnits="userSpaceOnUse"
       gradientTransform="translate(0.2128903,-9)"
       x1="63.787109"
       y1="108"
       x2="63.787109"
       y2="28" />
  </defs>
  <path
     id="rect14"
     style="fill:url(#linearGradient41);fill-opacity:1;marker:none"
     d="m 15.999999,17 c -4.432,0 -7.9999993,3.568 -7.9999993,8 V 91.12109 C 8.0643515,95.49676 11.608475,99 15.999999,99 H 112 c 4.432,0 8,-3.568 8,-8 V 25 c 0,-4.432 -3.568,-8 -8,-8 z" />
  <path
     id="path39"
     style="fill:#a8a49c;fill-opacity:1;marker:none"
     d="M 19.218749,55 A 3,3 0 0 0 16.21289,58.005859 V 91.99414 A 3,3 0 0 0 19.218749,95 h 44.994141 44.99414 a 3,3 0 0 0 3.00586,-3.00586 V 58.005859 A 3,3 0 0 0 109.20703,55 H 64.21289 Z" />
  <path
     id="path14"
     style="fill:url(#f);marker:none"
     d="m 7.9999997,93 v 4 4 4 c 0,4.432 3.5679993,8 7.9999993,8 H 112 c 4.432,0 8,-3.568 8,-8 v -4 -4 -4 c 0,4.432 -3.568,8 -8,8 H 15.999999 c -4.432,0 -7.9999993,-3.568 -7.9999993,-8 z" />
  <rect
     ry="1.9450001"
     rx="1.9450001"
     y="24"
     x="16.212891"
     height="24"
     width="96"
     style="marker:none"
     fill="#241f31"
     id="rect15" />
  <rect
     ry="0"
     rx="0"
     y="24"
     x="29.212891"
     height="24"
     width="72"
     style="fill:url(#g);marker:none"
     fill="url(#g)"
     id="rect16" />
  <path
     opacity="0.623"
     fill="#26a269"
     d="m 16.21289,35 h 96 v 2 h -96 z"
     id="path16" />
  <path
     d="m 101.12889,35.998 h -83.916"
     fill="none"
     stroke="#57e389"
     stroke-width="2"
     stroke-linecap="round"
     id="path17" />
  <path
     d="m 41.21289,33.01 v 6.414 m 8,-5.557 v 4.7 m 8,-5.092 v 5.483 m 8,-7.05 v 8.617 m 8,-10.967 v 13.317 m 8,-10.184 v 7.05 m 8,-8.225 v 9.4"
     fill="none"
     stroke="#33d17a"
     stroke-width="4"
     stroke-linecap="round"
     id="path18" />
  <path
     d="m 41.21289,35.693 v 1.047 m 8,-1.307 V 37 m 8,-1.169 v 1.478 m 8,-2.659 v 3.133 m 8,-4.783 v 6 m 8,-4.35 v 3.133 m 8,-2.741 v 2.35"
     fill="none"
     stroke="#f9f06b"
     stroke-width="4"
     stroke-linecap="round"
     id="path19" />
  <path
     d="m 64.21289,53 v 40 h 44.994 a 3,3 0 0 0 3.006,-3.006 V 56.006 A 3,3 0 0 0 109.20689,53 Z"
     style="fill:#c2c0bb;fill-opacity:1;marker:none"
     fill="url(#h)"
     id="path20" />
  <path
     d="m 64.21289,48 v 40 h 44.994 a 3,3 0 0 0 3.006,-3.006 V 51.006 A 3,3 0 0 0 109.20689,48 Z"
     style="fill:#eceae7;fill-opacity:1;marker:none"
     fill="#f6f6f6"
     id="path21" />
  <path
     style="fill:#971b29;fill-opacity:1;marker:none"
     d="m 64.21289,53 v 40 h -44.994 a 3,3 0 0 1 -3.006,-3.006 V 56.006 A 3,3 0 0 1 19.21889,53 Z"
     fill="url(#i)"
     id="path22" />
  <path
     style="fill:#e62f38;fill-opacity:1;marker:none"
     d="m 64.21289,51 v 40 h -44.994 a 3,3 0 0 1 -3.006,-3.006 V 54.006 A 3,3 0 0 1 19.21889,51 Z"
     fill="#e01b24"
     id="path23" />
  <circle
     r="8"
     cy="72"
     cx="40.212891"
     style="fill:#f7b9bc;fill-opacity:1;marker:none"
     fill="#ffffff"
     id="circle23" />
  <path
     d="m 72.21289,60 v 16 l 16,-8 z m 16,0 h 5 v 16 h -5 z m 8,0 h 5 v 16 h -5 z"
     style="marker:none;fill:#39314d;fill-opacity:1"
     fill="#241f31"
     id="path24" />
  <path
     style="marker:none"
     fill="#8ff0a4"
     d="m 100.21289,24 h 2 v 24 h -2 z"
     id="path25" />
  <path
     d="m 18.15789,24 a 1.942,1.942 0 0 0 -1.946,1.945 v 2 c 0,-1.077 0.868,-1.945 1.946,-1.945 h 92.11 c 1.077,0 1.945,0.868 1.945,1.945 v -2 A 1.942,1.942 0 0 0 110.26789,24 Z"
     style="marker:none"
     fill="#241f31"
     fill-opacity="0.374"
     id="path26" />
  <path
     id="path28"
     style="fill:#ffffff;fill-opacity:1;marker:none"
     d="m 15.999999,17 c -4.432,0 -7.9999993,3.568 -7.9999993,8 v 2 c 0,-4.432 3.5679993,-8 7.9999993,-8 H 112 c 4.432,0 8,3.568 8,8 v -2 c 0,-4.432 -3.568,-8 -8,-8 z" />
  <path
     id="path30"
     style="fill:#ffffff;fill-opacity:1;marker:none"
     d="m 64.21289,48 v 2 h 44.99414 a 3,3 0 0 1 3.00586,2.994141 V 51.005859 A 3,3 0 0 0 109.20703,48 Z" />
  <path
     id="path31"
     style="fill:#f1f1ee;fill-opacity:1;marker:none"
     d="M 112.21289,83.005859 A 3,3 0 0 1 109.20703,86 H 64.21289 v 2 h 44.99414 a 3,3 0 0 0 3.00586,-3.005859 z" />
  <path
     id="path32"
     style="fill:#f29398;fill-opacity:1;marker:none"
     d="m 19.218749,51 a 3,3 0 0 0 -3.005859,3.005859 v 1.988282 A 3,3 0 0 1 19.218749,53 H 64.21289 v -2 z" />
  <path
     id="path33"
     style="fill:#eb585f;fill-opacity:1;marker:none"
     d="m 16.21289,86.005859 v 1.988282 A 3,3 0 0 0 19.218749,91 H 64.21289 V 89 H 19.218749 A 3,3 0 0 1 16.21289,86.005859 Z" />
  <path
     id="rect41"
     style="marker:none"
     d="m 18.158202,22 c -1.07753,0 -1.945312,0.867782 -1.945312,1.945312 v 2 C 16.21289,24.867782 17.080672,24 18.158202,24 h 92.109378 c 1.07753,0 1.94531,0.867782 1.94531,1.945312 v -2 C 112.21289,22.867782 111.34511,22 110.26758,22 Z" />
  <path
     id="path42"
     style="fill:#ffffff;fill-opacity:1;marker:none"
     d="m 72.21289,58 v 2 l 14,7 2,-1 z m 16,0 v 2 h 5 v -2 z m 8,0 v 2 h 5 v -2 z" />
  <path
     id="circle43"
     style="fill:#ffffff;fill-opacity:1;marker:none"
     d="m 40.21289,62 a 8,8 0 0 0 -8,8 8,8 0 0 0 0.0625,1 8,8 0 0 1 7.9375,-7 8,8 0 0 1 7.9375,7 8,8 0 0 0 0.0625,-1 8,8 0 0 0 -8,-8 z" />
  <path
     id="path1"
     style="fill:url(#linearGradient1);fill-opacity:1;marker:none"
     d="M 120 91 C 120 95.432 116.432 99 112 99 L 16 99 C 11.608476 99 8.0643518 95.496764 8 91.121094 L 8 93.121094 C 8.0643518 97.496764 11.608476 101 16 101 L 112 101 C 116.432 101 120 97.432 120 93 L 120 91 z " />
</svg>
