<?xml version="1.0" encoding="UTF-8" standalone="no"?>
<!-- Created with Inkscape (http://www.inkscape.org/) -->

<svg
   width="128"
   height="128"
   viewBox="0 0 128 128"
   version="1.1"
   id="svg5"
   inkscape:version="1.4 (e7c3feb100, 2024-10-09)"
   sodipodi:docname="Template-icon-round.svg"
   xml:space="preserve"
   xmlns:inkscape="http://www.inkscape.org/namespaces/inkscape"
   xmlns:sodipodi="http://sodipodi.sourceforge.net/DTD/sodipodi-0.dtd"
   xmlns:xlink="http://www.w3.org/1999/xlink"
   xmlns="http://www.w3.org/2000/svg"
   xmlns:svg="http://www.w3.org/2000/svg"><sodipodi:namedview
     id="namedview7"
     pagecolor="#ffffff"
     bordercolor="#666666"
     borderopacity="1"
     inkscape:pageshadow="2"
     inkscape:pageopacity="0.0"
     inkscape:pagecheckerboard="true"
     inkscape:document-units="px"
     showgrid="false"
     inkscape:showpageshadow="false"
     showborder="true"
     inkscape:snap-page="true"
     inkscape:zoom="2.8284271"
     inkscape:cx="-56.745319"
     inkscape:cy="103.41437"
     inkscape:window-width="1920"
     inkscape:window-height="1043"
     inkscape:window-x="0"
     inkscape:window-y="0"
     inkscape:window-maximized="1"
     inkscape:current-layer="layer2"
     inkscape:snap-bbox="true"
     inkscape:snap-bbox-midpoints="true"
     inkscape:snap-bbox-edge-midpoints="true"
     inkscape:bbox-nodes="true"
     inkscape:bbox-paths="true"
     inkscape:snap-intersection-paths="true"
     inkscape:object-paths="true"
     inkscape:snap-smooth-nodes="true"
     inkscape:snap-midpoints="true"
     inkscape:deskcolor="#d1d1d1" /><defs
     id="defs2"><linearGradient
       inkscape:collect="always"
       id="linearGradient962"><stop
         style="stop-color:#b2d2ff;stop-opacity:1;"
         offset="0"
         id="stop958" /><stop
         style="stop-color:#ebf3ff;stop-opacity:1;"
         offset="1"
         id="stop960" /></linearGradient><linearGradient
       inkscape:collect="always"
       id="linearGradient7939"><stop
         style="stop-color:#5d84b9;stop-opacity:1;"
         offset="0"
         id="stop7935" /><stop
         style="stop-color:#6091db;stop-opacity:1;"
         offset="0.30000001"
         id="stop8493" /><stop
         style="stop-color:#88b0e9;stop-opacity:1;"
         offset="0.5"
         id="stop8233" /><stop
         style="stop-color:#5d84b9;stop-opacity:1;"
         offset="0.69999999"
         id="stop8751" /><stop
         style="stop-color:#5d84b9;stop-opacity:1;"
         offset="1"
         id="stop7937" /></linearGradient><linearGradient
       y2="236"
       x2="96"
       y1="236"
       x1="32"
       gradientTransform="translate(604.81684,170.58641)"
       gradientUnits="userSpaceOnUse"
       id="linearGradient1099"
       xlink:href="#linearGradient1036" /><linearGradient
       id="linearGradient1036"><stop
         id="stop1032"
         offset="0"
         style="stop-color:#d5d3cf;stop-opacity:1;" /><stop
         id="stop1034"
         offset="1"
         style="stop-color:#f6f5f4;stop-opacity:1" /></linearGradient><radialGradient
       r="32"
       fy="-76"
       fx="-244"
       cy="-76"
       cx="-244"
       gradientTransform="matrix(0.88333331,0,0,0.88333331,-460.35018,463.11973)"
       gradientUnits="userSpaceOnUse"
       id="radialGradient1103"
       xlink:href="#linearGradient1069" /><linearGradient
       id="linearGradient1069"><stop
         id="stop1065"
         offset="0"
         style="stop-color:#d5d3cf;stop-opacity:1" /><stop
         id="stop1067-1"
         offset="1"
         style="stop-color:#949390;stop-opacity:1" /></linearGradient><linearGradient
       gradientUnits="userSpaceOnUse"
       y2="232"
       x2="64"
       y1="262.5"
       x1="64"
       id="linearGradient1027"
       xlink:href="#linearGradient1025"
       gradientTransform="translate(-470.5864,432.81685)" /><linearGradient
       id="linearGradient1025"><stop
         id="stop1021"
         offset="0"
         style="stop-color:#9a9996;stop-opacity:1" /><stop
         id="stop1023"
         offset="1"
         style="stop-color:#77767b;stop-opacity:1" /></linearGradient><inkscape:path-effect
       effect="spiro"
       id="path-effect35304-9"
       is_visible="true" /><clipPath
       clipPathUnits="userSpaceOnUse"
       id="clipPath1609-7"><path
         sodipodi:nodetypes="cccccc"
         inkscape:connector-curvature="0"
         id="path1611-5"
         d="m 252,116 28,-28 v -8 h -36 v 36 z"
         style="fill:#e74747;stroke:none;stroke-width:0.25px;stroke-linecap:butt;stroke-linejoin:miter;stroke-opacity:1" /></clipPath><radialGradient
       r="32"
       fy="-76"
       fx="-244"
       cy="-76"
       cx="-244"
       gradientTransform="matrix(0.88333331,0,0,0.88333331,-460.35018,463.11973)"
       gradientUnits="userSpaceOnUse"
       id="radialGradient1103-5"
       xlink:href="#linearGradient1069" /><inkscape:path-effect
       effect="spiro"
       id="path-effect35304-9-2"
       is_visible="true" /><clipPath
       clipPathUnits="userSpaceOnUse"
       id="clipPath1609-7-7"><path
         sodipodi:nodetypes="cccccc"
         inkscape:connector-curvature="0"
         id="path1611-5-0"
         d="m 252,116 28,-28 v -8 h -36 v 36 z"
         style="fill:#e74747;stroke:none;stroke-width:0.25px;stroke-linecap:butt;stroke-linejoin:miter;stroke-opacity:1" /></clipPath><clipPath
       clipPathUnits="userSpaceOnUse"
       id="clipPath744"><rect
         style="fill:#1e88e5;fill-opacity:1;stroke-width:0.264583"
         id="rect746"
         width="541.86664"
         height="541.86664"
         x="0"
         y="1.5987212e-14"
         rx="79.375"
         ry="79.375" /></clipPath><clipPath
       clipPathUnits="userSpaceOnUse"
       id="clipPath62"><rect
         style="fill:#1e88e5;fill-opacity:1;stroke-width:0.264583"
         id="rect64"
         width="541.86664"
         height="541.86664"
         x="2.2507105e-05"
         y="-0.42205024"
         rx="79.375"
         ry="79.375" /></clipPath><radialGradient
       r="32"
       fy="-76"
       fx="-244"
       cy="-76"
       cx="-244"
       gradientTransform="matrix(0.88333331,0,0,0.88333331,-460.35018,463.11973)"
       gradientUnits="userSpaceOnUse"
       id="radialGradient1103-6"
       xlink:href="#linearGradient1069" /><inkscape:path-effect
       effect="spiro"
       id="path-effect35304-9-20"
       is_visible="true" /><clipPath
       clipPathUnits="userSpaceOnUse"
       id="clipPath1609-7-2"><path
         sodipodi:nodetypes="cccccc"
         inkscape:connector-curvature="0"
         id="path1611-5-3"
         d="m 252,116 28,-28 v -8 h -36 v 36 z"
         style="fill:#e74747;stroke:none;stroke-width:0.25px;stroke-linecap:butt;stroke-linejoin:miter;stroke-opacity:1" /></clipPath><linearGradient
       inkscape:collect="always"
       xlink:href="#linearGradient7939"
       id="linearGradient7941"
       x1="9"
       y1="70"
       x2="119"
       y2="70"
       gradientUnits="userSpaceOnUse"
       gradientTransform="translate(0,-2)" /><radialGradient
       r="32"
       fy="-76"
       fx="-244"
       cy="-76"
       cx="-244"
       gradientTransform="matrix(0.88333331,0,0,0.88333331,-460.35018,463.11973)"
       gradientUnits="userSpaceOnUse"
       id="radialGradient1103-56"
       xlink:href="#linearGradient1069" /><inkscape:path-effect
       effect="spiro"
       id="path-effect35304-9-7"
       is_visible="true" /><clipPath
       clipPathUnits="userSpaceOnUse"
       id="clipPath1609-7-0"><path
         sodipodi:nodetypes="cccccc"
         inkscape:connector-curvature="0"
         id="path1611-5-9"
         d="m 252,116 28,-28 v -8 h -36 v 36 z"
         style="fill:#e74747;stroke:none;stroke-width:0.25px;stroke-linecap:butt;stroke-linejoin:miter;stroke-opacity:1" /></clipPath><radialGradient
       r="32"
       fy="-76"
       fx="-244"
       cy="-76"
       cx="-244"
       gradientTransform="matrix(0.88333331,0,0,0.88333331,-460.35018,463.11973)"
       gradientUnits="userSpaceOnUse"
       id="radialGradient1103-5-3"
       xlink:href="#linearGradient1069" /><inkscape:path-effect
       effect="spiro"
       id="path-effect35304-9-2-6"
       is_visible="true" /><clipPath
       clipPathUnits="userSpaceOnUse"
       id="clipPath1609-7-7-0"><path
         sodipodi:nodetypes="cccccc"
         inkscape:connector-curvature="0"
         id="path1611-5-0-6"
         d="m 252,116 28,-28 v -8 h -36 v 36 z"
         style="fill:#e74747;stroke:none;stroke-width:0.25px;stroke-linecap:butt;stroke-linejoin:miter;stroke-opacity:1" /></clipPath><clipPath
       clipPathUnits="userSpaceOnUse"
       id="clipPath744-2"><rect
         style="fill:#1e88e5;fill-opacity:1;stroke-width:0.264583"
         id="rect746-6"
         width="541.86664"
         height="541.86664"
         x="0"
         y="1.5987212e-14"
         rx="79.375"
         ry="79.375" /></clipPath><clipPath
       clipPathUnits="userSpaceOnUse"
       id="clipPath62-1"><rect
         style="fill:#1e88e5;fill-opacity:1;stroke-width:0.264583"
         id="rect64-8"
         width="541.86664"
         height="541.86664"
         x="2.2507105e-05"
         y="-0.42205024"
         rx="79.375"
         ry="79.375" /></clipPath><radialGradient
       r="32"
       fy="-76"
       fx="-244"
       cy="-76"
       cx="-244"
       gradientTransform="matrix(0.88333331,0,0,0.88333331,-460.35018,463.11973)"
       gradientUnits="userSpaceOnUse"
       id="radialGradient1103-6-7"
       xlink:href="#linearGradient1069" /><inkscape:path-effect
       effect="spiro"
       id="path-effect35304-9-20-9"
       is_visible="true" /><clipPath
       clipPathUnits="userSpaceOnUse"
       id="clipPath1609-7-2-2"><path
         sodipodi:nodetypes="cccccc"
         inkscape:connector-curvature="0"
         id="path1611-5-3-0"
         d="m 252,116 28,-28 v -8 h -36 v 36 z"
         style="fill:#e74747;stroke:none;stroke-width:0.25px;stroke-linecap:butt;stroke-linejoin:miter;stroke-opacity:1" /></clipPath><linearGradient
       inkscape:collect="always"
       xlink:href="#linearGradient962"
       id="linearGradient964"
       x1="64"
       y1="115"
       x2="64"
       y2="5"
       gradientUnits="userSpaceOnUse"
       gradientTransform="translate(-0.17677669)" /><radialGradient
       r="32"
       fy="-76"
       fx="-244"
       cy="-76"
       cx="-244"
       gradientTransform="matrix(0.88333331,0,0,0.88333331,-460.35018,463.11973)"
       gradientUnits="userSpaceOnUse"
       id="radialGradient1103-562"
       xlink:href="#linearGradient1069" /><inkscape:path-effect
       effect="spiro"
       id="path-effect35304-9-0"
       is_visible="true" /><clipPath
       clipPathUnits="userSpaceOnUse"
       id="clipPath1609-7-9"><path
         sodipodi:nodetypes="cccccc"
         inkscape:connector-curvature="0"
         id="path1611-5-36"
         d="m 252,116 28,-28 v -8 h -36 v 36 z"
         style="fill:#e74747;stroke:none;stroke-width:0.25px;stroke-linecap:butt;stroke-linejoin:miter;stroke-opacity:1" /></clipPath><radialGradient
       r="32"
       fy="-76"
       fx="-244"
       cy="-76"
       cx="-244"
       gradientTransform="matrix(0.88333331,0,0,0.88333331,-460.35018,463.11973)"
       gradientUnits="userSpaceOnUse"
       id="radialGradient1103-5-0"
       xlink:href="#linearGradient1069" /><inkscape:path-effect
       effect="spiro"
       id="path-effect35304-9-2-62"
       is_visible="true" /><clipPath
       clipPathUnits="userSpaceOnUse"
       id="clipPath1609-7-7-6"><path
         sodipodi:nodetypes="cccccc"
         inkscape:connector-curvature="0"
         id="path1611-5-0-1"
         d="m 252,116 28,-28 v -8 h -36 v 36 z"
         style="fill:#e74747;stroke:none;stroke-width:0.25px;stroke-linecap:butt;stroke-linejoin:miter;stroke-opacity:1" /></clipPath><clipPath
       clipPathUnits="userSpaceOnUse"
       id="clipPath744-8"><rect
         style="fill:#1e88e5;fill-opacity:1;stroke-width:0.264583"
         id="rect746-7"
         width="541.86664"
         height="541.86664"
         x="0"
         y="1.5987212e-14"
         rx="79.375"
         ry="79.375" /></clipPath><clipPath
       clipPathUnits="userSpaceOnUse"
       id="clipPath62-9"><rect
         style="fill:#1e88e5;fill-opacity:1;stroke-width:0.264583"
         id="rect64-2"
         width="541.86664"
         height="541.86664"
         x="2.2507105e-05"
         y="-0.42205024"
         rx="79.375"
         ry="79.375" /></clipPath><radialGradient
       r="32"
       fy="-76"
       fx="-244"
       cy="-76"
       cx="-244"
       gradientTransform="matrix(0.88333331,0,0,0.88333331,-460.35018,463.11973)"
       gradientUnits="userSpaceOnUse"
       id="radialGradient1103-6-0"
       xlink:href="#linearGradient1069" /><inkscape:path-effect
       effect="spiro"
       id="path-effect35304-9-20-2"
       is_visible="true" /><clipPath
       clipPathUnits="userSpaceOnUse"
       id="clipPath1609-7-2-3"><path
         sodipodi:nodetypes="cccccc"
         inkscape:connector-curvature="0"
         id="path1611-5-3-7"
         d="m 252,116 28,-28 v -8 h -36 v 36 z"
         style="fill:#e74747;stroke:none;stroke-width:0.25px;stroke-linecap:butt;stroke-linejoin:miter;stroke-opacity:1" /></clipPath><radialGradient
       r="32"
       fy="-76"
       fx="-244"
       cy="-76"
       cx="-244"
       gradientTransform="matrix(0.88333331,0,0,0.88333331,-460.35018,463.11973)"
       gradientUnits="userSpaceOnUse"
       id="radialGradient1103-56-5"
       xlink:href="#linearGradient1069" /><inkscape:path-effect
       effect="spiro"
       id="path-effect35304-9-7-9"
       is_visible="true" /><clipPath
       clipPathUnits="userSpaceOnUse"
       id="clipPath1609-7-0-2"><path
         sodipodi:nodetypes="cccccc"
         inkscape:connector-curvature="0"
         id="path1611-5-9-2"
         d="m 252,116 28,-28 v -8 h -36 v 36 z"
         style="fill:#e74747;stroke:none;stroke-width:0.25px;stroke-linecap:butt;stroke-linejoin:miter;stroke-opacity:1" /></clipPath><clipPath
       clipPathUnits="userSpaceOnUse"
       id="clipPath37"><rect
         style="fill:#1a1a1a;fill-opacity:1;stroke-width:0.264583"
         id="rect39"
         width="541.86664"
         height="541.86664"
         x="-2.6626146e-06"
         y="3.2408705"
         rx="79.375"
         ry="79.375" /></clipPath><clipPath
       clipPathUnits="userSpaceOnUse"
       id="clipPath22042"><rect
         style="fill:#333333;fill-opacity:1;stroke-width:0.0133797"
         id="rect22044"
         width="27.31955"
         height="27.483929"
         x="166.96844"
         y="105.40438"
         rx="4.0018873"
         ry="4.0259666" /></clipPath><clipPath
       clipPathUnits="userSpaceOnUse"
       id="clipPath1039"><rect
         style="fill:#b3b3b3;fill-opacity:1;stroke-width:0.264583"
         id="rect1041"
         width="541.8667"
         height="541.86682"
         x="2.5931527e-05"
         y="-0.00010962487"
         rx="79.375008"
         ry="79.375031" /></clipPath><clipPath
       clipPathUnits="userSpaceOnUse"
       id="clipPath154"><rect
         style="fill:#b3b3b3;fill-opacity:1;stroke-width:0.264583"
         id="rect156"
         width="541.8667"
         height="541.86682"
         x="-2.9218751e-05"
         y="-0.00016368683"
         rx="79.375008"
         ry="79.375031" /></clipPath><linearGradient
       id="paint0_linear"
       x1="49.9392"
       y1="0.257812"
       x2="49.9392"
       y2="99.7423"
       gradientUnits="userSpaceOnUse"
       gradientTransform="matrix(0.76242929,0,0,0.76242929,26.69079,21.878509)"><stop
         stop-color="white"
         id="stop585" /><stop
         offset="1"
         stop-color="white"
         stop-opacity="0"
         id="stop587" /></linearGradient><filter
       style="color-interpolation-filters:sRGB;"
       inkscape:label="Drop Shadow"
       id="filter34"
       x="-0.074057356"
       y="-0.11174364"
       width="1.1481129"
       height="1.293279"><feFlood
         result="flood"
         in="SourceGraphic"
         flood-opacity="0.305882"
         flood-color="rgb(0,0,0)"
         id="feFlood33" /><feGaussianBlur
         result="blur"
         in="SourceGraphic"
         stdDeviation="1.500000"
         id="feGaussianBlur33" /><feOffset
         result="offset"
         in="blur"
         dx="0.000000"
         dy="5.000000"
         id="feOffset33" /><feComposite
         result="comp1"
         operator="in"
         in="flood"
         in2="offset"
         id="feComposite33" /><feComposite
         result="comp2"
         operator="over"
         in="SourceGraphic"
         in2="comp1"
         id="feComposite34" /></filter><filter
       style="color-interpolation-filters:sRGB;"
       inkscape:label="Drop Shadow"
       id="filter62"
       x="-0.011324687"
       y="-0.011303082"
       width="1.0226494"
       height="1.0235481"><feFlood
         result="flood"
         in="SourceGraphic"
         flood-opacity="0.298039"
         flood-color="rgb(0,0,0)"
         id="feFlood61" /><feGaussianBlur
         result="blur"
         in="SourceGraphic"
         stdDeviation="0.500000"
         id="feGaussianBlur61" /><feOffset
         result="offset"
         in="blur"
         dx="0.000000"
         dy="0.100000"
         id="feOffset61" /><feComposite
         result="comp1"
         operator="in"
         in="flood"
         in2="offset"
         id="feComposite61" /><feComposite
         result="comp2"
         operator="over"
         in="SourceGraphic"
         in2="comp1"
         id="feComposite62" /></filter></defs><g
     inkscape:groupmode="layer"
     id="layer2"
     inkscape:label="Layer 1"><path
       id="circle1035"
       style="fill:url(#linearGradient7941);fill-opacity:1"
       d="M 64 5 A 55 55 0 0 0 9 60 L 9 68 A 55 55 0 0 0 64 123 A 55 55 0 0 0 119 68 L 119 60 A 55 55 0 0 0 64 5 z " /><circle
       style="fill:url(#linearGradient964);fill-opacity:1"
       id="path953"
       cx="63.823223"
       cy="60"
       r="55" /><circle
       style="fill:#9dc4ff;fill-opacity:1;stroke-width:0.965231"
       id="circle340"
       cx="64"
       cy="60"
       r="53.087715" /><path
       inkscape:label="qutebrowser-planet-continents"
       sodipodi:nodetypes="ccccccccccccccccccccccccccccccccccccccccccccccccccccccccccccccccccccccccccccccccccccccccccccccccccccccccccccccccccccccccccccccccccccccccccccccscccccccccccccccccccccccccccccccccccccccccccccscccccccccccscccccccccccccccccccccccccccccccccccccccccccccccccccccccccccc"
       d="m 63.89848,6.9175232 c -6.708408,0 -13.093419,1.2772112 -18.993903,3.5198318 -0.42932,0.393697 -0.986839,0.695878 -1.428278,0.658361 -0.05916,-0.0057 -0.121143,-0.04506 -0.180302,-0.06733 -2.908675,1.214606 -5.667767,2.702793 -8.284327,4.390737 0.34032,0.550757 0.44115,1.163989 -0.25916,1.461858 -0.11833,0.05099 -1.51095,0.240703 -2.02764,0.228013 -7.44001,5.395591 -13.29863,12.593687 -17.11327,21.065368 0.062,-0.0085 0.35034,-0.03415 0.4123,-0.03838 0.57894,-0.0085 0.98187,0.172397 1.53797,0.289033 0.51299,0.105366 0.92681,0.448739 1.37109,0.482092 1.2601,0.0955 1.5635,-0.882665 2.59175,-1.430744 1.06234,0.149858 1.76719,-0.179469 2.7267,-0.0727 0.65385,0.07213 1.12628,0.769672 1.63589,0.808725 0.42878,0.04336 0.8057,-0.400361 1.22067,-0.336972 0.40312,0.06198 1.09784,0.939146 1.16346,1.430744 0.0817,0.611925 -0.45102,1.162993 -0.27608,1.83509 0.64203,0.65284 1.80888,0.78509 2.72669,1.161179 0.59752,-0.491467 0.0789,-1.403532 0,-2.115009 0,-0.313092 0.0422,-0.592652 0,-0.88126 -0.0563,-0.489965 -0.26483,-0.938835 -0.27045,-1.358159 0,-1.93678 1.56548,-2.843194 2.86701,-3.607998 0.56342,-0.333411 1.00713,-0.917194 1.49587,-1.16118 0.69048,-0.345579 1.20461,-0.42589 1.7762,-0.746479 1.03305,-0.579144 1.91905,-1.044054 2.72669,-1.700291 0.37356,-0.87819 0.0366,-2.055801 0.0676,-2.923733 0.37382,-0.228454 0.694428,0.09833 1.090787,0.06734 0.62344,-0.129311 0.674988,-1.007566 1.02826,-1.358159 0.205635,-0.200866 0.767956,-0.344828 1.023196,-0.544322 0.62117,-0.486421 0.823441,-1.221123 1.366015,-1.430727 0.194399,-0.0786 0.643726,-0.05718 0.950514,-0.140009 0.403676,-0.10677 0.978378,-0.583701 1.635905,-0.808708 0.428748,-0.149596 1.410246,-0.178327 1.573905,-0.342133 0.200033,-0.205374 0,-0.781252 0.06762,-1.088578 0.330732,-1.536469 2.649514,-1.862121 4.020037,-2.379412 0.96064,-0.363464 1.946629,-1.028505 3.001921,-0.824257 -0.205636,0.730194 -1.189665,0.471508 -1.02318,1.358191 0.231017,1.230515 1.881263,-0.352618 2.316528,-0.533934 0.832179,-0.35007 2.258497,-0.563758 3.350129,-0.959056 0.956966,-0.350037 2.673165,-0.882322 1.771113,-1.975049 -0.75244,-0.04338 -1.115284,0.88131 -1.771113,1.161196 -0.453002,0.07211 -0.366795,-0.378359 -0.753028,-0.414717 -0.367645,-0.04337 -0.57328,0.338376 -0.950497,0.274676 -0.37524,-0.06169 -0.902314,-0.650749 -0.960901,-1.088611 -0.149335,-1.136206 0.962028,-1.604595 1.43334,-2.45198 -0.311573,-1.027737 -1.735914,-0.209327 -2.596839,-0.611697 0.0817,-0.61186 0.717536,-1.033846 1.433651,-1.150841 0.586788,-0.09916 1.904359,-0.04846 2.253955,0.264256 0.202859,0.17212 0,0.60108 0.342868,0.886455 0.347343,0.313124 0.774686,0.280866 1.225712,0.207334 0.163398,-0.775519 -1.010489,-0.58099 -0.882877,-1.093789 0.921212,-0.601423 2.419624,-0.107636 3.547321,-0.274676 0.649083,-0.0955 1.330816,-0.552962 1.906057,-0.876083 0.547099,-0.311198 1.25815,-0.851093 1.838765,-0.342149 0.157746,0.555869 -0.505678,0.739782 -0.815585,1.016042 -1.043449,0.926439 -2.118177,1.987692 -2.929237,3.063677 0.497527,0.484379 1.401801,0.2417 2.243567,0.342133 0.329311,0.04338 0.742869,0.140858 1.0908,0.202271 0.406502,0.07211 0.839758,0.05182 1.158093,0.134667 0.573019,0.140009 0.726258,0.751657 1.293348,0.751657 0.933037,-0.0018 0.94403,-1.008905 0.415551,-1.638127 0.166191,-0.642371 0.428454,-0.975536 0.202826,-1.42555 -0.42032,-0.838925 -1.961852,-0.04338 -2.041313,-1.088611 -0.0507,-0.678614 0.569067,-0.6483 0.815568,-1.155986 -0.112667,-1.311282 1.077554,-1.406277 0.950497,-2.5815845 C 69.951889,8.467859 69.537776,8.4610643 69.192687,8.0004503 69.020845,7.7739408 68.930686,7.3399827 68.730669,7.1451107 67.139288,7.0034034 65.529858,6.9169189 63.900437,6.9169189 Z M 36.45434,17.627366 v 0 c 0.31749,0.04593 0.70089,0.385595 1.08543,0.414734 0.36426,0.0085 0.66399,-0.200295 0.88822,-0.140025 0.57021,0.149874 0.8105,1.009493 0.27609,1.430727 -0.44594,0.05578 -0.61976,-0.192977 -0.95556,-0.134651 -0.92627,0.156913 -1.28152,1.967585 -1.97368,1.907658 -0.65274,-0.05578 -1.00599,-1.642455 -0.34285,-2.115009 0.0423,-0.412561 -0.30172,-0.478776 -0.2817,-0.886454 0.1972,-0.250732 0.75609,-0.520508 1.29842,-0.476915 z m -3.06956,0.21243 c 0.18877,0.0057 0.33242,0.0521 0.4051,0.134929 -0.0901,0.725409 -0.65919,0.677879 -1.22065,1.016026 -0.96938,0.584045 -1.52998,1.473978 -1.83845,2.721544 -0.0901,0.363448 -1.04487,1.324807 -1.50632,1.228587 -1.08121,-0.22762 0.29833,-2.21701 0.5454,-2.519371 0.27326,-0.335158 0.6392,-0.629075 0.96092,-1.016042 0.31187,-0.374718 0.51497,-0.88064 0.81527,-1.088595 0.32933,-0.227636 1.26911,-0.498752 1.83873,-0.476947 z m 8.071064,2.446803 c 0.346526,0.0057 0.657821,0.06225 0.79979,0.202254 -0.222524,0.898835 -2.162424,0.661513 -2.872074,0.336972 0.0451,-0.338932 0.57697,-0.432227 1.023183,-0.476915 0.313843,-0.0085 0.70344,-0.07268 1.049101,-0.06226 z M 37.04115,21.94542 c 0.23098,-0.0057 0.46425,0.04451 0.70652,0.108747 -0.62767,0.523987 -1.3063,0.820811 -2.38413,1.161179 -0.51807,0.162827 -1.41307,0.365833 -1.50096,-0.212691 -0.10705,-0.7079 0.7578,-0.543162 1.23081,-0.606503 0.59582,-0.08253 1.24993,-0.428699 1.94776,-0.450977 z m 67.72737,4.033055 c -0.0817,0.1927 -0.14086,0.383554 -0.12959,0.57021 0.0422,0.328462 0.40257,0.644363 0.48284,1.088627 0.0423,0.235232 -0.10985,0.744274 0,0.959024 0.32848,0.635559 1.18771,0.178326 1.80241,0.212414 -0.69838,-0.95971 -1.39563,-1.921068 -2.15538,-2.830422 z m 3.48506,4.681044 c -0.0986,0.468928 -0.41724,1.080592 -0.67529,1.472214 -0.59439,0.90233 -1.4018,0.944405 -2.25426,1.425566 -0.71074,0.402206 -1.01668,1.073323 -1.43334,1.77286 -0.4516,0.755641 -0.73134,1.212123 -0.54542,2.306859 -0.60933,1.206358 -1.53196,1.94547 -2.79429,2.519339 -0.37328,0.167889 -0.883172,0.22989 -1.225729,0.476898 -0.273272,0.195525 -0.427931,0.721374 -0.815291,1.156002 -0.478335,0.531206 -0.979505,0.755364 -1.23107,1.161196 -0.194382,0.313141 -0.262001,0.937316 -0.477796,1.358191 -0.29101,0.571615 -0.911052,0.8516 -1.293332,1.430744 -0.174668,0.267898 -0.29016,0.810456 -0.48286,1.161196 -0.431868,0.783572 -1.169934,1.348098 -1.0908,2.03723 0.07889,0.666037 0.83641,0.782771 0.888235,1.363369 0,0.328201 -0.216889,0.52874 -0.202826,0.886455 0,0.522223 0.363692,0.88892 0.40513,1.2908 0.101396,1.01044 -0.344567,1.413676 -0.534996,2.104637 -0.09014,0.329916 -0.05071,0.701268 -0.140858,0.959023 -0.166207,0.505841 -0.874155,0.962307 -0.887941,1.560348 0,0.424959 0.436653,0.766765 0.472423,1.363337 0,0.411287 -0.202842,0.850407 -0.129588,1.228587 0.146493,0.740598 1.469682,1.601818 2.04636,2.177206 0.771599,0.769998 1.78155,1.365982 2.11398,2.177238 0.278874,0.688937 0.278874,1.585404 0.815258,2.104654 0.39778,0.383407 1.059244,0.622427 1.568581,1.021204 0.47525,0.372284 0.99304,0.693608 1.50096,1.088611 0.83022,0.648054 2.08496,1.939867 3.40733,1.8403 0.69047,-0.05044 1.39812,-0.612807 2.18129,-0.751673 0.8057,-0.144239 1.85142,-0.218326 2.66447,-0.134667 0.62258,0.06171 1.26403,0.434056 1.91142,0.404346 0.68343,-0.04338 1.46715,-0.54785 2.24355,-0.886439 0.62484,-0.271572 1.39166,-0.572235 2.23342,-0.793126 0.38594,-2.589261 0.59215,-5.241895 0.59215,-7.9417 0,-10.869239 -3.25631,-20.943652 -8.82944,-29.340707 z M 20.2911,48.497192 c -1.13277,0.06197 -1.87509,0.113238 -2.51881,0.404346 -1.4756,0.670186 -1.1905,2.660229 -2.66443,3.131084 -0.50989,0.162549 -1.20993,0.170437 -1.77111,0.274676 -0.48454,0.08846 -1.07473,0.352668 -1.57394,0.342133 -0.14084,-0.002 -0.1484,-0.03183 -0.3222,-0.08704 -0.13221,0.834776 -0.28193,1.866694 -0.32135,2.807588 1.40236,0.268208 1.93886,2.067103 3.17841,2.680874 0.33945,0.167889 0.78316,0.176905 1.22037,0.27466 0.35299,0.07861 0.62091,0.227914 0.96093,0.342149 0.72118,0.244525 1.60463,0.214945 2.18129,0.471704 0.86936,0.385056 1.50661,2.015507 2.25427,2.451997 0.0422,0.439805 -0.0845,1.030236 0.0676,1.358158 0.35296,0.477977 0.85189,0.372611 1.43363,0.684282 0.69583,0.374717 0.90879,1.342348 1.56858,1.638094 0.22818,0.100825 0.79836,0.08789 1.1581,0.196897 0.90403,0.272994 1.19897,1.316754 1.97367,1.088628 0.50821,-0.149596 0.4682,-0.671182 0.55047,-1.156019 0.33579,-0.363431 0.70229,-0.938426 1.22573,-0.948618 0.8474,-0.04338 0.9226,0.87378 1.23108,1.695113 0.17465,0.464126 0.62906,0.868619 0.74795,1.358192 0.21129,0.845686 0.10705,3.377177 -0.0733,3.882707 -0.2141,0.620108 -1.05501,0.883172 -1.57364,1.57072 -0.24508,0.322369 -0.36116,0.794629 -0.5454,1.02122 -0.33382,0.405653 -0.83021,0.511949 -1.08009,0.886422 -0.14086,0.211009 -0.27889,0.663587 -0.41552,0.948668 -0.4096,0.865989 -0.95753,1.479629 -0.61298,2.519338 0.14365,0.42798 0.81385,0.714564 0.81553,1.218232 0.002,0.592554 -1.2629,1.123156 -1.36093,1.77286 -0.0732,0.483333 0.39185,1.346088 0.5454,1.975049 0.11268,0.47533 1.01245,0.772465 1.29331,1.088628 0.47863,0.536384 0.86121,1.296223 1.29841,1.969888 0.86457,1.325034 1.54209,2.941063 2.38386,4.224856 0.4451,0.672407 1.06966,1.277015 1.36601,1.975049 0.15215,0.352259 0.12959,0.772089 0.27045,1.088611 0.48737,1.097807 2.63937,2.243993 3.74989,2.788919 0.52003,0.251859 1.09669,0.342802 1.57362,0.606519 0.72262,0.402223 2.154276,1.482536 2.519095,2.114993 0.32482,0.568511 0.527646,1.952301 0.68567,2.856341 0.21132,1.19465 0.0023,2.11194 0.0676,3.40581 0.04229,0.6996 0.267669,1.40322 0.276113,2.10462 0.0026,0.24538 -0.14989,0.23558 -0.16116,0.48624 l 0.02989,0.26274 c 6.677702,3.06596 14.110393,4.80813 21.965395,4.80813 1.418968,0 2.819495,-0.0502 4.210043,-0.15807 0.06197,-0.10453 0.120441,-0.23631 0.193679,-0.33438 0.320034,-0.41935 0.604265,-0.78667 0.815569,-1.156 0.2,-1.24265 -0.496662,-2.11069 -0.202859,-3.19846 0.325391,-1.22185 2.018218,-1.96809 3.204502,-2.51933 0.408184,-0.18932 0.825711,-0.49655 1.158125,-0.61173 0.82117,-0.28513 1.846327,-0.13098 2.596807,-0.40433 1.277865,-0.46666 1.411111,-1.83447 2.041313,-2.99627 0.296922,-0.55022 0.689639,-1.10111 0.747932,-1.49296 0.05072,-0.352292 -0.129588,-0.683628 -0.07325,-1.098983 0.062,-0.411255 0.431034,-0.766487 0.545416,-1.218215 0.149302,-0.5895 0.214096,-1.453153 0.214096,-2.109815 0,-0.538997 -0.253541,-1.011927 -0.276081,-1.498135 -0.08733,-1.765347 0.638924,-1.962946 1.293349,-2.923717 0.328478,-0.477274 0.451287,-1.021318 0.680329,-1.363369 1.098688,-1.635955 3.00504,-2.425749 2.866991,-4.898766 -0.04508,-0.818313 -0.560034,-2.667645 -1.163466,-2.928862 -0.345105,-0.149874 -1.136713,-0.0085 -1.635922,-0.202255 -1.611667,-0.600116 -2.557656,-2.59421 -4.227649,-2.721544 -0.356947,-0.04338 -0.684298,0.146215 -1.085721,0.140008 -0.660908,-0.04338 -1.657318,-0.462116 -2.388933,-0.544321 -0.465106,-0.05042 -1.086848,0.138326 -1.366015,0 -0.425972,-0.206485 -0.469059,-0.989861 -0.815552,-1.223377 -0.273272,-0.188747 -0.809084,-0.253541 -1.225762,-0.414701 -0.67159,-0.257494 -1.204022,-0.55783 -1.978724,-0.611713 -0.239462,-0.0085 -0.536939,0.114659 -0.815568,0.07267 -0.428748,-0.07211 -0.767663,-0.578736 -1.163189,-0.819047 -0.495518,-0.301005 -0.953584,-0.446649 -1.158403,-0.87605 0.447923,-1.465975 -0.789647,-1.874567 -1.090767,-2.721544 -0.1437,-0.396914 -0.07889,-0.874531 -0.202859,-1.228571 -0.177477,-0.507164 -0.680051,-0.800296 -1.230792,-1.223409 -0.986855,-0.757961 -1.861844,-1.469682 -3.272089,-1.643272 -0.620059,-0.0786 -1.235022,0.185366 -1.984114,0.140008 -0.793584,-0.05042 -1.789994,-0.743097 -2.383838,-1.420388 -0.577213,-0.661207 -0.85808,-1.254643 -1.360931,-1.570707 -0.476115,-0.305628 -1.107983,-0.296857 -1.433374,-0.606519 -0.143651,-0.134652 -0.121127,-0.366322 -0.276081,-0.684282 -0.239445,-0.495061 -0.641455,-0.77021 -0.342835,-1.363336 -0.543423,-0.278613 -0.558352,0.517584 -1.153045,0.414701 -0.5299,-0.750905 -0.977839,-1.106676 -2.181306,-0.886471 -0.551312,0.101136 -0.858949,0.796606 -1.50096,0.813902 -0.526813,0.04338 -0.940632,-0.585645 -1.636184,-0.684281 -0.525114,-0.07211 -1.122078,0.142263 -1.495897,0.07268 C 42.752529,62.2631 42.57306,61.779734 42.041494,61.43079 41.65157,61.174979 40.89405,60.739567 40.675446,60.746542 c -0.685406,0.04338 -1.173906,1.453757 -2.119046,0.953812 -0.45947,-0.580973 0.74823,-0.887124 0.20285,-1.43076 -0.4133,-0.412512 -0.76035,0.186771 -1.0908,0.414718 -0.37863,0.261136 -0.73443,0.519316 -1.15305,0.673893 -0.9367,0.350038 -1.5221,0.166779 -2.25399,0.544322 -0.6778,0.35043 -0.7068,0.936696 -1.09078,1.632917 -0.31383,0.57039 -1.0291,1.401524 -1.50096,1.435954 -0.5716,0.04337 -1.11783,-0.797536 -1.63619,-1.021253 -1.56154,-0.675118 -2.31795,0.599577 -3.61492,0.616907 -1.20321,0.04338 -2.9222,-1.93959 -2.86162,-3.068871 0,-0.68905 0.39692,-1.734346 0.47778,-2.586713 0.0732,-0.677977 0.5375,-1.086651 0.54539,-1.705518 0,-0.826658 -1.09868,-1.462283 -1.63617,-1.560348 -1.27391,-0.23381 -3.04279,0.51159 -4.50291,-0.07268 -0.2789,-0.461218 0.32651,-0.779912 0.48313,-1.22857 0.0873,-0.25524 0.0366,-0.595543 0.12961,-0.876067 0.16055,-0.433452 0.61723,-0.769312 0.82061,-1.228587 0.15213,-0.350463 0.19156,-0.855977 0.34285,-1.290784 0.17748,-0.49511 0.50709,-0.813968 0.5454,-1.161196 0.0507,-0.458491 -0.12397,-0.988423 -0.48315,-1.290768 z m 18.23043,14.405992 c 0.46202,0.04338 0.52003,0.996377 0.0479,1.073062 -0.50962,0.07887 -0.76879,-0.798141 -0.27608,-1.026431 0.0845,-0.04336 0.16339,-0.04619 0.22817,-0.0414 v -0.0057 z"
       id="use4632"
       style="display:inline;fill:#60dc92;fill-opacity:1;fill-rule:nonzero;stroke:none;stroke-width:0.163333;filter:url(#filter62)"
       inkscape:connector-curvature="0"><title
         id="title4567">qutebrowser-planet-continents</title></path><path
       id="qutebrowser-letterform-classical-clone"
       style="fill:#3974b9;fill-opacity:1;fill-rule:evenodd;stroke:#cee5fd;stroke-width:5;stroke-dasharray:none;stroke-opacity:1;filter:url(#filter34);stroke-linejoin:miter;stroke-linecap:square;paint-order:stroke markers fill"
       inkscape:label="qutebrowser-letterform-classical"
       d="m 74.511602,26.107048 c -3.087796,1.840022 -6.17303,3.684348 -9.262588,5.521409 0,6.348858 0,12.697716 0,19.046574 4.159906,-2.481978 8.320836,-4.962242 12.480294,-7.444969 -3.08e-4,-6.347473 -0.0023,-12.694946 -0.0021,-19.042419 -1.071877,0.639801 -2.143752,1.279604 -3.215629,1.919405 z M 54.767062,25.86193 c -7.539816,0.163128 -15.334047,1.648127 -21.663126,5.958476 -5.792025,3.904312 -9.354338,10.614703 -10.013587,17.503185 -0.579659,4.967514 -0.280833,10.054877 0.924671,14.909842 1.134048,4.32523 3.625346,8.62432 7.778284,10.636646 4.639897,2.303682 10.16208,1.869624 14.933879,0.209689 3.61379,-1.258961 6.712629,-3.567884 10.018103,-5.435661 7.580855,-4.522487 15.142784,-9.081024 22.785903,-13.495472 2.859946,-1.585899 6.514365,-2.55708 9.607883,-1.056972 2.732162,1.43583 3.781938,4.675959 4.045174,7.565207 0.567379,5.386673 -0.480677,11.471861 -4.376455,15.555247 -2.813737,3.039741 -6.921019,4.894479 -11.078483,4.822771 0,-7.73648 0,-15.472961 0,-23.209441 -4.160315,2.45567 -8.320254,4.911975 -12.480294,7.368109 0,8.867905 0,17.735811 0,26.603716 6.438505,0.553632 13.012777,0.533243 19.30675,-1.09284 5.467124,-1.367175 10.786593,-3.969359 14.541135,-8.267603 4.231511,-4.671272 5.939721,-11.098803 6.076711,-17.282903 0.0526,-5.217803 -0.394,-10.618465 -2.66444,-15.392478 -1.6636,-3.479343 -4.660463,-6.413302 -8.421286,-7.487962 -5.199738,-1.557408 -10.885391,-0.491317 -15.668098,1.881953 -2.72931,1.438716 -5.301471,3.156311 -7.97656,4.693015 -7.295305,4.332717 -14.550926,8.735561 -21.908495,12.961169 -2.856166,1.616784 -6.507795,2.588917 -9.623541,1.128008 -2.787662,-1.444914 -3.860062,-4.746806 -4.097091,-7.685887 -0.552488,-5.323661 0.482034,-11.142219 4.148907,-15.229457 2.836287,-3.165525 7.037966,-5.131415 11.308825,-5.057299 0,7.73648 0,15.472961 0,23.209441 4.160314,-2.45567 8.320253,-4.911975 12.480294,-7.368109 0,-8.861674 0,-17.723347 0,-26.585021 -2.658246,-0.18991 -5.317472,-0.411172 -7.985063,-0.359369 z m 4.767357,45.384398 c -3.087796,1.840022 -6.173031,3.684347 -9.262588,5.521408 0,6.348858 0,12.697716 0,19.046574 4.159906,-2.481977 8.320834,-4.962242 12.480294,-7.444969 -3.09e-4,-6.347473 -0.0023,-12.694946 -0.0021,-19.042419 -1.071876,0.639802 -2.143752,1.279604 -3.215628,1.919406 z"><title
         id="title4559">qutebrowser-letterform-classical</title></path></g></svg>
