<?xml version="1.0" encoding="UTF-8" standalone="no"?>
<!-- Created with Inkscape (http://www.inkscape.org/) -->

<svg
   width="128"
   height="128"
   viewBox="0 0 128 128"
   version="1.1"
   id="svg5"
   inkscape:version="1.4.3 (0d15f75042, 2025-12-25)"
   sodipodi:docname="org.gnome.Software.svg"
   xml:space="preserve"
   xmlns:inkscape="http://www.inkscape.org/namespaces/inkscape"
   xmlns:sodipodi="http://sodipodi.sourceforge.net/DTD/sodipodi-0.dtd"
   xmlns:xlink="http://www.w3.org/1999/xlink"
   xmlns="http://www.w3.org/2000/svg"
   xmlns:svg="http://www.w3.org/2000/svg"><sodipodi:namedview
     id="namedview7"
     pagecolor="#ffffff"
     bordercolor="#666666"
     borderopacity="1"
     inkscape:pageshadow="2"
     inkscape:pageopacity="0.0"
     inkscape:pagecheckerboard="true"
     inkscape:document-units="px"
     showgrid="false"
     inkscape:showpageshadow="false"
     showborder="true"
     inkscape:snap-page="true"
     inkscape:snap-bbox="true"
     inkscape:bbox-paths="true"
     inkscape:bbox-nodes="true"
     inkscape:snap-bbox-edge-midpoints="true"
     inkscape:snap-bbox-midpoints="true"
     inkscape:object-paths="true"
     inkscape:zoom="1.356042"
     inkscape:cx="-49.408499"
     inkscape:cy="138.63877"
     inkscape:window-width="1728"
     inkscape:window-height="1043"
     inkscape:window-x="0"
     inkscape:window-y="0"
     inkscape:window-maximized="1"
     inkscape:current-layer="layer2"
     inkscape:deskcolor="#d1d1d1" /><defs
     id="defs2"><linearGradient
       inkscape:collect="always"
       id="linearGradient3811"><stop
         style="stop-color:#3f6291;stop-opacity:1;"
         offset="0"
         id="stop3807" /><stop
         style="stop-color:#5d98df;stop-opacity:1;"
         offset="0.8773852"
         id="stop512" /><stop
         style="stop-color:#9cc0ea;stop-opacity:1;"
         offset="1"
         id="stop3809" /></linearGradient><linearGradient
       inkscape:collect="always"
       id="linearGradient3245"><stop
         style="stop-color:#ffffff;stop-opacity:1;"
         offset="0"
         id="stop3241" /><stop
         style="stop-color:#def5f5;stop-opacity:1;"
         offset="1"
         id="stop3243" /></linearGradient><linearGradient
       inkscape:collect="always"
       id="linearGradient1008"><stop
         style="stop-color:#76aff1;stop-opacity:1;"
         offset="0"
         id="stop1004" /><stop
         style="stop-color:#9ec4f1;stop-opacity:1;"
         offset="0.06041278"
         id="stop1566" /><stop
         style="stop-color:#76aff1;stop-opacity:1;"
         offset="0.12631179"
         id="stop1568" /><stop
         style="stop-color:#76aff1;stop-opacity:1;"
         offset="0.88846779"
         id="stop1572" /><stop
         style="stop-color:#9ec4f1;stop-opacity:1;"
         offset="0.94781947"
         id="stop1570" /><stop
         style="stop-color:#76aff1;stop-opacity:1;"
         offset="1"
         id="stop1006" /></linearGradient><linearGradient
       y2="236"
       x2="96"
       y1="236"
       x1="32"
       gradientTransform="translate(604.81684,170.58641)"
       gradientUnits="userSpaceOnUse"
       id="linearGradient1099"
       xlink:href="#linearGradient1036" /><linearGradient
       id="linearGradient1036"><stop
         id="stop1032"
         offset="0"
         style="stop-color:#d5d3cf;stop-opacity:1;" /><stop
         id="stop1034"
         offset="1"
         style="stop-color:#f6f5f4;stop-opacity:1" /></linearGradient><radialGradient
       r="32"
       fy="-76"
       fx="-244"
       cy="-76"
       cx="-244"
       gradientTransform="matrix(0.88333331,0,0,0.88333331,-460.35018,463.11973)"
       gradientUnits="userSpaceOnUse"
       id="radialGradient1103"
       xlink:href="#linearGradient1069" /><linearGradient
       id="linearGradient1069"><stop
         id="stop1065"
         offset="0"
         style="stop-color:#d5d3cf;stop-opacity:1" /><stop
         id="stop1067-1"
         offset="1"
         style="stop-color:#949390;stop-opacity:1" /></linearGradient><linearGradient
       gradientUnits="userSpaceOnUse"
       y2="232"
       x2="64"
       y1="262.5"
       x1="64"
       id="linearGradient1027"
       xlink:href="#linearGradient1025"
       gradientTransform="translate(-470.5864,432.81685)" /><linearGradient
       id="linearGradient1025"><stop
         id="stop1021"
         offset="0"
         style="stop-color:#9a9996;stop-opacity:1" /><stop
         id="stop1023"
         offset="1"
         style="stop-color:#77767b;stop-opacity:1" /></linearGradient><inkscape:path-effect
       effect="spiro"
       id="path-effect35304-9"
       is_visible="true" /><clipPath
       clipPathUnits="userSpaceOnUse"
       id="clipPath1609-7"><path
         sodipodi:nodetypes="cccccc"
         inkscape:connector-curvature="0"
         id="path1611-5"
         d="m 252,116 28,-28 v -8 h -36 v 36 z"
         style="fill:#e74747;stroke:none;stroke-width:0.25px;stroke-linecap:butt;stroke-linejoin:miter;stroke-opacity:1" /></clipPath><clipPath
       clipPathUnits="userSpaceOnUse"
       id="clipPath961"><rect
         style="fill:#00c853;stroke:none;stroke-width:0.529037"
         id="rect963"
         width="541.86664"
         height="541.86664"
         x="1.4210855e-14"
         y="2.717972e-05"
         rx="79.375"
         ry="79.375" /></clipPath><linearGradient
       id="d"><stop
         offset="0"
         stop-color="#f9f06b"
         id="stop865" /><stop
         offset="1"
         stop-color="#f6d32d"
         id="stop867" /></linearGradient><linearGradient
       id="e"><stop
         offset="0"
         stop-color="#2dc0af"
         id="stop870" /><stop
         offset="1"
         stop-color="#5ed9cb"
         id="stop872" /></linearGradient><linearGradient
       id="f"><stop
         offset="0"
         stop-color="#fff"
         id="stop875" /><stop
         offset="1"
         stop-color="#fff"
         stop-opacity="0"
         id="stop877" /></linearGradient><linearGradient
       id="g"><stop
         offset="0"
         stop-color="#2dc0af"
         id="stop880" /><stop
         offset="1"
         stop-color="#3584e4"
         id="stop882" /></linearGradient><linearGradient
       id="h"><stop
         offset="0"
         stop-color="#c061cb"
         id="stop885" /><stop
         offset="1"
         stop-color="#8f58c8"
         id="stop887" /></linearGradient><linearGradient
       xlink:href="#d"
       id="m"
       gradientUnits="userSpaceOnUse"
       x1="529.288"
       y1="441.731"
       x2="543.341"
       y2="408.599"
       gradientTransform="translate(-461.557,-35.819)" /><linearGradient
       xlink:href="#e"
       id="l"
       gradientUnits="userSpaceOnUse"
       x1="529.288"
       y1="441.731"
       x2="543.341"
       y2="408.599"
       gradientTransform="rotate(-120,320.2,508.254)" /><linearGradient
       xlink:href="#f"
       id="k"
       x1="56"
       y1="252"
       x2="0"
       y2="244"
       gradientUnits="userSpaceOnUse"
       gradientTransform="translate(42.443,122.181)" /><linearGradient
       gradientTransform="translate(42.443,122.181)"
       xlink:href="#g"
       id="j"
       x1="64"
       y1="260"
       x2="80"
       y2="220"
       gradientUnits="userSpaceOnUse" /><linearGradient
       gradientTransform="translate(42.443,122.181)"
       xlink:href="#h"
       id="i"
       x1="32"
       y1="239.25"
       x2="56"
       y2="196"
       gradientUnits="userSpaceOnUse" /><clipPath
       clipPathUnits="userSpaceOnUse"
       id="clipPath1891"><rect
         style="fill:#b3b3b3;stroke:none;stroke-width:0.529037"
         id="rect1893"
         width="541.86664"
         height="541.86664"
         x="2.2119139e-06"
         y="4.8096284e-05"
         rx="79.375"
         ry="79.375" /></clipPath><linearGradient
       id="linearGradient1494"><stop
         id="stop1490"
         offset="0"
         style="stop-color:#babdb6;stop-opacity:1;" /><stop
         id="stop1492"
         offset="1"
         style="stop-color:#babdb6;stop-opacity:0;" /></linearGradient><linearGradient
       gradientUnits="userSpaceOnUse"
       y2="20"
       x2="280"
       y1="172"
       x1="280"
       id="linearGradient1496"
       xlink:href="#linearGradient1494" /><linearGradient
       id="linearGradient968"
       inkscape:swatch="solid"><stop
         style="stop-color:#ffffff;stop-opacity:1;"
         offset="0"
         id="stop966" /></linearGradient><linearGradient
       inkscape:collect="always"
       xlink:href="#linearGradient1008"
       id="linearGradient1010"
       x1="17.191406"
       y1="112.08105"
       x2="110.80859"
       y2="112.08105"
       gradientUnits="userSpaceOnUse"
       gradientTransform="matrix(1.014771,0,0,1.001989,-0.94534163,-1.2742611)" /><linearGradient
       inkscape:collect="always"
       xlink:href="#linearGradient3245"
       id="linearGradient3247"
       x1="-16.12431"
       y1="27.232536"
       x2="-16.12431"
       y2="115.11583"
       gradientUnits="userSpaceOnUse"
       gradientTransform="matrix(1.014771,0,0,1.001989,80.236334,-8.0748657)" /><radialGradient
       inkscape:collect="always"
       xlink:href="#linearGradient3811"
       id="radialGradient3813"
       cx="64"
       cy="35.970905"
       fx="64"
       fy="35.970905"
       r="22.644531"
       gradientTransform="matrix(0.98240272,0,-1.8547524e-8,1.1630932,1.1262262,-13.423869)"
       gradientUnits="userSpaceOnUse" /></defs><g
     inkscape:groupmode="layer"
     id="layer2"
     inkscape:label="Layer 1"><g
       transform="rotate(-30,31.330179,510.12412)"
       id="g1710" /><path
       id="path1578"
       style="fill:url(#linearGradient3247);fill-opacity:1;stroke-width:1.5735"
       d="M 16.50046,19.966416 V 27.6185 38.764086 103.50974 c 0,4.23927 3.870685,7.65209 8.678656,7.65209 h 77.641754 c 4.80798,0 8.67867,-3.41282 8.67867,-7.65209 V 38.764086 27.6185 19.966416 h -8.67867 -77.641754 z" /><path
       id="path1580"
       style="fill:#dce9fb;fill-opacity:1;stroke-width:1.5113"
       d="m 18.378171,21.768945 v 7.349589 10.704988 62.186178 c 0,4.07169 3.717673,7.3496 8.335579,7.3496 h 74.57248 c 4.61792,0 8.3356,-3.27791 8.3356,-7.3496 V 39.823522 29.118534 21.768945 h -8.3356 -74.57248 z" /><path
       id="path1852"
       style="fill:url(#linearGradient1010);fill-opacity:1;stroke-width:1.71297"
       d="m 16.499998,102.09305 v 2.00398 4.79663 2.00398 c 0,5.02395 3.871104,9.06878 8.679067,9.06878 h 77.641865 c 4.80797,0 8.67907,-4.04483 8.67907,-9.06878 v -2.00398 -4.79663 -2.00398 c 0,5.02393 -3.8711,9.06878 -8.67907,9.06878 H 25.179065 c -4.807963,0 -8.679067,-4.04485 -8.679067,-9.06878 z" /><circle
       r="5.9444656"
       cy="34.506725"
       cx="83.814346"
       id="circle1049"
       style="fill:#1a5fb4;fill-opacity:1;stroke:none;stroke-width:4.75557;stroke-linecap:round;stroke-linejoin:round;stroke-miterlimit:4;stroke-dasharray:none;stroke-dashoffset:0;stroke-opacity:1" /><circle
       r="5.9444656"
       cy="34.506725"
       cx="44.185658"
       id="circle1576"
       style="fill:#1a5fb4;fill-opacity:1;stroke:none;stroke-width:4.75557;stroke-linecap:round;stroke-linejoin:round;stroke-miterlimit:4;stroke-dasharray:none;stroke-dashoffset:0;stroke-opacity:1" /><path
       id="circle3822"
       style="fill:#71acf1;fill-opacity:1;stroke:none;stroke-width:4.75557;stroke-linecap:round;stroke-linejoin:round;stroke-miterlimit:4;stroke-dasharray:none;stroke-dashoffset:0;stroke-opacity:1"
       d="m 83.814453,26.562777 a 5.9444656,5.9444656 0 0 0 -5.945312,5.94336 5.9444656,5.9444656 0 0 0 0.09375,1 5.9444656,5.9444656 0 0 1 5.851562,-4.94336 5.9444656,5.9444656 0 0 1 5.855469,4.925781 5.9444656,5.9444656 0 0 0 0.08984,-0.982421 5.9444656,5.9444656 0 0 0 -5.945313,-5.94336 z" /><path
       id="path3896"
       style="fill:#71acf1;fill-opacity:1;stroke:none;stroke-width:4.75557;stroke-linecap:round;stroke-linejoin:round;stroke-miterlimit:4;stroke-dasharray:none;stroke-dashoffset:0;stroke-opacity:1"
       d="m 44.18481,26.562777 a 5.9444656,5.9444656 0 0 0 -5.945312,5.94336 5.9444656,5.9444656 0 0 0 0.09375,1 5.9444656,5.9444656 0 0 1 5.851562,-4.94336 5.9444656,5.9444656 0 0 1 5.855469,4.925781 5.9444656,5.9444656 0 0 0 0.08984,-0.982421 5.9444656,5.9444656 0 0 0 -5.945313,-5.94336 z" /><path
       style="color:#000000;fill:url(#radialGradient3813);stroke-linecap:round;stroke-linejoin:round;-inkscape-stroke:none"
       d="m 64,0.0335814 c -12.496337,0 -22.644531,10.1501476 -22.644531,22.6464846 v 11.322266 a 2.8306201,2.8306201 0 0 0 2.830078,2.830078 2.8306201,2.8306201 0 0 0 2.830078,-2.830078 V 22.680066 C 47.015625,13.22213 54.542063,5.6956909 64,5.6956909 c 9.457937,0 16.984375,7.5264381 16.984375,16.9843751 v 11.322266 a 2.8306201,2.8306201 0 0 0 2.830078,2.830078 2.8306201,2.8306201 0 0 0 2.830078,-2.830078 V 22.680066 C 86.644531,10.183729 76.496337,0.0335814 64,0.0335814 Z"
       id="rect1044" /><g
       style="fill:url(#linearGradient1496);fill-opacity:1"
       id="g1480"
       transform="translate(-151.01795,-158.98145)" /><path
       id="circle3815"
       style="fill:#ffffff;fill-opacity:1;stroke:none;stroke-width:4.75557;stroke-linecap:round;stroke-linejoin:round;stroke-miterlimit:4;stroke-dasharray:none;stroke-dashoffset:0;stroke-opacity:1"
       d="m 89.669922,35.488558 a 5.9444656,5.9444656 0 0 1 -5.855469,4.962891 5.9444656,5.9444656 0 0 1 -5.851562,-4.945312 5.9444656,5.9444656 0 0 0 -0.09375,1 5.9444656,5.9444656 0 0 0 5.945312,5.945312 5.9444656,5.9444656 0 0 0 5.945313,-5.945312 5.9444656,5.9444656 0 0 0 -0.08984,-1.017579 z" /><path
       id="path3820"
       style="fill:#ffffff;fill-opacity:1;stroke:none;stroke-width:4.75557;stroke-linecap:round;stroke-linejoin:round;stroke-miterlimit:4;stroke-dasharray:none;stroke-dashoffset:0;stroke-opacity:1"
       d="m 50.040279,35.488558 a 5.9444656,5.9444656 0 0 1 -5.855469,4.962891 5.9444656,5.9444656 0 0 1 -5.851562,-4.945312 5.9444656,5.9444656 0 0 0 -0.09375,1 5.9444656,5.9444656 0 0 0 5.945312,5.945312 5.9444656,5.9444656 0 0 0 5.945313,-5.945312 5.9444656,5.9444656 0 0 0 -0.08984,-1.017579 z" /><path
       id="path920"
       style="display:inline;fill:#7eaee3;fill-opacity:1;stroke:none;stroke-width:0.0161755;stroke-linecap:butt;stroke-linejoin:miter;stroke-miterlimit:4;stroke-dasharray:none;stroke-dashoffset:0;stroke-opacity:1;marker:none;marker-start:none;marker-mid:none;marker-end:none;paint-order:normal;enable-background:new"
       d="m 65.999998,45.326424 c -16.242635,0 -29.409893,13.167264 -29.409902,29.409901 9e-6,16.242647 13.167267,29.409905 29.409902,29.409905 16.242635,0 29.409899,-13.167258 29.409901,-29.409905 -2e-6,-16.242637 -13.167266,-29.409901 -29.409901,-29.409901 z m 12.790597,8.377663 h 0.0023 c 8.608534,0.0013 -0.53821,12.262117 -5.380703,12.262117 -4.842065,-1e-6 -3.229145,-12.258721 5.378473,-12.262117 z m -13.29901,1.50071 c 4.236666,0.01405 1.503932,9.391095 -0.992297,9.240627 -2.579341,-0.157971 -4.283394,-8.582334 0.561929,-9.211638 0.151417,-0.01966 0.293701,-0.02945 0.430368,-0.02899 z m -8.393273,3.333672 c 3.023053,-0.06626 2.7618,7.576962 0.74924,7.985205 v 0.0023 c -2.180527,0.44542 -5.484813,-6.190044 -1.589905,-7.795664 0.304289,-0.125437 0.584475,-0.186154 0.840665,-0.19177 z m -6.332862,5.200083 c 2.459062,-0.140252 3.548434,6.199693 1.915468,6.91932 -1.833509,0.805393 -5.998998,-4.396758 -2.881006,-6.55139 0.340748,-0.235094 0.663548,-0.350706 0.965538,-0.36793 z m 17.926014,3.980338 c 4.009217,0.06783 7.252302,1.383439 7.6864,3.964728 1.395848,8.294794 -19.781261,11.322822 -11.80499,17.393072 2.504242,1.906015 5.064515,0.444366 4.67606,-2.513076 -0.323713,-2.467978 8.671764,-3.961073 7.967365,-0.231907 -0.921931,4.891939 -5.85476,8.752283 -10.130349,8.752283 -8.691028,0 -17.019203,-10.108237 -15.392869,-17.393072 1.503644,-6.733217 10.316355,-10.085078 16.998383,-9.972028 z" /><path
       id="path6"
       style="display:inline;fill:#ffffff;fill-opacity:1;stroke:none;stroke-width:0.0161755;stroke-linecap:butt;stroke-linejoin:miter;stroke-miterlimit:4;stroke-dasharray:none;stroke-dashoffset:0;stroke-opacity:1;marker:none;marker-start:none;marker-mid:none;marker-end:none;paint-order:normal;enable-background:new"
       d="m 78.790595,52.959307 c -5.615135,0.0022 -8.253757,5.220644 -8.065479,8.848168 0.176442,-3.555402 2.824431,-8.10132 8.065479,-8.103388 h 0.0023 c 2.353031,3.37e-4 3.379478,0.916225 3.529901,2.24772 0.171766,-1.722155 -0.759906,-2.992096 -3.529901,-2.9925 z m -13.29901,1.500709 c -0.136667,-4.55e-4 -0.278951,0.0094 -0.430368,0.02899 -2.379007,0.308983 -3.179899,2.498688 -3.072776,4.664912 0.09743,-1.899769 0.966927,-3.646626 3.072776,-3.920131 0.151417,-0.01966 0.293701,-0.02944 0.430368,-0.02899 1.481371,0.0049 2.111159,1.155621 2.196433,2.642409 0.09594,-1.8293 -0.475557,-3.38148 -2.196433,-3.38719 z m -8.393273,3.333673 c -0.25619,0.0056 -0.536376,0.06633 -0.840665,0.19177 -1.442337,0.594583 -1.897853,1.878703 -1.788364,3.237788 0.09314,-1.067385 0.613371,-2.008634 1.788364,-2.493008 0.304289,-0.125437 0.584475,-0.186154 0.840665,-0.19177 1.489605,-0.03265 2.180723,1.807451 2.25887,3.730591 0.08708,-2.161956 -0.577219,-4.512232 -2.25887,-4.475371 z m -6.332862,5.200083 c -0.30199,0.01723 -0.62479,0.132835 -0.965538,0.367931 -0.929944,0.64262 -1.212297,1.557365 -1.101562,2.501926 0.08565,-0.668214 0.419488,-1.285812 1.101562,-1.757147 0.340748,-0.235094 0.663548,-0.350706 0.965538,-0.36793 1.557476,-0.08883 2.565406,2.42173 2.680317,4.457532 0.131529,-2.102558 -0.925652,-5.302389 -2.680317,-5.202312 z m 17.926014,3.980337 c -6.682028,-0.113051 -15.494739,3.238811 -16.998383,9.972028 -0.164907,0.738671 -0.22825,1.506841 -0.19846,2.290088 0.02052,-0.525775 0.08614,-1.042205 0.19846,-1.545307 1.503644,-6.733217 10.316355,-10.085078 16.998383,-9.972028 4.009217,0.06783 7.252302,1.383439 7.6864,3.964728 0.02321,0.13792 0.04032,0.275252 0.05128,0.410298 0.0307,-0.373116 0.01539,-0.758829 -0.05128,-1.155078 -0.434098,-2.58129 -3.677183,-3.8969 -7.6864,-3.964729 z m -32.099137,7.389826 c -0.0015,0.123846 -0.0023,0.24818 -0.0023,0.37239 9e-6,16.242647 13.167267,29.409905 29.409902,29.409905 16.242636,0 29.409899,-13.167258 29.409902,-29.409905 0,-0.12421 -6.96e-4,-0.248544 -0.0023,-0.37239 -0.199154,16.071175 -13.28914,29.037515 -29.407565,29.037515 -16.118425,0 -29.208405,-12.96634 -29.407671,-29.037515 z m 37.564575,8.973041 c -2.328708,0.01757 -5.089867,1.095063 -4.907968,2.481858 0.01487,0.113199 0.02482,0.225767 0.03121,0.334482 0.586345,-2.033271 7.374993,-3.151533 7.938377,-0.577539 0.299054,-1.625075 -1.25041,-2.252466 -3.061627,-2.238801 z m -11.352324,2.664709 c -0.175045,0.957484 0.309544,1.964839 1.768296,3.075005 2.445686,1.861446 4.94466,0.511045 4.698359,-2.307926 -0.216223,2.297443 -2.479214,3.252169 -4.698359,1.563146 -1.086318,-0.82673 -1.632822,-1.595365 -1.768296,-2.330225 z" /><path
       id="path7"
       style="display:inline;fill:#1a5fb4;fill-opacity:1;stroke:none;stroke-width:0.0161755;stroke-linecap:butt;stroke-linejoin:miter;stroke-miterlimit:4;stroke-dasharray:none;stroke-dashoffset:0;stroke-opacity:1;marker:none;marker-start:none;marker-mid:none;marker-end:none;paint-order:normal;enable-background:new"
       d="m 65.999998,45.326424 c -16.242635,0 -29.409893,13.167264 -29.409902,29.409901 0,0.0878 0.0015,0.175516 0.0023,0.263126 0.141232,-16.121486 13.252776,-29.146775 29.407619,-29.146775 16.154843,0 29.266393,13.025289 29.40767,29.146775 7.69e-4,-0.08761 0.0023,-0.175334 0.0023,-0.263126 C 95.409897,58.493688 82.242633,45.326424 65.999998,45.326424 Z m 16.331649,11.254209 c -0.259449,3.624429 -5.600193,9.38557 -8.919524,9.385571 -1.71386,-1e-6 -2.618929,-1.536434 -2.691467,-3.520983 -0.07846,2.232572 0.828844,4.047234 2.691467,4.047234 3.485156,0 9.198891,-6.35114 8.919524,-9.911822 z m -14.63917,1.89763 c -0.101029,2.694228 -1.689924,6.057775 -3.193189,5.967161 -1.334475,-0.08173 -2.435193,-2.375405 -2.515306,-4.658221 -0.08796,2.442492 1.078056,5.09645 2.515306,5.184474 1.603003,0.09662 3.30339,-3.73466 3.193189,-6.493414 z m -13.229884,3.378269 c -0.149357,2.45378 1.883775,5.502273 3.384959,5.195623 v -0.0023 c 1.002226,-0.203299 1.569794,-2.201449 1.51409,-4.147578 -0.05021,1.765476 -0.60221,3.436355 -1.51409,3.621327 v 0.0023 c -1.395392,0.285039 -3.250307,-2.32872 -3.384959,-4.669371 z m -5.775391,4.638153 c -0.211499,2.369418 2.58219,5.309472 3.993716,4.68944 0.579357,-0.255315 0.81712,-1.218235 0.771539,-2.348065 -0.03874,0.893029 -0.284686,1.607263 -0.771539,1.821812 -1.308527,0.574788 -3.804871,-1.909803 -3.993716,-4.163187 z m 27.748639,6.234748 C 76.064458,79.123315 62.219449,82.266122 62.788969,86.6372 63.335698,82.416253 76.808921,79.213727 76.435841,72.729433 Z m -24.943449,7.140079 c -0.194278,7.068064 7.54371,15.74073 15.593558,15.74073 4.275589,0 9.208418,-3.860343 10.130349,-8.752283 0.04522,-0.239432 0.04978,-0.458085 0.02007,-0.655585 -0.0056,0.04216 -0.01184,0.08574 -0.02007,0.129333 -0.921931,4.891939 -5.85476,8.752283 -10.130349,8.752283 -7.851135,0 -15.405588,-8.249777 -15.593558,-15.214478 z m 17.774381,6.859113 c -0.02787,0.117722 -0.03399,0.238143 -0.01784,0.361242 0.01417,0.107822 0.02475,0.212886 0.03121,0.316642 0.01416,-0.215417 0.0094,-0.441034 -0.01338,-0.677884 z" /><path
       id="path8"
       style="display:inline;fill:#154c90;fill-opacity:1;stroke:none;stroke-width:0.0161755;stroke-linecap:butt;stroke-linejoin:miter;stroke-miterlimit:4;stroke-dasharray:none;stroke-dashoffset:0;stroke-opacity:1;marker:none;marker-start:none;marker-mid:none;marker-end:none;paint-order:normal;enable-background:new"
       d="m 65.999998,45.852633 c -16.242635,0 -29.409893,13.167264 -29.409902,29.409901 0,0.0878 0.0015,0.175516 0.0023,0.263127 0.141232,-16.121487 13.252776,-29.146776 29.407619,-29.146776 16.154843,0 29.266393,13.025289 29.40767,29.146776 7.69e-4,-0.08761 0.0023,-0.175335 0.0023,-0.263127 C 95.409897,59.019897 82.242633,45.852633 65.999998,45.852633 Z m 16.331649,11.254209 c -0.259449,3.624429 -5.600193,9.38557 -8.919524,9.385571 -1.71386,-10e-7 -2.618929,-1.536434 -2.691467,-3.520983 -0.07846,2.232572 0.828844,4.047234 2.691467,4.047234 3.485156,0 9.198891,-6.351139 8.919524,-9.911822 z m -14.63917,1.89763 c -0.101029,2.694228 -1.689924,6.057775 -3.193189,5.967161 -1.334475,-0.08173 -2.435193,-2.375405 -2.515306,-4.658221 -0.08796,2.442493 1.078056,5.09645 2.515306,5.184474 1.603003,0.09662 3.30339,-3.73466 3.193189,-6.493414 z m -13.229884,3.378269 c -0.149357,2.45378 1.883775,5.502273 3.384959,5.195623 v -0.0023 c 1.002226,-0.203299 1.569794,-2.20145 1.51409,-4.147579 -0.05021,1.765476 -0.60221,3.436355 -1.51409,3.621327 v 0.0023 C 56.45216,67.33715 54.597245,64.723391 54.462593,62.382741 Z m -5.775391,4.638153 c -0.211499,2.369418 2.58219,5.309472 3.993716,4.68944 0.579357,-0.255315 0.81712,-1.218235 0.771539,-2.348065 -0.03874,0.893029 -0.284686,1.607263 -0.771539,1.821812 -1.308527,0.574788 -3.804871,-1.909803 -3.993716,-4.163187 z m 27.748639,6.234748 c -0.371383,6.393883 -14.216392,9.536689 -13.646872,13.907767 0.546729,-4.220947 14.019952,-7.423473 13.646872,-13.907767 z m -24.943449,7.140079 c -0.194278,7.068064 7.54371,15.74073 15.593558,15.74073 4.275589,0 9.208418,-3.860343 10.130349,-8.752283 0.04522,-0.239432 0.04978,-0.458085 0.02007,-0.655585 -0.0056,0.04216 -0.01184,0.08574 -0.02007,0.129333 -0.921931,4.89194 -5.85476,8.752283 -10.130349,8.752283 -7.851135,0 -15.405588,-8.249777 -15.593558,-15.214478 z m 17.774381,6.859113 c -0.02787,0.117722 -0.03399,0.238143 -0.01784,0.361242 0.01417,0.107822 0.02475,0.212886 0.03121,0.316642 0.01416,-0.215417 0.0094,-0.441034 -0.01338,-0.677884 z" /><path
       id="path9"
       style="display:inline;fill:#ffffff;fill-opacity:1;stroke:none;stroke-width:0.0161755;stroke-linecap:butt;stroke-linejoin:miter;stroke-miterlimit:4;stroke-dasharray:none;stroke-dashoffset:0;stroke-opacity:1;marker:none;marker-start:none;marker-mid:none;marker-end:none;paint-order:normal;enable-background:new"
       d="m 78.790595,52.326752 c -5.615135,0.0022 -8.253757,5.220644 -8.065479,8.848168 0.176442,-3.555402 2.824431,-8.10132 8.065479,-8.103388 h 0.0023 c 2.353031,3.37e-4 3.379478,0.916225 3.529901,2.24772 0.171766,-1.722155 -0.759906,-2.992096 -3.529901,-2.9925 z m -13.29901,1.500709 c -0.136667,-4.55e-4 -0.278951,0.0094 -0.430368,0.02899 -2.379007,0.308983 -3.179899,2.498689 -3.072776,4.664912 0.09743,-1.899769 0.966927,-3.646626 3.072776,-3.920131 0.151417,-0.01967 0.293701,-0.02945 0.430368,-0.02899 1.481371,0.0049 2.111159,1.155621 2.196433,2.642409 0.09594,-1.8293 -0.475557,-3.38148 -2.196433,-3.38719 z m -8.393273,3.333673 c -0.25619,0.0056 -0.536376,0.06633 -0.840665,0.19177 -1.442337,0.594583 -1.897853,1.878703 -1.788364,3.237788 0.09314,-1.067385 0.613371,-2.008634 1.788364,-2.493008 0.304289,-0.125437 0.584475,-0.186154 0.840665,-0.19177 1.489605,-0.03265 2.180723,1.807452 2.25887,3.730591 0.08708,-2.161956 -0.577219,-4.512232 -2.25887,-4.475371 z m -6.332862,5.200083 c -0.30199,0.01723 -0.62479,0.132835 -0.965538,0.367931 -0.929944,0.64262 -1.212297,1.557365 -1.101562,2.501926 0.08565,-0.668214 0.419488,-1.285812 1.101562,-1.757147 0.340748,-0.235094 0.663548,-0.350706 0.965538,-0.36793 1.557476,-0.08884 2.565406,2.42173 2.680317,4.457532 0.131529,-2.102558 -0.925652,-5.302389 -2.680317,-5.202312 z m 17.926014,3.980337 c -6.682028,-0.113051 -15.494739,3.238811 -16.998383,9.972029 -0.164907,0.73867 -0.22825,1.50684 -0.19846,2.290087 0.02052,-0.525775 0.08614,-1.042205 0.19846,-1.545307 1.503644,-6.733217 10.316355,-10.085078 16.998383,-9.972028 4.009217,0.06783 7.252302,1.383439 7.6864,3.964728 0.02321,0.13792 0.04032,0.275252 0.05128,0.410298 0.0307,-0.373116 0.01539,-0.758829 -0.05128,-1.155078 -0.434098,-2.58129 -3.677183,-3.8969 -7.6864,-3.964729 z M 36.592327,73.73138 c -0.0015,0.123846 -0.0023,0.24818 -0.0023,0.37239 9e-6,16.242647 13.167267,29.4099 29.409902,29.4099 16.242636,0 29.409899,-13.167253 29.409902,-29.4099 0,-0.12421 -6.96e-4,-0.248544 -0.0023,-0.37239 -0.199154,16.071175 -13.28914,29.03751 -29.407565,29.03751 -16.118425,0 -29.208405,-12.966335 -29.407671,-29.03751 z m 37.564575,8.973041 c -2.328708,0.01757 -5.089867,1.095063 -4.907968,2.481858 0.01487,0.113199 0.02482,0.225767 0.03121,0.334482 0.586345,-2.033271 7.374993,-3.151533 7.938377,-0.577539 0.299054,-1.625075 -1.25041,-2.252466 -3.061627,-2.238801 z M 62.804578,85.36913 c -0.175045,0.957484 0.309544,1.964839 1.768296,3.075005 2.445686,1.861446 4.94466,0.511046 4.698359,-2.307926 -0.216223,2.297443 -2.479214,3.252169 -4.698359,1.563146 -1.086318,-0.82673 -1.632822,-1.595365 -1.768296,-2.330225 z" /></g></svg>
