<?xml version="1.0" encoding="UTF-8" standalone="no"?>
<!-- Created with Inkscape (http://www.inkscape.org/) -->

<svg
   width="128"
   height="128"
   viewBox="0 0 128 128"
   version="1.1"
   id="svg5"
   inkscape:version="1.4.3 (0d15f75042, 2025-12-25)"
   sodipodi:docname="org.telegram.desktop.svg"
   xmlns:inkscape="http://www.inkscape.org/namespaces/inkscape"
   xmlns:sodipodi="http://sodipodi.sourceforge.net/DTD/sodipodi-0.dtd"
   xmlns:xlink="http://www.w3.org/1999/xlink"
   xmlns="http://www.w3.org/2000/svg"
   xmlns:svg="http://www.w3.org/2000/svg">
  <sodipodi:namedview
     id="namedview7"
     pagecolor="#ffffff"
     bordercolor="#666666"
     borderopacity="1"
     inkscape:pageshadow="2"
     inkscape:pageopacity="0.0"
     inkscape:pagecheckerboard="true"
     inkscape:document-units="px"
     showgrid="false"
     inkscape:showpageshadow="false"
     showborder="true"
     inkscape:snap-page="true"
     inkscape:zoom="12.630055"
     inkscape:cx="70.783539"
     inkscape:cy="51.702071"
     inkscape:window-width="1728"
     inkscape:window-height="1043"
     inkscape:window-x="0"
     inkscape:window-y="0"
     inkscape:window-maximized="1"
     inkscape:current-layer="layer2"
     inkscape:snap-bbox="true"
     inkscape:snap-bbox-midpoints="true"
     inkscape:snap-bbox-edge-midpoints="true"
     inkscape:bbox-nodes="true"
     inkscape:bbox-paths="true"
     inkscape:snap-intersection-paths="true"
     inkscape:object-paths="true"
     inkscape:snap-smooth-nodes="true"
     inkscape:snap-midpoints="true"
     inkscape:deskcolor="#d1d1d1" />
  <defs
     id="defs2">
    <linearGradient
       inkscape:collect="always"
       id="linearGradient408">
      <stop
         style="stop-color:#68b6f5;stop-opacity:1;"
         offset="0"
         id="stop404" />
      <stop
         style="stop-color:#bde0fd;stop-opacity:1;"
         offset="1"
         id="stop406" />
    </linearGradient>
    <linearGradient
       inkscape:collect="always"
       id="linearGradient7939">
      <stop
         style="stop-color:#1565c0;stop-opacity:1"
         offset="0"
         id="stop7935" />
      <stop
         style="stop-color:#1565c0;stop-opacity:1"
         offset="0.28295189"
         id="stop8493" />
      <stop
         style="stop-color:#0a76d8;stop-opacity:1;"
         offset="0.5"
         id="stop8233" />
      <stop
         style="stop-color:#1565c0;stop-opacity:1"
         offset="0.7060551"
         id="stop8751" />
      <stop
         style="stop-color:#1565c0;stop-opacity:1"
         offset="1"
         id="stop7937" />
    </linearGradient>
    <linearGradient
       y2="236"
       x2="96"
       y1="236"
       x1="32"
       gradientTransform="translate(604.81684,170.58641)"
       gradientUnits="userSpaceOnUse"
       id="linearGradient1099"
       xlink:href="#linearGradient1036" />
    <linearGradient
       id="linearGradient1036">
      <stop
         id="stop1032"
         offset="0"
         style="stop-color:#d5d3cf;stop-opacity:1;" />
      <stop
         id="stop1034"
         offset="1"
         style="stop-color:#f6f5f4;stop-opacity:1" />
    </linearGradient>
    <radialGradient
       r="32"
       fy="-76"
       fx="-244"
       cy="-76"
       cx="-244"
       gradientTransform="matrix(0.88333331,0,0,0.88333331,-460.35018,463.11973)"
       gradientUnits="userSpaceOnUse"
       id="radialGradient1103"
       xlink:href="#linearGradient1069" />
    <linearGradient
       id="linearGradient1069">
      <stop
         id="stop1065"
         offset="0"
         style="stop-color:#d5d3cf;stop-opacity:1" />
      <stop
         id="stop1067-1"
         offset="1"
         style="stop-color:#949390;stop-opacity:1" />
    </linearGradient>
    <linearGradient
       gradientUnits="userSpaceOnUse"
       y2="232"
       x2="64"
       y1="262.5"
       x1="64"
       id="linearGradient1027"
       xlink:href="#linearGradient1025"
       gradientTransform="translate(-470.5864,432.81685)" />
    <linearGradient
       id="linearGradient1025">
      <stop
         id="stop1021"
         offset="0"
         style="stop-color:#9a9996;stop-opacity:1" />
      <stop
         id="stop1023"
         offset="1"
         style="stop-color:#77767b;stop-opacity:1" />
    </linearGradient>
    <inkscape:path-effect
       effect="spiro"
       id="path-effect35304-9"
       is_visible="true" />
    <clipPath
       clipPathUnits="userSpaceOnUse"
       id="clipPath1609-7">
      <path
         sodipodi:nodetypes="cccccc"
         inkscape:connector-curvature="0"
         id="path1611-5"
         d="m 252,116 28,-28 v -8 h -36 v 36 z"
         style="fill:#e74747;stroke:none;stroke-width:0.25px;stroke-linecap:butt;stroke-linejoin:miter;stroke-opacity:1" />
    </clipPath>
    <radialGradient
       r="32"
       fy="-76"
       fx="-244"
       cy="-76"
       cx="-244"
       gradientTransform="matrix(0.88333331,0,0,0.88333331,-460.35018,463.11973)"
       gradientUnits="userSpaceOnUse"
       id="radialGradient1103-5"
       xlink:href="#linearGradient1069" />
    <inkscape:path-effect
       effect="spiro"
       id="path-effect35304-9-2"
       is_visible="true" />
    <clipPath
       clipPathUnits="userSpaceOnUse"
       id="clipPath1609-7-7">
      <path
         sodipodi:nodetypes="cccccc"
         inkscape:connector-curvature="0"
         id="path1611-5-0"
         d="m 252,116 28,-28 v -8 h -36 v 36 z"
         style="fill:#e74747;stroke:none;stroke-width:0.25px;stroke-linecap:butt;stroke-linejoin:miter;stroke-opacity:1" />
    </clipPath>
    <clipPath
       clipPathUnits="userSpaceOnUse"
       id="clipPath744">
      <rect
         style="fill:#1e88e5;fill-opacity:1;stroke-width:0.264583"
         id="rect746"
         width="541.86664"
         height="541.86664"
         x="0"
         y="1.5987212e-14"
         rx="79.375"
         ry="79.375" />
    </clipPath>
    <clipPath
       clipPathUnits="userSpaceOnUse"
       id="clipPath62">
      <rect
         style="fill:#1e88e5;fill-opacity:1;stroke-width:0.264583"
         id="rect64"
         width="541.86664"
         height="541.86664"
         x="2.2507105e-05"
         y="-0.42205024"
         rx="79.375"
         ry="79.375" />
    </clipPath>
    <radialGradient
       r="32"
       fy="-76"
       fx="-244"
       cy="-76"
       cx="-244"
       gradientTransform="matrix(0.88333331,0,0,0.88333331,-460.35018,463.11973)"
       gradientUnits="userSpaceOnUse"
       id="radialGradient1103-6"
       xlink:href="#linearGradient1069" />
    <inkscape:path-effect
       effect="spiro"
       id="path-effect35304-9-20"
       is_visible="true" />
    <clipPath
       clipPathUnits="userSpaceOnUse"
       id="clipPath1609-7-2">
      <path
         sodipodi:nodetypes="cccccc"
         inkscape:connector-curvature="0"
         id="path1611-5-3"
         d="m 252,116 28,-28 v -8 h -36 v 36 z"
         style="fill:#e74747;stroke:none;stroke-width:0.25px;stroke-linecap:butt;stroke-linejoin:miter;stroke-opacity:1" />
    </clipPath>
    <linearGradient
       inkscape:collect="always"
       xlink:href="#linearGradient7939"
       id="linearGradient7941"
       x1="9"
       y1="70"
       x2="119"
       y2="70"
       gradientUnits="userSpaceOnUse"
       gradientTransform="translate(0,-2)" />
    <radialGradient
       r="32"
       fy="-76"
       fx="-244"
       cy="-76"
       cx="-244"
       gradientTransform="matrix(0.88333331,0,0,0.88333331,-460.35018,463.11973)"
       gradientUnits="userSpaceOnUse"
       id="radialGradient1103-56"
       xlink:href="#linearGradient1069" />
    <inkscape:path-effect
       effect="spiro"
       id="path-effect35304-9-7"
       is_visible="true" />
    <clipPath
       clipPathUnits="userSpaceOnUse"
       id="clipPath1609-7-0">
      <path
         sodipodi:nodetypes="cccccc"
         inkscape:connector-curvature="0"
         id="path1611-5-9"
         d="m 252,116 28,-28 v -8 h -36 v 36 z"
         style="fill:#e74747;stroke:none;stroke-width:0.25px;stroke-linecap:butt;stroke-linejoin:miter;stroke-opacity:1" />
    </clipPath>
    <clipPath
       clipPathUnits="userSpaceOnUse"
       id="clipPath744-3">
      <rect
         style="fill:#1e88e5;fill-opacity:1;stroke-width:0.264583"
         id="rect746-6"
         width="541.86664"
         height="541.86664"
         x="0"
         y="1.5987212e-14"
         rx="79.375"
         ry="79.375" />
    </clipPath>
    <clipPath
       clipPathUnits="userSpaceOnUse"
       id="clipPath62-0">
      <rect
         style="fill:#1e88e5;fill-opacity:1;stroke-width:0.264583"
         id="rect64-6"
         width="541.86664"
         height="541.86664"
         x="2.2507105e-05"
         y="-0.42205024"
         rx="79.375"
         ry="79.375" />
    </clipPath>
    <linearGradient
       inkscape:collect="always"
       xlink:href="#linearGradient408"
       id="linearGradient410"
       x1="64"
       y1="115"
       x2="64"
       y2="5"
       gradientUnits="userSpaceOnUse" />
  </defs>
  <g
     inkscape:groupmode="layer"
     id="layer2"
     inkscape:label="Layer 1">
    <path
       id="circle1035"
       style="fill:url(#linearGradient7941);fill-opacity:1"
       d="M 64 5 A 55 55 0 0 0 9 60 L 9 68 A 55 55 0 0 0 64 123 A 55 55 0 0 0 119 68 L 119 60 A 55 55 0 0 0 64 5 z " />
    <circle
       style="fill:url(#linearGradient410);fill-opacity:1"
       id="path953"
       cx="64"
       cy="60"
       r="55" />
    <circle
       style="fill:#42a5f5;fill-opacity:1;stroke-width:0.961244"
       id="circle342"
       cx="64"
       cy="60"
       r="52.868427" />
    <path
       id="path148362"
       style="fill:#357ccd;stroke-width:5.37027;fill-opacity:1"
       d="m 90.734744,35.339286 c -0.445217,4.53e-4 -0.919873,0.08841 -1.406518,0.264216 L 33.407647,57.164845 v -0.0016 c -1.997863,0.781007 -2.925239,1.731963 -2.925368,2.602613 h -0.0095 v 1.620107 1.620106 l 0.0095,0.0032 c 0.0019,0.798392 0.782938,1.529999 2.268782,2.001401 L 47.066223,69.475441 76.530332,50.924902 55.20631,70.188984 54.17634,84.945562 v 1.620107 1.620106 c 1.498297,0 2.15047,-0.652179 2.923786,-1.425504 l 6.994621,-6.738315 14.49869,10.687325 c 2.643785,1.498302 4.53438,0.724799 5.240032,-2.455474 l 9.521291,-44.858288 -0.0049,0.0063 c 0.121857,-0.568646 0.171051,-1.08273 0.170873,-1.552075 0.0024,-9.72e-4 0.0041,-0.0022 0.0065,-0.0032 V 40.226497 38.60639 l -0.0065,-0.0063 c -0.004,-2.156172 -1.203269,-3.262393 -2.786141,-3.260781 z" />
    <path
       d="M 33.407835,57.164249 89.328408,35.603171 c 2.595441,-0.937649 4.862238,0.633153 4.021248,4.557741 l 0.0049,-0.0051 -9.521473,44.857285 c -0.705652,3.180267 -2.595447,3.953584 -5.239232,2.455288 L 64.094391,76.78208 57.100686,83.519608 c -0.773316,0.773325 -1.425801,1.42581 -2.924098,1.42581 L 55.206022,70.189538 82.078827,45.912179 C 83.248472,44.882696 81.817832,44.30271 80.276036,45.327355 L 47.066859,66.235937 32.750802,61.770023 c -3.107767,-0.985975 -3.175431,-3.107765 0.657325,-4.606072 z"
       fill="#ffffff"
       id="path938"
       style="stroke-width:5.37027;fill:#d9edff;fill-opacity:1" />
    <path
       id="path152835"
       style="fill:#357ccd;fill-opacity:1;stroke-width:0.810053"
       d="m 30.472788,59.765876 v 1.620106 1.620107 l 0.0095,0.0032 c 0.0016,0.798393 0.782933,1.53 2.268782,2.001402 l 14.315161,4.464786 V 66.235223 L 32.751047,61.770441 C 31.26323,61.298415 30.482144,60.565505 30.482265,59.765876 Z" />
    <path
       id="path155887"
       style="fill:#357ccd;fill-opacity:1;stroke-width:0.810053"
       d="m 64.094748,76.781743 -9.918408,8.163819 v 1.620106 1.620107 c 1.498298,0 2.150471,-0.652179 2.923787,-1.425504 l 6.994621,-6.738315 z" />
    <path
       id="path1"
       style="stroke-width:5.37027;fill:#84c6ff;fill-opacity:1"
       d="M 93.441406 37.664062 C 93.416413 37.825233 93.386042 37.990138 93.349609 38.160156 L 93.355469 38.15625 L 83.833984 83.013672 C 83.128332 86.193939 81.237535 86.967046 78.59375 85.46875 L 64.09375 74.78125 L 57.101562 81.519531 C 56.352706 82.268396 55.716436 82.903904 54.316406 82.943359 L 54.314453 82.943359 L 54.175781 84.945312 C 55.674078 84.945313 56.328246 84.292856 57.101562 83.519531 L 64.09375 76.78125 L 78.59375 87.46875 C 81.237535 88.967046 83.128332 88.193939 83.833984 85.013672 L 93.355469 40.15625 L 93.349609 40.160156 C 93.55956 39.180395 93.575592 38.348025 93.441406 37.664062 z M 81.832031 42.791016 C 81.416383 42.78487 80.853564 42.943883 80.275391 43.328125 L 47.066406 64.236328 L 32.75 59.769531 C 31.897273 59.498994 31.273675 59.143501 30.896484 58.738281 C 29.930238 59.90533 30.637927 61.099452 32.75 61.769531 L 47.066406 66.236328 L 80.275391 45.328125 C 80.475275 45.195286 80.67451 45.089229 80.865234 45.007812 L 80.869141 45.005859 L 82.078125 43.912109 C 82.809153 43.268682 82.524778 42.801258 81.832031 42.791016 z " />
    <path
       id="path2"
       style="stroke-width:5.37027;fill:#ffffff;fill-opacity:1"
       d="M 90.677734 35.339844 C 90.249361 35.347504 89.793688 35.435323 89.328125 35.603516 L 33.408203 57.164062 C 30.627102 58.251255 29.899003 59.666676 30.896484 60.738281 C 31.352002 60.188099 32.18023 59.644104 33.408203 59.164062 L 89.328125 37.603516 C 91.275622 36.899948 93.038089 37.608307 93.441406 39.664062 C 93.889862 36.772221 92.534021 35.306647 90.677734 35.339844 z M 81.740234 46.791016 C 81.48739 46.801444 81.188756 46.869906 80.869141 47.005859 L 80.865234 47.007812 L 55.205078 70.189453 L 54.175781 84.945312 C 54.222514 84.945312 54.269337 84.944613 54.314453 84.943359 L 54.316406 84.943359 L 55.205078 72.189453 L 82.078125 47.912109 C 82.840861 47.240774 82.498769 46.75973 81.740234 46.791016 z " />
  </g>
</svg>
