<?xml version="1.0" encoding="UTF-8" standalone="no"?>
<!-- Created with Inkscape (http://www.inkscape.org/) -->

<svg
   width="128"
   height="128"
   viewBox="0 0 128 128"
   version="1.1"
   id="svg5"
   inkscape:version="1.4.3 (0d15f75042, 2025-12-25)"
   sodipodi:docname="org.blender.Blender.svg"
   xml:space="preserve"
   xmlns:inkscape="http://www.inkscape.org/namespaces/inkscape"
   xmlns:sodipodi="http://sodipodi.sourceforge.net/DTD/sodipodi-0.dtd"
   xmlns:xlink="http://www.w3.org/1999/xlink"
   xmlns="http://www.w3.org/2000/svg"
   xmlns:svg="http://www.w3.org/2000/svg"><sodipodi:namedview
     id="namedview7"
     pagecolor="#ffffff"
     bordercolor="#666666"
     borderopacity="1"
     inkscape:pageshadow="2"
     inkscape:pageopacity="0.0"
     inkscape:pagecheckerboard="true"
     inkscape:document-units="px"
     showgrid="false"
     inkscape:showpageshadow="false"
     showborder="true"
     inkscape:snap-page="true"
     inkscape:zoom="3.2627628"
     inkscape:cx="189.41003"
     inkscape:cy="70.64565"
     inkscape:window-width="1728"
     inkscape:window-height="1043"
     inkscape:window-x="0"
     inkscape:window-y="0"
     inkscape:window-maximized="1"
     inkscape:current-layer="layer2"
     inkscape:deskcolor="#d1d1d1" /><defs
     id="defs2"><linearGradient
   inkscape:collect="always"
   id="linearGradient404"><stop
     style="stop-color:#ffe1cd;stop-opacity:1"
     offset="0"
     id="stop400" /><stop
     style="stop-color:#fff6f0;stop-opacity:1;"
     offset="1"
     id="stop402" /></linearGradient><linearGradient
   y2="236"
   x2="96"
   y1="236"
   x1="32"
   gradientTransform="translate(604.81684,170.58641)"
   gradientUnits="userSpaceOnUse"
   id="linearGradient1099"
   xlink:href="#linearGradient1036" /><linearGradient
   id="linearGradient1036"><stop
     id="stop1032"
     offset="0"
     style="stop-color:#d5d3cf;stop-opacity:1;" /><stop
     id="stop1034"
     offset="1"
     style="stop-color:#f6f5f4;stop-opacity:1" /></linearGradient><radialGradient
   r="32"
   fy="-76"
   fx="-244"
   cy="-76"
   cx="-244"
   gradientTransform="matrix(0.88333331,0,0,0.88333331,-460.35018,463.11973)"
   gradientUnits="userSpaceOnUse"
   id="radialGradient1103"
   xlink:href="#linearGradient1069" /><linearGradient
   id="linearGradient1069"><stop
     id="stop1065"
     offset="0"
     style="stop-color:#d5d3cf;stop-opacity:1" /><stop
     id="stop1067-1"
     offset="1"
     style="stop-color:#949390;stop-opacity:1" /></linearGradient><linearGradient
   gradientUnits="userSpaceOnUse"
   y2="232"
   x2="64"
   y1="262.5"
   x1="64"
   id="linearGradient1027"
   xlink:href="#linearGradient1025"
   gradientTransform="translate(-470.5864,432.81685)" /><linearGradient
   id="linearGradient1025"><stop
     id="stop1021"
     offset="0"
     style="stop-color:#9a9996;stop-opacity:1" /><stop
     id="stop1023"
     offset="1"
     style="stop-color:#77767b;stop-opacity:1" /></linearGradient><inkscape:path-effect
   effect="spiro"
   id="path-effect35304-9"
   is_visible="true" /><clipPath
   clipPathUnits="userSpaceOnUse"
   id="clipPath1609-7"><path
     sodipodi:nodetypes="cccccc"
     inkscape:connector-curvature="0"
     id="path1611-5"
     d="m 252,116 28,-28 v -8 h -36 v 36 z"
     style="fill:#e74747;stroke:none;stroke-width:0.25px;stroke-linecap:butt;stroke-linejoin:miter;stroke-opacity:1" /></clipPath><linearGradient
   inkscape:collect="always"
   id="linearGradient8241"><stop
     style="stop-color:#fd8638;stop-opacity:1;"
     offset="0"
     id="stop8237" /><stop
     style="stop-color:#fda56a;stop-opacity:1;"
     offset="0.05"
     id="stop9349" /><stop
     style="stop-color:#fd8638;stop-opacity:1;"
     offset="0.1"
     id="stop21746" /><stop
     style="stop-color:#fd8638;stop-opacity:1;"
     offset="0.89999998"
     id="stop21940" /><stop
     style="stop-color:#fda56a;stop-opacity:1;"
     offset="0.94999999"
     id="stop9351" /><stop
     style="stop-color:#fd8638;stop-opacity:1;"
     offset="1"
     id="stop8239" /></linearGradient><radialGradient
   r="32"
   fy="-76"
   fx="-244"
   cy="-76"
   cx="-244"
   gradientTransform="matrix(0.88333331,0,0,0.88333331,-460.35018,463.11973)"
   gradientUnits="userSpaceOnUse"
   id="radialGradient1103-5"
   xlink:href="#linearGradient1069" /><inkscape:path-effect
   effect="spiro"
   id="path-effect35304-9-2"
   is_visible="true" /><clipPath
   clipPathUnits="userSpaceOnUse"
   id="clipPath1609-7-7"><path
     sodipodi:nodetypes="cccccc"
     inkscape:connector-curvature="0"
     id="path1611-5-0"
     d="m 252,116 28,-28 v -8 h -36 v 36 z"
     style="fill:#e74747;stroke:none;stroke-width:0.25px;stroke-linecap:butt;stroke-linejoin:miter;stroke-opacity:1" /></clipPath><clipPath
   clipPathUnits="userSpaceOnUse"
   id="clipPath744"><rect
     style="fill:#1e88e5;fill-opacity:1;stroke-width:0.264583"
     id="rect746"
     width="541.86664"
     height="541.86664"
     x="0"
     y="1.5987212e-14"
     rx="79.375"
     ry="79.375" /></clipPath><clipPath
   clipPathUnits="userSpaceOnUse"
   id="clipPath62"><rect
     style="fill:#1e88e5;fill-opacity:1;stroke-width:0.264583"
     id="rect64"
     width="541.86664"
     height="541.86664"
     x="2.2507105e-05"
     y="-0.42205024"
     rx="79.375"
     ry="79.375" /></clipPath><linearGradient
   inkscape:collect="always"
   xlink:href="#linearGradient8241"
   id="linearGradient8243"
   x1="11.5"
   y1="120.5"
   x2="116.5"
   y2="120.5"
   gradientUnits="userSpaceOnUse"
   gradientTransform="matrix(1,0,0,0.94017094,0,5.7094017)" /><radialGradient
   r="32"
   fy="-76"
   fx="-244"
   cy="-76"
   cx="-244"
   gradientTransform="matrix(0.88333331,0,0,0.88333331,-460.35018,463.11973)"
   gradientUnits="userSpaceOnUse"
   id="radialGradient1103-6"
   xlink:href="#linearGradient1069" /><inkscape:path-effect
   effect="spiro"
   id="path-effect35304-9-20"
   is_visible="true" /><clipPath
   clipPathUnits="userSpaceOnUse"
   id="clipPath1609-7-2"><path
     sodipodi:nodetypes="cccccc"
     inkscape:connector-curvature="0"
     id="path1611-5-3"
     d="m 252,116 28,-28 v -8 h -36 v 36 z"
     style="fill:#e74747;stroke:none;stroke-width:0.25px;stroke-linecap:butt;stroke-linejoin:miter;stroke-opacity:1" /></clipPath><radialGradient
   r="32"
   fy="-76"
   fx="-244"
   cy="-76"
   cx="-244"
   gradientTransform="matrix(0.88333331,0,0,0.88333331,-460.35018,463.11973)"
   gradientUnits="userSpaceOnUse"
   id="radialGradient1103-56"
   xlink:href="#linearGradient1069" /><inkscape:path-effect
   effect="spiro"
   id="path-effect35304-9-7"
   is_visible="true" /><clipPath
   clipPathUnits="userSpaceOnUse"
   id="clipPath1609-7-0"><path
     sodipodi:nodetypes="cccccc"
     inkscape:connector-curvature="0"
     id="path1611-5-9"
     d="m 252,116 28,-28 v -8 h -36 v 36 z"
     style="fill:#e74747;stroke:none;stroke-width:0.25px;stroke-linecap:butt;stroke-linejoin:miter;stroke-opacity:1" /></clipPath><clipPath
   clipPathUnits="userSpaceOnUse"
   id="clipPath37"><rect
     style="fill:#1a1a1a;fill-opacity:1;stroke-width:0.264583"
     id="rect39"
     width="541.86664"
     height="541.86664"
     x="-2.6626146e-06"
     y="3.2408705"
     rx="79.375"
     ry="79.375" /></clipPath><clipPath
   clipPathUnits="userSpaceOnUse"
   id="clipPath22042"><rect
     style="fill:#333333;fill-opacity:1;stroke-width:0.0133797"
     id="rect22044"
     width="27.31955"
     height="27.483929"
     x="166.96844"
     y="105.40438"
     rx="4.0018873"
     ry="4.0259666" /></clipPath><clipPath
   clipPathUnits="userSpaceOnUse"
   id="clipPath1039"><rect
     style="fill:#b3b3b3;fill-opacity:1;stroke-width:0.264583"
     id="rect1041"
     width="541.8667"
     height="541.86682"
     x="2.5931527e-05"
     y="-0.00010962487"
     rx="79.375008"
     ry="79.375031" /></clipPath><clipPath
   clipPathUnits="userSpaceOnUse"
   id="clipPath154"><rect
     style="fill:#b3b3b3;fill-opacity:1;stroke-width:0.264583"
     id="rect156"
     width="541.8667"
     height="541.86682"
     x="-2.9218751e-05"
     y="-0.00016368683"
     rx="79.375008"
     ry="79.375031" /></clipPath><linearGradient
   inkscape:collect="always"
   xlink:href="#linearGradient404"
   id="linearGradient406"
   x1="64"
   y1="112.5"
   x2="64"
   y2="7.5"
   gradientUnits="userSpaceOnUse"
   gradientTransform="matrix(1,0,0,0.94017094,0,1.9487179)" />
        
    
            
            
        
                
                
                
            
                    
                
                    
                
                    
                
                
                    
                
                
                    
                
                
                    
                
                
                    
                
                
                    
                
                
                    
                
                
                    
                
                
                    
                <filter
   style="color-interpolation-filters:sRGB;"
   inkscape:label="Blur"
   id="filter2078"
   x="-0.05536301"
   y="-0.068154427"
   width="1.110726"
   height="1.1363089"><feGaussianBlur
     stdDeviation="2 2"
     result="blur"
     id="feGaussianBlur2076" /></filter><filter
   style="color-interpolation-filters:sRGB;"
   inkscape:label="Drop Shadow"
   id="filter3184"
   x="-0.21501199"
   y="-0.23700675"
   width="1.430024"
   height="1.7463822"><feFlood
     flood-opacity="0.333333"
     flood-color="rgb(0,0,0)"
     result="flood"
     id="feFlood3174" /><feComposite
     in="SourceGraphic"
     in2="flood"
     operator="in"
     result="composite1"
     id="feComposite3176" /><feGaussianBlur
     in="composite1"
     stdDeviation="2.1"
     result="blur"
     id="feGaussianBlur3178" /><feOffset
     dx="4.57967e-15"
     dy="5.79198"
     result="offset"
     id="feOffset3180" /><feComposite
     in="SourceGraphic"
     in2="offset"
     operator="over"
     result="composite2"
     id="feComposite3182" /></filter><filter
   style="color-interpolation-filters:sRGB;"
   inkscape:label="Drop Shadow"
   id="filter2692"
   x="-0.013840752"
   y="-0.017038607"
   width="1.0299883"
   height="1.036917"><feFlood
     flood-opacity="1"
     flood-color="rgb(255,255,255)"
     result="flood"
     id="feFlood2682" /><feComposite
     in="flood"
     in2="SourceGraphic"
     operator="out"
     result="composite1"
     id="feComposite2684" /><feGaussianBlur
     in="composite1"
     stdDeviation="0.5"
     result="blur"
     id="feGaussianBlur2686" /><feOffset
     dx="0.2"
     dy="0.2"
     result="offset"
     id="feOffset2688" /><feComposite
     in="offset"
     in2="SourceGraphic"
     operator="in"
     result="composite2"
     id="feComposite2690" /></filter></defs><g
     inkscape:groupmode="layer"
     id="layer2"
     inkscape:label="Layer 1"><path
       d="m 47.205391,70.228299 c 0.01988,1.131616 0.380779,3.330623 0.922126,5.047927 1.137748,3.634936 3.067638,6.997672 5.752969,9.961285 2.755675,3.04619 6.14904,5.492929 10.06846,7.230113 4.11975,1.82435 8.583577,2.75411 13.220206,2.746464 4.628983,-0.0061 9.09281,-0.954228 13.212561,-2.79234 3.919419,-1.754007 7.309726,-4.21145 10.060817,-7.259169 2.6838,-2.975845 4.61063,-6.344698 5.75144,-9.979634 0.57346,-1.836584 0.93589,-3.700693 1.08116,-5.570919 0.14222,-1.8427 0.0826,-3.688457 -0.17892,-5.532687 -0.51076,-3.593647 -1.75403,-6.96556 -3.66862,-10.039275 -1.75097,-2.824454 -4.008119,-5.29719 -6.691921,-7.378445 l 0.0061,-0.0046 L 69.65755,25.86127 c -0.02447,-0.01835 -0.04435,-0.03823 -0.07035,-0.05505 -1.776966,-1.364058 -4.765085,-1.359471 -6.719443,0.0076 -1.975767,1.382407 -2.202093,3.668579 -0.443477,5.110625 l -0.0076,0.0076 11.296433,9.185975 -34.430654,0.0367 h -0.04587 c -2.845898,0.0031 -5.581686,1.870226 -6.123044,4.2298 -0.556635,2.40392 1.376318,4.398011 4.335369,4.408716 l -0.0045,0.0107 17.451595,-0.03364 -31.141267,23.903107 c -0.03976,0.02905 -0.08259,0.05964 -0.119284,0.08869 -2.937658,2.249471 -3.887301,5.989922 -2.036933,8.357143 1.877892,2.406978 5.870714,2.411565 8.838954,0.01376 L 47.433287,67.223398 c 0,0 -0.247736,1.877872 -0.227855,3.004901 z m 43.673322,6.288117 c -3.50194,3.567652 -8.404657,5.590799 -13.709561,5.601503 -5.31255,0.0092 -10.215267,-1.995621 -13.717206,-5.557154 -1.71121,-1.735657 -2.968239,-3.732806 -3.74356,-5.859939 -0.760027,-2.090433 -1.055168,-4.30932 -0.859427,-6.548086 0.185037,-2.188301 0.836489,-4.275675 1.876367,-6.164251 1.021526,-1.856464 2.428419,-3.534008 4.165627,-4.953117 3.404069,-2.773989 7.73791,-4.275676 12.270553,-4.281792 4.537229,-0.0061 8.868013,1.481805 12.275141,4.24662 1.734148,1.412992 3.139512,3.08442 4.161039,4.937824 1.044466,1.887048 1.691331,3.966776 1.884013,6.161195 0.192684,2.235706 -0.102458,4.451534 -0.862487,6.543497 -0.77685,2.133249 -2.029289,4.1304 -3.740499,5.8737 z"
       style="clip-rule:evenodd;fill:#ea7600;fill-rule:nonzero;stroke-width:1.52923;stroke-linejoin:round;stroke-miterlimit:2;filter:url(#filter2078)"
       id="path1710" /><rect
       style="fill:url(#linearGradient8243);fill-opacity:1;stroke-width:0.969624"
       id="rect440"
       width="105"
       height="98.717949"
       x="11.5"
       y="20.282051"
       rx="12"
       ry="11.282051" /><rect
       style="fill:url(#linearGradient406);fill-opacity:1;stroke-width:0.969624"
       id="rect358"
       width="105"
       height="98.717949"
       x="11.5"
       y="9"
       rx="12"
       ry="11.282051" /><rect
       style="fill:#ffd6bc;fill-opacity:1;stroke-width:0.923748"
       id="rect338"
       width="100.03204"
       height="94.047211"
       x="13.983981"
       y="11.335367"
       rx="11.913856"
       ry="11.20106" /><path
       id="path7"
       style="clip-rule:evenodd;fill:#eeb67c;fill-opacity:0.7355988;fill-rule:nonzero;stroke-width:1.52923;stroke-linejoin:round;stroke-miterlimit:2"
       d="M 59.421875 28.689453 C 59.174326 29.348337 59.17072 30.044577 59.421875 30.691406 C 58.989124 31.844703 59.301838 33.109277 60.423828 34.029297 L 60.416016 34.035156 L 69.255859 41.224609 L 71.712891 41.222656 L 69.255859 39.224609 L 71.712891 39.222656 L 60.416016 30.035156 L 60.423828 30.029297 C 59.942425 29.634598 59.610632 29.174852 59.421875 28.689453 z M 31.167969 45.28125 C 31.148199 45.35007 31.129281 45.418563 31.113281 45.488281 C 30.965897 46.124783 30.993387 46.733427 31.167969 47.283203 C 31.148307 47.351672 31.1292 47.418915 31.113281 47.488281 C 30.556646 49.892201 32.490168 51.885779 35.449219 51.896484 L 35.445312 51.908203 L 50.285156 51.880859 L 52.896484 49.875 L 50.287109 49.880859 L 52.896484 47.875 L 35.445312 47.908203 L 35.449219 47.896484 C 33.272738 47.888584 31.651825 46.809018 31.167969 45.28125 z M 75.162109 47.857422 C 70.629466 47.863522 66.294694 49.364683 62.890625 52.138672 C 61.153417 53.557781 59.746135 55.235333 58.724609 57.091797 C 57.684731 58.980373 57.034646 61.067558 56.849609 63.255859 C 56.781019 64.040351 56.771426 64.822718 56.822266 65.597656 C 56.829623 65.48454 56.839716 65.371049 56.849609 65.257812 C 56.781174 66.04165 56.771468 66.823361 56.822266 67.597656 C 56.829666 67.48389 56.839659 67.369743 56.849609 67.255859 C 57.034646 65.067558 57.684731 62.980373 58.724609 61.091797 C 59.746135 59.235333 61.153417 57.557781 62.890625 56.138672 C 66.294694 53.364683 70.629466 51.863538 75.162109 51.857422 C 79.699338 51.851322 84.030372 53.338701 87.4375 56.103516 C 89.171648 57.516508 90.576129 59.189565 91.597656 61.042969 C 92.642122 62.930017 93.28974 65.008706 93.482422 67.203125 C 93.491822 67.311878 93.498789 67.42065 93.505859 67.529297 C 93.549416 66.863829 93.549761 66.192355 93.505859 65.519531 C 93.555627 64.752426 93.549323 63.979375 93.482422 63.203125 C 93.28974 61.008706 92.642122 58.930017 91.597656 57.042969 C 90.576129 55.189565 89.171648 53.516508 87.4375 52.103516 C 84.030372 49.338701 79.699338 47.851322 75.162109 47.857422 z M 45.433594 66.328125 L 28.4375 80.236328 C 25.46926 82.634133 21.475548 82.629632 19.597656 80.222656 C 19.160564 79.663473 18.881411 79.028197 18.746094 78.353516 C 18.620206 79.034478 18.617231 79.712648 18.746094 80.355469 C 18.488868 81.749466 18.744893 83.131643 19.597656 84.222656 C 21.475548 86.629634 25.46926 86.634135 28.4375 84.236328 L 45.226562 70.498047 L 45.226562 70.496094 C 45.231861 70.400445 45.239407 70.391282 45.246094 70.294922 C 45.222211 70.657572 45.199701 71.02706 45.205078 71.332031 C 45.20891 71.550179 45.225893 71.807313 45.253906 72.09375 C 45.221844 72.525824 45.198661 72.968031 45.205078 73.332031 C 45.224958 74.463647 45.585606 76.663555 46.126953 78.380859 C 47.264701 82.015795 49.195528 85.378184 51.880859 88.341797 C 54.636534 91.387987 58.029799 93.835082 61.949219 95.572266 C 66.068969 97.396616 70.533293 98.326005 75.169922 98.318359 C 79.798905 98.312259 84.261108 97.363503 88.380859 95.525391 C 92.300278 93.771384 95.692268 91.313344 98.443359 88.265625 C 101.12716 85.28978 103.05255 81.922045 104.19336 78.287109 C 104.76682 76.450525 105.13012 74.587023 105.27539 72.716797 C 105.35102 71.736796 105.36863 70.754481 105.33008 69.773438 C 105.3565 69.10475 105.35654 68.436452 105.33008 67.767578 C 105.31758 68.083841 105.29979 68.40069 105.27539 68.716797 C 105.13012 70.587023 104.76682 72.450525 104.19336 74.287109 C 103.05255 77.922045 101.12716 81.28978 98.443359 84.265625 C 95.692268 87.313344 92.300278 89.771384 88.380859 91.525391 C 84.261108 93.363503 79.798905 94.312259 75.169922 94.318359 C 70.533293 94.325959 66.068969 93.396616 61.949219 91.572266 C 58.029799 89.835082 54.636534 87.387987 51.880859 84.341797 C 49.195528 81.378184 47.264701 78.015795 46.126953 74.380859 C 45.694028 73.007499 45.381676 71.331973 45.261719 70.134766 C 45.329222 69.276962 45.432618 68.335521 45.433594 68.328125 L 45.226562 68.496094 C 45.283657 67.465472 45.432423 66.337 45.433594 66.328125 z " /><path
       d="m 52.755379,62.966017 c 0.315916,-5.635754 3.075712,-10.60094 7.239252,-14.120679 4.083068,-3.457153 9.57882,-5.570188 15.575269,-5.570188 5.990489,0 11.48624,2.113035 15.57229,5.570188 4.160558,3.519739 6.920359,8.484925 7.239249,14.114718 0.31592,5.790731 -2.011727,11.17018 -6.094797,15.157825 -4.163538,4.056194 -10.085479,6.601375 -16.716742,6.601375 -6.631262,0 -12.565124,-2.545181 -16.725682,-6.601375 -4.08605,-3.987645 -6.407736,-9.367094 -6.088839,-15.151864 z"
       style="clip-rule:evenodd;fill:#ffffff;fill-rule:nonzero;stroke-width:2.98032;stroke-linejoin:round;stroke-miterlimit:2;filter:url(#filter3184)"
       id="path458" /><path
       d="m 63.846682,63.475439 c 0.162097,-2.891741 1.578167,-5.439406 3.714503,-7.245406 2.095047,-1.773885 4.91495,-2.858096 7.991763,-2.858096 3.073756,0 5.893659,1.084211 7.990235,2.858096 2.134807,1.806 3.550875,4.353665 3.714503,7.242346 0.162099,2.97126 -1.032231,5.731486 -3.127278,7.777571 -2.136336,2.081257 -5.174919,3.387203 -8.57746,3.387203 -3.40254,0 -6.447239,-1.305946 -8.582047,-3.387203 -2.096576,-2.046085 -3.287847,-4.806311 -3.124219,-7.774511 z"
       style="clip-rule:evenodd;fill:#306daa;fill-rule:nonzero;stroke-width:1.52923;stroke-linejoin:round;stroke-miterlimit:2;filter:url(#filter3184);fill-opacity:1"
       id="path462" /><path
       d="m 45.20535,69.332319 c 0.01988,1.131616 0.380779,3.330623 0.922126,5.047927 1.137748,3.634936 3.067638,6.997672 5.752969,9.961285 2.755675,3.04619 6.14904,5.492929 10.06846,7.230113 4.11975,1.82435 8.583577,2.75411 13.220206,2.746464 4.628983,-0.0061 9.09281,-0.954228 13.212561,-2.79234 3.919419,-1.754007 7.309726,-4.21145 10.060817,-7.259169 2.683801,-2.975845 4.610631,-6.344698 5.751441,-9.979634 0.57346,-1.836584 0.93589,-3.700693 1.08116,-5.570919 0.14222,-1.8427 0.0826,-3.688457 -0.17892,-5.532687 -0.51076,-3.593647 -1.75403,-6.96556 -3.66862,-10.039275 -1.750971,-2.824454 -4.00812,-5.29719 -6.691922,-7.378445 l 0.0061,-0.0046 L 67.657509,24.96529 c -0.02447,-0.01835 -0.04435,-0.03823 -0.07035,-0.05505 -1.776966,-1.364058 -4.765085,-1.359471 -6.719443,0.0076 -1.975767,1.382407 -2.202093,3.668579 -0.443477,5.110625 l -0.0076,0.0076 11.296433,9.185975 -34.430654,0.0367 h -0.04587 c -2.845898,0.0031 -5.581686,1.870226 -6.123044,4.2298 -0.556635,2.40392 1.376318,4.398011 4.335369,4.408716 l -0.0045,0.0107 17.451595,-0.03364 -31.141267,23.903107 c -0.03976,0.02905 -0.08259,0.05964 -0.119284,0.08869 -2.937658,2.249471 -3.887301,5.989922 -2.036933,8.357143 1.877892,2.406978 5.870714,2.411565 8.838954,0.01376 L 45.433246,66.327418 c 0,0 -0.247736,1.877872 -0.227855,3.004901 z m 43.673322,6.288117 c -3.50194,3.567652 -8.404657,5.590799 -13.709561,5.601503 -5.31255,0.0092 -10.215267,-1.995621 -13.717206,-5.557154 -1.71121,-1.735657 -2.968239,-3.732806 -3.74356,-5.859939 -0.760027,-2.090433 -1.055168,-4.30932 -0.859427,-6.548086 0.185037,-2.188301 0.836489,-4.275675 1.876367,-6.164251 1.021526,-1.856464 2.428419,-3.534008 4.165627,-4.953117 3.404069,-2.773989 7.73791,-4.275676 12.270553,-4.281792 4.537229,-0.0061 8.868013,1.481805 12.275141,4.24662 1.734148,1.412992 3.139512,3.08442 4.161039,4.937824 1.044466,1.887048 1.691331,3.966776 1.884013,6.161195 0.192684,2.235706 -0.102458,4.451534 -0.862487,6.543497 -0.77685,2.133249 -2.029289,4.1304 -3.740499,5.8737 z"
       style="clip-rule:evenodd;fill:#f98107;fill-rule:nonzero;stroke-width:1.52923;stroke-linejoin:round;stroke-miterlimit:2;filter:url(#filter3184);fill-opacity:1"
       id="path464" /><path
       d="m 45.20535,69.332319 c 0.01988,1.131616 0.380779,3.330623 0.922126,5.047927 1.137748,3.634936 3.067638,6.997672 5.752969,9.961285 2.755675,3.04619 6.14904,5.492929 10.06846,7.230113 4.11975,1.82435 8.583577,2.75411 13.220206,2.746464 4.628983,-0.0061 9.09281,-0.954228 13.212561,-2.79234 3.919419,-1.754007 7.309726,-4.21145 10.060817,-7.259169 2.683801,-2.975845 4.610631,-6.344698 5.751441,-9.979634 0.57346,-1.836584 0.93589,-3.700693 1.08116,-5.570919 0.14222,-1.8427 0.0826,-3.688457 -0.17892,-5.532687 -0.51076,-3.593647 -1.75403,-6.96556 -3.66862,-10.039275 -1.750971,-2.824454 -4.00812,-5.29719 -6.691922,-7.378445 l 0.0061,-0.0046 L 67.657509,24.96529 c -0.02447,-0.01835 -0.04435,-0.03823 -0.07035,-0.05505 -1.776966,-1.364058 -4.765085,-1.359471 -6.719443,0.0076 -1.975767,1.382407 -2.202093,3.668579 -0.443477,5.110625 l -0.0076,0.0076 11.296433,9.185975 -34.430654,0.0367 h -0.04587 c -2.845898,0.0031 -5.581686,1.870226 -6.123044,4.2298 -0.556635,2.40392 1.376318,4.398011 4.335369,4.408716 l -0.0045,0.0107 17.451595,-0.03364 -31.141267,23.903107 c -0.03976,0.02905 -0.08259,0.05964 -0.119284,0.08869 -2.937658,2.249471 -3.887301,5.989922 -2.036933,8.357143 1.877892,2.406978 5.870714,2.411565 8.838954,0.01376 L 45.433246,66.327418 c 0,0 -0.247736,1.877872 -0.227855,3.004901 z m 43.673322,6.288117 c -3.50194,3.567652 -8.404657,5.590799 -13.709561,5.601503 -5.31255,0.0092 -10.215267,-1.995621 -13.717206,-5.557154 -1.71121,-1.735657 -2.968239,-3.732806 -3.74356,-5.859939 -0.760027,-2.090433 -1.055168,-4.30932 -0.859427,-6.548086 0.185037,-2.188301 0.836489,-4.275675 1.876367,-6.164251 1.021526,-1.856464 2.428419,-3.534008 4.165627,-4.953117 3.404069,-2.773989 7.73791,-4.275676 12.270553,-4.281792 4.537229,-0.0061 8.868013,1.481805 12.275141,4.24662 1.734148,1.412992 3.139512,3.08442 4.161039,4.937824 1.044466,1.887048 1.691331,3.966776 1.884013,6.161195 0.192684,2.235706 -0.102458,4.451534 -0.862487,6.543497 -0.77685,2.133249 -2.029289,4.1304 -3.740499,5.8737 z"
       style="clip-rule:evenodd;fill:#f98107;fill-rule:nonzero;stroke-width:1.52923;stroke-linejoin:round;stroke-miterlimit:2;fill-opacity:1;filter:url(#filter2692)"
       id="path353" /><path
       d="m 45.20535,69.332319 c 0.01988,1.131616 0.380779,3.330623 0.922126,5.047927 1.137748,3.634936 3.067638,6.997672 5.752969,9.961285 2.755675,3.04619 6.14904,5.492929 10.06846,7.230113 4.11975,1.82435 8.583577,2.75411 13.220206,2.746464 4.628983,-0.0061 9.09281,-0.954228 13.212561,-2.79234 3.919419,-1.754007 7.309726,-4.21145 10.060817,-7.259169 2.683801,-2.975845 4.610631,-6.344698 5.751441,-9.979634 0.57346,-1.836584 0.93589,-3.700693 1.08116,-5.570919 0.14222,-1.8427 0.0826,-3.688457 -0.17892,-5.532687 -0.51076,-3.593647 -1.75403,-6.96556 -3.66862,-10.039275 -1.750971,-2.824454 -4.00812,-5.29719 -6.691922,-7.378445 l 0.0061,-0.0046 L 67.657509,24.96529 c -0.02447,-0.01835 -0.04435,-0.03823 -0.07035,-0.05505 -1.776966,-1.364058 -4.765085,-1.359471 -6.719443,0.0076 -1.975767,1.382407 -2.202093,3.668579 -0.443477,5.110625 l -0.0076,0.0076 11.296433,9.185975 -34.430654,0.0367 h -0.04587 c -2.845898,0.0031 -5.581686,1.870226 -6.123044,4.2298 -0.556635,2.40392 1.376318,4.398011 4.335369,4.408716 l -0.0045,0.0107 17.451595,-0.03364 -31.141267,23.903107 c -0.03976,0.02905 -0.08259,0.05964 -0.119284,0.08869 -2.937658,2.249471 -3.887301,5.989922 -2.036933,8.357143 1.877892,2.406978 5.870714,2.411565 8.838954,0.01376 L 45.433246,66.327418 c 0,0 -0.247736,1.877872 -0.227855,3.004901 z m 43.673322,6.288117 c -3.50194,3.567652 -8.404657,5.590799 -13.709561,5.601503 -5.31255,0.0092 -10.215267,-1.995621 -13.717206,-5.557154 -1.71121,-1.735657 -2.968239,-3.732806 -3.74356,-5.859939 -0.760027,-2.090433 -1.055168,-4.30932 -0.859427,-6.548086 0.185037,-2.188301 0.836489,-4.275675 1.876367,-6.164251 1.021526,-1.856464 2.428419,-3.534008 4.165627,-4.953117 3.404069,-2.773989 7.73791,-4.275676 12.270553,-4.281792 4.537229,-0.0061 8.868013,1.481805 12.275141,4.24662 1.734148,1.412992 3.139512,3.08442 4.161039,4.937824 1.044466,1.887048 1.691331,3.966776 1.884013,6.161195 0.192684,2.235706 -0.102458,4.451534 -0.862487,6.543497 -0.77685,2.133249 -2.029289,4.1304 -3.740499,5.8737 z"
       style="clip-rule:evenodd;fill:#f98107;fill-rule:nonzero;stroke-width:1.52923;stroke-linejoin:round;stroke-miterlimit:2;fill-opacity:1"
       id="path1" /><path
       id="path2"
       style="clip-rule:evenodd;fill:#ffffff;fill-rule:nonzero;stroke-width:1.52923;stroke-linejoin:round;stroke-miterlimit:2;fill-opacity:1"
       d="M 64.294922 23.890625 C 63.081477 23.892148 61.844366 24.234433 60.867188 24.917969 C 59.432267 25.921956 58.921084 27.40164 59.421875 28.689453 C 59.667566 28.035514 60.152395 27.418096 60.867188 26.917969 C 62.821545 25.550898 65.810925 25.546098 67.587891 26.910156 C 67.613891 26.926976 67.633733 26.946494 67.658203 26.964844 L 94.742188 47.761719 L 94.736328 47.765625 C 97.42013 49.84688 99.676779 52.320077 101.42773 55.144531 C 103.34232 58.218246 104.58494 61.589947 105.0957 65.183594 C 105.21782 66.04479 105.296 66.906183 105.33008 67.767578 C 105.39053 66.240227 105.31236 64.711455 105.0957 63.183594 C 104.58494 59.589947 103.34232 56.218246 101.42773 53.144531 C 99.676779 50.320077 97.42013 47.84688 94.736328 45.765625 L 94.742188 45.761719 L 67.658203 24.964844 C 67.633733 24.946494 67.613891 24.926976 67.587891 24.910156 C 66.699408 24.228127 65.508367 23.889102 64.294922 23.890625 z M 71.712891 39.222656 L 69.255859 39.224609 L 37.283203 39.257812 L 37.236328 39.257812 C 34.39043 39.260914 31.654639 41.128707 31.113281 43.488281 C 30.96607 44.124038 30.993994 44.731929 31.167969 45.28125 C 31.817411 43.020797 34.474518 41.260821 37.236328 41.257812 L 37.283203 41.257812 L 69.710938 41.224609 L 71.712891 39.222656 z M 52.896484 47.875 L 50.285156 49.880859 L 21.753906 71.777344 C 21.714146 71.806394 21.67146 71.836184 21.634766 71.865234 C 19.391039 73.583337 18.308567 76.172031 18.746094 78.353516 C 19.047424 76.723532 20.051659 75.077476 21.634766 73.865234 C 21.67146 73.836184 21.714146 73.806394 21.753906 73.777344 L 52.896484 49.875 L 52.896484 47.875 z M 93.505859 65.529297 C 93.411665 66.968494 93.114263 68.383281 92.619141 69.746094 C 91.842291 71.879343 90.590116 73.877794 88.878906 75.621094 C 85.376966 79.188746 80.474826 81.211952 75.169922 81.222656 C 69.857372 81.231856 64.953111 79.225595 61.451172 75.664062 C 59.739962 73.928405 58.484305 71.931821 57.708984 69.804688 C 57.21528 68.446769 56.916514 67.03422 56.822266 65.597656 C 56.683819 67.720353 56.987619 69.820592 57.708984 71.804688 C 58.484305 73.931821 59.739962 75.928405 61.451172 77.664062 C 64.953111 81.225595 69.857372 83.231856 75.169922 83.222656 C 80.474826 83.211952 85.376966 81.188746 88.878906 77.621094 C 90.590116 75.877794 91.842291 73.879343 92.619141 71.746094 C 93.342199 69.755892 93.644071 67.654176 93.505859 65.529297 z " /><path
       id="path3"
       style="clip-rule:evenodd;fill:#b25900;fill-rule:nonzero;stroke-width:1.52923;stroke-linejoin:round;stroke-miterlimit:2;fill-opacity:1"
       d="M 59.421875 26.689453 C 58.988448 27.843076 59.301444 29.108954 60.423828 30.029297 L 60.416016 30.035156 L 69.255859 37.224609 L 71.712891 39.222656 L 71.712891 37.222656 L 60.416016 28.035156 L 60.423828 28.029297 C 59.942425 27.634551 59.610632 27.174852 59.421875 26.689453 z M 31.167969 43.28125 C 31.148195 43.350073 31.129277 43.418563 31.113281 43.488281 C 30.556646 45.892201 32.490168 47.885779 35.449219 47.896484 L 35.445312 47.908203 L 50.285156 47.880859 L 52.896484 47.875 L 52.896484 45.875 L 35.445312 45.908203 L 35.449219 45.896484 C 33.272738 45.88861 31.651825 44.809018 31.167969 43.28125 z M 75.162109 45.857422 C 70.629466 45.863538 66.294694 47.364683 62.890625 50.138672 C 61.153417 51.557781 59.746135 53.235333 58.724609 55.091797 C 57.684731 56.980373 57.034646 59.067558 56.849609 61.255859 C 56.781019 62.040351 56.771424 62.822718 56.822266 63.597656 C 56.829686 63.48389 56.839652 63.369743 56.849609 63.255859 C 57.034646 61.067558 57.684731 58.980373 58.724609 57.091797 C 59.746135 55.235333 61.153417 53.557781 62.890625 52.138672 C 66.294694 49.364683 70.629466 47.863538 75.162109 47.857422 C 79.699338 47.851322 84.030372 49.338701 87.4375 52.103516 C 89.171648 53.516508 90.576129 55.189565 91.597656 57.042969 C 92.642122 58.930017 93.28974 61.008706 93.482422 63.203125 C 93.491795 63.311878 93.498792 63.42065 93.505859 63.529297 C 93.556256 62.759278 93.549582 61.982377 93.482422 61.203125 C 93.28974 59.008706 92.642122 56.930017 91.597656 55.042969 C 90.576129 53.189565 89.171648 51.516508 87.4375 50.103516 C 84.030372 47.338701 79.699338 45.851322 75.162109 45.857422 z M 45.433594 64.328125 L 28.4375 78.236328 C 25.46926 80.634133 21.475548 80.629634 19.597656 78.222656 C 19.160564 77.663473 18.881411 77.028197 18.746094 76.353516 C 18.488267 77.748176 18.744453 79.131133 19.597656 80.222656 C 21.475548 82.629634 25.46926 82.634133 28.4375 80.236328 L 45.226562 66.498047 L 45.226562 66.496094 C 45.283887 65.461396 45.433594 64.328125 45.433594 64.328125 z M 105.33008 65.767578 C 105.31756 66.083841 105.29979 66.40069 105.27539 66.716797 C 105.13012 68.587023 104.76682 70.450525 104.19336 72.287109 C 103.05255 75.922045 101.12716 79.28978 98.443359 82.265625 C 95.692268 85.313344 92.300278 87.771384 88.380859 89.525391 C 84.261108 91.363503 79.798905 92.312259 75.169922 92.318359 C 70.533293 92.326005 66.068969 91.396616 61.949219 89.572266 C 58.029799 87.835082 54.636534 85.387987 51.880859 82.341797 C 49.195528 79.378184 47.264701 76.015795 46.126953 72.380859 C 45.689074 70.991784 45.370685 69.287483 45.253906 68.087891 C 45.221589 68.522058 45.198625 68.966185 45.205078 69.332031 C 45.224958 70.463647 45.585606 72.663555 46.126953 74.380859 C 47.264701 78.015795 49.195528 81.378184 51.880859 84.341797 C 54.636534 87.387987 58.029799 89.835082 61.949219 91.572266 C 66.068969 93.396616 70.533293 94.326005 75.169922 94.318359 C 79.798905 94.312259 84.261108 93.363503 88.380859 91.525391 C 92.300278 89.771384 95.692268 87.313344 98.443359 84.265625 C 101.12716 81.28978 103.05255 77.922045 104.19336 74.287109 C 104.76682 72.450525 105.13012 70.587023 105.27539 68.716797 C 105.3512 67.734579 105.36897 66.750839 105.33008 65.767578 z " /><path
       d="m 63.846682,63.475439 c 0.162097,-2.891741 1.578167,-5.439406 3.714503,-7.245406 2.095047,-1.773885 4.91495,-2.858096 7.991763,-2.858096 3.073756,0 5.893659,1.084211 7.990235,2.858096 2.134807,1.806 3.550875,4.353665 3.714503,7.242346 0.162099,2.97126 -1.032231,5.731486 -3.127278,7.777571 -2.136336,2.081257 -5.174919,3.387203 -8.57746,3.387203 -3.40254,0 -6.447239,-1.305946 -8.582047,-3.387203 -2.096576,-2.046085 -3.287847,-4.806311 -3.124219,-7.774511 z"
       style="clip-rule:evenodd;fill:#306daa;fill-rule:nonzero;stroke-width:1.52923;stroke-linejoin:round;stroke-miterlimit:2;fill-opacity:1"
       id="path4" /><path
       id="path6"
       style="clip-rule:evenodd;fill:#183756;fill-opacity:1;fill-rule:nonzero;stroke-width:1.52923;stroke-linejoin:round;stroke-miterlimit:2"
       d="M 87.220703 63.009766 C 86.974263 65.387377 85.859254 67.561999 84.130859 69.25 C 81.994523 71.331257 78.955275 72.636719 75.552734 72.636719 C 72.150194 72.636719 69.105511 71.331257 66.970703 69.25 C 65.241949 67.562879 64.128481 65.390069 63.882812 63.015625 C 63.867113 63.167846 63.856302 63.32037 63.847656 63.474609 C 63.684028 66.442809 64.874127 69.203915 66.970703 71.25 C 69.105511 73.331257 72.150194 74.636719 75.552734 74.636719 C 78.955275 74.636719 81.994523 73.331257 84.130859 71.25 C 86.225906 69.203915 87.419911 66.443916 87.257812 63.472656 C 87.249031 63.317622 87.236618 63.162774 87.220703 63.009766 z " /><path
       id="path11"
       style="clip-rule:evenodd;fill:#ffffff;fill-opacity:1;fill-rule:nonzero;stroke-width:1.52923;stroke-linejoin:round;stroke-miterlimit:2"
       d="M 75.552734 51.371094 C 72.475921 51.371094 69.655594 52.456584 67.560547 54.230469 C 65.424211 56.036469 64.009753 58.582868 63.847656 61.474609 C 63.818949 61.995348 63.830542 62.510422 63.882812 63.015625 C 64.16146 60.31394 65.538158 57.940141 67.560547 56.230469 C 69.655594 54.456584 72.475921 53.371094 75.552734 53.371094 C 78.62649 53.371094 81.446393 54.456584 83.542969 56.230469 C 85.563201 57.939541 86.940091 60.311851 87.220703 63.009766 C 87.272982 62.505392 87.286181 61.992654 87.257812 61.472656 C 87.094184 58.583975 85.677776 56.036469 83.542969 54.230469 C 81.446393 52.456584 78.62649 51.371094 75.552734 51.371094 z " /></g></svg>
