<?xml version="1.0" encoding="UTF-8" standalone="no"?>
<!-- Created with Inkscape (http://www.inkscape.org/) -->

<svg
   width="128"
   height="128"
   viewBox="0 0 128 128"
   version="1.1"
   id="svg5"
   inkscape:version="1.4.3 (0d15f75042, 2025-12-25)"
   sodipodi:docname="com.slack.Slack.svg"
   inkscape:export-filename="/home/retro/.icons/skeuowaita/scalable/apps/skeuowaita.png"
   inkscape:export-xdpi="1536"
   inkscape:export-ydpi="1536"
   xml:space="preserve"
   xmlns:inkscape="http://www.inkscape.org/namespaces/inkscape"
   xmlns:sodipodi="http://sodipodi.sourceforge.net/DTD/sodipodi-0.dtd"
   xmlns:xlink="http://www.w3.org/1999/xlink"
   xmlns="http://www.w3.org/2000/svg"
   xmlns:svg="http://www.w3.org/2000/svg"><sodipodi:namedview
     id="namedview7"
     pagecolor="#ffffff"
     bordercolor="#666666"
     borderopacity="1"
     inkscape:pageshadow="2"
     inkscape:pageopacity="0.0"
     inkscape:pagecheckerboard="true"
     inkscape:document-units="px"
     showgrid="false"
     inkscape:showpageshadow="false"
     showborder="true"
     inkscape:snap-page="true"
     inkscape:zoom="8.1640788"
     inkscape:cx="69.450579"
     inkscape:cy="80.658212"
     inkscape:window-width="1728"
     inkscape:window-height="1043"
     inkscape:window-x="0"
     inkscape:window-y="0"
     inkscape:window-maximized="1"
     inkscape:current-layer="layer2"
     inkscape:snap-bbox="true"
     inkscape:snap-bbox-midpoints="true"
     inkscape:snap-bbox-edge-midpoints="true"
     inkscape:bbox-nodes="true"
     inkscape:bbox-paths="true"
     inkscape:snap-intersection-paths="true"
     inkscape:object-paths="true"
     inkscape:snap-smooth-nodes="true"
     inkscape:snap-midpoints="true"
     inkscape:deskcolor="#d1d1d1" /><defs
     id="defs2"><linearGradient
       inkscape:collect="always"
       id="linearGradient1668"><stop
         style="stop-color:#ffffff;stop-opacity:1;"
         offset="0"
         id="stop1664" /><stop
         style="stop-color:#d6f3ff;stop-opacity:1;"
         offset="1"
         id="stop1666" /></linearGradient><linearGradient
       inkscape:collect="always"
       id="linearGradient1522"><stop
         style="stop-color:#009dff;stop-opacity:1;"
         offset="0"
         id="stop1518" /><stop
         style="stop-color:#009dff;stop-opacity:1;"
         offset="0.34999999"
         id="stop1617" /><stop
         style="stop-color:#4dbbff;stop-opacity:1;"
         offset="0.5"
         id="stop1613" /><stop
         style="stop-color:#009dff;stop-opacity:1;"
         offset="0.64999998"
         id="stop1615" /><stop
         style="stop-color:#009dff;stop-opacity:1"
         offset="1"
         id="stop1520" /></linearGradient><linearGradient
       y2="236"
       x2="96"
       y1="236"
       x1="32"
       gradientTransform="translate(604.81684,170.58641)"
       gradientUnits="userSpaceOnUse"
       id="linearGradient1099"
       xlink:href="#linearGradient1036" /><linearGradient
       id="linearGradient1036"><stop
         id="stop1032"
         offset="0"
         style="stop-color:#d5d3cf;stop-opacity:1;" /><stop
         id="stop1034"
         offset="1"
         style="stop-color:#f6f5f4;stop-opacity:1" /></linearGradient><radialGradient
       r="32"
       fy="-76"
       fx="-244"
       cy="-76"
       cx="-244"
       gradientTransform="matrix(0.88333331,0,0,0.88333331,-460.35018,463.11973)"
       gradientUnits="userSpaceOnUse"
       id="radialGradient1103"
       xlink:href="#linearGradient1069" /><linearGradient
       id="linearGradient1069"><stop
         id="stop1065"
         offset="0"
         style="stop-color:#d5d3cf;stop-opacity:1" /><stop
         id="stop1067-1"
         offset="1"
         style="stop-color:#949390;stop-opacity:1" /></linearGradient><linearGradient
       gradientUnits="userSpaceOnUse"
       y2="232"
       x2="64"
       y1="262.5"
       x1="64"
       id="linearGradient1027"
       xlink:href="#linearGradient1025"
       gradientTransform="translate(-470.5864,432.81685)" /><linearGradient
       id="linearGradient1025"><stop
         id="stop1021"
         offset="0"
         style="stop-color:#9a9996;stop-opacity:1" /><stop
         id="stop1023"
         offset="1"
         style="stop-color:#77767b;stop-opacity:1" /></linearGradient><inkscape:path-effect
       effect="spiro"
       id="path-effect35304-9"
       is_visible="true" /><clipPath
       clipPathUnits="userSpaceOnUse"
       id="clipPath1609-7"><path
         sodipodi:nodetypes="cccccc"
         inkscape:connector-curvature="0"
         id="path1611-5"
         d="m 252,116 28,-28 v -8 h -36 v 36 z"
         style="fill:#e74747;stroke:none;stroke-width:0.25px;stroke-linecap:butt;stroke-linejoin:miter;stroke-opacity:1" /></clipPath><radialGradient
       r="32"
       fy="-76"
       fx="-244"
       cy="-76"
       cx="-244"
       gradientTransform="matrix(0.88333331,0,0,0.88333331,-460.35018,463.11973)"
       gradientUnits="userSpaceOnUse"
       id="radialGradient1103-5"
       xlink:href="#linearGradient1069" /><inkscape:path-effect
       effect="spiro"
       id="path-effect35304-9-2"
       is_visible="true" /><clipPath
       clipPathUnits="userSpaceOnUse"
       id="clipPath1609-7-7"><path
         sodipodi:nodetypes="cccccc"
         inkscape:connector-curvature="0"
         id="path1611-5-0"
         d="m 252,116 28,-28 v -8 h -36 v 36 z"
         style="fill:#e74747;stroke:none;stroke-width:0.25px;stroke-linecap:butt;stroke-linejoin:miter;stroke-opacity:1" /></clipPath><clipPath
       clipPathUnits="userSpaceOnUse"
       id="clipPath744"><rect
         style="fill:#1e88e5;fill-opacity:1;stroke-width:0.264583"
         id="rect746"
         width="541.86664"
         height="541.86664"
         x="0"
         y="1.5987212e-14"
         rx="79.375"
         ry="79.375" /></clipPath><clipPath
       clipPathUnits="userSpaceOnUse"
       id="clipPath62"><rect
         style="fill:#1e88e5;fill-opacity:1;stroke-width:0.264583"
         id="rect64"
         width="541.86664"
         height="541.86664"
         x="2.2507105e-05"
         y="-0.42205024"
         rx="79.375"
         ry="79.375" /></clipPath><radialGradient
       r="32"
       fy="-76"
       fx="-244"
       cy="-76"
       cx="-244"
       gradientTransform="matrix(0.88333331,0,0,0.88333331,-460.35018,463.11973)"
       gradientUnits="userSpaceOnUse"
       id="radialGradient1103-6"
       xlink:href="#linearGradient1069" /><inkscape:path-effect
       effect="spiro"
       id="path-effect35304-9-20"
       is_visible="true" /><clipPath
       clipPathUnits="userSpaceOnUse"
       id="clipPath1609-7-2"><path
         sodipodi:nodetypes="cccccc"
         inkscape:connector-curvature="0"
         id="path1611-5-3"
         d="m 252,116 28,-28 v -8 h -36 v 36 z"
         style="fill:#e74747;stroke:none;stroke-width:0.25px;stroke-linecap:butt;stroke-linejoin:miter;stroke-opacity:1" /></clipPath><clipPath
       clipPathUnits="userSpaceOnUse"
       id="clipPath961"><rect
         style="fill:#00c853;stroke:none;stroke-width:0.529037"
         id="rect963"
         width="541.86664"
         height="541.86664"
         x="1.4210855e-14"
         y="2.717972e-05"
         rx="79.375"
         ry="79.375" /></clipPath><radialGradient
       r="32"
       fy="-76"
       fx="-244"
       cy="-76"
       cx="-244"
       gradientTransform="matrix(0.88333331,0,0,0.88333331,-460.35018,463.11973)"
       gradientUnits="userSpaceOnUse"
       id="radialGradient1103-56"
       xlink:href="#linearGradient1069" /><inkscape:path-effect
       effect="spiro"
       id="path-effect35304-9-7"
       is_visible="true" /><clipPath
       clipPathUnits="userSpaceOnUse"
       id="clipPath1440"><circle
         style="display:inline;opacity:1;vector-effect:none;fill:none;fill-opacity:1;stroke:#000000;stroke-width:2;stroke-linecap:butt;stroke-linejoin:miter;stroke-miterlimit:4;stroke-dasharray:none;stroke-dashoffset:0;stroke-opacity:1;marker:none;marker-start:none;marker-mid:none;marker-end:none;paint-order:normal;enable-background:new"
         id="circle1442"
         cx="-134.35028"
         cy="193.74727"
         r="24"
         transform="rotate(-45)" /></clipPath><clipPath
       clipPathUnits="userSpaceOnUse"
       id="clipPath1430"><circle
         style="display:inline;opacity:1;vector-effect:none;fill:none;fill-opacity:1;stroke:#000000;stroke-width:2;stroke-linecap:butt;stroke-linejoin:miter;stroke-miterlimit:4;stroke-dasharray:none;stroke-dashoffset:0;stroke-opacity:1;marker:none;marker-start:none;marker-mid:none;marker-end:none;paint-order:normal;enable-background:new"
         id="circle1432"
         cx="12"
         cy="232"
         r="24" /></clipPath><clipPath
       clipPathUnits="userSpaceOnUse"
       id="clipPath1440-9"><circle
         style="display:inline;opacity:1;vector-effect:none;fill:none;fill-opacity:1;stroke:#000000;stroke-width:2;stroke-linecap:butt;stroke-linejoin:miter;stroke-miterlimit:4;stroke-dasharray:none;stroke-dashoffset:0;stroke-opacity:1;marker:none;marker-start:none;marker-mid:none;marker-end:none;paint-order:normal;enable-background:new"
         id="circle1442-5"
         cx="-134.35028"
         cy="193.74727"
         r="24"
         transform="rotate(-45)" /></clipPath><clipPath
       clipPathUnits="userSpaceOnUse"
       id="clipPath1430-1"><circle
         style="display:inline;opacity:1;vector-effect:none;fill:none;fill-opacity:1;stroke:#000000;stroke-width:2;stroke-linecap:butt;stroke-linejoin:miter;stroke-miterlimit:4;stroke-dasharray:none;stroke-dashoffset:0;stroke-opacity:1;marker:none;marker-start:none;marker-mid:none;marker-end:none;paint-order:normal;enable-background:new"
         id="circle1432-8"
         cx="12"
         cy="232"
         r="24" /></clipPath><clipPath
       clipPathUnits="userSpaceOnUse"
       id="clipPath2024"><rect
         style="opacity:1;vector-effect:none;fill:#63452c;fill-opacity:1;stroke:none;stroke-width:4;stroke-linecap:round;stroke-linejoin:round;stroke-miterlimit:4;stroke-dasharray:none;stroke-dashoffset:0;stroke-opacity:1"
         id="rect2026"
         width="74"
         height="98"
         x="6"
         y="196" /></clipPath><linearGradient
       id="linearGradient914"
       inkscape:collect="always"><stop
         id="stop910"
         offset="0"
         style="stop-color:#f6f5f4;stop-opacity:0.43700787" /><stop
         id="stop912"
         offset="1"
         style="stop-color:#deddda;stop-opacity:0;" /></linearGradient><radialGradient
       gradientTransform="matrix(2.6086955,0,0,1.8410361,-102.95652,-748.94671)"
       gradientUnits="userSpaceOnUse"
       r="46"
       fy="296"
       fx="64.000008"
       cy="296"
       cx="64.000008"
       id="radialGradient916"
       xlink:href="#linearGradient914"
       inkscape:collect="always" /><clipPath
       clipPathUnits="userSpaceOnUse"
       id="clipPath11543"><rect
         style="fill:#f0c04e;fill-opacity:1;stroke:none;stroke-width:0.529037"
         id="rect11545"
         width="541.86664"
         height="541.86664"
         x="1.4746095e-06"
         y="6.4330168e-05"
         rx="79.375"
         ry="79.375" /></clipPath><style
       id="style374">.cls-1{fill:url(#linear-gradient);}.cls-2{opacity:0.35;fill:url(#radial-gradient);}.cls-2,.cls-4{isolation:isolate;}.cls-3{fill:url(#linear-gradient-2);}.cls-4{opacity:0.41;fill:url(#radial-gradient-2);}.cls-5{fill:url(#radial-gradient-3);}.cls-6{fill:url(#radial-gradient-4);}</style><linearGradient
       id="linear-gradient"
       x1="63.33"
       y1="84.03"
       x2="241.67"
       y2="84.03"
       gradientTransform="matrix(1,0,0,-1,0,266)"
       gradientUnits="userSpaceOnUse"><stop
         offset="0"
         stop-color="#0c59a4"
         id="stop376" /><stop
         offset="1"
         stop-color="#114a8b"
         id="stop378" /></linearGradient><radialGradient
       id="radial-gradient"
       cx="161.83"
       cy="68.91"
       r="95.38"
       gradientTransform="matrix(1,0,0,-0.95,0,248.84)"
       gradientUnits="userSpaceOnUse"><stop
         offset="0.72"
         stop-opacity="0"
         id="stop381" /><stop
         offset="0.95"
         stop-opacity="0.53"
         id="stop383" /><stop
         offset="1"
         id="stop385" /></radialGradient><linearGradient
       id="linear-gradient-2"
       x1="157.35"
       y1="161.39"
       x2="45.96"
       y2="40.06"
       gradientTransform="matrix(1,0,0,-1,0,266)"
       gradientUnits="userSpaceOnUse"><stop
         offset="0"
         stop-color="#1b9de2"
         id="stop388" /><stop
         offset="0.16"
         stop-color="#1595df"
         id="stop390" /><stop
         offset="0.67"
         stop-color="#0680d7"
         id="stop392" /><stop
         offset="1"
         stop-color="#0078d4"
         id="stop394" /></linearGradient><radialGradient
       id="radial-gradient-2"
       cx="-340.29"
       cy="62.99"
       r="143.24"
       gradientTransform="matrix(0.15,-0.99,-0.8,-0.12,176.64,-125.4)"
       gradientUnits="userSpaceOnUse"><stop
         offset="0.76"
         stop-opacity="0"
         id="stop397" /><stop
         offset="0.95"
         stop-opacity="0.5"
         id="stop399" /><stop
         offset="1"
         id="stop401" /></radialGradient><radialGradient
       id="radial-gradient-3"
       cx="113.37"
       cy="570.21"
       r="202.43"
       gradientTransform="matrix(-0.04,1,2.13,0.08,-1179.54,-106.69)"
       gradientUnits="userSpaceOnUse"><stop
         offset="0"
         stop-color="#35c1f1"
         id="stop404" /><stop
         offset="0.11"
         stop-color="#34c1ed"
         id="stop406" /><stop
         offset="0.23"
         stop-color="#2fc2df"
         id="stop408" /><stop
         offset="0.31"
         stop-color="#2bc3d2"
         id="stop410" /><stop
         offset="0.67"
         stop-color="#36c752"
         id="stop412" /></radialGradient><radialGradient
       id="radial-gradient-4"
       cx="376.52"
       cy="567.97"
       r="97.34"
       gradientTransform="matrix(0.28,0.96,0.78,-0.23,-303.76,-148.5)"
       gradientUnits="userSpaceOnUse"><stop
         offset="0"
         stop-color="#66eb6e"
         id="stop415" /><stop
         offset="1"
         stop-color="#66eb6e"
         stop-opacity="0"
         id="stop417" /></radialGradient><clipPath
       clipPathUnits="userSpaceOnUse"
       id="clipPath1260"><rect
         style="fill:#bbdefb;fill-opacity:1;stroke:none;stroke-width:0.529037"
         id="rect1262"
         width="541.86664"
         height="541.86664"
         x="2.9492187e-06"
         y="3.9968629e-05"
         rx="79.375"
         ry="79.375" /></clipPath><clipPath
       clipPathUnits="userSpaceOnUse"
       id="clipPath16285"><rect
         style="fill:#bbdefb;fill-opacity:1;stroke:none;stroke-width:0.529037"
         id="rect16287"
         width="541.86664"
         height="541.86664"
         x="0"
         y="6.4807005e-05"
         rx="79.375"
         ry="79.375" /></clipPath><clipPath
       clipPathUnits="userSpaceOnUse"
       id="clipPath990"><rect
         style="fill:#bbdefb;fill-opacity:1;stroke:none;stroke-width:0.529037"
         id="rect992"
         width="487.67996"
         height="487.67996"
         x="27.093349"
         y="27.093338"
         rx="71.4375"
         ry="71.4375" /></clipPath><linearGradient
       inkscape:collect="always"
       xlink:href="#linearGradient1522"
       id="linearGradient1524"
       x1="9"
       y1="64"
       x2="119"
       y2="64"
       gradientUnits="userSpaceOnUse" /><linearGradient
       inkscape:collect="always"
       xlink:href="#linearGradient1668"
       id="linearGradient1670"
       x1="64.502502"
       y1="5.0022955"
       x2="64.502502"
       y2="114.77119"
       gradientUnits="userSpaceOnUse" /><linearGradient
       id="linear-gradient-3"
       x1="921.62"
       y1="898.72"
       x2="225.61"
       y2="202.72"
       gradientUnits="userSpaceOnUse"
       gradientTransform="matrix(0.08346965,0,0,0.08346965,19.263862,21.260716)"><stop
         offset="0"
         stop-color="#3217ff"
         id="stop1" /><stop
         offset=".26"
         stop-color="#2b38ff"
         id="stop2" /><stop
         offset=".5"
         stop-color="#2455ff"
         id="stop3" /><stop
         offset=".75"
         stop-color="#1d74ff"
         id="stop4" /><stop
         offset="1"
         stop-color="#1792ff"
         id="stop5" /></linearGradient><linearGradient
       id="linear-gradient-2-6"
       x1="551.68"
       y1="880.73"
       x2="438.44"
       y2="238.5"
       gradientUnits="userSpaceOnUse"
       gradientTransform="matrix(0.08346965,0,0,0.08346965,19.263862,21.260716)"><stop
         offset="0"
         stop-color="#0e80ff"
         id="stop6" /><stop
         offset=".13"
         stop-color="#0789ff"
         id="stop7" /><stop
         offset=".25"
         stop-color="#0090ff"
         id="stop8" /><stop
         offset=".38"
         stop-color="#009dff"
         id="stop9" /><stop
         offset=".5"
         stop-color="#0af"
         id="stop10" /><stop
         offset=".62"
         stop-color="#00b7ff"
         id="stop11" /><stop
         offset=".75"
         stop-color="#00c4ff"
         id="stop12" /><stop
         offset=".87"
         stop-color="#21ccff"
         id="stop13" /><stop
         offset="1"
         stop-color="#46d4ff"
         id="stop14" /></linearGradient></defs><g
     inkscape:groupmode="layer"
     id="layer2"
     inkscape:label="Layer 1"><path
       id="circle372"
       style="fill:url(#linearGradient1524);fill-opacity:1;stroke-width:1"
       d="M 64,5 A 55,55 0 0 0 9,60 v 8 a 55,55 0 0 0 55,55 55,55 0 0 0 55,-55 V 60 A 55,55 0 0 0 64,5 Z" /><circle
       style="fill:url(#linearGradient1670);fill-opacity:1;stroke-width:1"
       id="path953"
       cx="64"
       cy="60"
       r="55"
       inkscape:export-filename="/home/retro/.icons/skeuowaita/scalable/apps/skeuwaita.png"
       inkscape:export-xdpi="1536"
       inkscape:export-ydpi="1536" /><text
       xml:space="preserve"
       style="font-style:normal;font-variant:normal;font-weight:normal;font-stretch:normal;font-size:40px;line-height:1.25;font-family:'DejaVu Math TeX Gyre';-inkscape-font-specification:'DejaVu Math TeX Gyre';fill:#000000;fill-opacity:1;stroke:none"
       x="57.326862"
       y="68.239342"
       id="text3441"><tspan
         sodipodi:role="line"
         id="tspan3439"
         x="57.326862"
         y="68.239342" /></text><text
       xml:space="preserve"
       style="font-size:40px;line-height:1.25;font-family:Caladea;-inkscape-font-specification:Caladea"
       x="43.192081"
       y="68.806938"
       id="text13903"><tspan
         sodipodi:role="line"
         id="tspan13901"
         x="43.192081"
         y="68.806938" /></text><circle
       style="fill:#c9f0ff;fill-opacity:1;stroke-width:0.949152"
       id="circle1662"
       cx="64"
       cy="60"
       r="52.203354"
       inkscape:export-filename="/home/retro/.icons/skeuowaita/scalable/apps/skeuwaita.png"
       inkscape:export-xdpi="1536"
       inkscape:export-ydpi="1536" /><path
       id="path1"
       style="fill:#f9f9f9;fill-rule:evenodd;stroke-width:0px"
       d="M 85.755859 44.316406 C 83.682654 44.754419 80.801582 45.693089 79.941406 48.234375 C 79.706943 48.927038 79.805897 49.480155 80.056641 49.927734 C 81.644699 46.180298 87.83688 46.195843 88.001953 45.833984 C 88.103805 45.611518 87.479002 44.863223 85.755859 44.316406 z M 52.800781 50.783203 C 44.215927 51.114578 40.189417 55.078343 40.769531 56.044922 C 40.862006 56.199046 41.237704 56.233422 41.853516 56.210938 C 43.569379 54.747665 47.223195 52.998498 52.800781 52.783203 C 72.032188 52.040323 83.936416 62.590999 90.46875 69.027344 C 98.478917 76.919837 104.43987 89.862788 104.62109 89.841797 L 104.62305 89.841797 L 104.625 89.841797 L 104.625 89.839844 L 104.62695 89.839844 L 104.62891 89.837891 L 104.63086 89.835938 C 104.69314 89.743709 104.6155 88.831351 104.36719 87.419922 C 103.13183 85.130992 97.615119 74.068728 90.46875 67.027344 C 83.936416 60.590999 72.032188 50.040323 52.800781 50.783203 z M 44.015625 62.939453 C 43.865262 62.94394 43.70818 62.952783 43.546875 62.955078 L 43.46875 62.955078 C 36.53743 63.218007 32.415224 63.985874 27.095703 66.097656 C 24.75271 67.028342 21.523265 67.228446 19.683594 65.326172 C 19.663971 65.30588 19.645093 65.286085 19.626953 65.265625 C 19.184707 65.991146 19.077196 66.699092 19.683594 67.326172 C 21.523265 69.228446 24.75271 69.028342 27.095703 68.097656 C 32.415224 65.985874 36.53743 65.218007 43.46875 64.955078 L 43.546875 64.955078 C 44.192096 64.945896 44.748582 64.838593 45.234375 65.285156 C 45.808646 65.813519 47.757801 69.937148 52.101562 72.974609 C 57.032114 76.421905 62.136346 76.226163 62.300781 75.689453 C 62.389427 75.397209 61.828617 75.168749 60.611328 73.988281 C 58.675041 73.935963 55.351188 73.246651 52.101562 70.974609 C 47.757801 67.937148 45.808646 63.813519 45.234375 63.285156 C 44.87003 62.950234 44.466713 62.925993 44.015625 62.939453 z M 58.117188 64.289062 C 57.002766 64.302282 56.615375 65.44293 57.046875 66.955078 C 57.30262 66.413958 57.84173 66.157149 58.640625 66.353516 C 58.689037 66.364366 58.736746 66.375313 58.785156 66.382812 C 71.20681 69.631233 79.446858 76.963346 79.693359 76.882812 L 79.695312 76.880859 L 79.697266 76.880859 L 79.697266 76.878906 L 79.699219 76.876953 C 79.699627 76.876006 79.700845 76.872191 79.701172 76.871094 C 79.731315 76.717712 79.14282 75.432873 77.873047 73.591797 C 74.770088 71.354174 67.905555 66.767913 58.785156 64.382812 C 58.736746 64.375313 58.689037 64.364366 58.640625 64.353516 C 58.452013 64.307155 58.276391 64.287174 58.117188 64.289062 z " /><path
       id="accent"
       d="M 104.61659,87.836109 C 104.51058,87.851133 101.40134,73.647103 93.389919,65.752544 86.857585,59.316199 72.080952,46.741496 52.883768,48.110398 37.861735,49.181314 39.92427,56.392257 40.752289,56.047527 43.104463,55.065924 54.144994,51.930804 65.919223,58.51489 76.329558,64.336064 80.317737,74.091996 79.695054,74.85157 79.562337,75.011832 75.926399,65.770072 59.28589,62.250992 46.388159,59.523204 32.858564,61.755182 27.097489,64.04225 c -2.342993,0.930687 -6.166738,3.469834 -6.907114,0.929018 -0.693633,-2.381389 2.796233,-4.302026 3.207739,-5.880437 0.537544,-2.06337 0.166104,-12.278386 15.010347,-16.654699 5.770257,-1.701112 17.252342,-3.338786 29.780302,0.507495 0.61851,0.135221 1.363894,0.07763 1.84301,-0.219525 1.073419,-0.666088 3.252812,-2.081733 7.608258,-2.467363 8.370337,-0.741211 10.767585,2.876364 10.363592,3.577509 -0.203666,0.353911 -6.688423,-1.709458 -8.060664,2.343828 -0.510834,1.509131 0.565924,2.360522 1.330506,2.885546 2.726953,1.777069 5.291976,3.790357 7.665853,6.017327 5.55407,5.193481 9.415376,10.764246 12.555502,18.334943 2.49908,6.025674 3.63678,14.345094 3.12177,14.419382 z"
       style="fill:url(#linear-gradient-3);fill-rule:evenodd;stroke-width:0px" /><path
       id="main"
       d="M 104.62326,87.842786 C 104.44381,87.867827 98.480733,74.921685 90.469316,67.02796 83.936982,60.591615 72.031705,50.041051 52.800298,50.783931 c -8.584854,0.331375 -12.610595,4.293679 -12.030481,5.260258 0.565925,0.943207 11.735833,-2.589229 23.668654,3.704383 10.858567,5.727687 15.481951,14.962769 15.256583,15.133047 -0.184468,0.139394 -8.440451,-7.237653 -20.910817,-10.498812 -0.04841,-0.0075 -0.09599,-0.01753 -0.144402,-0.02838 -2.234483,-0.54923 -2.423959,2.442322 -0.123535,5.304496 2.662681,3.313745 3.913057,3.603385 3.783679,4.029915 -0.164435,0.53671 -5.26777,0.732863 -10.198322,-2.714433 -4.343761,-3.037461 -6.293612,-7.161696 -6.867883,-7.690059 -0.485793,-0.446563 -1.040866,-0.338052 -1.686087,-0.32887 -0.02671,0 -0.05259,0 -0.0793,0 -6.93132,0.262929 -11.052216,1.03085 -16.371737,3.142632 -2.342993,0.930686 -5.573269,1.131014 -7.41294,-0.77126 -1.908951,-1.974057 3.256986,-4.755266 3.668491,-6.332842 0.537545,-2.06337 0.211179,-10.124869 15.054587,-14.502017 5.779438,-1.70445 17.287399,-3.343794 29.837061,0.525024 0.6327,0.155254 1.203632,0.174452 1.78625,-0.237054 1.549197,-1.095122 4.149276,-2.566691 8.503053,-2.957329 7.316115,-0.655237 9.658274,1.595105 9.467963,2.010783 -0.169444,0.37144 -6.688423,0.346399 -8.060664,4.40052 -0.510835,1.509132 0.565924,2.360522 1.330506,2.885546 2.726953,1.777069 5.291976,3.790357 7.666687,6.017327 5.554905,5.193482 9.416211,10.764246 12.555506,18.334944 2.49825,6.025674 3.33712,12.340153 3.12845,12.370202 z"
       style="fill:url(#linear-gradient-2-6);fill-rule:evenodd;stroke-width:0px" /></g></svg>
