<?xml version="1.0" encoding="UTF-8" standalone="no"?>
<!-- Created with Inkscape (http://www.inkscape.org/) -->

<svg
   width="128"
   height="128"
   viewBox="0 0 128 128"
   version="1.1"
   id="svg5"
   inkscape:version="1.4.3 (0d15f75042, 2025-12-25)"
   sodipodi:docname="org.gnome.Maps.svg"
   inkscape:export-filename="/home/retro/.icons/skeuowaita/scalable/apps/skeuowaita.png"
   inkscape:export-xdpi="1536"
   inkscape:export-ydpi="1536"
   xml:space="preserve"
   xmlns:inkscape="http://www.inkscape.org/namespaces/inkscape"
   xmlns:sodipodi="http://sodipodi.sourceforge.net/DTD/sodipodi-0.dtd"
   xmlns:xlink="http://www.w3.org/1999/xlink"
   xmlns="http://www.w3.org/2000/svg"
   xmlns:svg="http://www.w3.org/2000/svg"><sodipodi:namedview
     id="namedview7"
     pagecolor="#ffffff"
     bordercolor="#666666"
     borderopacity="1"
     inkscape:pageshadow="2"
     inkscape:pageopacity="0.0"
     inkscape:pagecheckerboard="true"
     inkscape:document-units="px"
     showgrid="false"
     inkscape:showpageshadow="false"
     showborder="true"
     inkscape:snap-page="true"
     inkscape:zoom="4"
     inkscape:cx="49.25"
     inkscape:cy="99.750001"
     inkscape:window-width="1728"
     inkscape:window-height="1043"
     inkscape:window-x="0"
     inkscape:window-y="0"
     inkscape:window-maximized="1"
     inkscape:current-layer="layer2"
     inkscape:snap-bbox="true"
     inkscape:snap-bbox-midpoints="true"
     inkscape:snap-bbox-edge-midpoints="true"
     inkscape:bbox-nodes="true"
     inkscape:bbox-paths="true"
     inkscape:snap-intersection-paths="true"
     inkscape:object-paths="true"
     inkscape:snap-smooth-nodes="true"
     inkscape:snap-midpoints="true"
     inkscape:deskcolor="#d1d1d1" /><defs
     id="defs2"><linearGradient
       y2="236"
       x2="96"
       y1="236"
       x1="32"
       gradientTransform="translate(604.81684,170.58641)"
       gradientUnits="userSpaceOnUse"
       id="linearGradient1099"
       xlink:href="#linearGradient1036" /><linearGradient
       id="linearGradient1036"><stop
         id="stop1032"
         offset="0"
         style="stop-color:#d5d3cf;stop-opacity:1;" /><stop
         id="stop1034"
         offset="1"
         style="stop-color:#f6f5f4;stop-opacity:1" /></linearGradient><radialGradient
       r="32"
       fy="-76"
       fx="-244"
       cy="-76"
       cx="-244"
       gradientTransform="matrix(0.88333331,0,0,0.88333331,-460.35018,463.11973)"
       gradientUnits="userSpaceOnUse"
       id="radialGradient1103"
       xlink:href="#linearGradient1069" /><linearGradient
       id="linearGradient1069"><stop
         id="stop1065"
         offset="0"
         style="stop-color:#d5d3cf;stop-opacity:1" /><stop
         id="stop1067-1"
         offset="1"
         style="stop-color:#949390;stop-opacity:1" /></linearGradient><linearGradient
       gradientUnits="userSpaceOnUse"
       y2="232"
       x2="64"
       y1="262.5"
       x1="64"
       id="linearGradient1027"
       xlink:href="#linearGradient1025"
       gradientTransform="translate(-470.5864,432.81685)" /><linearGradient
       id="linearGradient1025"><stop
         id="stop1021"
         offset="0"
         style="stop-color:#9a9996;stop-opacity:1" /><stop
         id="stop1023"
         offset="1"
         style="stop-color:#77767b;stop-opacity:1" /></linearGradient><inkscape:path-effect
       effect="spiro"
       id="path-effect35304-9"
       is_visible="true" /><clipPath
       clipPathUnits="userSpaceOnUse"
       id="clipPath1609-7"><path
         sodipodi:nodetypes="cccccc"
         inkscape:connector-curvature="0"
         id="path1611-5"
         d="m 252,116 28,-28 v -8 h -36 v 36 z"
         style="fill:#e74747;stroke:none;stroke-width:0.25px;stroke-linecap:butt;stroke-linejoin:miter;stroke-opacity:1" /></clipPath><radialGradient
       r="32"
       fy="-76"
       fx="-244"
       cy="-76"
       cx="-244"
       gradientTransform="matrix(0.88333331,0,0,0.88333331,-460.35018,463.11973)"
       gradientUnits="userSpaceOnUse"
       id="radialGradient1103-5"
       xlink:href="#linearGradient1069" /><inkscape:path-effect
       effect="spiro"
       id="path-effect35304-9-2"
       is_visible="true" /><clipPath
       clipPathUnits="userSpaceOnUse"
       id="clipPath1609-7-7"><path
         sodipodi:nodetypes="cccccc"
         inkscape:connector-curvature="0"
         id="path1611-5-0"
         d="m 252,116 28,-28 v -8 h -36 v 36 z"
         style="fill:#e74747;stroke:none;stroke-width:0.25px;stroke-linecap:butt;stroke-linejoin:miter;stroke-opacity:1" /></clipPath><clipPath
       clipPathUnits="userSpaceOnUse"
       id="clipPath744"><rect
         style="fill:#1e88e5;fill-opacity:1;stroke-width:0.264583"
         id="rect746"
         width="541.86664"
         height="541.86664"
         x="0"
         y="1.5987212e-14"
         rx="79.375"
         ry="79.375" /></clipPath><clipPath
       clipPathUnits="userSpaceOnUse"
       id="clipPath62"><rect
         style="fill:#1e88e5;fill-opacity:1;stroke-width:0.264583"
         id="rect64"
         width="541.86664"
         height="541.86664"
         x="2.2507105e-05"
         y="-0.42205024"
         rx="79.375"
         ry="79.375" /></clipPath><radialGradient
       r="32"
       fy="-76"
       fx="-244"
       cy="-76"
       cx="-244"
       gradientTransform="matrix(0.88333331,0,0,0.88333331,-460.35018,463.11973)"
       gradientUnits="userSpaceOnUse"
       id="radialGradient1103-6"
       xlink:href="#linearGradient1069" /><inkscape:path-effect
       effect="spiro"
       id="path-effect35304-9-20"
       is_visible="true" /><clipPath
       clipPathUnits="userSpaceOnUse"
       id="clipPath1609-7-2"><path
         sodipodi:nodetypes="cccccc"
         inkscape:connector-curvature="0"
         id="path1611-5-3"
         d="m 252,116 28,-28 v -8 h -36 v 36 z"
         style="fill:#e74747;stroke:none;stroke-width:0.25px;stroke-linecap:butt;stroke-linejoin:miter;stroke-opacity:1" /></clipPath><clipPath
       clipPathUnits="userSpaceOnUse"
       id="clipPath961"><rect
         style="fill:#00c853;stroke:none;stroke-width:0.529037"
         id="rect963"
         width="541.86664"
         height="541.86664"
         x="1.4210855e-14"
         y="2.717972e-05"
         rx="79.375"
         ry="79.375" /></clipPath><radialGradient
       r="32"
       fy="-76"
       fx="-244"
       cy="-76"
       cx="-244"
       gradientTransform="matrix(0.88333331,0,0,0.88333331,-460.35018,463.11973)"
       gradientUnits="userSpaceOnUse"
       id="radialGradient1103-56"
       xlink:href="#linearGradient1069" /><inkscape:path-effect
       effect="spiro"
       id="path-effect35304-9-7"
       is_visible="true" /><clipPath
       clipPathUnits="userSpaceOnUse"
       id="clipPath1440"><circle
         style="display:inline;opacity:1;vector-effect:none;fill:none;fill-opacity:1;stroke:#000000;stroke-width:2;stroke-linecap:butt;stroke-linejoin:miter;stroke-miterlimit:4;stroke-dasharray:none;stroke-dashoffset:0;stroke-opacity:1;marker:none;marker-start:none;marker-mid:none;marker-end:none;paint-order:normal;enable-background:new"
         id="circle1442"
         cx="-134.35028"
         cy="193.74727"
         r="24"
         transform="rotate(-45)" /></clipPath><clipPath
       clipPathUnits="userSpaceOnUse"
       id="clipPath1430"><circle
         style="display:inline;opacity:1;vector-effect:none;fill:none;fill-opacity:1;stroke:#000000;stroke-width:2;stroke-linecap:butt;stroke-linejoin:miter;stroke-miterlimit:4;stroke-dasharray:none;stroke-dashoffset:0;stroke-opacity:1;marker:none;marker-start:none;marker-mid:none;marker-end:none;paint-order:normal;enable-background:new"
         id="circle1432"
         cx="12"
         cy="232"
         r="24" /></clipPath><clipPath
       clipPathUnits="userSpaceOnUse"
       id="clipPath1440-9"><circle
         style="display:inline;opacity:1;vector-effect:none;fill:none;fill-opacity:1;stroke:#000000;stroke-width:2;stroke-linecap:butt;stroke-linejoin:miter;stroke-miterlimit:4;stroke-dasharray:none;stroke-dashoffset:0;stroke-opacity:1;marker:none;marker-start:none;marker-mid:none;marker-end:none;paint-order:normal;enable-background:new"
         id="circle1442-5"
         cx="-134.35028"
         cy="193.74727"
         r="24"
         transform="rotate(-45)" /></clipPath><clipPath
       clipPathUnits="userSpaceOnUse"
       id="clipPath1430-1"><circle
         style="display:inline;opacity:1;vector-effect:none;fill:none;fill-opacity:1;stroke:#000000;stroke-width:2;stroke-linecap:butt;stroke-linejoin:miter;stroke-miterlimit:4;stroke-dasharray:none;stroke-dashoffset:0;stroke-opacity:1;marker:none;marker-start:none;marker-mid:none;marker-end:none;paint-order:normal;enable-background:new"
         id="circle1432-8"
         cx="12"
         cy="232"
         r="24" /></clipPath><clipPath
       clipPathUnits="userSpaceOnUse"
       id="clipPath2024"><rect
         style="opacity:1;vector-effect:none;fill:#63452c;fill-opacity:1;stroke:none;stroke-width:4;stroke-linecap:round;stroke-linejoin:round;stroke-miterlimit:4;stroke-dasharray:none;stroke-dashoffset:0;stroke-opacity:1"
         id="rect2026"
         width="74"
         height="98"
         x="6"
         y="196" /></clipPath><linearGradient
       id="linearGradient914"
       inkscape:collect="always"><stop
         id="stop910"
         offset="0"
         style="stop-color:#f6f5f4;stop-opacity:0.43700787" /><stop
         id="stop912"
         offset="1"
         style="stop-color:#deddda;stop-opacity:0;" /></linearGradient><radialGradient
       gradientTransform="matrix(2.6086955,0,0,1.8410361,-102.95652,-748.94671)"
       gradientUnits="userSpaceOnUse"
       r="46"
       fy="296"
       fx="64.000008"
       cy="296"
       cx="64.000008"
       id="radialGradient916"
       xlink:href="#linearGradient914"
       inkscape:collect="always" /><clipPath
       clipPathUnits="userSpaceOnUse"
       id="clipPath11543"><rect
         style="fill:#f0c04e;fill-opacity:1;stroke:none;stroke-width:0.529037"
         id="rect11545"
         width="541.86664"
         height="541.86664"
         x="1.4746095e-06"
         y="6.4330168e-05"
         rx="79.375"
         ry="79.375" /></clipPath><style
       id="style374">.cls-1{fill:url(#linear-gradient);}.cls-2{opacity:0.35;fill:url(#radial-gradient);}.cls-2,.cls-4{isolation:isolate;}.cls-3{fill:url(#linear-gradient-2);}.cls-4{opacity:0.41;fill:url(#radial-gradient-2);}.cls-5{fill:url(#radial-gradient-3);}.cls-6{fill:url(#radial-gradient-4);}</style><linearGradient
       id="linear-gradient"
       x1="63.33"
       y1="84.03"
       x2="241.67"
       y2="84.03"
       gradientTransform="matrix(1,0,0,-1,0,266)"
       gradientUnits="userSpaceOnUse"><stop
         offset="0"
         stop-color="#0c59a4"
         id="stop376" /><stop
         offset="1"
         stop-color="#114a8b"
         id="stop378" /></linearGradient><radialGradient
       id="radial-gradient"
       cx="161.83"
       cy="68.91"
       r="95.38"
       gradientTransform="matrix(1,0,0,-0.95,0,248.84)"
       gradientUnits="userSpaceOnUse"><stop
         offset="0.72"
         stop-opacity="0"
         id="stop381" /><stop
         offset="0.95"
         stop-opacity="0.53"
         id="stop383" /><stop
         offset="1"
         id="stop385" /></radialGradient><linearGradient
       id="linear-gradient-2"
       x1="157.35"
       y1="161.39"
       x2="45.96"
       y2="40.06"
       gradientTransform="matrix(1,0,0,-1,0,266)"
       gradientUnits="userSpaceOnUse"><stop
         offset="0"
         stop-color="#1b9de2"
         id="stop388" /><stop
         offset="0.16"
         stop-color="#1595df"
         id="stop390" /><stop
         offset="0.67"
         stop-color="#0680d7"
         id="stop392" /><stop
         offset="1"
         stop-color="#0078d4"
         id="stop394" /></linearGradient><radialGradient
       id="radial-gradient-2"
       cx="-340.29"
       cy="62.99"
       r="143.24"
       gradientTransform="matrix(0.15,-0.99,-0.8,-0.12,176.64,-125.4)"
       gradientUnits="userSpaceOnUse"><stop
         offset="0.76"
         stop-opacity="0"
         id="stop397" /><stop
         offset="0.95"
         stop-opacity="0.5"
         id="stop399" /><stop
         offset="1"
         id="stop401" /></radialGradient><radialGradient
       id="radial-gradient-3"
       cx="113.37"
       cy="570.21"
       r="202.43"
       gradientTransform="matrix(-0.04,1,2.13,0.08,-1179.54,-106.69)"
       gradientUnits="userSpaceOnUse"><stop
         offset="0"
         stop-color="#35c1f1"
         id="stop404" /><stop
         offset="0.11"
         stop-color="#34c1ed"
         id="stop406" /><stop
         offset="0.23"
         stop-color="#2fc2df"
         id="stop408" /><stop
         offset="0.31"
         stop-color="#2bc3d2"
         id="stop410" /><stop
         offset="0.67"
         stop-color="#36c752"
         id="stop412" /></radialGradient><radialGradient
       id="radial-gradient-4"
       cx="376.52"
       cy="567.97"
       r="97.34"
       gradientTransform="matrix(0.28,0.96,0.78,-0.23,-303.76,-148.5)"
       gradientUnits="userSpaceOnUse"><stop
         offset="0"
         stop-color="#66eb6e"
         id="stop415" /><stop
         offset="1"
         stop-color="#66eb6e"
         stop-opacity="0"
         id="stop417" /></radialGradient><clipPath
       clipPathUnits="userSpaceOnUse"
       id="clipPath1260"><rect
         style="fill:#bbdefb;fill-opacity:1;stroke:none;stroke-width:0.529037"
         id="rect1262"
         width="541.86664"
         height="541.86664"
         x="2.9492187e-06"
         y="3.9968629e-05"
         rx="79.375"
         ry="79.375" /></clipPath><clipPath
       clipPathUnits="userSpaceOnUse"
       id="clipPath16285"><rect
         style="fill:#bbdefb;fill-opacity:1;stroke:none;stroke-width:0.529037"
         id="rect16287"
         width="541.86664"
         height="541.86664"
         x="0"
         y="6.4807005e-05"
         rx="79.375"
         ry="79.375" /></clipPath><clipPath
       clipPathUnits="userSpaceOnUse"
       id="clipPath990"><rect
         style="fill:#bbdefb;fill-opacity:1;stroke:none;stroke-width:0.529037"
         id="rect992"
         width="487.67996"
         height="487.67996"
         x="27.093349"
         y="27.093338"
         rx="71.4375"
         ry="71.4375" /></clipPath><clipPath
       id="clipPath941-5-2"
       clipPathUnits="userSpaceOnUse"><rect
         ry="32"
         rx="32"
         y="-116"
         x="32"
         height="320"
         width="448"
         id="rect943-2-6"
         style="display:inline;opacity:1;vector-effect:none;fill:none;fill-opacity:1;stroke:#000000;stroke-width:4;stroke-linecap:butt;stroke-linejoin:miter;stroke-miterlimit:4;stroke-dasharray:none;stroke-dashoffset:0;stroke-opacity:1;marker:none;marker-start:none;marker-mid:none;marker-end:none;paint-order:normal;enable-background:new" /></clipPath><linearGradient
       inkscape:collect="always"
       xlink:href="#linearGradient1522"
       id="linearGradient1524"
       x1="9"
       y1="64"
       x2="119"
       y2="64"
       gradientUnits="userSpaceOnUse"
       gradientTransform="translate(1.8e-4)" /><linearGradient
       inkscape:collect="always"
       id="linearGradient1522"><stop
         style="stop-color:#999999;stop-opacity:1"
         offset="0"
         id="stop1518" /><stop
         style="stop-color:#999999;stop-opacity:1"
         offset="0.40000001"
         id="stop1617" /><stop
         style="stop-color:#b3b3b3;stop-opacity:1;"
         offset="0.5"
         id="stop1613" /><stop
         style="stop-color:#999999;stop-opacity:1"
         offset="0.60000002"
         id="stop1615" /><stop
         style="stop-color:#999999;stop-opacity:1"
         offset="1"
         id="stop1520" /></linearGradient></defs><g
     inkscape:groupmode="layer"
     id="layer2"
     inkscape:label="Layer 1"><text
       xml:space="preserve"
       style="font-style:normal;font-variant:normal;font-weight:normal;font-stretch:normal;font-size:40px;line-height:1.25;font-family:'DejaVu Math TeX Gyre';-inkscape-font-specification:'DejaVu Math TeX Gyre';fill:#000000;fill-opacity:1;stroke:none"
       x="57.303368"
       y="70.244858"
       id="text3441"><tspan
         sodipodi:role="line"
         id="tspan3439"
         x="57.303368"
         y="70.244858" /></text><text
       xml:space="preserve"
       style="font-size:40px;line-height:1.25;font-family:Caladea;-inkscape-font-specification:Caladea"
       x="43.168587"
       y="70.812454"
       id="text13903"><tspan
         sodipodi:role="line"
         id="tspan13901"
         x="43.168587"
         y="70.812454" /></text><path
       id="circle372"
       style="fill:url(#linearGradient1524);fill-opacity:1;stroke-width:1"
       d="M 64.000185,5 A 55,55 0 0 0 9.00018,60.000001 V 68 A 55,55 0 0 0 64.000185,123 55,55 0 0 0 119.00017,68.000001 V 60.000002 A 55,55 0 0 0 64.000185,5 Z" /><path
       style="fill:#5fbcd3;fill-opacity:1;stroke-width:1"
       d="m 86.044945,110.28031 a 55,55 0 0 0 5.45523,-2.64891 55,55 0 0 0 25.553245,-61.834279 L 65.875025,75.344979 Z"
       id="path1343" /><text
       xml:space="preserve"
       style="font-style:normal;font-variant:normal;font-weight:normal;font-stretch:normal;font-size:40px;line-height:1.25;font-family:'DejaVu Math TeX Gyre';-inkscape-font-specification:'DejaVu Math TeX Gyre';fill:#000000;fill-opacity:1;stroke:none"
       x="57.355877"
       y="70.049553"
       id="text3441-3"><tspan
         sodipodi:role="line"
         id="tspan3439-6"
         x="57.355877"
         y="70.049553" /></text><text
       xml:space="preserve"
       style="font-size:40px;line-height:1.25;font-family:Caladea;-inkscape-font-specification:Caladea"
       x="43.221096"
       y="70.617149"
       id="text13903-7"><tspan
         sodipodi:role="line"
         id="tspan13901-5"
         x="43.221096"
         y="70.617149" /></text><g
       clip-path="url(#clipPath941-5-2)"
       id="g939-5-6"
       style="display:inline;stroke-width:0.0821797;enable-background:new"
       transform="matrix(0.22583343,0,0,0.22583343,-471.69698,-121.4897)" /><path
       style="fill:#c8b7b7;fill-opacity:1;stroke-width:1"
       d="m 25.173524,98.844 a 55,55 0 0 0 46.508831,15.49315 L 53.346415,82.578375 Z"
       id="path1339" /><path
       style="fill:#b7c8be;fill-opacity:1;stroke-width:1"
       d="m 20.783913,26.17847 a 55,55 0 0 0 -4.41513,61.321531 55,55 0 0 0 0.674001,0.995604 l -0.19336,-0.334909 c -0.291321,-0.504583 -0.119969,-1.144073 0.384612,-1.435393 L 46.113955,70.051472 Z"
       id="path1335" /><path
       id="circle1328"
       style="fill:#5fd38d;fill-opacity:1;stroke-width:1"
       d="m 65.970885,5.039062 a 55,55 0 0 0 -29.470705,7.330079 55,55 0 0 0 -2.269531,1.535156 l -0.04102,-0.07227 -2.742186,1.941408 -0.0039,-0.0059 a 55,55 0 0 0 -0.08008,0.06445 l -0.148438,0.105468 0.0059,0.0098 a 55,55 0 0 0 -10.472699,10.23048 l 25.330079,43.873047 11.92969,-6.88672 0.002,0.0039 0.62889,-0.357436 0.004,0.0078 0.91602,-0.529297 1.60547,-0.910153 -0.008,-0.01171 50.351555,-29.070312 A 55,55 0 0 0 65.970785,5.039062 Z" /><path
       id="rect1293"
       style="fill:#e5e5e5;fill-opacity:1;stroke-width:6.29291;stroke-linecap:square;stroke-linejoin:round;paint-order:markers stroke fill"
       d="m 17.23407,86.725284 c -0.504586,0.291322 -0.675936,0.930808 -0.384613,1.435393 l 0.193359,0.334908 A 55,55 0 0 0 25.17352,98.844 l 91.8799,-53.046879 a 55,55 0 0 0 -5.42183,-13.297125 55,55 0 0 0 -0.12434,-0.20336 z" /><path
       id="rect19"
       style="fill:#37ac66;fill-opacity:1;stroke-width:8.51022;stroke-linecap:square;stroke-linejoin:round;paint-order:markers stroke fill"
       d="m 56.466797,36.798828 -0.865234,0.5 10.402343,18.017578 27.007813,-15.593749 -0.865235,-1.5 -26.142578,15.093749 z" /><path
       id="rect1295"
       style="fill:#4fc77f;fill-opacity:1;stroke-width:10.4194;stroke-linecap:square;stroke-linejoin:round;paint-order:markers stroke fill"
       d="m 41.040805,10.077753 12.28711,21.281898 27.00748,-15.592775 -5.5459,-9.605778 a 55,55 0 0 0 -8.81858,-1.121874 55,55 0 0 0 -24.93011,5.038529 z" /><rect
       style="fill:#4fc77f;fill-opacity:1;stroke-width:8.51022;stroke-linecap:square;stroke-linejoin:round;paint-order:markers stroke fill"
       id="rect1297"
       width="31.184862"
       height="20.803656"
       x="30.503099"
       y="58.371353"
       rx="0"
       ry="0"
       transform="rotate(-30)" /><path
       id="rect1309"
       style="fill:#4fc77f;fill-opacity:1;stroke-width:14.0293;stroke-linecap:square;stroke-linejoin:round;paint-order:markers stroke fill"
       d="m 84.555295,9.025191 14.54004,25.184087 9.900095,-5.71582 A 55,55 0 0 0 84.555295,9.025191 Z" /><path
       id="path13"
       style="fill:#ffffff;fill-opacity:1;stroke-width:6.29291;stroke-linecap:square;stroke-linejoin:round;paint-order:markers stroke fill"
       d="M 111.50781 32.296875 L 17.234375 86.724609 C 16.729789 87.015931 16.558286 87.655571 16.849609 88.160156 L 17.042969 88.496094 A 55 55 0 0 0 17.197266 88.748047 C 17.209429 88.740358 17.221795 88.731872 17.234375 88.724609 L 111.50781 34.296875 A 55 55 0 0 1 111.63086 34.5 A 55 55 0 0 1 116.57227 46.074219 L 117.05273 45.796875 A 55 55 0 0 0 111.63086 32.5 A 55 55 0 0 0 111.50781 32.296875 z " /><path
       id="path1"
       style="fill:#d3d3d3;fill-opacity:1;stroke-width:2.25107"
       d="m 74.366755,24.776532 c -8.71174,0 -15.75819,7.046443 -15.75819,15.75819 0,11.81826 15.75819,29.263201 15.75819,29.263201 0,0 15.75819,-17.444941 15.75819,-29.263202 0,-8.711746 -7.04644,-15.75819 -15.75819,-15.758189 z m 0,7.688404 a 7.8116893,7.8116893 0 0 1 7.81242,7.812412 7.8116893,7.8116893 0 0 1 -7.81242,7.810074 7.8116893,7.8116893 0 0 1 -7.81241,-7.810074 7.8116893,7.8116893 0 0 1 7.81241,-7.812412 z" /><path
       id="path17"
       style="fill:#38af67;fill-opacity:1;stroke-width:10.4194;stroke-linecap:square;stroke-linejoin:round;paint-order:markers stroke fill"
       d="M 41.957031 11.664062 A 55 55 0 0 0 41.041016 12.078125 L 53.328125 33.359375 L 80.335938 17.767578 L 79.470703 16.267578 L 53.328125 31.359375 L 41.957031 11.664062 z " /><path
       id="path3"
       style="fill:#37ac66;fill-opacity:1;stroke-width:2.25107"
       d="M 74.367188 24.777344 C 65.655447 24.777344 58.609375 31.823409 58.609375 40.535156 C 58.609375 46.129347 62.138435 52.98368 65.857422 58.652344 L 89.496094 45.005859 C 89.89762 43.460803 90.125 41.957441 90.125 40.535156 C 90.125 31.82341 83.078937 24.777343 74.367188 24.777344 z M 74.367188 32.464844 A 7.8116893 7.8116893 0 0 1 82.179688 40.277344 A 7.8116893 7.8116893 0 0 1 74.367188 48.087891 A 7.8116893 7.8116893 0 0 1 66.554688 40.277344 A 7.8116893 7.8116893 0 0 1 74.367188 32.464844 z " /><path
       id="rect23"
       style="fill:#9adfb6;fill-opacity:1;stroke-width:8.51022;stroke-linecap:square;stroke-linejoin:round;paint-order:markers stroke fill"
       d="M 61.688302 58.371477 L 30.502952 58.370463 L 30.502267 60.102118 L 60.688302 60.103528 L 60.689868 79.175034 L 61.689183 79.174638 L 61.688302 58.371477 z "
       transform="rotate(-30)" /><path
       id="path1468"
       style="fill:#d32f2f;fill-opacity:1;stroke-width:2.25107"
       d="m 74.366755,18.776532 c -8.71174,0 -15.75819,7.046443 -15.75819,15.75819 0,11.81826 15.75819,29.263201 15.75819,29.263201 0,0 15.75819,-17.444941 15.75819,-29.263202 0,-8.711746 -7.04644,-15.75819 -15.75819,-15.758189 z m 0,7.688404 a 7.8116893,7.8116893 0 0 1 7.81242,7.812412 7.8116893,7.8116893 0 0 1 -7.81242,7.810074 7.8116893,7.8116893 0 0 1 -7.81241,-7.810074 7.8116893,7.8116893 0 0 1 7.81241,-7.812412 z" /><path
       id="path1253"
       style="fill:#ef5350;fill-opacity:1;stroke-width:2.25107"
       d="m 74.366755,13.355265 c -8.71174,0 -15.75819,7.046443 -15.75819,15.75819 0,11.81826 15.75819,29.263201 15.75819,29.263201 0,0 15.75819,-17.444941 15.75819,-29.263202 0,-8.711746 -7.04644,-15.75819 -15.75819,-15.758189 z m 0,7.688404 a 7.8116893,7.8116893 0 0 1 7.81242,7.812412 7.8116893,7.8116893 0 0 1 -7.81242,7.810074 7.8116893,7.8116893 0 0 1 -7.81241,-7.810074 7.8116893,7.8116893 0 0 1 7.81241,-7.812412 z" /><path
       id="path3094"
       style="fill:#8c8c8c;fill-opacity:1;stroke-width:6.29291;stroke-linecap:square;stroke-linejoin:round;paint-order:markers stroke fill"
       d="m 86.045105,110.28125 a 55,55 0 0 1 -14.36329,4.05664 l 1e-5,8.11133 a 55,55 0 0 0 14.36328,-4.12109 z" /><path
       id="path3102"
       style="fill:#8c8c8c;fill-opacity:1;stroke-width:6.29291;stroke-linecap:square;stroke-linejoin:round;paint-order:markers stroke fill"
       d="m 16.849789,88.160156 v 7.960934 a 55,55 0 0 0 8.324219,10.63672 V 98.84375 A 55,55 0 0 1 17.043149,88.496095 Z" /><path
       id="path3730"
       style="fill:#55705f;fill-opacity:1;stroke-width:6.29291;stroke-linecap:square;stroke-linejoin:round;paint-order:markers stroke fill"
       d="M 9.131039,59.574219 9.00018,60.000001 V 68 a 55,55 0 0 0 7.849609,28.12109 V 88.210938 A 55,55 0 0 1 16.36932,87.500001 55,55 0 0 1 9.131039,59.574219 Z m 7.59961,27.857422 c -0.0478,0.240871 -0.01401,0.497883 0.11914,0.728515 z" /><path
       id="path3518"
       style="fill:#236a7c;fill-opacity:1;stroke-width:6.29291;stroke-linecap:square;stroke-linejoin:round;paint-order:markers stroke fill"
       d="m 117.05292,45.796874 a 55,55 0 0 1 -25.552735,61.833996 55,55 0 0 1 -5.45508,2.65038 v 8.04688 a 55,55 0 0 0 0.002,1e-5 55,55 0 0 0 32.953125,-50.328125 v -8 a 55,55 0 0 0 -1.875,-14.203126 z" /><path
       id="path3658"
       style="fill:#776666;fill-opacity:1;stroke-width:6.29291;stroke-linecap:square;stroke-linejoin:round;paint-order:markers stroke fill"
       d="m 25.174008,98.84375 v 7.91406 A 55,55 0 0 0 64.000185,123 a 55,55 0 0 0 7.67968,-0.55077 55,55 0 0 0 0.002,1e-5 v -8.11133 A 55,55 0 0 1 25.174008,98.84375 Z" /><path
       style="fill:#f2f2f2;fill-opacity:1;stroke-width:6.29291;stroke-linecap:square;stroke-linejoin:round;paint-order:markers stroke fill"
       d="m 65.875185,75.345704 -12.52931,7.23241 18.33594,31.759766 a 55,55 0 0 0 14.36328,-4.05664 z"
       id="path613" /><path
       id="path14"
       style="fill:#ffffff;fill-opacity:1;stroke-width:6.29291;stroke-linecap:square;stroke-linejoin:round;paint-order:markers stroke fill"
       d="M 65.875 75.345703 L 53.345703 82.578125 L 54.210938 84.078125 L 65.875 77.345703 L 85.117188 110.67578 A 55 55 0 0 0 86.044922 110.28125 L 65.875 75.345703 z " /><path
       id="path12"
       style="fill:#799985;fill-opacity:1;stroke-width:6.29291;stroke-linecap:square;stroke-linejoin:round;paint-order:markers stroke fill"
       d="M 13.03125 41.744141 A 55 55 0 0 0 12.572266 42.947266 L 32.693359 77.798828 L 45.222656 70.564453 L 45.214844 70.550781 L 33.548828 77.28125 L 13.03125 41.744141 z " /><path
       id="path615"
       style="fill:#f2f2f2;fill-opacity:1;stroke-width:6.29291;stroke-linecap:square;stroke-linejoin:round;paint-order:markers stroke fill"
       d="M 20.764655,26.204519 A 55,55 0 0 0 12.571979,40.947982 L 33.549518,77.282145 46.079135,70.050478 Z" /><path
       id="path1821"
       style="fill:#4fc77f;fill-opacity:1;stroke-width:5.93773;stroke-linecap:square;stroke-linejoin:round;paint-order:markers stroke fill"
       d="m 34.189759,13.832487 -2.742191,1.941793 -0.0039,-0.0068 a 55,55 0 0 0 -0.08014,0.06431 l -0.148516,0.106043 0.0059,0.01015 a 55,55 0 0 0 -5.487341,4.753583 L 49.944505,62.63614 59.941985,56.866346 34.883396,13.463589 a 55,55 0 0 0 -0.652622,0.439939 z" /><path
       id="path631"
       style="fill:#ffffff;fill-opacity:0.84039533;stroke-width:1"
       d="m 63.999775,5.000008 a 55,55 0 0 0 -55,55 v 2.5 a 55,55 0 0 1 55,-55 55,55 0 0 1 55.000005,55 v -2.5 a 55,55 0 0 0 -55.000005,-55 z" /><path
       id="path1194"
       style="fill:#ffc5c5;fill-opacity:1;stroke-width:2.25107"
       d="m 74.366965,13.355477 c -8.71174,0 -15.75781,7.046074 -15.75781,15.757813 0,0.374326 0.0163,0.753789 0.0469,1.138672 0.59863,-8.162819 7.39362,-14.587891 15.71093,-14.587891 8.31866,-10e-7 15.11421,6.427099 15.71094,14.591797 0.0308,-0.386182 0.0469,-0.76702 0.0469,-1.142578 0,-8.711738 -7.04608,-15.757814 -15.75781,-15.757813 z m 7.69922,16.5 a 7.8116893,7.8116893 0 0 1 -7.69922,6.810547 7.8116893,7.8116893 0 0 1 -7.6836,-6.654297 7.8116893,7.8116893 0 0 0 -0.1289,1.154297 7.8116893,7.8116893 0 0 0 7.8125,7.808594 7.8116893,7.8116893 0 0 0 7.8125,-7.808594 7.8116893,7.8116893 0 0 0 -0.11328,-1.310547 z" /><path
       id="path8"
       style="fill:#a0a0a0;fill-opacity:1;stroke-width:6.29291;stroke-linecap:square;stroke-linejoin:round;paint-order:markers stroke fill"
       d="M 65.875 75.345703 L 53.345703 82.578125 L 54.210938 84.078125 L 66.740234 76.845703 L 65.875 75.345703 z " /><path
       id="path9"
       style="fill:#3195ae;fill-opacity:1;stroke-width:6.29291;stroke-linecap:square;stroke-linejoin:round;paint-order:markers stroke fill"
       d="M 116.57227 46.074219 L 65.875 75.345703 L 66.740234 76.845703 L 117.05273 47.796875 A 55 55 0 0 0 116.57227 46.074219 z " /><path
       id="path10"
       style="fill:#a09090;fill-opacity:1;stroke-width:6.29291;stroke-linecap:square;stroke-linejoin:round;paint-order:markers stroke fill"
       d="M 53.345703 82.578125 L 25.173828 98.84375 A 55 55 0 0 0 26.470703 100.0957 L 54.210938 84.078125 L 53.345703 82.578125 z " /><path
       id="path4"
       style="mix-blend-mode:soft-light;fill:#ffffff;fill-opacity:1;stroke-width:1"
       d="M 9.1308594,58.875 A 55,55 0 0 0 16.369141,87.5 55,55 0 0 0 17.042969,88.496094 55,55 0 0 0 25.173828,98.84375 55,55 0 0 0 71.681641,114.33789 55,55 0 0 0 86.044922,110.28125 55,55 0 0 0 91.5,107.63086 55,55 0 0 0 118.86328,59.023438 55,55 0 0 1 91.5,105.63086 55,55 0 0 1 86.044922,108.28125 55,55 0 0 1 71.681641,112.33789 55,55 0 0 1 25.173828,96.84375 55,55 0 0 1 17.042969,86.496094 55,55 0 0 1 16.369141,85.5 55,55 0 0 1 9.1308594,58.875 Z" /><path
       id="path11"
       style="fill:#a09090;fill-opacity:1;stroke-width:6.29291;stroke-linecap:square;stroke-linejoin:round;paint-order:markers stroke fill"
       d="M 54.210938 84.078125 L 53.345703 84.578125 L 70.607422 114.47852 A 55 55 0 0 0 71.681641 114.33789 L 54.210938 84.078125 z " /><path
       id="path15"
       style="fill:#f16664;fill-opacity:1;stroke-width:2.25107"
       d="M 74.367188 19.042969 A 7.8116893 7.8116893 0 0 0 66.554688 26.855469 A 7.8116893 7.8116893 0 0 0 66.619141 27.855469 A 7.8116893 7.8116893 0 0 1 74.367188 21.042969 A 7.8116893 7.8116893 0 0 1 82.113281 27.835938 A 7.8116893 7.8116893 0 0 0 82.179688 26.855469 A 7.8116893 7.8116893 0 0 0 74.367188 19.042969 z M 58.642578 28.076172 C 58.620393 28.418823 58.609375 28.764961 58.609375 29.113281 C 58.609375 40.931541 74.367188 58.376953 74.367188 58.376953 C 74.367188 58.376953 90.125 40.931542 90.125 29.113281 C 90.125 28.764961 90.113982 28.418824 90.091797 28.076172 C 89.290657 39.854987 74.367188 56.376953 74.367188 56.376953 C 74.367188 56.376953 59.443718 39.854986 58.642578 28.076172 z " /><path
       id="path16"
       style="fill:#38af67;fill-opacity:1;stroke-width:5.93773;stroke-linecap:square;stroke-linejoin:round;paint-order:markers stroke fill"
       d="M 26.587891 22.183594 A 55 55 0 0 0 25.841797 22.888672 L 49.945312 64.636719 L 59.941406 58.867188 L 59.076172 57.367188 L 49.945312 62.636719 L 26.587891 22.183594 z " /><path
       id="path20"
       style="fill:#37ac66;fill-opacity:1;stroke-width:14.0293;stroke-linecap:square;stroke-linejoin:round;paint-order:markers stroke fill"
       d="M 84.902344 11.626953 L 99.095703 36.208984 L 108.80664 30.603516 A 55 55 0 0 0 107.77344 29.199219 L 99.095703 34.208984 L 86.4375 12.285156 A 55 55 0 0 0 84.902344 11.626953 z " /><path
       id="path21"
       style="fill:#9adfb6;fill-opacity:1;stroke-width:5.93773;stroke-linecap:square;stroke-linejoin:round;paint-order:markers stroke fill"
       d="M 34.189453 13.832031 L 32.177734 15.255859 A 55 55 0 0 1 34.222656 13.890625 L 34.189453 13.832031 z M 35.898438 15.220703 A 55 55 0 0 0 35.042969 15.740234 L 59.076172 57.367188 L 59.941406 56.867188 L 35.898438 15.220703 z " /><path
       id="path22"
       style="fill:#9adfb6;fill-opacity:1;stroke-width:10.4194;stroke-linecap:square;stroke-linejoin:round;paint-order:markers stroke fill"
       d="M 65.970703 5.0390625 A 55 55 0 0 0 64.96875 5.0644531 A 55 55 0 0 1 70.300781 5.4121094 A 55 55 0 0 0 65.970703 5.0390625 z M 61.884766 5.1386719 A 55 55 0 0 0 58.310547 5.3730469 A 55 55 0 0 1 61.884766 5.1386719 z M 54.818359 5.8691406 A 55 55 0 0 0 51.792969 6.4707031 A 55 55 0 0 1 54.818359 5.8691406 z M 48.039062 7.4609375 A 55 55 0 0 0 45.552734 8.3046875 A 55 55 0 0 1 48.039062 7.4609375 z M 75.056641 8.6230469 L 78.035156 13.783203 C 78.035775 13.78335 78.036491 13.783056 78.037109 13.783203 C 78.506791 13.89496 78.96767 14.028952 79.419922 14.181641 L 76.376953 8.9101562 A 55 55 0 0 0 75.056641 8.6230469 z M 41.5625 9.8730469 A 55 55 0 0 0 41.041016 10.078125 L 41.064453 10.119141 A 55 55 0 0 1 41.5625 9.8730469 z " /></g></svg>
