<?xml version="1.0" encoding="UTF-8" standalone="no"?>
<!-- Created with Inkscape (http://www.inkscape.org/) -->

<svg
   width="128"
   height="128"
   viewBox="0 0 128 128"
   version="1.1"
   id="svg5"
   inkscape:version="1.4.3 (0d15f75042, 2025-12-25)"
   sodipodi:docname="org.gnome.Contacts.svg"
   xmlns:inkscape="http://www.inkscape.org/namespaces/inkscape"
   xmlns:sodipodi="http://sodipodi.sourceforge.net/DTD/sodipodi-0.dtd"
   xmlns:xlink="http://www.w3.org/1999/xlink"
   xmlns="http://www.w3.org/2000/svg"
   xmlns:svg="http://www.w3.org/2000/svg">
  <sodipodi:namedview
     id="namedview7"
     pagecolor="#ffffff"
     bordercolor="#666666"
     borderopacity="1"
     inkscape:pageshadow="2"
     inkscape:pageopacity="0.0"
     inkscape:pagecheckerboard="true"
     inkscape:document-units="px"
     showgrid="false"
     inkscape:showpageshadow="false"
     showborder="true"
     inkscape:snap-page="true"
     inkscape:zoom="4"
     inkscape:cx="55.5"
     inkscape:cy="49.25"
     inkscape:window-width="1728"
     inkscape:window-height="1043"
     inkscape:window-x="0"
     inkscape:window-y="0"
     inkscape:window-maximized="1"
     inkscape:current-layer="layer2"
     inkscape:snap-global="true"
     inkscape:snap-bbox="true"
     inkscape:bbox-nodes="true"
     inkscape:snap-bbox-edge-midpoints="true"
     inkscape:snap-bbox-midpoints="true"
     inkscape:bbox-paths="true"
     inkscape:snap-intersection-paths="true"
     inkscape:object-paths="true"
     inkscape:deskcolor="#d1d1d1" />
  <defs
     id="defs2">
    <linearGradient
       inkscape:collect="always"
       id="linearGradient655">
      <stop
         style="stop-color:#000000;stop-opacity:1;"
         offset="0"
         id="stop651" />
      <stop
         style="stop-color:#000080;stop-opacity:0;"
         offset="1"
         id="stop653" />
    </linearGradient>
    <inkscape:path-effect
       effect="powerclip"
       id="path-effect5337"
       is_visible="true"
       lpeversion="1"
       inverse="true"
       flatten="false"
       hide_clip="false"
       message="" />
    <linearGradient
       inkscape:collect="always"
       id="linearGradient1009">
      <stop
         style="stop-color:#cccccc;stop-opacity:1"
         offset="0"
         id="stop997" />
      <stop
         style="stop-color:#e6e6e6;stop-opacity:1"
         offset="0.05"
         id="stop999" />
      <stop
         style="stop-color:#cccccc;stop-opacity:1"
         offset="0.1"
         id="stop1001" />
      <stop
         style="stop-color:#cccccc;stop-opacity:1"
         offset="0.89999998"
         id="stop1003" />
      <stop
         style="stop-color:#e6e6e6;stop-opacity:1"
         offset="0.94999999"
         id="stop1005" />
      <stop
         style="stop-color:#cccccc;stop-opacity:1"
         offset="1"
         id="stop1007" />
    </linearGradient>
    <linearGradient
       y2="236"
       x2="96"
       y1="236"
       x1="32"
       gradientTransform="translate(604.81684,170.58641)"
       gradientUnits="userSpaceOnUse"
       id="linearGradient1099"
       xlink:href="#linearGradient1036" />
    <linearGradient
       id="linearGradient1036">
      <stop
         id="stop1032"
         offset="0"
         style="stop-color:#d5d3cf;stop-opacity:1;" />
      <stop
         id="stop1034"
         offset="1"
         style="stop-color:#f6f5f4;stop-opacity:1" />
    </linearGradient>
    <radialGradient
       r="32"
       fy="-76"
       fx="-244"
       cy="-76"
       cx="-244"
       gradientTransform="matrix(0.88333331,0,0,0.88333331,-460.35018,463.11973)"
       gradientUnits="userSpaceOnUse"
       id="radialGradient1103"
       xlink:href="#linearGradient1069" />
    <linearGradient
       id="linearGradient1069">
      <stop
         id="stop1065"
         offset="0"
         style="stop-color:#d5d3cf;stop-opacity:1" />
      <stop
         id="stop1067-1"
         offset="1"
         style="stop-color:#949390;stop-opacity:1" />
    </linearGradient>
    <linearGradient
       gradientUnits="userSpaceOnUse"
       y2="232"
       x2="64"
       y1="262.5"
       x1="64"
       id="linearGradient1027"
       xlink:href="#linearGradient1025"
       gradientTransform="translate(-470.5864,432.81685)" />
    <linearGradient
       id="linearGradient1025">
      <stop
         id="stop1021"
         offset="0"
         style="stop-color:#9a9996;stop-opacity:1" />
      <stop
         id="stop1023"
         offset="1"
         style="stop-color:#77767b;stop-opacity:1" />
    </linearGradient>
    <inkscape:path-effect
       effect="spiro"
       id="path-effect35304-9"
       is_visible="true" />
    <clipPath
       clipPathUnits="userSpaceOnUse"
       id="clipPath1609-7">
      <path
         sodipodi:nodetypes="cccccc"
         inkscape:connector-curvature="0"
         id="path1611-5"
         d="m 252,116 28,-28 v -8 h -36 v 36 z"
         style="fill:#e74747;stroke:none;stroke-width:0.25px;stroke-linecap:butt;stroke-linejoin:miter;stroke-opacity:1" />
    </clipPath>
    <linearGradient
       inkscape:collect="always"
       id="linearGradient8241">
      <stop
         style="stop-color:#1565c0;stop-opacity:1"
         offset="0"
         id="stop8237" />
      <stop
         style="stop-color:#1565c0;stop-opacity:1"
         offset="0.03748211"
         id="stop3157" />
      <stop
         style="stop-color:#1565c0;stop-opacity:1"
         offset="0.09"
         id="stop21746" />
      <stop
         style="stop-color:#1565c0;stop-opacity:1"
         offset="0.89999998"
         id="stop21940" />
      <stop
         style="stop-color:#42a5f5;stop-opacity:1"
         offset="0.94999999"
         id="stop9351" />
      <stop
         style="stop-color:#1565c0;stop-opacity:1"
         offset="1"
         id="stop8239" />
    </linearGradient>
    <radialGradient
       r="32"
       fy="-76"
       fx="-244"
       cy="-76"
       cx="-244"
       gradientTransform="matrix(0.88333331,0,0,0.88333331,-460.35018,463.11973)"
       gradientUnits="userSpaceOnUse"
       id="radialGradient1103-5"
       xlink:href="#linearGradient1069" />
    <inkscape:path-effect
       effect="spiro"
       id="path-effect35304-9-2"
       is_visible="true" />
    <clipPath
       clipPathUnits="userSpaceOnUse"
       id="clipPath1609-7-7">
      <path
         sodipodi:nodetypes="cccccc"
         inkscape:connector-curvature="0"
         id="path1611-5-0"
         d="m 252,116 28,-28 v -8 h -36 v 36 z"
         style="fill:#e74747;stroke:none;stroke-width:0.25px;stroke-linecap:butt;stroke-linejoin:miter;stroke-opacity:1" />
    </clipPath>
    <clipPath
       clipPathUnits="userSpaceOnUse"
       id="clipPath744">
      <rect
         style="fill:#1e88e5;fill-opacity:1;stroke-width:0.264583"
         id="rect746"
         width="541.86664"
         height="541.86664"
         x="0"
         y="1.5987212e-14"
         rx="79.375"
         ry="79.375" />
    </clipPath>
    <clipPath
       clipPathUnits="userSpaceOnUse"
       id="clipPath62">
      <rect
         style="fill:#1e88e5;fill-opacity:1;stroke-width:0.264583"
         id="rect64"
         width="541.86664"
         height="541.86664"
         x="2.2507105e-05"
         y="-0.42205024"
         rx="79.375"
         ry="79.375" />
    </clipPath>
    <linearGradient
       inkscape:collect="always"
       xlink:href="#linearGradient8241"
       id="linearGradient8243"
       x1="11.5"
       y1="120.5"
       x2="116.5"
       y2="120.5"
       gradientUnits="userSpaceOnUse"
       gradientTransform="matrix(0.82688879,0,0,1,11.079114,1)" />
    <radialGradient
       r="32"
       fy="-76"
       fx="-244"
       cy="-76"
       cx="-244"
       gradientTransform="matrix(0.88333331,0,0,0.88333331,-460.35018,463.11973)"
       gradientUnits="userSpaceOnUse"
       id="radialGradient1103-6"
       xlink:href="#linearGradient1069" />
    <inkscape:path-effect
       effect="spiro"
       id="path-effect35304-9-20"
       is_visible="true" />
    <clipPath
       clipPathUnits="userSpaceOnUse"
       id="clipPath1609-7-2">
      <path
         sodipodi:nodetypes="cccccc"
         inkscape:connector-curvature="0"
         id="path1611-5-3"
         d="m 252,116 28,-28 v -8 h -36 v 36 z"
         style="fill:#e74747;stroke:none;stroke-width:0.25px;stroke-linecap:butt;stroke-linejoin:miter;stroke-opacity:1" />
    </clipPath>
    <clipPath
       clipPathUnits="userSpaceOnUse"
       id="clipPath966">
      <rect
         style="fill:#999999;fill-opacity:1;stroke-width:0.264583"
         id="rect968"
         width="541.86664"
         height="541.86664"
         x="0"
         y="-2.8421709e-14"
         rx="79.375"
         ry="79.375" />
    </clipPath>
    <clipPath
       clipPathUnits="userSpaceOnUse"
       id="clipPath402">
      <rect
         style="fill:#999999;fill-opacity:1;stroke-width:0.264583"
         id="rect404"
         width="541.86664"
         height="541.86664"
         x="1.5908203e-05"
         y="1.5908203e-05"
         rx="79.375"
         ry="79.375" />
    </clipPath>
    <clipPath
       clipPathUnits="userSpaceOnUse"
       id="clipPath2739">
      <rect
         style="fill:#999999;fill-opacity:1;stroke-width:0.264583"
         id="rect2741"
         width="541.86664"
         height="541.86664"
         x="-7.8515623e-06"
         y="1.8626168"
         rx="79.375"
         ry="79.375" />
    </clipPath>
    <linearGradient
       inkscape:collect="always"
       xlink:href="#linearGradient1009"
       id="linearGradient883"
       gradientUnits="userSpaceOnUse"
       gradientTransform="matrix(0.82688879,0,0,1.0071317,11.079114,0.140626)"
       x1="11.5"
       y1="120.5"
       x2="116.5"
       y2="120.5" />
    <linearGradient
       inkscape:collect="always"
       xlink:href="#linearGradient1009"
       id="linearGradient1723"
       gradientUnits="userSpaceOnUse"
       gradientTransform="matrix(0.82688879,0,0,1.0071317,11.079114,-10.400878)"
       x1="11.5"
       y1="120.5"
       x2="116.5"
       y2="120.5" />
    <linearGradient
       inkscape:collect="always"
       xlink:href="#linearGradient1009"
       id="linearGradient1727"
       gradientUnits="userSpaceOnUse"
       gradientTransform="matrix(0.82688879,0,0,1.0071317,11.079114,-6.400878)"
       x1="11.5"
       y1="120.5"
       x2="116.5"
       y2="120.5" />
    <clipPath
       clipPathUnits="userSpaceOnUse"
       id="clipPath5331">
      <g
         aria-label="@"
         id="g5335"
         style="font-size:55.6805px;line-height:1.25;display:block;fill:#75a8ff;fill-opacity:1;stroke-width:1.39201"
         transform="translate(0,2)">
        <path
           d="m 56.985383,60.163136 q 0,3.887848 1.93033,6.117243 1.93033,2.202207 5.30161,2.202207 3.344093,0 5.247235,-2.229395 1.930329,-2.229395 1.930329,-6.090055 0,-3.806284 -1.957517,-6.035679 -1.957518,-2.256583 -5.274423,-2.256583 -3.289717,0 -5.247234,2.229395 -1.93033,2.229395 -1.93033,6.062867 z m 14.817321,8.129136 q -1.631265,2.093456 -3.751909,3.099402 -2.093456,0.978759 -4.893794,0.978759 -4.676292,0 -7.612568,-3.37128 -2.909089,-3.398468 -2.909089,-8.836017 0,-5.437549 2.936276,-8.836017 2.936277,-3.398468 7.585381,-3.398468 2.800338,0 4.920982,1.033135 2.120644,1.005946 3.724721,3.072215 v -3.561595 h 3.887847 v 20.01018 q 3.969411,-0.598131 6.198806,-3.61597 2.256582,-3.045028 2.256582,-7.857258 0,-2.909089 -0.870007,-5.464737 -0.84282,-2.555648 -2.582836,-4.730667 -2.827525,-3.561595 -6.905687,-5.437549 -4.050974,-1.903142 -8.836017,-1.903142 -3.344092,0 -6.416308,0.897195 -3.072215,0.870008 -5.682238,2.610024 -4.268476,2.77315 -6.688185,7.286315 -2.392522,4.485978 -2.392522,9.733213 0,4.322851 1.549702,8.101947 1.576889,3.779097 4.540353,6.660998 2.854713,2.827525 6.606622,4.295663 3.751909,1.495326 8.020384,1.495326 3.507219,0 6.8785,-1.196261 3.398468,-1.169073 6.225993,-3.37128 l 2.446897,3.01784 q -3.398468,2.637211 -7.422254,4.023786 -3.996598,1.413763 -8.129136,1.413763 -5.029732,0 -9.488522,-1.794391 -4.45879,-1.767204 -7.938822,-5.165672 -3.480031,-3.398468 -5.30161,-7.857258 -1.821579,-4.485978 -1.821579,-9.624461 0,-4.94817 1.848767,-9.434148 1.848767,-4.485977 5.274422,-7.884445 3.507219,-3.452844 8.101948,-5.274423 4.594729,-1.848766 9.733213,-1.848766 5.763801,0 10.684783,2.365333 4.948169,2.365334 8.292262,6.715373 2.039081,2.664399 3.099403,5.79099 1.08751,3.12659 1.08751,6.470683 0,7.150377 -4.322852,11.282914 -4.322851,4.132537 -11.935419,4.295663 z"
           id="path5333"
           style="fill:#75a8ff;fill-opacity:1" />
      </g>
    </clipPath>
    <mask
       maskUnits="userSpaceOnUse"
       id="mask2399">
      <g
         aria-label="@"
         id="g2403"
         style="font-size:55.6805px;line-height:1.25;fill:#75a8ff;fill-opacity:1;stroke-width:1.39201"
         transform="translate(0,2)">
        <path
           d="m 56.985383,60.163136 q 0,3.887848 1.93033,6.117243 1.93033,2.202207 5.30161,2.202207 3.344093,0 5.247235,-2.229395 1.930329,-2.229395 1.930329,-6.090055 0,-3.806284 -1.957517,-6.035679 -1.957518,-2.256583 -5.274423,-2.256583 -3.289717,0 -5.247234,2.229395 -1.93033,2.229395 -1.93033,6.062867 z m 14.817321,8.129136 q -1.631265,2.093456 -3.751909,3.099402 -2.093456,0.978759 -4.893794,0.978759 -4.676292,0 -7.612568,-3.37128 -2.909089,-3.398468 -2.909089,-8.836017 0,-5.437549 2.936276,-8.836017 2.936277,-3.398468 7.585381,-3.398468 2.800338,0 4.920982,1.033135 2.120644,1.005946 3.724721,3.072215 v -3.561595 h 3.887847 v 20.01018 q 3.969411,-0.598131 6.198806,-3.61597 2.256582,-3.045028 2.256582,-7.857258 0,-2.909089 -0.870007,-5.464737 -0.84282,-2.555648 -2.582836,-4.730667 -2.827525,-3.561595 -6.905687,-5.437549 -4.050974,-1.903142 -8.836017,-1.903142 -3.344092,0 -6.416308,0.897195 -3.072215,0.870008 -5.682238,2.610024 -4.268476,2.77315 -6.688185,7.286315 -2.392522,4.485978 -2.392522,9.733213 0,4.322851 1.549702,8.101947 1.576889,3.779097 4.540353,6.660998 2.854713,2.827525 6.606622,4.295663 3.751909,1.495326 8.020384,1.495326 3.507219,0 6.8785,-1.196261 3.398468,-1.169073 6.225993,-3.37128 l 2.446897,3.01784 q -3.398468,2.637211 -7.422254,4.023786 -3.996598,1.413763 -8.129136,1.413763 -5.029732,0 -9.488522,-1.794391 -4.45879,-1.767204 -7.938822,-5.165672 -3.480031,-3.398468 -5.30161,-7.857258 -1.821579,-4.485978 -1.821579,-9.624461 0,-4.94817 1.848767,-9.434148 1.848767,-4.485977 5.274422,-7.884445 3.507219,-3.452844 8.101948,-5.274423 4.594729,-1.848766 9.733213,-1.848766 5.763801,0 10.684783,2.365333 4.948169,2.365334 8.292262,6.715373 2.039081,2.664399 3.099403,5.79099 1.08751,3.12659 1.08751,6.470683 0,7.150377 -4.322852,11.282914 -4.322851,4.132537 -11.935419,4.295663 z"
           id="path2401"
           style="fill:#75a8ff;fill-opacity:1" />
      </g>
      <path
         id="mask-powermask-path-effect2405_box"
         style="fill:#ffffff;fill-opacity:1"
         d="M 38.938667,34.558228 H 89.060975 V 85.441792 H 38.938667 Z" />
    </mask>
    <filter
       id="mask-powermask-path-effect2405_inverse"
       inkscape:label="filtermask-powermask-path-effect2405"
       style="color-interpolation-filters:sRGB"
       height="100"
       width="100"
       x="-50"
       y="-50">
      <feColorMatrix
         id="mask-powermask-path-effect2405_primitive1"
         values="1"
         type="saturate"
         result="fbSourceGraphic" />
      <feColorMatrix
         id="mask-powermask-path-effect2405_primitive2"
         values="-1 0 0 0 1 0 -1 0 0 1 0 0 -1 0 1 0 0 0 1 0 "
         in="fbSourceGraphic" />
    </filter>
    <linearGradient
       inkscape:collect="always"
       xlink:href="#linearGradient655"
       id="linearGradient657"
       x1="22.947265"
       y1="113.2295"
       x2="32.337929"
       y2="113.2295"
       gradientUnits="userSpaceOnUse" />
  </defs>
  <g
     inkscape:groupmode="layer"
     id="layer2"
     inkscape:label="Layer 1">
    <rect
       style="fill:url(#linearGradient883);fill-opacity:1;stroke-width:0.912571"
       id="rect881"
       width="86.823326"
       height="105.74883"
       x="20.588337"
       y="15.751167"
       rx="8"
       ry="8.0570536" />
    <rect
       style="fill:#e6e6e6;fill-opacity:1;stroke-width:0.881099"
       id="rect1729"
       width="86.823326"
       height="98.580765"
       x="20.588337"
       y="18.377728"
       rx="8"
       ry="7.5109153" />
    <rect
       style="fill:#cccccc;fill-opacity:1;stroke-width:0.881099"
       id="rect1715"
       width="86.823326"
       height="98.580765"
       x="20.588337"
       y="14.377728"
       rx="8"
       ry="7.5109153" />
    <rect
       style="fill:url(#linearGradient1727);fill-opacity:1;stroke-width:0.912571"
       id="rect1725"
       width="86.823326"
       height="105.74883"
       x="20.588337"
       y="9.2096634"
       rx="8"
       ry="8.0570536" />
    <rect
       style="fill:#e6e6e6;fill-opacity:1;stroke-width:0.881099"
       id="rect1717"
       width="86.823326"
       height="98.580765"
       x="20.588337"
       y="14.377728"
       rx="8"
       ry="7.5109153" />
    <path
       id="rect1721"
       style="fill:url(#linearGradient1723);fill-opacity:1;stroke-width:0.912571"
       d="m 20.587891,95.570312 v 7.332028 c 0,4.46361 3.568004,8.05664 8,8.05664 h 70.824218 c 4.431991,0 8.000001,-3.59303 8.000001,-8.05664 v -7.332028 c 0,4.161048 -3.56801,7.509768 -8.000001,7.509768 H 28.587891 c -4.431996,0 -8,-3.34872 -8,-7.509768 z" />
    <path
       id="rect745"
       style="fill:#e6e6e6;fill-opacity:1;stroke-width:0.881099"
       d="m 20.587891,95.570312 v 5.876958 c 0,4.16104 3.568004,7.51171 8,7.51171 h 70.824218 c 4.431991,0 8.000001,-3.35067 8.000001,-7.51171 v -5.876958 c 0,4.161048 -3.56801,7.509768 -8.000001,7.509768 H 28.587891 c -4.431996,0 -8,-3.34872 -8,-7.509768 z" />
    <path
       id="rect440"
       style="fill:url(#linearGradient8243);fill-opacity:1;stroke-width:0.909334"
       d="m 28.587891,8.376953 c -4.431976,0 -8,3.350696 -8,7.511719 V 99.44727 111.44336 113.5 c 0,0.25507 0.01386,0.50716 0.03711,0.75586 0.003,0.0325 0.0064,0.0652 0.0098,0.0977 0.02482,0.23462 0.05891,0.46543 0.103515,0.69336 0.0075,0.0384 0.01541,0.077 0.02344,0.11523 0.04512,0.21377 0.100309,0.4239 0.162109,0.63086 0.01728,0.0582 0.0342,0.11617 0.05273,0.17383 0.06075,0.1876 0.127222,0.37158 0.201172,0.55273 0.03156,0.0777 0.0657,0.15398 0.09961,0.23047 0.07181,0.16112 0.14657,0.32134 0.228515,0.47656 0.0495,0.0942 0.103154,0.18539 0.15625,0.27735 0.05135,0.0885 0.105547,0.17547 0.160157,0.26171 0.0913,0.14492 0.186953,0.28545 0.287109,0.42383 0.04003,0.0551 0.0797,0.11003 0.121094,0.16407 0.14137,0.18518 0.290548,0.36328 0.447265,0.53515 0.014,0.0153 0.0269,0.0317 0.04102,0.0469 0.183416,0.19803 0.377552,0.3859 0.580078,0.56445 1.40875,1.24197 3.254756,2 5.289063,2 h 70.824218 c 4.431991,0 8.000001,-3.568 8.000001,-8 v -2.05664 c 0,4.46354 -3.56801,8.05664 -8.000001,8.05664 H 66.376953 28.806641 27.355469 c -1.120806,0 -2.13791,-0.57877 -2.914063,-1.52734 -0.111582,-0.13636 -0.219258,-0.2804 -0.320312,-0.43164 -0.0078,-0.0117 -0.01378,-0.0235 -0.02148,-0.0352 -0.08634,-0.13126 -0.168203,-0.26676 -0.246093,-0.4082 -0.02282,-0.0413 -0.04436,-0.0849 -0.06641,-0.12696 -0.05518,-0.10569 -0.107903,-0.21154 -0.158203,-0.32226 -0.03009,-0.0659 -0.06154,-0.13357 -0.08984,-0.20117 -0.02926,-0.0702 -0.05866,-0.13884 -0.08594,-0.21094 -0.04515,-0.11855 -0.08544,-0.24021 -0.125,-0.36328 -0.01868,-0.0584 -0.0373,-0.11844 -0.05469,-0.17774 -0.04075,-0.13835 -0.07786,-0.27859 -0.111329,-0.42187 -0.01021,-0.0439 -0.0198,-0.0882 -0.0293,-0.13282 -0.03404,-0.15804 -0.06497,-0.31718 -0.08984,-0.48046 -0.0044,-0.0291 -0.0076,-0.0586 -0.01172,-0.0879 -0.02457,-0.17408 -0.04296,-0.35207 -0.05664,-0.53125 -0.0019,-0.0248 -0.0042,-0.0493 -0.0059,-0.0742 -0.01289,-0.18994 -0.02148,-0.38137 -0.02148,-0.57618 v -0.43164 l 0.09961,-1.43359 c 0.413573,-2.61164 2.176011,-4.56641 4.308594,-4.56641 h 0.05469 1.109375 0.06836 H 64 h 2.376953 2.892578 4.38086 25.761718 c 4.431991,0 8.000001,-3.35068 8.000001,-7.51171 V 15.888672 c 0,-4.161023 -3.56801,-7.511719 -8.000001,-7.511719 z" />
    <path
       id="rect387"
       style="fill:#448aff;fill-opacity:1;stroke-width:0.881099"
       d="M 28.587891 6.5 C 24.155895 6.5 20.587891 9.8506758 20.587891 14.011719 L 20.587891 27.136719 L 20.587891 97.570312 L 20.587891 110.69531 C 20.587891 111.01786 20.616583 111.33292 20.658203 111.64453 C 21.152588 107.93518 24.498748 105.08008 28.587891 105.08008 L 30.701172 105.08008 L 99.412109 105.08008 C 103.8441 105.08008 107.41211 101.73136 107.41211 97.570312 L 107.41211 14.011719 C 107.41211 9.8506758 103.8441 6.5 99.412109 6.5 L 28.587891 6.5 z " />
    <path
       id="path3"
       style="font-size:55.6805px;line-height:1.25;fill:#1873da;fill-opacity:1;stroke-width:1.39201"
       d="M 68.669922 36.558594 C 65.244266 36.558594 61.9987 37.173739 58.935547 38.40625 C 55.872394 39.620636 53.17213 41.379745 50.833984 43.681641 C 48.550214 45.947286 46.793058 48.575755 45.560547 51.566406 C 44.328036 54.557058 43.710938 57.70122 43.710938 61 C 43.710938 64.425655 44.318817 67.634348 45.533203 70.625 C 46.747589 73.597527 48.513964 76.216777 50.833984 78.482422 C 53.154006 80.748067 55.800911 82.468348 58.773438 83.646484 C 61.745964 84.842745 64.908564 85.441406 68.261719 85.441406 C 71.016744 85.441406 73.726226 84.969852 76.390625 84.027344 C 79.073149 83.10296 81.546855 81.762047 83.8125 80.003906 L 83.8125 78.003906 L 82.326172 78.169922 L 81.365234 76.986328 C 79.480218 78.454466 77.40627 79.57804 75.140625 80.357422 C 72.893104 81.154929 70.599865 81.554688 68.261719 81.554688 C 65.416069 81.554687 62.741507 81.055478 60.240234 80.058594 C 57.738962 79.079835 55.537908 77.648689 53.634766 75.763672 C 51.659123 73.842405 50.145009 71.620961 49.09375 69.101562 C 48.060615 66.582165 47.544922 63.881901 47.544922 61 C 47.544922 57.501843 48.342485 54.25823 49.9375 51.267578 C 51.550639 48.258801 53.779349 45.829235 56.625 43.980469 C 58.365015 42.820458 60.258497 41.951099 62.306641 41.371094 C 64.354785 40.772964 66.495215 40.472656 68.724609 40.472656 C 71.914638 40.472656 74.859898 41.108192 77.560547 42.376953 C 80.279322 43.627589 82.579827 45.440056 84.464844 47.814453 C 85.624854 49.264466 86.486948 50.841157 87.048828 52.544922 C 87.628833 54.248687 87.917969 56.070373 87.917969 58.009766 C 87.917969 61.217919 87.166497 63.837169 85.662109 65.867188 C 84.175846 67.87908 82.109165 69.083668 79.462891 69.482422 L 79.462891 49.472656 L 75.574219 49.472656 L 75.574219 53.033203 C 74.504834 51.65569 73.263372 50.631568 71.849609 49.960938 C 70.435847 49.272181 68.79658 48.927734 66.929688 48.927734 C 63.830285 48.927734 61.301268 50.060527 59.34375 52.326172 C 57.386233 54.591817 56.408203 57.53903 56.408203 61.164062 C 56.408203 64.789095 57.377014 67.734355 59.316406 70 C 61.273924 72.24752 63.812159 73.371094 66.929688 73.371094 C 68.796579 73.371094 70.426628 73.045084 71.822266 72.392578 C 73.236028 71.721947 74.486709 70.688606 75.574219 69.292969 L 75.574219 73.478516 C 80.649264 73.369765 84.627865 71.938618 87.509766 69.183594 C 90.391667 66.428569 91.833984 62.667309 91.833984 57.900391 C 91.833984 55.670995 91.4711 53.514081 90.746094 51.429688 C 90.039212 49.345294 89.005872 47.414938 87.646484 45.638672 C 85.417089 42.738646 82.652295 40.500717 79.353516 38.923828 C 76.072861 37.346939 72.512456 36.558594 68.669922 36.558594 z M 67.935547 52.871094 C 70.146817 52.871094 71.903972 53.622564 73.208984 55.126953 C 74.513996 56.613216 75.167969 58.62654 75.167969 61.164062 C 75.167969 63.737836 74.523214 65.767643 73.236328 67.253906 C 71.967567 68.74017 70.21963 69.482422 67.990234 69.482422 C 65.742714 69.482422 63.974387 68.749388 62.6875 67.28125 C 61.400613 65.794987 60.757812 63.755961 60.757812 61.164062 C 60.757813 58.608414 61.400613 56.585873 62.6875 55.099609 C 63.992511 53.613346 65.742402 52.871094 67.935547 52.871094 z " />
    <g
       aria-label="@"
       id="text6566"
       style="font-size:55.6805px;line-height:1.25;fill:#c7dbff;fill-opacity:1;stroke-width:1.39201"
       transform="translate(3.772318,-1)">
      <path
         d="m 56.985383,60.163136 q 0,3.887848 1.93033,6.117243 1.93033,2.202207 5.30161,2.202207 3.344093,0 5.247235,-2.229395 1.930329,-2.229395 1.930329,-6.090055 0,-3.806284 -1.957517,-6.035679 -1.957518,-2.256583 -5.274423,-2.256583 -3.289717,0 -5.247234,2.229395 -1.93033,2.229395 -1.93033,6.062867 z m 14.817321,8.129136 q -1.631265,2.093456 -3.751909,3.099402 -2.093456,0.978759 -4.893794,0.978759 -4.676292,0 -7.612568,-3.37128 -2.909089,-3.398468 -2.909089,-8.836017 0,-5.437549 2.936276,-8.836017 2.936277,-3.398468 7.585381,-3.398468 2.800338,0 4.920982,1.033135 2.120644,1.005946 3.724721,3.072215 v -3.561595 h 3.887847 v 20.01018 q 3.969411,-0.598131 6.198806,-3.61597 2.256582,-3.045028 2.256582,-7.857258 0,-2.909089 -0.870007,-5.464737 -0.84282,-2.555648 -2.582836,-4.730667 -2.827525,-3.561595 -6.905687,-5.437549 -4.050974,-1.903142 -8.836017,-1.903142 -3.344092,0 -6.416308,0.897195 -3.072215,0.870008 -5.682238,2.610024 -4.268476,2.77315 -6.688185,7.286315 -2.392522,4.485978 -2.392522,9.733213 0,4.322851 1.549702,8.101947 1.576889,3.779097 4.540353,6.660998 2.854713,2.827525 6.606622,4.295663 3.751909,1.495326 8.020384,1.495326 3.507219,0 6.8785,-1.196261 3.398468,-1.169073 6.225993,-3.37128 l 2.446897,3.01784 q -3.398468,2.637211 -7.422254,4.023786 -3.996598,1.413763 -8.129136,1.413763 -5.029732,0 -9.488522,-1.794391 -4.45879,-1.767204 -7.938822,-5.165672 -3.480031,-3.398468 -5.30161,-7.857258 -1.821579,-4.485978 -1.821579,-9.624461 0,-4.94817 1.848767,-9.434148 1.848767,-4.485977 5.274422,-7.884445 3.507219,-3.452844 8.101948,-5.274423 4.594729,-1.848766 9.733213,-1.848766 5.763801,0 10.684783,2.365333 4.948169,2.365334 8.292262,6.715373 2.039081,2.664399 3.099403,5.79099 1.08751,3.12659 1.08751,6.470683 0,7.150377 -4.322852,11.282914 -4.322851,4.132537 -11.935419,4.295663 z"
         id="path5321"
         style="fill:#c7dbff;fill-opacity:1" />
    </g>
    <path
       id="path4"
       style="mix-blend-mode:normal;fill:#649fff;fill-opacity:1;stroke-width:0.881099"
       d="m 107.41211,95.570312 c 0,4.161048 -3.56801,7.509768 -8.000001,7.509768 H 30.701172 28.587891 c -4.089143,0 -7.435303,2.8551 -7.929688,6.56445 -0.04162,-0.31161 -0.07031,-0.62667 -0.07031,-0.94922 v 2 c 0,0.32255 0.02869,0.63761 0.07031,0.94922 0.494385,-3.70935 3.840545,-6.56445 7.929688,-6.56445 h 2.113281 68.710937 c 4.431991,0 8.000001,-3.34872 8.000001,-7.509768 z" />
    <rect
       style="fill:#327ce7;fill-opacity:1;stroke-width:10.5861;stroke-linecap:square;stroke-linejoin:round;paint-order:markers stroke fill"
       id="rect4246"
       width="3.5800667"
       height="98.580765"
       x="29.112303"
       y="6.5"
       rx="0"
       ry="0" />
    <path
       id="path361"
       style="fill:#b7d1ff;fill-opacity:1;stroke-width:0.881099"
       d="M 28.587891 6.5 C 24.155903 6.5 20.587891 9.8506836 20.587891 14.011719 L 20.587891 15.011719 L 20.587891 16.011719 L 20.587891 17.011719 C 20.587891 12.850684 24.155903 9.5 28.587891 9.5 L 99.412109 9.5 C 103.8441 9.5 107.41211 12.850684 107.41211 17.011719 L 107.41211 16.011719 L 107.41211 15.011719 L 107.41211 14.011719 C 107.41211 9.8506836 103.8441 6.5 99.412109 6.5 L 28.587891 6.5 z " />
    <path
       id="rect1127"
       style="fill:#71a1e7;fill-opacity:1;stroke-width:10.5861;stroke-linecap:square;stroke-linejoin:round;paint-order:markers stroke fill"
       d="M 29.111328 6.5 L 29.111328 7.5 L 29.111328 8.5 L 29.111328 9.5 L 32.691406 9.5 L 32.691406 8.5 L 32.691406 7.5 L 32.691406 6.5 L 29.111328 6.5 z " />
    <path
       style="fill:url(#linearGradient657);fill-opacity:0.233089;stroke-width:1.5;stroke-linecap:round;stroke-linejoin:round;paint-order:markers stroke fill;opacity:1"
       d="m 27.355469,106.95898 c -2.132583,0 -3.895021,1.95477 -4.308594,4.56641 l -0.09961,1.43359 v 0.43164 c 0,0.19481 0.0086,0.38624 0.02148,0.57618 0.0017,0.0249 0.004,0.0494 0.0059,0.0742 0.01368,0.17918 0.03207,0.35717 0.05664,0.53125 0.0041,0.0293 0.0073,0.0588 0.01172,0.0879 0.02487,0.16328 0.0558,0.32242 0.08984,0.48046 0.0095,0.0446 0.01909,0.0889 0.0293,0.13282 0.03347,0.14328 0.07058,0.28352 0.111329,0.42187 0.01739,0.0593 0.03601,0.11932 0.05469,0.17774 0.03956,0.12307 0.07985,0.24473 0.125,0.36328 0.02728,0.0721 0.05668,0.14071 0.08594,0.21094 0.0283,0.0676 0.05975,0.13529 0.08984,0.20117 0.0503,0.11072 0.103021,0.21657 0.158203,0.32226 0.02205,0.0421 0.04359,0.0857 0.06641,0.12696 0.07789,0.14144 0.159749,0.27694 0.246093,0.4082 0.0077,0.0117 0.0137,0.0235 0.02148,0.0352 0.101054,0.15124 0.20873,0.29528 0.320312,0.43164 0.776153,0.94857 1.793257,1.52734 2.914063,1.52734 h 4.982422 v -12.54102 z"
       id="rect579" />
    <path
       id="path1"
       style="font-size:55.6805px;line-height:1.25;fill:#ffffff;fill-opacity:1;stroke-width:1.39201"
       d="M 68.669922 32.558594 C 65.244266 32.558594 61.9987 33.173739 58.935547 34.40625 C 55.872394 35.620636 53.17213 37.379745 50.833984 39.681641 C 48.550214 41.947286 46.793058 44.575755 45.560547 47.566406 C 44.328036 50.557058 43.710938 53.70122 43.710938 57 C 43.710938 57.342747 43.716359 57.683092 43.728516 58.021484 C 43.838765 55.077884 44.450442 52.260043 45.560547 49.566406 C 46.793058 46.575755 48.550214 43.947286 50.833984 41.681641 C 53.17213 39.379745 55.872394 37.620636 58.935547 36.40625 C 61.9987 35.173739 65.244266 34.558594 68.669922 34.558594 C 72.512456 34.558594 76.072861 35.346939 79.353516 36.923828 C 82.652295 38.500717 85.417089 40.738646 87.646484 43.638672 C 89.005872 45.414938 90.039212 47.345294 90.746094 49.429688 C 91.365404 51.210203 91.720259 53.043366 91.810547 54.929688 C 91.825956 54.591876 91.833984 54.24896 91.833984 53.900391 C 91.833984 51.670995 91.4711 49.51408 90.746094 47.429688 C 90.039212 45.345292 89.005872 43.414938 87.646484 41.638672 C 85.417089 38.738646 82.652295 36.500717 79.353516 34.923828 C 76.072861 33.346939 72.512456 32.558594 68.669922 32.558594 z M 66.929688 44.927734 C 63.830285 44.927734 61.301268 46.060527 59.34375 48.326172 C 57.386233 50.591817 56.408203 53.539031 56.408203 57.164062 C 56.408203 57.50414 56.416525 57.837903 56.433594 58.166016 C 56.599314 54.994565 57.569022 52.380256 59.34375 50.326172 C 61.301268 48.060527 63.830285 46.927734 66.929688 46.927734 C 68.79658 46.927734 70.435847 47.272181 71.849609 47.960938 C 73.263372 48.631568 74.504834 49.65569 75.574219 51.033203 L 75.574219 49.033203 C 74.504834 47.65569 73.263372 46.631567 71.849609 45.960938 C 70.435847 45.272181 68.79658 44.927734 66.929688 44.927734 z M 75.574219 45.472656 L 75.574219 47.472656 L 79.462891 47.472656 L 79.462891 45.472656 L 75.574219 45.472656 z M 87.892578 55.017578 C 87.748942 57.77027 87.005667 60.054192 85.662109 61.867188 C 84.175846 63.87908 82.109165 65.083668 79.462891 65.482422 L 79.462891 67.482422 C 82.109165 67.083668 84.175846 65.87908 85.662109 63.867188 C 87.166497 61.837169 87.917969 59.217919 87.917969 56.009766 C 87.917969 55.675849 87.909772 55.344509 87.892578 55.017578 z M 47.566406 58.011719 C 47.552056 58.338966 47.544922 58.668187 47.544922 59 C 47.544922 61.881901 48.060615 64.582166 49.09375 67.101562 C 50.145009 69.620961 51.659123 71.842405 53.634766 73.763672 C 55.537908 75.648689 57.738962 77.079835 60.240234 78.058594 C 62.741507 79.055478 65.416069 79.554687 68.261719 79.554688 C 70.599865 79.554688 72.893104 79.154929 75.140625 78.357422 C 77.40627 77.57804 79.480218 76.454466 81.365234 74.986328 L 82.798828 76.753906 L 83.8125 78.003906 L 83.8125 76.003906 L 81.365234 72.986328 C 79.480218 74.454466 77.40627 75.57804 75.140625 76.357422 C 72.893104 77.154929 70.599865 77.554688 68.261719 77.554688 C 65.416069 77.554687 62.741507 77.055478 60.240234 76.058594 C 57.738962 75.079835 55.537908 73.648689 53.634766 71.763672 C 51.659123 69.842405 50.145009 67.620962 49.09375 65.101562 C 48.182378 62.879096 47.673818 60.516277 47.566406 58.011719 z M 60.791016 58.169922 C 60.768162 58.491505 60.757812 58.823488 60.757812 59.164062 C 60.757812 61.755961 61.400613 63.794987 62.6875 65.28125 C 63.974387 66.749388 65.742714 67.482422 67.990234 67.482422 C 70.21963 67.482422 71.967567 66.74017 73.236328 65.253906 C 74.523214 63.767643 75.167969 61.737837 75.167969 59.164062 C 75.167969 58.824731 75.156149 58.494361 75.132812 58.173828 C 74.982852 60.274279 74.349917 61.967789 73.236328 63.253906 C 71.967567 64.74017 70.21963 65.482422 67.990234 65.482422 C 65.742714 65.482422 63.974387 64.749388 62.6875 63.28125 C 61.572108 61.993051 60.939657 60.288709 60.791016 58.169922 z " />
  </g>
</svg>
