<?xml version="1.0" encoding="UTF-8" standalone="no"?>
<!-- Created with Inkscape (http://www.inkscape.org/) -->

<svg
   width="128"
   height="128"
   viewBox="0 0 128 128"
   version="1.1"
   id="svg5"
   inkscape:version="1.4.3 (0d15f75042, 2025-12-25)"
   sodipodi:docname="org.DolphinEmu.dolphin-emu.svg"
   inkscape:export-filename="/home/retro/.icons/skeuowaita/scalable/apps/skeuowaita.png"
   inkscape:export-xdpi="1536"
   inkscape:export-ydpi="1536"
   xml:space="preserve"
   xmlns:inkscape="http://www.inkscape.org/namespaces/inkscape"
   xmlns:sodipodi="http://sodipodi.sourceforge.net/DTD/sodipodi-0.dtd"
   xmlns:xlink="http://www.w3.org/1999/xlink"
   xmlns="http://www.w3.org/2000/svg"
   xmlns:svg="http://www.w3.org/2000/svg"><sodipodi:namedview
     id="namedview7"
     pagecolor="#ffffff"
     bordercolor="#666666"
     borderopacity="1"
     inkscape:pageshadow="2"
     inkscape:pageopacity="0.0"
     inkscape:pagecheckerboard="true"
     inkscape:document-units="px"
     showgrid="false"
     inkscape:showpageshadow="false"
     showborder="true"
     inkscape:snap-page="true"
     inkscape:zoom="8.1640788"
     inkscape:cx="58.30419"
     inkscape:cy="85.190261"
     inkscape:window-width="1728"
     inkscape:window-height="1043"
     inkscape:window-x="0"
     inkscape:window-y="0"
     inkscape:window-maximized="1"
     inkscape:current-layer="layer2"
     inkscape:snap-bbox="true"
     inkscape:snap-bbox-midpoints="true"
     inkscape:snap-bbox-edge-midpoints="true"
     inkscape:bbox-nodes="true"
     inkscape:bbox-paths="true"
     inkscape:snap-intersection-paths="true"
     inkscape:object-paths="true"
     inkscape:snap-smooth-nodes="true"
     inkscape:snap-midpoints="true"
     inkscape:deskcolor="#d1d1d1" /><defs
     id="defs2"><linearGradient
       inkscape:collect="always"
       id="linearGradient1668"><stop
         style="stop-color:#ffffff;stop-opacity:1;"
         offset="0"
         id="stop1664" /><stop
         style="stop-color:#e7f8f8;stop-opacity:1;"
         offset="1"
         id="stop1666" /></linearGradient><linearGradient
       inkscape:collect="always"
       id="linearGradient1522"><stop
         style="stop-color:#13aaaa;stop-opacity:1;"
         offset="0"
         id="stop1518" /><stop
         style="stop-color:#13aaaa;stop-opacity:1;"
         offset="0.34999999"
         id="stop1617" /><stop
         style="stop-color:#23c6c6;stop-opacity:1;"
         offset="0.5"
         id="stop1613" /><stop
         style="stop-color:#13aaaa;stop-opacity:1;"
         offset="0.64999998"
         id="stop1615" /><stop
         style="stop-color:#13aaaa;stop-opacity:1;"
         offset="1"
         id="stop1520" /></linearGradient><linearGradient
       y2="236"
       x2="96"
       y1="236"
       x1="32"
       gradientTransform="translate(604.81684,170.58641)"
       gradientUnits="userSpaceOnUse"
       id="linearGradient1099"
       xlink:href="#linearGradient1036" /><linearGradient
       id="linearGradient1036"><stop
         id="stop1032"
         offset="0"
         style="stop-color:#d5d3cf;stop-opacity:1;" /><stop
         id="stop1034"
         offset="1"
         style="stop-color:#f6f5f4;stop-opacity:1" /></linearGradient><radialGradient
       r="32"
       fy="-76"
       fx="-244"
       cy="-76"
       cx="-244"
       gradientTransform="matrix(0.88333331,0,0,0.88333331,-460.35018,463.11973)"
       gradientUnits="userSpaceOnUse"
       id="radialGradient1103"
       xlink:href="#linearGradient1069" /><linearGradient
       id="linearGradient1069"><stop
         id="stop1065"
         offset="0"
         style="stop-color:#d5d3cf;stop-opacity:1" /><stop
         id="stop1067-1"
         offset="1"
         style="stop-color:#949390;stop-opacity:1" /></linearGradient><linearGradient
       gradientUnits="userSpaceOnUse"
       y2="232"
       x2="64"
       y1="262.5"
       x1="64"
       id="linearGradient1027"
       xlink:href="#linearGradient1025"
       gradientTransform="translate(-470.5864,432.81685)" /><linearGradient
       id="linearGradient1025"><stop
         id="stop1021"
         offset="0"
         style="stop-color:#9a9996;stop-opacity:1" /><stop
         id="stop1023"
         offset="1"
         style="stop-color:#77767b;stop-opacity:1" /></linearGradient><inkscape:path-effect
       effect="spiro"
       id="path-effect35304-9"
       is_visible="true" /><clipPath
       clipPathUnits="userSpaceOnUse"
       id="clipPath1609-7"><path
         sodipodi:nodetypes="cccccc"
         inkscape:connector-curvature="0"
         id="path1611-5"
         d="m 252,116 28,-28 v -8 h -36 v 36 z"
         style="fill:#e74747;stroke:none;stroke-width:0.25px;stroke-linecap:butt;stroke-linejoin:miter;stroke-opacity:1" /></clipPath><radialGradient
       r="32"
       fy="-76"
       fx="-244"
       cy="-76"
       cx="-244"
       gradientTransform="matrix(0.88333331,0,0,0.88333331,-460.35018,463.11973)"
       gradientUnits="userSpaceOnUse"
       id="radialGradient1103-5"
       xlink:href="#linearGradient1069" /><inkscape:path-effect
       effect="spiro"
       id="path-effect35304-9-2"
       is_visible="true" /><clipPath
       clipPathUnits="userSpaceOnUse"
       id="clipPath1609-7-7"><path
         sodipodi:nodetypes="cccccc"
         inkscape:connector-curvature="0"
         id="path1611-5-0"
         d="m 252,116 28,-28 v -8 h -36 v 36 z"
         style="fill:#e74747;stroke:none;stroke-width:0.25px;stroke-linecap:butt;stroke-linejoin:miter;stroke-opacity:1" /></clipPath><clipPath
       clipPathUnits="userSpaceOnUse"
       id="clipPath744"><rect
         style="fill:#1e88e5;fill-opacity:1;stroke-width:0.264583"
         id="rect746"
         width="541.86664"
         height="541.86664"
         x="0"
         y="1.5987212e-14"
         rx="79.375"
         ry="79.375" /></clipPath><clipPath
       clipPathUnits="userSpaceOnUse"
       id="clipPath62"><rect
         style="fill:#1e88e5;fill-opacity:1;stroke-width:0.264583"
         id="rect64"
         width="541.86664"
         height="541.86664"
         x="2.2507105e-05"
         y="-0.42205024"
         rx="79.375"
         ry="79.375" /></clipPath><radialGradient
       r="32"
       fy="-76"
       fx="-244"
       cy="-76"
       cx="-244"
       gradientTransform="matrix(0.88333331,0,0,0.88333331,-460.35018,463.11973)"
       gradientUnits="userSpaceOnUse"
       id="radialGradient1103-6"
       xlink:href="#linearGradient1069" /><inkscape:path-effect
       effect="spiro"
       id="path-effect35304-9-20"
       is_visible="true" /><clipPath
       clipPathUnits="userSpaceOnUse"
       id="clipPath1609-7-2"><path
         sodipodi:nodetypes="cccccc"
         inkscape:connector-curvature="0"
         id="path1611-5-3"
         d="m 252,116 28,-28 v -8 h -36 v 36 z"
         style="fill:#e74747;stroke:none;stroke-width:0.25px;stroke-linecap:butt;stroke-linejoin:miter;stroke-opacity:1" /></clipPath><clipPath
       clipPathUnits="userSpaceOnUse"
       id="clipPath961"><rect
         style="fill:#00c853;stroke:none;stroke-width:0.529037"
         id="rect963"
         width="541.86664"
         height="541.86664"
         x="1.4210855e-14"
         y="2.717972e-05"
         rx="79.375"
         ry="79.375" /></clipPath><radialGradient
       r="32"
       fy="-76"
       fx="-244"
       cy="-76"
       cx="-244"
       gradientTransform="matrix(0.88333331,0,0,0.88333331,-460.35018,463.11973)"
       gradientUnits="userSpaceOnUse"
       id="radialGradient1103-56"
       xlink:href="#linearGradient1069" /><inkscape:path-effect
       effect="spiro"
       id="path-effect35304-9-7"
       is_visible="true" /><clipPath
       clipPathUnits="userSpaceOnUse"
       id="clipPath1440"><circle
         style="display:inline;opacity:1;vector-effect:none;fill:none;fill-opacity:1;stroke:#000000;stroke-width:2;stroke-linecap:butt;stroke-linejoin:miter;stroke-miterlimit:4;stroke-dasharray:none;stroke-dashoffset:0;stroke-opacity:1;marker:none;marker-start:none;marker-mid:none;marker-end:none;paint-order:normal;enable-background:new"
         id="circle1442"
         cx="-134.35028"
         cy="193.74727"
         r="24"
         transform="rotate(-45)" /></clipPath><clipPath
       clipPathUnits="userSpaceOnUse"
       id="clipPath1430"><circle
         style="display:inline;opacity:1;vector-effect:none;fill:none;fill-opacity:1;stroke:#000000;stroke-width:2;stroke-linecap:butt;stroke-linejoin:miter;stroke-miterlimit:4;stroke-dasharray:none;stroke-dashoffset:0;stroke-opacity:1;marker:none;marker-start:none;marker-mid:none;marker-end:none;paint-order:normal;enable-background:new"
         id="circle1432"
         cx="12"
         cy="232"
         r="24" /></clipPath><clipPath
       clipPathUnits="userSpaceOnUse"
       id="clipPath1440-9"><circle
         style="display:inline;opacity:1;vector-effect:none;fill:none;fill-opacity:1;stroke:#000000;stroke-width:2;stroke-linecap:butt;stroke-linejoin:miter;stroke-miterlimit:4;stroke-dasharray:none;stroke-dashoffset:0;stroke-opacity:1;marker:none;marker-start:none;marker-mid:none;marker-end:none;paint-order:normal;enable-background:new"
         id="circle1442-5"
         cx="-134.35028"
         cy="193.74727"
         r="24"
         transform="rotate(-45)" /></clipPath><clipPath
       clipPathUnits="userSpaceOnUse"
       id="clipPath1430-1"><circle
         style="display:inline;opacity:1;vector-effect:none;fill:none;fill-opacity:1;stroke:#000000;stroke-width:2;stroke-linecap:butt;stroke-linejoin:miter;stroke-miterlimit:4;stroke-dasharray:none;stroke-dashoffset:0;stroke-opacity:1;marker:none;marker-start:none;marker-mid:none;marker-end:none;paint-order:normal;enable-background:new"
         id="circle1432-8"
         cx="12"
         cy="232"
         r="24" /></clipPath><clipPath
       clipPathUnits="userSpaceOnUse"
       id="clipPath2024"><rect
         style="opacity:1;vector-effect:none;fill:#63452c;fill-opacity:1;stroke:none;stroke-width:4;stroke-linecap:round;stroke-linejoin:round;stroke-miterlimit:4;stroke-dasharray:none;stroke-dashoffset:0;stroke-opacity:1"
         id="rect2026"
         width="74"
         height="98"
         x="6"
         y="196" /></clipPath><linearGradient
       id="linearGradient914"
       inkscape:collect="always"><stop
         id="stop910"
         offset="0"
         style="stop-color:#f6f5f4;stop-opacity:0.43700787" /><stop
         id="stop912"
         offset="1"
         style="stop-color:#deddda;stop-opacity:0;" /></linearGradient><radialGradient
       gradientTransform="matrix(2.6086955,0,0,1.8410361,-102.95652,-748.94671)"
       gradientUnits="userSpaceOnUse"
       r="46"
       fy="296"
       fx="64.000008"
       cy="296"
       cx="64.000008"
       id="radialGradient916"
       xlink:href="#linearGradient914"
       inkscape:collect="always" /><clipPath
       clipPathUnits="userSpaceOnUse"
       id="clipPath11543"><rect
         style="fill:#f0c04e;fill-opacity:1;stroke:none;stroke-width:0.529037"
         id="rect11545"
         width="541.86664"
         height="541.86664"
         x="1.4746095e-06"
         y="6.4330168e-05"
         rx="79.375"
         ry="79.375" /></clipPath><style
       id="style374">.cls-1{fill:url(#linear-gradient);}.cls-2{opacity:0.35;fill:url(#radial-gradient);}.cls-2,.cls-4{isolation:isolate;}.cls-3{fill:url(#linear-gradient-2);}.cls-4{opacity:0.41;fill:url(#radial-gradient-2);}.cls-5{fill:url(#radial-gradient-3);}.cls-6{fill:url(#radial-gradient-4);}</style><linearGradient
       id="linear-gradient"
       x1="63.33"
       y1="84.03"
       x2="241.67"
       y2="84.03"
       gradientTransform="matrix(1,0,0,-1,0,266)"
       gradientUnits="userSpaceOnUse"><stop
         offset="0"
         stop-color="#0c59a4"
         id="stop376" /><stop
         offset="1"
         stop-color="#114a8b"
         id="stop378" /></linearGradient><radialGradient
       id="radial-gradient"
       cx="161.83"
       cy="68.91"
       r="95.38"
       gradientTransform="matrix(1,0,0,-0.95,0,248.84)"
       gradientUnits="userSpaceOnUse"><stop
         offset="0.72"
         stop-opacity="0"
         id="stop381" /><stop
         offset="0.95"
         stop-opacity="0.53"
         id="stop383" /><stop
         offset="1"
         id="stop385" /></radialGradient><linearGradient
       id="linear-gradient-2"
       x1="157.35"
       y1="161.39"
       x2="45.96"
       y2="40.06"
       gradientTransform="matrix(1,0,0,-1,0,266)"
       gradientUnits="userSpaceOnUse"><stop
         offset="0"
         stop-color="#1b9de2"
         id="stop388" /><stop
         offset="0.16"
         stop-color="#1595df"
         id="stop390" /><stop
         offset="0.67"
         stop-color="#0680d7"
         id="stop392" /><stop
         offset="1"
         stop-color="#0078d4"
         id="stop394" /></linearGradient><radialGradient
       id="radial-gradient-2"
       cx="-340.29"
       cy="62.99"
       r="143.24"
       gradientTransform="matrix(0.15,-0.99,-0.8,-0.12,176.64,-125.4)"
       gradientUnits="userSpaceOnUse"><stop
         offset="0.76"
         stop-opacity="0"
         id="stop397" /><stop
         offset="0.95"
         stop-opacity="0.5"
         id="stop399" /><stop
         offset="1"
         id="stop401" /></radialGradient><radialGradient
       id="radial-gradient-3"
       cx="113.37"
       cy="570.21"
       r="202.43"
       gradientTransform="matrix(-0.04,1,2.13,0.08,-1179.54,-106.69)"
       gradientUnits="userSpaceOnUse"><stop
         offset="0"
         stop-color="#35c1f1"
         id="stop404" /><stop
         offset="0.11"
         stop-color="#34c1ed"
         id="stop406" /><stop
         offset="0.23"
         stop-color="#2fc2df"
         id="stop408" /><stop
         offset="0.31"
         stop-color="#2bc3d2"
         id="stop410" /><stop
         offset="0.67"
         stop-color="#36c752"
         id="stop412" /></radialGradient><radialGradient
       id="radial-gradient-4"
       cx="376.52"
       cy="567.97"
       r="97.34"
       gradientTransform="matrix(0.28,0.96,0.78,-0.23,-303.76,-148.5)"
       gradientUnits="userSpaceOnUse"><stop
         offset="0"
         stop-color="#66eb6e"
         id="stop415" /><stop
         offset="1"
         stop-color="#66eb6e"
         stop-opacity="0"
         id="stop417" /></radialGradient><clipPath
       clipPathUnits="userSpaceOnUse"
       id="clipPath1260"><rect
         style="fill:#bbdefb;fill-opacity:1;stroke:none;stroke-width:0.529037"
         id="rect1262"
         width="541.86664"
         height="541.86664"
         x="2.9492187e-06"
         y="3.9968629e-05"
         rx="79.375"
         ry="79.375" /></clipPath><clipPath
       clipPathUnits="userSpaceOnUse"
       id="clipPath16285"><rect
         style="fill:#bbdefb;fill-opacity:1;stroke:none;stroke-width:0.529037"
         id="rect16287"
         width="541.86664"
         height="541.86664"
         x="0"
         y="6.4807005e-05"
         rx="79.375"
         ry="79.375" /></clipPath><clipPath
       clipPathUnits="userSpaceOnUse"
       id="clipPath990"><rect
         style="fill:#bbdefb;fill-opacity:1;stroke:none;stroke-width:0.529037"
         id="rect992"
         width="487.67996"
         height="487.67996"
         x="27.093349"
         y="27.093338"
         rx="71.4375"
         ry="71.4375" /></clipPath><linearGradient
       inkscape:collect="always"
       xlink:href="#linearGradient1522"
       id="linearGradient1524"
       x1="9"
       y1="64"
       x2="119"
       y2="64"
       gradientUnits="userSpaceOnUse" /><linearGradient
       inkscape:collect="always"
       xlink:href="#linearGradient1668"
       id="linearGradient1670"
       x1="64.502502"
       y1="5.0022955"
       x2="64.502502"
       y2="114.77119"
       gradientUnits="userSpaceOnUse" /><linearGradient
       id="linear-gradient-3"
       x1="921.62"
       y1="898.72"
       x2="225.61"
       y2="202.72"
       gradientUnits="userSpaceOnUse"
       gradientTransform="matrix(0.08346965,0,0,0.08346965,30.729137,45.627949)"><stop
         offset="0"
         stop-color="#3217ff"
         id="stop1" /><stop
         offset=".26"
         stop-color="#2b38ff"
         id="stop2" /><stop
         offset=".5"
         stop-color="#2455ff"
         id="stop3" /><stop
         offset=".75"
         stop-color="#1d74ff"
         id="stop4" /><stop
         offset="1"
         stop-color="#1792ff"
         id="stop5" /></linearGradient><linearGradient
       id="linear-gradient-2-6"
       x1="551.68"
       y1="880.73"
       x2="438.44"
       y2="238.5"
       gradientUnits="userSpaceOnUse"
       gradientTransform="matrix(0.08346965,0,0,0.08346965,19.263862,21.260716)"><stop
         offset="0"
         stop-color="#0e80ff"
         id="stop6"
         style="stop-color:#008080;stop-opacity:1" /><stop
         offset=".13"
         stop-color="#0789ff"
         id="stop7"
         style="stop-color:#008080;stop-opacity:1" /><stop
         offset=".25"
         stop-color="#0090ff"
         id="stop8"
         style="stop-color:#008080;stop-opacity:1" /><stop
         offset=".38"
         stop-color="#009dff"
         id="stop9"
         style="stop-color:#f9f9f9;stop-opacity:1" /><stop
         offset=".5"
         stop-color="#0af"
         id="stop10" /><stop
         offset=".62"
         stop-color="#00b7ff"
         id="stop11" /><stop
         offset=".75"
         stop-color="#00c4ff"
         id="stop12" /><stop
         offset=".87"
         stop-color="#21ccff"
         id="stop13" /><stop
         offset="1"
         stop-color="#46d4ff"
         id="stop14" /></linearGradient></defs><g
     inkscape:groupmode="layer"
     id="layer2"
     inkscape:label="Layer 1"><path
       id="circle372"
       style="fill:url(#linearGradient1524);fill-opacity:1;stroke-width:1"
       d="M 64,5 A 55,55 0 0 0 9,60 v 8 a 55,55 0 0 0 55,55 55,55 0 0 0 55,-55 V 60 A 55,55 0 0 0 64,5 Z" /><circle
       style="fill:url(#linearGradient1670);fill-opacity:1;stroke-width:1"
       id="path953"
       cx="64"
       cy="60"
       r="55"
       inkscape:export-filename="/home/retro/.icons/skeuowaita/scalable/apps/skeuwaita.png"
       inkscape:export-xdpi="1536"
       inkscape:export-ydpi="1536" /><text
       xml:space="preserve"
       style="font-style:normal;font-variant:normal;font-weight:normal;font-stretch:normal;font-size:40px;line-height:1.25;font-family:'DejaVu Math TeX Gyre';-inkscape-font-specification:'DejaVu Math TeX Gyre';fill:#000000;fill-opacity:1;stroke:none"
       x="57.326862"
       y="68.239342"
       id="text3441"><tspan
         sodipodi:role="line"
         id="tspan3439"
         x="57.326862"
         y="68.239342" /></text><text
       xml:space="preserve"
       style="font-size:40px;line-height:1.25;font-family:Caladea;-inkscape-font-specification:Caladea"
       x="43.192081"
       y="68.806938"
       id="text13903"><tspan
         sodipodi:role="line"
         id="tspan13901"
         x="43.192081"
         y="68.806938" /></text><circle
       style="fill:#c5efef;fill-opacity:1;stroke-width:0.949152"
       id="circle1662"
       cx="64"
       cy="60"
       r="52.203354"
       inkscape:export-filename="/home/retro/.icons/skeuowaita/scalable/apps/skeuwaita.png"
       inkscape:export-xdpi="1536"
       inkscape:export-ydpi="1536" /><path
       fill="#000000"
       d="M 41.808521,63.051213 A 22.184604,22.184604 0 0 1 63.999994,40.887215 22.184604,22.184604 0 0 1 86.191466,63.051213 22.184604,22.184604 0 0 1 63.999994,84.940481 22.184604,22.184604 0 0 1 41.811955,63.051213 Z M 100.16158,43.294553 A 6.3428736,6.3428736 0 0 1 91.672367,41.85221 35.028322,35.028322 0 0 0 85.22647,35.41318 6.329137,6.329137 0 0 1 83.780693,26.934266 41.381498,41.381498 0 0 1 100.16158,43.294553 M 36.331052,41.85221 a 6.3428736,6.3428736 0 0 1 -8.489216,1.442343 41.381498,41.381498 0 0 1 16.380892,-16.360287 6.329137,6.329137 0 0 1 -1.442343,8.478914 35.028322,35.028322 0 0 0 -6.449333,6.43903 m 68.878728,21.199003 c 0.003,3.91493 -0.54946,7.812691 -1.64838,11.573084 A 6.3325712,6.3325712 0 0 1 98.575007,67.60833 c 0.394927,-3.022052 0.394927,-6.088747 0,-9.114232 a 6.3325712,6.3325712 0 0 1 4.982953,-7.015967 c 1.09892,3.760393 1.65526,7.658152 1.65182,11.573082 m -82.419578,0 c 0,-3.91493 0.556332,-7.812689 1.655261,-11.573082 a 6.3325712,6.3325712 0 0 1 4.979516,7.015967 c -0.394927,3.022051 -0.394927,6.088746 0,9.114232 a 6.3325712,6.3325712 0 0 1 -4.979516,7.015967 41.209791,41.209791 0 0 1 -1.655261,-11.576518 z m 60.990491,36.120382 a 6.329137,6.329137 0 0 1 1.442343,-8.482348 35.028322,35.028322 0 0 0 6.449331,-6.43903 6.3428736,6.3428736 0 0 1 8.489213,-1.442343 41.381498,41.381498 0 0 1 -16.380887,16.363721 m -39.557965,0 a 41.381498,41.381498 0 0 1 -16.380892,-16.360287 6.3428736,6.3428736 0 0 1 8.489216,1.442343 35.028322,35.028322 0 0 0 6.445899,6.435596 c 2.627124,2.015845 3.255573,5.71099 1.445777,8.482348 m 19.780699,5.037885 a 41.209791,41.209791 0 0 1 -11.590254,-1.64838 6.3394394,6.3394394 0 0 1 7.02627,-4.979516 c 3.028919,0.394928 6.095614,0.394928 9.124535,0 a 6.3394394,6.3394394 0 0 1 7.026269,4.976076 c -3.763827,1.09893 -7.668456,1.65526 -11.590253,1.65182 z m 5.171829,-75.747017 c -3.245271,-0.467045 -6.483674,-0.343416 -9.732379,-0.04464 a 6.353176,6.353176 0 0 1 -7.029704,-4.979516 41.209791,41.209791 0 0 1 11.583385,-1.648391 h 0.0069 c 3.921798,-0.0034 7.819558,0.549464 11.583385,1.648391 a 6.3360054,6.3360054 0 0 1 -6.411556,5.024161"
       id="path1"
       style="fill:#5ec1c1;fill-opacity:1;stroke-width:3.43414" /><path
       id="path16"
       style="fill:#1a9292;fill-opacity:1;stroke-width:3.43414"
       d="m 63.995794,19.790512 a 41.209791,41.209791 0 0 0 -11.582068,1.646769 6.353176,6.353176 0 0 0 0.761342,1.94121 41.209791,41.209791 0 0 1 10.820726,-1.43435 h 0.0084 c 3.658673,-0.0032 7.295225,0.477549 10.82283,1.43435 a 6.3360054,6.3360054 0 0 0 0.759238,-1.94121 C 71.822447,20.338354 67.926004,19.787066 64.004206,19.790512 Z m -19.773852,5.144313 a 41.381498,41.381498 0 0 0 -16.379361,16.360433 6.3428736,6.3428736 0 0 0 0.950626,0.511066 41.381498,41.381498 0 0 1 15.428735,-14.71787 6.329137,6.329137 0 0 1 0.929595,2.34712 6.329137,6.329137 0 0 0 -0.929595,-4.500749 z m 39.558219,0 a 6.329137,6.329137 0 0 0 -0.927492,4.500749 6.329137,6.329137 0 0 1 0.927492,-2.34712 41.381498,41.381498 0 0 1 15.428736,14.71787 6.3428736,6.3428736 0 0 0 0.952723,-0.511066 A 41.381498,41.381498 0 0 0 83.780161,24.934825 Z M 64,38.887147 A 22.184604,22.184604 0 0 0 41.807522,61.050181 h 0.0042 a 22.184604,22.184604 0 0 0 0.07572,0.963244 A 22.184604,22.184604 0 0 1 64,41.040777 22.184604,22.184604 0 0 1 86.114661,62.040766 22.184604,22.184604 0 0 0 86.192478,61.050181 22.184604,22.184604 0 0 0 64,38.887147 Z M 24.445988,49.478629 c -1.098731,3.75972 -1.654982,7.655226 -1.655182,11.569449 a 41.209791,41.209791 0 0 1 0,0.0021 41.209791,41.209791 0 0 0 0.01262,1.083124 c 0.09223,-3.553631 0.643995,-7.084078 1.642562,-10.501047 a 6.3325712,6.3325712 0 0 1 4.944515,5.142211 c 0.01144,-0.09341 0.02145,-0.186396 0.03365,-0.279719 a 6.3325712,6.3325712 0 0 0 -4.978165,-7.016121 z m 79.112232,0 a 6.3325712,6.3325712 0 0 0 -4.982373,7.016121 c 0.01222,0.09361 0.02219,0.186033 0.03365,0.279719 a 6.3325712,6.3325712 0 0 1 4.948723,-5.142211 c 0.99819,3.415677 1.54838,6.94457 1.63835,10.49684 0.009,-0.358961 0.0129,-0.719573 0.0126,-1.078917 0.003,-3.91493 -0.55205,-7.811159 -1.65097,-11.571552 z M 29.144433,62.126995 c -0.05466,1.786684 0.02855,3.577154 0.24607,5.35463 a 6.3325712,6.3325712 0 0 0 0.03365,-1.87391 c -0.150908,-1.156086 -0.24414,-2.31739 -0.27972,-3.48072 z m 69.711134,0.0021 c -0.03558,1.163021 -0.128812,2.323844 -0.27972,3.478617 a 6.3325712,6.3325712 0 0 0 0.03575,1.871807 c 0.217375,-1.775054 0.298609,-3.563806 0.243967,-5.350424 z m -1.934902,17.653872 a 6.3428736,6.3428736 0 0 0 -5.247368,2.467 35.028322,35.028322 0 0 1 -6.450373,6.439857 6.329137,6.329137 0 0 0 -2.372358,6.132796 6.329137,6.329137 0 0 1 2.372358,-3.979167 35.028322,35.028322 0 0 0 6.450373,-6.439856 6.3428736,6.3428736 0 0 1 7.5356,-1.95383 41.381498,41.381498 0 0 0 0.952723,-1.642564 6.3428736,6.3428736 0 0 0 -3.240955,-1.024236 z m -65.837123,0.0021 a 6.3428736,6.3428736 0 0 0 -3.240961,1.026341 41.381498,41.381498 0 0 0 0.950626,1.642562 6.3428736,6.3428736 0 0 1 7.537703,1.95383 35.028322,35.028322 0 0 0 6.446166,6.43565 c 1.310324,1.005439 2.12361,2.427548 2.384976,3.945516 0.389105,-2.252737 -0.463344,-4.624637 -2.384976,-6.099145 A 35.028322,35.028322 0 0 1 36.33091,82.254176 6.3428736,6.3428736 0 0 0 31.083542,79.785073 Z m 27.496631,15.742106 a 6.3394394,6.3394394 0 0 0 -6.166447,5.034937 41.209791,41.209791 0 0 0 0.757135,0.21242 6.3394394,6.3394394 0 0 1 6.269502,-3.039045 c 3.028919,0.394927 6.09456,0.394927 9.12348,0 a 6.3394394,6.3394394 0 0 1 6.267399,3.036945 c 0.253732,-0.0688 0.506736,-0.1408 0.759238,-0.21452 a 6.3394394,6.3394394 0 0 0 -7.026637,-4.976055 c -3.02892,0.394927 -6.094561,0.394927 -9.12348,0 a 6.3394394,6.3394394 0 0 0 -0.86019,-0.05468 z" /><path
       id="path17"
       style="fill:#e2ffff;fill-opacity:1;stroke-width:3.43414"
       d="m 53.175068,23.224862 a 41.209791,41.209791 0 0 0 -0.761342,0.212419 6.353176,6.353176 0 0 0 7.02874,4.980268 c 3.248704,-0.298771 6.488124,-0.422879 9.733396,0.04417 a 6.3360054,6.3360054 0 0 0 6.410412,-5.024434 c -0.252527,-0.07373 -0.50554,-0.143607 -0.759238,-0.212419 a 6.3360054,6.3360054 0 0 1 -5.651174,3.083219 C 65.93059,25.84104 62.69117,25.965149 59.442466,26.26392 a 6.353176,6.353176 0 0 1 -6.267398,-3.039058 z m -8.023531,6.057083 a 6.329137,6.329137 0 0 1 -2.370255,3.977063 35.028322,35.028322 0 0 0 -6.450372,6.439857 6.3428736,6.3428736 0 0 1 -7.537703,1.95383 41.381498,41.381498 0 0 0 -0.950626,1.642563 6.3428736,6.3428736 0 0 0 8.488329,-1.442764 35.028322,35.028322 0 0 1 6.450372,-6.439857 6.329137,6.329137 0 0 0 2.370255,-6.130692 z m 37.701132,0 a 6.329137,6.329137 0 0 0 2.374462,6.130692 35.028322,35.028322 0 0 1 6.446166,6.439857 6.3428736,6.3428736 0 0 0 8.488323,1.442764 41.381498,41.381498 0 0 0 -0.952723,-1.642563 6.3428736,6.3428736 0 0 1 -7.5356,-1.95383 35.028322,35.028322 0 0 0 -6.446166,-6.439857 6.329137,6.329137 0 0 1 -2.374462,-3.977063 z M 29.390503,56.62084 c -0.217506,1.775525 -0.300726,3.565427 -0.24607,5.352526 0.03558,-1.16302 0.128812,-2.323843 0.27972,-3.478616 a 6.3325712,6.3325712 0 0 0 -0.03365,-1.87391 z m 69.218994,0 a 6.3325712,6.3325712 0 0 0 -0.03365,1.87391 c 0.150908,1.156085 0.24414,2.31739 0.27972,3.480719 0.05465,-1.786442 -0.02861,-3.57739 -0.24607,-5.354629 z m -12.45067,5.234749 A 22.184604,22.184604 0 0 1 64,82.786175 22.184604,22.184604 0 0 1 41.887442,61.859795 a 22.184604,22.184604 0 0 0 -0.07992,1.190386 h 0.0042 A 22.184604,22.184604 0 0 0 64,84.939805 22.184604,22.184604 0 0 0 86.192478,63.050181 22.184604,22.184604 0 0 0 86.158827,61.855589 Z m 19.037743,0.11988 c -0.0897,3.551803 -0.63609,7.079504 -1.63415,10.494737 A 6.3325712,6.3325712 0 0 1 98.6116,67.325892 c -0.0115,0.09389 -0.02349,0.188022 -0.03575,0.281823 a 6.3325712,6.3325712 0 0 0 4.98657,7.016121 c 1.09892,-3.760393 1.65,-7.658725 1.64677,-11.573655 3.1e-4,-0.358883 -0.004,-0.71621 -0.0126,-1.074712 z m -82.393144,0.0042 c -0.0093,0.356458 -0.0126,0.713671 -0.01262,1.070506 a 41.209791,41.209791 0 0 0 1.655182,11.573655 6.3325712,6.3325712 0 0 0 4.978165,-7.016121 c -0.01219,-0.09337 -0.02221,-0.186274 -0.03365,-0.27972 A 6.3325712,6.3325712 0 0 1 24.445988,72.470206 41.209791,41.209791 0 0 1 22.803426,61.979675 Z M 99.208897,82.296134 A 41.381498,41.381498 0 0 1 83.780161,97.01821 6.329137,6.329137 0 0 1 82.850566,94.668987 6.329137,6.329137 0 0 0 83.780161,99.17184 41.381498,41.381498 0 0 0 100.16162,82.8072 6.3428736,6.3428736 0 0 0 99.208897,82.296134 Z m -70.41569,0.0042 a 6.3428736,6.3428736 0 0 0 -0.950626,0.511067 41.381498,41.381498 0 0 0 16.379361,16.360432 c 0.907129,-1.389094 1.202768,-3.011034 0.94011,-4.536503 -0.142853,0.82705 -0.454105,1.638649 -0.94011,2.382873 A 41.381498,41.381498 0 0 1 28.793207,82.300347 Z m 46.038035,18.318486 c -3.527102,0.95684 -7.169726,1.43928 -10.827036,1.43644 H 64.002103 64 a 41.209791,41.209791 0 0 1 -10.829139,-1.43434 6.3394394,6.3394394 0 0 0 -0.757135,1.9412 A 41.209791,41.209791 0 0 0 64,104.20889 h 0.0021 0.0021 c 3.920409,0.003 7.82377,-0.55243 11.586274,-1.65097 a 6.3394394,6.3394394 0 0 0 -0.759238,-1.9391 z" /></g></svg>
