<?xml version="1.0" encoding="UTF-8" standalone="no"?>
<!-- Created with Inkscape (http://www.inkscape.org/) -->

<svg
   width="128"
   height="128"
   viewBox="0 0 128 128"
   version="1.1"
   id="svg5"
   inkscape:version="1.4 (e7c3feb100, 2024-10-09)"
   sodipodi:docname="org.audacityteam.Audacity.svg"
   xml:space="preserve"
   xmlns:inkscape="http://www.inkscape.org/namespaces/inkscape"
   xmlns:sodipodi="http://sodipodi.sourceforge.net/DTD/sodipodi-0.dtd"
   xmlns:xlink="http://www.w3.org/1999/xlink"
   xmlns="http://www.w3.org/2000/svg"
   xmlns:svg="http://www.w3.org/2000/svg"><sodipodi:namedview
     id="namedview7"
     pagecolor="#ffffff"
     bordercolor="#666666"
     borderopacity="1"
     inkscape:pageshadow="2"
     inkscape:pageopacity="0.0"
     inkscape:pagecheckerboard="true"
     inkscape:document-units="px"
     showgrid="false"
     inkscape:showpageshadow="false"
     showborder="true"
     inkscape:snap-page="true"
     inkscape:zoom="2.8284273"
     inkscape:cx="-1.9445436"
     inkscape:cy="118.79393"
     inkscape:window-width="1920"
     inkscape:window-height="1043"
     inkscape:window-x="0"
     inkscape:window-y="0"
     inkscape:window-maximized="1"
     inkscape:current-layer="layer2"
     inkscape:deskcolor="#d1d1d1" /><defs
     id="defs2"><linearGradient
       id="linearGradient1"
       inkscape:collect="always"><stop
         style="stop-color:#66639a;stop-opacity:1;"
         offset="0"
         id="stop1" /><stop
         style="stop-color:#824b95;stop-opacity:1;"
         offset="1"
         id="stop2" /></linearGradient><linearGradient
       inkscape:collect="always"
       id="linearGradient404"><stop
         style="stop-color:#9a6db0;stop-opacity:1;"
         offset="0"
         id="stop400" /><stop
         style="stop-color:#ccc3e3;stop-opacity:1;"
         offset="1"
         id="stop402" /></linearGradient><linearGradient
       y2="236"
       x2="96"
       y1="236"
       x1="32"
       gradientTransform="translate(604.81684,170.58641)"
       gradientUnits="userSpaceOnUse"
       id="linearGradient1099"
       xlink:href="#linearGradient1036" /><linearGradient
       id="linearGradient1036"><stop
         id="stop1032"
         offset="0"
         style="stop-color:#d5d3cf;stop-opacity:1;" /><stop
         id="stop1034"
         offset="1"
         style="stop-color:#f6f5f4;stop-opacity:1" /></linearGradient><radialGradient
       r="32"
       fy="-76"
       fx="-244"
       cy="-76"
       cx="-244"
       gradientTransform="matrix(0.88333331,0,0,0.88333331,-460.35018,463.11973)"
       gradientUnits="userSpaceOnUse"
       id="radialGradient1103"
       xlink:href="#linearGradient1069" /><linearGradient
       id="linearGradient1069"><stop
         id="stop1065"
         offset="0"
         style="stop-color:#d5d3cf;stop-opacity:1" /><stop
         id="stop1067-1"
         offset="1"
         style="stop-color:#949390;stop-opacity:1" /></linearGradient><linearGradient
       gradientUnits="userSpaceOnUse"
       y2="232"
       x2="64"
       y1="262.5"
       x1="64"
       id="linearGradient1027"
       xlink:href="#linearGradient1025"
       gradientTransform="translate(-470.5864,432.81685)" /><linearGradient
       id="linearGradient1025"><stop
         id="stop1021"
         offset="0"
         style="stop-color:#9a9996;stop-opacity:1" /><stop
         id="stop1023"
         offset="1"
         style="stop-color:#77767b;stop-opacity:1" /></linearGradient><inkscape:path-effect
       effect="spiro"
       id="path-effect35304-9"
       is_visible="true" /><clipPath
       clipPathUnits="userSpaceOnUse"
       id="clipPath1609-7"><path
         sodipodi:nodetypes="cccccc"
         inkscape:connector-curvature="0"
         id="path1611-5"
         d="m 252,116 28,-28 v -8 h -36 v 36 z"
         style="fill:#e74747;stroke:none;stroke-width:0.25px;stroke-linecap:butt;stroke-linejoin:miter;stroke-opacity:1" /></clipPath><linearGradient
       inkscape:collect="always"
       id="linearGradient8241"><stop
         style="stop-color:#543184;stop-opacity:1;"
         offset="0"
         id="stop8237" /><stop
         style="stop-color:#714ea1;stop-opacity:1;"
         offset="0.05"
         id="stop9349" /><stop
         style="stop-color:#543184;stop-opacity:1;"
         offset="0.1"
         id="stop21746" /><stop
         style="stop-color:#543184;stop-opacity:1;"
         offset="0.89999998"
         id="stop21940" /><stop
         style="stop-color:#714ea1;stop-opacity:1;"
         offset="0.94999999"
         id="stop9351" /><stop
         style="stop-color:#543184;stop-opacity:1;"
         offset="1"
         id="stop8239" /></linearGradient><radialGradient
       r="32"
       fy="-76"
       fx="-244"
       cy="-76"
       cx="-244"
       gradientTransform="matrix(0.88333331,0,0,0.88333331,-460.35018,463.11973)"
       gradientUnits="userSpaceOnUse"
       id="radialGradient1103-5"
       xlink:href="#linearGradient1069" /><inkscape:path-effect
       effect="spiro"
       id="path-effect35304-9-2"
       is_visible="true" /><clipPath
       clipPathUnits="userSpaceOnUse"
       id="clipPath1609-7-7"><path
         sodipodi:nodetypes="cccccc"
         inkscape:connector-curvature="0"
         id="path1611-5-0"
         d="m 252,116 28,-28 v -8 h -36 v 36 z"
         style="fill:#e74747;stroke:none;stroke-width:0.25px;stroke-linecap:butt;stroke-linejoin:miter;stroke-opacity:1" /></clipPath><clipPath
       clipPathUnits="userSpaceOnUse"
       id="clipPath744"><rect
         style="fill:#1e88e5;fill-opacity:1;stroke-width:0.264583"
         id="rect746"
         width="541.86664"
         height="541.86664"
         x="0"
         y="1.5987212e-14"
         rx="79.375"
         ry="79.375" /></clipPath><clipPath
       clipPathUnits="userSpaceOnUse"
       id="clipPath62"><rect
         style="fill:#1e88e5;fill-opacity:1;stroke-width:0.264583"
         id="rect64"
         width="541.86664"
         height="541.86664"
         x="2.2507105e-05"
         y="-0.42205024"
         rx="79.375"
         ry="79.375" /></clipPath><linearGradient
       inkscape:collect="always"
       xlink:href="#linearGradient8241"
       id="linearGradient8243"
       x1="11.5"
       y1="120.5"
       x2="116.5"
       y2="120.5"
       gradientUnits="userSpaceOnUse"
       gradientTransform="matrix(1.0339743,0,0,1.0003025,-2.1743553,1.9635429)" /><radialGradient
       r="32"
       fy="-76"
       fx="-244"
       cy="-76"
       cx="-244"
       gradientTransform="matrix(0.88333331,0,0,0.88333331,-460.35018,463.11973)"
       gradientUnits="userSpaceOnUse"
       id="radialGradient1103-6"
       xlink:href="#linearGradient1069" /><inkscape:path-effect
       effect="spiro"
       id="path-effect35304-9-20"
       is_visible="true" /><clipPath
       clipPathUnits="userSpaceOnUse"
       id="clipPath1609-7-2"><path
         sodipodi:nodetypes="cccccc"
         inkscape:connector-curvature="0"
         id="path1611-5-3"
         d="m 252,116 28,-28 v -8 h -36 v 36 z"
         style="fill:#e74747;stroke:none;stroke-width:0.25px;stroke-linecap:butt;stroke-linejoin:miter;stroke-opacity:1" /></clipPath><radialGradient
       r="32"
       fy="-76"
       fx="-244"
       cy="-76"
       cx="-244"
       gradientTransform="matrix(0.88333331,0,0,0.88333331,-460.35018,463.11973)"
       gradientUnits="userSpaceOnUse"
       id="radialGradient1103-56"
       xlink:href="#linearGradient1069" /><inkscape:path-effect
       effect="spiro"
       id="path-effect35304-9-7"
       is_visible="true" /><clipPath
       clipPathUnits="userSpaceOnUse"
       id="clipPath1609-7-0"><path
         sodipodi:nodetypes="cccccc"
         inkscape:connector-curvature="0"
         id="path1611-5-9"
         d="m 252,116 28,-28 v -8 h -36 v 36 z"
         style="fill:#e74747;stroke:none;stroke-width:0.25px;stroke-linecap:butt;stroke-linejoin:miter;stroke-opacity:1" /></clipPath><clipPath
       clipPathUnits="userSpaceOnUse"
       id="clipPath37"><rect
         style="fill:#1a1a1a;fill-opacity:1;stroke-width:0.264583"
         id="rect39"
         width="541.86664"
         height="541.86664"
         x="-2.6626146e-06"
         y="3.2408705"
         rx="79.375"
         ry="79.375" /></clipPath><clipPath
       clipPathUnits="userSpaceOnUse"
       id="clipPath22042"><rect
         style="fill:#333333;fill-opacity:1;stroke-width:0.0133797"
         id="rect22044"
         width="27.31955"
         height="27.483929"
         x="166.96844"
         y="105.40438"
         rx="4.0018873"
         ry="4.0259666" /></clipPath><clipPath
       clipPathUnits="userSpaceOnUse"
       id="clipPath1039"><rect
         style="fill:#b3b3b3;fill-opacity:1;stroke-width:0.264583"
         id="rect1041"
         width="541.8667"
         height="541.86682"
         x="2.5931527e-05"
         y="-0.00010962487"
         rx="79.375008"
         ry="79.375031" /></clipPath><clipPath
       clipPathUnits="userSpaceOnUse"
       id="clipPath154"><rect
         style="fill:#b3b3b3;fill-opacity:1;stroke-width:0.264583"
         id="rect156"
         width="541.8667"
         height="541.86682"
         x="-2.9218751e-05"
         y="-0.00016368683"
         rx="79.375008"
         ry="79.375031" /></clipPath><linearGradient
       inkscape:collect="always"
       xlink:href="#linearGradient404"
       id="linearGradient406"
       x1="64"
       y1="112.5"
       x2="64"
       y2="7.5"
       gradientUnits="userSpaceOnUse"
       gradientTransform="matrix(1.0339743,0,0,1.0003025,-2.1743553,-2.002269)" /><linearGradient
       id="paint0_linear"
       x1="49.9392"
       y1="0.257812"
       x2="49.9392"
       y2="99.7423"
       gradientUnits="userSpaceOnUse"
       gradientTransform="matrix(0.76242929,0,0,0.76242929,26.69079,21.878509)"><stop
         stop-color="white"
         id="stop585" /><stop
         offset="1"
         stop-color="white"
         stop-opacity="0"
         id="stop587" /></linearGradient><radialGradient
       r="32"
       fy="-76"
       fx="-244"
       cy="-76"
       cx="-244"
       gradientTransform="matrix(0.88333331,0,0,0.88333331,-460.35018,463.11973)"
       gradientUnits="userSpaceOnUse"
       id="radialGradient1103-5629"
       xlink:href="#linearGradient1069" /><inkscape:path-effect
       effect="spiro"
       id="path-effect35304-9-9"
       is_visible="true" /><clipPath
       clipPathUnits="userSpaceOnUse"
       id="clipPath1609-7-3"><path
         sodipodi:nodetypes="cccccc"
         inkscape:connector-curvature="0"
         id="path1611-5-6"
         d="m 252,116 28,-28 v -8 h -36 v 36 z"
         style="fill:#e74747;stroke:none;stroke-width:0.25px;stroke-linecap:butt;stroke-linejoin:miter;stroke-opacity:1" /></clipPath><radialGradient
       r="32"
       fy="-76"
       fx="-244"
       cy="-76"
       cx="-244"
       gradientTransform="matrix(0.88333331,0,0,0.88333331,-460.35018,463.11973)"
       gradientUnits="userSpaceOnUse"
       id="radialGradient1103-5-06"
       xlink:href="#linearGradient1069" /><inkscape:path-effect
       effect="spiro"
       id="path-effect35304-9-2-2"
       is_visible="true" /><clipPath
       clipPathUnits="userSpaceOnUse"
       id="clipPath1609-7-7-6"><path
         sodipodi:nodetypes="cccccc"
         inkscape:connector-curvature="0"
         id="path1611-5-0-1"
         d="m 252,116 28,-28 v -8 h -36 v 36 z"
         style="fill:#e74747;stroke:none;stroke-width:0.25px;stroke-linecap:butt;stroke-linejoin:miter;stroke-opacity:1" /></clipPath><clipPath
       clipPathUnits="userSpaceOnUse"
       id="clipPath744-8"><rect
         style="fill:#1e88e5;fill-opacity:1;stroke-width:0.264583"
         id="rect746-7"
         width="541.86664"
         height="541.86664"
         x="0"
         y="1.5987212e-14"
         rx="79.375"
         ry="79.375" /></clipPath><clipPath
       clipPathUnits="userSpaceOnUse"
       id="clipPath62-9"><rect
         style="fill:#1e88e5;fill-opacity:1;stroke-width:0.264583"
         id="rect64-2"
         width="541.86664"
         height="541.86664"
         x="2.2507105e-05"
         y="-0.42205024"
         rx="79.375"
         ry="79.375" /></clipPath><radialGradient
       r="32"
       fy="-76"
       fx="-244"
       cy="-76"
       cx="-244"
       gradientTransform="matrix(0.88333331,0,0,0.88333331,-460.35018,463.11973)"
       gradientUnits="userSpaceOnUse"
       id="radialGradient1103-6-0"
       xlink:href="#linearGradient1069" /><inkscape:path-effect
       effect="spiro"
       id="path-effect35304-9-20-2"
       is_visible="true" /><clipPath
       clipPathUnits="userSpaceOnUse"
       id="clipPath1609-7-2-3"><path
         sodipodi:nodetypes="cccccc"
         inkscape:connector-curvature="0"
         id="path1611-5-3-7"
         d="m 252,116 28,-28 v -8 h -36 v 36 z"
         style="fill:#e74747;stroke:none;stroke-width:0.25px;stroke-linecap:butt;stroke-linejoin:miter;stroke-opacity:1" /></clipPath><radialGradient
       r="32"
       fy="-76"
       fx="-244"
       cy="-76"
       cx="-244"
       gradientTransform="matrix(0.88333331,0,0,0.88333331,-460.35018,463.11973)"
       gradientUnits="userSpaceOnUse"
       id="radialGradient1103-56-5"
       xlink:href="#linearGradient1069" /><inkscape:path-effect
       effect="spiro"
       id="path-effect35304-9-7-9"
       is_visible="true" /><clipPath
       clipPathUnits="userSpaceOnUse"
       id="clipPath1609-7-0-2"><path
         sodipodi:nodetypes="cccccc"
         inkscape:connector-curvature="0"
         id="path1611-5-9-28"
         d="m 252,116 28,-28 v -8 h -36 v 36 z"
         style="fill:#e74747;stroke:none;stroke-width:0.25px;stroke-linecap:butt;stroke-linejoin:miter;stroke-opacity:1" /></clipPath><clipPath
       clipPathUnits="userSpaceOnUse"
       id="clipPath37-9"><rect
         style="fill:#1a1a1a;fill-opacity:1;stroke-width:0.264583"
         id="rect39-7"
         width="541.86664"
         height="541.86664"
         x="-2.6626146e-06"
         y="3.2408705"
         rx="79.375"
         ry="79.375" /></clipPath><clipPath
       clipPathUnits="userSpaceOnUse"
       id="clipPath22042-3"><rect
         style="fill:#333333;fill-opacity:1;stroke-width:0.0133797"
         id="rect22044-6"
         width="27.31955"
         height="27.483929"
         x="166.96844"
         y="105.40438"
         rx="4.0018873"
         ry="4.0259666" /></clipPath><clipPath
       clipPathUnits="userSpaceOnUse"
       id="clipPath1039-1"><rect
         style="fill:#b3b3b3;fill-opacity:1;stroke-width:0.264583"
         id="rect1041-2"
         width="541.8667"
         height="541.86682"
         x="2.5931527e-05"
         y="-0.00010962487"
         rx="79.375008"
         ry="79.375031" /></clipPath><clipPath
       clipPathUnits="userSpaceOnUse"
       id="clipPath154-9"><rect
         style="fill:#b3b3b3;fill-opacity:1;stroke-width:0.264583"
         id="rect156-3"
         width="541.8667"
         height="541.86682"
         x="-2.9218751e-05"
         y="-0.00016368683"
         rx="79.375008"
         ry="79.375031" /></clipPath><radialGradient
       r="32"
       fy="-76"
       fx="-244"
       cy="-76"
       cx="-244"
       gradientTransform="matrix(0.88333331,0,0,0.88333331,-460.35018,463.11973)"
       gradientUnits="userSpaceOnUse"
       id="radialGradient1103-562"
       xlink:href="#linearGradient1069" /><inkscape:path-effect
       effect="spiro"
       id="path-effect35304-9-0"
       is_visible="true" /><clipPath
       clipPathUnits="userSpaceOnUse"
       id="clipPath1609-7-9"><path
         sodipodi:nodetypes="cccccc"
         inkscape:connector-curvature="0"
         id="path1611-5-36"
         d="m 252,116 28,-28 v -8 h -36 v 36 z"
         style="fill:#e74747;stroke:none;stroke-width:0.25px;stroke-linecap:butt;stroke-linejoin:miter;stroke-opacity:1" /></clipPath><radialGradient
       r="32"
       fy="-76"
       fx="-244"
       cy="-76"
       cx="-244"
       gradientTransform="matrix(0.88333331,0,0,0.88333331,-460.35018,463.11973)"
       gradientUnits="userSpaceOnUse"
       id="radialGradient1103-5-0"
       xlink:href="#linearGradient1069" /><inkscape:path-effect
       effect="spiro"
       id="path-effect35304-9-2-6"
       is_visible="true" /><clipPath
       clipPathUnits="userSpaceOnUse"
       id="clipPath1609-7-7-2"><path
         sodipodi:nodetypes="cccccc"
         inkscape:connector-curvature="0"
         id="path1611-5-0-6"
         d="m 252,116 28,-28 v -8 h -36 v 36 z"
         style="fill:#e74747;stroke:none;stroke-width:0.25px;stroke-linecap:butt;stroke-linejoin:miter;stroke-opacity:1" /></clipPath><clipPath
       clipPathUnits="userSpaceOnUse"
       id="clipPath744-1"><rect
         style="fill:#1e88e5;fill-opacity:1;stroke-width:0.264583"
         id="rect746-8"
         width="541.86664"
         height="541.86664"
         x="0"
         y="1.5987212e-14"
         rx="79.375"
         ry="79.375" /></clipPath><clipPath
       clipPathUnits="userSpaceOnUse"
       id="clipPath62-7"><rect
         style="fill:#1e88e5;fill-opacity:1;stroke-width:0.264583"
         id="rect64-9"
         width="541.86664"
         height="541.86664"
         x="2.2507105e-05"
         y="-0.42205024"
         rx="79.375"
         ry="79.375" /></clipPath><radialGradient
       r="32"
       fy="-76"
       fx="-244"
       cy="-76"
       cx="-244"
       gradientTransform="matrix(0.88333331,0,0,0.88333331,-460.35018,463.11973)"
       gradientUnits="userSpaceOnUse"
       id="radialGradient1103-6-2"
       xlink:href="#linearGradient1069" /><inkscape:path-effect
       effect="spiro"
       id="path-effect35304-9-20-0"
       is_visible="true" /><clipPath
       clipPathUnits="userSpaceOnUse"
       id="clipPath1609-7-2-2"><path
         sodipodi:nodetypes="cccccc"
         inkscape:connector-curvature="0"
         id="path1611-5-3-3"
         d="m 252,116 28,-28 v -8 h -36 v 36 z"
         style="fill:#e74747;stroke:none;stroke-width:0.25px;stroke-linecap:butt;stroke-linejoin:miter;stroke-opacity:1" /></clipPath><radialGradient
       r="32"
       fy="-76"
       fx="-244"
       cy="-76"
       cx="-244"
       gradientTransform="matrix(0.88333331,0,0,0.88333331,-460.35018,463.11973)"
       gradientUnits="userSpaceOnUse"
       id="radialGradient1103-56-7"
       xlink:href="#linearGradient1069" /><inkscape:path-effect
       effect="spiro"
       id="path-effect35304-9-7-5"
       is_visible="true" /><clipPath
       clipPathUnits="userSpaceOnUse"
       id="clipPath1609-7-0-9"><path
         sodipodi:nodetypes="cccccc"
         inkscape:connector-curvature="0"
         id="path1611-5-9-2"
         d="m 252,116 28,-28 v -8 h -36 v 36 z"
         style="fill:#e74747;stroke:none;stroke-width:0.25px;stroke-linecap:butt;stroke-linejoin:miter;stroke-opacity:1" /></clipPath><clipPath
       clipPathUnits="userSpaceOnUse"
       id="clipPath37-2"><rect
         style="fill:#1a1a1a;fill-opacity:1;stroke-width:0.264583"
         id="rect39-8"
         width="541.86664"
         height="541.86664"
         x="-2.6626146e-06"
         y="3.2408705"
         rx="79.375"
         ry="79.375" /></clipPath><clipPath
       clipPathUnits="userSpaceOnUse"
       id="clipPath22042-9"><rect
         style="fill:#333333;fill-opacity:1;stroke-width:0.0133797"
         id="rect22044-7"
         width="27.31955"
         height="27.483929"
         x="166.96844"
         y="105.40438"
         rx="4.0018873"
         ry="4.0259666" /></clipPath><clipPath
       clipPathUnits="userSpaceOnUse"
       id="clipPath1039-3"><rect
         style="fill:#b3b3b3;fill-opacity:1;stroke-width:0.264583"
         id="rect1041-6"
         width="541.8667"
         height="541.86682"
         x="2.5931527e-05"
         y="-0.00010962487"
         rx="79.375008"
         ry="79.375031" /></clipPath><clipPath
       clipPathUnits="userSpaceOnUse"
       id="clipPath154-1"><rect
         style="fill:#b3b3b3;fill-opacity:1;stroke-width:0.264583"
         id="rect156-2"
         width="541.8667"
         height="541.86682"
         x="-2.9218751e-05"
         y="-0.00016368683"
         rx="79.375008"
         ry="79.375031" /></clipPath><linearGradient
       inkscape:collect="always"
       xlink:href="#linearGradient1"
       id="linearGradient2"
       x1="18.3283"
       y1="12.079889"
       x2="111.9201"
       y2="105.6717"
       gradientUnits="userSpaceOnUse"
       gradientTransform="matrix(1.0339743,0,0,1.0003025,-2.1743553,-2.002269)" /><filter
       inkscape:collect="always"
       style="color-interpolation-filters:sRGB"
       id="filter21"
       x="-0.035349039"
       y="-0.036617137"
       width="1.0706981"
       height="1.0732343"><feGaussianBlur
         inkscape:collect="always"
         stdDeviation="1.1506279"
         id="feGaussianBlur21" /></filter><filter
       inkscape:collect="always"
       style="color-interpolation-filters:sRGB"
       id="filter25"
       x="-0.1598681"
       y="-0.11067608"
       width="1.3197362"
       height="1.2213522"><feGaussianBlur
         inkscape:collect="always"
         stdDeviation="1.8039805"
         id="feGaussianBlur25" /></filter></defs><g
     inkscape:groupmode="layer"
     id="layer2"
     inkscape:label="Layer 1"><rect
       style="fill:url(#linearGradient8243);fill-opacity:1;stroke-width:1.017"
       id="rect440"
       width="108.5673"
       height="105.03177"
       x="9.7163486"
       y="17.468231"
       rx="18"
       ry="18" /><rect
       style="fill:url(#linearGradient406);fill-opacity:1;stroke-width:1.017"
       id="rect358"
       width="108.5673"
       height="105.03177"
       x="9.7163486"
       y="5.5000005"
       rx="18"
       ry="18" /><rect
       style="fill:url(#linearGradient2);fill-opacity:1;stroke-width:0.975887"
       id="rect338"
       width="104.17842"
       height="100.78581"
       x="11.910787"
       y="7.6229744"
       rx="18"
       ry="18" /><path
       id="path21"
       style="fill:#ff7aa5;fill-opacity:1;stroke-width:0.18807;filter:url(#filter25)"
       d="m 65.044922,61.380859 c -0.366428,0 -0.751982,0.171905 -1.042969,0.462891 l -0.460937,0.460938 v 18.636718 18.634766 l 0.460937,0.462888 c 0.290987,0.29098 0.676541,0.46094 1.042969,0.46094 0.366427,0 0.751982,-0.16996 1.042969,-0.46094 l 0.460937,-0.462888 V 80.941406 62.304688 L 66.087891,61.84375 c -0.290987,-0.290986 -0.676542,-0.462891 -1.042969,-0.462891 z m -6.017578,6.019532 c -0.366428,0 -0.751983,0.16995 -1.042969,0.460937 l -0.462891,0.460938 v 12.61914 12.617188 l 0.462891,0.460937 c 0.290986,0.290987 0.676541,0.462891 1.042969,0.462891 0.366428,0 0.751979,-0.171904 1.042968,-0.462891 L 60.53125,93.558594 V 80.941406 68.322266 l -0.460938,-0.460938 c -0.290989,-0.290987 -0.67654,-0.460937 -1.042968,-0.460937 z m 12.035156,0 c -0.366428,0 -0.751984,0.16995 -1.042969,0.460937 l -0.460937,0.460938 v 12.59375 c 0,13.589448 -0.02866,13.112616 0.828125,13.486328 0.320694,0.139905 0.694275,0.214005 0.832031,0.166015 0.137757,-0.04799 0.328848,-0.08594 0.423828,-0.08594 0.939382,0 0.925781,0.208608 0.925781,-13.457031 V 68.322266 l -0.46289,-0.460938 C 71.814481,67.570341 71.428928,67.400391 71.0625,67.400391 Z m 6.019531,6.017578 c -0.366434,0 -0.751981,0.169952 -1.042969,0.460937 l -0.46289,0.462891 v 6.599609 6.59961 l 0.46289,0.460937 c 0.290987,0.290994 0.676535,0.460938 1.042969,0.460938 0.366425,0 0.751981,-0.169944 1.042969,-0.460938 l 0.460938,-0.460937 v -6.59961 -6.599609 L 78.125,73.878906 c -0.290988,-0.290985 -0.676544,-0.460937 -1.042969,-0.460937 z m -24.074219,3.009765 c -0.366427,0 -0.751982,0.169951 -1.042968,0.460938 l -0.460938,0.460937 v 6.59961 6.599609 l 0.460938,0.462891 c 0.290986,0.290987 0.676541,0.460937 1.042968,0.460937 0.366429,0 0.751981,-0.16995 1.042969,-0.460937 l 0.462891,-0.462891 v -6.599609 -6.59961 l -0.462891,-0.460937 c -0.290988,-0.290987 -0.67654,-0.460938 -1.042969,-0.460938 z"
       transform="matrix(1.2653779,0,0,1.2653779,-18.273079,-27.089395)" /><path
       id="path13"
       style="mix-blend-mode:soft-light;fill:#0e0924;fill-opacity:1;stroke-width:0.18807;filter:url(#filter21)"
       d="m 64.302734,28.71875 c -13.097143,0.09513 -26.175641,6.770183 -33.105468,21.119141 -2.883043,5.969655 -4.77358,15.908062 -3.304688,17.376953 0.593625,0.593624 0.451807,0.604347 5.277344,-0.365235 4.759661,-0.956346 4.793122,-0.975983 4.794922,-2.720703 0.01407,-13.460088 13.360651,-26.541015 27.080078,-26.541015 13.74335,0 27.082031,13.084959 27.082031,26.566406 0,1.71653 0.0418,1.738919 4.802735,2.699219 6.053792,1.221072 6.089962,1.194277 5.529292,-4.28125 C 100.231,40.8138 82.250671,28.58838 64.302734,28.71875 Z M 39.328125,69.583984 c -3.101382,0.04325 -6.140648,1.99713 -7.126953,5.689454 -0.12157,0.455107 -0.199706,3.096092 -0.240234,6.371093 v -4.583984 h -1.09375 c -4.172454,0 -4.925822,1.512799 -4.919922,9.894531 0.0051,7.378062 0.194656,8.019725 2.722656,9.214844 0.673775,0.318527 1.273015,0.445865 2.115234,0.447266 l 1.175782,0.002 V 92.03325 c 0.04053,3.275001 0.118664,5.91794 0.240234,6.373047 0.724124,2.710833 2.702728,4.720513 5.384766,5.466803 3.453401,0.96091 7.077343,-0.8017 8.724609,-4.244147 L 46.896484,98.40625 V 86.839844 75.273438 l -0.585937,-1.222657 c -1.462279,-3.05586 -4.245908,-4.504957 -6.982422,-4.466797 z m 51.585937,0.01367 c -3.248419,-0.08538 -6.549136,1.896777 -7.558593,5.675782 -0.19552,0.731792 -0.251953,3.297157 -0.251953,11.566406 0,8.269254 0.05647,10.834618 0.251953,11.566406 0.72412,2.710832 2.704679,4.720512 5.386719,5.466802 4.002067,1.11358 8.311516,-1.56401 9.191406,-5.710943 0.141884,-0.668776 0.210937,-4.393584 0.210937,-11.322265 0,-10.834021 -0.04738,-11.576717 -0.849609,-13.166016 -1.359489,-2.693284 -3.854311,-4.009764 -6.38086,-4.076172 z m 7.230469,17.242188 v 9.779297 l 1.175781,-0.0039 c 1.923868,-0.0068 3.464548,-0.905847 4.343748,-2.535156 0.39343,-0.729205 0.4043,-0.950853 0.4043,-7.240234 0,-6.289388 -0.0108,-6.511031 -0.4043,-7.240235 -0.8792,-1.629313 -2.41988,-2.528456 -4.343748,-2.535156 l -1.175781,-0.0039 z"
       transform="matrix(1.020769,0,0,1.020769,-2.3579541,-5.3188605)" /><g
       id="g18"
       transform="translate(0,-1.0000002)"><path
         style="fill:#797979;fill-opacity:1;stroke-width:0.183618"
         d="M 27.763638,60.351931 C 26.32952,58.917816 28.174308,49.214099 30.989096,43.385771 47.02648,10.178634 96.802332,19.073264 100.5649,55.818529 c 0.54741,5.3459 0.51208,5.373283 -5.398416,4.181119 -4.648227,-0.937567 -4.689401,-0.960715 -4.689401,-2.636609 0,-13.162288 -13.022812,-25.936916 -26.440801,-25.936916 -13.394636,0 -26.425985,12.771916 -26.439723,25.91335 -0.0018,1.703417 -0.03327,1.721282 -4.680264,2.65499 -4.711297,0.946628 -4.573086,0.937039 -5.152657,0.357468 z"
         id="path12" /><path
         style="fill:#ececec;fill-opacity:1;stroke-width:0.183618"
         d="M 27.763638,54.909786 C 26.32952,53.475669 28.174308,43.771955 30.989096,37.943626 47.02648,4.7364889 96.802332,13.631118 100.5649,50.376383 c 0.54741,5.345899 0.51208,5.373284 -5.398416,4.18112 -4.648227,-0.937566 -4.689401,-0.960715 -4.689401,-2.63661 0,-13.162286 -13.022812,-25.936915 -26.440801,-25.936915 -13.394636,0 -26.425985,12.771916 -26.439723,25.913351 -0.0018,1.703416 -0.03327,1.721283 -4.680264,2.654989 -4.711297,0.946626 -4.573086,0.937039 -5.152657,0.357468 z"
         id="path11" /><rect
         style="fill:#9d9d9d;fill-opacity:1;stroke-width:8.02095"
         id="rect14"
         width="10.261201"
         height="7.9725862"
         x="90.524544"
         y="52.780441" /><rect
         style="fill:#9d9d9d;fill-opacity:1;stroke-width:8.02095"
         id="rect15"
         width="10.261201"
         height="7.9725862"
         x="27.265736"
         y="52.780441" /></g><g
       id="g16"
       transform="translate(0,-1.0000002)"><path
         id="path15"
         style="fill:#797979;fill-opacity:1;stroke-width:0.183618"
         d="m 96.352551,69.963421 v 9.548485 4.105794 h -0.01098 c -0.01464,2.507015 -0.04632,4.284457 -0.09145,5.442691 h 0.102416 0.83396 v -0.0036 l 0.314565,-0.0019 c 1.87832,-0.0066 3.380908,-0.883713 4.239298,-2.474448 0.38405,-0.711942 0.39686,-0.928062 0.39686,-7.068549 0,-6.140493 -0.0128,-6.358435 -0.39686,-7.070376 -0.85839,-1.590741 -2.360988,-2.467989 -4.239298,-2.474451 z" /><path
         style="fill:#9d9d9d;fill-opacity:1;stroke-width:0.183618"
         d="m 87.171983,96.14151 c -2.618544,-0.728626 -4.551919,-2.690916 -5.258896,-5.337571 -0.190857,-0.714464 -0.245244,-3.218935 -0.245244,-11.292423 0,-8.073483 0.05436,-10.577957 0.245244,-11.292424 1.752106,-6.559185 10.575902,-7.571084 13.609743,-1.560744 0.78324,1.551673 0.829987,2.275632 0.829987,12.853168 0,6.764653 -0.06791,10.400927 -0.206448,11.05387 -0.85906,4.048756 -5.067063,6.66334 -8.974386,5.576124 z"
         id="path19" /><path
         id="path8"
         style="fill:#cccccc;fill-opacity:1;stroke-width:0.183618"
         d="m 96.242819,64.52073 c 0.09677,1.719733 0.109732,4.491052 0.109732,9.548485 0,4.722236 -0.03531,7.825881 -0.102417,9.548485 h 0.102417 0.83396 v -0.0019 l 0.314565,-0.0019 c 1.878315,-0.0067 3.380914,-0.885542 4.239304,-2.476278 0.38405,-0.711941 0.39686,-0.928056 0.39686,-7.068548 0,-6.140493 -0.0128,-6.356608 -0.39686,-7.068548 -0.85839,-1.590743 -2.360989,-2.467988 -4.239304,-2.474449 l -0.314565,-0.0019 v -0.0036 h -0.83396 z" /><path
         style="fill:#f2f2f2;fill-opacity:1;stroke-width:0.183618"
         d="m 87.171983,90.699361 c -2.618544,-0.728616 -4.551919,-2.690921 -5.258896,-5.337562 -0.190857,-0.71447 -0.245244,-3.218942 -0.245244,-11.292427 0,-8.073485 0.05436,-10.577959 0.245244,-11.292427 1.752106,-6.559182 10.575902,-7.571081 13.609743,-1.560742 0.78324,1.551674 0.829987,2.275632 0.829987,12.853169 0,6.76465 -0.06791,10.400925 -0.206448,11.053867 -0.85906,4.04875 -5.067063,6.663336 -8.974386,5.576122 z"
         id="path4" /></g><g
       id="g17"
       transform="translate(0,-1.0000002)"><path
         id="path16"
         style="fill:#797979;fill-opacity:1;stroke-width:0.183618"
         d="m 30.667174,69.963421 c -4.073674,0 -4.808301,1.478572 -4.802589,9.661874 0.005,7.203395 0.189181,7.829341 2.657335,8.996168 0.657824,0.310985 1.244333,0.433958 2.066613,0.435269 l 0.407835,0.0019 v 0.0019 h 0.738861 0.102416 c -0.04607,-1.093138 -0.08013,-2.595583 -0.102416,-4.325257 v -5.223379 -9.548485 z" /><path
         style="fill:#9d9d9d;fill-opacity:1;stroke-width:0.183618"
         d="m 37.228243,96.14151 c -2.618543,-0.728626 -4.551919,-2.690916 -5.258901,-5.337571 -0.3561,-1.333092 -0.3561,-21.251757 0,-22.584847 1.812622,-6.785717 10.731137,-7.558344 13.776814,-1.193511 l 0.571113,1.193511 v 11.292424 11.292423 l -0.571113,1.193513 c -1.608268,3.360945 -5.146266,5.082222 -8.517913,4.144058 z"
         id="path20" /><path
         id="path7"
         style="fill:#cccccc;fill-opacity:1;stroke-width:0.183618"
         d="m 30.158751,64.52073 v 0.01098 c -3.625975,0.131611 -4.299632,1.821391 -4.294166,9.650901 0.005,7.203393 0.189181,7.831176 2.657335,8.997996 v -0.0019 c 0.53689,0.253813 1.028225,0.381093 1.636831,0.420637 v 0.01829 h 1.576478 0.102416 c -0.04623,-1.097758 -0.08019,-2.636786 -0.102416,-4.374637 V 74.06914 68.893463 c 0.02222,-1.73768 0.05617,-3.275401 0.102416,-4.372807 h -0.102416 -1.068055 z" /><path
         style="fill:#f2f2f2;fill-opacity:1;stroke-width:0.183618"
         d="M 37.228243,90.699361 C 34.6097,89.970745 32.676324,88.00844 31.969342,85.361799 c -0.3561,-1.333097 -0.3561,-21.251762 0,-22.584854 1.812622,-6.785717 10.731137,-7.558343 13.776814,-1.193509 l 0.571113,1.193509 v 11.292427 11.292427 l -0.571113,1.193506 c -1.608268,3.360952 -5.146266,5.082217 -8.517913,4.144056 z"
         id="path3" /></g><g
       id="g25"
       style="fill:#f5f5f5;fill-opacity:1"
       transform="matrix(1.0371605,0,0,1.0371605,-3.4286854,-8.6174039)"><path
         style="fill:#f5f5f5;fill-opacity:1;stroke-width:0.18807"
         d="m 76.038462,88.00196 -0.461625,-0.461617 v -6.599516 -6.599514 l 0.461625,-0.461625 c 0.290987,-0.290985 0.676494,-0.461622 1.042928,-0.461622 0.366425,0 0.751942,0.170637 1.04293,0.461622 l 0.461615,0.461625 v 6.599514 6.599516 L 78.12432,88.00196 c -0.290988,0.290994 -0.676505,0.461631 -1.04293,0.461631 -0.366434,0 -0.751941,-0.170637 -1.042928,-0.461631 z"
         id="path10" /><path
         style="fill:#f5f5f5;fill-opacity:1;stroke-width:0.18807"
         d="m 51.965623,91.011067 -0.461625,-0.461624 v -6.599511 -6.599513 l 0.461625,-0.461625 c 0.290986,-0.290987 0.676499,-0.461624 1.042927,-0.461624 0.366429,0 0.751942,0.170637 1.04293,0.461624 l 0.461623,0.461625 v 6.599513 6.599511 l -0.461623,0.461624 c -0.290988,0.290987 -0.676501,0.461625 -1.04293,0.461625 -0.366428,0 -0.751941,-0.170638 -1.042927,-0.461625 z"
         id="path9" /><path
         style="fill:#f5f5f5;fill-opacity:1;stroke-width:0.18807"
         d="M 57.983832,94.020175 57.522207,93.558551 V 80.940827 68.323105 l 0.461625,-0.461625 c 0.290986,-0.290987 0.676499,-0.461623 1.042927,-0.461623 0.366428,0 0.751941,0.170636 1.04293,0.461623 l 0.461623,0.461625 v 12.617722 12.617724 l -0.461623,0.461624 c -0.290989,0.290987 -0.676502,0.461624 -1.04293,0.461624 -0.366428,0 -0.751941,-0.170637 -1.042927,-0.461624 z"
         id="path6" /><path
         style="fill:#f5f5f5;fill-opacity:1;stroke-width:0.18807"
         d="m 70.386065,94.401814 c -0.856784,-0.373712 -0.82744,0.104531 -0.82744,-13.484917 V 68.323105 l 0.461626,-0.461625 c 0.290985,-0.290987 0.676498,-0.461623 1.042926,-0.461623 0.366428,0 0.751939,0.170636 1.042927,0.461623 l 0.461625,0.461625 v 12.703207 c 0,13.665639 0.01442,13.455487 -0.924962,13.455487 -0.09498,0 -0.285399,0.03921 -0.423156,0.0872 -0.137756,0.04799 -0.512852,-0.02725 -0.833546,-0.167155 z"
         id="path5" /><path
         style="fill:#f5f5f5;fill-opacity:1;stroke-width:0.18807"
         d="M 64.00204,100.03838 63.540417,99.576751 V 80.940827 62.304895 l 0.461623,-0.461624 c 0.290987,-0.290986 0.676501,-0.461622 1.042929,-0.461622 0.366427,0 0.751941,0.170636 1.042928,0.461622 l 0.461624,0.461624 v 18.635932 18.635924 l -0.461624,0.461629 C 65.79691,100.32936 65.411396,100.5 65.044969,100.5 c -0.366428,0 -0.751942,-0.17064 -1.042929,-0.46162 z"
         id="path2" /></g></g></svg>
