<?xml version="1.0" encoding="UTF-8" standalone="no"?>
<!-- Created with Inkscape (http://www.inkscape.org/) -->

<svg
   width="128"
   height="128"
   viewBox="0 0 128 128"
   version="1.1"
   id="svg5"
   inkscape:version="1.4 (e7c3feb100, 2024-10-09)"
   sodipodi:docname="org.jupyter.JupyterLab.svg"
   xml:space="preserve"
   xmlns:inkscape="http://www.inkscape.org/namespaces/inkscape"
   xmlns:sodipodi="http://sodipodi.sourceforge.net/DTD/sodipodi-0.dtd"
   xmlns:xlink="http://www.w3.org/1999/xlink"
   xmlns="http://www.w3.org/2000/svg"
   xmlns:svg="http://www.w3.org/2000/svg"
   xmlns:figma="http://www.figma.com/figma/ns"><sodipodi:namedview
     id="namedview7"
     pagecolor="#ffffff"
     bordercolor="#666666"
     borderopacity="1"
     inkscape:pageshadow="2"
     inkscape:pageopacity="0.0"
     inkscape:pagecheckerboard="true"
     inkscape:document-units="px"
     showgrid="false"
     inkscape:showpageshadow="false"
     showborder="true"
     inkscape:snap-page="true"
     inkscape:zoom="5.6568544"
     inkscape:cx="30.670756"
     inkscape:cy="87.06252"
     inkscape:window-width="1920"
     inkscape:window-height="1043"
     inkscape:window-x="0"
     inkscape:window-y="0"
     inkscape:window-maximized="1"
     inkscape:current-layer="layer2"
     inkscape:snap-global="true"
     inkscape:deskcolor="#d1d1d1" /><defs
     id="defs2"><linearGradient
       id="linearGradient43"
       inkscape:collect="always"><stop
         style="stop-color:#aeaeae;stop-opacity:1;"
         offset="0"
         id="stop43" /><stop
         style="stop-color:#fdfdfd;stop-opacity:1;"
         offset="1"
         id="stop44" /></linearGradient><linearGradient
       id="linearGradient39"
       inkscape:collect="always"><stop
         style="stop-color:#d56013;stop-opacity:1;"
         offset="0"
         id="stop39" /><stop
         style="stop-color:#fb741c;stop-opacity:1;"
         offset="0.1"
         id="stop41" /><stop
         style="stop-color:#fb741c;stop-opacity:1;"
         offset="1"
         id="stop40" /></linearGradient><linearGradient
       id="linearGradient35"
       inkscape:collect="always"><stop
         style="stop-color:#f7b88f;stop-opacity:0;"
         offset="0"
         id="stop36" /><stop
         style="stop-color:#f48237;stop-opacity:0.52935237;"
         offset="1"
         id="stop37" /></linearGradient><linearGradient
       id="linearGradient33"
       inkscape:collect="always"><stop
         style="stop-color:#ec5a00;stop-opacity:1;"
         offset="0"
         id="stop33" /><stop
         style="stop-color:#d54f0c;stop-opacity:1;"
         offset="0.61365503"
         id="stop35" /><stop
         style="stop-color:#fffefe;stop-opacity:1;"
         offset="1"
         id="stop34" /></linearGradient><linearGradient
       y2="236"
       x2="96"
       y1="236"
       x1="32"
       gradientTransform="translate(604.81684,170.58641)"
       gradientUnits="userSpaceOnUse"
       id="linearGradient1099"
       xlink:href="#linearGradient1036" /><linearGradient
       id="linearGradient1036"><stop
         id="stop1032"
         offset="0"
         style="stop-color:#d5d3cf;stop-opacity:1;" /><stop
         id="stop1034"
         offset="1"
         style="stop-color:#f6f5f4;stop-opacity:1" /></linearGradient><radialGradient
       r="32"
       fy="-76"
       fx="-244"
       cy="-76"
       cx="-244"
       gradientTransform="matrix(0.88333331,0,0,0.88333331,-460.35018,463.11973)"
       gradientUnits="userSpaceOnUse"
       id="radialGradient1103"
       xlink:href="#linearGradient1069" /><linearGradient
       id="linearGradient1069"><stop
         id="stop1065"
         offset="0"
         style="stop-color:#d5d3cf;stop-opacity:1" /><stop
         id="stop1067-1"
         offset="1"
         style="stop-color:#949390;stop-opacity:1" /></linearGradient><linearGradient
       gradientUnits="userSpaceOnUse"
       y2="232"
       x2="64"
       y1="262.5"
       x1="64"
       id="linearGradient1027"
       xlink:href="#linearGradient1025"
       gradientTransform="translate(-470.5864,432.81685)" /><linearGradient
       id="linearGradient1025"><stop
         id="stop1021"
         offset="0"
         style="stop-color:#9a9996;stop-opacity:1" /><stop
         id="stop1023"
         offset="1"
         style="stop-color:#77767b;stop-opacity:1" /></linearGradient><inkscape:path-effect
       effect="spiro"
       id="path-effect35304-9"
       is_visible="true" /><clipPath
       clipPathUnits="userSpaceOnUse"
       id="clipPath1609-7"><path
         sodipodi:nodetypes="cccccc"
         inkscape:connector-curvature="0"
         id="path1611-5"
         d="m 252,116 28,-28 v -8 h -36 v 36 z"
         style="fill:#e74747;stroke:none;stroke-width:0.25px;stroke-linecap:butt;stroke-linejoin:miter;stroke-opacity:1" /></clipPath><linearGradient
       inkscape:collect="always"
       id="linearGradient8241"><stop
         style="stop-color:#999999;stop-opacity:1"
         offset="0"
         id="stop8237" /><stop
         style="stop-color:#999999;stop-opacity:1"
         offset="0.1"
         id="stop21746" /><stop
         style="stop-color:#999999;stop-opacity:1"
         offset="0.89999998"
         id="stop21940" /><stop
         style="stop-color:#b3b3b3;stop-opacity:1"
         offset="0.94999999"
         id="stop9351" /><stop
         style="stop-color:#999999;stop-opacity:1"
         offset="1"
         id="stop8239" /></linearGradient><radialGradient
       r="32"
       fy="-76"
       fx="-244"
       cy="-76"
       cx="-244"
       gradientTransform="matrix(0.88333331,0,0,0.88333331,-460.35018,463.11973)"
       gradientUnits="userSpaceOnUse"
       id="radialGradient1103-5"
       xlink:href="#linearGradient1069" /><inkscape:path-effect
       effect="spiro"
       id="path-effect35304-9-2"
       is_visible="true" /><clipPath
       clipPathUnits="userSpaceOnUse"
       id="clipPath1609-7-7"><path
         sodipodi:nodetypes="cccccc"
         inkscape:connector-curvature="0"
         id="path1611-5-0"
         d="m 252,116 28,-28 v -8 h -36 v 36 z"
         style="fill:#e74747;stroke:none;stroke-width:0.25px;stroke-linecap:butt;stroke-linejoin:miter;stroke-opacity:1" /></clipPath><clipPath
       clipPathUnits="userSpaceOnUse"
       id="clipPath744"><rect
         style="fill:#1e88e5;fill-opacity:1;stroke-width:0.264583"
         id="rect746"
         width="541.86664"
         height="541.86664"
         x="0"
         y="1.5987212e-14"
         rx="79.375"
         ry="79.375" /></clipPath><clipPath
       clipPathUnits="userSpaceOnUse"
       id="clipPath62"><rect
         style="fill:#1e88e5;fill-opacity:1;stroke-width:0.264583"
         id="rect64"
         width="541.86664"
         height="541.86664"
         x="2.2507105e-05"
         y="-0.42205024"
         rx="79.375"
         ry="79.375" /></clipPath><linearGradient
       inkscape:collect="always"
       xlink:href="#linearGradient8241"
       id="linearGradient8243"
       x1="11.5"
       y1="120.5"
       x2="116.5"
       y2="120.5"
       gradientUnits="userSpaceOnUse"
       gradientTransform="matrix(0.80736871,0,0,1,12.328401,0)" /><radialGradient
       r="32"
       fy="-76"
       fx="-244"
       cy="-76"
       cx="-244"
       gradientTransform="matrix(0.88333331,0,0,0.88333331,-460.35018,463.11973)"
       gradientUnits="userSpaceOnUse"
       id="radialGradient1103-6"
       xlink:href="#linearGradient1069" /><inkscape:path-effect
       effect="spiro"
       id="path-effect35304-9-20"
       is_visible="true" /><clipPath
       clipPathUnits="userSpaceOnUse"
       id="clipPath1609-7-2"><path
         sodipodi:nodetypes="cccccc"
         inkscape:connector-curvature="0"
         id="path1611-5-3"
         d="m 252,116 28,-28 v -8 h -36 v 36 z"
         style="fill:#e74747;stroke:none;stroke-width:0.25px;stroke-linecap:butt;stroke-linejoin:miter;stroke-opacity:1" /></clipPath><clipPath
       clipPathUnits="userSpaceOnUse"
       id="clipPath966"><rect
         style="fill:#999999;fill-opacity:1;stroke-width:0.264583"
         id="rect968"
         width="541.86664"
         height="541.86664"
         x="0"
         y="-2.8421709e-14"
         rx="79.375"
         ry="79.375" /></clipPath><clipPath
       clipPathUnits="userSpaceOnUse"
       id="clipPath402"><rect
         style="fill:#999999;fill-opacity:1;stroke-width:0.264583"
         id="rect404"
         width="541.86664"
         height="541.86664"
         x="1.5908203e-05"
         y="1.5908203e-05"
         rx="79.375"
         ry="79.375" /></clipPath><clipPath
       clipPathUnits="userSpaceOnUse"
       id="clipPath2739"><rect
         style="fill:#999999;fill-opacity:1;stroke-width:0.264583"
         id="rect2741"
         width="541.86664"
         height="541.86664"
         x="-7.8515623e-06"
         y="1.8626168"
         rx="79.375"
         ry="79.375" /></clipPath><path
       id="path0_fill"
       d="M 1.74498 5.47533C 1.74498 7.03335 1.62034 7.54082 1.29983 7.91474C 0.943119 8.23595 0.480024 8.41358 0 8.41331L 0.124642 9.3036C 0.86884 9.31366 1.59095 9.05078 2.15452 8.56466C 2.45775 8.19487 2.6834 7.76781 2.818 7.30893C 2.95261 6.85005 2.99341 6.36876 2.93798 5.89377L 2.93798 0L 1.74498 0L 1.74498 5.43972L 1.74498 5.47533Z" /><path
       id="path1_fill"
       d="M 5.50204 4.76309C 5.50204 5.43081 5.50204 6.02731 5.55545 6.54368L 4.496 6.54368L 4.42478 5.48423C 4.20318 5.85909 3.88627 6.16858 3.50628 6.38125C 3.12628 6.59392 2.69675 6.70219 2.26135 6.69503C 1.22861 6.69503 0 6.13415 0 3.84608L 0 0.0445149L 1.193 0.0445149L 1.193 3.6057C 1.193 4.84322 1.57583 5.67119 2.65309 5.67119C 2.87472 5.67358 3.09459 5.63168 3.29982 5.54796C 3.50505 5.46424 3.69149 5.34039 3.84822 5.18366C 4.00494 5.02694 4.1288 4.84049 4.21252 4.63527C 4.29623 4.43004 4.33813 4.21016 4.33575 3.98853L 4.33575 0L 5.52874 0L 5.52874 4.72748L 5.50204 4.76309Z" /><path
       id="path2_fill"
       d="M 0.0534178 2.27264C 0.0534178 1.44466 0.0534178 0.768036 0 0.153731L 1.06836 0.153731L 1.12177 1.2666C 1.3598 0.864535 1.70247 0.534594 2.11325 0.311954C 2.52404 0.0893145 2.98754 -0.0176786 3.45435 0.00238095C 5.03908 0.00238095 6.23208 1.32892 6.23208 3.30538C 6.23208 5.63796 4.7987 6.79535 3.24958 6.79535C 2.85309 6.81304 2.45874 6.7281 2.10469 6.54874C 1.75064 6.36937 1.44888 6.10166 1.22861 5.77151L 1.22861 5.77151L 1.22861 9.33269L 0.0534178 9.33269L 0.0534178 2.29935L 0.0534178 2.27264ZM 1.22861 4.00872C 1.23184 4.17026 1.24972 4.33117 1.28203 4.48948C 1.38304 4.88479 1.61299 5.23513 1.93548 5.48506C 2.25798 5.735 2.65461 5.87026 3.06262 5.86944C 4.31794 5.86944 5.05689 4.8456 5.05689 3.3588C 5.05689 2.05897 4.36246 0.946096 3.10714 0.946096C 2.61036 0.986777 2.14548 1.20726 1.79965 1.5662C 1.45382 1.92514 1.25079 2.3979 1.22861 2.89585L 1.22861 4.00872Z" /><path
       id="path3_fill"
       d="M 1.31764 0.0178059L 2.75102 3.85499C 2.90237 4.28233 3.06262 4.7987 3.16946 5.18153C 3.2941 4.7898 3.42764 4.29123 3.5879 3.82828L 4.88773 0.0178059L 6.14305 0.0178059L 4.36246 4.64735C 3.47216 6.87309 2.92908 8.02158 2.11 8.71601C 1.69745 9.09283 1.19448 9.35658 0.649917 9.48166L 0.356119 8.48453C 0.736886 8.35942 1.09038 8.16304 1.39777 7.90584C 1.8321 7.55188 2.17678 7.10044 2.4038 6.5882C 2.45239 6.49949 2.48551 6.40314 2.50173 6.3033C 2.49161 6.19586 2.46457 6.0907 2.42161 5.9917L 0 0L 1.29983 0L 1.31764 0.0178059Z" /><path
       id="path4_fill"
       d="M 2.19013 0L 2.19013 1.86962L 3.8995 1.86962L 3.8995 2.75992L 2.19013 2.75992L 2.19013 6.26769C 2.19013 7.06896 2.42161 7.53191 3.08043 7.53191C 3.31442 7.53574 3.54789 7.5088 3.77486 7.45179L 3.82828 8.34208C 3.48794 8.45999 3.12881 8.51431 2.76882 8.50234C 2.53042 8.51726 2.29161 8.48043 2.06878 8.39437C 1.84595 8.30831 1.64438 8.17506 1.47789 8.00377C 1.11525 7.51873 0.949826 6.91431 1.01494 6.31221L 1.01494 2.75102L 0 2.75102L 0 1.86072L 1.03274 1.86072L 1.03274 0.275992L 2.19013 0Z" /><path
       id="path5_fill"
       d="M 1.17716 3.57899C 1.153 3.88093 1.19468 4.18451 1.29933 4.46876C 1.40398 4.75301 1.5691 5.01114 1.78329 5.22532C 1.99747 5.43951 2.2556 5.60463 2.53985 5.70928C 2.8241 5.81393 3.12768 5.85561 3.42962 5.83145C 4.04033 5.84511 4.64706 5.72983 5.21021 5.49313L 5.41498 6.38343C 4.72393 6.66809 3.98085 6.80458 3.23375 6.78406C 2.79821 6.81388 2.36138 6.74914 1.95322 6.59427C 1.54505 6.43941 1.17522 6.19809 0.869071 5.88688C 0.562928 5.57566 0.327723 5.2019 0.179591 4.79125C 0.0314584 4.38059 -0.0260962 3.94276 0.0108748 3.50777C 0.0108748 1.54912 1.17716 0 3.0824 0C 5.21911 0 5.75329 1.86962 5.75329 3.06262C 5.76471 3.24644 5.76471 3.43079 5.75329 3.61461L 1.15046 3.61461L 1.17716 3.57899ZM 4.66713 2.6887C 4.70149 2.45067 4.68443 2.20805 4.61709 1.97718C 4.54976 1.74631 4.43372 1.53255 4.2768 1.35031C 4.11987 1.16808 3.92571 1.0216 3.70739 0.920744C 3.48907 0.81989 3.25166 0.767006 3.01118 0.765656C 2.52201 0.801064 2.06371 1.01788 1.72609 1.37362C 1.38847 1.72935 1.19588 2.19835 1.18607 2.6887L 4.66713 2.6887Z" /><path
       id="path6_fill"
       d="M 0.0534178 2.19228C 0.0534178 1.42663 0.0534178 0.767806 0 0.162404L 1.06836 0.162404L 1.06836 1.43553L 1.12177 1.43553C 1.23391 1.04259 1.4656 0.694314 1.78468 0.439049C 2.10376 0.183783 2.4944 0.034196 2.90237 0.0110538C 3.01466 -0.00368459 3.12839 -0.00368459 3.24068 0.0110538L 3.24068 1.12393C 3.10462 1.10817 2.9672 1.10817 2.83114 1.12393C 2.427 1.13958 2.04237 1.30182 1.7491 1.58035C 1.45583 1.85887 1.27398 2.23462 1.23751 2.63743C 1.20422 2.8196 1.18635 3.00425 1.1841 3.18941L 1.1841 6.65267L 0.00890297 6.65267L 0.00890297 2.20118L 0.0534178 2.19228Z" /><path
       id="path7_fill"
       d="M 6.03059 2.83565C 6.06715 3.43376 5.92485 4.02921 5.6218 4.54615C 5.31875 5.0631 4.86869 5.47813 4.32893 5.73839C 3.78917 5.99864 3.18416 6.09233 2.59097 6.00753C 1.99778 5.92272 1.44326 5.66326 0.998048 5.26219C 0.552837 4.86113 0.23709 4.33661 0.0910307 3.75546C -0.0550287 3.17431 -0.0247891 2.56283 0.177897 1.99893C 0.380583 1.43503 0.746541 0.944221 1.22915 0.589037C 1.71176 0.233853 2.28918 0.0303686 2.88784 0.00450543C 3.28035 -0.0170932 3.67326 0.0391144 4.04396 0.169896C 4.41467 0.300677 4.75587 0.503453 5.04794 0.766561C 5.34 1.02967 5.57718 1.34792 5.74582 1.70301C 5.91446 2.0581 6.01124 2.44303 6.03059 2.83565L 6.03059 2.83565Z" /><path
       id="path8_fill"
       d="M 18.6962 7.12238C 10.6836 7.12238 3.64131 4.24672 0 0C 1.41284 3.82041 3.96215 7.1163 7.30479 9.44404C 10.6474 11.7718 14.623 13.0196 18.6962 13.0196C 22.7695 13.0196 26.745 11.7718 30.0877 9.44404C 33.4303 7.1163 35.9796 3.82041 37.3925 4.0486e-13C 33.7601 4.24672 26.7445 7.12238 18.6962 7.12238Z" /><path
       id="path9_fill"
       d="M 18.6962 5.89725C 26.7089 5.89725 33.7512 8.77291 37.3925 13.0196C 35.9796 9.19922 33.4303 5.90333 30.0877 3.57559C 26.745 1.24785 22.7695 4.0486e-13 18.6962 0C 14.623 4.0486e-13 10.6474 1.24785 7.30479 3.57559C 3.96215 5.90333 1.41284 9.19922 0 13.0196C 3.64131 8.76401 10.648 5.89725 18.6962 5.89725Z" /><path
       id="path10_fill"
       d="M 7.59576 3.56656C 7.64276 4.31992 7.46442 5.07022 7.08347 5.72186C 6.70251 6.3735 6.13619 6.89698 5.45666 7.22561C 4.77713 7.55424 4.01515 7.67314 3.26781 7.56716C 2.52046 7.46117 1.82158 7.13511 1.26021 6.63051C 0.698839 6.12591 0.300394 5.46561 0.115637 4.73375C -0.0691191 4.00188 -0.0318219 3.23159 0.222777 2.52099C 0.477376 1.8104 0.93775 1.19169 1.54524 0.743685C 2.15274 0.295678 2.87985 0.0386595 3.63394 0.00537589C 4.12793 -0.0210471 4.62229 0.0501173 5.08878 0.214803C 5.55526 0.37949 5.98473 0.63447 6.35264 0.965179C 6.72055 1.29589 7.01971 1.69584 7.233 2.1422C 7.4463 2.58855 7.56957 3.07256 7.59576 3.56656L 7.59576 3.56656Z" /><path
       id="path11_fill"
       d="M 2.25061 4.37943C 1.81886 4.39135 1.39322 4.27535 1.02722 4.04602C 0.661224 3.81668 0.371206 3.48424 0.193641 3.09052C 0.0160762 2.69679 -0.0411078 2.25935 0.0292804 1.83321C 0.0996686 1.40707 0.294486 1.01125 0.589233 0.695542C 0.883981 0.37983 1.2655 0.158316 1.68581 0.0588577C 2.10611 -0.0406005 2.54644 -0.0135622 2.95143 0.136572C 3.35641 0.286707 3.70796 0.553234 3.96186 0.902636C 4.21577 1.25204 4.3607 1.66872 4.37842 2.10027C 4.39529 2.6838 4.18131 3.25044 3.78293 3.67715C 3.38455 4.10387 2.83392 4.35623 2.25061 4.37943Z" /><linearGradient
       inkscape:collect="always"
       xlink:href="#linearGradient33"
       id="linearGradient34"
       x1="86.180649"
       y1="90.711922"
       x2="100.28384"
       y2="104.28386"
       gradientUnits="userSpaceOnUse" /><linearGradient
       inkscape:collect="always"
       xlink:href="#linearGradient35"
       id="linearGradient38"
       gradientUnits="userSpaceOnUse"
       x1="75.787521"
       y1="80.775978"
       x2="113.19904"
       y2="118.1875" /><linearGradient
       inkscape:collect="always"
       xlink:href="#linearGradient39"
       id="linearGradient40"
       x1="23.355469"
       y1="62"
       x2="106.38672"
       y2="62"
       gradientUnits="userSpaceOnUse" /><linearGradient
       inkscape:collect="always"
       xlink:href="#linearGradient43"
       id="linearGradient44"
       x1="91.080078"
       y1="97.631836"
       x2="102.5424"
       y2="109.09415"
       gradientUnits="userSpaceOnUse" /><filter
       style="color-interpolation-filters:sRGB;"
       inkscape:label="Drop Shadow"
       id="filter89"
       x="-0.043845287"
       y="-0.04385752"
       width="1.0876906"
       height="1.087715"><feFlood
         result="flood"
         in="SourceGraphic"
         flood-opacity="1.000000"
         flood-color="rgb(222,86,0)"
         id="feFlood88" /><feGaussianBlur
         result="blur"
         in="SourceGraphic"
         stdDeviation="0.500000"
         id="feGaussianBlur88" /><feOffset
         result="offset"
         in="blur"
         dx="0.000000"
         dy="0.000000"
         id="feOffset88" /><feComposite
         result="comp1"
         operator="out"
         in="flood"
         in2="offset"
         id="feComposite88" /><feComposite
         result="comp2"
         operator="atop"
         in="comp1"
         in2="SourceGraphic"
         id="feComposite89" /></filter><filter
       style="color-interpolation-filters:sRGB;"
       inkscape:label="Drop Shadow"
       id="filter119"
       x="-0.074957204"
       y="-0.058060001"
       width="1.1499144"
       height="1.1403117"><feFlood
         result="flood"
         in="SourceGraphic"
         flood-opacity="0.349020"
         flood-color="rgb(173,73,0)"
         id="feFlood118" /><feGaussianBlur
         result="blur"
         in="SourceGraphic"
         stdDeviation="1.500000"
         id="feGaussianBlur118" /><feOffset
         result="offset"
         in="blur"
         dx="0.000000"
         dy="1.500000"
         id="feOffset118" /><feComposite
         result="comp1"
         operator="in"
         in="flood"
         in2="offset"
         id="feComposite118" /><feComposite
         result="comp2"
         operator="over"
         in="SourceGraphic"
         in2="comp1"
         id="feComposite119" /></filter></defs><g
     inkscape:groupmode="layer"
     id="layer2"
     inkscape:label="Layer 1"><path
       id="rect440"
       style="fill:url(#linearGradient8243);fill-opacity:1;stroke-width:0.898537"
       d="M 29.742188 15.5 L 29.742188 112.5 A 6.3864856 4 0 0 0 23.355469 116.5 A 6.3864856 4 0 0 0 29.742188 120.5 L 98.576172 120.5 C 102.90355 120.5 106.38672 116.932 106.38672 112.5 L 106.38672 23.5 C 106.38672 19.068 102.90355 15.5 98.576172 15.5 L 29.742188 15.5 z " /><path
       id="ellipse17"
       style="fill:url(#linearGradient40);fill-opacity:1;fill-rule:evenodd;stroke-width:6.31787;stroke-linecap:square;paint-order:stroke markers fill"
       d="M 29.742188 7.5 A 6.3864856 4 0 0 0 23.355469 11.5 L 23.355469 116.5 A 6.3864856 4 0 0 1 29.742188 112.5 L 98.386719 112.5 C 102.81872 112.5 106.38672 108.932 106.38672 104.5 L 106.38672 15.5 C 106.38672 11.068 102.81872 7.5 98.386719 7.5 L 29.742188 7.5 z " /><path
       id="path38"
       style="mix-blend-mode:luminosity;fill:url(#linearGradient38);fill-opacity:1;fill-rule:evenodd;stroke-width:6.31787;stroke-linecap:square;paint-order:stroke markers fill"
       d="m 29.74219,7.5 a 6.3864856,4 0 0 0 -6.38672,4 v 105 a 6.3864856,4 0 0 1 6.38672,-4 h 68.64453 c 4.432,0 8,-3.568 8,-8 v -89 c 0,-4.432 -3.568,-8 -8,-8 z" /><path
       id="path2"
       style="fill:url(#linearGradient34);fill-rule:evenodd;stroke-width:5.02242;stroke-linecap:square;paint-order:stroke markers fill;fill-opacity:1;filter:url(#filter89)"
       d="m 106.38654,85.138672 c -0.74452,2.413077 -3.52037,5.887856 -13.365506,5.887856 -4.468001,0 -8.064983,3.571059 -8.064983,8.006859 0,11.555273 -4.223046,13.250393 -5.938473,13.466613 1.826559,-0.11879 6.820279,-0.852 11.238995,-5.23886 l 9.333011,-9.265751 c 4.784396,-4.749911 6.311906,-9.855391 6.796956,-12.856717 z" /><g
       id="g1"
       style="filter:url(#filter119)"><g
         id="g8"
         style="mix-blend-mode:normal;fill:#fee6d6;fill-opacity:1"
         figma:type="group"
         transform="matrix(1.2399769,0,0,1.2399769,-1994.5386,-3009.5212)"><g
           id="path16 fill"
           style="mix-blend-mode:normal;fill:#fee6d6;fill-opacity:1"
           figma:type="vector"><use
             xlink:href="#path7_fill"
             transform="translate(1673.48,2453.69)"
             fill="#767677"
             style="mix-blend-mode:normal;fill:#fee6d6;fill-opacity:1"
             id="use8" /></g></g><g
         id="g9"
         style="mix-blend-mode:normal;fill:#ffffff;fill-opacity:1"
         figma:type="group"
         transform="matrix(1.2399769,0,0,1.2399769,-1994.5386,-3009.5212)"><g
           id="path17 fill"
           style="mix-blend-mode:normal;fill:#ffffff;fill-opacity:1"
           figma:type="vector"><use
             xlink:href="#path8_fill"
             transform="translate(1643.21,2484.27)"
             fill="#f37726"
             style="mix-blend-mode:normal;fill:#ffffff;fill-opacity:1"
             id="use9" /></g></g><g
         id="g10"
         style="mix-blend-mode:normal;fill:#ffffff;fill-opacity:1"
         figma:type="group"
         transform="matrix(1.2399769,0,0,1.2399769,-1994.5386,-3009.5212)"><g
           id="path18 fill"
           style="mix-blend-mode:normal;fill:#ffffff;fill-opacity:1"
           figma:type="vector"><use
             xlink:href="#path9_fill"
             transform="translate(1643.21,2457.88)"
             fill="#f37726"
             style="mix-blend-mode:normal;fill:#ffffff;fill-opacity:1"
             id="use10" /></g></g><g
         id="g11"
         style="mix-blend-mode:normal;fill:#fee6d6;fill-opacity:1"
         figma:type="group"
         transform="matrix(1.2399769,0,0,1.2399769,-1994.5386,-3009.5212)"><g
           id="path19 fill"
           style="mix-blend-mode:normal;fill:#fee6d6;fill-opacity:1"
           figma:type="vector"><use
             xlink:href="#path10_fill"
             transform="translate(1643.28,2496.09)"
             fill="#9e9e9e"
             style="mix-blend-mode:normal;fill:#fee6d6;fill-opacity:1"
             id="use11" /></g></g><g
         id="g12"
         style="mix-blend-mode:normal;fill:#fee6d6;fill-opacity:1"
         figma:type="group"
         transform="matrix(1.2399769,0,0,1.2399769,-1994.5386,-3009.5212)"><g
           id="path20 fill"
           style="mix-blend-mode:normal;fill:#fee6d6;fill-opacity:1"
           figma:type="vector"><use
             xlink:href="#path11_fill"
             transform="translate(1641.87,2458.43)"
             fill="#616262"
             style="mix-blend-mode:normal;fill:#fee6d6;fill-opacity:1"
             id="use12" /></g></g></g><path
       style="fill:url(#linearGradient44);fill-opacity:1;fill-rule:evenodd;stroke-width:5;stroke-linecap:square;paint-order:stroke markers fill"
       d="m 106.38672,85.138672 c -0.48505,3.001326 -2.01248,8.107511 -6.796876,12.857422 l -9.333985,9.265626 c -4.418716,4.38686 -9.411722,5.11949 -11.238281,5.23828 h 19.369141 c 4.432001,0 8.000001,-3.568 8.000001,-8 z"
       id="path18" /><path
       id="path22"
       style="fill:#d85d0c;fill-opacity:1;fill-rule:evenodd;stroke-width:6.31787;stroke-linecap:square;paint-order:stroke markers fill"
       d="M 29.742188 110.5 A 6.3864856 4 0 0 0 23.355469 114.5 L 23.355469 116.5 A 6.3864856 4 0 0 1 29.742188 112.5 L 79.017578 112.5 C 79.796876 112.40177 81.092093 111.99443 82.275391 110.5 L 29.742188 110.5 z M 81.859375 112.03516 C 81.816427 112.04597 81.77286 112.05803 81.730469 112.06836 C 81.773329 112.05787 81.815946 112.04614 81.859375 112.03516 z M 80.255859 112.36133 C 80.210518 112.3682 80.169031 112.37456 80.125 112.38086 C 80.170618 112.37431 80.20883 112.36851 80.255859 112.36133 z " /><path
       id="path25"
       style="fill:#ca590e;fill-opacity:1;stroke-width:0.898537"
       d="M 29.742188 110.5 A 6.3864856 4 0 0 0 23.355469 114.5 L 23.355469 116.5 A 6.3864856 4 0 0 1 23.455078 116.02148 A 6.3864856 4 0 0 1 23.673828 115.5 A 6.3864856 4 0 0 0 23.355469 116.5 A 6.3864856 4 0 0 0 29.742188 120.5 L 98.576172 120.5 C 102.90355 120.5 106.38672 116.932 106.38672 112.5 L 106.38672 110.5 C 106.38672 114.932 102.90355 118.5 98.576172 118.5 L 29.742188 118.5 A 6.3864856 4 0 0 1 24.724609 116.82617 A 3.9170291 3 0 0 1 24.3125 115.5 A 3.9170291 3 0 0 1 24.886719 113.94922 A 6.3864856 4 0 0 1 29.742188 112.5 L 79.017578 112.5 C 79.796876 112.40177 81.092093 111.99443 82.275391 110.5 L 29.742188 110.5 z M 81.859375 112.03516 C 81.816427 112.04597 81.77286 112.05803 81.730469 112.06836 C 81.773329 112.05787 81.815946 112.04614 81.859375 112.03516 z M 80.255859 112.36133 C 80.210518 112.3682 80.169031 112.37456 80.125 112.38086 C 80.170618 112.37431 80.20883 112.36851 80.255859 112.36133 z M 24.277344 114.44531 A 6.3864856 4 0 0 0 24.177734 114.54883 A 6.3864856 4 0 0 1 24.277344 114.44531 z M 23.580078 115.45117 A 6.3864856 4 0 0 0 23.568359 115.48047 A 6.3864856 4 0 0 1 23.580078 115.45117 z M 24.214844 116.3457 A 6.3864856 4 0 0 0 24.441406 116.58789 A 6.3864856 4 0 0 1 24.214844 116.3457 z " /><path
       id="path41"
       style="mix-blend-mode:luminosity;fill:#ffb483;fill-opacity:1;fill-rule:evenodd;stroke-width:6.31787;stroke-linecap:square;paint-order:stroke markers fill"
       d="M 29.742188 7.5 A 6.3864856 4 0 0 0 23.355469 11.5 L 23.355469 13.5 A 6.3864856 4 0 0 1 29.742188 9.5 L 98.386719 9.5 C 102.81872 9.5 106.38672 13.068 106.38672 17.5 L 106.38672 15.5 C 106.38672 11.068 102.81872 7.5 98.386719 7.5 L 29.742188 7.5 z " /></g></svg>
