<?xml version="1.0" encoding="UTF-8" standalone="no"?>
<!-- Created with Inkscape (http://www.inkscape.org/) -->

<svg
   width="128"
   height="128"
   viewBox="0 0 128 128"
   version="1.1"
   id="svg5"
   inkscape:version="1.4.3 (0d15f75042, 2025-12-25)"
   sodipodi:docname="org.signal.Signal.svg"
   xml:space="preserve"
   xmlns:inkscape="http://www.inkscape.org/namespaces/inkscape"
   xmlns:sodipodi="http://sodipodi.sourceforge.net/DTD/sodipodi-0.dtd"
   xmlns:xlink="http://www.w3.org/1999/xlink"
   xmlns="http://www.w3.org/2000/svg"
   xmlns:svg="http://www.w3.org/2000/svg"><sodipodi:namedview
     id="namedview7"
     pagecolor="#ffffff"
     bordercolor="#666666"
     borderopacity="1"
     inkscape:pageshadow="2"
     inkscape:pageopacity="0.0"
     inkscape:pagecheckerboard="true"
     inkscape:document-units="px"
     showgrid="false"
     inkscape:showpageshadow="false"
     showborder="true"
     inkscape:snap-page="true"
     inkscape:zoom="1.4804246"
     inkscape:cx="-105.71291"
     inkscape:cy="105.03743"
     inkscape:window-width="1728"
     inkscape:window-height="1043"
     inkscape:window-x="0"
     inkscape:window-y="0"
     inkscape:window-maximized="1"
     inkscape:current-layer="layer2"
     inkscape:deskcolor="#d1d1d1" /><defs
     id="defs2"><linearGradient
   inkscape:collect="always"
   id="linearGradient404"><stop
     style="stop-color:#8aadf6;stop-opacity:1;"
     offset="0"
     id="stop400" /><stop
     style="stop-color:#dbe5fc;stop-opacity:1;"
     offset="1"
     id="stop402" /></linearGradient><linearGradient
   y2="236"
   x2="96"
   y1="236"
   x1="32"
   gradientTransform="translate(604.81684,170.58641)"
   gradientUnits="userSpaceOnUse"
   id="linearGradient1099"
   xlink:href="#linearGradient1036" /><linearGradient
   id="linearGradient1036"><stop
     id="stop1032"
     offset="0"
     style="stop-color:#d5d3cf;stop-opacity:1;" /><stop
     id="stop1034"
     offset="1"
     style="stop-color:#f6f5f4;stop-opacity:1" /></linearGradient><radialGradient
   r="32"
   fy="-76"
   fx="-244"
   cy="-76"
   cx="-244"
   gradientTransform="matrix(0.88333331,0,0,0.88333331,-460.35018,463.11973)"
   gradientUnits="userSpaceOnUse"
   id="radialGradient1103"
   xlink:href="#linearGradient1069" /><linearGradient
   id="linearGradient1069"><stop
     id="stop1065"
     offset="0"
     style="stop-color:#d5d3cf;stop-opacity:1" /><stop
     id="stop1067-1"
     offset="1"
     style="stop-color:#949390;stop-opacity:1" /></linearGradient><linearGradient
   gradientUnits="userSpaceOnUse"
   y2="232"
   x2="64"
   y1="262.5"
   x1="64"
   id="linearGradient1027"
   xlink:href="#linearGradient1025"
   gradientTransform="translate(-470.5864,432.81685)" /><linearGradient
   id="linearGradient1025"><stop
     id="stop1021"
     offset="0"
     style="stop-color:#9a9996;stop-opacity:1" /><stop
     id="stop1023"
     offset="1"
     style="stop-color:#77767b;stop-opacity:1" /></linearGradient><inkscape:path-effect
   effect="spiro"
   id="path-effect35304-9"
   is_visible="true" /><clipPath
   clipPathUnits="userSpaceOnUse"
   id="clipPath1609-7"><path
     sodipodi:nodetypes="cccccc"
     inkscape:connector-curvature="0"
     id="path1611-5"
     d="m 252,116 28,-28 v -8 h -36 v 36 z"
     style="fill:#e74747;stroke:none;stroke-width:0.25px;stroke-linecap:butt;stroke-linejoin:miter;stroke-opacity:1" /></clipPath><linearGradient
   inkscape:collect="always"
   id="linearGradient8241"><stop
     style="stop-color:#1257dd;stop-opacity:1;"
     offset="0"
     id="stop8237" /><stop
     style="stop-color:#2a6ef0;stop-opacity:1;"
     offset="0.05"
     id="stop9349" /><stop
     style="stop-color:#1257dd;stop-opacity:1;"
     offset="0.1"
     id="stop21746" /><stop
     style="stop-color:#1257dd;stop-opacity:1;"
     offset="0.89999998"
     id="stop21940" /><stop
     style="stop-color:#2a6ef0;stop-opacity:1;"
     offset="0.94999999"
     id="stop9351" /><stop
     style="stop-color:#1257dd;stop-opacity:1;"
     offset="1"
     id="stop8239" /></linearGradient><radialGradient
   r="32"
   fy="-76"
   fx="-244"
   cy="-76"
   cx="-244"
   gradientTransform="matrix(0.88333331,0,0,0.88333331,-460.35018,463.11973)"
   gradientUnits="userSpaceOnUse"
   id="radialGradient1103-5"
   xlink:href="#linearGradient1069" /><inkscape:path-effect
   effect="spiro"
   id="path-effect35304-9-2"
   is_visible="true" /><clipPath
   clipPathUnits="userSpaceOnUse"
   id="clipPath1609-7-7"><path
     sodipodi:nodetypes="cccccc"
     inkscape:connector-curvature="0"
     id="path1611-5-0"
     d="m 252,116 28,-28 v -8 h -36 v 36 z"
     style="fill:#e74747;stroke:none;stroke-width:0.25px;stroke-linecap:butt;stroke-linejoin:miter;stroke-opacity:1" /></clipPath><clipPath
   clipPathUnits="userSpaceOnUse"
   id="clipPath744"><rect
     style="fill:#1e88e5;fill-opacity:1;stroke-width:0.264583"
     id="rect746"
     width="541.86664"
     height="541.86664"
     x="0"
     y="1.5987212e-14"
     rx="79.375"
     ry="79.375" /></clipPath><clipPath
   clipPathUnits="userSpaceOnUse"
   id="clipPath62"><rect
     style="fill:#1e88e5;fill-opacity:1;stroke-width:0.264583"
     id="rect64"
     width="541.86664"
     height="541.86664"
     x="2.2507105e-05"
     y="-0.42205024"
     rx="79.375"
     ry="79.375" /></clipPath><linearGradient
   inkscape:collect="always"
   xlink:href="#linearGradient8241"
   id="linearGradient8243"
   x1="11.5"
   y1="120.5"
   x2="116.5"
   y2="120.5"
   gradientUnits="userSpaceOnUse" /><radialGradient
   r="32"
   fy="-76"
   fx="-244"
   cy="-76"
   cx="-244"
   gradientTransform="matrix(0.88333331,0,0,0.88333331,-460.35018,463.11973)"
   gradientUnits="userSpaceOnUse"
   id="radialGradient1103-6"
   xlink:href="#linearGradient1069" /><inkscape:path-effect
   effect="spiro"
   id="path-effect35304-9-20"
   is_visible="true" /><clipPath
   clipPathUnits="userSpaceOnUse"
   id="clipPath1609-7-2"><path
     sodipodi:nodetypes="cccccc"
     inkscape:connector-curvature="0"
     id="path1611-5-3"
     d="m 252,116 28,-28 v -8 h -36 v 36 z"
     style="fill:#e74747;stroke:none;stroke-width:0.25px;stroke-linecap:butt;stroke-linejoin:miter;stroke-opacity:1" /></clipPath><radialGradient
   r="32"
   fy="-76"
   fx="-244"
   cy="-76"
   cx="-244"
   gradientTransform="matrix(0.88333331,0,0,0.88333331,-460.35018,463.11973)"
   gradientUnits="userSpaceOnUse"
   id="radialGradient1103-56"
   xlink:href="#linearGradient1069" /><inkscape:path-effect
   effect="spiro"
   id="path-effect35304-9-7"
   is_visible="true" /><clipPath
   clipPathUnits="userSpaceOnUse"
   id="clipPath1609-7-0"><path
     sodipodi:nodetypes="cccccc"
     inkscape:connector-curvature="0"
     id="path1611-5-9"
     d="m 252,116 28,-28 v -8 h -36 v 36 z"
     style="fill:#e74747;stroke:none;stroke-width:0.25px;stroke-linecap:butt;stroke-linejoin:miter;stroke-opacity:1" /></clipPath><clipPath
   clipPathUnits="userSpaceOnUse"
   id="clipPath37"><rect
     style="fill:#1a1a1a;fill-opacity:1;stroke-width:0.264583"
     id="rect39"
     width="541.86664"
     height="541.86664"
     x="-2.6626146e-06"
     y="3.2408705"
     rx="79.375"
     ry="79.375" /></clipPath><clipPath
   clipPathUnits="userSpaceOnUse"
   id="clipPath22042"><rect
     style="fill:#333333;fill-opacity:1;stroke-width:0.0133797"
     id="rect22044"
     width="27.31955"
     height="27.483929"
     x="166.96844"
     y="105.40438"
     rx="4.0018873"
     ry="4.0259666" /></clipPath><clipPath
   clipPathUnits="userSpaceOnUse"
   id="clipPath1039"><rect
     style="fill:#b3b3b3;fill-opacity:1;stroke-width:0.264583"
     id="rect1041"
     width="541.8667"
     height="541.86682"
     x="2.5931527e-05"
     y="-0.00010962487"
     rx="79.375008"
     ry="79.375031" /></clipPath><clipPath
   clipPathUnits="userSpaceOnUse"
   id="clipPath154"><rect
     style="fill:#b3b3b3;fill-opacity:1;stroke-width:0.264583"
     id="rect156"
     width="541.8667"
     height="541.86682"
     x="-2.9218751e-05"
     y="-0.00016368683"
     rx="79.375008"
     ry="79.375031" /></clipPath><linearGradient
   inkscape:collect="always"
   xlink:href="#linearGradient404"
   id="linearGradient406"
   x1="64"
   y1="112.5"
   x2="64"
   y2="7.5"
   gradientUnits="userSpaceOnUse" /><linearGradient
   id="paint0_linear"
   x1="49.9392"
   y1="0.257812"
   x2="49.9392"
   y2="99.7423"
   gradientUnits="userSpaceOnUse"
   gradientTransform="matrix(0.76242929,0,0,0.76242929,26.69079,21.878509)"><stop
     stop-color="white"
     id="stop585" /><stop
     offset="1"
     stop-color="white"
     stop-opacity="0"
     id="stop587" /></linearGradient><rect
   id="SVGID_1_"
   width="4520"
   height="787" />
	<defs
   id="defs1">
		<rect
   id="rect1"
   width="4520"
   height="787"
   x="0"
   y="0" />
	</defs>
	
	

		
		
		
		
		
		
		
		
		
		
		
			<linearGradient
   id="SVGID_00000083796956185287615240000010885015769944861357_"
   gradientUnits="userSpaceOnUse"
   x1="536.48187"
   y1="1113.179"
   x2="292.81891"
   y2="64.084"
   gradientTransform="matrix(0.09529278,0,0,-0.09529278,-187.7953,111.70549)">
			<stop
   offset="0.4799"
   style="stop-color:#24ECC6;stop-opacity:0"
   id="stop10" />
			<stop
   offset="0.9944"
   style="stop-color:#24ECC6"
   id="stop11" />
		</linearGradient>
		
		
			<linearGradient
   id="SVGID_00000005978595599017039650000002259067875620926859_"
   gradientUnits="userSpaceOnUse"
   x1="759.67712"
   y1="79.312202"
   x2="219.4247"
   y2="1003.199"
   gradientTransform="matrix(0.09529278,0,0,-0.09529278,-187.7953,111.70549)">
			<stop
   offset="6.601250e-02"
   style="stop-color:#ABFFEF"
   id="stop12" />
			<stop
   offset="0.4499"
   style="stop-color:#CAC9FF"
   id="stop13" />
			<stop
   offset="1"
   style="stop-color:#6D4AFF"
   id="stop14" />
		</linearGradient>
		
	<clipPath
   clipPathUnits="userSpaceOnUse"
   id="clipPath13"><g
     id="g14"><use
       xlink:href="#SVGID_1_"
       style="overflow:visible"
       id="use13"
       transform="matrix(0.09529278,0,0,0.09529278,-187.7953,36.61478)" /></g></clipPath><clipPath
   clipPathUnits="userSpaceOnUse"
   id="clipPath14"><g
     id="g15"><use
       xlink:href="#SVGID_1_"
       style="overflow:visible"
       id="use14"
       transform="matrix(0.09529278,0,0,0.09529278,-187.7953,36.61478)" /></g></clipPath><clipPath
   clipPathUnits="userSpaceOnUse"
   id="clipPath15"><g
     id="g16"><use
       xlink:href="#SVGID_1_"
       style="overflow:visible"
       id="use15"
       transform="matrix(0.09529278,0,0,0.09529278,-187.7953,36.61478)" /></g></clipPath><clipPath
   clipPathUnits="userSpaceOnUse"
   id="clipPath16"><g
     id="g17"><use
       xlink:href="#SVGID_1_"
       style="overflow:visible"
       id="use16"
       transform="matrix(0.09529278,0,0,0.09529278,-187.7953,36.61478)" /></g></clipPath><clipPath
   clipPathUnits="userSpaceOnUse"
   id="clipPath17"><g
     id="g18"><use
       xlink:href="#SVGID_1_"
       style="overflow:visible"
       id="use17"
       transform="matrix(0.09529278,0,0,0.09529278,-187.7953,36.61478)" /></g></clipPath><clipPath
   clipPathUnits="userSpaceOnUse"
   id="clipPath18"><g
     id="g19"><use
       xlink:href="#SVGID_1_"
       style="overflow:visible"
       id="use18"
       transform="matrix(0.09529278,0,0,0.09529278,-187.7953,36.61478)" /></g></clipPath><clipPath
   clipPathUnits="userSpaceOnUse"
   id="clipPath19"><g
     id="g20"><use
       xlink:href="#SVGID_1_"
       style="overflow:visible"
       id="use19"
       transform="matrix(0.09529278,0,0,0.09529278,-187.7953,36.61478)" /></g></clipPath><clipPath
   clipPathUnits="userSpaceOnUse"
   id="clipPath20"><g
     id="g21"><use
       xlink:href="#SVGID_1_"
       style="overflow:visible"
       id="use20"
       transform="matrix(0.09529278,0,0,0.09529278,-187.7953,36.61478)" /></g></clipPath><clipPath
   clipPathUnits="userSpaceOnUse"
   id="clipPath21"><g
     id="g22"><use
       xlink:href="#SVGID_1_"
       style="overflow:visible"
       id="use21"
       transform="matrix(0.09529278,0,0,0.09529278,-187.7953,36.61478)" /></g></clipPath><clipPath
   clipPathUnits="userSpaceOnUse"
   id="clipPath22"><g
     id="g23"><use
       xlink:href="#SVGID_1_"
       style="overflow:visible"
       id="use22"
       transform="matrix(0.09529278,0,0,0.09529278,-187.7953,36.61478)" /></g></clipPath><clipPath
   clipPathUnits="userSpaceOnUse"
   id="clipPath23"><g
     id="g24"><use
       xlink:href="#SVGID_1_"
       style="overflow:visible"
       id="use23"
       transform="matrix(0.09529278,0,0,0.09529278,-187.7953,36.61478)" /></g></clipPath><clipPath
   clipPathUnits="userSpaceOnUse"
   id="clipPath24"><g
     id="g25"><use
       xlink:href="#SVGID_1_"
       style="overflow:visible"
       id="use24"
       transform="matrix(0.09529278,0,0,0.09529278,-187.7953,36.61478)" /></g></clipPath><filter
   style="color-interpolation-filters:sRGB;"
   inkscape:label="Drop Shadow"
   id="filter52"
   x="-0.10163034"
   y="-0.11141701"
   width="1.2033406"
   height="1.3156815"><feFlood
     result="flood"
     in="SourceGraphic"
     flood-opacity="0.623529"
     flood-color="rgb(0,0,0)"
     id="feFlood51" /><feGaussianBlur
     result="blur"
     in="SourceGraphic"
     stdDeviation="3.000000"
     id="feGaussianBlur51" /><feOffset
     result="offset"
     in="blur"
     dx="0.000000"
     dy="6.000000"
     id="feOffset51" /><feComposite
     result="comp1"
     operator="in"
     in="offset"
     in2="flood"
     id="feComposite51" /><feComposite
     result="comp2"
     operator="over"
     in="SourceGraphic"
     in2="comp1"
     id="feComposite52" /></filter><clipPath
   clipPathUnits="userSpaceOnUse"
   id="clipPath17-6"><g
     id="g18-7"><use
       xlink:href="#SVGID_1_"
       style="overflow:visible"
       id="use17-5" /></g></clipPath><linearGradient
   id="SVGID_00000083796956185287615240000010885015769944861357_-3"
   gradientUnits="userSpaceOnUse"
   x1="536.48187"
   y1="1113.179"
   x2="292.81891"
   y2="64.084"
   gradientTransform="matrix(1,0,0,-1,0,788)">
			<stop
   offset="0.4799"
   style="stop-color:#24ECC6;stop-opacity:0"
   id="stop10-5" />
			<stop
   offset="0.9944"
   style="stop-color:#24ECC6"
   id="stop11-6" />
		</linearGradient><clipPath
   clipPathUnits="userSpaceOnUse"
   id="clipPath16-2"><g
     id="g17-9"><use
       xlink:href="#SVGID_1_"
       style="overflow:visible"
       id="use16-1" /></g></clipPath><linearGradient
   id="SVGID_00000005978595599017039650000002259067875620926859_-2"
   gradientUnits="userSpaceOnUse"
   x1="759.67712"
   y1="79.312202"
   x2="219.4247"
   y2="1003.199"
   gradientTransform="matrix(1,0,0,-1,0,788)">
			<stop
   offset="6.601250e-02"
   style="stop-color:#ABFFEF"
   id="stop12-7" />
			<stop
   offset="0.4499"
   style="stop-color:#CAC9FF"
   id="stop13-0" />
			<stop
   offset="1"
   style="stop-color:#6D4AFF"
   id="stop14-9" />
		</linearGradient><clipPath
   clipPathUnits="userSpaceOnUse"
   id="clipPath15-3"><g
     id="g16-6"><use
       xlink:href="#SVGID_1_"
       style="overflow:visible"
       id="use15-0" /></g></clipPath><linearGradient
   id="paint0_linear_4807_406325"
   x1="14.6494"
   y1="11.048"
   x2="15.2921"
   y2="23.5245"
   gradientUnits="userSpaceOnUse"
   gradientTransform="matrix(3.4438738,0,0,3.4438738,6.8693675,7.8969272)"><stop
     stop-color="#6D4AFF"
     id="stop3" /><stop
     offset="0.988738"
     stop-color="#2AE0CA"
     id="stop4" /></linearGradient><linearGradient
   id="paint1_linear_4807_406325"
   x1="19.5788"
   y1="26.309401"
   x2="7.6614799"
   y2="5.11906"
   gradientUnits="userSpaceOnUse"
   gradientTransform="matrix(3.4438738,0,0,3.4438738,6.8693675,7.8969272)"><stop
     offset="0.0660125"
     stop-color="#ABFFEF"
     id="stop5" /><stop
     offset="0.44988"
     stop-color="#CAC9FF"
     id="stop6" /><stop
     offset="1"
     stop-color="#6D4AFF"
     id="stop7" /></linearGradient><filter
   style="color-interpolation-filters:sRGB;"
   inkscape:label="Drop Shadow"
   id="filter9"
   x="-0.10462336"
   y="-0.1146268"
   width="1.2092467"
   height="1.2929352"><feFlood
     result="flood"
     in="SourceGraphic"
     flood-opacity="0.200000"
     flood-color="rgb(0,0,0)"
     id="feFlood8" /><feGaussianBlur
     result="blur"
     in="SourceGraphic"
     stdDeviation="3.000000"
     id="feGaussianBlur8" /><feOffset
     result="offset"
     in="blur"
     dx="0.000000"
     dy="4.000000"
     id="feOffset8" /><feComposite
     result="comp1"
     operator="in"
     in="flood"
     in2="offset"
     id="feComposite8" /><feComposite
     result="comp2"
     operator="over"
     in="SourceGraphic"
     in2="comp1"
     id="feComposite9" /></filter></defs><g
     inkscape:groupmode="layer"
     id="layer2"
     inkscape:label="Layer 1"><rect
   style="fill:url(#linearGradient8243);fill-opacity:1"
   id="rect440"
   width="105"
   height="105"
   x="11.5"
   y="15.5"
   rx="13"
   ry="13" /><rect
   style="fill:url(#linearGradient406);fill-opacity:1"
   id="rect358"
   width="105"
   height="105"
   x="11.5"
   y="7.5"
   rx="13"
   ry="13" /><rect
   style="fill:#5186f2;fill-opacity:1;stroke-width:0.959575"
   id="rect338"
   width="100.75533"
   height="100.75533"
   x="13.622333"
   y="9.6223326"
   rx="12"
   ry="12" />
		
	<path
   d="m 57.734139,26.561758 0.774832,3.131911 a 31.126592,31.126592 0 0 0 -8.653066,3.578715 l -1.657718,-2.765721 a 34.312103,34.312103 0 0 1 9.535952,-3.944905 z m 16.531728,0 -0.77483,3.131911 a 31.126592,31.126592 0 0 1 8.653064,3.578715 l 1.668438,-2.765721 A 34.312103,34.312103 0 0 0 74.265867,26.561758 Z M 36.509261,42.195171 a 34.312103,34.312103 0 0 0 -3.944906,9.535948 l 3.132341,0.774831 a 31.126592,31.126592 0 0 1 3.578715,-8.65307 z m -1.722038,17.801812 a 31.158751,31.158751 0 0 1 0.349897,-4.676428 l -3.191515,-0.484537 a 34.565092,34.565092 0 0 0 0,10.321931 l 3.191515,-0.484538 a 31.158751,31.158751 0 0 1 -0.349897,-4.676428 z m 49.015452,29.490313 -1.657718,-2.765722 a 31.126592,31.126592 0 0 1 -8.642774,3.578287 l 0.77526,3.131913 a 34.312103,34.312103 0 0 0 9.525232,-3.944478 z M 97.213211,59.996983 a 31.158751,31.158751 0 0 1 -0.349895,4.676428 l 3.191074,0.484538 a 34.565092,34.565092 0 0 0 0,-10.321931 l -3.191074,0.484537 a 31.158751,31.158751 0 0 1 0.349895,4.676428 z m 2.222439,8.265863 -3.13191,-0.774831 a 31.126592,31.126592 0 0 1 -3.578717,8.653065 l 2.765722,1.668439 A 34.312103,34.312103 0 0 0 99.43565,68.262846 Z M 70.676859,90.865011 a 31.433179,31.433179 0 0 1 -9.352855,0 l -0.484538,3.191086 a 34.565092,34.565092 0 0 0 10.321931,0 z m 20.44962,-12.350555 a 31.325552,31.325552 0 0 1 -6.61372,6.608574 l 1.915851,2.599349 a 34.495197,34.495197 0 0 0 7.297218,-7.275777 z m -6.61372,-43.642671 a 31.325552,31.325552 0 0 1 6.61372,6.613721 l 2.599349,-1.937289 A 34.495197,34.495197 0 0 0 86.45005,32.272434 Z m -43.638374,6.613721 a 31.325552,31.325552 0 0 1 6.613719,-6.613721 l -1.937291,-2.599351 a 34.495197,34.495197 0 0 0 -7.275349,7.275783 z m 54.615504,0.71052 -2.765724,1.657287 a 31.126592,31.126592 0 0 1 3.578288,8.642775 L 99.43479,51.721257 A 34.312103,34.312103 0 0 0 95.489889,42.196026 Z M 61.323145,29.134955 a 31.433179,31.433179 0 0 1 9.352858,0 l 0.484536,-3.191084 a 34.565092,34.565092 0 0 0 -10.321502,0 z m -18.792329,59.443726 -6.667748,1.555665 1.555236,-6.667748 -3.14306,-0.737525 -1.554807,6.667748 a 3.2288194,3.2288194 0 0 0 3.880156,3.880157 l 6.662174,-1.528221 z m -7.582795,-8.728102 3.143061,0.731521 1.076274,-4.6224 a 31.078137,31.078137 0 0 1 -3.471088,-8.470827 l -3.132341,0.774832 a 34.183036,34.183036 0 0 0 3.174791,8.18525 z m 15.068253,6.995775 -4.6224,1.076273 0.731522,3.14306 3.401196,-0.791553 a 34.183036,34.183036 0 0 0 8.185249,3.17522 l 0.774832,-3.131912 A 31.078137,31.078137 0 0 1 50.037714,86.824915 Z M 65.999144,32.016446 A 27.983531,27.983531 0 0 0 42.321135,74.890717 L 39.630024,86.369534 51.108842,83.678422 A 27.983531,27.983531 0 1 0 65.999573,32.017311 Z"
   fill="#3a76f0"
   id="path1"
   style="fill:#ffffff;stroke-width:0.428794" /></g><style
     type="text/css"
     id="style1">
	.st0{clip-path:url(#SVGID_00000101076283012793058550000013277607966434688140_);}
	.st1{fill:#6D4AFF;}
	.st2{fill:#1B1340;}
	.st3{fill-rule:evenodd;clip-rule:evenodd;fill:#6D4AFF;}
	.st4{fill-rule:evenodd;clip-rule:evenodd;fill:url(#SVGID_00000143612414778509468690000005354010894178983867_);}
	.st5{fill:url(#SVGID_00000164510369689970512730000008890151008062097281_);}
</style></svg>
