<?xml version="1.0" encoding="UTF-8" standalone="no"?>
<!-- Created with Inkscape (http://www.inkscape.org/) -->

<svg
   width="128"
   height="128"
   viewBox="0 0 128 128"
   version="1.1"
   id="svg5"
   inkscape:version="1.4 (e7c3feb100, 2024-10-09)"
   sodipodi:docname="org.gnome.Photos.svg"
   xmlns:inkscape="http://www.inkscape.org/namespaces/inkscape"
   xmlns:sodipodi="http://sodipodi.sourceforge.net/DTD/sodipodi-0.dtd"
   xmlns:xlink="http://www.w3.org/1999/xlink"
   xmlns="http://www.w3.org/2000/svg"
   xmlns:svg="http://www.w3.org/2000/svg">
  <sodipodi:namedview
     id="namedview7"
     pagecolor="#ffffff"
     bordercolor="#666666"
     borderopacity="1"
     inkscape:pageshadow="2"
     inkscape:pageopacity="0.0"
     inkscape:pagecheckerboard="true"
     inkscape:document-units="px"
     showgrid="false"
     inkscape:showpageshadow="false"
     showborder="true"
     inkscape:snap-page="true"
     inkscape:snap-bbox="true"
     inkscape:snap-bbox-midpoints="true"
     inkscape:zoom="2"
     inkscape:cx="10.25"
     inkscape:cy="117.5"
     inkscape:window-width="1920"
     inkscape:window-height="1043"
     inkscape:window-x="0"
     inkscape:window-y="0"
     inkscape:window-maximized="1"
     inkscape:current-layer="layer2"
     inkscape:snap-bbox-edge-midpoints="false"
     inkscape:bbox-nodes="false"
     inkscape:snap-center="true"
     inkscape:object-paths="true"
     inkscape:object-nodes="true"
     inkscape:snap-nodes="true"
     inkscape:snap-object-midpoints="true"
     inkscape:snap-intersection-paths="true"
     inkscape:snap-smooth-nodes="true"
     inkscape:snap-midpoints="true"
     inkscape:snap-others="false"
     inkscape:deskcolor="#d1d1d1" />
  <defs
     id="defs2">
    <linearGradient
       id="linearGradient34"
       inkscape:collect="always">
      <stop
         style="stop-color:#f9f9f9;stop-opacity:0.79359257;"
         offset="0"
         id="stop34" />
      <stop
         style="stop-color:#f9f9f9;stop-opacity:0.11613223;"
         offset="1"
         id="stop35" />
    </linearGradient>
    <linearGradient
       id="linearGradient25"
       inkscape:collect="always">
      <stop
         style="stop-color:#267ce2;stop-opacity:1;"
         offset="0"
         id="stop26" />
      <stop
         style="stop-color:#1655a1;stop-opacity:1;"
         offset="0.13640685"
         id="stop28" />
      <stop
         style="stop-color:#1655a1;stop-opacity:1;"
         offset="1"
         id="stop27" />
    </linearGradient>
    <linearGradient
       id="linearGradient22"
       inkscape:collect="always">
      <stop
         style="stop-color:#b61017;stop-opacity:0.99423302;"
         offset="0"
         id="stop23" />
      <stop
         style="stop-color:#b61017;stop-opacity:1;"
         offset="0.63886386"
         id="stop25" />
      <stop
         style="stop-color:#ed2d36;stop-opacity:1;"
         offset="1"
         id="stop24" />
    </linearGradient>
    <linearGradient
       id="linearGradient18"
       inkscape:collect="always">
      <stop
         style="stop-color:#733389;stop-opacity:1;"
         offset="0"
         id="stop18" />
      <stop
         style="stop-color:#733389;stop-opacity:1;"
         offset="0.07583113"
         id="stop22" />
      <stop
         style="stop-color:#9343af;stop-opacity:1;"
         offset="0.22302453"
         id="stop20" />
      <stop
         style="stop-color:#733389;stop-opacity:1;"
         offset="0.3904739"
         id="stop21" />
      <stop
         style="stop-color:#733389;stop-opacity:1;"
         offset="1"
         id="stop19" />
    </linearGradient>
    <linearGradient
       inkscape:collect="always"
       id="linearGradient1198">
      <stop
         style="stop-color:#3483e3;stop-opacity:1"
         offset="0"
         id="stop1194" />
      <stop
         style="stop-color:#32d079;stop-opacity:1"
         offset="0.42437252"
         id="stop27406" />
      <stop
         style="stop-color:#32d079;stop-opacity:1"
         offset="0.56068236"
         id="stop9437" />
      <stop
         style="stop-color:#f7e35b;stop-opacity:1"
         offset="1"
         id="stop1196" />
    </linearGradient>
    <inkscape:path-effect
       effect="fillet_chamfer"
       id="path-effect997"
       is_visible="true"
       lpeversion="1"
       satellites_param="F,0,0,1,0,4,0,1 @ F,0,0,1,0,4,0,1 @ F,0,0,1,0,4,0,1 @ F,0,0,1,0,4,0,1 @ F,0,0,1,0,4,0,1 @ F,0,0,1,0,4,0,1"
       unit="px"
       method="auto"
       mode="F"
       radius="4"
       chamfer_steps="1"
       flexible="false"
       use_knot_distance="true"
       apply_no_radius="true"
       apply_with_radius="true"
       only_selected="false"
       hide_knots="false"
       nodesatellites_param="F,0,0,1,0,4,0,1 @ F,0,0,1,0,4,0,1 @ F,0,0,1,0,4,0,1 @ F,0,0,1,0,4,0,1 @ F,0,0,1,0,4,0,1 @ F,0,0,1,0,4,0,1" />
    <inkscape:path-effect
       effect="fillet_chamfer"
       id="path-effect991"
       is_visible="true"
       lpeversion="1"
       satellites_param="F,0,0,1,0,4,0,1 @ F,0,0,1,0,4,0,1 @ F,0,0,1,0,4,0,1 @ F,0,0,1,0,4,0,1 @ F,0,0,1,0,4,0,1 @ F,0,0,1,0,4,0,1"
       unit="px"
       method="auto"
       mode="F"
       radius="4"
       chamfer_steps="1"
       flexible="false"
       use_knot_distance="true"
       apply_no_radius="true"
       apply_with_radius="true"
       only_selected="false"
       hide_knots="false"
       nodesatellites_param="F,0,0,1,0,4,0,1 @ F,0,0,1,0,4,0,1 @ F,0,0,1,0,4,0,1 @ F,0,0,1,0,4,0,1 @ F,0,0,1,0,4,0,1 @ F,0,0,1,0,4,0,1" />
    <inkscape:path-effect
       effect="fillet_chamfer"
       id="path-effect60143"
       is_visible="true"
       lpeversion="1"
       satellites_param="F,0,0,1,0,4,0,1 @ F,0,0,1,0,4,0,1 @ F,0,0,1,0,4,0,1 @ F,0,0,1,0,4,0,1 @ F,0,0,1,0,4,0,1 @ F,0,0,1,0,4,0,1"
       unit="px"
       method="auto"
       mode="F"
       radius="4"
       chamfer_steps="1"
       flexible="false"
       use_knot_distance="true"
       apply_no_radius="true"
       apply_with_radius="true"
       only_selected="false"
       hide_knots="false"
       nodesatellites_param="F,0,0,1,0,4,0,1 @ F,0,0,1,0,4,0,1 @ F,0,0,1,0,4,0,1 @ F,0,0,1,0,4,0,1 @ F,0,0,1,0,4,0,1 @ F,0,0,1,0,4,0,1" />
    <inkscape:path-effect
       effect="fillet_chamfer"
       id="path-effect60137"
       is_visible="true"
       lpeversion="1"
       satellites_param="F,0,0,1,0,4,0,1 @ F,0,0,1,0,4,0,1 @ F,0,0,1,0,4,0,1 @ F,0,0,1,0,4,0,1 @ F,0,0,1,0,4,0,1 @ F,0,0,1,0,4,0,1"
       unit="px"
       method="auto"
       mode="F"
       radius="4"
       chamfer_steps="1"
       flexible="false"
       use_knot_distance="true"
       apply_no_radius="true"
       apply_with_radius="true"
       only_selected="false"
       hide_knots="false"
       nodesatellites_param="F,0,0,1,0,4,0,1 @ F,0,0,1,0,4,0,1 @ F,0,0,1,0,4,0,1 @ F,0,0,1,0,4,0,1 @ F,0,0,1,0,4,0,1 @ F,0,0,1,0,4,0,1" />
    <inkscape:path-effect
       effect="fillet_chamfer"
       id="path-effect60129"
       is_visible="true"
       lpeversion="1"
       satellites_param="F,0,0,1,0,4,0,1 @ F,0,0,1,0,4,0,1 @ F,0,0,1,0,4,0,1 @ F,0,0,1,0,4,0,1 @ F,0,0,1,0,4,0,1 @ F,0,0,1,0,4,0,1"
       unit="px"
       method="auto"
       mode="F"
       radius="4"
       chamfer_steps="1"
       flexible="false"
       use_knot_distance="true"
       apply_no_radius="true"
       apply_with_radius="true"
       only_selected="false"
       hide_knots="false"
       nodesatellites_param="F,0,0,1,0,4,0,1 @ F,0,0,1,0,4,0,1 @ F,0,0,1,0,4,0,1 @ F,0,0,1,0,4,0,1 @ F,0,0,1,0,4,0,1 @ F,0,0,1,0,4,0,1" />
    <inkscape:path-effect
       effect="fillet_chamfer"
       id="path-effect59564"
       is_visible="true"
       lpeversion="1"
       satellites_param="F,0,0,1,0,4,0,1 @ F,0,0,1,0,4,0,1 @ F,0,0,1,0,4,0,1 @ F,0,0,1,0,4,0,1 @ F,0,0,1,0,4,0,1 @ F,0,0,1,0,4,0,1"
       unit="px"
       method="auto"
       mode="F"
       radius="4"
       chamfer_steps="1"
       flexible="false"
       use_knot_distance="true"
       apply_no_radius="true"
       apply_with_radius="true"
       only_selected="false"
       hide_knots="false"
       nodesatellites_param="F,0,0,1,0,4,0,1 @ F,0,0,1,0,4,0,1 @ F,0,0,1,0,4,0,1 @ F,0,0,1,0,4,0,1 @ F,0,0,1,0,4,0,1 @ F,0,0,1,0,4,0,1" />
    <inkscape:path-effect
       effect="fillet_chamfer"
       id="path-effect59556"
       is_visible="true"
       lpeversion="1"
       satellites_param="F,0,0,1,0,4,0,1 @ F,0,0,1,0,4,0,1 @ F,0,0,1,0,4,0,1 @ F,0,0,1,0,4,0,1 @ F,0,0,1,0,4,0,1 @ F,0,0,1,0,4,0,1"
       unit="px"
       method="auto"
       mode="F"
       radius="4"
       chamfer_steps="1"
       flexible="false"
       use_knot_distance="true"
       apply_no_radius="true"
       apply_with_radius="true"
       only_selected="false"
       hide_knots="false"
       nodesatellites_param="F,0,0,1,0,4,0,1 @ F,0,0,1,0,4,0,1 @ F,0,0,1,0,4,0,1 @ F,0,0,1,0,4,0,1 @ F,0,0,1,0,4,0,1 @ F,0,0,1,0,4,0,1" />
    <inkscape:path-effect
       effect="fillet_chamfer"
       id="path-effect59548"
       is_visible="true"
       lpeversion="1"
       satellites_param="F,0,0,1,0,4,0,1 @ F,0,0,1,0,4,0,1 @ F,0,0,1,0,4,0,1 @ F,0,0,1,0,4,0,1 @ F,0,0,1,0,4,0,1 @ F,0,0,1,0,4,0,1"
       unit="px"
       method="auto"
       mode="F"
       radius="4"
       chamfer_steps="1"
       flexible="false"
       use_knot_distance="true"
       apply_no_radius="true"
       apply_with_radius="true"
       only_selected="false"
       hide_knots="false"
       nodesatellites_param="F,0,0,1,0,4,0,1 @ F,0,0,1,0,4,0,1 @ F,0,0,1,0,4,0,1 @ F,0,0,1,0,4,0,1 @ F,0,0,1,0,4,0,1 @ F,0,0,1,0,4,0,1" />
    <inkscape:path-effect
       effect="fillet_chamfer"
       id="path-effect59538"
       is_visible="true"
       lpeversion="1"
       satellites_param="F,0,0,1,0,4,0,1 @ F,0,0,1,0,4,0,1 @ F,0,0,1,0,4,0,1 @ F,0,0,1,0,4,0,1 @ F,0,0,1,0,4,0,1 @ F,0,0,1,0,4,0,1"
       unit="px"
       method="auto"
       mode="F"
       radius="4"
       chamfer_steps="1"
       flexible="false"
       use_knot_distance="true"
       apply_no_radius="true"
       apply_with_radius="true"
       only_selected="false"
       hide_knots="false"
       nodesatellites_param="F,0,0,1,0,4,0,1 @ F,0,0,1,0,4,0,1 @ F,0,0,1,0,4,0,1 @ F,0,0,1,0,4,0,1 @ F,0,0,1,0,4,0,1 @ F,0,0,1,0,4,0,1" />
    <inkscape:path-effect
       effect="fillet_chamfer"
       id="path-effect59530"
       is_visible="true"
       lpeversion="1"
       satellites_param="F,0,0,1,0,4,0,1 @ F,0,0,1,0,4,0,1 @ F,0,0,1,0,4,0,1 @ F,0,0,1,0,4,0,1 @ F,0,0,1,0,4,0,1 @ F,0,0,1,0,4,0,1"
       unit="px"
       method="auto"
       mode="F"
       radius="4"
       chamfer_steps="1"
       flexible="false"
       use_knot_distance="true"
       apply_no_radius="true"
       apply_with_radius="true"
       only_selected="false"
       hide_knots="false"
       nodesatellites_param="F,0,0,1,0,4,0,1 @ F,0,0,1,0,4,0,1 @ F,0,0,1,0,4,0,1 @ F,0,0,1,0,4,0,1 @ F,0,0,1,0,4,0,1 @ F,0,0,1,0,4,0,1" />
    <inkscape:path-effect
       effect="fillet_chamfer"
       id="path-effect59362"
       is_visible="true"
       lpeversion="1"
       satellites_param="F,0,0,1,0,4,0,1 @ F,0,0,1,0,4,0,1 @ F,0,0,1,0,4,0,1 @ F,0,0,1,0,4,0,1 @ F,0,0,1,0,4,0,1 @ F,0,0,1,0,4,0,1"
       unit="px"
       method="auto"
       mode="F"
       radius="4"
       chamfer_steps="1"
       flexible="false"
       use_knot_distance="true"
       apply_no_radius="true"
       apply_with_radius="true"
       only_selected="false"
       hide_knots="false"
       nodesatellites_param="F,0,0,1,0,4,0,1 @ F,0,0,1,0,4,0,1 @ F,0,0,1,0,4,0,1 @ F,0,0,1,0,4,0,1 @ F,0,0,1,0,4,0,1 @ F,0,0,1,0,4,0,1" />
    <inkscape:path-effect
       effect="fillet_chamfer"
       id="path-effect58546"
       is_visible="true"
       lpeversion="1"
       satellites_param="F,0,0,1,0,4,0,1 @ F,0,0,1,0,4,0,1 @ F,0,0,1,0,4,0,1 @ F,0,0,1,0,4,0,1 @ F,0,0,1,0,4,0,1 @ F,0,0,1,0,4,0,1"
       unit="px"
       method="auto"
       mode="F"
       radius="4"
       chamfer_steps="1"
       flexible="false"
       use_knot_distance="true"
       apply_no_radius="true"
       apply_with_radius="true"
       only_selected="false"
       hide_knots="false"
       nodesatellites_param="F,0,0,1,0,4,0,1 @ F,0,0,1,0,4,0,1 @ F,0,0,1,0,4,0,1 @ F,0,0,1,0,4,0,1 @ F,0,0,1,0,4,0,1 @ F,0,0,1,0,4,0,1" />
    <inkscape:path-effect
       effect="fillet_chamfer"
       id="path-effect57659"
       is_visible="true"
       lpeversion="1"
       satellites_param="F,0,0,1,0,0,0,1 @ F,0,0,1,0,8,0,1 @ F,0,0,1,0,8,0,1 @ F,0,0,1,0,8,0,1"
       unit="px"
       method="auto"
       mode="F"
       radius="8"
       chamfer_steps="1"
       flexible="false"
       use_knot_distance="true"
       apply_no_radius="true"
       apply_with_radius="true"
       only_selected="false"
       hide_knots="false"
       nodesatellites_param="F,0,0,1,0,0,0,1 @ F,0,0,1,0,8,0,1 @ F,0,0,1,0,8,0,1 @ F,0,0,1,0,8,0,1" />
    <inkscape:path-effect
       effect="fillet_chamfer"
       id="path-effect57657"
       is_visible="true"
       lpeversion="1"
       satellites_param="F,0,0,1,0,0,0,1 @ F,0,0,1,0,0,0,1 @ F,0,0,1,0,0,0,1 @ F,0,0,1,0,0,0,1"
       unit="px"
       method="auto"
       mode="F"
       radius="0"
       chamfer_steps="1"
       flexible="false"
       use_knot_distance="true"
       apply_no_radius="true"
       apply_with_radius="true"
       only_selected="false"
       hide_knots="false"
       nodesatellites_param="F,0,0,1,0,0,0,1 @ F,0,0,1,0,0,0,1 @ F,0,0,1,0,0,0,1 @ F,0,0,1,0,0,0,1" />
    <inkscape:path-effect
       effect="fillet_chamfer"
       id="path-effect57655"
       is_visible="true"
       lpeversion="1"
       satellites_param="F,0,0,1,0,8,0,1 @ F,0,0,1,0,8,0,1 @ F,0,0,1,0,8,0,1 @ F,0,0,1,0,8,0,1"
       unit="px"
       method="auto"
       mode="F"
       radius="8"
       chamfer_steps="1"
       flexible="false"
       use_knot_distance="true"
       apply_no_radius="true"
       apply_with_radius="true"
       only_selected="false"
       hide_knots="false"
       nodesatellites_param="F,0,0,1,0,8,0,1 @ F,0,0,1,0,8,0,1 @ F,0,0,1,0,8,0,1 @ F,0,0,1,0,8,0,1" />
    <inkscape:path-effect
       effect="fillet_chamfer"
       id="path-effect57653"
       is_visible="true"
       lpeversion="1"
       satellites_param="F,0,0,1,0,8,0,1 @ F,0,0,1,0,8,0,1 @ F,0,0,1,0,8,0,1 @ F,0,0,1,0,8,0,1 @ F,0,0,1,0,8,0,1"
       unit="px"
       method="auto"
       mode="F"
       radius="8"
       chamfer_steps="1"
       flexible="false"
       use_knot_distance="true"
       apply_no_radius="true"
       apply_with_radius="true"
       only_selected="false"
       hide_knots="false"
       nodesatellites_param="F,0,0,1,0,8,0,1 @ F,0,0,1,0,8,0,1 @ F,0,0,1,0,8,0,1 @ F,0,0,1,0,8,0,1 @ F,0,0,1,0,8,0,1" />
    <inkscape:path-effect
       effect="fillet_chamfer"
       id="path-effect57651"
       is_visible="true"
       lpeversion="1"
       satellites_param="F,0,0,1,0,8,0,1 @ F,0,0,1,0,8,0,1 @ F,0,0,1,0,8,0,1 @ F,0,0,1,0,8,0,1 @ F,0,0,1,0,8,0,1"
       unit="px"
       method="auto"
       mode="F"
       radius="8"
       chamfer_steps="1"
       flexible="false"
       use_knot_distance="true"
       apply_no_radius="true"
       apply_with_radius="true"
       only_selected="false"
       hide_knots="false"
       nodesatellites_param="F,0,0,1,0,8,0,1 @ F,0,0,1,0,8,0,1 @ F,0,0,1,0,8,0,1 @ F,0,0,1,0,8,0,1 @ F,0,0,1,0,8,0,1" />
    <inkscape:path-effect
       effect="fillet_chamfer"
       id="path-effect57649"
       is_visible="true"
       lpeversion="1"
       satellites_param="F,0,0,1,0,8,0,1 @ F,0,0,1,0,8,0,1 @ F,0,0,1,0,8,0,1 @ F,0,0,1,0,8,0,1"
       unit="px"
       method="auto"
       mode="F"
       radius="8"
       chamfer_steps="1"
       flexible="false"
       use_knot_distance="true"
       apply_no_radius="true"
       apply_with_radius="true"
       only_selected="false"
       hide_knots="false"
       nodesatellites_param="F,0,0,1,0,8,0,1 @ F,0,0,1,0,8,0,1 @ F,0,0,1,0,8,0,1 @ F,0,0,1,0,8,0,1" />
    <inkscape:path-effect
       effect="fillet_chamfer"
       id="path-effect57647"
       is_visible="true"
       lpeversion="1"
       satellites_param="F,0,0,1,0,8,0,1 @ F,0,0,1,0,8,0,1 @ F,0,0,1,0,8,0,1 @ F,0,0,1,0,8,0,1 @ F,0,0,1,0,8,0,1"
       unit="px"
       method="auto"
       mode="F"
       radius="8"
       chamfer_steps="1"
       flexible="false"
       use_knot_distance="true"
       apply_no_radius="true"
       apply_with_radius="true"
       only_selected="false"
       hide_knots="false"
       nodesatellites_param="F,0,0,1,0,8,0,1 @ F,0,0,1,0,8,0,1 @ F,0,0,1,0,8,0,1 @ F,0,0,1,0,8,0,1 @ F,0,0,1,0,8,0,1" />
    <inkscape:path-effect
       effect="fillet_chamfer"
       id="path-effect55649"
       is_visible="true"
       lpeversion="1"
       satellites_param="F,0,0,1,0,12,0,1 @ F,0,0,1,0,12,0,1 @ F,0,0,1,0,12,0,1"
       unit="px"
       method="auto"
       mode="F"
       radius="12"
       chamfer_steps="1"
       flexible="false"
       use_knot_distance="true"
       apply_no_radius="true"
       apply_with_radius="true"
       only_selected="false"
       hide_knots="false"
       nodesatellites_param="F,0,0,1,0,12,0,1 @ F,0,0,1,0,12,0,1 @ F,0,0,1,0,12,0,1" />
    <inkscape:path-effect
       effect="fillet_chamfer"
       id="path-effect55643"
       is_visible="true"
       lpeversion="1"
       satellites_param="F,0,0,1,0,12,0,1 @ F,0,0,1,0,12,0,1 @ F,0,0,1,0,12,0,1"
       unit="px"
       method="auto"
       mode="F"
       radius="12"
       chamfer_steps="1"
       flexible="false"
       use_knot_distance="true"
       apply_no_radius="true"
       apply_with_radius="true"
       only_selected="false"
       hide_knots="false"
       nodesatellites_param="F,0,0,1,0,12,0,1 @ F,0,0,1,0,12,0,1 @ F,0,0,1,0,12,0,1" />
    <inkscape:path-effect
       effect="fillet_chamfer"
       id="path-effect55637"
       is_visible="true"
       lpeversion="1"
       satellites_param="F,0,0,1,0,12,0,1 @ F,0,0,1,0,12,0,1 @ F,0,0,1,0,12,0,1"
       unit="px"
       method="auto"
       mode="F"
       radius="12"
       chamfer_steps="1"
       flexible="false"
       use_knot_distance="true"
       apply_no_radius="true"
       apply_with_radius="true"
       only_selected="false"
       hide_knots="false"
       nodesatellites_param="F,0,0,1,0,12,0,1 @ F,0,0,1,0,12,0,1 @ F,0,0,1,0,12,0,1" />
    <inkscape:path-effect
       effect="fillet_chamfer"
       id="path-effect55631"
       is_visible="true"
       lpeversion="1"
       satellites_param="F,0,0,1,0,12,0,1 @ F,0,0,1,0,12,0,1 @ F,0,0,1,0,12,0,1"
       unit="px"
       method="auto"
       mode="F"
       radius="12"
       chamfer_steps="1"
       flexible="false"
       use_knot_distance="true"
       apply_no_radius="true"
       apply_with_radius="true"
       only_selected="false"
       hide_knots="false"
       nodesatellites_param="F,0,0,1,0,12,0,1 @ F,0,0,1,0,12,0,1 @ F,0,0,1,0,12,0,1" />
    <inkscape:path-effect
       effect="fillet_chamfer"
       id="path-effect55625"
       is_visible="true"
       lpeversion="1"
       satellites_param="F,0,0,1,0,12,0,1 @ F,0,0,1,0,12,0,1 @ F,0,0,1,0,12,0,1"
       unit="px"
       method="auto"
       mode="F"
       radius="12"
       chamfer_steps="1"
       flexible="false"
       use_knot_distance="true"
       apply_no_radius="true"
       apply_with_radius="true"
       only_selected="false"
       hide_knots="false"
       nodesatellites_param="F,0,0,1,0,12,0,1 @ F,0,0,1,0,12,0,1 @ F,0,0,1,0,12,0,1" />
    <inkscape:path-effect
       effect="fillet_chamfer"
       id="path-effect55520"
       is_visible="true"
       lpeversion="1"
       satellites_param="F,0,0,1,0,12,0,1 @ F,0,0,1,0,12,0,1 @ F,0,0,1,0,12,0,1"
       unit="px"
       method="auto"
       mode="F"
       radius="12"
       chamfer_steps="1"
       flexible="false"
       use_knot_distance="true"
       apply_no_radius="true"
       apply_with_radius="true"
       only_selected="false"
       hide_knots="false"
       nodesatellites_param="F,0,0,1,0,12,0,1 @ F,0,0,1,0,12,0,1 @ F,0,0,1,0,12,0,1" />
    <inkscape:path-effect
       effect="fillet_chamfer"
       id="path-effect7037"
       is_visible="true"
       lpeversion="1"
       satellites_param="F,0,0,1,0,4,0,1 @ F,0,0,1,0,4,0,1 @ F,0,0,1,0,4,0,1 @ F,0,0,1,0,4,0,1 @ F,0,0,1,0,4,0,1 @ F,0,0,1,0,4,0,1"
       unit="px"
       method="auto"
       mode="F"
       radius="4"
       chamfer_steps="1"
       flexible="false"
       use_knot_distance="true"
       apply_no_radius="true"
       apply_with_radius="true"
       only_selected="false"
       hide_knots="false"
       nodesatellites_param="F,0,0,1,0,4,0,1 @ F,0,0,1,0,4,0,1 @ F,0,0,1,0,4,0,1 @ F,0,0,1,0,4,0,1 @ F,0,0,1,0,4,0,1 @ F,0,0,1,0,4,0,1" />
    <inkscape:path-effect
       effect="fillet_chamfer"
       id="path-effect7031"
       is_visible="true"
       lpeversion="1"
       satellites_param="F,0,0,1,0,4,0,1 @ F,0,0,1,0,4,0,1 @ F,0,0,1,0,4,0,1 @ F,0,0,1,0,4,0,1 @ F,0,0,1,0,4,0,1 @ F,0,0,1,0,4,0,1"
       unit="px"
       method="auto"
       mode="F"
       radius="4"
       chamfer_steps="1"
       flexible="false"
       use_knot_distance="true"
       apply_no_radius="true"
       apply_with_radius="true"
       only_selected="false"
       hide_knots="false"
       nodesatellites_param="F,0,0,1,0,4,0,1 @ F,0,0,1,0,4,0,1 @ F,0,0,1,0,4,0,1 @ F,0,0,1,0,4,0,1 @ F,0,0,1,0,4,0,1 @ F,0,0,1,0,4,0,1" />
    <inkscape:path-effect
       effect="fillet_chamfer"
       id="path-effect6000"
       is_visible="true"
       lpeversion="1"
       satellites_param="F,0,0,1,0,4,0,1 @ F,0,0,1,0,4,0,1 @ F,0,0,1,0,4,0,1 @ F,0,0,1,0,4,0,1 @ F,0,0,1,0,4,0,1 @ F,0,0,1,0,4,0,1"
       unit="px"
       method="auto"
       mode="F"
       radius="4"
       chamfer_steps="1"
       flexible="false"
       use_knot_distance="true"
       apply_no_radius="true"
       apply_with_radius="true"
       only_selected="false"
       hide_knots="false"
       nodesatellites_param="F,0,0,1,0,4,0,1 @ F,0,0,1,0,4,0,1 @ F,0,0,1,0,4,0,1 @ F,0,0,1,0,4,0,1 @ F,0,0,1,0,4,0,1 @ F,0,0,1,0,4,0,1" />
    <inkscape:path-effect
       effect="fillet_chamfer"
       id="path-effect5108"
       is_visible="true"
       lpeversion="1"
       satellites_param="F,0,0,1,0,4,0,1 @ F,0,0,1,0,4,0,1 @ F,0,0,1,0,4,0,1 @ F,0,0,1,0,4,0,1 @ F,0,0,1,0,4,0,1 @ F,0,0,1,0,4,0,1"
       unit="px"
       method="auto"
       mode="F"
       radius="4"
       chamfer_steps="1"
       flexible="false"
       use_knot_distance="true"
       apply_no_radius="true"
       apply_with_radius="true"
       only_selected="false"
       hide_knots="false"
       nodesatellites_param="F,0,0,1,0,4,0,1 @ F,0,0,1,0,4,0,1 @ F,0,0,1,0,4,0,1 @ F,0,0,1,0,4,0,1 @ F,0,0,1,0,4,0,1 @ F,0,0,1,0,4,0,1" />
    <inkscape:path-effect
       effect="fillet_chamfer"
       id="path-effect5099"
       is_visible="true"
       lpeversion="1"
       satellites_param="F,0,0,1,0,4,0,1 @ F,0,0,1,0,4,0,1 @ F,0,0,1,0,4,0,1 @ F,0,0,1,0,4,0,1 @ F,0,0,1,0,4,0,1 @ F,0,0,1,0,4,0,1"
       unit="px"
       method="auto"
       mode="F"
       radius="4"
       chamfer_steps="1"
       flexible="false"
       use_knot_distance="true"
       apply_no_radius="true"
       apply_with_radius="true"
       only_selected="false"
       hide_knots="false"
       nodesatellites_param="F,0,0,1,0,4,0,1 @ F,0,0,1,0,4,0,1 @ F,0,0,1,0,4,0,1 @ F,0,0,1,0,4,0,1 @ F,0,0,1,0,4,0,1 @ F,0,0,1,0,4,0,1" />
    <inkscape:path-effect
       effect="fillet_chamfer"
       id="path-effect5093"
       is_visible="true"
       lpeversion="1"
       satellites_param="F,0,0,1,0,4,0,1 @ F,0,0,1,0,4,0,1 @ F,0,0,1,0,4,0,1 @ F,0,0,1,0,4,0,1 @ F,0,0,1,0,4,0,1 @ F,0,0,1,0,4,0,1"
       unit="px"
       method="auto"
       mode="F"
       radius="4"
       chamfer_steps="1"
       flexible="false"
       use_knot_distance="true"
       apply_no_radius="true"
       apply_with_radius="true"
       only_selected="false"
       hide_knots="false"
       nodesatellites_param="F,0,0,1,0,4,0,1 @ F,0,0,1,0,4,0,1 @ F,0,0,1,0,4,0,1 @ F,0,0,1,0,4,0,1 @ F,0,0,1,0,4,0,1 @ F,0,0,1,0,4,0,1" />
    <inkscape:path-effect
       effect="fillet_chamfer"
       id="path-effect4663"
       is_visible="true"
       lpeversion="1"
       satellites_param="F,0,0,1,0,4,0,1 @ F,0,0,1,0,4,0,1 @ F,0,0,1,0,4,0,1 @ F,0,0,1,0,4,0,1 @ F,0,0,1,0,4,0,1 @ F,0,0,1,0,4,0,1"
       unit="px"
       method="auto"
       mode="F"
       radius="4"
       chamfer_steps="1"
       flexible="false"
       use_knot_distance="true"
       apply_no_radius="true"
       apply_with_radius="true"
       only_selected="false"
       hide_knots="false"
       nodesatellites_param="F,0,0,1,0,4,0,1 @ F,0,0,1,0,4,0,1 @ F,0,0,1,0,4,0,1 @ F,0,0,1,0,4,0,1 @ F,0,0,1,0,4,0,1 @ F,0,0,1,0,4,0,1" />
    <inkscape:path-effect
       effect="fillet_chamfer"
       id="path-effect4657"
       is_visible="true"
       lpeversion="1"
       satellites_param="F,0,0,1,0,4,0,1 @ F,0,0,1,0,4,0,1 @ F,0,0,1,0,4,0,1 @ F,0,0,1,0,4,0,1 @ F,0,0,1,0,4,0,1 @ F,0,0,1,0,4,0,1"
       unit="px"
       method="auto"
       mode="F"
       radius="4"
       chamfer_steps="1"
       flexible="false"
       use_knot_distance="true"
       apply_no_radius="true"
       apply_with_radius="true"
       only_selected="false"
       hide_knots="false"
       nodesatellites_param="F,0,0,1,0,4,0,1 @ F,0,0,1,0,4,0,1 @ F,0,0,1,0,4,0,1 @ F,0,0,1,0,4,0,1 @ F,0,0,1,0,4,0,1 @ F,0,0,1,0,4,0,1" />
    <inkscape:path-effect
       effect="fillet_chamfer"
       id="path-effect4651"
       is_visible="true"
       lpeversion="1"
       satellites_param="F,0,0,1,0,4,0,1 @ F,0,0,1,0,4,0,1 @ F,0,0,1,0,4,0,1 @ F,0,0,1,0,4,0,1 @ F,0,0,1,0,4,0,1 @ F,0,0,1,0,4,0,1"
       unit="px"
       method="auto"
       mode="F"
       radius="4"
       chamfer_steps="1"
       flexible="false"
       use_knot_distance="true"
       apply_no_radius="true"
       apply_with_radius="true"
       only_selected="false"
       hide_knots="false"
       nodesatellites_param="F,0,0,1,0,4,0,1 @ F,0,0,1,0,4,0,1 @ F,0,0,1,0,4,0,1 @ F,0,0,1,0,4,0,1 @ F,0,0,1,0,4,0,1 @ F,0,0,1,0,4,0,1" />
    <inkscape:path-effect
       effect="fillet_chamfer"
       id="path-effect4645"
       is_visible="true"
       lpeversion="1"
       satellites_param="F,0,0,1,0,4,0,1 @ F,0,0,1,0,4,0,1 @ F,0,0,1,0,4,0,1 @ F,0,0,1,0,4,0,1 @ F,0,0,1,0,4,0,1 @ F,0,0,1,0,4,0,1"
       unit="px"
       method="auto"
       mode="F"
       radius="4"
       chamfer_steps="1"
       flexible="false"
       use_knot_distance="true"
       apply_no_radius="true"
       apply_with_radius="true"
       only_selected="false"
       hide_knots="false"
       nodesatellites_param="F,0,0,1,0,4,0,1 @ F,0,0,1,0,4,0,1 @ F,0,0,1,0,4,0,1 @ F,0,0,1,0,4,0,1 @ F,0,0,1,0,4,0,1 @ F,0,0,1,0,4,0,1" />
    <inkscape:path-effect
       effect="fillet_chamfer"
       id="path-effect4639"
       is_visible="true"
       lpeversion="1"
       satellites_param="F,0,0,1,0,4,0,1 @ F,0,0,1,0,4,0,1 @ F,0,0,1,0,4,0,1 @ F,0,0,1,0,4,0,1 @ F,0,0,1,0,4,0,1 @ F,0,0,1,0,4,0,1"
       unit="px"
       method="auto"
       mode="F"
       radius="4"
       chamfer_steps="1"
       flexible="false"
       use_knot_distance="true"
       apply_no_radius="true"
       apply_with_radius="true"
       only_selected="false"
       hide_knots="false"
       nodesatellites_param="F,0,0,1,0,4,0,1 @ F,0,0,1,0,4,0,1 @ F,0,0,1,0,4,0,1 @ F,0,0,1,0,4,0,1 @ F,0,0,1,0,4,0,1 @ F,0,0,1,0,4,0,1" />
    <inkscape:path-effect
       effect="fillet_chamfer"
       id="path-effect4473"
       is_visible="true"
       lpeversion="1"
       satellites_param="F,0,0,1,0,4,0,1 @ F,0,0,1,0,4,0,1 @ F,0,0,1,0,4,0,1 @ F,0,0,1,0,4,0,1 @ F,0,0,1,0,4,0,1 @ F,0,0,1,0,4,0,1"
       unit="px"
       method="auto"
       mode="F"
       radius="4"
       chamfer_steps="1"
       flexible="false"
       use_knot_distance="true"
       apply_no_radius="true"
       apply_with_radius="true"
       only_selected="false"
       hide_knots="false"
       nodesatellites_param="F,0,0,1,0,4,0,1 @ F,0,0,1,0,4,0,1 @ F,0,0,1,0,4,0,1 @ F,0,0,1,0,4,0,1 @ F,0,0,1,0,4,0,1 @ F,0,0,1,0,4,0,1" />
    <inkscape:path-effect
       effect="fillet_chamfer"
       id="path-effect4467"
       is_visible="true"
       lpeversion="1"
       satellites_param="F,0,0,1,0,4,0,1 @ F,0,0,1,0,4,0,1 @ F,0,0,1,0,4,0,1 @ F,0,0,1,0,4,0,1 @ F,0,0,1,0,4,0,1 @ F,0,0,1,0,4,0,1"
       unit="px"
       method="auto"
       mode="F"
       radius="4"
       chamfer_steps="1"
       flexible="false"
       use_knot_distance="true"
       apply_no_radius="true"
       apply_with_radius="true"
       only_selected="false"
       hide_knots="false"
       nodesatellites_param="F,0,0,1,0,4,0,1 @ F,0,0,1,0,4,0,1 @ F,0,0,1,0,4,0,1 @ F,0,0,1,0,4,0,1 @ F,0,0,1,0,4,0,1 @ F,0,0,1,0,4,0,1" />
    <inkscape:path-effect
       effect="fillet_chamfer"
       id="path-effect4301"
       is_visible="true"
       lpeversion="1"
       satellites_param="F,0,0,1,0,8,0,1 @ F,0,0,1,0,8,0,1 @ F,0,0,1,0,8,0,1 @ F,0,0,1,0,8,0,1 @ F,0,0,1,0,8,0,1 @ F,0,0,1,0,8,0,1"
       unit="px"
       method="auto"
       mode="F"
       radius="8"
       chamfer_steps="1"
       flexible="false"
       use_knot_distance="true"
       apply_no_radius="true"
       apply_with_radius="true"
       only_selected="false"
       hide_knots="false"
       nodesatellites_param="F,0,0,1,0,8,0,1 @ F,0,0,1,0,8,0,1 @ F,0,0,1,0,8,0,1 @ F,0,0,1,0,8,0,1 @ F,0,0,1,0,8,0,1 @ F,0,0,1,0,8,0,1" />
    <inkscape:path-effect
       effect="fillet_chamfer"
       id="path-effect4259"
       is_visible="true"
       lpeversion="1"
       satellites_param="F,0,0,1,0,4,0,1 @ F,0,0,1,0,4,0,1 @ F,0,0,1,0,4,0,1 @ F,0,0,1,0,4,0,1 @ F,0,0,1,0,4,0,1 @ F,0,0,1,0,4,0,1"
       unit="px"
       method="auto"
       mode="F"
       radius="4"
       chamfer_steps="1"
       flexible="false"
       use_knot_distance="true"
       apply_no_radius="true"
       apply_with_radius="true"
       only_selected="false"
       hide_knots="false"
       nodesatellites_param="F,0,0,1,0,4,0,1 @ F,0,0,1,0,4,0,1 @ F,0,0,1,0,4,0,1 @ F,0,0,1,0,4,0,1 @ F,0,0,1,0,4,0,1 @ F,0,0,1,0,4,0,1" />
    <inkscape:path-effect
       effect="fillet_chamfer"
       id="path-effect1190"
       is_visible="true"
       lpeversion="1"
       satellites_param="F,0,0,1,0,0,0,1 @ F,0,0,1,0,0,0,1 @ F,0,0,1,0,0,0,1 @ F,0,0,1,0,0,0,1 @ F,0,0,1,0,0,0,1 @ F,0,0,1,0,0,0,1"
       unit="px"
       method="auto"
       mode="F"
       radius="0"
       chamfer_steps="1"
       flexible="false"
       use_knot_distance="true"
       apply_no_radius="true"
       apply_with_radius="true"
       only_selected="false"
       hide_knots="false"
       nodesatellites_param="F,0,0,1,0,0,0,1 @ F,0,0,1,0,0,0,1 @ F,0,0,1,0,0,0,1 @ F,0,0,1,0,0,0,1 @ F,0,0,1,0,0,0,1 @ F,0,0,1,0,0,0,1" />
    <linearGradient
       y2="236"
       x2="96"
       y1="236"
       x1="32"
       gradientTransform="translate(604.81684,170.58641)"
       gradientUnits="userSpaceOnUse"
       id="linearGradient1099"
       xlink:href="#linearGradient1036" />
    <linearGradient
       id="linearGradient1036">
      <stop
         id="stop1032"
         offset="0"
         style="stop-color:#d5d3cf;stop-opacity:1;" />
      <stop
         id="stop1034"
         offset="1"
         style="stop-color:#f6f5f4;stop-opacity:1" />
    </linearGradient>
    <radialGradient
       r="32"
       fy="-76"
       fx="-244"
       cy="-76"
       cx="-244"
       gradientTransform="matrix(0.88333331,0,0,0.88333331,-460.35018,463.11973)"
       gradientUnits="userSpaceOnUse"
       id="radialGradient1103"
       xlink:href="#linearGradient1069" />
    <linearGradient
       id="linearGradient1069">
      <stop
         id="stop1065"
         offset="0"
         style="stop-color:#d5d3cf;stop-opacity:1" />
      <stop
         id="stop1067-1"
         offset="1"
         style="stop-color:#949390;stop-opacity:1" />
    </linearGradient>
    <linearGradient
       gradientUnits="userSpaceOnUse"
       y2="232"
       x2="64"
       y1="262.5"
       x1="64"
       id="linearGradient1027"
       xlink:href="#linearGradient1025"
       gradientTransform="translate(-470.5864,432.81685)" />
    <linearGradient
       id="linearGradient1025">
      <stop
         id="stop1021"
         offset="0"
         style="stop-color:#9a9996;stop-opacity:1" />
      <stop
         id="stop1023"
         offset="1"
         style="stop-color:#77767b;stop-opacity:1" />
    </linearGradient>
    <inkscape:path-effect
       effect="spiro"
       id="path-effect35304-9"
       is_visible="true" />
    <clipPath
       clipPathUnits="userSpaceOnUse"
       id="clipPath1609-7">
      <path
         sodipodi:nodetypes="cccccc"
         inkscape:connector-curvature="0"
         id="path1611-5"
         d="m 252,116 28,-28 v -8 h -36 v 36 z"
         style="fill:#e74747;stroke:none;stroke-width:0.25px;stroke-linecap:butt;stroke-linejoin:miter;stroke-opacity:1" />
    </clipPath>
    <linearGradient
       inkscape:collect="always"
       xlink:href="#linearGradient1198"
       id="linearGradient1200"
       x1="45.141719"
       y1="58.172801"
       x2="82.363134"
       y2="58.172801"
       gradientUnits="userSpaceOnUse"
       gradientTransform="matrix(0.94856273,0,0,0.94856273,3.5268256,-0.276307)" />
    <linearGradient
       inkscape:collect="always"
       xlink:href="#linearGradient18"
       id="linearGradient19"
       x1="52.253906"
       y1="116.1901"
       x2="103.24609"
       y2="116.1901"
       gradientUnits="userSpaceOnUse"
       gradientTransform="matrix(0.94856273,0,0,0.94856273,3.2919046,-0.47950506)" />
    <linearGradient
       inkscape:collect="always"
       xlink:href="#linearGradient22"
       id="linearGradient24"
       x1="103.23633"
       y1="98.964844"
       x2="116.25195"
       y2="98.964844"
       gradientUnits="userSpaceOnUse"
       gradientTransform="matrix(0.94856273,0,0,0.94856273,3.2919046,-0.47950506)" />
    <linearGradient
       inkscape:collect="always"
       xlink:href="#linearGradient25"
       id="linearGradient27"
       x1="11.748047"
       y1="107.33691"
       x2="52.699219"
       y2="107.33691"
       gradientUnits="userSpaceOnUse"
       gradientTransform="matrix(0.94856273,0,0,0.94856273,3.2919046,-0.47950506)" />
    <linearGradient
       inkscape:collect="always"
       xlink:href="#linearGradient34"
       id="linearGradient35"
       x1="65.223709"
       y1="6.5442801"
       x2="65.223709"
       y2="122.6241"
       gradientUnits="userSpaceOnUse"
       gradientTransform="matrix(0.94856273,0,0,0.94856273,3.0622318,-0.61202636)" />
  </defs>
  <g
     inkscape:groupmode="layer"
     id="layer2"
     inkscape:label="Layer 1">
    <path
       id="path15"
       style="fill:url(#linearGradient27);fill-opacity:1;stroke-width:0.948563"
       d="M 14.511719 83.814453 A 13.912671 13.912671 0 0 0 14.435547 84.681641 L 14.435547 86.578125 L 14.435547 88.927734 L 14.435547 88.929688 L 14.435547 90.826172 L 14.435547 90.828125 A 9.7104234 9.7104234 0 0 0 14.738281 93.125 A 9.7104234 9.7104234 0 0 0 14.960938 93.808594 A 9.7104234 9.7104234 0 0 0 15.582031 95.308594 A 9.7104234 9.7104234 0 0 0 15.982422 96.001953 A 9.7104234 9.7104234 0 0 0 16.972656 97.292969 A 9.7104234 9.7104234 0 0 0 17.451172 97.824219 A 9.7104234 9.7104234 0 0 0 19.291016 99.234375 L 53.28125 118.85742 A 13.912672 13.912672 0 0 1 52.863281 118.58008 L 52.871094 118.57031 A 13.912672 13.912672 0 0 1 52.857422 118.56055 L 52.857422 116.7168 L 53.28125 116.96094 A 13.912672 13.912672 0 0 1 52.857422 116.68164 L 52.857422 116.66406 L 52.857422 115.00586 L 52.857422 112.92383 L 52.857422 111.02734 L 52.857422 111 L 52.326172 110.69531 L 52.326172 110.7207 L 46.572266 107.39453 A 13.912672 13.912672 0 0 0 46.572266 107.39844 L 19.291016 91.646484 A 9.7104234 9.7104234 0 0 1 14.511719 83.814453 z " />
    <path
       id="path59534"
       style="fill:#333333;stroke-width:1.87812"
       d="m 64.001771,4.5004499 a 9.7104236,9.7104236 0 0 0 -0.867045,0.1130119 9.7104232,9.7104232 0 0 0 -1.363559,0.1797084 9.7104236,9.7104236 0 0 0 -2.080539,0.7818229 l -29.764865,17.0963559 -6.956745,4.016571 -3.67754,2.121286 -0.0093,0.0056 a 9.7104236,9.7104236 0 0 0 -0.02036,0.01855 9.7104236,9.7104236 0 0 0 -2.2973,1.92862 9.7104232,9.7104232 0 0 0 -0.54283,0.70957 9.7104236,9.7104236 0 0 0 -1.117155,1.936031 9.7104232,9.7104232 0 0 0 -0.344595,0.833698 9.7104236,9.7104236 0 0 0 -0.524303,2.977227 9.7104236,9.7104236 0 0 0 -3.1e-5,0.0018 V 70.95727 l 2e-6,8.033139 -2e-6,4.248154 a 9.7104236,9.7104236 0 0 0 0.524311,2.980928 9.7104232,9.7104232 0 0 0 0.348329,0.837387 9.7104236,9.7104236 0 0 0 1.113456,1.930469 9.7104232,9.7104232 0 0 0 0.5484,0.713269 9.7104236,9.7104236 0 0 0 2.321384,1.947148 l 27.054378,15.619876 6.947481,4.01101 a 13.912672,13.912672 0 0 0 0.0056,0.004 l 3.573785,2.06201 2.271363,1.31169 0.0018,3e-5 a 9.7104236,9.7104236 0 0 0 2.856804,1.03934 9.7104232,9.7104232 0 0 0 0.859635,0.11301 9.7104236,9.7104236 0 0 0 2.275068,0 9.7104232,9.7104232 0 0 0 0.859636,-0.11301 9.7104236,9.7104236 0 0 0 2.856804,-1.03934 l 24.888657,-14.36925 6.953045,-4.012866 8.01276,-4.626096 a 9.7104236,9.7104236 0 0 0 2.56779,-2.152791 9.7104232,9.7104232 0 0 0 0.0278,-0.03521 9.7104236,9.7104236 0 0 0 1.66369,-2.880888 9.7104232,9.7104232 0 0 0 0.0148,-0.03706 9.7104236,9.7104236 0 0 0 0.58174,-3.303296 l 4e-5,-28.740405 1e-5,-8.031287 -1e-5,-9.246634 a 9.7104236,9.7104236 0 0 0 4e-5,-0.0018 9.7104236,9.7104236 0 0 0 -0.0222,-0.622495 9.7104232,9.7104232 0 0 0 -0.0148,-0.166742 9.7104236,9.7104236 0 0 0 -0.0463,-0.446492 9.7104232,9.7104232 0 0 0 -0.0315,-0.22232 9.7104236,9.7104236 0 0 0 -0.0686,-0.400175 9.7104232,9.7104232 0 0 0 -0.0408,-0.209351 9.7104236,9.7104236 0 0 0 -0.14265,-0.574324 9.7104232,9.7104232 0 0 0 -0.002,-0.0074 9.7104232,9.7104232 0 0 0 -0.0408,-0.131542 9.7104236,9.7104236 0 0 0 -0.14636,-0.453903 9.7104232,9.7104232 0 0 0 -0.0797,-0.211202 9.7104236,9.7104236 0 0 0 -0.15933,-0.392767 9.7104232,9.7104232 0 0 0 -0.076,-0.174148 9.7104236,9.7104236 0 0 0 -0.18341,-0.377946 9.7104232,9.7104232 0 0 0 -0.10934,-0.21489 9.7104236,9.7104236 0 0 0 -0.007,-0.01482 9.7104236,9.7104236 0 0 0 -0.27975,-0.483546 9.7104232,9.7104232 0 0 0 -0.11119,-0.170431 9.7104236,9.7104236 0 0 0 -0.21861,-0.326066 9.7104232,9.7104232 0 0 0 -0.16674,-0.226028 9.7104236,9.7104236 0 0 0 -0.22232,-0.285309 9.7104232,9.7104232 0 0 0 -0.15748,-0.190823 9.7104236,9.7104236 0 0 0 -0.23528,-0.26308 9.7104232,9.7104232 0 0 0 -0.18897,-0.203795 9.7104232,9.7104232 0 0 0 -0.0519,-0.05001 9.7104236,9.7104236 0 0 0 -0.36868,-0.355711 9.7104232,9.7104232 0 0 0 -0.11302,-0.100045 9.7104236,9.7104236 0 0 0 -0.35941,-0.303835 9.7104232,9.7104232 0 0 0 -0.17786,-0.137096 9.7104236,9.7104236 0 0 0 -0.32051,-0.235288 9.7104232,9.7104232 0 0 0 -0.18527,-0.127834 9.7104236,9.7104236 0 0 0 -0.40758,-0.255668 9.7104232,9.7104232 0 0 0 -0.10005,-0.06299 l -0.0204,-0.01114 -27.054419,-15.619789 -0.05373,-0.0315 -0.116724,-0.06669 -6.80853,-3.8794736 -6.419473,-3.6590066 a 9.7104232,9.7104232 0 0 0 -0.0056,-0.00375 9.7104236,9.7104236 0 0 0 -0.01852,-0.00742 A 9.7104236,9.7104236 0 0 0 66.206435,4.789775 9.7104232,9.7104232 0 0 0 64.540891,4.569308 9.7104236,9.7104236 0 0 0 64.001767,4.50076 Z M 28.47143,24.900112 a 13.912671,13.912671 0 0 0 -2.845689,0.605819 13.912671,13.912671 0 0 1 0.0018,-0.0018 13.912671,13.912671 0 0 1 2.843836,-0.603967 z m 18.254274,77.376408 a 13.912672,13.912672 0 0 0 0.459461,1.71557 13.912672,13.912672 0 0 1 -0.0018,-0.002 13.912672,13.912672 0 0 1 -0.457608,-1.71371 z" />
    <path
       id="path57149"
       style="fill:#ee4149;fill-opacity:0.994233;stroke:none;stroke-width:0;stroke-miterlimit:4;stroke-dasharray:none;stroke-opacity:1"
       d="m 113.5647,46.466576 a 13.912671,13.912671 0 0 1 -6.9539,12.046765 L 72.819845,78.023885 a 17.654537,17.654537 0 0 1 -17.416133,0.125507 l 8.59727,4.965394 29.743332,17.172964 14.964806,-8.64041 a 9.7104234,9.7104234 0 0 0 4.85558,-8.409007 V 54.49906 Z" />
    <path
       id="path17"
       style="fill:url(#linearGradient19);fill-opacity:1;stroke-width:0.948563"
       d="M 101.22656 95.96875 L 101.21875 95.970703 L 89.039062 103.00195 L 88.814453 103.13281 L 68.855469 114.65625 A 9.7104234 9.7104234 0 0 1 59.146484 114.65625 L 52.859375 111.02734 L 52.857422 111.02734 L 50.244141 109.51758 L 50.128906 109.45117 L 48.351562 108.42383 L 46.345703 107.26758 L 46.345703 114.85352 L 48.351562 116.01172 L 50.128906 117.03711 L 52.871094 118.57031 A 13.912672 13.912672 0 0 0 53.283203 118.85938 L 59.146484 122.24414 A 9.7104234 9.7104234 0 0 0 61.283203 123.13086 A 9.7104234 9.7104234 0 0 0 62 123.28125 A 9.7104234 9.7104234 0 0 0 63.589844 123.49219 A 9.7104234 9.7104234 0 0 0 64.410156 123.49219 A 9.7104234 9.7104234 0 0 0 66.001953 123.28125 A 9.7104234 9.7104234 0 0 0 66.716797 123.13086 A 9.7104234 9.7104234 0 0 0 68.830078 122.25586 A 9.7104234 9.7104234 0 0 0 68.853516 122.24414 L 82.074219 114.61328 L 93.742188 107.875 L 96.869141 106.07031 L 100.68359 103.86719 L 101.22656 103.55469 L 101.22656 103.55273 L 101.22656 101.6582 L 101.22656 101.65625 L 101.22656 97.865234 L 101.22656 95.96875 z " />
    <path
       id="path57153"
       style="fill:#f9e76e;fill-opacity:0.994233;stroke:none;stroke-width:0;stroke-miterlimit:4;stroke-dasharray:none;stroke-opacity:1"
       d="M 64.000982,4.499981 A 9.7104234,9.7104234 0 0 0 59.69058,5.5746395 L 29.925677,22.671124 22.96981,26.687367 a 13.912671,13.912671 0 0 1 13.911735,0 l 27.119437,15.655108 8.824754,5.096784 a 17.654537,17.654537 0 0 1 8.826708,15.025609 l 0.0019,-9.928825 V 21.221904 A 13.823487,13.823487 0 0 0 74.675006,9.2123976 L 68.25059,5.5491458 A 9.7104234,9.7104234 0 0 0 64.000982,4.499981 Z m 17.651462,57.964887 a 17.654537,17.654537 0 0 1 -0.0019,0.25886 l 0.0019,0.0059 z" />
    <path
       id="path56870"
       style="fill:#ffa44b;fill-opacity:0.994233;stroke:none;stroke-width:0;stroke-miterlimit:4;stroke-dasharray:none;stroke-opacity:1"
       d="M 74.675006,9.2123976 A 13.823487,13.823487 0 0 1 81.654408,21.221904 V 52.536043 62.72765 a 17.654537,17.654537 0 0 1 -8.599234,15.157 l 8.599234,-4.963432 19.818422,-11.440799 5.13797,-2.967078 a 13.912671,13.912671 0 0 0 6.9539,-12.046765 v -9.246379 a 9.7104234,9.7104234 0 0 0 -4.83596,-8.399202 l -0.0195,-0.01177 -27.054726,-15.619809 -0.05492,-0.03138 z M 73.055174,77.88465 a 17.654537,17.654537 0 0 1 -0.225521,0.127469 l -0.0038,0.0039 z" />
    <path
       id="path57155"
       style="fill:#38c676;fill-opacity:0.994233;stroke:none;stroke-width:0;stroke-miterlimit:4;stroke-dasharray:none;stroke-opacity:1"
       d="m 30.653225,24.843973 a 13.912671,13.912671 0 0 0 -2.182652,0.05687 13.912671,13.912671 0 0 0 -5.500763,1.786522 l -3.686788,2.127746 a 9.7104234,9.7104234 0 0 0 -4.847725,8.405084 V 70.9582 78.990684 a 13.912671,13.912671 0 0 1 6.957821,-12.048727 l 24.952474,-14.405915 8.854169,-5.112473 a 17.654537,17.654537 0 0 1 17.396527,-0.115703 l -8.595306,-4.965392 h -0.0019 L 36.881545,26.687367 a 13.912671,13.912671 0 0 0 -6.22832,-1.843394 z" />
    <path
       id="path57157"
       style="fill:#5296e8;fill-opacity:0.994233;stroke:none;stroke-width:0;stroke-miterlimit:4;stroke-dasharray:none;stroke-opacity:1"
       d="M 55.173828 47.441406 L 54.945312 47.572266 A 17.654537 17.654537 0 0 1 55.169922 47.445312 L 55.173828 47.441406 z M 54.945312 47.572266 L 46.345703 52.535156 L 21.392578 66.941406 A 13.912671 13.912671 0 0 0 14.435547 78.990234 L 14.435547 83.238281 A 9.7104234 9.7104234 0 0 0 19.291016 91.646484 L 41.205078 104.29883 L 46.345703 107.26758 L 46.572266 107.39844 L 50.128906 109.45117 L 50.244141 109.51758 L 53.292969 111.2793 A 13.912672 13.912672 0 0 1 48.765625 106.98633 L 48.767578 106.98633 A 13.912672 13.912672 0 0 1 47.773438 105.25586 A 13.912672 13.912672 0 0 1 47.507812 104.6875 A 13.912672 13.912672 0 0 1 47.025391 103.40234 A 13.912672 13.912672 0 0 1 46.669922 102.07422 A 13.912672 13.912672 0 0 1 46.53125 101.36523 A 13.912672 13.912672 0 0 1 46.345703 99.234375 L 46.345703 98.351562 L 46.345703 62.730469 A 17.654537 17.654537 0 0 1 54.945312 47.572266 z " />
    <path
       id="path64946"
       style="opacity:0.5;fill:url(#linearGradient1200);fill-opacity:1;stroke:none;stroke-width:0;stroke-miterlimit:4;stroke-dasharray:none;stroke-opacity:1"
       d="m 63.999919,45.073738 a 17.654405,17.654405 0 0 0 -17.654012,17.654012 17.654405,17.654405 0 0 0 0.06484,0.905952 17.654405,17.654405 0 0 0 -0.06484,0.991174 17.654405,17.654405 0 0 0 0.144508,2.006432 17.654405,17.654405 0 0 1 17.509504,-15.643875 17.654405,17.654405 0 0 1 17.520621,15.5216 17.654405,17.654405 0 0 0 0.133391,-1.884157 17.654405,17.654405 0 0 0 -0.06484,-0.981911 17.654405,17.654405 0 0 0 0.06484,-0.915215 17.654405,17.654405 0 0 0 -17.654012,-17.654012 z" />
    <path
       id="path57151"
       style="fill:#9e55b3;fill-opacity:0.994233;stroke:none;stroke-width:0;stroke-miterlimit:4;stroke-dasharray:none;stroke-opacity:1"
       d="M 46.347656 62.728516 L 46.347656 62.992188 A 17.654537 17.654537 0 0 1 46.349609 62.734375 L 46.347656 62.728516 z M 46.347656 62.992188 L 46.345703 72.921875 L 46.345703 96.28125 L 46.345703 99.234375 L 46.345703 107.26758 L 48.351562 108.42383 L 50.128906 109.45117 L 50.222656 109.50586 L 52.859375 111.02734 L 53.292969 111.27734 A 13.912672 13.912672 0 0 0 53.298828 111.28125 L 53.300781 111.2832 L 59.144531 114.65625 A 9.7104234 9.7104234 0 0 0 68.855469 114.65625 L 93.744141 100.28711 L 100.69531 96.273438 A 13.912677 13.912677 0 0 1 86.789062 96.271484 L 55.173828 78.017578 A 17.654537 17.654537 0 0 1 46.347656 62.992188 z " />
    <path
       id="path6"
       style="fill:url(#linearGradient24);fill-opacity:0.994233;stroke:none;stroke-width:0;stroke-miterlimit:4;stroke-dasharray:none;stroke-opacity:1"
       d="M 113.56445 83.236328 A 9.7104234 9.7104234 0 0 1 108.70898 91.646484 L 101.21875 95.970703 L 101.22656 95.96875 L 100.69531 96.273438 L 100.69531 103.85938 L 101.22656 103.55273 L 108.70898 99.234375 A 9.7104234 9.7104234 0 0 0 110.55078 97.820312 A 9.7104234 9.7104234 0 0 0 111.01562 97.308594 A 9.7104234 9.7104234 0 0 0 112.02344 95.992188 A 9.7104234 9.7104234 0 0 0 112.41211 95.320312 A 9.7104234 9.7104234 0 0 0 113.04688 93.785156 A 9.7104234 9.7104234 0 0 0 113.25977 93.132812 A 9.7104234 9.7104234 0 0 0 113.56445 90.826172 L 113.56445 88.929688 L 113.56445 88.927734 L 113.56445 85.134766 L 113.56445 83.236328 z " />
    <path
       id="path28"
       style="mix-blend-mode:soft-light;fill:url(#linearGradient35);fill-opacity:1;stroke:none;stroke-width:0;stroke-miterlimit:4;stroke-dasharray:none;stroke-opacity:1"
       d="m 63.772099,4.367928 a 9.7104234,9.7104234 0 0 0 -4.311144,1.0745437 l -29.76486,17.0963613 -6.956744,4.01657 -3.686797,2.126855 a 9.7104234,9.7104234 0 0 0 -4.846563,8.405527 v 33.736967 8.033141 4.248152 a 9.7104234,9.7104234 0 0 0 4.855826,8.409232 l 27.054417,15.619783 6.947481,4.01102 a 13.912672,13.912672 0 0 0 0.0056,0.004 l 0.0019,0.002 5.845147,3.37185 a 9.7104234,9.7104234 0 0 0 9.707948,0 l 24.888655,-14.36925 0.0019,0.002 6.951195,-4.014717 8.01276,-4.626096 a 9.7104234,9.7104234 0 0 0 4.85582,-8.409232 V 54.365706 46.334419 37.087785 a 9.7104234,9.7104234 0 0 0 -4.83544,-8.399968 l -0.0204,-0.01112 -27.054424,-15.61979 -0.05373,-0.03149 -6.925249,-3.9461696 -6.42503,-3.662712 A 9.7104234,9.7104234 0 0 0 63.772099,4.367928 Z m 0,1.7618812 a 9.4033004,9.4033004 0 0 1 4.112909,1.0152585 l 6.22309,3.5478473 6.706635,3.822041 0.05188,0.02964 26.198487,15.125128 0.0185,0.01112 a 9.4033004,9.4033004 0 0 1 4.68353,8.135037 v 8.953913 7.777474 27.830681 a 9.4033004,9.4033004 0 0 1 -4.70206,8.144301 l -7.758948,4.479736 -6.73257,3.886878 -0.0019,-0.0019 -24.101275,13.915346 a 9.4033004,9.4033004 0 0 1 -9.400404,0 l -5.659881,-3.26439 -0.0019,-0.002 a 13.472639,13.472639 0 0 1 -0.0056,-0.006 L 46.673731,105.64716 20.475244,90.522033 A 9.4033004,9.4033004 0 0 1 15.773343,82.377949 V 78.265041 70.485715 37.815881 a 9.4033004,9.4033004 0 0 1 4.692791,-8.140595 l 3.570079,-2.058307 6.738131,-3.89059 L 59.598052,7.1710049 A 9.4033004,9.4033004 0 0 1 63.772099,6.1298092 Z M 28.241755,24.767585 a 13.912671,13.912671 0 0 0 -2.845688,0.60582 13.912671,13.912671 0 0 1 0.0019,-0.0019 13.912671,13.912671 0 0 1 2.843836,-0.603968 z m 1.124566,1.117155 a 13.472638,13.472638 0 0 0 -2.754908,0.585441 13.472638,13.472638 0 0 1 -0.0019,0.0019 13.472638,13.472638 0 0 1 2.75676,-0.587293 z m 22.674725,23.664046 -5.367161,3.09765 5.35975,-3.092092 a 17.654537,17.654537 0 0 1 0.0074,-0.0056 z m 28.825562,3.09765 -0.0019,5.845148 a 17.654537,17.654537 0 0 1 0.0019,0.0093 z M 91.00993,66.533987 80.866608,72.386545 76.31647,75.013619 a 17.654537,17.654537 0 0 1 -0.0037,0.0037 z m -44.336045,0.157477 v 5.695081 l 0.0019,-5.685817 a 17.654537,17.654537 0 0 1 -0.0019,-0.0093 z m 0.36868,34.122316 a 13.472639,13.472639 0 0 0 0.442786,1.65999 13.472639,13.472639 0 0 1 0.0019,0.002 13.472639,13.472639 0 0 1 -0.444639,-1.66184 z" />
  </g>
</svg>
