<?xml version="1.0" encoding="UTF-8" standalone="no"?>
<!-- Created with Inkscape (http://www.inkscape.org/) -->

<svg
   width="128"
   height="128"
   viewBox="0 0 128 128"
   version="1.1"
   id="svg5"
   inkscape:version="1.4.3 (0d15f75042, 2025-12-25)"
   sodipodi:docname="org.qbittorrent.qBittorrent.svg"
   xml:space="preserve"
   xmlns:inkscape="http://www.inkscape.org/namespaces/inkscape"
   xmlns:sodipodi="http://sodipodi.sourceforge.net/DTD/sodipodi-0.dtd"
   xmlns:xlink="http://www.w3.org/1999/xlink"
   xmlns="http://www.w3.org/2000/svg"
   xmlns:svg="http://www.w3.org/2000/svg"><sodipodi:namedview
     id="namedview7"
     pagecolor="#ffffff"
     bordercolor="#666666"
     borderopacity="1"
     inkscape:pageshadow="2"
     inkscape:pageopacity="0.0"
     inkscape:pagecheckerboard="true"
     inkscape:document-units="px"
     showgrid="false"
     inkscape:showpageshadow="false"
     showborder="true"
     inkscape:snap-page="true"
     inkscape:zoom="3.1575138"
     inkscape:cx="38.32129"
     inkscape:cy="59.223812"
     inkscape:window-width="1728"
     inkscape:window-height="1043"
     inkscape:window-x="0"
     inkscape:window-y="0"
     inkscape:window-maximized="1"
     inkscape:current-layer="layer2"
     inkscape:snap-bbox="true"
     inkscape:snap-bbox-midpoints="true"
     inkscape:snap-bbox-edge-midpoints="true"
     inkscape:bbox-nodes="true"
     inkscape:bbox-paths="true"
     inkscape:snap-intersection-paths="true"
     inkscape:object-paths="true"
     inkscape:snap-smooth-nodes="true"
     inkscape:snap-midpoints="true"
     inkscape:deskcolor="#d1d1d1" /><defs
     id="defs2"><linearGradient
       id="linearGradient1"
       inkscape:collect="always"><stop
         style="stop-color:#6daef0;stop-opacity:1"
         offset="0"
         id="stop3" /><stop
         style="stop-color:#356ebf;stop-opacity:1"
         offset="1"
         id="stop4" /></linearGradient><linearGradient
       inkscape:collect="always"
       id="linearGradient408"><stop
         style="stop-color:#608dd5;stop-opacity:1;"
         offset="0"
         id="stop404" /><stop
         style="stop-color:#ffffff;stop-opacity:1;"
         offset="1"
         id="stop406" /></linearGradient><linearGradient
       inkscape:collect="always"
       id="linearGradient7939"><stop
         style="stop-color:#115098;stop-opacity:1;"
         offset="0"
         id="stop7935" /><stop
         style="stop-color:#115098;stop-opacity:1;"
         offset="0.28295189"
         id="stop8493" /><stop
         style="stop-color:#1666c1;stop-opacity:1;"
         offset="0.5"
         id="stop8233" /><stop
         style="stop-color:#115098;stop-opacity:1;"
         offset="0.7060551"
         id="stop8751" /><stop
         style="stop-color:#115098;stop-opacity:1;"
         offset="1"
         id="stop7937" /></linearGradient><linearGradient
       y2="236"
       x2="96"
       y1="236"
       x1="32"
       gradientTransform="translate(604.81684,170.58641)"
       gradientUnits="userSpaceOnUse"
       id="linearGradient1099"
       xlink:href="#linearGradient1036" /><linearGradient
       id="linearGradient1036"><stop
         id="stop1032"
         offset="0"
         style="stop-color:#d5d3cf;stop-opacity:1;" /><stop
         id="stop1034"
         offset="1"
         style="stop-color:#f6f5f4;stop-opacity:1" /></linearGradient><radialGradient
       r="32"
       fy="-76"
       fx="-244"
       cy="-76"
       cx="-244"
       gradientTransform="matrix(0.88333331,0,0,0.88333331,-460.35018,463.11973)"
       gradientUnits="userSpaceOnUse"
       id="radialGradient1103"
       xlink:href="#linearGradient1069" /><linearGradient
       id="linearGradient1069"><stop
         id="stop1065"
         offset="0"
         style="stop-color:#d5d3cf;stop-opacity:1" /><stop
         id="stop1067-1"
         offset="1"
         style="stop-color:#949390;stop-opacity:1" /></linearGradient><linearGradient
       gradientUnits="userSpaceOnUse"
       y2="232"
       x2="64"
       y1="262.5"
       x1="64"
       id="linearGradient1027"
       xlink:href="#linearGradient1025"
       gradientTransform="translate(-470.5864,432.81685)" /><linearGradient
       id="linearGradient1025"><stop
         id="stop1021"
         offset="0"
         style="stop-color:#9a9996;stop-opacity:1" /><stop
         id="stop1023"
         offset="1"
         style="stop-color:#77767b;stop-opacity:1" /></linearGradient><inkscape:path-effect
       effect="spiro"
       id="path-effect35304-9"
       is_visible="true" /><clipPath
       clipPathUnits="userSpaceOnUse"
       id="clipPath1609-7"><path
         sodipodi:nodetypes="cccccc"
         inkscape:connector-curvature="0"
         id="path1611-5"
         d="m 252,116 28,-28 v -8 h -36 v 36 z"
         style="fill:#e74747;stroke:none;stroke-width:0.25px;stroke-linecap:butt;stroke-linejoin:miter;stroke-opacity:1" /></clipPath><radialGradient
       r="32"
       fy="-76"
       fx="-244"
       cy="-76"
       cx="-244"
       gradientTransform="matrix(0.88333331,0,0,0.88333331,-460.35018,463.11973)"
       gradientUnits="userSpaceOnUse"
       id="radialGradient1103-5"
       xlink:href="#linearGradient1069" /><inkscape:path-effect
       effect="spiro"
       id="path-effect35304-9-2"
       is_visible="true" /><clipPath
       clipPathUnits="userSpaceOnUse"
       id="clipPath1609-7-7"><path
         sodipodi:nodetypes="cccccc"
         inkscape:connector-curvature="0"
         id="path1611-5-0"
         d="m 252,116 28,-28 v -8 h -36 v 36 z"
         style="fill:#e74747;stroke:none;stroke-width:0.25px;stroke-linecap:butt;stroke-linejoin:miter;stroke-opacity:1" /></clipPath><clipPath
       clipPathUnits="userSpaceOnUse"
       id="clipPath744"><rect
         style="fill:#1e88e5;fill-opacity:1;stroke-width:0.264583"
         id="rect746"
         width="541.86664"
         height="541.86664"
         x="0"
         y="1.5987212e-14"
         rx="79.375"
         ry="79.375" /></clipPath><clipPath
       clipPathUnits="userSpaceOnUse"
       id="clipPath62"><rect
         style="fill:#1e88e5;fill-opacity:1;stroke-width:0.264583"
         id="rect64"
         width="541.86664"
         height="541.86664"
         x="2.2507105e-05"
         y="-0.42205024"
         rx="79.375"
         ry="79.375" /></clipPath><radialGradient
       r="32"
       fy="-76"
       fx="-244"
       cy="-76"
       cx="-244"
       gradientTransform="matrix(0.88333331,0,0,0.88333331,-460.35018,463.11973)"
       gradientUnits="userSpaceOnUse"
       id="radialGradient1103-6"
       xlink:href="#linearGradient1069" /><inkscape:path-effect
       effect="spiro"
       id="path-effect35304-9-20"
       is_visible="true" /><clipPath
       clipPathUnits="userSpaceOnUse"
       id="clipPath1609-7-2"><path
         sodipodi:nodetypes="cccccc"
         inkscape:connector-curvature="0"
         id="path1611-5-3"
         d="m 252,116 28,-28 v -8 h -36 v 36 z"
         style="fill:#e74747;stroke:none;stroke-width:0.25px;stroke-linecap:butt;stroke-linejoin:miter;stroke-opacity:1" /></clipPath><linearGradient
       inkscape:collect="always"
       xlink:href="#linearGradient7939"
       id="linearGradient7941"
       x1="9"
       y1="70"
       x2="119"
       y2="70"
       gradientUnits="userSpaceOnUse"
       gradientTransform="translate(0,-2)" /><radialGradient
       r="32"
       fy="-76"
       fx="-244"
       cy="-76"
       cx="-244"
       gradientTransform="matrix(0.88333331,0,0,0.88333331,-460.35018,463.11973)"
       gradientUnits="userSpaceOnUse"
       id="radialGradient1103-56"
       xlink:href="#linearGradient1069" /><inkscape:path-effect
       effect="spiro"
       id="path-effect35304-9-7"
       is_visible="true" /><clipPath
       clipPathUnits="userSpaceOnUse"
       id="clipPath1609-7-0"><path
         sodipodi:nodetypes="cccccc"
         inkscape:connector-curvature="0"
         id="path1611-5-9"
         d="m 252,116 28,-28 v -8 h -36 v 36 z"
         style="fill:#e74747;stroke:none;stroke-width:0.25px;stroke-linecap:butt;stroke-linejoin:miter;stroke-opacity:1" /></clipPath><clipPath
       clipPathUnits="userSpaceOnUse"
       id="clipPath744-3"><rect
         style="fill:#1e88e5;fill-opacity:1;stroke-width:0.264583"
         id="rect746-6"
         width="541.86664"
         height="541.86664"
         x="0"
         y="1.5987212e-14"
         rx="79.375"
         ry="79.375" /></clipPath><clipPath
       clipPathUnits="userSpaceOnUse"
       id="clipPath62-0"><rect
         style="fill:#1e88e5;fill-opacity:1;stroke-width:0.264583"
         id="rect64-6"
         width="541.86664"
         height="541.86664"
         x="2.2507105e-05"
         y="-0.42205024"
         rx="79.375"
         ry="79.375" /></clipPath><linearGradient
       inkscape:collect="always"
       xlink:href="#linearGradient408"
       id="linearGradient410"
       x1="64"
       y1="115"
       x2="64"
       y2="5"
       gradientUnits="userSpaceOnUse" /><linearGradient
       x1="348.2829"
       y1="0"
       x2="782.05951"
       y2="786.48322"
       id="a"
       gradientUnits="userSpaceOnUse"
       gradientTransform="matrix(0.09835654,0,0,0.09835654,136.09242,5.7730207)"><stop
         stop-color="#72B4F5"
         offset="0%"
         id="stop1" /><stop
         stop-color="#356EBF"
         offset="100%"
         id="stop2" /></linearGradient><linearGradient
       inkscape:collect="always"
       xlink:href="#linearGradient1"
       id="linearGradient4"
       x1="29.052961"
       y1="21.923635"
       x2="102.91553"
       y2="95.786201"
       gradientUnits="userSpaceOnUse" /><filter
       style="color-interpolation-filters:sRGB;"
       inkscape:label="Drop Shadow"
       id="filter21"
       x="-0.16404878"
       y="-0.1003447"
       width="1.3280976"
       height="1.2634048"><feFlood
         result="flood"
         in="SourceGraphic"
         flood-opacity="1.000000"
         flood-color="rgb(17,81,154)"
         id="feFlood20" /><feGaussianBlur
         result="blur"
         in="SourceGraphic"
         stdDeviation="2.000000"
         id="feGaussianBlur20" /><feOffset
         result="offset"
         in="blur"
         dx="0.000000"
         dy="3.000000"
         id="feOffset20" /><feComposite
         result="comp1"
         operator="in"
         in="flood"
         in2="offset"
         id="feComposite20" /><feComposite
         result="comp2"
         operator="over"
         in="SourceGraphic"
         in2="comp1"
         id="feComposite21" /></filter></defs><g
     inkscape:groupmode="layer"
     id="layer2"
     inkscape:label="Layer 1"><path
       id="circle1035"
       style="fill:url(#linearGradient7941);fill-opacity:1"
       d="M 64 5 A 55 55 0 0 0 9 60 L 9 68 A 55 55 0 0 0 64 123 A 55 55 0 0 0 119 68 L 119 60 A 55 55 0 0 0 64 5 z " /><circle
       style="fill:url(#linearGradient410);fill-opacity:1"
       id="path953"
       cx="64"
       cy="60"
       r="55" /><circle
       style="fill:url(#linearGradient4);fill-opacity:1;stroke-width:0.961244"
       id="circle342"
       cx="64"
       cy="60"
       r="52.868427" /><path
       d="m 84.213786,38.466636 q 6.55615,0 10.1681,4.492042 3.64214,4.461846 3.64214,12.656913 0,8.195067 -3.67263,12.747991 -3.64214,4.522434 -10.13761,4.522434 -3.24773,0 -5.949,-1.183721 -2.67097,-1.214113 -4.49214,-3.703026 h -0.36421 l -1.06225,4.27969 h -3.61205 V 25.050903 h 5.03851 v 11.47329 q 0,3.854691 -0.24284,6.920268 h 0.24294 q 3.52077,-4.977825 10.44104,-4.977825 z m -0.72843,4.218906 q -5.15978,0 -7.43624,2.974498 -2.27647,2.944205 -2.27647,9.955551 0,7.011346 2.33715,10.046629 2.33705,3.004792 7.49693,3.004792 4.64391,0 6.92037,-3.369105 2.27636,-3.399399 2.27636,-9.743002 0,-6.495466 -2.27636,-9.682415 -2.27646,-3.186948 -7.04174,-3.186948 z"
       fill="#ffffff"
       id="path2-6"
       style="fill-rule:evenodd;stroke-width:0.0983565;filter:url(#filter21)"
       transform="matrix(1.2336659,0,0,1.2336659,-15.06077,-6.8136523)" /><path
       d="m 45.301476,68.66711 q 5.03851,0 7.34527,-2.701461 2.30676,-2.701264 2.45852,-9.105651 v -1.123035 q 0,-6.980954 -2.36744,-10.046531 -2.36744,-3.065576 -7.49703,-3.065576 -4.43146,0 -6.7989,3.460183 -2.33715,3.429692 -2.33715,9.712708 0,6.282918 2.30686,9.591238 2.33705,3.278027 6.88987,3.278027 z m -0.75882,4.218906 q -6.43458,0 -10.04653,-4.522434 -3.61194,-4.522532 -3.61194,-12.626619 0,-8.164675 3.64234,-12.747893 3.64214,-4.583218 10.1376,-4.583218 6.82919,0 10.50183,5.159882 h 0.27323 l 0.72843,-4.552826 h 3.97616 v 48.199328 h -5.03851 V 72.977094 q 0,-3.035283 0.33392,-5.159883 h -0.3946 q -3.49048,5.068805 -10.50193,5.068805 z"
       fill="#c8e8ff"
       id="path3"
       style="fill-rule:evenodd;stroke-width:0.0983565;filter:url(#filter21)"
       transform="matrix(1.2336659,0,0,1.2336659,-15.06077,-6.8136523)" /><path
       id="path21"
       style="fill:#ffffff;fill-opacity:1;fill-rule:evenodd;stroke-width:0.121339"
       d="m 69.735061,24.090286 v 2.028793 h 6.215158 V 24.090286 Z M 40.040193,40.566302 c -5.342152,0 -9.51213,1.885027 -12.507586,5.654467 -2.99562,3.76944 -4.493459,9.012119 -4.493459,15.727106 0,0.341431 0.0041,0.678715 0.01189,1.012415 0.145014,-6.229913 1.638757,-11.133567 4.481571,-14.710728 2.995456,-3.76944 7.165434,-5.654467 12.507586,-5.654467 5.616625,0 9.934806,2.122019 12.955347,6.365733 h 0.336811 l 0.899484,-5.616824 h 4.905558 v -2.028792 h -4.905558 l -0.899484,5.616824 H 52.99554 C 49.974999,42.688322 45.656818,40.566302 40.040193,40.566302 Z m 48.790086,0.07529 c -5.691533,0 -9.984423,2.04589 -12.88006,6.139872 h -0.164443 c -0.03834,0.69812 -0.08289,1.374383 -0.134724,2.028792 h 0.299167 c 2.895637,-4.093982 7.188527,-6.139871 12.88006,-6.139871 5.392067,0 9.574604,1.847084 12.545231,5.541536 2.84313,3.483007 4.33696,8.348786 4.48157,14.597797 0.008,-0.333642 0.0119,-0.671092 0.0119,-1.012415 0,-6.739983 -1.49801,-11.944556 -4.49346,-15.614175 -2.970627,-3.694452 -7.153164,-5.541536 -12.545231,-5.541536 z m 10.585781,22.08293 c -0.114032,4.730492 -1.047167,8.403813 -2.797515,11.017691 -1.872261,2.7709 -4.71782,4.156648 -8.537175,4.156648 -4.243713,0 -7.326349,-1.235632 -9.248442,-3.706906 -1.808267,-2.348417 -2.765703,-6.143732 -2.872802,-11.386202 -0.0067,0.334255 -0.0099,0.67402 -0.0099,1.02034 0,5.766439 0.960534,9.898305 2.882709,12.394655 1.922093,2.471273 5.004729,3.706905 9.248442,3.706905 3.819355,0 6.664914,-1.385747 8.537175,-4.156647 1.872179,-2.795815 2.809403,-6.802942 2.809403,-12.0202 0,-0.34764 -0.004,-0.690168 -0.01189,-1.026284 z m -69.924004,0.313037 c -0.0084,0.332134 -0.01189,0.66996 -0.01189,1.012415 0,5.167346 0.949783,9.113055 2.847046,11.833963 1.922094,2.695993 4.755093,4.043716 8.499532,4.043716 4.143892,0 7.163043,-1.110649 9.060224,-3.33245 1.89718,-2.221638 2.908468,-5.966398 3.033282,-11.233647 v -1.384889 c 0,-0.178494 -9.9e-5,-0.35559 -0.002,-0.530973 -0.136543,5.207795 -1.147726,8.91501 -3.031301,11.120716 -1.897181,2.221801 -4.916332,3.332451 -9.060224,3.332451 -3.744439,0 -6.577438,-1.347723 -8.499532,-4.043717 -1.770813,-2.539563 -2.717002,-6.146636 -2.835158,-10.817585 z m 23.596602,15.842017 c -0.112767,1.291946 -0.168406,2.737621 -0.168406,4.336941 v 2.028793 c 0,-2.496351 0.137469,-4.61837 0.412099,-6.365734 z" /><path
       id="path24"
       style="fill:#023454;fill-opacity:1;fill-rule:evenodd;stroke-width:0.121339"
       d="m 40.751459,45.771027 c -3.644627,0 -6.441495,1.423772 -8.388582,4.269579 -1.922175,2.820729 -2.882709,6.813147 -2.882709,11.980575 0,0.344543 0.0054,0.684692 0.01387,1.018359 0.118897,-4.679964 1.073996,-8.336267 2.86884,-10.970142 1.947087,-2.845807 4.743955,-4.269579 8.388582,-4.269579 4.218801,0 7.301356,1.260928 9.248442,3.782193 1.886603,2.442946 2.859765,6.397514 2.91837,11.863682 9.85e-4,-0.03757 0.0011,-0.0752 0.002,-0.112931 v -1.384888 c 0,-5.741444 -0.973264,-9.873391 -2.920351,-12.394655 -1.947086,-2.521265 -5.029641,-3.782193 -9.248442,-3.782193 z M 23.051036,62.96029 c -0.0078,0.334873 -0.01189,0.67384 -0.01189,1.016377 0,6.665158 1.485198,11.857002 4.455815,15.576532 2.970627,3.719449 7.102574,5.57918 12.394655,5.57918 5.766525,0 10.084623,-2.083995 12.955348,-6.252803 h 0.245673 c 0.06322,-0.724622 0.143025,-1.400886 0.241712,-2.028793 h -0.487385 c -2.870725,4.168808 -7.188823,6.252803 -12.955348,6.252803 -5.292081,0 -9.424028,-1.859731 -12.394655,-5.57918 -2.818448,-3.528995 -4.299552,-8.383543 -4.443927,-14.564116 z m 29.869216,37.81599 v 2.02879 h 6.217141 v -2.02879 z" /><path
       id="path25"
       style="fill:#023454;fill-opacity:1;fill-rule:evenodd;stroke-width:0.121339"
       d="m 75.950219,38.244285 c 0,3.170267 -0.09945,6.015911 -0.299167,8.537176 h 0.134724 c 0.1095,-1.991591 0.164443,-4.16097 0.164443,-6.508383 z m 11.982557,7.602029 c -4.24363,0 -7.302875,1.222904 -9.175135,3.669261 -1.872269,2.421444 -2.807422,6.515285 -2.807422,12.281725 0,0.341757 0.0032,0.678183 0.0099,1.008453 0.105681,-5.23135 1.037678,-8.985352 2.797515,-11.261385 1.87226,-2.446358 4.931505,-3.669261 9.175135,-3.669261 3.919176,0 6.813508,1.3097 8.685769,3.930786 1.750347,2.450519 2.683612,6.091644 2.797515,10.92061 0.0079,-0.329258 0.01189,-0.664977 0.01189,-1.00449 0,-5.342157 -0.937224,-9.323826 -2.809403,-11.944913 -1.872261,-2.621086 -4.766593,-3.930786 -8.685769,-3.930786 z m 17.924304,16.963401 c -0.14522,6.254645 -1.65165,11.159795 -4.51922,14.714691 -2.995453,3.719449 -7.165421,5.57918 -12.507581,5.57918 -2.671076,0 -5.116881,-0.486631 -7.338523,-1.460176 -2.196723,-0.99854 -4.043726,-2.521754 -5.541537,-4.568746 h -0.449742 l -1.309601,5.280012 h -4.455815 v 2.028792 h 4.455815 l 1.309601,-5.280012 h 0.449742 c 1.497811,2.046992 3.344814,3.570207 5.541537,4.568747 2.221642,0.973545 4.667447,1.460176 7.338523,1.460176 5.34216,0 9.512128,-1.859731 12.507581,-5.57918 3.02053,-3.744525 4.53111,-8.987123 4.53111,-15.727106 0,-0.342751 -0.004,-0.681567 -0.0119,-1.016378 z" /></g></svg>
