<?xml version="1.0" encoding="UTF-8" standalone="no"?>
<!-- Created with Inkscape (http://www.inkscape.org/) -->

<svg
   width="128"
   height="128"
   viewBox="0 0 128 128"
   version="1.1"
   id="svg5"
   inkscape:version="1.4.3 (0d15f75042, 2025-12-25)"
   sodipodi:docname="timeshift.svg"
   inkscape:export-filename="/home/retro/.icons/skeuowaita/scalable/apps/skeuowaita.png"
   inkscape:export-xdpi="1536"
   inkscape:export-ydpi="1536"
   xml:space="preserve"
   xmlns:inkscape="http://www.inkscape.org/namespaces/inkscape"
   xmlns:sodipodi="http://sodipodi.sourceforge.net/DTD/sodipodi-0.dtd"
   xmlns:xlink="http://www.w3.org/1999/xlink"
   xmlns="http://www.w3.org/2000/svg"
   xmlns:svg="http://www.w3.org/2000/svg"><sodipodi:namedview
     id="namedview7"
     pagecolor="#ffffff"
     bordercolor="#666666"
     borderopacity="1"
     inkscape:pageshadow="2"
     inkscape:pageopacity="0.0"
     inkscape:pagecheckerboard="true"
     inkscape:document-units="px"
     showgrid="false"
     inkscape:showpageshadow="false"
     showborder="true"
     inkscape:snap-page="true"
     inkscape:zoom="4.7235144"
     inkscape:cx="51.021333"
     inkscape:cy="81.295402"
     inkscape:window-width="1728"
     inkscape:window-height="1043"
     inkscape:window-x="0"
     inkscape:window-y="0"
     inkscape:window-maximized="1"
     inkscape:current-layer="layer2"
     inkscape:snap-bbox="true"
     inkscape:snap-bbox-midpoints="true"
     inkscape:snap-bbox-edge-midpoints="true"
     inkscape:bbox-nodes="true"
     inkscape:bbox-paths="true"
     inkscape:snap-intersection-paths="true"
     inkscape:object-paths="true"
     inkscape:snap-smooth-nodes="true"
     inkscape:snap-midpoints="true"
     inkscape:deskcolor="#d1d1d1" /><defs
     id="defs2"><linearGradient
       inkscape:collect="always"
       id="linearGradient4539"><stop
         style="stop-color:#e26e6e;stop-opacity:1;"
         offset="0"
         id="stop4535" /><stop
         style="stop-color:#ff8080;stop-opacity:1"
         offset="0.5"
         id="stop4543" /><stop
         style="stop-color:#fae5e5;stop-opacity:1;"
         offset="1"
         id="stop4537" /></linearGradient><linearGradient
       inkscape:collect="always"
       id="linearGradient5042"><stop
         style="stop-color:#7b032d;stop-opacity:1;"
         offset="0"
         id="stop5038" /><stop
         style="stop-color:#a01227;stop-opacity:1;"
         offset="0.29999998"
         id="stop12907" /><stop
         style="stop-color:#ca0942;stop-opacity:1;"
         offset="0.49999997"
         id="stop7880" /><stop
         style="stop-color:#a01227;stop-opacity:1"
         offset="0.69999999"
         id="stop12905" /><stop
         style="stop-color:#80052c;stop-opacity:1"
         offset="1"
         id="stop5040" /></linearGradient><linearGradient
       y2="236"
       x2="96"
       y1="236"
       x1="32"
       gradientTransform="translate(604.81684,170.58641)"
       gradientUnits="userSpaceOnUse"
       id="linearGradient1099"
       xlink:href="#linearGradient1036" /><linearGradient
       id="linearGradient1036"><stop
         id="stop1032"
         offset="0"
         style="stop-color:#d5d3cf;stop-opacity:1;" /><stop
         id="stop1034"
         offset="1"
         style="stop-color:#f6f5f4;stop-opacity:1" /></linearGradient><radialGradient
       r="32"
       fy="-76"
       fx="-244"
       cy="-76"
       cx="-244"
       gradientTransform="matrix(0.88333331,0,0,0.88333331,-460.35018,463.11973)"
       gradientUnits="userSpaceOnUse"
       id="radialGradient1103"
       xlink:href="#linearGradient1069" /><linearGradient
       id="linearGradient1069"><stop
         id="stop1065"
         offset="0"
         style="stop-color:#d5d3cf;stop-opacity:1" /><stop
         id="stop1067-1"
         offset="1"
         style="stop-color:#949390;stop-opacity:1" /></linearGradient><linearGradient
       gradientUnits="userSpaceOnUse"
       y2="232"
       x2="64"
       y1="262.5"
       x1="64"
       id="linearGradient1027"
       xlink:href="#linearGradient1025"
       gradientTransform="translate(-470.5864,432.81685)" /><linearGradient
       id="linearGradient1025"><stop
         id="stop1021"
         offset="0"
         style="stop-color:#9a9996;stop-opacity:1" /><stop
         id="stop1023"
         offset="1"
         style="stop-color:#77767b;stop-opacity:1" /></linearGradient><inkscape:path-effect
       effect="spiro"
       id="path-effect35304-9"
       is_visible="true" /><clipPath
       clipPathUnits="userSpaceOnUse"
       id="clipPath1609-7"><path
         sodipodi:nodetypes="cccccc"
         inkscape:connector-curvature="0"
         id="path1611-5"
         d="m 252,116 28,-28 v -8 h -36 v 36 z"
         style="fill:#e74747;stroke:none;stroke-width:0.25px;stroke-linecap:butt;stroke-linejoin:miter;stroke-opacity:1" /></clipPath><radialGradient
       r="32"
       fy="-76"
       fx="-244"
       cy="-76"
       cx="-244"
       gradientTransform="matrix(0.88333331,0,0,0.88333331,-460.35018,463.11973)"
       gradientUnits="userSpaceOnUse"
       id="radialGradient1103-5"
       xlink:href="#linearGradient1069" /><inkscape:path-effect
       effect="spiro"
       id="path-effect35304-9-2"
       is_visible="true" /><clipPath
       clipPathUnits="userSpaceOnUse"
       id="clipPath1609-7-7"><path
         sodipodi:nodetypes="cccccc"
         inkscape:connector-curvature="0"
         id="path1611-5-0"
         d="m 252,116 28,-28 v -8 h -36 v 36 z"
         style="fill:#e74747;stroke:none;stroke-width:0.25px;stroke-linecap:butt;stroke-linejoin:miter;stroke-opacity:1" /></clipPath><clipPath
       clipPathUnits="userSpaceOnUse"
       id="clipPath744"><rect
         style="fill:#1e88e5;fill-opacity:1;stroke-width:0.264583"
         id="rect746"
         width="541.86664"
         height="541.86664"
         x="0"
         y="1.5987212e-14"
         rx="79.375"
         ry="79.375" /></clipPath><clipPath
       clipPathUnits="userSpaceOnUse"
       id="clipPath62"><rect
         style="fill:#1e88e5;fill-opacity:1;stroke-width:0.264583"
         id="rect64"
         width="541.86664"
         height="541.86664"
         x="2.2507105e-05"
         y="-0.42205024"
         rx="79.375"
         ry="79.375" /></clipPath><radialGradient
       r="32"
       fy="-76"
       fx="-244"
       cy="-76"
       cx="-244"
       gradientTransform="matrix(0.88333331,0,0,0.88333331,-460.35018,463.11973)"
       gradientUnits="userSpaceOnUse"
       id="radialGradient1103-6"
       xlink:href="#linearGradient1069" /><inkscape:path-effect
       effect="spiro"
       id="path-effect35304-9-20"
       is_visible="true" /><clipPath
       clipPathUnits="userSpaceOnUse"
       id="clipPath1609-7-2"><path
         sodipodi:nodetypes="cccccc"
         inkscape:connector-curvature="0"
         id="path1611-5-3"
         d="m 252,116 28,-28 v -8 h -36 v 36 z"
         style="fill:#e74747;stroke:none;stroke-width:0.25px;stroke-linecap:butt;stroke-linejoin:miter;stroke-opacity:1" /></clipPath><clipPath
       clipPathUnits="userSpaceOnUse"
       id="clipPath961"><rect
         style="fill:#00c853;stroke:none;stroke-width:0.529037"
         id="rect963"
         width="541.86664"
         height="541.86664"
         x="1.4210855e-14"
         y="2.717972e-05"
         rx="79.375"
         ry="79.375" /></clipPath><radialGradient
       r="32"
       fy="-76"
       fx="-244"
       cy="-76"
       cx="-244"
       gradientTransform="matrix(0.88333331,0,0,0.88333331,-460.35018,463.11973)"
       gradientUnits="userSpaceOnUse"
       id="radialGradient1103-56"
       xlink:href="#linearGradient1069" /><inkscape:path-effect
       effect="spiro"
       id="path-effect35304-9-7"
       is_visible="true" /><clipPath
       clipPathUnits="userSpaceOnUse"
       id="clipPath1440"><circle
         style="display:inline;opacity:1;vector-effect:none;fill:none;fill-opacity:1;stroke:#000000;stroke-width:2;stroke-linecap:butt;stroke-linejoin:miter;stroke-miterlimit:4;stroke-dasharray:none;stroke-dashoffset:0;stroke-opacity:1;marker:none;marker-start:none;marker-mid:none;marker-end:none;paint-order:normal;enable-background:new"
         id="circle1442"
         cx="-134.35028"
         cy="193.74727"
         r="24"
         transform="rotate(-45)" /></clipPath><clipPath
       clipPathUnits="userSpaceOnUse"
       id="clipPath1430"><circle
         style="display:inline;opacity:1;vector-effect:none;fill:none;fill-opacity:1;stroke:#000000;stroke-width:2;stroke-linecap:butt;stroke-linejoin:miter;stroke-miterlimit:4;stroke-dasharray:none;stroke-dashoffset:0;stroke-opacity:1;marker:none;marker-start:none;marker-mid:none;marker-end:none;paint-order:normal;enable-background:new"
         id="circle1432"
         cx="12"
         cy="232"
         r="24" /></clipPath><clipPath
       clipPathUnits="userSpaceOnUse"
       id="clipPath1440-9"><circle
         style="display:inline;opacity:1;vector-effect:none;fill:none;fill-opacity:1;stroke:#000000;stroke-width:2;stroke-linecap:butt;stroke-linejoin:miter;stroke-miterlimit:4;stroke-dasharray:none;stroke-dashoffset:0;stroke-opacity:1;marker:none;marker-start:none;marker-mid:none;marker-end:none;paint-order:normal;enable-background:new"
         id="circle1442-5"
         cx="-134.35028"
         cy="193.74727"
         r="24"
         transform="rotate(-45)" /></clipPath><clipPath
       clipPathUnits="userSpaceOnUse"
       id="clipPath1430-1"><circle
         style="display:inline;opacity:1;vector-effect:none;fill:none;fill-opacity:1;stroke:#000000;stroke-width:2;stroke-linecap:butt;stroke-linejoin:miter;stroke-miterlimit:4;stroke-dasharray:none;stroke-dashoffset:0;stroke-opacity:1;marker:none;marker-start:none;marker-mid:none;marker-end:none;paint-order:normal;enable-background:new"
         id="circle1432-8"
         cx="12"
         cy="232"
         r="24" /></clipPath><clipPath
       clipPathUnits="userSpaceOnUse"
       id="clipPath2024"><rect
         style="opacity:1;vector-effect:none;fill:#63452c;fill-opacity:1;stroke:none;stroke-width:4;stroke-linecap:round;stroke-linejoin:round;stroke-miterlimit:4;stroke-dasharray:none;stroke-dashoffset:0;stroke-opacity:1"
         id="rect2026"
         width="74"
         height="98"
         x="6"
         y="196" /></clipPath><linearGradient
       id="linearGradient914"
       inkscape:collect="always"><stop
         id="stop910"
         offset="0"
         style="stop-color:#f6f5f4;stop-opacity:0.43700787" /><stop
         id="stop912"
         offset="1"
         style="stop-color:#deddda;stop-opacity:0;" /></linearGradient><radialGradient
       gradientTransform="matrix(2.6086955,0,0,1.8410361,-102.95652,-748.94671)"
       gradientUnits="userSpaceOnUse"
       r="46"
       fy="296"
       fx="64.000008"
       cy="296"
       cx="64.000008"
       id="radialGradient916"
       xlink:href="#linearGradient914"
       inkscape:collect="always" /><clipPath
       clipPathUnits="userSpaceOnUse"
       id="clipPath11543"><rect
         style="fill:#f0c04e;fill-opacity:1;stroke:none;stroke-width:0.529037"
         id="rect11545"
         width="541.86664"
         height="541.86664"
         x="1.4746095e-06"
         y="6.4330168e-05"
         rx="79.375"
         ry="79.375" /></clipPath><style
       id="style374">.cls-1{fill:url(#linear-gradient);}.cls-2{opacity:0.35;fill:url(#radial-gradient);}.cls-2,.cls-4{isolation:isolate;}.cls-3{fill:url(#linear-gradient-2);}.cls-4{opacity:0.41;fill:url(#radial-gradient-2);}.cls-5{fill:url(#radial-gradient-3);}.cls-6{fill:url(#radial-gradient-4);}</style><linearGradient
       id="linear-gradient"
       x1="63.33"
       y1="84.03"
       x2="241.67"
       y2="84.03"
       gradientTransform="matrix(1,0,0,-1,0,266)"
       gradientUnits="userSpaceOnUse"><stop
         offset="0"
         stop-color="#0c59a4"
         id="stop376" /><stop
         offset="1"
         stop-color="#114a8b"
         id="stop378" /></linearGradient><radialGradient
       id="radial-gradient"
       cx="161.83"
       cy="68.91"
       r="95.38"
       gradientTransform="matrix(1,0,0,-0.95,0,248.84)"
       gradientUnits="userSpaceOnUse"><stop
         offset="0.72"
         stop-opacity="0"
         id="stop381" /><stop
         offset="0.95"
         stop-opacity="0.53"
         id="stop383" /><stop
         offset="1"
         id="stop385" /></radialGradient><linearGradient
       id="linear-gradient-2"
       x1="157.35"
       y1="161.39"
       x2="45.96"
       y2="40.06"
       gradientTransform="matrix(1,0,0,-1,0,266)"
       gradientUnits="userSpaceOnUse"><stop
         offset="0"
         stop-color="#1b9de2"
         id="stop388" /><stop
         offset="0.16"
         stop-color="#1595df"
         id="stop390" /><stop
         offset="0.67"
         stop-color="#0680d7"
         id="stop392" /><stop
         offset="1"
         stop-color="#0078d4"
         id="stop394" /></linearGradient><radialGradient
       id="radial-gradient-2"
       cx="-340.29"
       cy="62.99"
       r="143.24"
       gradientTransform="matrix(0.15,-0.99,-0.8,-0.12,176.64,-125.4)"
       gradientUnits="userSpaceOnUse"><stop
         offset="0.76"
         stop-opacity="0"
         id="stop397" /><stop
         offset="0.95"
         stop-opacity="0.5"
         id="stop399" /><stop
         offset="1"
         id="stop401" /></radialGradient><radialGradient
       id="radial-gradient-3"
       cx="113.37"
       cy="570.21"
       r="202.43"
       gradientTransform="matrix(-0.04,1,2.13,0.08,-1179.54,-106.69)"
       gradientUnits="userSpaceOnUse"><stop
         offset="0"
         stop-color="#35c1f1"
         id="stop404" /><stop
         offset="0.11"
         stop-color="#34c1ed"
         id="stop406" /><stop
         offset="0.23"
         stop-color="#2fc2df"
         id="stop408" /><stop
         offset="0.31"
         stop-color="#2bc3d2"
         id="stop410" /><stop
         offset="0.67"
         stop-color="#36c752"
         id="stop412" /></radialGradient><radialGradient
       id="radial-gradient-4"
       cx="376.52"
       cy="567.97"
       r="97.34"
       gradientTransform="matrix(0.28,0.96,0.78,-0.23,-303.76,-148.5)"
       gradientUnits="userSpaceOnUse"><stop
         offset="0"
         stop-color="#66eb6e"
         id="stop415" /><stop
         offset="1"
         stop-color="#66eb6e"
         stop-opacity="0"
         id="stop417" /></radialGradient><clipPath
       clipPathUnits="userSpaceOnUse"
       id="clipPath1260"><rect
         style="fill:#bbdefb;fill-opacity:1;stroke:none;stroke-width:0.529037"
         id="rect1262"
         width="541.86664"
         height="541.86664"
         x="2.9492187e-06"
         y="3.9968629e-05"
         rx="79.375"
         ry="79.375" /></clipPath><clipPath
       clipPathUnits="userSpaceOnUse"
       id="clipPath16285"><rect
         style="fill:#bbdefb;fill-opacity:1;stroke:none;stroke-width:0.529037"
         id="rect16287"
         width="541.86664"
         height="541.86664"
         x="0"
         y="6.4807005e-05"
         rx="79.375"
         ry="79.375" /></clipPath><clipPath
       clipPathUnits="userSpaceOnUse"
       id="clipPath990"><rect
         style="fill:#bbdefb;fill-opacity:1;stroke:none;stroke-width:0.529037"
         id="rect992"
         width="487.67996"
         height="487.67996"
         x="27.093349"
         y="27.093338"
         rx="71.4375"
         ry="71.4375" /></clipPath><linearGradient
       id="linearGradient4292"><stop
         id="stop4294"
         offset="0"
         style="stop-color:#411f5d;stop-opacity:1" /><stop
         id="stop4296"
         offset="1"
         style="stop-color:#5b2a85;stop-opacity:1" /></linearGradient><linearGradient
       id="linearGradient4284"><stop
         offset="0"
         style="stop-color:#8381c5;stop-opacity:1"
         id="stop4286" /><stop
         id="stop4290"
         style="stop-color:#7e55b3;stop-opacity:0.99607843"
         offset="0.56639391" /><stop
         offset="1"
         style="stop-color:#a52ecb;stop-opacity:0.99215686"
         id="stop4288" /></linearGradient><linearGradient
       id="linearGradient4898"><stop
         id="stop4278"
         style="stop-color:#bab8db;stop-opacity:1"
         offset="0" /><stop
         id="stop4280"
         style="stop-color:#5955a9;stop-opacity:0.99159664"
         offset="1" /></linearGradient><linearGradient
       id="linearGradient3294"><stop
         offset="0"
         style="stop-color:#6376e6;stop-opacity:1"
         id="stop3296" /><stop
         offset="0.50094414"
         style="stop-color:#222989;stop-opacity:1"
         id="stop3302" /><stop
         offset="1"
         style="stop-color:#00003d;stop-opacity:1"
         id="stop3298" /></linearGradient><linearGradient
       id="linearGradient3284"><stop
         offset="0"
         style="stop-color:#000000;stop-opacity:1"
         id="stop3286" /><stop
         offset="0.84845906"
         style="stop-color:#000000;stop-opacity:0.49803922"
         id="stop3292" /><stop
         offset="1"
         style="stop-color:#000000;stop-opacity:0"
         id="stop3288" /></linearGradient><linearGradient
       id="linearGradient3274"><stop
         offset="0"
         style="stop-color:#000000;stop-opacity:1"
         id="stop3276" /><stop
         offset="1"
         style="stop-color:#000000;stop-opacity:0"
         id="stop3278" /></linearGradient><linearGradient
       id="linearGradient3242"><stop
         offset="0"
         style="stop-color:#282828;stop-opacity:1"
         id="stop3244" /><stop
         offset="0.39253417"
         style="stop-color:#808080;stop-opacity:1"
         id="stop3252" /><stop
         offset="1"
         style="stop-color:#d9d9d9;stop-opacity:1"
         id="stop3246" /></linearGradient><linearGradient
       id="linearGradient3202"><stop
         offset="0"
         style="stop-color:#2b2b2b;stop-opacity:1"
         id="stop3204" /><stop
         offset="0.5"
         style="stop-color:#828383;stop-opacity:1"
         id="stop3250" /><stop
         offset="1"
         style="stop-color:#dadbdb;stop-opacity:1"
         id="stop3206" /></linearGradient><linearGradient
       id="linearGradient4966"><stop
         offset="0"
         style="stop-color:#b6b3d8;stop-opacity:1"
         id="stop4968" /><stop
         offset="1"
         style="stop-color:#b6b3d8;stop-opacity:0"
         id="stop4970" /></linearGradient><linearGradient
       id="linearGradient4876"><stop
         offset="0"
         style="stop-color:#d3d2e8;stop-opacity:1"
         id="stop4878" /><stop
         offset="1"
         style="stop-color:#5955a9;stop-opacity:0.99159664"
         id="stop4880" /></linearGradient><radialGradient
       gradientTransform="matrix(0.6817439,0,0,0.5905355,-3.8523706,-28.935273)"
       gradientUnits="userSpaceOnUse"
       xlink:href="#linearGradient4898"
       id="radialGradient4892"
       fy="-108.96888"
       fx="20.951529"
       r="266.76535"
       cy="-108.96888"
       cx="20.951529" /><radialGradient
       gradientTransform="matrix(1,0,0,0.1854103,0,383.88493)"
       gradientUnits="userSpaceOnUse"
       xlink:href="#linearGradient3274"
       id="radialGradient4944"
       fy="471.26172"
       fx="233.8876"
       r="170.49393"
       cy="471.26172"
       cx="233.8876" /><radialGradient
       gradientTransform="matrix(1,0,0,0.9121621,0,32.654948)"
       gradientUnits="userSpaceOnUse"
       xlink:href="#linearGradient4966"
       id="radialGradient4972"
       fy="371.76376"
       fx="299.70135"
       r="76.696358"
       cy="371.76376"
       cx="299.70135" /><radialGradient
       gradientTransform="matrix(0.414705,0.3300575,-0.5059004,0.6356454,346.95314,49.479585)"
       gradientUnits="userSpaceOnUse"
       xlink:href="#linearGradient3202"
       id="radialGradient3210"
       fy="390.45248"
       fx="289.44067"
       r="17.67668"
       cy="390.45248"
       cx="289.44067" /><radialGradient
       gradientTransform="matrix(0.414705,0.3300575,-0.5059004,0.6356454,448.41009,-65.398074)"
       gradientUnits="userSpaceOnUse"
       xlink:href="#linearGradient3202"
       id="radialGradient3238"
       fy="382.14804"
       fx="283.50717"
       r="17.67668"
       cy="382.14804"
       cx="283.50717" /><radialGradient
       gradientTransform="matrix(-6.5565014e-2,-5.9721765e-2,1.6871024,-1.8521705,171.90774,540.51473)"
       gradientUnits="userSpaceOnUse"
       xlink:href="#linearGradient3242"
       id="radialGradient3248"
       fy="181.18982"
       fx="418.45551"
       r="63.068935"
       cy="181.18982"
       cx="418.45551" /><radialGradient
       gradientTransform="matrix(0.4055116,-3.3440123e-2,0.1034174,4.3988695,177.23251,-1191.6649)"
       gradientUnits="userSpaceOnUse"
       xlink:href="#linearGradient3274"
       id="radialGradient3268"
       fy="357.33591"
       fx="354.51709"
       r="33.712105"
       cy="357.33591"
       cx="354.51709" /><radialGradient
       gradientTransform="matrix(-0.1339874,-0.1146812,0.3079048,-0.3597394,444.23592,395.03849)"
       gradientUnits="userSpaceOnUse"
       xlink:href="#linearGradient3274"
       id="radialGradient3280"
       fy="223.55537"
       fx="510.58469"
       r="132.28336"
       cy="223.55537"
       cx="510.58469" /><radialGradient
       gradientTransform="matrix(-1.2497569,1.3798305,-9.6289463e-2,-7.2974479e-2,674.3826,-70.590682)"
       gradientUnits="userSpaceOnUse"
       xlink:href="#linearGradient3284"
       id="radialGradient3290"
       fy="-158.17821"
       fx="284.4671"
       r="110.2972"
       cy="-158.17821"
       cx="284.4671" /><radialGradient
       gradientTransform="matrix(-0.1008165,-8.0872321e-2,1.0745309,-1.3395252,13.843287,784.79288)"
       gradientUnits="userSpaceOnUse"
       xlink:href="#linearGradient3294"
       id="radialGradient3300"
       fy="356.62274"
       fx="425.51019"
       r="143.34167"
       cy="356.62274"
       cx="425.51019" /><filter
       height="1.1062305"
       y="-0.053115233"
       width="1.1073157"
       x="-0.053657864"
       id="filter4350"
       style="color-interpolation-filters:sRGB"><feGaussianBlur
         id="feGaussianBlur4352"
         stdDeviation="8.7848425" /></filter><linearGradient
       y2="300.73987"
       x2="236.61363"
       y1="-161.8512"
       x1="-122.20192"
       spreadMethod="pad"
       gradientTransform="matrix(0.17595114,0,0,0.16675393,-57.890895,62.668437)"
       gradientUnits="userSpaceOnUse"
       id="linearGradient4245"
       xlink:href="#linearGradient4284" /><linearGradient
       y2="66.018341"
       x2="173.94518"
       y1="396.6066"
       x1="447.80933"
       gradientTransform="matrix(0.19870189,0,0,0.19870189,-106.81348,12.782767)"
       gradientUnits="userSpaceOnUse"
       id="linearGradient4247"
       xlink:href="#linearGradient4292" /><linearGradient
       inkscape:collect="always"
       xlink:href="#linearGradient5042"
       id="linearGradient5044"
       x1="9"
       y1="115"
       x2="119"
       y2="115"
       gradientUnits="userSpaceOnUse" /><linearGradient
       inkscape:collect="always"
       xlink:href="#linearGradient4539"
       id="linearGradient4541"
       x1="64"
       y1="115"
       x2="64"
       y2="7.5105515"
       gradientUnits="userSpaceOnUse" /><filter
       inkscape:collect="always"
       style="color-interpolation-filters:sRGB"
       id="filter4"
       x="-0.046277414"
       y="-0.049855785"
       width="1.0925548"
       height="1.0997116"><feGaussianBlur
         inkscape:collect="always"
         stdDeviation="1.2855173"
         id="feGaussianBlur4" /></filter></defs><g
     inkscape:groupmode="layer"
     id="layer2"
     inkscape:label="Layer 1"><path
       id="circle1035"
       style="fill:url(#linearGradient5044);fill-opacity:1"
       d="M 64 5 A 55 55 0 0 0 9 60 L 9 68 A 55 55 0 0 0 64 123 A 55 55 0 0 0 119 68 L 119 60 A 55 55 0 0 0 64 5 z " /><circle
       style="fill:url(#linearGradient4541);fill-opacity:1;stroke-width:1"
       id="path953"
       cx="64"
       cy="60"
       r="55"
       inkscape:export-filename="/home/retro/.icons/skeuowaita/scalable/apps/skeuwaita.png"
       inkscape:export-xdpi="1536"
       inkscape:export-ydpi="1536" /><text
       xml:space="preserve"
       style="font-style:normal;font-variant:normal;font-weight:normal;font-stretch:normal;font-size:40px;line-height:1.25;font-family:'DejaVu Math TeX Gyre';-inkscape-font-specification:'DejaVu Math TeX Gyre';fill:#000000;fill-opacity:1;stroke:none"
       x="57.303368"
       y="70.244858"
       id="text3441"><tspan
         sodipodi:role="line"
         id="tspan3439"
         x="57.303368"
         y="70.244858" /></text><text
       xml:space="preserve"
       style="font-size:40px;line-height:1.25;font-family:Caladea;-inkscape-font-specification:Caladea"
       x="43.168587"
       y="70.812454"
       id="text13903"><tspan
         sodipodi:role="line"
         id="tspan13901"
         x="43.168587"
         y="70.812454" /></text><rect
       style="display:none;fill:none;stroke-width:0.20135"
       id="rect4772"
       y="12.314822"
       x="-107.39003"
       height="103.09106"
       width="103.09106" /><g
       style="display:none"
       id="g4788"
       transform="matrix(0.20134972,0,0,0.20134972,-107.42446,12.274351)"><g
         style="display:inline"
         id="g4790" /></g><g
       style="display:none"
       id="g4806"
       transform="matrix(0.20134972,0,0,0.20134972,-107.42446,12.274351)"><g
         style="display:inline"
         id="g4808"><path
           style="display:none;fill:#050505"
           id="path4810"
           d="m 349.098,256.651 c -0.265,-0.254 37.637,27.605 39.421,25.012 6.362,-9.252 82.046,-93.137 84.784,-116.236 0.242,-2.003 -0.516,-4.096 -0.516,-4.096 0,0 -1.19,-0.144 -6.325,-4.314 -2.692,-2.192 -5.483,-4.581 -5.483,-4.581 -16.054,0.998 -57.885,41.559 -111.062,103.568" /></g></g><ellipse
       style="fill:#e34c4c;fill-opacity:1;stroke-width:0.956048"
       id="circle466"
       cx="64"
       cy="60.186546"
       inkscape:export-filename="/home/retro/.icons/skeuowaita/scalable/apps/skeuwaita.png"
       inkscape:export-xdpi="1536"
       inkscape:export-ydpi="1536"
       ry="52.675995"
       rx="52.489449" /><path
       style="fill:#a81d3f;fill-opacity:1;filter:url(#filter4)"
       d="m 73.341484,98.840632 c -3.271549,-0.37479 -5.70158,-1.08398 -11.162893,-3.25783 -4.59978,-1.83092 -6.608753,-2.46265 -8.746287,-2.75033 -0.811093,-0.10916 -1.072774,-0.1186 -2.492187,-0.0899 -0.872266,0.0176 -1.818415,0.0581 -2.102553,0.09 -1.097353,0.12322 -2.806697,0.79298 -4.524401,1.77277 -1.487573,0.84852 -2.137056,1.27825 -4.120228,2.72616 -0.459289,0.33533 -0.85737,0.5959 -0.884624,0.57906 -0.02725,-0.0168 -0.06592,-0.15403 -0.08593,-0.30486 -0.02001,-0.15083 -0.112691,-0.56559 -0.205961,-0.92168 -0.169582,-0.64745 -0.169582,-0.64745 0.04307,-0.83772 0.475011,-0.42502 2.869988,-2.40703 3.611093,-2.98844 3.925799,-3.07985 7.231301,-5.24785 11.129883,-7.29981 0.638623,-0.33613 1.249965,-0.65843 1.358536,-0.71621 0.186651,-0.0993 0.408781,-0.10515 4.078125,-0.10649 3.880722,-0.001 3.880722,-0.001 4.390488,-0.57017 1.634318,-1.8234 2.017019,-2.58126 2.028145,-4.0163 0.0042,-0.54219 -0.01663,-0.71281 -0.124286,-1.01792 -0.243409,-0.68984 -0.853115,-1.58801 -2.025324,-2.98355 -0.484861,-0.57723 -2.906627,-3.01517 -4.862023,-4.89449 -2.732618,-2.62631 -4.266331,-4.47783 -5.573842,-6.72883 -0.711798,-1.22543 -0.683553,-1.01963 -0.250966,-1.82858 0.40498,-0.75732 1.269645,-2.20516 1.804901,-3.02222 2.394356,-3.65494 5.087881,-6.755 8.50399,-9.78751 0.733703,-0.65132 1.025491,-0.96851 0.939395,-1.0212 -0.05975,-0.0366 -2.452222,-0.49765 -3.866748,-0.74521 -0.638623,-0.11177 -1.42876,-0.25252 -1.75586,-0.31278 -0.327099,-0.0603 -1.435839,-0.24867 -2.463867,-0.41868 -1.028027,-0.17001 -2.404394,-0.41145 -3.058594,-0.53654 -4.25802,-0.81415 -5.744145,-0.99783 -8.071289,-0.99758 -1.349159,1.4e-4 -1.66585,0.0175 -2.36635,0.12978 -1.078077,0.17279 -1.825829,0.39963 -2.646345,0.80282 -0.829214,0.40745 -1.506699,0.91148 -2.145829,1.59641 -0.90835,0.97346 -1.15492,1.7256 -1.04997,3.20286 0.11964,1.68406 0.5779,2.53518 2.283998,4.24202 0.95446,0.95487 1.220612,1.16896 2.61102,2.10031 0.467285,0.31301 0.895942,0.62102 0.952571,0.68446 0.05663,0.0634 0.136475,0.25953 0.177436,0.43574 0.07447,0.32038 0.07447,0.32038 -0.777144,1.05947 -1.401644,1.21645 -4.974251,4.16383 -5.913501,4.87861 -0.19234,0.14637 -0.38594,0.26612 -0.43024,0.26612 -0.12197,0 -1.20918,-1.00277 -2.19369,-2.02331 -0.67225,-0.69685 -0.96222,-1.04585 -1.23773,-1.4897 -0.7324,-1.1799 -1.14527,-2.18738 -1.35217,-3.29952 -0.0752,-0.40445 -0.0973,-0.84221 -0.0975,-1.93844 -2.6e-4,-1.36969 0.005,-1.4364 0.1598,-2.03907 0.35344,-1.37572 1.05993,-3.00443 1.8502,-4.26538 1.53516,-2.4495 4.13356,-5.02327 7.032859,-6.9662 4.418152,-2.96076 9.631719,-4.91053 14.65818,-5.48186 1.77899,-0.20221 3.752543,-0.164 6.34375,0.1228 2.406035,0.26631 6.190925,0.80266 9.770508,1.38456 2.706761,0.44001 3.295536,0.53106 4.953741,0.76605 3.393944,0.48097 5.631982,0.70638 8.186509,0.82451 4.033483,0.18653 6.822446,-0.3546 9.997446,-1.93975 0.87143,-0.43508 2.310105,-1.32759 2.868844,-1.77975 0.178415,-0.14439 0.178415,-0.14439 0.500085,0.83555 0.176918,0.53897 0.332497,1.01414 0.34573,1.05595 0.03414,0.10783 -1.097902,1.24771 -3.491824,3.51602 -1.139111,1.07934 -3.247439,3.09412 -4.685174,4.47728 -2.614064,2.51484 -2.614064,2.51484 -3.819515,2.81357 -2.383431,0.59064 -3.678684,0.75503 -6.282175,0.79733 -1.873668,0.0304 -3.282937,-0.0221 -4.976987,-0.18551 -1.524443,-0.14705 -3.613548,-0.4231 -4.757813,-0.62867 -1.641114,-0.29484 -1.466262,-0.29063 -1.907895,-0.0459 -1.701488,0.94299 -3.156571,2.39909 -3.922264,3.92501 -0.594178,1.18412 -0.864918,2.78057 -0.676978,3.99187 0.195087,1.25737 1.165442,3.00699 2.613405,4.71218 0.70013,0.82451 2.851186,3.03385 4.480934,4.60235 3.106534,2.98979 4.466148,4.57232 5.136552,5.97869 0.550735,1.15534 0.523667,1.92766 -0.113484,3.23798 -0.882375,1.81464 -3.190206,4.28084 -7.52357,8.03984 -1.567655,1.35987 -1.495968,1.19695 -0.692168,1.57311 4.380132,2.04982 9.202189,3.84836 10.761718,4.01393 0.632045,0.0671 1.631195,0.0657 2.411503,-0.003 0.906126,-0.0802 2.257052,-0.5445 4.320125,-1.48471 1.693879,-0.77195 4.519661,-2.30841 5.671657,-3.08384 0.108477,-0.073 0.227709,-0.13275 0.264959,-0.13275 0.03725,0 0.275157,0.42024 0.528679,0.93387 0.46095,0.93388 0.46095,0.93388 0.217528,1.21647 -0.930724,1.08051 -6.646115,5.5863 -11.035544,8.69999 -1.738608,1.23331 -3.396543,2.37282 -3.775324,2.59482 -0.67482,0.3955 -1.165267,0.44247 -2.738348,0.26226 z"
       id="path4" /><path
       style="fill:#404040;fill-opacity:1"
       d="m 73.341484,94.840632 c -3.271549,-0.37479 -5.70158,-1.08398 -11.162893,-3.25783 -4.59978,-1.83092 -6.608753,-2.46265 -8.746287,-2.75033 -0.811093,-0.10916 -1.072774,-0.1186 -2.492187,-0.0899 -0.872266,0.0176 -1.818415,0.0581 -2.102553,0.09 -1.097353,0.12322 -2.806697,0.79298 -4.524401,1.77277 -1.487573,0.84852 -2.137056,1.27825 -4.120228,2.72616 -0.459289,0.33533 -0.85737,0.5959 -0.884624,0.57906 -0.02725,-0.0168 -0.06592,-0.15403 -0.08593,-0.30486 -0.02001,-0.15083 -0.112691,-0.56559 -0.205961,-0.92168 -0.169582,-0.64745 -0.169582,-0.64745 0.04307,-0.83772 0.475011,-0.42502 2.869988,-2.40703 3.611093,-2.98844 3.925799,-3.07985 7.231301,-5.24785 11.129883,-7.29981 0.638623,-0.33613 1.249965,-0.65843 1.358536,-0.71621 0.186651,-0.0993 0.408781,-0.10515 4.078125,-0.10649 3.880722,-0.001 3.880722,-0.001 4.390488,-0.57017 1.634318,-1.8234 2.017019,-2.58126 2.028145,-4.0163 0.0042,-0.54219 -0.01663,-0.71281 -0.124286,-1.01792 -0.243409,-0.68984 -0.853115,-1.58801 -2.025324,-2.98355 -0.484861,-0.57723 -2.906627,-3.01517 -4.862023,-4.89449 -2.732618,-2.62631 -4.266331,-4.47783 -5.573842,-6.72883 -0.711798,-1.22543 -0.683553,-1.01963 -0.250966,-1.82858 0.40498,-0.75732 1.269645,-2.20516 1.804901,-3.02222 2.394356,-3.65494 5.087881,-6.755 8.50399,-9.78751 0.733703,-0.65132 1.025491,-0.96851 0.939395,-1.0212 -0.05975,-0.0366 -2.452222,-0.49765 -3.866748,-0.74521 -0.638623,-0.11177 -1.42876,-0.25252 -1.75586,-0.31278 -0.327099,-0.0603 -1.435839,-0.24867 -2.463867,-0.41868 -1.028027,-0.17001 -2.404394,-0.41145 -3.058594,-0.53654 -4.25802,-0.81415 -5.744145,-0.99783 -8.071289,-0.99758 -1.349159,1.4e-4 -1.66585,0.0175 -2.36635,0.12978 -1.078077,0.17279 -1.825829,0.39963 -2.646345,0.80282 -0.829214,0.40745 -1.506699,0.91148 -2.145829,1.59641 -0.90835,0.97346 -1.15492,1.7256 -1.04997,3.20286 0.11964,1.68406 0.5779,2.53518 2.283998,4.24202 0.95446,0.95487 1.220612,1.16896 2.61102,2.10031 0.467285,0.31301 0.895942,0.62102 0.952571,0.68446 0.05663,0.0634 0.136475,0.25953 0.177436,0.43574 0.07447,0.32038 0.07447,0.32038 -0.777144,1.05947 -1.401644,1.21645 -4.974251,4.16383 -5.913501,4.87861 -0.19234,0.14637 -0.38594,0.26612 -0.43024,0.26612 -0.12197,0 -1.20918,-1.00277 -2.19369,-2.02331 -0.67225,-0.69685 -0.96222,-1.04585 -1.23773,-1.4897 -0.7324,-1.1799 -1.14527,-2.18738 -1.35217,-3.29952 -0.0752,-0.40445 -0.0973,-0.84221 -0.0975,-1.93844 -2.6e-4,-1.36969 0.005,-1.4364 0.1598,-2.03907 0.35344,-1.37572 1.05993,-3.00443 1.8502,-4.26538 1.53516,-2.4495 4.13356,-5.02327 7.032859,-6.9662 4.418152,-2.96076 9.631719,-4.91053 14.65818,-5.48186 1.77899,-0.20221 3.752543,-0.164 6.34375,0.1228 2.406035,0.26631 6.190925,0.80266 9.770508,1.38456 2.706761,0.44001 3.295536,0.53106 4.953741,0.76605 3.393944,0.48097 5.631982,0.70638 8.186509,0.82451 4.033483,0.18653 6.822446,-0.3546 9.997446,-1.93975 0.87143,-0.43508 2.310105,-1.32759 2.868844,-1.77975 0.178415,-0.14439 0.178415,-0.14439 0.500085,0.83555 0.176918,0.53897 0.332497,1.01414 0.34573,1.05595 0.03414,0.10783 -1.097902,1.24771 -3.491824,3.51602 -1.139111,1.07934 -3.247439,3.09412 -4.685174,4.47728 -2.614064,2.51484 -2.614064,2.51484 -3.819515,2.81357 -2.383431,0.59064 -3.678684,0.75503 -6.282175,0.79733 -1.873668,0.0304 -3.282937,-0.0221 -4.976987,-0.18551 -1.524443,-0.14705 -3.613548,-0.4231 -4.757813,-0.62867 -1.641114,-0.29484 -1.466262,-0.29063 -1.907895,-0.0459 -1.701488,0.94299 -3.156571,2.39909 -3.922264,3.92501 -0.594178,1.18412 -0.864918,2.78057 -0.676978,3.99187 0.195087,1.25737 1.165442,3.00699 2.613405,4.71218 0.70013,0.82451 2.851186,3.03385 4.480934,4.60235 3.106534,2.98979 4.466148,4.57232 5.136552,5.97869 0.550735,1.15534 0.523667,1.92766 -0.113484,3.23798 -0.882375,1.81464 -3.190206,4.28084 -7.52357,8.03984 -1.567655,1.35987 -1.495968,1.19695 -0.692168,1.57311 4.380132,2.04982 9.202189,3.84836 10.761718,4.01393 0.632045,0.0671 1.631195,0.0657 2.411503,-0.003 0.906126,-0.0802 2.257052,-0.5445 4.320125,-1.48471 1.693879,-0.77195 4.519661,-2.30841 5.671657,-3.08384 0.108477,-0.073 0.227709,-0.13275 0.264959,-0.13275 0.03725,0 0.275157,0.42024 0.528679,0.93387 0.46095,0.93388 0.46095,0.93388 0.217528,1.21647 -0.930724,1.08051 -6.646115,5.5863 -11.035544,8.69999 -1.738608,1.23331 -3.396543,2.37282 -3.775324,2.59482 -0.67482,0.3955 -1.165267,0.44247 -2.738348,0.26226 z"
       id="path3" /><path
       id="path1"
       style="fill:#7f7f7f;fill-opacity:1"
       d="M 96.595703 33.058594 C 96.565587 33.063587 96.532885 33.090856 96.488281 33.126953 C 95.929542 33.579113 94.490571 34.47117 93.619141 34.90625 C 90.444141 36.4914 87.654577 37.034186 83.621094 36.847656 C 81.066567 36.729526 78.829491 36.502454 75.435547 36.021484 C 73.777342 35.786494 73.18723 35.695869 70.480469 35.255859 C 66.900886 34.673959 63.116973 34.137404 60.710938 33.871094 C 58.11973 33.584294 56.146178 33.545837 54.367188 33.748047 C 49.340726 34.319377 44.127136 36.269709 39.708984 39.230469 C 36.809685 41.173399 34.210941 43.747766 32.675781 46.197266 C 31.885511 47.458216 31.179612 49.087171 30.826172 50.462891 C 30.671372 51.065561 30.665756 51.132263 30.666016 52.501953 C 30.666084 52.878839 30.669267 53.177199 30.675781 53.423828 C 30.690588 53.009082 30.728574 52.84286 30.826172 52.462891 C 31.179612 51.087171 31.885511 49.458216 32.675781 48.197266 C 34.210941 45.747766 36.809685 43.173399 39.708984 41.230469 C 44.127136 38.269709 49.340726 36.319377 54.367188 35.748047 C 56.146178 35.545837 58.11973 35.584294 60.710938 35.871094 C 63.116973 36.137404 66.900886 36.673959 70.480469 37.255859 C 73.18723 37.695869 73.777342 37.786494 75.435547 38.021484 C 78.829491 38.502454 81.066567 38.729526 83.621094 38.847656 C 87.654577 39.034186 90.444141 38.4914 93.619141 36.90625 C 94.490571 36.47117 95.929542 35.579113 96.488281 35.126953 C 96.640418 35.00383 96.662489 34.986876 96.865234 35.591797 C 97.171814 35.270855 97.326477 35.083019 97.333984 35.027344 L 97.333984 35.025391 L 97.333984 35.023438 L 97.333984 35.021484 L 97.333984 35.019531 C 97.320751 34.977721 97.165199 34.501861 96.988281 33.962891 C 96.747029 33.227936 96.68605 33.043614 96.595703 33.058594 z M 62.416016 46.527344 C 59.333227 49.357328 56.850689 52.276355 54.625 55.673828 C 54.089744 56.490888 53.223339 57.937993 52.818359 58.695312 C 52.402888 59.472256 52.360384 59.312916 52.988281 60.384766 C 53.432246 59.58914 54.155968 58.389798 54.625 57.673828 C 57.019356 54.018888 59.712797 50.919229 63.128906 47.886719 C 63.862609 47.235399 64.154455 46.917924 64.068359 46.865234 C 64.035669 46.84521 63.303063 46.697001 62.416016 46.527344 z M 36.699219 48.132812 C 36.61508 48.544149 36.601696 49.010481 36.642578 49.585938 C 36.762218 51.269998 37.219683 52.121285 38.925781 53.828125 C 39.880241 54.782995 40.146701 54.996384 41.537109 55.927734 C 41.645191 56.000133 41.751739 56.071726 41.851562 56.140625 C 41.864721 56.12923 41.877825 56.118531 41.890625 56.107422 C 42.742239 55.368332 42.742439 55.369208 42.667969 55.048828 C 42.627008 54.872618 42.546864 54.676681 42.490234 54.613281 C 42.433605 54.549841 42.004394 54.240744 41.537109 53.927734 C 40.146701 52.996384 39.880241 52.782995 38.925781 51.828125 C 37.414856 50.316543 36.884321 49.47502 36.699219 48.132812 z M 62.835938 53.8125 C 62.737418 54.464939 62.724733 55.11402 62.8125 55.679688 C 63.007587 56.937058 63.977818 58.687388 65.425781 60.392578 C 66.125911 61.217088 68.276502 63.425641 69.90625 64.994141 C 73.012784 67.983931 74.372565 69.566286 75.042969 70.972656 C 75.123417 71.141422 75.192357 71.30174 75.248047 71.457031 C 75.553871 70.563581 75.479602 69.888632 75.042969 68.972656 C 74.372565 67.566286 73.012784 65.983931 69.90625 62.994141 C 68.276502 61.425641 66.125911 59.217088 65.425781 58.392578 C 64.027907 56.746375 63.075713 55.058633 62.835938 53.8125 z M 65.550781 77.1875 C 65.351203 78.065401 64.824924 78.829446 63.626953 80.166016 C 63.117187 80.735186 63.11705 80.735328 59.236328 80.736328 C 55.566984 80.737668 55.344854 80.742497 55.158203 80.841797 C 55.049632 80.899577 54.439404 81.222464 53.800781 81.558594 C 49.902199 83.610554 46.595721 85.777572 42.669922 88.857422 C 41.928817 89.438832 39.533605 91.420683 39.058594 91.845703 C 38.845942 92.035973 38.846043 92.036144 39.015625 92.683594 C 39.108895 93.039684 39.202646 93.454639 39.222656 93.605469 C 39.226585 93.635083 39.231188 93.663649 39.236328 93.691406 C 39.960539 93.068408 41.996855 91.385455 42.669922 90.857422 C 46.595721 87.777572 49.902199 85.610554 53.800781 83.558594 C 54.439404 83.222464 55.049632 82.899577 55.158203 82.841797 C 55.344854 82.742497 55.566984 82.737668 59.236328 82.736328 C 63.11705 82.735328 63.117187 82.735186 63.626953 82.166016 C 65.261271 80.342616 65.645124 79.583478 65.65625 78.148438 C 65.660188 77.640098 65.641777 77.459666 65.550781 77.1875 z M 90.144531 81.132812 C 90.107281 81.132813 89.987383 81.192625 89.878906 81.265625 C 88.72691 82.041055 85.90091 83.577659 84.207031 84.349609 C 82.143958 85.289819 80.794798 85.753784 79.888672 85.833984 C 79.108364 85.902684 78.108608 85.904991 77.476562 85.837891 C 76.008289 85.682009 71.646908 84.079376 67.486328 82.181641 C 67.459561 82.204896 67.433174 82.226645 67.40625 82.25 C 65.838595 83.60987 65.911044 83.448059 66.714844 83.824219 C 71.094976 85.874039 75.917034 87.672321 77.476562 87.837891 C 78.108608 87.904991 79.108364 87.902684 79.888672 87.833984 C 80.794798 87.753784 82.143958 87.289819 84.207031 86.349609 C 85.90091 85.577659 88.72691 84.041055 89.878906 83.265625 C 89.987383 83.192625 90.107281 83.132813 90.144531 83.132812 L 90.146484 83.132812 L 90.146484 83.134766 L 90.148438 83.134766 L 90.150391 83.136719 C 90.189083 83.163458 90.321698 83.38756 90.484375 83.697266 C 90.662027 83.529867 90.799312 83.389211 90.890625 83.283203 C 91.134047 83.000613 91.134778 83.002239 90.673828 82.068359 C 90.43219 81.578806 90.203437 81.173585 90.150391 81.136719 L 90.148438 81.134766 L 90.146484 81.134766 L 90.144531 81.132812 z " /><path
       id="path2"
       style="fill:#171717;fill-opacity:1"
       d="M 96.865234 33.591797 C 96.329054 34.153095 95.328794 35.126183 93.841797 36.535156 C 92.702686 37.614496 90.593985 39.628559 89.15625 41.011719 C 86.542186 43.526559 86.543342 43.527442 85.337891 43.826172 C 82.95446 44.416812 81.658179 44.580747 79.054688 44.623047 C 77.18102 44.653447 75.772175 44.60091 74.078125 44.4375 C 72.553682 44.29045 70.464578 44.014164 69.320312 43.808594 C 67.679198 43.513754 67.853742 43.518942 67.412109 43.763672 C 65.710621 44.706662 64.255927 46.16158 63.490234 47.6875 C 62.896056 48.87162 62.62456 50.468388 62.8125 51.679688 C 62.819249 51.723183 62.827346 51.767849 62.835938 51.8125 C 62.948384 51.067831 63.173533 50.318645 63.490234 49.6875 C 64.255927 48.16158 65.710621 46.706662 67.412109 45.763672 C 67.853742 45.518942 67.679198 45.513754 69.320312 45.808594 C 70.464578 46.014164 72.553682 46.29045 74.078125 46.4375 C 75.772175 46.60091 77.18102 46.653447 79.054688 46.623047 C 81.658179 46.580747 82.95446 46.416812 85.337891 45.826172 C 86.543342 45.527442 86.542186 45.526559 89.15625 43.011719 C 90.593985 41.628559 92.702686 39.614496 93.841797 38.535156 C 96.235719 36.266846 97.368124 35.127361 97.333984 35.019531 C 97.320751 34.977721 97.165199 34.501861 96.988281 33.962891 C 96.940904 33.81856 96.900253 33.696281 96.865234 33.591797 z M 44.851562 39.853516 C 43.502403 39.853656 43.184875 39.872095 42.484375 39.984375 C 41.406298 40.157165 40.658407 40.383919 39.837891 40.787109 C 39.008677 41.194559 38.332489 41.697882 37.693359 42.382812 C 36.785009 43.356273 36.537628 44.108677 36.642578 45.585938 C 36.656265 45.77859 36.675308 45.959433 36.699219 46.132812 C 36.831074 45.488203 37.138851 44.977068 37.693359 44.382812 C 38.332489 43.697882 39.008677 43.194559 39.837891 42.787109 C 40.658407 42.383919 41.406298 42.157165 42.484375 41.984375 C 43.184875 41.872095 43.502403 41.853656 44.851562 41.853516 C 47.178706 41.853266 48.663855 42.037413 52.921875 42.851562 C 53.576075 42.976653 54.952442 43.218662 55.980469 43.388672 C 57.008497 43.558682 58.118214 43.746341 58.445312 43.806641 C 58.772413 43.866901 59.562549 44.007371 60.201172 44.119141 C 60.841778 44.231255 61.681768 44.386911 62.416016 44.527344 C 62.649635 44.312883 62.888264 44.100339 63.128906 43.886719 C 63.862609 43.235399 64.154455 42.917924 64.068359 42.865234 C 64.008609 42.828634 61.615698 42.366701 60.201172 42.119141 C 59.562549 42.007371 58.772413 41.866901 58.445312 41.806641 C 58.118214 41.746341 57.008497 41.558682 55.980469 41.388672 C 54.952442 41.218662 53.576075 40.976653 52.921875 40.851562 C 48.663855 40.037413 47.178706 39.853266 44.851562 39.853516 z M 30.675781 51.423828 C 30.667103 51.666912 30.66592 51.99582 30.666016 52.501953 C 30.666216 53.598183 30.688472 54.035003 30.763672 54.439453 C 30.970572 55.551593 31.382834 56.560334 32.115234 57.740234 C 32.390744 58.184084 32.681266 58.531666 33.353516 59.228516 C 34.322643 60.23311 35.391516 61.221343 35.541016 61.251953 C 35.542086 61.252075 35.545922 61.251953 35.546875 61.251953 C 35.591175 61.251953 35.784222 61.132698 35.976562 60.986328 C 36.915812 60.271548 40.488981 57.323872 41.890625 56.107422 C 42.742239 55.368332 42.742439 55.369208 42.667969 55.048828 C 42.627008 54.872618 42.546864 54.676681 42.490234 54.613281 C 42.446704 54.564515 42.183319 54.369606 41.851562 54.140625 C 40.423826 55.376965 36.907235 58.278076 35.976562 58.986328 C 35.784222 59.132698 35.591175 59.251953 35.546875 59.251953 C 35.545922 59.251953 35.542086 59.252075 35.541016 59.251953 C 35.391516 59.221343 34.322643 58.23311 33.353516 57.228516 C 32.681266 56.531666 32.390744 56.184084 32.115234 55.740234 C 31.382834 54.560334 30.970572 53.551593 30.763672 52.439453 C 30.714326 52.174054 30.688214 51.894556 30.675781 51.423828 z M 52.988281 58.384766 C 52.925597 58.497102 52.868465 58.601614 52.818359 58.695312 C 52.385772 59.504263 52.358514 59.298007 53.070312 60.523438 C 54.377823 62.774437 55.911913 64.625643 58.644531 67.251953 C 60.599927 69.131273 63.020998 71.569254 63.505859 72.146484 C 64.678068 73.542024 65.287841 74.441019 65.53125 75.130859 C 65.537971 75.149908 65.544722 75.169376 65.550781 75.1875 C 65.623475 74.867735 65.653279 74.531579 65.65625 74.148438 C 65.66045 73.606247 65.638906 73.435969 65.53125 73.130859 C 65.287841 72.441019 64.678068 71.542024 63.505859 70.146484 C 63.020998 69.569254 60.599927 67.131273 58.644531 65.251953 C 55.911913 62.625643 54.377823 60.774437 53.070312 58.523438 C 53.04215 58.474953 53.014148 58.428921 52.988281 58.384766 z M 75.248047 69.457031 C 75.168129 69.690509 75.061693 69.939465 74.929688 70.210938 C 74.047313 72.025577 71.739614 74.491 67.40625 78.25 C 65.838595 79.60987 65.911044 79.448059 66.714844 79.824219 C 66.971146 79.944163 67.227742 80.063694 67.486328 80.181641 C 71.767778 76.461936 74.052795 74.014303 74.929688 72.210938 C 75.473767 71.092022 75.573599 70.364834 75.248047 69.457031 z M 90.484375 81.697266 C 88.851278 83.236112 83.814253 87.176168 79.855469 89.984375 C 78.116861 91.217685 76.458859 92.356125 76.080078 92.578125 C 75.405258 92.973625 74.914878 93.022007 73.341797 92.841797 L 73.341797 92.839844 C 70.070248 92.465054 67.639047 91.755881 62.177734 89.582031 C 57.577954 87.751111 55.569175 87.119711 53.431641 86.832031 C 52.620548 86.722871 52.358866 86.713487 50.939453 86.742188 C 50.067187 86.759788 49.122029 86.800131 48.837891 86.832031 C 47.740538 86.955251 46.030204 87.625679 44.3125 88.605469 C 42.824927 89.453989 42.176531 89.884121 40.193359 91.332031 C 39.7556 91.651643 39.370963 91.903796 39.3125 91.912109 L 39.310547 91.912109 L 39.308594 91.910156 L 39.306641 91.908203 L 39.304688 91.90625 C 39.283349 91.88468 39.256051 91.797919 39.236328 91.691406 C 39.16312 91.754383 39.102203 91.806684 39.058594 91.845703 C 38.845942 92.035973 38.846043 92.036144 39.015625 92.683594 C 39.108895 93.039684 39.202646 93.454639 39.222656 93.605469 C 39.242041 93.751585 39.279579 93.884738 39.306641 93.908203 L 39.306641 93.910156 L 39.308594 93.910156 L 39.310547 93.912109 L 39.3125 93.912109 C 39.370963 93.903796 39.7556 93.651643 40.193359 93.332031 C 42.176531 91.884121 42.824927 91.453989 44.3125 90.605469 C 46.030204 89.625679 47.740538 88.955251 48.837891 88.832031 C 49.122029 88.800131 50.067187 88.759788 50.939453 88.742188 C 52.358866 88.713487 52.620548 88.722871 53.431641 88.832031 C 55.569175 89.119711 57.577954 89.751111 62.177734 91.582031 C 67.639047 93.755881 70.070248 94.465054 73.341797 94.839844 L 73.341797 94.841797 C 74.914878 95.022007 75.405258 94.973625 76.080078 94.578125 C 76.458859 94.356125 78.116861 93.217685 79.855469 91.984375 C 84.244898 88.870685 89.959901 84.363713 90.890625 83.283203 C 91.134047 83.000613 91.134778 83.002239 90.673828 82.068359 C 90.608827 81.936669 90.544204 81.811169 90.484375 81.697266 z " /></g></svg>
